<?xml version="1.0" encoding="UTF-8"?>
<svg version="1.1" xmlns="http://www.w3.org/2000/svg" width="1080" height="1080">
<path d="M0 0 C1.67959087 -0.00533075 3.35917697 -0.01239948 5.03875405 -0.02104706 C9.6354676 -0.03963115 14.23185805 -0.03338403 18.82858479 -0.02289402 C23.79324766 -0.01589001 28.75784495 -0.03190906 33.7224884 -0.04489136 C43.44113627 -0.06651635 53.15966698 -0.06640831 62.878331 -0.05826581 C70.77846774 -0.05196212 78.67857036 -0.05310624 86.57870674 -0.05953789 C87.70374791 -0.06043954 88.82878909 -0.0613412 89.98792242 -0.06227018 C92.27354304 -0.06412141 94.55916366 -0.06598397 96.84478427 -0.06785773 C118.27055703 -0.08443095 139.69626391 -0.07572102 161.12203271 -0.05887216 C180.71729839 -0.04417534 200.31241073 -0.05880423 219.90765666 -0.08764232 C240.03695399 -0.11704536 260.16618057 -0.12800596 280.29549843 -0.11846012 C282.57294562 -0.11743758 284.85039283 -0.11644297 287.12784004 -0.11547661 C288.24833521 -0.11500022 289.36883038 -0.11452383 290.52327995 -0.114033 C298.41156817 -0.11187009 306.29978932 -0.12166641 314.18806267 -0.13624763 C323.80474387 -0.15377607 333.42122959 -0.15364613 343.03790312 -0.13089598 C347.94262547 -0.11975861 352.84700347 -0.11658001 357.75171089 -0.13519669 C362.24555956 -0.15203416 366.7387644 -0.14560628 371.23257161 -0.1209799 C372.85425838 -0.11610694 374.47599741 -0.11958407 376.09764033 -0.13246734 C385.53324651 -0.201993 393.09262095 0.58914496 401.42018127 5.5146637 C402.34352797 6.02303361 403.26687467 6.53140352 404.21820158 7.05517858 C404.94485488 7.53680867 405.67150818 8.01843876 406.42018127 8.5146637 C406.42018127 9.1746637 406.42018127 9.8346637 406.42018127 10.5146637 C407.00799377 10.75958557 407.59580627 11.00450745 408.20143127 11.2568512 C414.25877238 14.6907664 419.26723106 22.95163806 421.42018127 29.5146637 C422.25979243 35.1293599 422.56388364 40.56238896 422.54881573 46.2329464 C422.55056876 47.07830291 422.5523218 47.92365942 422.55412796 48.79463279 C422.55877328 51.62225526 422.55632625 54.44982598 422.55389404 57.27745056 C422.55576275 59.32725428 422.55806369 61.37705765 422.56075937 63.42686045 C422.56687629 69.05606576 422.5667439 74.68525622 422.56556499 80.31446409 C422.56536096 86.38683012 422.57087993 92.45919137 422.57562256 98.53155518 C422.58392881 110.42651582 422.58669034 122.32147167 422.58723494 134.21643446 C422.58769466 143.88387496 422.58975393 153.55131384 422.59293556 163.21875381 C422.59383312 166.00251821 422.59472293 168.78628262 422.59561044 171.57004702 C422.59594201 172.60814845 422.59594201 172.60814845 422.59628028 173.66722163 C422.60243329 193.13009857 422.60638096 212.59297494 422.605937 232.05585289 C422.60592143 232.78945413 422.60590585 233.52305536 422.6058898 234.27888694 C422.60580669 237.99700569 422.60570765 241.71512445 422.60560509 245.4332432 C422.60557517 246.54087368 422.60557517 246.54087368 422.60554465 247.67088054 C422.60550421 249.16414534 422.60546241 250.65741015 422.60541926 252.15067496 C422.60480642 275.38659412 422.61231511 298.6224987 422.62599182 321.8584137 C422.64135419 347.96886496 422.64995797 374.07930664 422.6490286 400.18976271 C422.64895397 402.97415582 422.64890526 405.75854893 422.64887428 408.54294205 C422.6488568 409.57131138 422.6488568 409.57131138 422.64883897 410.62045585 C422.6488082 421.64958699 422.65519194 432.67870545 422.66380655 443.70783282 C422.67228554 454.79260658 422.6730995 465.87736552 422.66669723 476.96214174 C422.66342789 482.96634298 422.66339034 488.97049831 422.67205048 494.97469521 C422.67989789 500.4719171 422.67850201 505.96905653 422.66976634 511.46627636 C422.6682275 513.45408932 422.67006196 515.44190837 422.67562642 517.42971413 C422.71770546 533.5289941 422.36466507 547.39881553 410.67018127 559.8271637 C405.01424702 565.11399668 398.57172565 568.67380842 391.42018127 571.5146637 C391.09018127 571.8446637 390.76018127 572.1746637 390.42018127 572.5146637 C388.25703502 572.61270365 386.09061297 572.63837514 383.92524624 572.63771152 C383.23523593 572.63886537 382.54522562 572.64001921 381.83430591 572.64120802 C379.4930701 572.64388134 377.15190135 572.6393467 374.81066895 572.63491821 C373.12688718 572.63535377 371.44310547 572.63622839 369.75932413 572.63750738 C365.1097328 572.63975541 360.46016427 572.63572688 355.81057584 572.63072932 C350.80509335 572.62642939 345.79961224 572.62787091 340.79412842 572.62863159 C332.11425405 572.62915712 323.43438718 572.62600733 314.75451469 572.62039375 C302.2047216 572.61228263 289.65493214 572.60966393 277.1051367 572.60840576 C256.74620093 572.60621463 236.38726917 572.59955289 216.02833557 572.59010315 C196.24610921 572.58093061 176.46388394 572.573849 156.68165588 572.56959534 C155.46322441 572.56933261 154.24479294 572.56906989 152.9894393 572.56879921 C146.87720887 572.56749421 140.76497843 572.56623049 134.65274799 572.5649873 C83.90855632 572.55461279 33.16436899 572.53699282 -17.57981873 572.5146637 C-17.90981873 571.8546637 -18.23981873 571.1946637 -18.57981873 570.5146637 C-21.10715108 569.8591125 -21.10715108 569.8591125 -23.57981873 569.5146637 C-23.57981873 568.8546637 -23.57981873 568.1946637 -23.57981873 567.5146637 C-24.13669373 567.4115387 -24.69356873 567.3084137 -25.26731873 567.2021637 C-29.13567324 566.05211235 -32.24450626 563.73820534 -35.57981873 561.5146637 C-35.57981873 560.8546637 -35.57981873 560.1946637 -35.57981873 559.5146637 C-36.23981873 559.5146637 -36.89981873 559.5146637 -37.57981873 559.5146637 C-37.57981873 558.8546637 -37.57981873 558.1946637 -37.57981873 557.5146637 C-38.23981873 557.5146637 -38.89981873 557.5146637 -39.57981873 557.5146637 C-40.23981873 555.8646637 -40.89981873 554.2146637 -41.57981873 552.5146637 C-42.23981873 552.5146637 -42.89981873 552.5146637 -43.57981873 552.5146637 C-45.34444556 549.42656674 -45.57981873 548.28154234 -45.57981873 544.5146637 C-46.56981873 544.1846637 -47.55981873 543.8546637 -48.57981873 543.5146637 C-48.57981873 373.5646637 -48.57981873 203.6146637 -48.57981873 28.5146637 C-47.58981873 28.1846637 -46.59981873 27.8546637 -45.57981873 27.5146637 C-45.57981873 26.1946637 -45.57981873 24.8746637 -45.57981873 23.5146637 C-44.91981873 23.5146637 -44.25981873 23.5146637 -43.57981873 23.5146637 C-43.47669373 22.93329651 -43.37356873 22.35192932 -43.26731873 21.75294495 C-40.87783042 13.97353132 -31.57075347 7.23191395 -24.7116074 3.49754006 C-16.67126638 -0.24254001 -8.67405569 -0.04817888 0 0 Z M19.42018127 62.5146637 C19.42018127 63.1746637 19.42018127 63.8346637 19.42018127 64.5146637 C18.76018127 64.5146637 18.10018127 64.5146637 17.42018127 64.5146637 C13.50688528 71.38579655 13.96492296 78.41388189 13.98658752 86.13575745 C13.98201927 87.56390632 13.97671179 88.992053 13.97070312 90.42019653 C13.96179803 93.40498314 13.96416511 96.38950182 13.97413635 99.37428284 C13.9856222 103.18169017 13.9654084 106.98816947 13.93621922 110.79545498 C13.91779077 113.74249047 13.91816277 116.68930626 13.92385674 119.63638496 C13.92400914 121.03928491 13.9180318 122.44220052 13.90556526 123.84504509 C13.84478737 131.80454332 13.99170209 137.76191579 18.42018127 144.5146637 C22.23380176 148.09715567 25.7099284 148.63953357 30.81697559 148.64888477 C32.50809018 148.65557154 32.50809018 148.65557154 34.23336869 148.66239339 C35.47731375 148.66220903 36.72125881 148.66202467 38.00289917 148.66183472 C39.32021646 148.6655114 40.63753375 148.66918809 41.99476975 148.6729762 C45.65911788 148.68300111 49.32344964 148.68671377 52.98780954 148.68936551 C56.9367908 148.69326703 60.88575908 148.70284538 64.83473206 148.71157837 C74.37456045 148.73134566 83.91438992 148.7414087 93.45423368 148.75030616 C97.94481318 148.75468807 102.43539151 148.76005508 106.92597008 148.76529503 C121.8498488 148.78230652 136.77372679 148.79680174 151.69761372 148.80404377 C155.57087518 148.80595371 159.44413663 148.80787404 163.31739807 148.80982971 C164.28009628 148.81031345 165.24279448 148.81079719 166.23466536 148.81129559 C181.83741951 148.81959982 197.4400971 148.84494371 213.04281781 148.87741039 C229.05521902 148.91045847 245.06758129 148.92849043 261.08001679 148.93168801 C270.07313071 148.93385505 279.06613292 148.94263212 288.05921364 148.96814919 C295.71636469 148.98982534 303.37337691 148.99792181 311.03055517 148.9881824 C314.93816705 148.98362889 318.84549229 148.98558462 322.75306511 149.00494385 C326.33029093 149.02251363 329.90701969 149.02162877 333.48425033 149.00604656 C335.39144372 149.00253084 337.29864196 149.01874285 339.20576364 149.03565103 C347.40914559 148.97364407 350.91532506 147.97681202 356.76184082 142.20153809 C358.87533496 138.77721513 358.93344733 136.53614427 358.95362854 132.52467346 C358.96224411 131.84107758 358.97085968 131.15748169 358.97973633 130.45317078 C359.00235407 128.20374691 358.99566581 125.95557327 358.98658752 123.70606995 C358.99182533 122.13574861 358.99810238 120.56543043 359.00537109 118.99511719 C359.0157677 115.70745517 359.01122529 112.42022618 358.99659729 109.13258362 C358.97941677 104.9279299 359.00289785 100.72464368 359.03808689 96.52014256 C359.06009242 93.27805598 359.05861183 90.036295 359.05032158 86.79415703 C359.04950364 85.24446552 359.05633691 83.69474973 359.07109261 82.14512825 C359.0885975 79.97392433 359.07395201 77.80515628 359.05128479 75.63404846 C359.05032303 74.40114578 359.04936127 73.1682431 359.04837036 71.89797974 C358.21244427 67.39582867 356.65370058 65.71001745 353.42018127 62.5146637 C352.76018127 62.5146637 352.10018127 62.5146637 351.42018127 62.5146637 C351.42018127 61.8546637 351.42018127 61.1946637 351.42018127 60.5146637 C309.55859668 60.46892167 267.69701496 60.43366251 225.83541034 60.41253304 C220.8972773 60.41003152 215.95914432 60.40744288 211.02101135 60.40480042 C210.03788602 60.40427579 209.0547607 60.40375117 208.04184369 60.40321065 C192.1071083 60.39449955 176.17238728 60.37872571 160.23766043 60.3603581 C143.89653752 60.34167865 127.55542216 60.33055112 111.21428901 60.32648671 C101.12468517 60.32373758 91.03512197 60.31504359 80.94553063 60.29883076 C74.03395723 60.28828798 67.12240495 60.28505691 60.21082409 60.28766094 C56.21862424 60.28894647 52.22649556 60.28692658 48.23430824 60.27625275 C44.58322886 60.26656182 40.93226891 60.26600152 37.28118417 60.27286591 C35.32690889 60.27411885 33.37263513 60.26545579 31.41837996 60.25650108 C29.69036453 60.26247422 29.69036453 60.26247422 27.92743969 60.26856804 C26.92915494 60.2678086 25.93087019 60.26704916 24.90233439 60.2662667 C22.16817467 60.34387999 22.16817467 60.34387999 19.42018127 62.5146637 Z M17.42018127 200.5146637 C13.68714134 206.72601743 13.96837849 212.88145399 13.98658752 219.9834137 C13.98134567 221.17768982 13.97610382 222.37196594 13.97070312 223.60243225 C13.96429661 226.12053146 13.96560208 228.63866065 13.97413635 231.15675354 C13.98265292 235.00186041 13.953852 238.84548438 13.9221344 242.69044495 C13.92052236 245.14226742 13.92109997 247.59409251 13.92408752 250.0459137 C13.91285355 251.19088318 13.90161957 252.33585266 13.89004517 253.51551819 C13.95648387 261.15037036 15.08747791 265.31255945 19.85768127 271.3271637 C23.59596756 274.16826128 27.36149965 274.76576228 31.95729065 274.77345276 C33.04191589 274.77975708 34.12654114 274.7860614 35.24403381 274.79255676 C36.98638306 274.78648407 36.98638306 274.78648407 38.76393127 274.7802887 C39.96578064 274.78220215 41.16763 274.7841156 42.40589905 274.78608704 C44.94435333 274.7874467 47.48281461 274.78376554 50.02125549 274.77540588 C53.90569179 274.76470362 57.7896656 274.77530893 61.67408752 274.7881012 C64.14153646 274.78677956 66.60898511 274.78421709 69.07643127 274.7802887 C70.23799744 274.78433716 71.3995636 274.78838562 72.59632874 274.79255676 C74.2232666 274.78310028 74.2232666 274.78310028 75.8830719 274.77345276 C76.83395691 274.77186157 77.78484192 274.77027039 78.76454163 274.76863098 C81.63421935 274.49419455 83.80896343 273.70735909 86.42018127 272.5146637 C86.42018127 271.8546637 86.42018127 271.1946637 86.42018127 270.5146637 C87.34830627 270.1434137 87.34830627 270.1434137 88.29518127 269.7646637 C90.89297913 268.23654731 91.34034792 267.30281882 92.42018127 264.5146637 C92.74232395 261.72945858 92.74232395 261.72945858 92.72657776 258.64796448 C92.74256516 257.46638763 92.75855255 256.28481079 92.77502441 255.06742859 C92.78306847 253.15798965 92.78306847 253.15798965 92.79127502 251.2099762 C92.8003035 249.89810333 92.80933197 248.58623047 92.81863403 247.23460388 C92.83510459 244.4589543 92.84282057 241.68342505 92.84571838 238.9077301 C92.85110038 235.36109584 92.88877826 231.81560157 92.93446255 228.26928902 C92.97146288 224.87452382 92.97275047 221.47993612 92.97877502 218.0849762 C92.99830734 216.81606537 93.01783966 215.54715454 93.03796387 214.23979187 C93.17493956 207.03410812 93.17493956 207.03410812 90.07276917 200.79151917 C85.9290016 197.23470588 83.86678265 196.26226023 78.46754456 196.22413635 C77.24262299 196.21137665 76.01770142 196.19861694 74.75566101 196.18547058 C73.41727354 196.18241291 72.07888395 196.18018516 70.74049377 196.1787262 C69.36670289 196.17229822 67.99291338 196.16556986 66.61912537 196.15855408 C63.73913907 196.14657946 60.85927274 196.14287338 57.97926331 196.14405823 C54.29478728 196.14426133 50.61108337 196.11697045 46.92679024 196.08251381 C44.08883658 196.06023792 41.25106847 196.05622089 38.41303635 196.05727768 C37.05509151 196.05492231 35.69714152 196.04610221 34.33928299 196.03061295 C32.43682591 196.01094503 30.53414203 196.01931561 28.63160706 196.02882385 C27.00969955 196.0245488 27.00969955 196.0245488 25.35502625 196.02018738 C21.69424499 196.63697281 20.06211456 197.95361424 17.42018127 200.5146637 Z M152.18019104 198.8686676 C151.59938782 199.74184631 151.01858459 200.61502502 150.42018127 201.5146637 C149.76018127 202.5046637 149.10018127 203.4946637 148.42018127 204.5146637 C148.10889632 207.20802363 148.10889632 207.20802363 148.14552307 210.28370667 C148.13599106 211.46858673 148.12645905 212.6534668 148.11663818 213.87425232 C148.11754959 215.15550995 148.118461 216.43676758 148.11940002 217.7568512 C148.1151149 219.07251068 148.11082977 220.38817017 148.10641479 221.74369812 C148.09895368 224.5295362 148.09924254 227.31524755 148.10450745 230.10108948 C148.11029531 233.66438119 148.09338783 237.22715196 148.07016277 240.79035759 C148.05185024 244.19587701 148.05561153 247.60128282 148.05690002 251.0068512 C148.04769028 252.28406036 148.03848053 253.56126953 148.0289917 254.87718201 C148.03522049 256.06836639 148.04144928 257.25955078 148.04786682 258.48683167 C148.0472374 259.53257355 148.04660797 260.57831543 148.04595947 261.65574646 C148.63219632 266.13438085 150.91872544 269.68656476 154.42018127 272.5146637 C158.06265203 274.23595143 160.9431667 274.76673563 164.95729065 274.77345276 C166.04191589 274.77975708 167.12654114 274.7860614 168.24403381 274.79255676 C169.98638306 274.78648407 169.98638306 274.78648407 171.76393127 274.7802887 C172.96578064 274.78220215 174.16763 274.7841156 175.40589905 274.78608704 C177.94435333 274.7874467 180.48281461 274.78376554 183.02125549 274.77540588 C186.90569179 274.76470362 190.7896656 274.77530893 194.67408752 274.7881012 C197.14153646 274.78677956 199.60898511 274.78421709 202.07643127 274.7802887 C203.23799744 274.78433716 204.3995636 274.78838562 205.59632874 274.79255676 C207.2232666 274.78310028 207.2232666 274.78310028 208.8830719 274.77345276 C209.83395691 274.77186157 210.78484192 274.77027039 211.76454163 274.76863098 C214.63421935 274.49419455 216.80896343 273.70735909 219.42018127 272.5146637 C219.42018127 271.8546637 219.42018127 271.1946637 219.42018127 270.5146637 C220.41018127 270.1846637 221.40018127 269.8546637 222.42018127 269.5146637 C227.19573985 263.35612325 226.99044507 257.59089631 226.91627502 250.01075745 C226.91845787 248.21578575 226.91845787 248.21578575 226.92068481 246.384552 C226.91902929 243.86222389 226.90750713 241.33988532 226.88673401 238.81764221 C226.85775261 234.96165503 226.86613929 231.10704138 226.87916565 227.25099182 C226.8729286 224.79590703 226.86453793 222.34082657 226.85377502 219.88575745 C226.85671066 218.73562668 226.8596463 217.58549591 226.8626709 216.4005127 C226.77440511 208.89834089 225.9361341 204.59517309 221.10597229 198.6811676 C216.12174087 194.86716529 209.40706756 195.80454051 203.44752502 195.8506012 C202.0780189 195.84722897 200.70851571 195.84237297 199.33901978 195.83610535 C196.47670336 195.82875531 193.61516995 195.83937873 190.75294495 195.86280823 C187.09178212 195.89132434 183.43244977 195.87486579 179.77135372 195.84494591 C176.94617005 195.82684391 174.12141772 195.83264325 171.29622078 195.84558487 C169.29268319 195.85052074 167.28912854 195.83539185 165.28564453 195.81993103 C158.15538937 195.60919957 158.15538937 195.60919957 152.18019104 198.8686676 Z M288.42018127 196.5146637 C288.42018127 197.1746637 288.42018127 197.8346637 288.42018127 198.5146637 C287.43018127 198.5146637 286.44018127 198.5146637 285.42018127 198.5146637 C285.42018127 199.1746637 285.42018127 199.8346637 285.42018127 200.5146637 C284.76018127 200.5146637 284.10018127 200.5146637 283.42018127 200.5146637 C279.99220804 206.88365956 279.96787108 212.58910533 279.98658752 219.72950745 C279.98134567 220.89921585 279.97610382 222.06892426 279.97070312 223.27407837 C279.96429686 225.7409028 279.96560176 228.20775783 279.97413635 230.67457581 C279.98264535 234.43628141 279.95386399 238.19646728 279.9221344 241.95802307 C279.92052213 244.36101741 279.92110041 246.76401442 279.92408752 249.16700745 C279.91285355 250.28494186 279.90161957 251.40287628 279.89004517 252.5546875 C279.95516875 259.89890138 280.97482107 265.37567512 285.74246216 271.10314941 C289.45963484 274.23051578 293.22220372 274.76552919 297.95729065 274.77345276 C299.04191589 274.77975708 300.12654114 274.7860614 301.24403381 274.79255676 C302.98638306 274.78648407 302.98638306 274.78648407 304.76393127 274.7802887 C305.96578064 274.78220215 307.16763 274.7841156 308.40589905 274.78608704 C310.94435333 274.7874467 313.48281461 274.78376554 316.02125549 274.77540588 C319.90569179 274.76470362 323.7896656 274.77530893 327.67408752 274.7881012 C330.14153646 274.78677956 332.60898511 274.78421709 335.07643127 274.7802887 C336.23799744 274.78433716 337.3995636 274.78838562 338.59632874 274.79255676 C340.2232666 274.78310028 340.2232666 274.78310028 341.8830719 274.77345276 C342.83395691 274.77186157 343.78484192 274.77027039 344.76454163 274.76863098 C347.63421935 274.49419455 349.80896343 273.70735909 352.42018127 272.5146637 C352.42018127 271.8546637 352.42018127 271.1946637 352.42018127 270.5146637 C353.03893127 270.2465387 353.65768127 269.9784137 354.29518127 269.7021637 C356.71970458 268.55909521 356.71970458 268.55909521 358.42018127 265.5146637 C358.71133038 262.70357262 358.71133038 262.70357262 358.64723206 259.48268127 C358.64708099 258.24162125 358.64692993 257.00056122 358.64677429 255.72189331 C358.63656108 254.36765889 358.62612909 253.01342611 358.61549377 251.65919495 C358.61176294 250.2734294 358.6089163 248.88766122 358.60691833 247.50189209 C358.59928735 243.85712889 358.57964358 240.21252546 358.55751038 236.56782532 C358.53704036 232.8476528 358.52791415 229.12745444 358.51783752 225.40724182 C358.49639708 218.109643 358.46226772 210.81217575 358.42018127 203.5146637 C357.76018127 203.5146637 357.10018127 203.5146637 356.42018127 203.5146637 C356.01799377 202.5556012 356.01799377 202.5556012 355.60768127 201.5771637 C354.53350375 199.18334683 354.53350375 199.18334683 351.42018127 198.5146637 C351.42018127 197.8546637 351.42018127 197.1946637 351.42018127 196.5146637 C330.63018127 196.5146637 309.84018127 196.5146637 288.42018127 196.5146637 Z M18.77565002 325.0146637 C15.3523489 329.41114407 14.30037217 332.27943438 14.24317932 337.77711487 C14.23034409 338.8522081 14.21750885 339.92730133 14.20428467 341.03497314 C14.19689774 342.19745071 14.1895108 343.35992828 14.18190002 344.55763245 C14.17382828 345.75519669 14.16575653 346.95276093 14.15744019 348.18661499 C14.14359949 350.72441663 14.13287728 353.26223688 14.12501526 355.80006409 C14.10782644 359.66948555 14.06394095 363.5380474 14.01979065 367.40724182 C14.00966151 369.87403242 14.0011461 372.34083028 13.99440002 374.80763245 C13.97689194 375.95998886 13.95938385 377.11234528 13.94134521 378.29962158 C13.95864655 384.7507576 14.31993607 390.28143954 18.42018127 395.5146637 C21.66750493 398.62370518 24.0400857 398.89986967 28.47047424 398.93458557 C29.69209259 398.95049744 30.91371094 398.9664093 32.17234802 398.98280334 C33.48905487 398.98300476 34.80576172 398.98320618 36.16236877 398.9834137 C37.53233654 398.9905185 38.90230133 398.99821796 40.27226257 399.00648499 C43.1421282 399.01992198 46.0117188 399.02150267 48.88160706 399.01564026 C52.54935003 399.0097501 56.21576651 399.04030802 59.8832531 399.08075714 C62.71270283 399.10668145 65.54183537 399.1095073 68.37138748 399.10586548 C70.37770612 399.10837042 72.38395774 399.13303908 74.39012146 399.15809631 C81.76632518 399.30229273 81.76632518 399.30229273 88.17066956 396.16505432 C91.62955533 392.08977062 92.67199279 390.04880814 92.71070862 384.76148987 C92.72346832 383.57983749 92.73622803 382.39818512 92.74937439 381.1807251 C92.75160004 379.90260452 92.75382568 378.62448395 92.75611877 377.30763245 C92.76277557 375.99434464 92.76943237 374.68105682 92.77629089 373.32797241 C92.78826588 370.54633805 92.79197165 367.76482788 92.79078674 364.98316956 C92.79058385 361.42881606 92.81785251 357.87526484 92.85233116 354.32110119 C92.88000274 350.92076681 92.87875104 347.5205779 92.88111877 344.12013245 C92.89548981 342.84808456 92.90986084 341.57603668 92.92466736 340.26544189 C92.96342003 331.55428913 92.96342003 331.55428913 88.42018127 324.5146637 C87.76018127 324.5146637 87.10018127 324.5146637 86.42018127 324.5146637 C86.42018127 323.8546637 86.42018127 323.1946637 86.42018127 322.5146637 C80.48188423 319.91147698 74.59180287 320.20875978 68.23268127 320.21388245 C67.05681458 320.20959732 65.88094788 320.20531219 64.66944885 320.20089722 C62.18825422 320.19516515 59.70704279 320.19464536 57.22584534 320.19898987 C53.43356164 320.20215254 49.64205627 320.17866601 45.84986877 320.15333557 C43.43580726 320.15106273 41.02174365 320.15035901 38.60768127 320.15138245 C37.47628723 320.1421727 36.34489319 320.13296295 35.17921448 320.12347412 C28.71122707 320.16143482 23.77645509 320.45335932 18.77565002 325.0146637 Z M149.42018127 327.5146637 C148.36755186 330.67255194 148.27454498 332.95057017 148.24317932 336.26783752 C148.23034409 337.4494899 148.21750885 338.63114227 148.20428467 339.84860229 C148.19689774 341.12672287 148.1895108 342.40484344 148.18190002 343.72169495 C148.17382828 345.03498276 148.16575653 346.34827057 148.15744019 347.70135498 C148.14242678 350.48295461 148.13258235 353.26452883 148.12501526 356.04615784 C148.11395782 359.60046354 148.07956056 363.15414199 148.03984356 366.7082262 C148.00733468 370.10852359 148.00289524 373.50875418 147.99440002 376.90919495 C147.97689194 378.18124283 147.95938385 379.45329071 147.94134521 380.7638855 C147.89865688 389.46891438 147.89865688 389.46891438 152.42018127 396.5146637 C155.94635771 398.86544799 157.37183009 398.75836969 161.54396057 398.74171448 C163.43558174 398.74148788 163.43558174 398.74148788 165.36541748 398.74125671 C166.7417466 398.73104346 168.1180741 398.72061147 169.49440002 398.7099762 C170.90258585 398.70624542 172.31077427 398.70339875 173.71896362 398.70140076 C177.42290938 398.69376934 181.12669795 398.67412518 184.83058167 398.6519928 C188.61107761 398.63152372 192.39159899 398.62239678 196.1721344 398.61231995 C203.58822163 398.59087873 211.00417942 398.55674883 218.42018127 398.5146637 C218.42018127 397.8546637 218.42018127 397.1946637 218.42018127 396.5146637 C219.01830627 396.2877887 219.61643127 396.0609137 220.23268127 395.8271637 C223.5479619 393.83799532 224.73388716 390.88725192 226.42018127 387.5146637 C226.53611911 385.80106898 226.58976726 384.08309235 226.61305237 382.36573792 C226.63714676 380.75298477 226.63714676 380.75298477 226.66172791 379.10765076 C226.70620108 374.17334083 226.74726719 369.23916644 226.77027893 364.30470276 C226.78681275 361.70532767 226.81406821 359.10599755 226.85231018 356.5068512 C226.90720804 352.75661147 226.92897698 349.00743923 226.94361877 345.2568512 C226.97762283 343.52361099 226.97762283 343.52361099 227.01231384 341.75535583 C226.99464646 334.97314025 226.34173529 329.5577288 221.42018127 324.5146637 C220.76018127 324.5146637 220.10018127 324.5146637 219.42018127 324.5146637 C219.42018127 323.8546637 219.42018127 323.1946637 219.42018127 322.5146637 C213.48188423 319.91147698 207.59180287 320.20875978 201.23268127 320.21388245 C200.05681458 320.20959732 198.88094788 320.20531219 197.66944885 320.20089722 C195.18825422 320.19516515 192.70704279 320.19464536 190.22584534 320.19898987 C186.43356164 320.20215254 182.64205627 320.17866601 178.84986877 320.15333557 C176.43580726 320.15106273 174.02174365 320.15035901 171.60768127 320.15138245 C170.47628723 320.1421727 169.34489319 320.13296295 168.17921448 320.12347412 C160.26639309 320.16991457 154.74880431 321.19925862 149.42018127 327.5146637 Z M287.42018127 322.5146637 C287.42018127 323.1746637 287.42018127 323.8346637 287.42018127 324.5146637 C286.52299377 324.7931012 286.52299377 324.7931012 285.60768127 325.0771637 C282.45559644 327.14853373 281.50823788 330.03130864 280.42018127 333.5146637 C279.97250327 337.19469641 279.97250327 337.19469641 280.03250122 341.09814453 C280.02711568 341.82943685 280.02173015 342.56072917 280.01618141 343.31418186 C280.0019532 345.74763889 280.00899257 348.18054798 280.01612854 350.61402893 C280.01042228 352.3656101 280.00345703 354.11718754 279.99533081 355.86875916 C279.97741277 360.61465199 279.97856522 365.36035979 279.9842732 370.10627627 C279.98736694 374.07247083 279.98127054 378.03862994 279.97523445 382.00481945 C279.96119534 391.36335556 279.96274547 400.72180037 279.97413635 410.08033752 C279.98561779 419.72626953 279.97154005 429.3719235 279.94473988 439.01781887 C279.92256986 447.30848217 279.91594842 455.59905828 279.92181629 463.88974911 C279.92518385 468.83747044 279.92278408 473.78501355 279.90556526 478.73270988 C279.89007742 483.38594826 279.89407206 488.0387753 279.91287041 492.69199753 C279.91655116 494.39634053 279.91346281 496.10071414 279.90298462 497.80502892 C279.61230992 510.94373731 279.61230992 510.94373731 285.90853882 522.13593674 C289.42690505 525.34494053 293.34343995 525.76697208 297.94142151 525.7893219 C299.02281906 525.79885391 300.10421661 525.80838593 301.21838379 525.81820679 C302.3768129 525.81729538 303.535242 525.81638397 304.72877502 525.81544495 C305.92825272 525.81973007 307.12773041 525.8240152 308.36355591 525.82843018 C310.89780547 525.83416794 313.43207151 525.83467782 315.96632385 525.83033752 C319.83990109 525.8271782 323.71271408 525.85064277 327.5861969 525.87599182 C330.05038865 525.87826494 332.51458244 525.87896825 334.97877502 525.87794495 C336.71338234 525.89175957 336.71338234 525.89175957 338.48303223 525.90585327 C345.95652553 525.86293147 350.5736175 525.37502602 356.03935146 519.88279724 C358.86050622 516.40310647 359.12203848 513.14254389 359.04837036 508.77223206 C359.05546475 508.01179816 359.06255914 507.25136427 359.06986851 506.46788692 C359.08741683 503.92957364 359.06936116 501.39279811 359.05128479 498.85450745 C359.05642484 497.03086145 359.06370677 495.20722042 359.07296753 493.3835907 C359.09147876 488.43723268 359.07854464 483.49141384 359.05887723 478.54507828 C359.04248719 473.36688361 359.05130413 468.18872299 359.05639648 463.01051331 C359.06091703 454.3148691 359.04504992 445.61944002 359.0171051 436.92384338 C358.98505343 426.87286664 358.9850691 416.8222779 359.00231987 406.77127361 C359.01818778 397.09951605 359.01144968 387.42790064 358.99438286 377.75614929 C358.98751318 373.64142571 358.98854398 369.52681609 358.99592781 365.41209412 C359.00359317 360.56596328 358.99145622 355.72027361 358.9640789 350.87421799 C358.95719664 349.0964832 358.95709541 347.3187072 358.96429443 345.54097366 C358.97299484 343.11252314 358.95702452 340.68543229 358.93484497 338.25709534 C358.94308574 337.55494872 358.9513265 336.8528021 358.95981699 336.12937832 C358.87667631 331.19138632 357.56330038 328.293462 354.42018127 324.5146637 C353.76018127 324.5146637 353.10018127 324.5146637 352.42018127 324.5146637 C352.42018127 323.8546637 352.42018127 323.1946637 352.42018127 322.5146637 C346.52955715 319.94230529 340.75505483 320.22603778 334.45143127 320.2490387 C333.29776062 320.24712524 332.14408997 320.24521179 330.95545959 320.24324036 C328.52133465 320.24188207 326.08720237 320.24555355 323.65309143 320.25392151 C319.93336165 320.26462577 316.21411483 320.25401379 312.49440002 320.2412262 C310.12590938 320.24254785 307.75741903 320.24511038 305.38893127 320.2490387 C304.27941101 320.24499023 303.16989075 320.24094177 302.02674866 320.23677063 C296.77498866 320.26856685 292.32178479 320.37419763 287.42018127 322.5146637 Z M17.98268127 450.8271637 C15.38664222 455.29235087 14.17147495 458.83682448 14.12965393 464.02003479 C14.11689423 465.09820465 14.10413452 466.17637451 14.09098816 467.28721619 C14.08876251 468.44250824 14.08653687 469.59780029 14.08424377 470.7881012 C14.07758698 471.98520721 14.07093018 473.18231323 14.06407166 474.41569519 C14.05395519 476.94573939 14.04925432 479.47581023 14.04957581 482.00587463 C14.04520508 485.86862836 14.00887895 489.7302372 13.97096252 493.5927887 C13.96509367 496.0537223 13.96112474 498.51466131 13.95924377 500.9756012 C13.94487274 502.12684479 13.93050171 503.27808838 13.91569519 504.46421814 C13.95920679 512.1328703 15.06746168 516.2873216 19.85768127 522.3271637 C23.58659017 525.16113445 27.35677135 525.76703688 31.94142151 525.7893219 C33.02281906 525.79885391 34.10421661 525.80838593 35.21838379 525.81820679 C36.3768129 525.81729538 37.535242 525.81638397 38.72877502 525.81544495 C39.92825272 525.81973007 41.12773041 525.8240152 42.36355591 525.82843018 C44.89780547 525.83416794 47.43207151 525.83467782 49.96632385 525.83033752 C53.83990109 525.8271782 57.71271408 525.85064277 61.5861969 525.87599182 C64.05038865 525.87826494 66.51458244 525.87896825 68.97877502 525.87794495 C70.1351799 525.88715469 71.29158478 525.89636444 72.48303223 525.90585327 C79.13597113 525.86764409 83.85449463 525.44362058 89.17018127 521.0771637 C92.12696869 517.38117943 92.68049357 514.36340034 92.7424469 509.66383362 C92.76166199 508.48548447 92.78087708 507.30713531 92.80067444 506.09307861 C92.80917419 504.82325638 92.81767395 503.55343414 92.82643127 502.24513245 C92.84353149 500.28088066 92.84353149 500.28088066 92.86097717 498.27694702 C92.88195829 495.50550288 92.89366854 492.73417407 92.90065002 489.96266174 C92.91160691 486.42490522 92.95964336 482.88869331 93.01659393 479.3514204 C93.06298555 475.96185598 93.06675446 472.57249768 93.07643127 469.18263245 C93.10112488 467.9188829 93.12581848 466.65513336 93.15126038 465.35308838 C93.15954752 457.83682885 93.15954752 457.83682885 89.87916565 451.28541565 C83.69295428 445.46345059 75.18417852 446.21693674 67.23658752 446.2490387 C66.18164597 446.24712524 65.12670441 446.24521179 64.03979492 446.24324036 C61.81852478 446.24188512 59.59724654 446.24553516 57.37599182 446.25392151 C53.99665832 446.26461945 50.61785767 446.25400895 47.23854065 446.2412262 C45.07122178 446.24254812 42.90390324 446.24511118 40.73658752 446.2490387 C39.73632034 446.24499023 38.73605316 446.24094177 37.70547485 446.23677063 C27.02847557 446.10738079 27.02847557 446.10738079 17.98268127 450.8271637 Z M153.42018127 448.5146637 C153.42018127 449.1746637 153.42018127 449.8346637 153.42018127 450.5146637 C152.76018127 450.5146637 152.10018127 450.5146637 151.42018127 450.5146637 C148.63676858 454.21010266 148.04249202 456.93930059 148.03199768 461.51075745 C148.0225412 462.69548645 148.01308472 463.88021545 148.00334167 465.10084534 C148.00941437 466.3717804 148.01548706 467.64271545 148.02174377 468.9521637 C148.0188736 470.26499329 148.01600342 471.57782288 148.01304626 472.93043518 C148.00863266 475.70438774 148.01502242 478.47804971 148.02906799 481.25196838 C148.04615983 484.79954154 148.0363134 488.34643373 148.0183506 491.89398193 C148.00487542 495.28842979 148.01432261 498.68269652 148.02174377 502.0771637 C148.01567108 503.34809875 148.00959839 504.61903381 148.00334167 505.92848206 C148.01279816 507.11321106 148.02225464 508.29794006 148.03199768 509.51856995 C148.03438446 510.55827942 148.03677124 511.59798889 148.03923035 512.66920471 C148.63745502 517.13755912 150.92499729 520.69163047 154.42018127 523.5146637 C158.05357879 525.22931204 160.93808885 525.76986254 164.94142151 525.7893219 C166.02281906 525.79885391 167.10421661 525.80838593 168.21838379 525.81820679 C169.3768129 525.81729538 170.535242 525.81638397 171.72877502 525.81544495 C172.92825272 525.81973007 174.12773041 525.8240152 175.36355591 525.82843018 C177.89780547 525.83416794 180.43207151 525.83467782 182.96632385 525.83033752 C186.83990109 525.8271782 190.71271408 525.85064277 194.5861969 525.87599182 C197.05038865 525.87826494 199.51458244 525.87896825 201.97877502 525.87794495 C203.1351799 525.88715469 204.29158478 525.89636444 205.48303223 525.90585327 C213.37167426 525.86590463 213.37167426 525.86590463 220.42018127 522.5146637 C224.63011037 517.95390718 226.66049231 514.35715095 226.71070862 508.13868713 C226.72346832 507.06366943 226.73622803 505.98865173 226.74937439 504.88105774 C226.75160004 503.72374146 226.75382568 502.56642517 226.75611877 501.3740387 C226.76277557 500.1778894 226.76943237 498.98174011 226.77629089 497.74934387 C226.7864172 495.21751951 226.79110792 492.68566845 226.79078674 490.15382385 C226.79514905 486.29318298 226.83144144 482.43369525 226.86940002 478.57325745 C226.87527041 476.11102176 226.87923832 473.64878066 226.88111877 471.1865387 C226.89548981 470.03731934 226.90986084 468.88809998 226.92466736 467.70405579 C226.88582421 460.83829014 226.13210742 456.34463662 222.42018127 450.5146637 C216.23585016 445.46955148 208.00139464 446.35501353 200.43190002 446.34669495 C198.84524284 446.34170235 198.84524284 446.34170235 197.22653198 446.33660889 C194.99331597 446.33155746 192.76009245 446.32920001 190.52687073 446.32936096 C187.12985135 446.32717794 183.73315875 446.30901251 180.3361969 446.29005432 C178.15976571 446.28711925 175.98333299 446.28513522 173.80690002 446.28419495 C172.80035873 446.27700943 171.79381744 446.26982391 170.7567749 446.26242065 C164.67277656 446.28189909 159.31241471 446.98170331 153.42018127 448.5146637 Z " fill="#003060" transform="translate(113.57981872558594,442.48533630371094)"/>
<path d="M0 0 C151.14 0 302.28 0 458 0 C458 94.05 458 188.1 458 285 C455.36 285.99 452.72 286.98 450 288 C444.05272077 290.90144721 438.19014171 293.97653452 432.875 297.9375 C430 300 430 300 427 300 C427 300.66 427 301.32 427 302 C421.58823529 306 421.58823529 306 419 306 C419 306.66 419 307.32 419 308 C417.5390625 309.2890625 417.5390625 309.2890625 415.625 310.625 C414.99851562 311.07101562 414.37203125 311.51703125 413.7265625 311.9765625 C412 313 412 313 410 313 C410 313.66 410 314.32 410 315 C408.671875 316.3046875 408.671875 316.3046875 406.75 317.875 C402.84432862 321.19166528 399.18478783 324.69346377 395.5625 328.3125 C395.03043945 328.84020996 394.49837891 329.36791992 393.95019531 329.91162109 C391.1250862 332.69109061 391.1250862 332.69109061 389 336 C388.34 336 387.68 336 387 336 C386.74347656 336.72832031 386.48695313 337.45664062 386.22265625 338.20703125 C384.94394912 341.12803955 383.44407519 343.22012466 381.4375 345.6875 C378.97527569 348.68776321 378.97527569 348.68776321 377 352 C376.34 352 375.68 352 375 352 C374.731875 352.70125 374.46375 353.4025 374.1875 354.125 C372.9318551 357.1649824 371.49764877 360.0727774 370 363 C369.34 363 368.68 363 368 363 C367.83757812 363.83724609 367.83757812 363.83724609 367.671875 364.69140625 C366.88434403 367.3973993 365.67027181 369.50327126 364.25 371.9375 C361.29937174 377.2074923 359.12446278 382.57482322 357.078125 388.25 C356 391 356 391 354 394 C352.08284569 394.36914349 352.08284569 394.36914349 349.69735718 394.36076355 C348.34276146 394.36694954 348.34276146 394.36694954 346.96080017 394.3732605 C345.9674617 394.36247467 344.97412323 394.35168884 343.95068359 394.34057617 C342.90675949 394.34101425 341.86283539 394.34145233 340.78727722 394.34190369 C337.32414278 394.33980756 333.86148775 394.31643734 330.3984375 394.29296875 C328.0023322 394.28737574 325.60622348 394.28310425 323.21011353 394.28010559 C316.89382508 394.26863368 310.57774255 394.2391462 304.26153564 394.20599365 C297.82021877 394.17534335 291.37886873 394.16161104 284.9375 394.14648438 C272.29157865 394.11427885 259.64580026 394.06362821 247 394 C246.21858643 392.58521362 246.21858643 392.58521362 245.42138672 391.1418457 C244.71614166 389.88214426 244.01055705 388.62263287 243.3046875 387.36328125 C242.96397217 386.74424927 242.62325684 386.12521729 242.2722168 385.48742676 C238.88647792 379.47645629 234.30089986 372.15044993 228 369 C228 368.34 228 367.68 228 367 C226.90365234 366.59394531 226.90365234 366.59394531 225.78515625 366.1796875 C223.09921825 365.04202512 220.87447834 363.71666437 218.4375 362.125 C204.28344122 353.55311802 188.19785637 352.69576091 172.02908325 352.7215271 C170.57331723 352.71651077 169.11755398 352.71063112 167.66179454 352.70397437 C163.70285998 352.68832194 159.74399665 352.68475193 155.78503489 352.68332577 C151.50028552 352.67960564 147.21557406 352.66443742 142.93084717 352.65071106 C135.52097096 352.62851589 128.11110838 352.61345623 120.70120621 352.60334396 C109.98794354 352.58871315 99.2747284 352.56316416 88.56149374 352.53501268 C71.1769134 352.4896244 53.79232618 352.45297679 36.40771484 352.421875 C19.52749423 352.39165676 2.64729049 352.35726901 -14.23291016 352.31738281 C-15.28528425 352.3149013 -16.33765835 352.3124198 -17.42192256 352.30986309 C-25.65307185 352.29042157 -33.88422055 352.27073944 -42.11536908 352.25098133 C-82.41022552 352.15431879 -122.70509653 352.07862824 -163 352 C-163 289.96 -163 227.92 -163 164 C-85.1875 163.5625 -85.1875 163.5625 -60.59057617 163.43188477 C-53.33371336 163.38864592 -53.33371336 163.38864592 -46.07685852 163.34410095 C-42.83699906 163.32424875 -39.5971375 163.30716536 -36.35725403 163.29173279 C-32.22887228 163.27197833 -28.10054336 163.24755256 -23.97220862 163.21969402 C-22.45442776 163.21025648 -20.93663548 163.20248224 -19.41883695 163.19653046 C-17.37357703 163.18827522 -15.32834683 163.1734316 -13.28312683 163.15821838 C-12.13549457 163.15176583 -10.9878623 163.14531328 -9.8054533 163.1386652 C-6.91771897 163.12202231 -6.91771897 163.12202231 -4 162 C-4 161.34 -4 160.68 -4 160 C-3.34 160 -2.68 160 -2 160 C10.93624386 108.25502456 -0.34190003 53.33640402 0 0 Z M16 205 C15.10087891 205.96099609 15.10087891 205.96099609 14.18359375 206.94140625 C10.37683287 211.02888453 10.37683287 211.02888453 8 216 C7.34 216 6.68 216 6 216 C4.33218098 217.80519184 4.33218098 217.80519184 2.5625 220.1875 C-0.7135156 224.38508079 -4.05687852 228.50223771 -7.5 232.5625 C-7.96438477 233.11164063 -8.42876953 233.66078125 -8.90722656 234.2265625 C-12.39409804 238.33163895 -15.9773957 242.34031319 -19.63671875 246.29296875 C-21.20801355 247.89636341 -21.20801355 247.89636341 -21 250 C-21.66 250 -22.32 250 -23 250 C-24.47769218 251.63432755 -25.88269319 253.33476368 -27.25 255.0625 C-29.9594861 258.45920632 -32.67800145 261.81313648 -35.5625 265.0625 C-38.21285749 267.62033592 -38.21285749 267.62033592 -38 270 C-40.30078125 270.25 -40.30078125 270.25 -43 270 C-44.73046875 268.25 -44.73046875 268.25 -46.1875 266 C-47.08342532 264.63838263 -48.01280039 263.29696606 -49 262 C-49.66 262 -50.32 262 -51 262 C-51 261.34 -51 260.68 -51 260 C-51.66 260 -52.32 260 -53 260 C-53 259.34 -53 258.68 -53 258 C-53.66 258 -54.32 258 -55 258 C-55.22558594 257.45601563 -55.45117188 256.91203125 -55.68359375 256.3515625 C-57.41223787 253.26359881 -59.64550144 250.95545026 -62.0625 248.375 C-66.90277778 243.19444444 -66.90277778 243.19444444 -68 241 C-68.66 241 -69.32 241 -70 241 C-70 240.34 -70 239.68 -70 239 C-73.21182149 237.09391902 -75.53882603 236.77733753 -79.25 236.875 C-80.14203125 236.89304687 -81.0340625 236.91109375 -81.953125 236.9296875 C-82.62859375 236.95289063 -83.3040625 236.97609375 -84 237 C-84 237.66 -84 238.32 -84 239 C-84.99 239 -85.98 239 -87 239 C-90.17524284 243.86209059 -91.94364089 247.0236077 -91 253 C-88.37735971 259.29960832 -83.43866584 263.69852157 -78.6171875 268.35546875 C-75.17799468 271.83059343 -72.19580339 275.59683575 -69.1484375 279.4140625 C-66.62363484 282.45300679 -63.88164428 285.15341116 -61.03515625 287.88671875 C-58.62809656 290.38617997 -56.56192909 293.06979375 -54.4375 295.8125 C-50.84114828 300.25251642 -48.62357265 302.77303869 -43 304 C-38.40315169 304.33813795 -35.11117621 303.45144097 -31.5 300.5625 C-27.95489047 297.20270302 -24.98310609 293.39612545 -22 289.5390625 C-19.55049001 286.42933302 -16.92610888 283.50879717 -14.25 280.59375 C-12.79428669 279.07529429 -12.79428669 279.07529429 -13 277 C-12.34 277 -11.68 277 -11 277 C-11 276.34 -11 275.68 -11 275 C-10.34 275 -9.68 275 -9 275 C-6.95543941 272.82735345 -6.95543941 272.82735345 -4.875 270.125 C-4.15054688 269.22007812 -3.42609375 268.31515625 -2.6796875 267.3828125 C-0.80794766 265.21344189 -0.80794766 265.21344189 -1 263 C-0.34 263 0.32 263 1 263 C2.56432787 261.30725716 4.05328572 259.54430148 5.5 257.75 C6.2940625 256.77546875 7.088125 255.8009375 7.90625 254.796875 C9.58748034 252.55105238 10.88135899 250.5534197 12 248 C12.66 248 13.32 248 14 248 C15.56432787 246.30725716 17.05328572 244.54430148 18.5 242.75 C19.2940625 241.77546875 20.088125 240.8009375 20.90625 239.796875 C22.58748034 237.55105238 23.88135899 235.5534197 25 233 C25.66 233 26.32 233 27 233 C29.04456059 230.82735345 29.04456059 230.82735345 31.125 228.125 C31.84945312 227.22007812 32.57390625 226.31515625 33.3203125 225.3828125 C35.19205234 223.21344189 35.19205234 223.21344189 35 221 C35.66 221 36.32 221 37 221 C39.00849574 216.85747753 39.48262992 213.5849842 39 209 C36.8765412 204.98059583 35.22167761 202.66585116 31 201 C24.85442898 200.14061934 20.37755904 200.26750374 16 205 Z M90 210 C88.03252992 212.8539755 87.62989011 215.3758241 87.5 218.8125 C87.4484375 219.62332031 87.396875 220.43414062 87.34375 221.26953125 C88.37144764 225.54548749 90.48679633 228.35479643 94 231 C97.84510103 232.02788756 101.58395247 231.93702961 105.54554749 231.87542725 C107.29978953 231.88969045 107.29978953 231.88969045 109.0894708 231.9042418 C112.32777088 231.92344087 115.56419322 231.91129932 118.80239356 231.88575459 C122.29737435 231.86578685 125.79215253 231.88619337 129.28712463 231.90145874 C136.13022709 231.92487334 142.97276035 231.91072931 149.81582911 231.88352022 C157.78418921 231.85303166 165.75241034 231.85788896 173.72081225 231.86374763 C187.93744445 231.87281499 202.15380467 231.84698179 216.37036133 231.80273438 C230.16700595 231.75980155 243.96330679 231.74564528 257.76000977 231.76171875 C272.78344537 231.77918295 287.8067252 231.7809435 302.83015436 231.75513482 C304.43183322 231.75240168 306.03351208 231.74967534 307.63519096 231.74695587 C308.42325301 231.74559452 309.21131506 231.74423317 310.02325778 231.74283056 C315.57842881 231.73420639 321.13353514 231.73645475 326.68870735 231.74260712 C333.45731379 231.7496534 340.2256051 231.73846 346.99413259 231.70409927 C350.44801996 231.68697518 353.90143587 231.67780714 357.35535431 231.69023514 C361.09789688 231.69937899 364.83902814 231.6778915 368.58143616 231.64837646 C370.22266759 231.66306052 370.22266759 231.66306052 371.89705521 231.67804122 C377.96742745 231.61718821 377.96742745 231.61718821 383.13162899 228.61572647 C386.03007436 224.55789201 387.73855962 221.04682407 387 216 C384.62255948 211.68538572 382.2198127 208.54894726 378 206 C374.24727644 205.40161123 370.52658245 205.46068456 366.73329163 205.49206543 C365.58169113 205.48582547 364.43009064 205.4795855 363.24359316 205.47315645 C360.05102195 205.45996265 356.8590591 205.46471002 353.66650307 205.47710133 C350.22196662 205.48614878 346.77751264 205.47218358 343.33299255 205.46118164 C336.58648374 205.44338791 329.84015286 205.4472403 323.09363706 205.4588322 C317.61038284 205.46786367 312.12717851 205.46909177 306.64391899 205.46473694 C305.86367691 205.46412401 305.08343483 205.46351107 304.27954904 205.46287957 C302.69451709 205.46160067 301.10948514 205.46030382 299.52445322 205.4589892 C284.65850233 205.44758072 269.79265008 205.46070091 254.92671537 205.48219067 C242.17155314 205.5000584 229.41653654 205.49696078 216.66137695 205.47851562 C201.85038446 205.45710758 187.03947846 205.44868307 172.22847265 205.46096468 C170.64894737 205.46223888 169.06942208 205.46349636 167.48989677 205.46473694 C166.71273689 205.46535404 165.93557701 205.46597114 165.13486682 205.46660694 C159.65882485 205.47006031 154.18283775 205.46423172 148.70680428 205.45481873 C142.03232 205.44359793 135.35802388 205.44664021 128.68356115 205.4679417 C125.27820469 205.47845175 121.87316189 205.48257518 118.46780777 205.46934509 C114.77612119 205.458444 111.08532179 205.47208934 107.39369202 205.49206543 C106.31733224 205.48314254 105.24097247 205.47421966 104.13199574 205.46502638 C98.11435487 205.52835486 94.57627922 205.96741976 90 210 Z M90 277 C87.80610471 280.29084293 87.30645682 282.09267558 87 286 C88.03390058 291.06611286 90.19392751 293.58429392 94 297 C94.33 297.33 94.66 297.66 95 298 C96.51210266 298.10131705 98.02892691 298.1329056 99.54441452 298.13701439 C100.53260642 298.14208893 101.52079832 298.14716347 102.53893542 298.15239179 C103.6376413 298.15288955 104.73634717 298.15338731 105.86834717 298.15390015 C107.60393037 298.16047353 107.60393037 298.16047353 109.37457585 298.1671797 C112.60071462 298.17827319 115.82682597 298.18480111 119.05297947 298.18936086 C122.52685598 298.19530483 126.00071447 298.20691772 129.47457886 298.21765137 C137.8717297 298.24220411 146.26888652 298.25680725 154.66606224 298.26971143 C157.03661473 298.27342144 159.40716664 298.27739483 161.77771854 298.2814641 C176.48849849 298.30669998 191.19927932 298.32876008 205.91007614 298.34119225 C209.31960809 298.3441221 212.72914 298.34708374 216.13867188 298.35009766 C216.98612942 298.35084371 217.83358696 298.35158976 218.70672503 298.35235842 C232.43824913 298.36501483 246.16964382 298.39823979 259.9011074 298.43989949 C273.98902869 298.48229129 288.07688368 298.50588414 302.16486859 298.51111281 C310.0787583 298.51453021 317.99244584 298.52632368 325.90627289 298.55921555 C332.64565428 298.5871796 339.3847921 298.59823161 346.12422702 298.58702008 C349.56395066 298.5818238 353.00316396 298.58478168 356.44281387 298.60948563 C360.17021283 298.63202531 363.89631468 298.6239511 367.62371826 298.60800171 C368.71350125 298.6218838 369.80328424 298.63576588 370.92609096 298.65006864 C376.97001284 298.61809929 376.97001284 298.61809929 382.09773636 295.61824989 C385.55377498 291.02177733 385.55377498 291.02177733 387.5 285.6875 C386.73242661 281.56179303 384.57206016 278.28209367 382 275 C378.77294223 272.84862815 377.92579198 272.74882711 374.20948982 272.74273109 C373.21731583 272.7362822 372.22514183 272.72983331 371.20290196 272.723189 C370.11002177 272.7262862 369.01714157 272.7293834 367.8911438 272.73257446 C366.73237948 272.72804335 365.57361517 272.72351224 364.37973678 272.71884382 C361.15807824 272.70835071 357.93655956 272.70687787 354.71488929 272.70923257 C351.24240494 272.70963996 347.76995415 272.69860903 344.29748535 272.68911743 C337.49226779 272.6724896 330.68708488 272.66700708 323.88184871 272.66589268 C318.35135109 272.66494304 312.82086493 272.66083701 307.29037094 272.65449142 C291.61755982 272.63687415 275.94477612 272.62765331 260.27195503 272.62915237 C259.42665811 272.62923228 258.58136119 272.6293122 257.71044922 272.62939453 C256.86412268 272.62947629 256.01779614 272.62955805 255.14582334 272.62964229 C241.42737559 272.63045533 227.70903759 272.61131441 213.99062158 272.5831178 C199.91167012 272.554408 185.83277222 272.54057645 171.75379074 272.54230535 C163.84667889 272.54296991 155.93968211 272.53744875 148.03259659 272.51594925 C141.30059548 272.49776245 134.56876159 272.4933694 127.83674659 272.5069681 C124.40113717 272.51351053 120.96584876 272.51356962 117.53026962 272.4962616 C113.80749767 272.48090962 110.0855761 272.49005179 106.36282349 272.50552368 C105.27440474 272.49523656 104.18598599 272.48494943 103.06458485 272.47435057 C97.47707914 272.52587668 93.93168122 272.57189223 90 277 Z " fill="#003060" transform="translate(309,65)"/>
<path d="M0 0 C1.27520508 -0.00580078 1.27520508 -0.00580078 2.57617188 -0.01171875 C3.39794922 -0.01042969 4.21972656 -0.00914062 5.06640625 -0.0078125 C6.1812439 -0.00612061 6.1812439 -0.00612061 7.31860352 -0.00439453 C9.47600442 0.12735135 11.35343264 0.57195864 13.4375 1.125 C15.43579013 1.27487176 17.43624669 1.39699431 19.4375 1.5 C26.04556023 1.97253168 32.06959323 3.37298332 38.4375 5.125 C40.37444373 5.58567851 42.31195216 6.04398874 44.25 6.5 C58.11195048 10.0373112 70.0110861 15.15007588 82.47729492 22.05932617 C84.44282535 23.12789515 86.43098441 24.13588838 88.4375 25.125 C88.4375 25.785 88.4375 26.445 88.4375 27.125 C88.98921875 27.21394531 89.5409375 27.30289062 90.109375 27.39453125 C93.12947814 28.34211395 95.15734558 29.91488419 97.6875 31.8125 C98.64785156 32.53050781 99.60820313 33.24851562 100.59765625 33.98828125 C101.53480469 34.69339844 102.47195313 35.39851563 103.4375 36.125 C104.26121094 36.71667969 105.08492187 37.30835938 105.93359375 37.91796875 C106.65675781 38.44003906 107.37992188 38.96210938 108.125 39.5 C109.08986328 40.19222656 109.08986328 40.19222656 110.07421875 40.8984375 C110.52410156 41.30320312 110.97398437 41.70796875 111.4375 42.125 C111.4375 42.785 111.4375 43.445 111.4375 44.125 C112.0975 44.125 112.7575 44.125 113.4375 44.125 C113.4375 44.785 113.4375 45.445 113.4375 46.125 C114.0975 46.125 114.7575 46.125 115.4375 46.125 C115.4375 46.785 115.4375 47.445 115.4375 48.125 C116.05625 48.3725 116.675 48.62 117.3125 48.875 C119.78818687 50.33128639 120.38875002 51.50312506 121.4375 54.125 C122.0975 54.125 122.7575 54.125 123.4375 54.125 C125.0234375 55.69921875 125.0234375 55.69921875 126.8125 57.8125 C127.42996094 58.54082031 128.04742188 59.26914062 128.68359375 60.01953125 C129.26238281 60.71433594 129.84117187 61.40914063 130.4375 62.125 C131.6440625 63.548125 131.6440625 63.548125 132.875 65 C134.4375 67.125 134.4375 67.125 134.4375 69.125 C135.0975 69.125 135.7575 69.125 136.4375 69.125 C141.44147443 75.65336399 145.63080741 82.84263157 149.4375 90.125 C149.94023438 91.053125 149.94023438 91.053125 150.453125 92 C153.23884089 97.3061255 155.30478906 102.85072375 157.38671875 108.46484375 C158.18701902 111.00714516 158.18701902 111.00714516 159.4375 112.125 C159.47813832 113.79117115 159.480221 115.45888095 159.4375 117.125 C160.0975 117.125 160.7575 117.125 161.4375 117.125 C166.4375 138.39166667 166.4375 138.39166667 166.4375 142.125 C167.0975 142.125 167.7575 142.125 168.4375 142.125 C168.4837955 149.39192328 168.51935493 156.65881488 168.54112434 163.92585564 C168.55157142 167.30006994 168.56574725 170.67418352 168.58837891 174.04833984 C168.61254885 177.92548318 168.62396511 181.80248277 168.6328125 185.6796875 C168.64313507 186.89429657 168.65345764 188.10890564 168.66409302 189.36032104 C168.66424408 190.48133209 168.66439514 191.60234314 168.66455078 192.75732422 C168.668992 193.74771698 168.67343323 194.73810974 168.67800903 195.7585144 C168.4375 198.125 168.4375 198.125 166.4375 200.125 C166.08661513 202.05973407 166.08661513 202.05973407 166 204.25 C165.64301956 208.1830477 164.75186137 211.3186308 163.26171875 214.953125 C161.94875204 218.41288562 161.0773953 221.98409359 160.1328125 225.55859375 C159.34783216 228.45596502 158.43247018 231.29316179 157.4375 234.125 C156.7775 234.125 156.1175 234.125 155.4375 234.125 C155.33888672 235.31802734 155.33888672 235.31802734 155.23828125 236.53515625 C154.16225905 241.35888503 151.98307844 245.24778995 149.625 249.5625 C149.18607422 250.38298828 148.74714844 251.20347656 148.29492188 252.04882812 C145.75100772 256.78512002 143.12567396 261.46925815 140.4375 266.125 C139.7775 266.125 139.1175 266.125 138.4375 266.125 C138.14875 266.888125 137.86 267.65125 137.5625 268.4375 C136.4375 271.125 136.4375 271.125 134.4375 274.125 C133.7775 274.125 133.1175 274.125 132.4375 274.125 C132.19773437 274.68316406 131.95796875 275.24132812 131.7109375 275.81640625 C130.16045913 278.62724281 128.24468126 280.7099491 126.0625 283.0625 C123.74513059 285.5697542 121.49260311 288.05528622 119.375 290.734375 C117.63433425 292.88213193 115.91060191 294.64902987 113.8125 296.4375 C113.22210937 296.94925781 112.63171875 297.46101563 112.0234375 297.98828125 C110.4375 299.125 110.4375 299.125 108.4375 299.125 C108.4375 299.785 108.4375 300.445 108.4375 301.125 C106.7875 301.785 105.1375 302.445 103.4375 303.125 C103.4375 303.785 103.4375 304.445 103.4375 305.125 C101.09924467 306.95612723 98.76655786 308.64855221 96.3125 310.3125 C95.59054443 310.80572754 94.86858887 311.29895508 94.12475586 311.80712891 C88.46562828 315.59722661 82.71014274 318.71705587 76.55078125 321.6328125 C73.83573985 322.93412469 71.27585298 324.34284009 68.6875 325.875 C64.15270966 328.4506258 59.44741666 329.7718943 54.4375 331.125 C51.54715575 332.06992024 48.67196104 333.04220812 45.8046875 334.0546875 C27.42193217 339.89792991 -8.5875546 347.1124727 -26.5625 338.125 C-27.779375 338.021875 -28.99625 337.91875 -30.25 337.8125 C-37.20669148 337.10561038 -43.86024121 335.03378034 -50.5625 333.125 C-51.96628906 332.73441406 -51.96628906 332.73441406 -53.3984375 332.3359375 C-59.28321308 330.64661707 -64.91802028 328.49087767 -70.5625 326.125 C-70.5625 325.465 -70.5625 324.805 -70.5625 324.125 C-71.8825 324.125 -73.2025 324.125 -74.5625 324.125 C-74.5625 323.465 -74.5625 322.805 -74.5625 322.125 C-75.27148438 322.02445313 -75.98046875 321.92390625 -76.7109375 321.8203125 C-82.18740694 320.4849542 -86.79795649 317.04948373 -91.5625 314.125 C-92.62726563 313.48175781 -93.69203125 312.83851563 -94.7890625 312.17578125 C-100.55782628 308.62061287 -100.55782628 308.62061287 -102.5625 307.125 C-102.5625 306.465 -102.5625 305.805 -102.5625 305.125 C-104.2125 304.465 -105.8625 303.805 -107.5625 303.125 C-107.5625 302.465 -107.5625 301.805 -107.5625 301.125 C-108.160625 300.83625 -108.75875 300.5475 -109.375 300.25 C-111.5625 299.125 -111.5625 299.125 -114.5625 297.125 C-114.5625 296.465 -114.5625 295.805 -114.5625 295.125 C-115.14515625 294.8671875 -115.7278125 294.609375 -116.328125 294.34375 C-118.7427903 293.02665983 -120.37990177 291.57411616 -122.3125 289.625 C-122.92609375 289.0165625 -123.5396875 288.408125 -124.171875 287.78125 C-125.5625 286.125 -125.5625 286.125 -125.5625 284.125 C-126.2225 284.125 -126.8825 284.125 -127.5625 284.125 C-127.5625 283.465 -127.5625 282.805 -127.5625 282.125 C-128.2225 282.125 -128.8825 282.125 -129.5625 282.125 C-131.04574737 280.34510315 -132.44920982 278.49836474 -133.8125 276.625 C-134.61823214 275.52194732 -135.42422254 274.41908324 -136.23046875 273.31640625 C-137.00003906 272.26324219 -137.76960937 271.21007812 -138.5625 270.125 C-140.2231874 267.9927178 -141.88639779 265.86317758 -143.56640625 263.74609375 C-144.5625 262.125 -144.5625 262.125 -144.5625 259.125 C-145.2225 259.125 -145.8825 259.125 -146.5625 259.125 C-156.88105712 238.77015632 -166.29372411 219.19088825 -168.5625 196.125 C-168.8925 195.465 -169.2225 194.805 -169.5625 194.125 C-169.67675815 192.74664075 -169.73181871 191.36311088 -169.75537109 189.98022461 C-169.7712175 189.11928696 -169.7870639 188.2583493 -169.8033905 187.37132263 C-169.81413101 186.4328096 -169.82487152 185.49429657 -169.8359375 184.52734375 C-169.85452568 183.06658165 -169.85452568 183.06658165 -169.87348938 181.5763092 C-169.90602389 178.40500534 -169.92471769 175.23394341 -169.9375 172.0625 C-169.94206207 170.99265869 -169.94662415 169.92281738 -169.95132446 168.82055664 C-169.97979053 150.27674767 -169.32109654 132.28343466 -161.5625 115.125 C-161.0600964 113.69545547 -160.57712348 112.25873349 -160.125 110.8125 C-158.50658814 105.81952723 -156.55816224 100.97739703 -154.5625 96.125 C-153.9025 96.125 -153.2425 96.125 -152.5625 96.125 C-152.5625 94.805 -152.5625 93.485 -152.5625 92.125 C-151.9025 92.125 -151.2425 92.125 -150.5625 92.125 C-150.45550781 91.56554687 -150.34851563 91.00609375 -150.23828125 90.4296875 C-147.69041002 81.74041567 -140.6069398 73.54857958 -135.4375 66.25 C-134.75429688 65.28320312 -134.07109375 64.31640625 -133.3671875 63.3203125 C-132.77164063 62.59585938 -132.17609375 61.87140625 -131.5625 61.125 C-130.9025 61.125 -130.2425 61.125 -129.5625 61.125 C-129.315 60.568125 -129.0675 60.01125 -128.8125 59.4375 C-127.33325182 56.70089087 -125.62782561 54.44849131 -123.5625 52.125 C-122.9025 52.125 -122.2425 52.125 -121.5625 52.125 C-121.5625 51.465 -121.5625 50.805 -121.5625 50.125 C-120.9025 50.125 -120.2425 50.125 -119.5625 50.125 C-119.5625 49.465 -119.5625 48.805 -119.5625 48.125 C-118.9025 48.125 -118.2425 48.125 -117.5625 48.125 C-117.5625 47.465 -117.5625 46.805 -117.5625 46.125 C-113.09191176 42.125 -113.09191176 42.125 -110.5625 42.125 C-110.5625 41.465 -110.5625 40.805 -110.5625 40.125 C-108.95776367 38.73632812 -108.95776367 38.73632812 -106.73046875 37.15625 C-105.93189453 36.58519531 -105.13332031 36.01414062 -104.31054688 35.42578125 C-103.46556641 34.83152344 -102.62058594 34.23726563 -101.75 33.625 C-100.91662109 33.03074219 -100.08324219 32.43648438 -99.22460938 31.82421875 C-89.81092163 25.125 -89.81092163 25.125 -86.5625 25.125 C-86.5625 24.465 -86.5625 23.805 -86.5625 23.125 C-83.91511084 21.6643715 -82.66801666 21.125 -79.5625 21.125 C-79.5625 20.465 -79.5625 19.805 -79.5625 19.125 C-72.49900541 15.31071292 -65.14932749 12.71422065 -57.5625 10.125 C-56.46550781 9.74988281 -55.36851562 9.37476563 -54.23828125 8.98828125 C-46.63221879 6.42111588 -39.41494477 4.03816914 -31.3828125 3.37109375 C-29.54540012 3.30989942 -29.54540012 3.30989942 -28.5625 2.125 C-26.31628824 1.91331512 -24.06486718 1.75584291 -21.8125 1.625 C-16.97495389 1.37230982 -16.97495389 1.37230982 -12.20703125 0.6015625 C-8.14855063 -0.12980328 -4.11464626 -0.01880265 0 0 Z M-86.5625 71.125 C-86.5625 71.785 -86.5625 72.445 -86.5625 73.125 C-87.14 73.37636719 -87.7175 73.62773437 -88.3125 73.88671875 C-93.95277368 76.9908277 -98.88701299 82.91806007 -102.5625 88.125 C-102.5625 88.785 -102.5625 89.445 -102.5625 90.125 C-103.2225 90.125 -103.8825 90.125 -104.5625 90.125 C-106.26049546 92.57432089 -107.83477608 95.01621433 -109.375 97.5625 C-109.82641357 98.30097168 -110.27782715 99.03944336 -110.74291992 99.80029297 C-111.63208976 101.26108347 -112.51737281 102.72424809 -113.3984375 104.18994141 C-114.30667166 105.69972831 -115.22877946 107.20117197 -116.15625 108.69921875 C-119.4559592 114.25161405 -121.48923205 120.1864595 -123.546875 126.28125 C-124.5625 129.125 -124.5625 129.125 -125.5625 130.125 C-125.60330783 132.12458364 -125.60504356 134.12545254 -125.5625 136.125 C-126.2225 136.125 -126.8825 136.125 -127.5625 136.125 C-127.7790625 138.0740625 -127.7790625 138.0740625 -128 140.0625 C-128.4375 144 -128.4375 144 -129.5625 145.125 C-134.59571079 167.24173647 -131.26084894 189.57638918 -125.5625 211.125 C-124.9025 211.125 -124.2425 211.125 -123.5625 211.125 C-123.60632813 211.84558594 -123.65015625 212.56617188 -123.6953125 213.30859375 C-123.54650377 216.46421407 -122.79877636 218.34936722 -121.4375 221.1875 C-120.76267578 222.60675781 -120.76267578 222.60675781 -120.07421875 224.0546875 C-117.59465819 229.09069422 -115.10428129 234.12004921 -112.5625 239.125 C-111.9025 239.125 -111.2425 239.125 -110.5625 239.125 C-109.9025 241.105 -109.2425 243.085 -108.5625 245.125 C-107.9025 245.125 -107.2425 245.125 -106.5625 245.125 C-106.315 245.85332031 -106.0675 246.58164062 -105.8125 247.33203125 C-101.95143225 255.9591045 -92.5546273 263.91271299 -85.5625 270.125 C-84.9025 270.125 -84.2425 270.125 -83.5625 270.125 C-83.5625 270.785 -83.5625 271.445 -83.5625 272.125 C-80.43756627 274.73498979 -76.96202082 276.89065512 -73.5625 279.125 C-72.52738281 279.805625 -71.49226562 280.48625 -70.42578125 281.1875 C-63.37760088 285.67657025 -56.33907032 289.1102474 -48.5625 292.125 C-47.43328125 292.62257813 -46.3040625 293.12015625 -45.140625 293.6328125 C-17.04221794 305.35070715 17.34150689 303.63568839 45.4375 293.125 C50.26974428 291.10339332 54.85622093 288.65797419 59.4375 286.125 C60.87996094 285.38443359 60.87996094 285.38443359 62.3515625 284.62890625 C68.33621032 281.5185752 73.73071728 277.90508704 79.125 273.859375 C80.85665484 272.56063387 82.6364701 271.3256866 84.4375 270.125 C84.4375 269.465 84.4375 268.805 84.4375 268.125 C85.26894531 267.77888672 85.26894531 267.77888672 86.1171875 267.42578125 C89.07142823 265.76961599 91.16376703 263.70049238 93.5625 261.3125 C94.43132812 260.46042969 95.30015625 259.60835937 96.1953125 258.73046875 C98.35917745 256.21601244 99.43627948 254.25803275 100.4375 251.125 C101.0975 251.125 101.7575 251.125 102.4375 251.125 C107.75517529 244.80683426 111.65278415 237.42175765 115.4375 230.125 C115.85386719 229.35542969 116.27023437 228.58585938 116.69921875 227.79296875 C118.57663142 224.24235321 119.4375 222.21923697 119.4375 218.125 C120.0975 218.125 120.7575 218.125 121.4375 218.125 C122.2348627 215.50161586 123.02544122 212.87647705 123.8125 210.25 C124.03421875 209.52296875 124.2559375 208.7959375 124.484375 208.046875 C127.25204729 198.76703263 128.77098757 189.80575115 129.125 180.125 C129.16334961 179.12533203 129.20169922 178.12566406 129.24121094 177.09570312 C130.0316908 152.53604153 125.99613461 131.00195911 114.4375 109.125 C114.03789063 108.33480469 113.63828125 107.54460937 113.2265625 106.73046875 C107.37716733 95.55024181 99.6452748 85.70413154 90.4375 77.125 C89.2309375 75.8565625 89.2309375 75.8565625 88 74.5625 C42.30714175 31.09856166 -39.32470991 26.38113051 -86.5625 71.125 Z " fill="#003060" transform="translate(846.5625,356.875)"/>
<path d="M0 0 C1.66869141 -0.00193359 1.66869141 -0.00193359 3.37109375 -0.00390625 C4.53769531 -0.00003906 5.70429687 0.00382812 6.90625 0.0078125 C8.07285156 0.00394531 9.23945312 0.00007813 10.44140625 -0.00390625 C11.55386719 -0.00261719 12.66632813 -0.00132812 13.8125 0 C14.83666016 0.00112793 15.86082031 0.00225586 16.91601562 0.00341797 C19.40625 0.1328125 19.40625 0.1328125 21.40625 1.1328125 C22.75739699 1.28706607 24.11254199 1.40735265 25.46875 1.5078125 C30.44286411 2.02973862 34.7400106 3.38297273 39.40625 5.1328125 C40.39625 5.4834375 41.38625 5.8340625 42.40625 6.1953125 C51.58733196 9.5499386 60.25622714 13.69946393 68.40625 19.1328125 C68.40625 19.7928125 68.40625 20.4528125 68.40625 21.1328125 C69.086875 21.3390625 69.7675 21.5453125 70.46875 21.7578125 C74.32264375 23.56176277 77.48412764 26.033847 80.40625 29.1328125 C80.40625 29.7928125 80.40625 30.4528125 80.40625 31.1328125 C81.39625 31.4628125 82.38625 31.7928125 83.40625 32.1328125 C90.16836825 39.12166844 102.40625 53.04586759 102.40625 63.1328125 C103.06625 63.1328125 103.72625 63.1328125 104.40625 63.1328125 C106.00980101 66.64058034 106.62661864 69.27636129 106.40625 73.1328125 C107.06625 73.1328125 107.72625 73.1328125 108.40625 73.1328125 C108.550625 74.2671875 108.695 75.4015625 108.84375 76.5703125 C109.01796478 79.94058451 109.01796478 79.94058451 110.40625 81.1328125 C110.61393229 82.60677989 110.77341017 84.0877251 110.90625 85.5703125 C111.19771944 88.97778755 111.19771944 88.97778755 112.40625 92.1328125 C112.65319472 96.25243153 112.59147538 100.38164425 112.59375 104.5078125 C112.60599609 105.63832031 112.61824219 106.76882813 112.63085938 107.93359375 C112.64725228 117.47426679 112.0103239 126.94188605 108.3359375 135.84375 C107.02591544 139.06926651 105.88026496 142.35174769 104.71875 145.6328125 C104.28175781 146.86 103.84476563 148.0871875 103.39453125 149.3515625 C103.06839844 150.269375 102.74226562 151.1871875 102.40625 152.1328125 C101.74625 152.1328125 101.08625 152.1328125 100.40625 152.1328125 C100.261875 152.7309375 100.1175 153.3290625 99.96875 153.9453125 C99.5190061 155.69431654 98.97732659 157.41958273 98.40625 159.1328125 C97.74625 159.1328125 97.08625 159.1328125 96.40625 159.1328125 C96.16132812 160.01195312 95.91640625 160.89109375 95.6640625 161.796875 C92.47156062 170.2639452 84.31138118 178.35369792 77.40625 184.1328125 C76.74625 184.1328125 76.08625 184.1328125 75.40625 184.1328125 C75.40625 184.7928125 75.40625 185.4528125 75.40625 186.1328125 C74.74625 186.1328125 74.08625 186.1328125 73.40625 186.1328125 C73.40625 186.7928125 73.40625 187.4528125 73.40625 188.1328125 C71.16861687 189.83897002 68.94347724 191.4068844 66.59375 192.9453125 C65.91030518 193.39527588 65.22686035 193.84523926 64.52270508 194.30883789 C56.54611012 199.46313218 48.47506891 203.06682377 39.3046875 205.5546875 C37.41464819 205.96759973 37.41464819 205.96759973 36.40625 207.1328125 C34.07291667 207.46614583 31.73958333 207.79947917 29.40625 208.1328125 C29.07625 208.4628125 28.74625 208.7928125 28.40625 209.1328125 C6.46319564 213.15179438 6.46319564 213.15179438 -2.59375 210.1328125 C-4.15509288 210.03005502 -5.71796583 209.94984459 -7.28125 209.8828125 C-21.22776111 208.68687157 -35.24807862 202.4554743 -47.59375 196.1328125 C-47.59375 195.4728125 -47.59375 194.8128125 -47.59375 194.1328125 C-48.58375 194.1328125 -49.57375 194.1328125 -50.59375 194.1328125 C-50.59375 193.4728125 -50.59375 192.8128125 -50.59375 192.1328125 C-51.58375 192.1328125 -52.57375 192.1328125 -53.59375 192.1328125 C-53.59375 191.4728125 -53.59375 190.8128125 -53.59375 190.1328125 C-55.24375 189.4728125 -56.89375 188.8128125 -58.59375 188.1328125 C-58.59375 187.4728125 -58.59375 186.8128125 -58.59375 186.1328125 C-60.24375 185.4728125 -61.89375 184.8128125 -63.59375 184.1328125 C-63.59375 183.4728125 -63.59375 182.8128125 -63.59375 182.1328125 C-64.25375 182.1328125 -64.91375 182.1328125 -65.59375 182.1328125 C-65.59375 181.4728125 -65.59375 180.8128125 -65.59375 180.1328125 C-66.25375 180.1328125 -66.91375 180.1328125 -67.59375 180.1328125 C-67.59375 179.4728125 -67.59375 178.8128125 -67.59375 178.1328125 C-68.25375 178.1328125 -68.91375 178.1328125 -69.59375 178.1328125 C-71.1814033 176.44319981 -72.69103694 174.67963879 -74.15625 172.8828125 C-74.96191406 171.90828125 -75.76757812 170.93375 -76.59765625 169.9296875 C-78.34342831 167.48355678 -79.19733528 166.05376304 -79.59375 163.1328125 C-80.25375 163.1328125 -80.91375 163.1328125 -81.59375 163.1328125 C-88.85187053 153.70364125 -92.43973235 141.84019324 -95.015625 130.3984375 C-95.37646515 128.17999056 -95.37646515 128.17999056 -96.59375 127.1328125 C-99.31528348 110.8036116 -100.40049572 92.91843306 -94.35546875 77.171875 C-93.54971273 75.01492812 -93.02522934 72.86619939 -92.46875 70.6328125 C-87.66476488 54.6278258 -76.55555447 37.64839407 -63.59375 27.1328125 C-62.93375 27.1328125 -62.27375 27.1328125 -61.59375 27.1328125 C-61.59375 26.4728125 -61.59375 25.8128125 -61.59375 25.1328125 C-59.58811651 23.46551536 -57.59530013 21.9455193 -55.46875 20.4453125 C-54.84000977 19.99978027 -54.21126953 19.55424805 -53.56347656 19.09521484 C-40.68143097 10.18550735 -25.2491447 2.70615904 -9.51171875 1.37890625 C-6.10563903 0.94187362 -3.62552984 0.00399287 0 0 Z M-41.59375 50.1328125 C-43.45337086 53.85205423 -43.16773707 58.08301481 -42.59375 62.1328125 C-40.0308975 65.54994917 -37.49249455 67.49213387 -33.59375 69.1328125 C-31.32808496 69.4312664 -31.32808496 69.4312664 -28.92578125 69.40625 C-28.03181641 69.426875 -27.13785156 69.4475 -26.21679688 69.46875 C-24.36271967 69.49451897 -22.50852326 69.5129096 -20.65429688 69.5234375 C-14.12034994 69.69181409 -9.3520375 71.082845 -3.59375 74.1328125 C-2.87292236 74.46587402 -2.15209473 74.79893555 -1.40942383 75.14208984 C0.94072418 76.42444841 1.37629316 77.7050571 2.40625 80.1328125 C3.06625 81.1228125 3.72625 82.1128125 4.40625 83.1328125 C3.22595215 83.10662842 2.0456543 83.08044434 0.82958984 83.0534668 C-3.56474729 82.96271683 -7.95900221 82.90547344 -12.35400391 82.8581543 C-14.25323431 82.83306646 -16.1523687 82.79898782 -18.05126953 82.75561523 C-20.78702521 82.6947092 -23.5215007 82.66654597 -26.2578125 82.64453125 C-27.10179596 82.61872482 -27.94577942 82.5929184 -28.81533813 82.56632996 C-33.05268277 82.56433058 -35.7555848 82.82087152 -39.11474609 85.53833008 C-42.80406835 89.39951066 -42.89184431 91.72142546 -42.80078125 96.87890625 C-42.50576453 100.09069209 -41.77118303 101.74466015 -39.59375 104.1328125 C-34.2700654 106.89425542 -29.98021431 107.59396943 -24.03515625 107.64453125 C-23.24600327 107.66248245 -22.45685028 107.68043365 -21.64378357 107.69892883 C-19.1479918 107.75267778 -16.65238728 107.78681215 -14.15625 107.8203125 C-12.45375018 107.853517 -10.75127496 107.88800952 -9.04882812 107.92382812 C-4.89727136 108.00838316 -0.7457667 108.07536162 3.40625 108.1328125 C0.91204993 111.33355627 -1.15271562 113.80364374 -4.65625 115.8828125 C-5.32785156 116.29015625 -5.99945312 116.6975 -6.69140625 117.1171875 C-9.84454763 118.80058947 -12.46852268 119.26377463 -15.98046875 119.34375 C-16.83705078 119.37210938 -17.69363281 119.40046875 -18.57617188 119.4296875 C-20.35983158 119.48120114 -22.1437118 119.52563459 -23.92773438 119.5625 C-30.36008565 119.79308466 -36.94500432 120.31852022 -41.59375 125.2578125 C-43.03308095 129.39588898 -43.56123826 132.8157626 -42.59375 137.1328125 C-40.75276012 140.26116125 -38.16305125 142.59224145 -35.59375 145.1328125 C-34.52324973 146.27752957 -33.45862171 147.42775336 -32.3984375 148.58203125 C-18.93827523 163.24854788 -18.93827523 163.24854788 -4.28515625 176.6953125 C-2.84692313 177.91764457 -1.49090542 179.23565708 -0.15625 180.5703125 C3.64854717 182.89031077 7.07085123 183.03951277 11.40625 182.1328125 C14.47208403 180.40549229 16.80852558 178.32826135 18.40625 175.1328125 C19.35188902 170.49382861 19.41669164 166.68864914 16.78515625 162.63671875 C14.42748319 160.01007764 11.95805716 157.57128725 9.40625 155.1328125 C8.40977855 154.1122382 7.41769355 153.08736549 6.4296875 152.05859375 C2.50892163 148.00290668 2.50892163 148.00290668 -1.59375 144.1328125 C-2.25375 144.1328125 -2.91375 144.1328125 -3.59375 144.1328125 C-3.59375 143.4728125 -3.59375 142.8128125 -3.59375 142.1328125 C-3.06007813 141.99746094 -2.52640625 141.86210938 -1.9765625 141.72265625 C9.51235217 138.40319475 18.78668493 130.74015597 24.9765625 120.546875 C27.34202238 116.04574277 28.70972674 112.19910277 29.40625 107.1328125 C30.56382812 107.16761719 31.72140625 107.20242188 32.9140625 107.23828125 C34.4531104 107.26643457 35.99217411 107.29373306 37.53125 107.3203125 C38.29179688 107.34544922 39.05234375 107.37058594 39.8359375 107.39648438 C45.99349694 107.47610799 50.0818359 106.21255143 54.78125 102.0078125 C57.0465707 97.99993742 57.34759471 94.6338641 56.40625 90.1328125 C54.67892979 87.06697847 52.60169885 84.73053692 49.40625 83.1328125 C47.9597258 82.98214036 46.5074566 82.88420214 45.0546875 82.81640625 C43.77851562 82.75356445 43.77851562 82.75356445 42.4765625 82.68945312 C41.58710937 82.65013672 40.69765625 82.61082031 39.78125 82.5703125 C38.8840625 82.52712891 37.986875 82.48394531 37.0625 82.43945312 C34.84393761 82.33324535 32.62511435 82.23251291 30.40625 82.1328125 C28.75625 77.8428125 27.10625 73.5528125 25.40625 69.1328125 C26.91316406 69.17921875 28.42007813 69.225625 29.97265625 69.2734375 C31.97133426 69.31097136 33.97003382 69.34736978 35.96875 69.3828125 C36.95939453 69.41632813 37.95003906 69.44984375 38.97070312 69.484375 C45.3535135 69.5691964 49.28370657 69.06582571 54.40625 65.1328125 C56.81829795 61.75193643 56.87434386 58.4432562 56.80078125 54.390625 C56.12827988 50.54205282 54.19948112 48.79303262 51.40625 46.1328125 C48.27024169 44.56480835 44.91609912 44.95879662 41.47167969 44.93994141 C40.65197189 44.93176392 39.8322641 44.92358643 38.98771667 44.91516113 C36.26786025 44.89029587 33.54805609 44.87378734 30.828125 44.859375 C29.89968025 44.85405132 28.9712355 44.84872765 28.01465607 44.84324265 C23.09946009 44.81650483 18.18428957 44.79713285 13.26904297 44.78271484 C8.19349176 44.76607469 3.11859085 44.72130412 -1.95671463 44.6703434 C-5.86011494 44.63667422 -9.76336094 44.62513772 -13.66689301 44.61948776 C-15.53759474 44.61277327 -17.40828626 44.59754602 -19.27884674 44.57359695 C-21.90030233 44.54195196 -24.52000485 44.54190738 -27.14160156 44.54931641 C-27.91170059 44.53291107 -28.68179962 44.51650574 -29.47523499 44.49960327 C-35.30961941 44.56695806 -37.66515031 46.12005083 -41.59375 50.1328125 Z " fill="#003060" transform="translate(838.59375,421.8671875)"/>
<path d="M0 0 C1.27934276 -0.00623996 2.55868552 -0.01247993 3.87679625 -0.01890898 C7.41211332 -0.03555282 10.94699653 -0.02737884 14.48231483 -0.0149641 C18.30106986 -0.0058955 22.11975148 -0.01989228 25.93849182 -0.03088379 C33.41317501 -0.04865434 40.88769738 -0.04483559 48.36238682 -0.03323323 C54.43813274 -0.0241934 60.51383364 -0.02297728 66.58958435 -0.02732849 C67.45487872 -0.02794142 68.32017308 -0.02855436 69.21168849 -0.02918586 C70.96961138 -0.03046478 72.72753426 -0.03176164 74.48545712 -0.03307623 C90.96289961 -0.04447774 107.44025304 -0.03137506 123.91768092 -0.00987476 C138.05083741 0.00799584 152.18386248 0.00489161 166.3170166 -0.0135498 C182.73618181 -0.0349641 199.15526898 -0.04337914 215.5744462 -0.03110075 C217.3258403 -0.02982658 219.07723442 -0.02856909 220.82862854 -0.02732849 C221.69030946 -0.02671139 222.55199037 -0.02609429 223.43978283 -0.02545848 C229.50702904 -0.02200726 235.57422569 -0.02782902 241.64146423 -0.0372467 C249.03715444 -0.04847428 256.43267486 -0.04541073 263.82834566 -0.02412373 C267.60053371 -0.01362345 271.37243886 -0.00947381 275.14462471 -0.02272034 C279.23606623 -0.0368705 283.32679569 -0.01995579 287.41821289 0 C288.60732002 -0.00892289 289.79642715 -0.01784577 291.02156782 -0.02703905 C297.84672699 0.03760575 302.47220604 0.68125041 308.20910645 4.50793457 C309.41695452 6.64657545 309.41695452 6.64657545 310.20910645 8.50793457 C311.19910645 8.50793457 312.18910645 8.50793457 313.20910645 8.50793457 C313.20910645 28.96793457 313.20910645 49.42793457 313.20910645 70.50793457 C311.72410645 71.00293457 311.72410645 71.00293457 310.20910645 71.50793457 C310.20910645 72.16793457 310.20910645 72.82793457 310.20910645 73.50793457 C308.55910645 74.16793457 306.90910645 74.82793457 305.20910645 75.50793457 C305.20910645 76.16793457 305.20910645 76.82793457 305.20910645 77.50793457 C298.71349118 79.8578444 292.55405061 79.7934227 285.697052 79.77536011 C284.43560344 79.77989122 283.17415488 79.78442233 281.87448061 79.78909075 C278.38455876 79.80129294 274.89473298 79.80106359 271.40479469 79.798702 C267.63646095 79.79829314 263.86815771 79.80933955 260.09983826 79.81881714 C252.7216513 79.83541223 245.3434963 79.84092599 237.96529223 79.84204189 C231.96724765 79.84299296 225.96921359 79.84710618 219.97117233 79.85344315 C202.95881872 79.87105055 185.94649032 79.88028266 168.93412752 79.8787822 C168.01746822 79.87870229 167.10080892 79.87862237 166.15637207 79.87854004 C165.23859141 79.87845828 164.32081075 79.87837652 163.37521856 79.87829228 C148.49898953 79.87747925 133.62286172 79.89662242 118.74666198 79.92481677 C103.465232 79.95355026 88.18385138 79.96735685 72.9023937 79.96562922 C64.32563906 79.96496554 55.74899057 79.97044845 47.17226028 79.99198532 C39.87064672 80.01020311 32.56918744 80.01453948 25.26756097 80.00096647 C21.54384934 79.99444014 17.82043367 79.99430728 14.09675026 80.01167297 C10.05598602 80.0303233 6.01590588 80.01784084 1.97512817 80.00241089 C0.80381556 80.01269801 -0.36749705 80.02298514 -1.57430398 80.033584 C-8.9941104 79.97097288 -15.58132858 79.08892693 -21.40899503 74.13144815 C-26.89095058 68.1868837 -25.95021994 60.45993772 -25.9588623 52.88684082 C-25.9638549 51.35965675 -25.9638549 51.35965675 -25.96894836 49.80162048 C-25.9739978 47.65416921 -25.9763573 45.50671013 -25.97619629 43.35925293 C-25.97838375 40.08511373 -25.9965634 36.81131116 -26.01550293 33.53723145 C-26.01843712 31.44543572 -26.02042174 29.3536384 -26.0213623 27.26184082 C-26.02854782 26.28872452 -26.03573334 25.31560822 -26.0431366 24.31300354 C-26.02526629 18.96299675 -25.54919492 14.56658358 -23.79089355 9.50793457 C-23.46089355 8.51793457 -23.13089355 7.52793457 -22.79089355 6.50793457 C-22.13089355 6.50793457 -21.47089355 6.50793457 -20.79089355 6.50793457 C-20.79089355 5.84793457 -20.79089355 5.18793457 -20.79089355 4.50793457 C-13.79815323 0.20760889 -8.10029295 -0.06078342 0 0 Z " fill="#003060" transform="translate(701.7908935546875,850.4920654296875)"/>
<path d="M0 0 C1.07928184 -0.00384115 2.15856368 -0.00768229 3.27055103 -0.01163983 C4.44534697 -0.01077335 5.62014292 -0.00990687 6.83053875 -0.00901413 C8.08704933 -0.01198525 9.34355992 -0.01495637 10.63814658 -0.01801753 C14.11890381 -0.02606417 17.5996404 -0.02787579 21.08040583 -0.028615 C24.83715942 -0.03046959 28.5939024 -0.03801886 32.35064983 -0.04475021 C40.5613793 -0.05831655 48.77210387 -0.06435535 56.98284268 -0.06876087 C62.11108869 -0.07152567 67.23933282 -0.07576341 72.36757755 -0.08026505 C86.57099095 -0.09245454 100.77440284 -0.1027551 114.97782135 -0.10614014 C115.88637083 -0.1063597 116.79492031 -0.10657927 117.7310016 -0.10680549 C118.64169784 -0.10702377 119.55239409 -0.10724204 120.49068719 -0.10746694 C122.33604197 -0.1079104 124.18139674 -0.10835696 126.02675152 -0.10880661 C127.39978484 -0.10913875 127.39978484 -0.10913875 128.80055621 -0.10947761 C143.63479558 -0.11342622 158.46898584 -0.13088358 173.30320624 -0.15416613 C188.53939881 -0.17788631 203.77556673 -0.19034226 219.01177806 -0.19150805 C227.5639391 -0.19242434 236.11603612 -0.19816507 244.66817951 -0.21632767 C251.94966494 -0.23173751 259.23106654 -0.23684383 266.51256517 -0.22858956 C270.22609866 -0.22468644 273.93946338 -0.22559609 277.65297604 -0.23964691 C281.6827441 -0.25475469 285.71213293 -0.24650958 289.7419157 -0.23606491 C290.91001949 -0.24412132 292.07812327 -0.25217772 293.28162414 -0.26047826 C301.27479628 -0.21202502 308.38331444 0.64992911 314.98280621 5.46370316 C319.21411962 10.2317698 318.39186912 16.80576715 318.37904644 22.81502151 C318.3907241 24.15732377 318.40373156 25.49961505 318.41800213 26.84189224 C318.44032394 29.64881266 318.43956586 32.4546008 318.42372417 35.26155472 C318.4063366 38.8452246 318.45713583 42.42424334 318.52675819 46.00714397 C318.57113069 48.77763956 318.57356595 51.54702776 318.56422901 54.31781578 C318.5665012 56.27603169 318.60799098 58.23407659 318.65027142 60.19183731 C318.51478448 68.90246814 318.51478448 68.90246814 315.47014141 72.50694656 C310.79363187 76.20259628 307.27798861 78.2538942 301.31786442 78.26844215 C300.21806291 78.2735167 299.1182614 78.27859124 297.98513258 78.28381956 C296.76687555 78.28431731 295.54861853 78.28481507 294.29344463 78.28532791 C292.36374433 78.29190129 292.36374433 78.29190129 290.39506018 78.29860747 C286.81212736 78.31059229 283.22920802 78.31622584 279.64625907 78.32078862 C275.78651877 78.3267376 271.92679465 78.3383493 268.06706524 78.34907913 C258.73890162 78.37362086 249.41073263 78.38823368 240.08254665 78.4011392 C237.44840726 78.4048501 234.81426839 78.40882342 232.18012953 78.41289186 C215.82778701 78.43812934 199.47544368 78.46018581 183.12308598 78.47262001 C179.33389438 78.47554979 175.54470281 78.47851144 171.75551128 78.48152542 C170.8137065 78.48227147 169.87190172 78.48301752 168.9015574 78.48378618 C153.64602961 78.49643885 138.3906184 78.52965944 123.13514511 78.57132725 C107.47759055 78.61374312 91.82009568 78.63731472 76.16248381 78.64254057 C67.36935108 78.64595529 58.57640046 78.65771737 49.78332424 78.69064331 C42.29417021 78.71864035 34.80523559 78.72964477 27.31603329 78.71844785 C23.49520018 78.71326007 19.67482657 78.716155 15.85406017 78.74091339 C11.70967526 78.7675444 7.56630222 78.75534961 3.4218626 78.73942947 C1.61455357 78.76025261 1.61455357 78.76025261 -0.22926676 78.78149641 C-8.46925369 78.70339984 -13.60844086 77.04628422 -19.46079731 71.19392776 C-22.36508017 65.55620221 -21.66893374 58.68805717 -21.65610981 52.51033401 C-21.65706654 51.4922113 -21.65802326 50.47408859 -21.65900898 49.42511368 C-21.65968772 47.2776572 -21.65785478 45.13019863 -21.6536684 42.98274612 C-21.64832142 39.7086917 -21.65362095 36.43477479 -21.66001606 33.16072464 C-21.65935512 31.06892746 -21.65807362 28.97713037 -21.65610981 26.88533401 C-21.65813404 25.91221771 -21.66015827 24.93910141 -21.66224384 23.93649673 C-21.64498368 18.89297177 -21.38765193 14.10253976 -20.52329731 9.13142776 C-19.86329731 9.13142776 -19.20329731 9.13142776 -18.52329731 9.13142776 C-18.29642231 8.55392776 -18.06954731 7.97642776 -17.83579731 7.38142776 C-16.1295743 4.45647404 -14.3481502 2.99326262 -11.52329731 1.13142776 C-7.65066358 0.30246512 -3.95283641 0.00530677 0 0 Z " fill="#003060" transform="translate(697.5232973098755,747.8685722351074)"/>
<path d="M0 0 C17.49 0 34.98 0 53 0 C53 61.71 53 123.42 53 187 C49.71908237 188.09363921 47.01958183 188.25341002 43.56640625 188.4296875 C42.27669922 188.50316406 40.98699219 188.57664062 39.65820312 188.65234375 C36.96317556 188.80115488 34.26809336 188.93962529 31.57226562 189.07421875 C24.40329649 189.49320754 17.83166001 190.26060011 10.95678711 192.38330078 C8.26159292 192.94543938 6.05022331 193.06297313 3.31520081 193.0385437 C2.50656869 193.03297895 1.69793657 193.02741421 0.86480045 193.02168083 C0.2494163 193.01452616 -0.36596785 193.00737148 -1 193 C-1.023326 167.98358167 -1.0409777 142.96716496 -1.05181217 117.95073795 C-1.05697577 106.33605143 -1.06401967 94.72137165 -1.07543945 83.10668945 C-1.08538436 72.98726489 -1.09185296 62.8678452 -1.09408849 52.74841589 C-1.09539593 47.3867202 -1.09848386 42.02503847 -1.10573006 36.66334724 C-1.11248722 31.62295454 -1.11461759 26.58258164 -1.11310768 21.54218483 C-1.11338415 19.68655032 -1.11539106 17.83091519 -1.11920547 15.97528458 C-1.12413799 13.45327056 -1.12299994 10.93133258 -1.12025452 8.40931702 C-1.12316736 7.66516779 -1.1260802 6.92101855 -1.12908131 6.15431935 C-1.11412121 1.11412121 -1.11412121 1.11412121 0 0 Z " fill="#003060" transform="translate(794,145)"/>
<path d="M0 0 C31.68 0 63.36 0 96 0 C96 1.32 96 2.64 96 4 C95.34 4 94.68 4 94 4 C93.5359375 5.7015625 93.5359375 5.7015625 93.0625 7.4375 C92 11 92 11 91 12 C89.10617632 19.53737427 88.70332671 26.95957695 88.734375 34.6953125 C88.73246155 35.76820526 88.7305481 36.84109802 88.72857666 37.94650269 C88.72722534 40.19692217 88.73084751 42.44734973 88.73925781 44.69775391 C88.74999342 48.12290058 88.73931539 51.54752538 88.7265625 54.97265625 C88.72788387 57.17187614 88.7304458 59.37109572 88.734375 61.5703125 C88.73032654 62.5830423 88.72627808 63.59577209 88.72210693 64.63919067 C88.43978138 74.44631976 88.43978138 74.44631976 92 83 C92.04063832 84.66617115 92.042721 86.33388095 92 88 C92.66 88 93.32 88 94 88 C94.9765625 89.7578125 95.953125 91.515625 96.9296875 93.2734375 C98.00897274 95.1612614 98.00897274 95.1612614 100 97 C99.625 99.625 99.625 99.625 99 102 C98.34 102 97.68 102 97 102 C96.731875 102.7425 96.46375 103.485 96.1875 104.25 C94.14239028 108.98604355 94.14239028 108.98604355 92 111 C88.94978599 111.38075286 86.26383421 111.50567387 83.21411133 111.45410156 C81.8456873 111.45482477 81.8456873 111.45482477 80.44961834 111.45556259 C77.49336059 111.45257436 74.53810877 111.42210312 71.58203125 111.390625 C69.75826503 111.38474466 67.93449209 111.38066346 66.11071777 111.37841797 C59.34454231 111.35743714 52.5785113 111.30159231 45.8125 111.25 C30.694375 111.1675 15.57625 111.085 0 111 C0 74.37 0 37.74 0 0 Z " fill="#003060" transform="translate(562,740)"/>
<path d="M0 0 C29.7 0 59.4 0 90 0 C92.22727273 5.56818182 92.22727273 5.56818182 92.5 9.25 C93.10058533 15.49401647 94.27579306 21.3588073 96.625 27.1875 C97.96921393 30.55816708 98.27430432 33.342609 98 37 C98.66 37 99.32 37 100 37 C100.20753906 37.77601563 100.41507813 38.55203125 100.62890625 39.3515625 C102.85985308 47.17387816 105.7832136 53.94760526 109.609375 61.1015625 C111 64 111 64 111 67 C111.66 67 112.32 67 113 67 C113 68.98 113 70.96 113 73 C111.824375 73.515625 110.64875 74.03125 109.4375 74.5625 C101.63571306 78.49791465 97.45310307 84.12692499 94 92 C93.34 92 92.68 92 92 92 C92 93.32 92 94.64 92 96 C61.64 96 31.28 96 0 96 C0 64.32 0 32.64 0 0 Z " fill="#003060" transform="translate(562,552)"/>
<path d="M0 0 C0.02332916 16.01993537 0.04097926 32.03986526 0.05181217 48.0598135 C0.05697509 55.4976451 0.06401771 62.93546617 0.07543945 70.37329102 C0.08538641 76.85381342 0.09185346 83.33432819 0.09408849 89.81485802 C0.09539558 93.24830542 0.0984813 96.681731 0.10573006 100.11517143 C0.11374416 103.94193821 0.11399113 107.76868335 0.11352539 111.59545898 C0.11712067 112.74200455 0.12071594 113.88855011 0.12442017 115.06983948 C0.1230455 116.10615509 0.12167084 117.1424707 0.12025452 118.21018982 C0.12117631 119.11631232 0.1220981 120.02243483 0.12304783 120.95601559 C0 123 0 123 -1 124 C-2.606892 124.09600136 -4.21801769 124.12187889 -5.82777405 124.12025452 C-6.87250381 124.12162918 -7.91723358 124.12300385 -8.99362183 124.12442017 C-10.14951813 124.12082489 -11.30541443 124.11722961 -12.49633789 124.11352539 C-13.70592667 124.11367142 -14.91551544 124.11381744 -16.16175842 124.1139679 C-19.48806351 124.11338893 -22.81430719 124.10835973 -26.1406014 124.10139394 C-29.61329929 124.09515978 -33.08599793 124.09455655 -36.55870056 124.09336853 C-43.13896193 124.0902554 -49.71920676 124.08204225 -56.29946083 124.07201904 C-63.78906112 124.06085734 -71.27866218 124.05534731 -78.7682687 124.05032361 C-94.17885539 124.03985962 -109.58942557 124.02226053 -125 124 C-125 122.68 -125 121.36 -125 120 C-124.34 120 -123.68 120 -123 120 C-123 119.34 -123 118.68 -123 118 C-121.63580894 116.65581322 -121.63580894 116.65581322 -119.68588257 115.05477905 C-114.17822469 110.36596981 -109.12264216 105.2471442 -104.02587891 100.12353516 C-102.94443799 99.04017133 -101.86276641 97.95703772 -100.78088379 96.87411499 C-98.46705745 94.55714713 -96.15478882 92.23864017 -93.84373856 89.91890335 C-90.19078504 86.25235708 -86.53395701 82.58969133 -82.8765564 78.92758179 C-75.12306004 71.16302387 -67.37382511 63.39421928 -59.625 55.625 C-51.23759372 47.21556172 -42.84944772 38.80686896 -34.45643938 30.40302122 C-30.81855589 26.76014935 -27.18312548 23.11485208 -23.54954076 19.46769261 C-21.29592757 17.2066418 -19.04026398 14.94764523 -16.7840271 12.6892128 C-15.73581382 11.63912155 -14.68846827 10.58816332 -13.64204025 9.53629303 C-12.21788938 8.10496646 -10.79038975 6.67697415 -9.36270142 5.24917603 C-8.56375772 4.44801172 -7.76481403 3.64684742 -6.94165993 2.82140541 C-4.37605033 0.41469395 -3.56465401 0 0 0 Z " fill="#003060" transform="translate(285,80)"/>
<path d="M0 0 C0.81637939 -0.00175232 1.63275879 -0.00350464 2.47387695 -0.00531006 C5.18052274 -0.0097221 7.88710352 -0.00679285 10.59375 -0.00341797 C12.46940117 -0.00409119 14.34505225 -0.00506138 16.22070312 -0.00631714 C20.15495635 -0.00779323 24.0891869 -0.00564238 28.0234375 -0.00097656 C33.07444056 0.00472067 38.12539049 0.0014412 43.1763916 -0.00454903 C47.05045983 -0.00815701 50.92451539 -0.00701495 54.79858398 -0.00442123 C56.66137702 -0.00375262 58.52417119 -0.0045781 60.38696289 -0.00690079 C62.98717305 -0.00943118 65.58729633 -0.00558121 68.1875 0 C68.96262939 -0.00202423 69.73775879 -0.00404846 70.53637695 -0.00613403 C75.86522156 0.01513031 75.86522156 0.01513031 78.09375 1.12939453 C78.11880615 2.30034668 78.1438623 3.47129883 78.16967773 4.67773438 C78.26368703 9.01264831 78.36392341 13.34739957 78.46606445 17.68212891 C78.50943789 19.56001995 78.55111118 21.43795105 78.59106445 23.31591797 C78.64870876 26.01167893 78.71241981 28.7072378 78.77734375 31.40283203 C78.79405624 32.24558685 78.81076874 33.08834167 78.82798767 33.95663452 C78.82611144 38.17806063 78.82611144 38.17806063 80.09375 42.12939453 C80.22790472 44.80175663 80.13693541 47.45189942 80.09375 50.12939453 C80.75375 50.12939453 81.41375 50.12939453 82.09375 50.12939453 C82.09375 52.10939453 82.09375 54.08939453 82.09375 56.12939453 C51.73375 56.12939453 21.37375 56.12939453 -9.90625 56.12939453 C-9.90625 37.97939453 -9.90625 19.82939453 -9.90625 1.12939453 C-6.7746664 -0.43639727 -3.43735206 -0.00897656 0 0 Z " fill="#003060" transform="translate(571.90625,875.87060546875)"/>
<path d="M0 0 C2.3086121 2.02820464 3.99109536 4.43069546 5.75 6.9375 C8.78859016 11.61742586 8.78859016 11.61742586 13 15 C13 15.66 13 16.32 13 17 C13.66 17 14.32 17 15 17 C15 17.66 15 18.32 15 19 C15.66 19 16.32 19 17 19 C17 19.66 17 20.32 17 21 C17.66 21 18.32 21 19 21 C19 21.66 19 22.32 19 23 C19.66 23 20.32 23 21 23 C21 23.66 21 24.32 21 25 C21.66 25 22.32 25 23 25 C23 25.66 23 26.32 23 27 C23.66 27 24.32 27 25 27 C25 27.66 25 28.32 25 29 C25.82757812 29.38671875 25.82757812 29.38671875 26.671875 29.78125 C29.34314175 31.17963125 31.76851909 32.78763305 34.25 34.5 C35.14203125 35.1084375 36.0340625 35.716875 36.953125 36.34375 C37.62859375 36.8903125 38.3040625 37.436875 39 38 C39 38.66 39 39.32 39 40 C39.99 40 40.98 40 42 40 C42 40.66 42 41.32 42 42 C43.11375 42.433125 43.11375 42.433125 44.25 42.875 C46.56739797 43.82302644 48.77917115 44.84845911 51 46 C51 46.66 51 47.32 51 48 C51.99 48 52.98 48 54 48 C54 48.66 54 49.32 54 50 C54.85911987 50.18792114 54.85911987 50.18792114 55.7355957 50.37963867 C58.06482344 51.01775918 60.05697086 51.8769691 62.23046875 52.92578125 C63.03419922 53.31056641 63.83792969 53.69535156 64.66601562 54.09179688 C65.91415039 54.69604492 65.91415039 54.69604492 67.1875 55.3125 C79.0431893 61.30152072 79.0431893 61.30152072 91.5625 65.5625 C94.84287645 66.40198438 97.97867207 67.31147498 101.125 68.5625 C108.20416713 71.31631043 115.47627172 72.28345445 123 73 C122.67 74.32 122.34 75.64 122 77 C105.51034867 77.04670923 89.02071879 77.08198355 72.5310173 77.10362434 C64.87465962 77.11393936 57.21834303 77.128004 49.56201172 77.15087891 C42.8891873 77.17080588 36.21639263 77.1837148 29.54353929 77.18817699 C26.00992286 77.19078555 22.47639158 77.19692145 18.94280243 77.21146011 C14.99928688 77.22755395 11.05585482 77.22798013 7.11230469 77.22705078 C5.35256065 77.23783661 5.35256065 77.23783661 3.55726624 77.24884033 C2.48317001 77.246091 1.40907379 77.24334167 0.3024292 77.24050903 C-0.6304253 77.24235262 -1.5632798 77.24419621 -2.52440262 77.24609566 C-5.12714081 76.98736111 -6.76333915 76.32029377 -9 75 C-9 74.34 -9 73.68 -9 73 C-9.61875 72.731875 -10.2375 72.46375 -10.875 72.1875 C-13 71 -13 71 -15 68 C-16.16112863 62.26284783 -16.14558846 56.58002981 -16.1328125 50.75390625 C-16.13376923 49.78396225 -16.13472595 48.81401825 -16.13571167 47.81468201 C-16.13638954 45.77155492 -16.13456278 43.72842563 -16.13037109 41.68530273 C-16.12502315 38.57595935 -16.1303265 35.46676078 -16.13671875 32.35742188 C-16.13605779 30.36458302 -16.13477624 28.37174425 -16.1328125 26.37890625 C-16.13483673 25.45783585 -16.13686096 24.53676544 -16.13894653 23.58778381 C-16.11996161 18.30133322 -15.76759301 13.23175233 -15 8 C-14.34 8 -13.68 8 -13 8 C-12.773125 7.4225 -12.54625 6.845 -12.3125 6.25 C-9.3551419 1.18024326 -5.82393513 -0.99206738 0 0 Z " fill="#003060" transform="translate(692,646)"/>
<path d="M0 0 C3.65137101 0.67932484 5.80328397 2.19262718 8.6875 4.5 C10.0625 6.75 10.0625 6.75 10.6875 8.5 C11.3475 8.5 12.0075 8.5 12.6875 8.5 C12.84999384 16.34949978 12.97421989 24.19860266 13.0501852 32.04936409 C13.08665408 35.69529931 13.13607982 39.34008053 13.21557617 42.98535156 C13.29187543 46.50622691 13.33353801 50.02599563 13.3516407 53.54763412 C13.37079 55.53872985 13.4254001 57.5293827 13.48057556 59.51980591 C13.48440887 68.37094711 13.48440887 68.37094711 11.1880188 71.62445068 C9.42196707 73.16725191 7.72462397 74.34790268 5.6875 75.5 C4.6975 76.16 3.7075 76.82 2.6875 77.5 C0.31933308 77.74609566 0.31933308 77.74609566 -2.53263855 77.74050903 C-3.61377426 77.74325836 -4.69490997 77.74600769 -5.80880737 77.74884033 C-6.99491608 77.74164978 -8.18102478 77.73445923 -9.40307617 77.72705078 C-10.65197128 77.72734283 -11.90086639 77.72763489 -13.18760681 77.72793579 C-16.61303405 77.72678024 -20.03822095 77.71674185 -23.46360564 77.70278788 C-27.04305677 77.69029513 -30.62251102 77.68911117 -34.20198059 77.68673706 C-40.98052776 77.680518 -47.7590105 77.66410144 -54.53752929 77.64403808 C-62.25449254 77.62169231 -69.97145886 77.61068898 -77.6884464 77.60064721 C-93.56316826 77.57973557 -109.43782583 77.54455134 -125.3125 77.5 C-125.3125 76.18 -125.3125 74.86 -125.3125 73.5 C-124.67441406 73.43941406 -124.03632812 73.37882813 -123.37890625 73.31640625 C-122.55261719 73.23261719 -121.72632813 73.14882813 -120.875 73.0625 C-120.05128906 72.98128906 -119.22757813 72.90007812 -118.37890625 72.81640625 C-116.32587975 72.71069185 -116.32587975 72.71069185 -115.3125 71.5 C-113.11095178 71.01011125 -110.90087057 70.55835466 -108.6875 70.125 C-103.47026836 69.03939422 -99.1192295 67.71849054 -94.3125 65.5 C-92.77573548 65.04558039 -91.2334039 64.60978365 -89.6875 64.1875 C-83.24459885 62.31729617 -77.3360896 59.4182608 -71.3125 56.5 C-70.49136719 56.12101563 -69.67023437 55.74203125 -68.82421875 55.3515625 C-56.95960367 49.72833317 -45.9746336 42.30379865 -35.66796875 34.21484375 C-33.3125 32.5 -33.3125 32.5 -30.3125 31.5 C-30.3125 30.84 -30.3125 30.18 -30.3125 29.5 C-28.66796875 27.80859375 -28.66796875 27.80859375 -26.5 25.9375 C-25.79230469 25.31746094 -25.08460938 24.69742188 -24.35546875 24.05859375 C-22.3125 22.5 -22.3125 22.5 -19.3125 21.5 C-19.3125 20.84 -19.3125 20.18 -19.3125 19.5 C-18.6525 19.5 -17.9925 19.5 -17.3125 19.5 C-17.044375 18.91734375 -16.77625 18.3346875 -16.5 17.734375 C-15.29769009 15.47213399 -13.97424087 13.69423682 -12.3125 11.75 C-11.796875 11.13640625 -11.28125 10.5228125 -10.75 9.890625 C-9.3125 8.5 -9.3125 8.5 -7.3125 8.5 C-7.044375 7.9225 -6.77625 7.345 -6.5 6.75 C-3.31588983 0.71694915 -3.31588983 0.71694915 0 0 Z " fill="#003060" transform="translate(1002.3125,645.5)"/>
<path d="M0 0 C30.36 0 60.72 0 92 0 C92.96162149 3.84648596 93.00127659 4.91826812 92.12890625 8.54296875 C90.91172724 14.11378552 90.38380645 19.63470572 89.9375 25.3125 C89.78246391 27.22546599 89.62499454 29.13823666 89.46484375 31.05078125 C89.399021 31.88262939 89.33319824 32.71447754 89.26538086 33.5715332 C88.9925153 36.06849151 88.49260908 38.53695459 88 41 C58.96 41 29.92 41 0 41 C0 27.47 0 13.94 0 0 Z " fill="#003060" transform="translate(562,485)"/>
<path d="M0 0 C29.04 0 58.08 0 88 0 C88.33 13.86 88.66 27.72 89 42 C67.07830743 42.04010881 67.07830743 42.04010881 57.76757812 42.04882812 C51.40274222 42.0548168 45.03792064 42.06191775 38.6730957 42.07543945 C33.54436015 42.08626755 28.41563994 42.09227667 23.28689384 42.09487724 C21.32558386 42.09673163 19.36427476 42.10035251 17.40297127 42.10573006 C14.66584553 42.11293946 11.92878403 42.11399099 9.19165039 42.11352539 C7.96274582 42.1189183 7.96274582 42.1189183 6.70901489 42.12442017 C1.11405216 42.11405216 1.11405216 42.11405216 0 41 C0 27.47 0 13.94 0 0 Z " fill="#003060" transform="translate(562,673)"/>
</svg>
