<?xml version="1.0" encoding="UTF-8"?>
<svg version="1.1" xmlns="http://www.w3.org/2000/svg" width="1080" height="1080">
<path d="M0 0 C0.67877197 0.00008057 1.35754395 0.00016113 2.05688477 0.00024414 C4.12667451 -0.00194046 6.1959298 -0.02008804 8.265625 -0.0390625 C10.21178711 -0.04196289 10.21178711 -0.04196289 12.19726562 -0.04492188 C13.39536865 -0.04903076 14.59347168 -0.05313965 15.82788086 -0.05737305 C18.70117188 0.18554688 18.70117188 0.18554688 20.70117188 2.18554688 C22.47834781 2.6602323 24.27407082 3.0666128 26.07617188 3.43554688 C31.96674012 4.79654459 36.77757062 7.08634616 42.00976562 10.07617188 C45.2029917 11.39239278 46.46184609 11.26874456 49.70117188 10.18554688 C51.39301416 9.42686135 53.06055285 8.61193533 54.70117188 7.74804688 C59.3436712 5.31798864 63.82696139 3.28675116 68.95117188 2.12304688 C72.47429354 1.5839238 72.47429354 1.5839238 73.70117188 0.18554688 C75.84676014 0.09779082 77.99521609 0.07859469 80.14257812 0.08789062 C81.44775391 0.09111328 82.75292969 0.09433594 84.09765625 0.09765625 C85.48632877 0.10601286 86.87500065 0.11447782 88.26367188 0.12304688 C89.65624843 0.12806022 91.04882669 0.13262341 92.44140625 0.13671875 C95.86137058 0.14855254 99.28125032 0.16503807 102.70117188 0.18554688 C102.70117188 0.84554687 102.70117188 1.50554687 102.70117188 2.18554688 C103.81492187 2.26804687 104.92867187 2.35054688 106.07617188 2.43554688 C111.36801895 3.12135543 115.87868775 4.95873409 120.70117188 7.18554688 C121.714375 7.64703125 122.72757812 8.10851562 123.77148438 8.58398438 C140.25528083 16.72658262 154.11297196 31.46440635 161.70117188 48.18554688 C161.83136719 48.9203125 161.9615625 49.65507812 162.09570312 50.41210938 C162.29550781 50.99734375 162.4953125 51.58257812 162.70117188 52.18554688 C164.53970488 53.15937711 164.53970488 53.15937711 166.88867188 53.62304688 C171.45904804 54.81704936 175.8888881 56.25943776 180.32617188 57.87304688 C181.5353125 58.31003906 182.74445313 58.74703125 183.99023438 59.19726562 C184.88484375 59.52339844 185.77945312 59.84953125 186.70117188 60.18554688 C186.70117188 60.84554687 186.70117188 61.50554687 186.70117188 62.18554688 C187.28125 62.31316406 187.86132812 62.44078125 188.45898438 62.57226562 C200.06607346 65.74702693 210.70014604 76.52278206 218.70117188 85.18554688 C218.70117188 85.84554687 218.70117188 86.50554687 218.70117188 87.18554688 C219.36117188 87.18554688 220.02117187 87.18554688 220.70117188 87.18554688 C224.70117188 92.59731158 224.70117188 92.59731158 224.70117188 95.18554688 C225.36117188 95.18554688 226.02117187 95.18554688 226.70117188 95.18554688 C227.36117188 97.16554688 228.02117187 99.14554687 228.70117188 101.18554688 C229.36117188 101.18554688 230.02117187 101.18554688 230.70117188 101.18554688 C231.71358434 103.07478085 232.71064613 104.97224631 233.70117188 106.87304688 C234.53648437 108.45666016 234.53648437 108.45666016 235.38867188 110.07226562 C236.66839928 113.1078095 236.98968231 114.94581513 236.70117188 118.18554688 C237.36117188 118.18554688 238.02117187 118.18554688 238.70117188 118.18554688 C238.70117188 119.17554688 238.70117188 120.16554688 238.70117188 121.18554688 C239.84113745 121.1869034 240.98110302 121.18825993 242.15561301 121.18965757 C292.38727349 121.24956251 342.61893018 121.31192781 392.85057068 121.38687134 C393.61086255 121.38800496 394.37115443 121.38913858 395.15448545 121.39030656 C411.67703783 121.41495708 428.19958951 121.44004992 444.72214052 121.46559849 C452.82460723 121.47812452 460.92707408 121.49055279 469.02954102 121.50292969 C469.83584076 121.50416301 470.6421405 121.50539634 471.47287356 121.50666703 C497.61491673 121.54660835 523.75696332 121.58009249 549.89901947 121.61023378 C576.75977922 121.64123779 603.62052221 121.67874478 630.48126116 121.724453 C634.27375649 121.73090355 638.06625195 121.73727963 641.85874748 121.74361038 C642.97839143 121.74548284 642.97839143 121.74548284 644.12065445 121.74739312 C656.14387082 121.76730876 668.16708534 121.78035402 680.19031323 121.79084015 C692.27300846 121.8015244 704.35567586 121.81942263 716.43834949 121.84471391 C722.98690756 121.85822062 729.53543756 121.86824973 736.08401108 121.86976051 C742.07546855 121.87121342 748.06683733 121.88177565 754.05826759 121.89968129 C756.22930143 121.90454392 758.40034596 121.90602092 760.57138414 121.90382569 C763.51651383 121.90133593 766.46135977 121.91103888 769.40645695 121.92383385 C770.25441439 121.92018417 771.10237183 121.91653448 771.97602496 121.91277421 C776.88941809 121.94965378 780.99449368 122.60663929 785.70117188 124.18554688 C786.93867187 124.57742187 788.17617188 124.96929687 789.45117188 125.37304688 C804.95482901 131.31511002 816.36600366 143.58189379 823.70117188 158.18554688 C826.70117188 166.22690026 826.70117188 166.22690026 826.70117188 170.18554688 C827.36117187 170.18554688 828.02117188 170.18554688 828.70117188 170.18554688 C828.71828239 224.88070605 828.73420402 279.57586549 828.74351501 334.27102661 C828.74365307 335.07993985 828.74379113 335.88885308 828.74393337 336.72227884 C828.74692596 354.30019898 828.74969618 371.87811915 828.7522372 389.45603936 C828.75348459 398.07567338 828.75478114 406.6953074 828.75610352 415.31494141 C828.75629965 416.60160869 828.75629965 416.60160869 828.75649976 417.91426925 C828.7607646 445.74032939 828.76827851 473.56638751 828.7774691 501.39244642 C828.7868929 529.97637698 828.79305528 558.56030643 828.79508687 587.14423852 C828.79537504 591.17726584 828.79570068 595.21029315 828.79604912 599.24332047 C828.79611654 600.03711399 828.79618396 600.83090752 828.79625343 601.6487554 C828.79743726 614.45030459 828.802081 627.25185032 828.80800391 640.05339809 C828.81387849 652.9089342 828.81614304 665.76446687 828.81467325 678.62000428 C828.81391002 686.26697254 828.81596398 693.91392824 828.82196942 701.56089424 C828.8261389 707.25687688 828.82514517 712.95284896 828.82207077 718.64883186 C828.82164517 720.96379192 828.82294012 723.278753 828.82605506 725.593711 C828.8300209 728.72085563 828.82793404 731.84793701 828.8242197 734.97508049 C828.82684672 735.89072075 828.82947373 736.806361 828.83218035 737.74974793 C828.81531767 743.95725528 828.81531767 743.95725528 827.70117188 746.18554688 C827.04117188 746.18554688 826.38117187 746.18554688 825.70117188 746.18554688 C825.75917969 747.03890625 825.8171875 747.89226563 825.87695312 748.77148438 C825.27833372 760.39800357 815.82929905 770.64736441 807.70117188 778.18554688 C795.1253546 788.4963648 782.26856719 794.50534496 765.87425232 794.46401978 C765.03351781 794.46981218 764.19278331 794.47560458 763.326572 794.48157251 C760.53530169 794.49845317 757.74419792 794.50143865 754.95288086 794.50439453 C752.94172262 794.51370095 750.93056822 794.52387069 748.91941833 794.53483582 C743.47798419 794.56206929 738.03657585 794.5772655 732.59509158 794.59026384 C726.90158563 794.60592352 721.20813212 794.63270469 715.5146637 794.65829468 C704.74144594 794.70503226 693.96821827 794.74180068 683.19495112 794.77496755 C670.92650319 794.81322442 658.65810801 794.86262525 646.38970459 794.91295171 C621.1602328 795.0161969 595.93072712 795.1054814 570.70117188 795.18554688 C571.27867187 796.08917969 571.85617187 796.9928125 572.45117188 797.92382812 C573.20152423 799.11501249 573.95150494 800.30643102 574.70117188 801.49804688 C575.08273437 802.09294922 575.46429687 802.68785156 575.85742188 803.30078125 C578.70117188 807.84570312 578.70117188 807.84570312 578.70117188 811.18554688 C579.36117187 811.18554688 580.02117188 811.18554688 580.70117188 811.18554688 C581.05308594 811.84039063 581.405 812.49523437 581.76757812 813.16992188 C586.13821795 821.24932917 590.64749907 829.24597944 595.47851562 837.06054688 C596.02636719 837.94742188 596.57421875 838.83429687 597.13867188 839.74804688 C597.63238281 840.53308594 598.12609375 841.318125 598.63476562 842.12695312 C599.70117188 844.18554688 599.70117188 844.18554688 599.70117188 847.18554688 C600.36117187 847.18554688 601.02117188 847.18554688 601.70117188 847.18554688 C602.11109375 847.94480469 602.52101563 848.7040625 602.94335938 849.48632812 C603.4821875 850.48019531 604.02101563 851.4740625 604.57617188 852.49804688 C605.10984375 853.48417969 605.64351562 854.4703125 606.19335938 855.48632812 C607.70839314 858.28141145 607.70839314 858.28141145 609.70117188 861.18554688 C609.70117188 862.17554688 609.70117188 863.16554688 609.70117188 864.18554688 C610.36117187 864.18554688 611.02117188 864.18554688 611.70117188 864.18554688 C613.56357456 868.14684782 613.97155813 871.32288915 613.95117188 875.68554688 C613.95632813 876.78898438 613.96148438 877.89242187 613.96679688 879.02929688 C613.70420803 882.14947021 613.02555969 884.36859501 611.70117188 887.18554688 C611.04117188 887.18554688 610.38117187 887.18554688 609.70117188 887.18554688 C609.49492188 887.90742187 609.28867187 888.62929688 609.07617188 889.37304688 C606.59509781 894.4479711 601.68229248 897.71140267 596.70117188 900.18554688 C594.11935961 900.46902129 591.78309656 900.59263099 589.20540142 900.56865692 C588.4557678 900.57361644 587.70613418 900.57857595 586.9337844 900.58368576 C584.413586 900.59667309 581.89391472 900.58824738 579.373703 900.57995605 C577.55192367 900.58484349 575.73014745 900.5910326 573.90837651 900.59841394 C568.89557615 900.61485553 563.88293262 900.61248695 558.87011468 900.60703897 C553.46643466 900.60437395 548.06279694 900.61889069 542.65913391 900.63113403 C532.06986514 900.65221297 521.48065109 900.65672746 510.89136382 900.65494615 C502.28551805 900.65363969 493.67968937 900.6574367 485.07384682 900.66487122 C482.59707318 900.66697036 480.12029954 900.66906796 477.6435259 900.67116404 C475.79450769 900.67272933 475.79450769 900.67272933 473.90813557 900.67432624 C450.58207148 900.69323874 427.25603882 900.69217539 403.92997024 900.68535691 C382.58316804 900.6797814 361.23650333 900.70060549 339.88972636 900.73371738 C317.98083867 900.7674379 296.07200848 900.78262471 274.16309434 900.77800035 C261.85894652 900.77575392 249.55490961 900.78102422 237.25078392 900.80589294 C226.7753241 900.82688493 216.300036 900.83051894 205.82456919 900.81159335 C200.47874992 900.8024224 195.13325101 900.80133423 189.78745651 900.82194901 C184.89390031 900.84061126 180.0009279 900.83620875 175.10739426 900.81340319 C173.33688736 900.80920541 171.56633613 900.81345689 169.79587605 900.82699913 C153.14523783 900.94568813 153.14523783 900.94568813 146.70117188 895.18554688 C146.70117188 894.52554688 146.70117188 893.86554687 146.70117188 893.18554688 C146.04117187 893.18554688 145.38117188 893.18554688 144.70117188 893.18554688 C144.70117188 892.52554688 144.70117188 891.86554687 144.70117188 891.18554688 C144.04117187 891.18554688 143.38117188 891.18554688 142.70117188 891.18554688 C138.25121365 884.25043053 137.02265267 877.86499457 138.0859375 869.65332031 C139.94982287 862.17706901 144.99020634 855.71846966 149.25683594 849.42724609 C151.36937905 846.14844778 153.02083405 842.69822996 154.70117188 839.18554688 C155.60466696 837.51170334 156.5186368 835.843387 157.45117188 834.18554688 C157.87914062 833.42242188 158.30710937 832.65929687 158.74804688 831.87304688 C159.06257813 831.31617188 159.37710937 830.75929688 159.70117188 830.18554688 C160.36117188 830.18554688 161.02117187 830.18554688 161.70117188 830.18554688 C161.80429687 829.64929688 161.90742188 829.11304688 162.01367188 828.56054688 C162.88209884 825.56052644 164.25737484 822.94759338 165.70117188 820.18554688 C166.36117188 820.18554688 167.02117187 820.18554688 167.70117188 820.18554688 C167.78753906 819.66605469 167.87390625 819.1465625 167.96289062 818.61132812 C168.98538167 815.25171469 170.74157922 812.38013695 172.51367188 809.37304688 C172.85720703 808.78201172 173.20074219 808.19097656 173.5546875 807.58203125 C174.21035529 806.45398741 174.86803292 805.32710706 175.52856445 804.2019043 C176.61946716 802.32604224 177.69837688 800.44391608 178.77445984 798.55952454 C179.41027481 797.44611191 180.04608978 796.33269928 180.70117188 795.18554688 C179.65810662 795.18223673 178.61504137 795.17892658 177.54036808 795.17551613 C152.15106065 795.09449367 126.76181344 795.00216942 101.37259007 794.89801979 C89.09451605 794.84791485 76.81644865 794.80147163 64.53833008 794.76367188 C53.8357476 794.7307133 43.1332167 794.69086063 32.43069118 794.64275682 C26.76469999 794.61753036 21.09874284 794.59573764 15.43271065 794.58220291 C10.0967584 794.56934768 4.76092314 794.54725585 -0.57496452 794.51816368 C-2.5304284 794.50911498 -4.48591109 794.50340401 -6.44139481 794.50133324 C-9.11836448 794.49799154 -11.79500627 794.48246281 -14.47190857 794.46401978 C-15.23944645 794.46595451 -16.00698433 794.46788924 -16.79778093 794.46988261 C-24.1792504 794.39424242 -31.05267523 792.93744246 -37.86132812 790.06054688 C-38.70824219 789.70734375 -39.55515625 789.35414063 -40.42773438 788.99023438 C-41.04519531 788.7246875 -41.66265625 788.45914063 -42.29882812 788.18554688 C-42.29882812 787.52554688 -42.29882812 786.86554687 -42.29882812 786.18554688 C-43.141875 786.03279297 -43.141875 786.03279297 -44.00195312 785.87695312 C-56.20534835 782.20348211 -65.39811687 769.6713422 -71.46289062 759.16992188 C-72.29882812 757.18554688 -72.29882812 757.18554688 -72.29882812 753.18554688 C-72.95882812 753.18554688 -73.61882812 753.18554688 -74.29882812 753.18554688 C-76.56856894 742.71336804 -77.73197329 732.82924895 -77.66390991 722.07023621 C-77.66577458 720.62313264 -77.66897088 719.17603031 -77.67336142 717.7289322 C-77.68159835 713.80303924 -77.67155368 709.87738463 -77.65827274 705.95151365 C-77.64726871 701.69879559 -77.65385155 697.44609942 -77.65840149 693.19337463 C-77.66412175 685.84135214 -77.65956198 678.48939587 -77.64838791 671.1373806 C-77.63268057 660.50458967 -77.63832304 649.87188712 -77.65000434 639.23909477 C-77.66885522 621.9799525 -77.67811708 604.72082231 -77.67773438 587.46166992 C-77.67770821 585.91532144 -77.67770821 585.91532144 -77.67768152 584.3377336 C-77.67722862 572.81798805 -77.67388574 561.29824683 -77.66680908 549.77850342 C-77.6661767 548.74047038 -77.66554432 547.70243733 -77.66489277 546.63294875 C-77.66426021 545.59580117 -77.66362764 544.5586536 -77.66297591 543.49007732 C-77.6617061 541.39825142 -77.66044069 539.30642551 -77.65917969 537.21459961 C-77.6582374 535.6642376 -77.6582374 535.6642376 -77.65727608 534.08255514 C-77.64733393 516.86852612 -77.656614 499.65456915 -77.6813637 482.44055539 C-77.69581366 471.82775669 -77.69369495 461.2152112 -77.67040171 450.60242698 C-77.65569449 443.34381711 -77.65876213 436.08535632 -77.67603062 428.82675251 C-77.68539866 424.63584507 -77.68642414 420.44535082 -77.66580009 416.25447464 C-77.64708789 412.42247509 -77.6511115 408.59121433 -77.67362769 404.7592415 C-77.67768124 403.36936393 -77.67317657 401.97943114 -77.65949373 400.58961501 C-77.64217068 398.70809547 -77.65830678 396.82635509 -77.67635155 394.94484234 C-77.67562096 393.37384872 -77.67562096 393.37384872 -77.67487562 391.77111787 C-78.05305236 388.93744396 -78.05305236 388.93744396 -80.83773291 387.45059091 C-81.64989433 387.03312638 -82.46205575 386.61566185 -83.29882812 386.18554688 C-83.29882812 385.52554687 -83.29882812 384.86554688 -83.29882812 384.18554688 C-83.88148437 383.92773438 -84.46414062 383.66992188 -85.06445312 383.40429688 C-87.47911843 382.08720671 -89.1162299 380.63466303 -91.04882812 378.68554688 C-91.66242188 378.07710938 -92.27601562 377.46867187 -92.90820312 376.84179688 C-94.29882812 375.18554688 -94.29882812 375.18554688 -94.29882812 373.18554688 C-94.95882812 373.18554688 -95.61882812 373.18554688 -96.29882812 373.18554688 C-96.95882812 371.20554687 -97.61882812 369.22554688 -98.29882812 367.18554688 C-98.95882812 367.18554688 -99.61882812 367.18554688 -100.29882812 367.18554688 C-103.11678507 361.93831671 -105.11513281 356.93594034 -106.68554688 351.18945312 C-107.12083028 349.20713823 -107.12083028 349.20713823 -108.29882812 348.18554688 C-109.89760072 338.59291133 -109.74599802 328.77304743 -108.29882812 319.18554688 C-108.85441406 318.94578125 -109.41 318.70601563 -109.98242188 318.45898438 C-112.81636511 316.90103245 -114.96795083 314.98371902 -117.36132812 312.81054688 C-118.21855469 312.0396875 -119.07578125 311.26882813 -119.95898438 310.47460938 C-122.00987687 308.46822707 -123.73946419 306.58850113 -125.29882812 304.18554688 C-125.29882812 303.52554687 -125.29882812 302.86554688 -125.29882812 302.18554688 C-125.95882812 302.18554688 -126.61882812 302.18554688 -127.29882812 302.18554688 C-127.29882812 301.52554687 -127.29882812 300.86554688 -127.29882812 300.18554688 C-127.95882812 300.18554688 -128.61882812 300.18554688 -129.29882812 300.18554688 C-141.38541028 276.80446441 -147.70096729 255.04681621 -139.48632812 228.87304688 C-137.86549565 224.27454869 -135.79735315 220.2155211 -133.15429688 216.12304688 C-132.13014313 214.23119466 -132.13014313 214.23119466 -132.49023438 212.18945312 C-133.41668506 209.89346664 -134.59514538 208.12748056 -136.04882812 206.12304688 C-141.08515046 198.7557648 -144.34564212 190.88593079 -146.62304688 182.27929688 C-147.28000742 179.91877125 -147.28000742 179.91877125 -149.29882812 177.18554688 C-149.55279541 174.90208435 -149.55279541 174.90208435 -149.55761719 172.19506836 C-149.56392151 171.18069199 -149.57022583 170.16631561 -149.57672119 169.12120056 C-149.57267273 168.02739578 -149.56862427 166.933591 -149.56445312 165.80664062 C-149.56636658 164.68363052 -149.56828003 163.56062042 -149.57025146 162.40357971 C-149.57161299 160.02889787 -149.56791882 157.65420857 -149.55957031 155.27954102 C-149.54886062 151.63410834 -149.5594721 147.98916739 -149.57226562 144.34375 C-149.57094422 142.03971245 -149.56838223 139.7356752 -149.56445312 137.43164062 C-149.56850159 136.33581161 -149.57255005 135.2399826 -149.57672119 134.11094666 C-149.57041687 133.09972244 -149.56411255 132.08849823 -149.55761719 131.04663086 C-149.556026 130.15411118 -149.55443481 129.26159149 -149.55279541 128.34202576 C-149.29882812 126.18554688 -149.29882812 126.18554688 -147.29882812 124.18554688 C-146.84874208 122.80625094 -146.46266187 121.40573978 -146.11132812 119.99804688 C-144.05049204 112.68851888 -140.61132041 105.99203787 -137.29882812 99.18554688 C-136.63882813 99.18554688 -135.97882813 99.18554688 -135.29882812 99.18554688 C-135.15445313 98.56679687 -135.01007813 97.94804687 -134.86132812 97.31054688 C-134.29882812 95.18554688 -134.29882812 95.18554688 -133.29882812 93.18554688 C-132.63882813 93.18554688 -131.97882813 93.18554688 -131.29882812 93.18554688 C-131.05132812 92.46367187 -130.80382812 91.74179688 -130.54882812 90.99804688 C-129.17613221 87.90948106 -127.57529516 85.6754327 -125.29882812 83.18554688 C-124.63882813 83.18554688 -123.97882813 83.18554688 -123.29882812 83.18554688 C-123.29882812 82.52554688 -123.29882812 81.86554688 -123.29882812 81.18554688 C-110.51584027 67.6333821 -92.39939102 57.37725618 -74.29882812 53.18554688 C-72.97882813 53.18554688 -71.65882813 53.18554688 -70.29882812 53.18554688 C-70.19570312 52.50492188 -70.09257812 51.82429688 -69.98632812 51.12304688 C-69.15157794 47.55638699 -67.80410058 44.52332493 -66.29882812 41.18554688 C-65.63882813 41.18554688 -64.97882813 41.18554688 -64.29882812 41.18554688 C-64.19570312 40.62867188 -64.09257812 40.07179687 -63.98632812 39.49804688 C-63.15704404 36.70863677 -61.95583757 34.57164047 -60.29882812 32.18554688 C-59.63882813 32.18554688 -58.97882813 32.18554688 -58.29882812 32.18554688 C-58.03070313 31.60804687 -57.76257813 31.03054687 -57.48632812 30.43554688 C-56.26953623 28.13004645 -54.99548933 26.16498495 -53.29882812 24.18554688 C-52.63882813 24.18554688 -51.97882813 24.18554688 -51.29882812 24.18554688 C-51.29882812 23.52554688 -51.29882812 22.86554688 -51.29882812 22.18554688 C-46.82823989 18.18554688 -46.82823989 18.18554688 -44.29882812 18.18554688 C-44.29882812 17.52554688 -44.29882812 16.86554688 -44.29882812 16.18554688 C-33.72790377 9.88364966 -23.26651444 4.37692989 -11.29882812 1.18554688 C-8.96166803 -1.15161322 -3.11049924 0.01392068 0 0 Z M-34.08398438 52.27539062 C-35.56715421 54.23015779 -35.56715421 54.23015779 -35.29882812 57.18554688 C-34.57179688 57.44207031 -33.84476562 57.69859375 -33.09570312 57.96289062 C-16.82372143 64.15876058 -4.25122668 75.70677112 3.70117188 91.18554688 C5.11919927 95.43962907 5.59875695 99.07699573 3.79492188 103.31445312 C1.18596199 107.85504678 -1.14606495 110.56899372 -6.29882812 112.18554688 C-11.82893818 112.96131382 -15.45495576 112.1269164 -20.29882812 109.18554688 C-22.57226562 106.51367187 -22.57226562 106.51367187 -24.67382812 103.43554688 C-31.32170957 94.2656738 -38.06845131 88.05961174 -49.29882812 85.18554688 C-64.92775145 82.91863855 -78.76057797 87.82920914 -91.29882812 97.18554688 C-105.04917541 107.77871472 -115.60029746 123.80824013 -118.04882812 141.22851562 C-119.50754587 158.48241144 -116.90692178 173.03530203 -108.29882812 188.18554688 C-104.29218116 187.58200477 -101.2949319 186.2854938 -97.73632812 184.37304688 C-78.36130723 174.45913705 -56.97141872 173.59101779 -36.29882812 179.93554688 C-16.88908853 186.75654064 -1.22740689 200.90926456 8.38867188 218.99804688 C14.26256679 231.28863887 17.01271733 244.58606964 15.70117188 258.18554688 C13.78244452 262.8279849 11.88005155 265.36480309 7.70117188 268.18554688 C2.99594632 269.75395539 -0.82531629 269.73450227 -5.48632812 267.99804688 C-10.13021658 265.00531876 -12.51679211 261.77459457 -13.87695312 256.39257812 C-14.41735075 253.56549795 -14.78509891 250.72484483 -15.17382812 247.87304688 C-17.08530895 235.20224593 -22.69703072 224.41323027 -32.79882812 216.24804688 C-44.91702398 207.54460037 -57.63920573 205.57281775 -72.29882812 207.18554688 C-82.47033818 209.25240129 -90.26888023 214.7063166 -97.29882812 222.18554688 C-97.88148437 222.75015625 -98.46414062 223.31476563 -99.06445312 223.89648438 C-108.18939555 233.34402578 -109.77886718 246.06335314 -109.57617188 258.55664062 C-109.16707678 268.55199384 -105.16452068 276.29200061 -99.29882812 284.18554688 C-98.63882813 285.17554688 -97.97882813 286.16554688 -97.29882812 287.18554688 C-96.63882813 287.18554688 -95.97882813 287.18554688 -95.29882812 287.18554688 C-95.29882812 287.84554687 -95.29882812 288.50554687 -95.29882812 289.18554688 C-91.36248451 288.64716804 -89.79278369 286.88276361 -87.17382812 283.99804688 C-81.39717369 278.07957605 -75.5838041 272.92918845 -66.98632812 272.62304688 C-63.04664097 272.86425221 -60.49959061 273.78497501 -57.29882812 276.18554688 C-56.63882813 276.18554688 -55.97882813 276.18554688 -55.29882812 276.18554688 C-54.98945313 276.96929687 -54.68007812 277.75304687 -54.36132812 278.56054688 C-53.37007774 281.10884815 -53.37007774 281.10884815 -52.29882812 283.18554688 C-51.73388962 288.71542569 -51.94438385 292.573186 -55.29882812 297.18554688 C-55.29882812 297.84554688 -55.29882812 298.50554687 -55.29882812 299.18554688 C-56.10320312 299.55679688 -56.10320312 299.55679688 -56.92382812 299.93554688 C-57.70757812 300.34804688 -58.49132812 300.76054687 -59.29882812 301.18554688 C-60.20632812 301.65992188 -61.11382812 302.13429688 -62.04882812 302.62304688 C-68.52160643 307.03705345 -73.8496635 315.1590193 -75.89257812 322.68554688 C-77.75922905 334.17262946 -76.24028726 343.76081641 -69.75976562 353.49804688 C-63.96826522 360.74428434 -55.59203162 366.07248258 -46.29882812 367.18554688 C-35.14850776 368.19753965 -26.00299264 365.17476448 -17.29882812 358.18554688 C-15.42875106 356.41156073 -13.64121266 354.60534622 -11.90429688 352.70117188 C-7.9165193 348.9365546 -4.05318978 348.75633323 1.22851562 348.86523438 C5.82449113 349.46060561 8.54477072 351.86964212 11.51367188 355.24804688 C13.94335488 359.21226651 13.93665707 362.63283303 13.70117188 367.18554688 C10.4188526 377.58514009 0.36303392 384.38938498 -8.29882812 390.18554688 C-5.6297721 393.12757454 -3.61103654 394.74374541 0.20117188 395.87304688 C0.95398438 396.10378906 1.70679688 396.33453125 2.48242188 396.57226562 C10.94829071 398.91230331 18.5699349 398.89162087 26.70117188 395.18554688 C29.38091282 393.03518609 30.57343625 391.87944555 31.2037192 388.45555735 C31.20491068 387.39906536 31.20610216 386.34257337 31.20732975 385.25406647 C31.21837744 384.03286401 31.22942513 382.81166156 31.24080759 381.55345297 C31.23285008 380.19631834 31.22451239 378.83918589 31.21583557 377.48205566 C31.22115903 376.04189164 31.22822357 374.60173317 31.23688263 373.16158533 C31.25556357 369.19907709 31.24918644 365.2369412 31.2387296 361.27441716 C31.231753 357.00303563 31.24772372 352.73173179 31.26072693 348.46037292 C31.28239769 340.09080052 31.28223225 331.72136392 31.27410138 323.35177267 C31.26780835 316.55125894 31.26893201 309.7507849 31.27537346 302.95027161 C31.27627511 301.98336738 31.27717677 301.01646316 31.27810575 300.02025881 C31.2799569 298.05617486 31.28181946 296.09209092 31.28369331 294.12800699 C31.30028234 275.69926474 31.29154302 257.27059898 31.27470773 238.84186131 C31.26000804 221.97035009 31.274641 205.09901692 31.30347789 188.22752863 C31.33284794 170.91557324 31.34385128 153.60370009 31.33429569 136.29172087 C31.33327311 134.33475464 31.3322785 132.3777884 31.33131218 130.42082214 C31.33083579 129.45789046 31.3303594 128.49495878 31.32986857 127.50284734 C31.32770137 120.70839433 31.33752469 113.91401892 31.35208321 107.11958313 C31.369571 98.84239085 31.3695404 90.56542567 31.34673155 82.28824246 C31.33555715 78.06287398 31.33249863 73.83790614 31.35103226 69.61255455 C31.36776855 65.74732104 31.36158047 61.88283971 31.33681547 58.01765555 C31.33190905 56.61663985 31.33551053 55.21556427 31.34830291 53.81459838 C31.36439777 51.91546366 31.34690191 50.01613196 31.32758427 48.11702728 C31.32731458 47.06053529 31.32704489 46.0040433 31.32676703 44.9155364 C30.47632987 41.20437509 28.83509683 40.22172959 25.70117188 38.18554688 C4.2804675 27.47519469 -18.93188001 34.53715029 -34.08398438 52.27539062 Z M61.70117188 41.18554688 C61.10359725 43.89924772 61.10359725 43.89924772 61.20898056 47.05200481 C61.20101637 48.2841332 61.19305217 49.51626159 61.18484664 50.7857272 C61.19625955 52.1603517 61.20804196 53.53497316 61.22015381 54.90959167 C61.21841048 56.36411362 61.21490997 57.81863435 61.20979714 59.27314836 C61.20082626 63.27988413 61.21688941 67.28619458 61.23690939 71.29287612 C61.25413982 75.60983727 61.24834082 79.92677331 61.24530029 84.24375916 C61.24320013 91.72646481 61.25577887 99.20903125 61.27825165 106.69170189 C61.31072257 117.51044155 61.32117363 128.3291137 61.32620361 139.1478968 C61.33496398 156.69946614 61.36159967 174.25096123 61.39941406 191.80249023 C61.43611496 208.8548953 61.46443612 225.90728022 61.48144531 242.9597168 C61.48249621 244.01035107 61.4835471 245.06098534 61.48462984 246.14345702 C61.48984989 251.41403807 61.49490474 256.68461926 61.49987745 261.95520055 C61.54136259 305.69870076 61.61183119 349.44211999 61.70117188 393.18554688 C62.94852755 393.83647277 64.19919019 394.48106357 65.45117188 395.12304688 C66.14726562 395.48269531 66.84335937 395.84234375 67.56054688 396.21289062 C76.21058983 400.14329336 85.72005826 398.67846448 94.32617188 395.45117188 C96.96624477 394.04429093 98.69948897 392.39110489 100.70117188 390.18554688 C99.84394531 389.55648438 98.98671875 388.92742187 98.10351562 388.27929688 C80.55493387 375.21851551 80.55493387 375.21851551 78.70117188 367.18554688 C78.22420302 361.93888944 78.83883894 358.62709798 81.70117188 354.18554688 C85.38107348 350.78163789 87.96645805 349.31646867 93.01367188 348.93554688 C99.17831786 349.35348898 102.36003077 351.70989512 106.51367188 356.06054688 C113.88827954 363.71662811 122.41504285 367.2005415 133.01367188 367.49804688 C143.60075988 367.2797564 150.9959428 364.53583257 158.70117188 357.18554688 C165.49101795 350.03276917 168.8512466 341.51844698 169.20117188 331.68554688 C168.81510208 321.17448523 165.01825188 312.70971405 157.70117188 305.18554688 C155.17262325 303.06049005 152.60732053 301.04902137 149.93554688 299.10742188 C146.8798214 296.47907059 145.03851964 293.93306906 144.26757812 289.93945312 C144.25794125 284.53316499 144.98880448 281.38638366 148.70117188 277.18554688 C152.67198058 273.67646011 155.98590987 272.37056071 161.20117188 272.59960938 C168.79391195 274.37915783 177.83317698 281.10416952 182.32617188 287.49804688 C182.77992188 288.05492187 183.23367188 288.61179687 183.70117188 289.18554688 C185.02117187 289.18554688 186.34117187 289.18554688 187.70117188 289.18554688 C187.70117188 288.52554688 187.70117188 287.86554688 187.70117188 287.18554688 C188.36117187 287.18554688 189.02117187 287.18554688 189.70117188 287.18554688 C199.63852195 275.68171797 202.55969663 263.1256523 201.88037109 248.25146484 C201.08268356 239.05523604 197.23411557 231.39053399 191.70117188 224.18554688 C191.12367188 223.31929687 190.54617188 222.45304688 189.95117188 221.56054688 C180.6026529 211.69266573 168.37951943 206.65633781 154.94726562 206.18554688 C153.87605469 206.18554688 152.80484375 206.18554688 151.70117188 206.18554688 C150.88777344 206.18554688 150.074375 206.18554688 149.23632812 206.18554688 C139.31999399 206.7593673 130.03709645 211.72440828 122.70117188 218.18554688 C121.68410156 219.04599609 121.68410156 219.04599609 120.64648438 219.92382812 C109.6206312 229.97191696 106.96912594 242.75802902 105.36132812 256.91601562 C104.49936022 261.18505192 103.3228218 264.06044867 99.68554688 266.58398438 C94.62508584 268.79572434 91.19896739 269.84525873 85.70117188 268.18554688 C81.28211009 265.80605207 78.8801484 263.6883452 76.70117188 259.18554688 C74.40928698 240.33367013 80.95998664 220.54146443 92.54882812 205.70507812 C106.45701046 189.42417503 124.34682071 178.16718191 146.00585938 176.34570312 C163.47337974 175.307778 178.23128574 178.53038612 193.59960938 186.75976562 C196.73797134 188.46399949 196.73797134 188.46399949 200.70117188 188.18554688 C210.41975488 170.1637085 213.66787152 151.40162762 208.15039062 131.46289062 C202.64892006 113.99442689 190.32088258 100.35083167 174.70117188 91.18554688 C162.26425252 85.00486642 150.24301806 81.97037472 136.70117188 86.18554688 C127.09222931 89.70327151 120.35333917 96.66613682 115.04101562 105.20117188 C112.56873294 108.86274506 109.83746282 110.80678323 105.70117188 112.18554688 C100.21273608 112.8312452 96.87518469 111.80338197 92.43945312 108.72851562 C89.0718519 105.73929656 87.92027368 102.54648063 87.50976562 98.12304688 C87.84476311 87.08783574 97.16478076 77.43637457 104.70117188 70.18554688 C111.61782838 64.36585592 119.43561961 60.7223741 127.70117188 57.18554688 C126.41707526 49.87107251 119.51541517 44.59574251 113.73632812 40.49804688 C99.37404482 31.23561465 75.24333092 28.15660261 61.70117188 41.18554688 Z M242.70117188 155.18554688 C242.63913574 156.06235107 242.57709961 156.93915527 242.51318359 157.8425293 C242.4282666 159.00115479 242.34334961 160.15978027 242.25585938 161.35351562 C242.17319824 162.49844482 242.09053711 163.64337402 242.00537109 164.82299805 C241.32058567 172.39246 239.53956057 179.16724248 236.70117188 186.18554688 C236.19969421 187.58085001 235.69968699 188.97668253 235.20117188 190.37304688 C234.02203375 193.55484817 232.44738789 196.27518685 230.70117188 199.18554688 C230.70117188 200.17554688 230.70117188 201.16554688 230.70117188 202.18554688 C230.04117187 202.18554688 229.38117188 202.18554688 228.70117188 202.18554688 C227.88550014 203.62124953 227.07375095 205.05918121 226.26367188 206.49804688 C225.58498047 207.69880859 225.58498047 207.69880859 224.89257812 208.92382812 C223.5902664 211.24766117 223.5902664 211.24766117 222.70117188 214.18554688 C223.36117188 214.18554688 224.02117187 214.18554688 224.70117188 214.18554688 C224.70117188 215.17554688 224.70117188 216.16554688 224.70117188 217.18554688 C225.36117188 217.18554688 226.02117187 217.18554688 226.70117188 217.18554688 C226.70117188 218.50554687 226.70117188 219.82554687 226.70117188 221.18554688 C227.36117188 221.18554688 228.02117187 221.18554688 228.70117188 221.18554688 C228.82492187 222.05179687 228.94867188 222.91804688 229.07617188 223.81054688 C229.6047558 227.12022223 229.6047558 227.12022223 230.63867188 229.93554688 C233.39141591 238.3557051 233.99574389 246.42869381 233.88867188 255.24804688 C233.88802734 256.29154297 233.88738281 257.33503906 233.88671875 258.41015625 C233.84195558 266.04476317 233.84195558 266.04476317 232.70117188 267.18554688 C232.34908207 268.67675076 232.04491716 270.1793738 231.76367188 271.68554688 C230.83291372 276.5422849 229.79036984 281.36195587 228.70117188 286.18554688 C228.04117187 286.18554688 227.38117188 286.18554688 226.70117188 286.18554688 C225.4445221 289.09154949 224.70117188 290.98159272 224.70117188 294.18554688 C224.04117187 294.18554688 223.38117188 294.18554688 222.70117188 294.18554688 C222.37503906 294.80042969 222.04890625 295.4153125 221.71289062 296.04882812 C221.27589844 296.85707031 220.83890625 297.6653125 220.38867188 298.49804688 C219.95941406 299.29855469 219.53015625 300.0990625 219.08789062 300.92382812 C217.79758725 303.02829476 216.4304566 304.45626215 214.70117188 306.18554688 C214.70117188 306.84554687 214.70117188 307.50554687 214.70117188 308.18554688 C214.06179688 308.45367187 213.42242187 308.72179687 212.76367188 308.99804688 C210.36985501 310.0722244 210.36985501 310.0722244 209.70117188 313.18554688 C207.82617188 314.24804688 207.82617188 314.24804688 205.70117188 315.18554688 C204.71117187 315.84554687 203.72117187 316.50554687 202.70117188 317.18554688 C202.70117188 317.84554687 202.70117188 318.50554687 202.70117188 319.18554688 C201.71117187 319.51554688 200.72117187 319.84554687 199.70117188 320.18554688 C199.9409375 321.23935547 199.9409375 321.23935547 200.18554688 322.31445312 C203.09967897 338.54087047 198.30734456 356.47094148 189.28320312 370.10742188 C184.45942855 376.44383688 179.56095551 382.10642554 172.70117188 386.18554688 C172.70117188 386.84554687 172.70117188 387.50554687 172.70117188 388.18554688 C169.73117187 389.17554688 169.73117187 389.17554688 166.70117188 390.18554688 C166.70117188 390.84554687 166.70117188 391.50554687 166.70117188 392.18554688 C166.14171875 392.31058594 165.58226562 392.435625 165.00585938 392.56445312 C162.51382211 393.23603605 160.21992278 394.15899826 157.82617188 395.12304688 C152.2172173 397.23394376 146.81895848 397.92328632 140.86523438 398.40039062 C135.50708259 399.73000607 132.8289275 403.94923826 129.45117188 408.06054688 C122.84384493 415.63618897 114.76546703 420.94086345 105.70117188 425.18554688 C104.81816406 425.60191406 103.93515625 426.01828125 103.02539062 426.44726562 C89.11306114 431.81264303 70.04703362 431.48070895 56.11914062 426.35351562 C53.70117188 425.18554688 53.70117188 425.18554688 51.18945312 423.54882812 C48.31949365 421.97643274 46.92435616 421.75645423 43.70117188 422.18554688 C41.00361979 423.18163437 41.00361979 423.18163437 38.32617188 424.56054688 C24.85746946 431.19786132 6.80853593 431.75567704 -7.61132812 427.62304688 C-13.1966355 425.49894913 -18.43748694 422.63205828 -23.61914062 419.67382812 C-26.27492389 418.09120002 -26.27492389 418.09120002 -29.29882812 417.18554688 C-29.29882812 416.52554687 -29.29882812 415.86554688 -29.29882812 415.18554688 C-30.47445312 414.81429687 -30.47445312 414.81429687 -31.67382812 414.43554688 C-34.78808019 412.9525697 -34.86957722 412.18534345 -36.29882812 409.18554688 C-37.28043412 407.90451199 -38.30227162 406.65333175 -39.36132812 405.43554688 C-40.15216797 404.51515625 -40.15216797 404.51515625 -40.95898438 403.57617188 C-41.40113281 403.11726562 -41.84328125 402.65835938 -42.29882812 402.18554688 C-42.62882812 402.18554688 -42.95882812 402.18554688 -43.29882812 402.18554688 C-43.29882812 495.24554687 -43.29882812 588.30554688 -43.29882812 684.18554688 C-4.02882812 684.18554688 35.24117188 684.18554688 75.70117188 684.18554688 C75.99024033 651.02262534 75.99024033 651.02262534 76.26928711 617.85961914 C76.32824707 611.42565918 76.32824707 611.42565918 76.35707092 608.40757751 C76.37621188 606.31298774 76.39355269 604.21838102 76.40943909 602.12376404 C76.43394847 598.93930667 76.46428429 595.75495089 76.49584961 592.57055664 C76.50161986 591.64736665 76.50739012 590.72417665 76.51333523 589.77301121 C76.57629461 584.17635649 76.9985861 578.73931283 77.70117188 573.18554688 C78.36117187 573.18554688 79.02117187 573.18554688 79.70117188 573.18554688 C80.72729136 571.53483292 81.72425331 569.86584681 82.70117188 568.18554688 C86.8499668 563.52557813 91.92636653 561.49222889 98.0786438 560.81225586 C102.11611075 560.65730019 106.13437027 560.62839107 110.17382812 560.65429688 C111.66637931 560.65159651 113.15892878 560.64770958 114.651474 560.6427002 C117.76562399 560.63683244 120.87931227 560.64528022 123.9934082 560.6640625 C127.96668963 560.68687112 131.93889114 560.67370067 135.91213322 560.64977264 C138.98957833 560.63525719 142.06677108 560.63994638 145.14422417 560.65028381 C146.60851612 560.65293425 148.07283169 560.64974117 149.53709602 560.6403656 C157.50451352 560.60052676 163.84219708 560.75360997 170.70117188 565.18554688 C171.60867188 565.76304687 172.51617187 566.34054687 173.45117188 566.93554688 C178.65545999 572.13983499 180.15199606 577.74527354 180.26231384 584.9712677 C180.25728348 585.94303452 180.25225311 586.91480133 180.24707031 587.91601562 C180.26257683 589.48321602 180.26257683 589.48321602 180.27839661 591.08207703 C180.30773716 594.51255926 180.30932198 597.94244923 180.31054688 601.37304688 C180.32553435 603.76059081 180.34226269 606.14812441 180.36065674 608.53564453 C180.40427822 614.80243415 180.42431803 621.0690839 180.43939209 627.33599854 C180.45898174 633.73775484 180.50094977 640.13936052 180.54101562 646.54101562 C180.61626159 659.08914619 180.66658723 671.63724295 180.70117188 684.18554688 C186.97117187 684.18554688 193.24117187 684.18554688 199.70117188 684.18554688 C199.7048175 681.15898926 199.70846313 678.13243164 199.71221924 675.01416016 C199.74750688 647.25063392 199.80254818 619.48721743 199.87909283 591.72377783 C199.88911011 588.0839187 199.89895427 584.44405911 199.90869141 580.80419922 C199.91160347 579.71726786 199.91160347 579.71726786 199.91457435 578.60837829 C199.94558307 566.88027513 199.96257185 555.15219153 199.9743661 543.4240551 C199.98678352 531.38706861 200.01429822 519.35018468 200.05578494 507.31326294 C200.07865137 500.55347748 200.09457402 493.79382445 200.09305573 487.03399658 C200.09231091 480.67118151 200.11019074 474.30869037 200.14233971 467.94595909 C200.15085685 465.61112635 200.15257638 463.27625735 200.14697456 460.94141579 C200.1403408 457.75149931 200.15824173 454.56261528 200.18218994 451.37280273 C200.17442952 450.45060503 200.16666911 449.52840733 200.15867352 448.57826424 C200.24991395 441.70475182 201.91267264 436.4169621 206.44726562 431.16210938 C207.00542969 430.71609375 207.56359375 430.27007813 208.13867188 429.81054688 C208.69425781 429.3490625 209.24984375 428.88757813 209.82226562 428.41210938 C214.37521332 425.43991483 218.3016274 424.93104252 223.69116211 424.91088867 C224.71655594 424.90322227 224.71655594 424.90322227 225.76266479 424.895401 C228.01178864 424.88155461 230.26060435 424.88245794 232.50976562 424.88476562 C234.08008436 424.88087605 235.65040205 424.87654084 237.22071838 424.8717804 C240.5082643 424.86432891 243.79570281 424.86460172 247.08325195 424.86987305 C251.28757012 424.8756672 255.49144767 424.85873308 259.69569302 424.83552837 C262.93771416 424.82076746 266.17962975 424.81992251 269.42167854 424.8230381 C270.97136368 424.8225261 272.52105491 424.81731121 274.07070732 424.80722618 C276.24135519 424.79483243 278.41115196 424.80167003 280.58178711 424.81323242 C281.81468979 424.812603 283.04759247 424.81197357 284.31785583 424.81132507 C288.04173269 425.22321562 290.4447575 426.39122713 293.70117188 428.18554688 C294.36117188 428.18554688 295.02117187 428.18554688 295.70117188 428.18554688 C295.70117188 428.84554688 295.70117188 429.50554687 295.70117188 430.18554688 C297.53450521 432.35221354 297.53450521 432.35221354 299.70117188 434.18554688 C300.36117188 434.18554688 301.02117187 434.18554688 301.70117188 434.18554688 C303.36764345 440.73295866 303.99395184 446.67670459 303.97964478 453.41712952 C303.98543718 454.40895546 303.99122958 455.4007814 303.99719751 456.42266268 C304.01411775 459.72524943 304.01706714 463.02769577 304.02001953 466.33032227 C304.0293232 468.70600728 304.03949253 471.08168903 304.05046082 473.45736694 C304.07772527 479.89257227 304.09289976 486.32775574 304.10588884 492.76300359 C304.11900718 498.81119098 304.14308071 504.8593389 304.1661592 510.90749484 C304.21155694 522.88191506 304.24820065 534.85634527 304.27929688 546.83081055 C304.30951123 558.45843253 304.3438747 570.08603014 304.38378906 581.71362305 C304.38748139 582.78987518 304.38748139 582.78987518 304.3912483 583.88786978 C304.40362346 587.48759548 304.41607989 591.08732089 304.42857671 594.68704617 C304.53203935 624.51984645 304.62073458 654.35267506 304.70117188 684.18554688 C310.97117187 684.18554688 317.24117187 684.18554688 323.70117188 684.18554688 C323.7048175 681.86864838 323.70846313 679.55174988 323.71221924 677.16464233 C323.74842668 655.35709683 323.80660042 633.54968925 323.88507462 611.74225426 C323.92489182 600.53015272 323.95727071 589.31812165 323.97216797 578.10595703 C323.98517056 568.33395983 324.01209965 558.5621175 324.05578494 548.79020751 C324.07843102 543.61554887 324.09408067 538.44108146 324.09305573 533.26636887 C324.09231098 528.39568882 324.11018733 523.52543201 324.14233971 518.65486145 C324.15085784 516.86746271 324.15257568 515.08001661 324.14697456 513.29260635 C324.14034179 510.85069356 324.15823654 508.4101302 324.18218994 505.96835327 C324.17054932 504.90899427 324.17054932 504.90899427 324.15867352 503.82823408 C324.24554802 498.82064558 325.73364265 496.13395406 328.70117188 492.18554688 C329.03117187 491.19554687 329.36117188 490.20554687 329.70117188 489.18554688 C330.36117188 489.18554688 331.02117187 489.18554688 331.70117188 489.18554688 C331.70117188 488.52554687 331.70117188 487.86554688 331.70117188 487.18554688 C333.15523437 486.72148438 333.15523437 486.72148438 334.63867188 486.24804688 C337.54182979 485.49031346 337.54182979 485.49031346 338.70117188 484.18554688 C340.97484963 484.07528211 343.25200195 484.03639487 345.52832031 484.02441406 C346.2421991 484.01944916 346.95607788 484.01448425 347.69158936 484.0093689 C350.06458485 483.99470782 352.43751343 483.98793755 354.81054688 483.98242188 C356.45623782 483.97667213 358.10192874 483.97091438 359.74761963 483.96514893 C363.20447096 483.95462667 366.66129896 483.94879254 370.11816406 483.9453125 C374.54461837 483.93983572 378.97076383 483.91583054 383.39712143 483.88734055 C386.79950859 483.86869835 390.20182176 483.86350765 393.60425568 483.86197662 C395.23571708 483.85895137 396.86717723 483.85092711 398.49858856 483.83779144 C400.78477771 483.82070314 403.0702179 483.82261803 405.35644531 483.82910156 C406.6569281 483.82545593 407.95741089 483.8218103 409.29730225 483.8180542 C412.92375059 484.20957719 414.72950214 485.15812568 417.70117188 487.18554688 C418.36117188 487.18554688 419.02117187 487.18554688 419.70117188 487.18554688 C419.70117188 487.84554688 419.70117188 488.50554687 419.70117188 489.18554688 C420.36117188 489.18554688 421.02117187 489.18554688 421.70117188 489.18554688 C421.70117188 489.84554688 421.70117188 490.50554687 421.70117188 491.18554688 C422.36117188 491.18554688 423.02117187 491.18554688 423.70117188 491.18554688 C424.16523437 492.63960937 424.16523437 492.63960937 424.63867188 494.12304688 C425.39640529 497.02620479 425.39640529 497.02620479 426.70117188 498.18554688 C426.81121439 500.58842369 426.85612825 502.96318143 426.85939026 505.36708069 C426.86432824 506.12747585 426.86926621 506.88787102 426.87435383 507.67130846 C426.88980482 510.23863365 426.89810988 512.80593371 426.90649414 515.37329102 C426.9160667 517.20592981 426.92607641 519.03856637 426.93649292 520.87120056 C426.96361547 525.86270344 426.9845851 530.85421584 427.00449491 535.845752 C427.02630929 541.05615697 427.05372015 546.26653233 427.08055115 551.47691345 C427.13053974 561.35083566 427.17545561 571.22477425 427.21857351 581.0987286 C427.26789331 592.3367679 427.32283087 603.57477752 427.3782531 614.81278813 C427.49216777 637.93701356 427.59878677 661.06126777 427.70117188 684.18554688 C433.97117187 684.18554688 440.24117187 684.18554688 446.70117188 684.18554688 C446.70540381 682.69041974 446.70963575 681.19529261 446.71399593 679.65485859 C446.81463072 644.1784993 446.9203322 608.7021583 447.03228882 573.22583287 C447.0460587 568.86108596 447.05978575 564.49633892 447.07348633 560.1315918 C447.07621463 559.26263445 447.07894294 558.3936771 447.08175392 557.49838772 C447.1258514 543.42091151 447.16647732 529.34342732 447.20582449 515.26593713 C447.2462633 500.82547227 447.29042302 486.38502226 447.33805043 471.9445793 C447.36733088 463.03117759 447.39369502 454.11777698 447.41635085 445.20435592 C447.43215607 439.09543934 447.45156943 432.98654092 447.47384029 426.87764452 C447.48658986 423.35103701 447.49772924 419.82444343 447.50459099 416.29781914 C447.5120674 412.47662219 447.52713169 408.65547682 447.54295349 404.83430481 C447.5439316 403.71660306 447.5449097 402.59890132 447.54591745 401.44732982 C447.5513919 400.42370646 447.55686634 399.40008311 447.56250668 398.34544086 C447.56649374 397.02230537 447.56649374 397.02230537 447.57056135 395.67243987 C447.70601123 393.09340308 448.13337711 390.70191722 448.70117188 388.18554688 C449.36117188 388.18554688 450.02117187 388.18554688 450.70117188 388.18554688 C451.13429688 387.44304687 451.56742188 386.70054687 452.01367188 385.93554688 C454.57941179 381.75434108 458.1595751 378.99343695 462.70117188 377.18554688 C465.89299011 376.90466309 465.89299011 376.90466309 469.71362305 376.86328125 C470.41176117 376.85335144 471.10989929 376.84342163 471.82919312 376.83319092 C474.13421614 376.80403283 476.43896361 376.79035621 478.74414062 376.77929688 C480.35354107 376.76778385 481.9629415 376.75626851 483.57234192 376.74475098 C486.94741081 376.7237531 490.32238478 376.71205444 493.69750977 376.70507812 C498.00395805 376.69413365 502.30913353 376.64612794 506.61518383 376.58913422 C509.94140674 376.55171375 513.26732874 376.5414614 516.59374428 376.53840637 C518.18008672 376.53238621 519.76642595 376.51644056 521.35256004 376.49003601 C529.52407809 376.36375244 536.30208995 376.2706963 543.03291321 381.56652832 C549.56283395 387.90371275 551.74588069 394.58072236 551.94726753 403.6364975 C551.95561941 405.75939906 551.95303215 407.88236138 551.94168091 410.00524902 C551.94424418 411.76734608 551.94424418 411.76734608 551.94685924 413.56504107 C551.94957435 416.8078766 551.94336033 420.05055047 551.93330312 423.29336691 C551.92463827 426.79700798 551.92759092 430.30064199 551.92910767 433.80429077 C551.9301546 439.8686856 551.92389804 445.93303728 551.91263199 451.99742126 C551.89635397 460.76541543 551.89116663 469.5333888 551.88865601 478.30139643 C551.88428251 492.52809121 551.8709828 506.75476301 551.85205078 520.98144531 C551.83368303 534.79850144 551.81953091 548.61555131 551.81103516 562.43261719 C551.81024699 563.71088561 551.81024699 563.71088561 551.80944289 565.01497763 C551.80683275 569.2902569 551.80430535 573.56553621 551.80181909 577.84081554 C551.78109736 613.28907586 551.74573221 648.73730887 551.70117188 684.18554688 C557.97117187 684.18554688 564.24117187 684.18554688 570.70117188 684.18554688 C570.70079485 682.14781129 570.70041782 680.1100757 570.70002937 678.01059055 C570.69201085 629.64660791 570.71566799 581.28271995 570.77696217 532.91877354 C570.78447828 526.96692677 570.79173375 521.01507971 570.79882812 515.06323242 C570.80024488 513.87831915 570.80166163 512.69340588 570.80312131 511.47258615 C570.82544414 492.28276765 570.82664955 473.09300292 570.82006051 453.90317506 C570.81377 434.21487646 570.83015053 414.526691 570.86760795 394.83842653 C570.89000863 382.68816965 570.89469352 370.53817046 570.87676851 358.38790505 C570.86617262 350.0577356 570.87758397 341.72777803 570.9063334 333.39765216 C570.92227353 328.59041051 570.92847931 323.78367286 570.90856361 318.97643471 C570.89053699 314.57346204 570.90020369 310.17144235 570.93171071 305.76855355 C570.938241 304.17756458 570.93468947 302.58649481 570.91991796 300.99556101 C570.84290317 292.03669353 571.190895 284.94368384 577.70117188 278.18554688 C583.41967359 273.53926423 589.00025327 271.94416719 596.2980957 271.89501953 C597.58996292 271.88225983 598.88183014 271.86950012 600.21284485 271.85635376 C601.61129607 271.85329552 603.00974932 271.85106807 604.40820312 271.84960938 C605.85780465 271.84317359 607.30740491 271.83644466 608.75700378 271.82943726 C611.79058846 271.81749053 614.82405949 271.81375368 617.85766602 271.81494141 C621.72437056 271.81514433 625.59033799 271.78785844 629.45686817 271.75339699 C632.45024389 271.73103971 635.44344475 271.72710656 638.43689537 271.72816086 C639.86131006 271.72581753 641.28573051 271.7170663 642.71006203 271.70149612 C652.533413 271.60417056 659.27391478 272.68798119 667.51367188 277.99804688 C673.8149238 284.2992988 674.21429669 289.84064232 674.24367023 298.4798426 C674.23618838 300.0195581 674.22833634 301.55927183 674.22015381 303.09898376 C674.22603112 304.74257785 674.23365924 306.38616646 674.24288487 308.02974516 C674.26314591 312.54045109 674.25859102 317.05084252 674.24997735 321.56157315 C674.24503444 326.42792568 674.26311503 331.29419903 674.27839661 336.16052246 C674.30171712 344.58984627 674.31045678 353.01908403 674.30928802 361.44843864 C674.30761929 373.63584379 674.32794838 385.82313418 674.35364333 398.01050872 C674.39473454 417.78377431 674.41803984 437.55701927 674.43017578 457.33032227 C674.44200263 476.53802473 674.46219623 495.74568835 674.49365234 514.95336914 C674.49558845 516.13736732 674.49752455 517.3213655 674.49951932 518.54124241 C674.50928384 524.48102449 674.51921296 530.42080628 674.52922392 536.36058795 C674.61205945 585.6355681 674.66276293 634.91050815 674.70117188 684.18554688 C714.30117188 684.18554688 753.90117188 684.18554688 794.70117188 684.18554688 C794.7754682 612.48674044 794.7754682 612.48674044 794.82820129 540.78791809 C794.82861547 540.08033873 794.82902964 539.37275938 794.82945636 538.64373822 C794.83843533 523.26568701 794.84674584 507.88763549 794.85436786 492.50958354 C794.85810983 484.96805889 794.8619995 477.42653431 794.8659668 469.88500977 C794.86635907 469.13454224 794.86675135 468.38407472 794.86715552 467.61086575 C794.8799368 443.29133198 794.90246868 418.97181915 794.93006354 394.65229805 C794.95837214 369.65831785 794.97683072 344.66434923 794.98291685 319.67035327 C794.98378129 316.13915081 794.9847582 312.60794839 794.9858036 309.07674599 C794.98600587 308.38176295 794.98620814 307.68677991 794.98641654 306.97073678 C794.98996003 295.7888595 795.00386972 284.60701805 795.02166798 273.42515537 C795.03934482 262.1803166 795.04582937 250.93551262 795.04167601 239.69065704 C795.03975287 233.59927657 795.04271943 227.50800116 795.0587883 221.41663933 C795.07339659 215.83821642 795.07411804 210.25996916 795.06386856 204.68153814 C795.06260194 202.6652015 795.06639948 200.64885385 795.07582142 198.63253882 C795.49284533 180.28383738 795.49284533 180.28383738 787.70117188 164.18554688 C787.04117188 164.18554688 786.38117187 164.18554688 785.70117188 164.18554688 C785.70117188 163.52554688 785.70117188 162.86554688 785.70117188 162.18554688 C783.66398806 160.61673523 783.66398806 160.61673523 781.07617188 159.12304688 C779.78839844 158.33220703 779.78839844 158.33220703 778.47460938 157.52539062 C772.82837829 154.79770434 766.86976163 155.04306787 760.73253059 155.06249905 C759.8358346 155.0613452 758.9391386 155.06019136 758.01526999 155.05900255 C755.00105699 155.05634901 751.98689706 155.06084769 748.97268677 155.06529236 C746.79373852 155.0648564 744.61479032 155.06398104 742.43584239 155.06270319 C736.44076242 155.0604631 730.44570026 155.06447293 724.45062256 155.06948125 C717.98849996 155.07379249 711.52637839 155.07233885 705.06425476 155.07157898 C693.86568091 155.07088128 682.66711252 155.07416161 671.46854019 155.07981682 C659.72302345 155.08573303 647.97750903 155.0895826 636.23199081 155.09066963 C635.5017985 155.09073837 634.77160618 155.09080711 634.01928683 155.09087793 C630.31103691 155.09121627 626.602787 155.09151765 622.89453708 155.09180481 C596.62630439 155.09390544 570.35807473 155.10064342 544.08984375 155.11010742 C518.56998714 155.11929119 493.05013137 155.12637513 467.53027344 155.13061523 C466.35040597 155.13081252 466.35040597 155.13081252 465.14670281 155.1310138 C457.24758877 155.13233231 449.34847473 155.13360813 441.44936068 155.13485266 C425.3578318 155.1373889 409.26630297 155.14021015 393.17477417 155.14320374 C392.06497079 155.14340967 392.06497079 155.14340967 390.93274713 155.14361977 C341.52222076 155.15282105 292.11169616 155.16868711 242.70117188 155.18554688 Z M603.70117188 304.18554688 C602.59293513 307.51025712 602.58330606 309.95525446 602.59374142 313.45805645 C602.59427595 314.09972324 602.59481048 314.74139002 602.5953612 315.40250126 C602.59840577 317.56725704 602.6086808 319.73191917 602.61888123 321.89665222 C602.62257361 323.45841497 602.62582324 325.02017881 602.62866646 326.58194333 C602.63778919 330.88498163 602.65322173 335.18797809 602.66964924 339.49099386 C602.68625476 344.12696664 602.69705883 348.76295328 602.70855713 353.39894104 C602.72928704 361.43490481 602.75371631 369.47085056 602.78063774 377.50679588 C602.81955659 389.12551334 602.85292806 400.74424149 602.884933 412.36297981 C602.93700649 431.21229545 602.99358441 450.06159478 603.05297852 468.91088867 C603.11067463 487.22435877 603.16625959 505.53783327 603.21899414 523.85131836 C603.22224386 524.97961452 603.22549358 526.10791068 603.22884177 527.27039763 C603.24513113 532.93056456 603.26137886 538.59073161 603.27760589 544.25089872 C603.41234084 591.22913489 603.55437908 638.20734694 603.70117188 685.18554688 C609.09464176 685.21019537 614.48807913 685.22838218 619.8815918 685.24047852 C621.71786062 685.24551919 623.55412542 685.25235164 625.39038086 685.26098633 C628.02393589 685.2730636 630.65743804 685.27877769 633.29101562 685.28320312 C634.53007912 685.29094505 634.53007912 685.29094505 635.79417419 685.29884338 C637.76353555 685.29903892 639.73278801 685.24758839 641.70117188 685.18554688 C643.51208672 683.37463203 642.82666907 680.58341783 642.82701302 678.1463089 C642.82846646 677.50556102 642.8299199 676.86481315 642.83141738 676.20464867 C642.83510269 674.03098126 642.83157935 671.85738287 642.82815552 669.68371582 C642.82930634 668.12026575 642.8308936 666.55681595 642.83288276 664.99336672 C642.83708145 660.67635294 642.83498298 656.35936108 642.83189654 652.04234719 C642.82964484 647.39472058 642.8331209 642.74709789 642.83587646 638.09947205 C642.84033563 628.98656928 642.83935705 619.87367473 642.83646382 610.76077163 C642.83421036 603.35805625 642.83389702 595.95534319 642.83498764 588.55262756 C642.83521749 586.97547102 642.83521749 586.97547102 642.83545198 585.36645272 C642.83577169 583.23083699 642.8360959 581.09522125 642.83642457 578.95960552 C642.8392798 558.90860267 642.83599168 538.85760439 642.83062421 518.8066023 C642.82615613 501.58184065 642.82693205 484.35708574 642.83154297 467.13232422 C642.83688799 447.15570003 642.8390051 427.17907985 642.83593071 407.20245504 C642.83561214 405.07445876 642.83529777 402.94646247 642.83498764 400.81846619 C642.83483336 399.7713041 642.83467909 398.724142 642.83452014 397.64524773 C642.83365477 390.24681966 642.83511829 382.84839411 642.83746719 375.44996643 C642.84026459 366.44036911 642.83952821 357.4307805 642.83418645 348.42118418 C642.83154862 343.81964298 642.83054574 339.21811635 642.8338356 334.61657524 C642.8367969 330.41115814 642.83520857 326.20576922 642.82985805 322.00035471 C642.82873314 320.4721134 642.82932665 318.94386975 642.83173384 317.41562992 C642.83473714 315.35198016 642.83169408 313.28842928 642.82701302 311.22478485 C642.82685066 310.0743946 642.82668831 308.92400435 642.82652104 307.7387538 C642.99087477 305.25138889 642.99087477 305.25138889 641.70117188 304.18554688 C638.88953808 304.09692695 636.10258932 304.07032332 633.29101562 304.08789062 C632.02796349 304.09001305 632.02796349 304.09001305 630.73939514 304.09217834 C628.03911853 304.09779424 625.3389236 304.11034939 622.63867188 304.12304688 C620.81250119 304.12805983 618.98632922 304.13262309 617.16015625 304.13671875 C612.67379645 304.14776883 608.18749803 304.16504408 603.70117188 304.18554688 Z M479.70117188 409.18554688 C479.60355386 410.6545819 479.57561718 412.12830351 479.57533073 413.60057831 C479.57272299 414.55988644 479.57011524 415.51919457 479.56742847 416.50757265 C479.56965919 417.57398847 479.57188991 418.64040429 479.57418823 419.73913574 C479.57262824 420.8622615 479.57106825 421.98538726 479.56946099 423.14254713 C479.56544569 426.93749236 479.56864268 430.73239817 479.57177734 434.52734375 C479.57097405 437.23519474 479.56868014 439.94304401 479.56646729 442.65089417 C479.56200883 449.26119726 479.56298639 455.87148903 479.56587993 462.48179257 C479.56813367 467.85170849 479.56844661 473.22162122 479.56735611 478.59153748 C479.56720288 479.3543376 479.56704964 480.11713773 479.56689177 480.90305302 C479.56657206 482.45242075 479.56624785 484.00178849 479.56591918 485.55115622 C479.56306416 500.0969069 479.56635174 514.64265128 479.57171954 529.18840092 C479.5761876 541.6830582 479.57541167 554.17770618 479.57080078 566.67236328 C479.56545539 581.16426576 479.56333886 595.65616272 479.56641304 610.14806604 C479.56673161 611.69189612 479.56704598 613.2357262 479.56735611 614.77955627 C479.56751039 615.5392509 479.56766466 616.29894552 479.56782361 617.08166119 C479.56868887 622.44827657 479.56722569 627.81488846 479.56487656 633.1815033 C479.56207875 639.71709043 479.56281641 646.25266554 479.5681573 652.78825128 C479.57079458 656.12603274 479.57126519 659.4637774 479.56850815 662.80156136 C479.56579985 666.41171398 479.56917384 670.0218091 479.57418823 673.63195801 C479.57195751 674.69837383 479.56972679 675.76478965 479.56742847 676.8635211 C479.57003622 677.82282923 479.57264396 678.78213737 479.57533073 679.77051544 C479.57549309 680.60497838 479.57565544 681.43944131 479.57582271 682.299191 C479.49400047 684.19793101 479.49400047 684.19793101 480.70117188 685.18554688 C483.42841466 685.28654175 486.12979711 685.32525217 488.85742188 685.31835938 C490.08362244 685.31979446 490.08362244 685.31979446 491.33459473 685.32125854 C493.06632565 685.32194033 494.79805911 685.32008617 496.52978516 685.31591797 C499.1898367 685.31056967 501.84971938 685.315863 504.50976562 685.32226562 C506.18815142 685.32160484 507.8665371 685.32032368 509.54492188 685.31835938 C510.34595337 685.32038361 511.14698486 685.32240784 511.97229004 685.32449341 C515.63699488 685.65768355 515.63699488 685.65768355 518.70117188 684.18554688 C518.79878989 682.71651185 518.82672657 681.24279024 518.82701302 679.77051544 C518.83092464 678.33155324 518.83092464 678.33155324 518.83491528 676.8635211 C518.83268456 675.79710528 518.83045384 674.73068946 518.82815552 673.63195801 C518.82971551 672.50883225 518.8312755 671.38570649 518.83288276 670.22854662 C518.83689806 666.43360139 518.83370107 662.63869558 518.83056641 658.84375 C518.8313697 656.13589901 518.83366361 653.42804974 518.83587646 650.72019958 C518.84033492 644.10989649 518.83935736 637.49960472 518.83646382 630.88930118 C518.83421008 625.51938526 518.83389714 620.14947253 518.83498764 614.77955627 C518.83521749 613.63535608 518.83521749 613.63535608 518.83545198 612.46804073 C518.83577169 610.918673 518.8360959 609.36930526 518.83642457 607.81993753 C518.83927959 593.27418685 518.83599201 578.72844247 518.83062421 564.18269283 C518.82615615 551.68803555 518.82693208 539.19338757 518.83154297 526.69873047 C518.83688836 512.20682799 518.83900489 497.71493103 518.83593071 483.22302771 C518.83561214 481.67919763 518.83529777 480.13536755 518.83498764 478.59153748 C518.83483336 477.83184285 518.83467909 477.07214823 518.83452014 476.28943256 C518.83365488 470.92281718 518.83511806 465.55620529 518.83746719 460.18959045 C518.840265 453.65400332 518.83952734 447.11842821 518.83418645 440.58284247 C518.83154917 437.24506101 518.83107856 433.90731635 518.8338356 430.56953239 C518.8365439 426.95937977 518.83316991 423.34928465 518.82815552 419.73913574 C518.83038624 418.67271992 518.83261696 417.6063041 518.83491528 416.50757265 C518.83230753 415.54826452 518.82969979 414.58895638 518.82701302 413.60057831 C518.82685066 412.76611537 518.82668831 411.93165244 518.82652104 411.07190275 C518.90834328 409.17316274 518.90834328 409.17316274 517.70117188 408.18554688 C514.97392909 408.084552 512.27254664 408.04584158 509.54492188 408.05273438 C508.72745483 408.05177765 507.90998779 408.05082092 507.06774902 408.04983521 C505.3360181 408.04915342 503.60428464 408.05100758 501.87255859 408.05517578 C499.21250705 408.06052408 496.55262437 408.05523075 493.89257812 408.04882812 C492.21419233 408.04948891 490.53580665 408.05077007 488.85742188 408.05273438 C488.05639038 408.05071014 487.25535889 408.04868591 486.43005371 408.04660034 C482.76534887 407.7134102 482.76534887 407.7134102 479.70117188 409.18554688 Z M260.53320312 456.30664062 C259.73839035 456.33025162 258.94357758 456.35386261 258.12467957 456.37818909 C255.58749088 456.45472788 253.05061498 456.53879415 250.51367188 456.62304688 C248.79298403 456.67627737 247.07228094 456.72901771 245.3515625 456.78125 C241.13456777 456.91032977 236.91783802 457.04616079 232.70117188 457.18554688 C232.67838171 486.0869815 232.66067381 514.98841507 232.65010655 543.8898569 C232.64885577 547.29839745 232.64756145 550.70693799 232.64624023 554.11547852 C232.64597792 554.79408576 232.64571561 555.472693 232.64544535 556.1718641 C232.64108862 567.17398606 232.63320106 578.17610282 232.62401908 589.1782217 C232.61468262 600.45913983 232.60919118 611.74005536 232.60708338 623.02097756 C232.60577585 629.36077101 232.60268731 635.70055265 232.59544182 642.04034233 C232.58868554 648.00000316 232.58655411 653.95964723 232.58806419 659.91931152 C232.58778769 662.1135829 232.58578025 664.3078548 232.5819664 666.50212288 C232.57703528 669.48393443 232.57817142 672.46568165 232.58091736 675.44749451 C232.57800452 676.32782693 232.57509168 677.20815935 232.57209057 678.11516851 C232.20296806 681.96009498 232.20296806 681.96009498 233.70117188 685.18554688 C236.42841466 685.28654175 239.12979711 685.32525217 241.85742188 685.31835938 C243.08362244 685.31979446 243.08362244 685.31979446 244.33459473 685.32125854 C246.06632565 685.32194033 247.79805911 685.32008617 249.52978516 685.31591797 C252.1898367 685.31056967 254.84971938 685.315863 257.50976562 685.32226562 C259.18815142 685.32160484 260.8665371 685.32032368 262.54492188 685.31835938 C263.34595337 685.32038361 264.14698486 685.32240784 264.97229004 685.32449341 C268.63699488 685.65768355 268.63699488 685.65768355 271.70117188 684.18554688 C271.79913628 681.26512036 271.83109087 678.36833706 271.82142639 675.44749451 C271.82228082 674.5196737 271.82313524 673.59185289 271.82401556 672.63591629 C271.8256732 669.50196866 271.82014436 666.36807362 271.81469727 663.23413086 C271.81441543 660.99755861 271.81457306 658.76098626 271.81513977 656.52441406 C271.81542788 650.43168435 271.80952895 644.33897413 271.80256581 638.24624896 C271.79633455 631.88674692 271.79572866 625.52724449 271.79454041 619.16773987 C271.7917807 608.4869041 271.78552518 597.80607608 271.77661133 587.12524414 C271.76743792 576.1219893 271.76035674 565.11873641 271.75610352 554.11547852 C271.75584079 553.43769324 271.75557807 552.75990797 271.75530738 552.06158375 C271.75400238 548.66147022 271.75273867 545.26135668 271.75149548 541.86124313 C271.74112201 513.63600604 271.72342882 485.4107769 271.70117188 457.18554688 C267.91553618 455.92366831 264.46434739 456.16896891 260.53320312 456.30664062 Z M356.70117188 515.18554688 C356.70117188 571.28554688 356.70117188 627.38554688 356.70117188 685.18554688 C369.24117187 685.18554688 381.78117188 685.18554688 394.70117188 685.18554688 C396.56697445 683.3197443 395.82739705 680.18190461 395.82815552 677.6940918 C395.82971551 677.00790614 395.8312755 676.32172049 395.83288276 675.61474133 C395.83689489 673.29847805 395.83370231 670.98227947 395.83056641 668.66601562 C395.83192035 667.01233888 395.83370025 665.35866244 395.83587646 663.70498657 C395.84045158 659.20098258 395.83866092 654.69700139 395.83549738 650.19299698 C395.83297418 645.49023627 395.8353112 640.78747758 395.83688354 636.0847168 C395.83870536 628.18570605 395.83629862 620.28670464 395.83154297 612.38769531 C395.82610033 603.24171927 395.82786297 594.09576551 395.83336937 584.94979 C395.83790017 577.11202522 395.83855122 569.27426717 395.83593071 561.4365015 C395.83436774 556.74887285 395.83417468 552.06125469 395.83746719 547.37362671 C395.84034542 542.96767503 395.83837111 538.56175222 395.83257294 534.15580368 C395.83124508 532.53399071 395.83163989 530.91217534 395.8338356 529.29036331 C395.83654611 527.08587616 395.83316724 524.88148302 395.82815552 522.67700195 C395.82777849 521.44033279 395.82740147 520.20366364 395.82701302 518.92951965 C396.01409389 516.27381228 396.01409389 516.27381228 394.70117188 515.18554688 C382.16117188 515.18554688 369.62117187 515.18554688 356.70117188 515.18554688 Z M109.70117188 593.18554688 C109.70117188 623.54554688 109.70117188 653.90554688 109.70117188 685.18554688 C122.24117188 685.18554688 134.78117187 685.18554688 147.70117188 685.18554688 C149.53474632 683.35197243 148.82117154 680.78918992 148.82559204 678.34960938 C148.82199677 677.51163818 148.81840149 676.67366699 148.81469727 675.81030273 C148.81484329 674.93233536 148.81498932 674.05436798 148.81513977 673.14979553 C148.81444032 670.23330253 148.80664643 667.31687254 148.79882812 664.40039062 C148.79696406 662.38399795 148.7955401 660.36760483 148.79454041 658.35121155 C148.79071432 653.0328955 148.78088326 647.71460657 148.76983643 642.39630127 C148.75962425 636.97384 148.7550432 631.55137436 148.75 626.12890625 C148.73926107 615.48110785 148.72218357 604.83332961 148.70117188 594.18554688 C137.06979668 588.36985928 122.70544468 593.18554688 109.70117188 593.18554688 Z M-44.29882812 717.18554688 C-44.93557576 730.45359068 -44.98824405 740.8375036 -36.58007812 751.72851562 C-31.09574021 757.63544807 -23.54684977 760.83293471 -15.53456458 761.37127648 C-12.07461353 761.44398728 -8.61965002 761.45226322 -5.15893841 761.44002247 C-3.80992714 761.44241368 -2.46091718 761.44567975 -1.1119099 761.44973907 C2.60113216 761.45836435 6.31407321 761.45453044 10.02711684 761.44868334 C14.06440591 761.44451629 18.10167643 761.45191315 22.13896102 761.45783585 C29.21693307 761.46660643 36.29487619 761.46790692 43.37285233 761.46433258 C53.89809523 761.45903138 64.42331006 761.46511501 74.94854991 761.47341551 C94.83923145 761.48867015 114.72990027 761.49035907 134.62058643 761.48789249 C149.9788421 761.48606102 165.33709359 761.48781635 180.69534874 761.49211693 C182.90054975 761.49271932 185.10575076 761.49332052 187.31095177 761.49392053 C190.63383771 761.49482777 193.95672366 761.49573643 197.27960961 761.49665288 C228.18150503 761.5050847 259.08339888 761.50941654 289.9852953 761.50524616 C291.15067488 761.50508979 292.31605447 761.50493341 293.51674859 761.5047723 C299.42357402 761.50396649 305.33039944 761.50312072 311.23722485 761.50225899 C312.41037296 761.50208791 313.58352106 761.50191682 314.79221911 761.50174055 C317.16461063 761.50139389 319.53700214 761.50104536 321.90939366 761.50069496 C358.82673087 761.49533733 395.7440442 761.50326844 432.66137695 761.52172852 C474.12325795 761.54243668 515.58512414 761.55317348 557.0470106 761.54915303 C561.46652297 761.54875767 565.88603534 761.54839613 570.30554771 761.54805565 C571.39377056 761.54796492 572.48199341 761.54787419 573.6031927 761.5477807 C590.04328166 761.5466139 606.4833557 761.55326938 622.92344093 761.56386757 C641.61715342 761.57590616 660.310833 761.57749403 679.00454596 761.5650774 C689.46933639 761.55843794 699.93404819 761.56010488 710.39883236 761.57366592 C717.38688575 761.58189249 724.37488006 761.57923623 731.36292863 761.56769065 C735.34590307 761.56141642 739.32872375 761.55987919 743.31168947 761.57155398 C746.93743097 761.58208399 750.56288828 761.57872828 754.18861453 761.56444946 C756.10210531 761.56044775 758.01560977 761.57111043 759.92907128 761.58242652 C771.42032045 761.50995178 780.37492167 759.42952188 788.70117188 751.18554688 C794.77931886 743.63974977 796.02608579 735.77041016 795.88867188 726.31054688 C795.88802734 725.44429687 795.88738281 724.57804688 795.88671875 723.68554688 C796.21852279 719.61135329 796.21852279 719.61135329 794.70117188 716.18554688 C792.87122652 716.08720639 791.03742936 716.0603165 789.20484352 716.06019771 C787.4000515 716.05644243 787.4000515 716.05644243 785.55879903 716.05261129 C784.20371947 716.05488862 782.84864005 716.05725683 781.49356079 716.05970573 C780.06354891 716.05866395 778.63353728 716.05718371 777.20352626 716.05530137 C773.23769319 716.05137526 769.27188418 716.05375393 765.30605146 716.05707932 C761.00527502 716.05959972 756.70450248 716.05636263 752.40372658 716.05383599 C744.85409192 716.05021099 737.3044644 716.05034199 729.75482941 716.05288315 C718.52861711 716.05665162 707.30241089 716.05473921 696.07619864 716.05167484 C676.03106576 716.04639728 655.98593606 716.04687018 635.94080287 716.04975375 C618.39943871 716.0522649 600.85807573 716.05292808 583.31671143 716.05173111 C582.15516669 716.05165472 580.99362195 716.05157834 579.79687889 716.05149964 C575.0823196 716.05118832 570.36776031 716.05086993 565.65320102 716.05053988 C521.38669873 716.0474778 477.12019847 716.0502592 432.8536965 716.05563677 C393.48709866 716.06038272 354.12050406 716.0599581 314.75390625 716.05517578 C270.57067248 716.04982633 226.38744051 716.04769493 182.20420647 716.05078804 C177.49801509 716.05110878 172.79182371 716.05142162 168.08563232 716.05173111 C166.92676614 716.05181019 165.76789997 716.05188926 164.57391663 716.05197074 C147.0394506 716.05311035 129.50498587 716.05177396 111.97052002 716.04925156 C92.0419703 716.04639913 72.11342427 716.04709249 52.18487501 716.0525323 C41.01838618 716.05547945 29.85190533 716.05564469 18.68541671 716.05188613 C11.24090743 716.04965576 3.79640459 716.05101736 -3.64810372 716.05539089 C-7.89923476 716.057786 -12.15034986 716.05854953 -16.40148044 716.05498491 C-20.26003533 716.05178222 -24.11855998 716.05308651 -27.97711262 716.05816557 C-29.37277008 716.05918233 -30.76842998 716.05848187 -32.16408554 716.05595963 C-34.04355483 716.05280103 -35.9230319 716.05628705 -37.80249977 716.06019771 C-38.84781416 716.06026547 -39.89312854 716.06033323 -40.97011912 716.06040304 C-43.25935379 715.92335818 -43.25935379 715.92335818 -44.29882812 717.18554688 Z M214.51698303 801.51370239 C213.393255 804.04885564 212.55434109 806.53458833 211.70117188 809.18554688 C210.90775626 810.70703828 210.0864811 812.21562442 209.20117188 813.68554688 C208.83636719 814.3584375 208.4715625 815.03132812 208.09570312 815.72460938 C206.90196739 817.83120184 205.66617727 819.89543303 204.40039062 821.95898438 C203.98789062 822.63380859 203.57539063 823.30863281 203.15039062 824.00390625 C202.3214644 825.35508165 201.4869841 826.70286836 200.64648438 828.046875 C198.27997754 831.83123824 198.27997754 831.83123824 197.70117188 836.18554688 C197.04117187 836.18554688 196.38117188 836.18554688 195.70117188 836.18554688 C195.30285156 837.00539063 194.90453125 837.82523438 194.49414062 838.66992188 C193.96433594 839.74757813 193.43453125 840.82523438 192.88867188 841.93554688 C192.10556641 843.5365625 192.10556641 843.5365625 191.30664062 845.16992188 C189.70117188 848.18554688 189.70117188 848.18554688 188.00195312 850.38867188 C186.40797672 852.22084691 186.40797672 852.22084691 186.70117188 855.18554688 C186.04117187 855.18554688 185.38117188 855.18554688 184.70117188 855.18554688 C183.88814863 856.64358856 183.07577056 858.10199003 182.26367188 859.56054688 C181.81121094 860.37265625 181.35875 861.18476562 180.89257812 862.02148438 C180.13611827 863.39551309 179.40262557 864.78263949 178.70117188 866.18554688 C308.72117187 866.18554688 438.74117187 866.18554688 572.70117188 866.18554688 C570.72117187 862.88554688 568.74117187 859.58554687 566.70117188 856.18554688 C566.37117188 855.19554687 566.04117187 854.20554687 565.70117188 853.18554688 C565.04117187 853.18554688 564.38117188 853.18554688 563.70117188 853.18554688 C563.59804688 852.64929688 563.49492188 852.11304688 563.38867188 851.56054688 C562.52024491 848.56052644 561.14496891 845.94759338 559.70117188 843.18554688 C559.04117187 843.18554688 558.38117188 843.18554688 557.70117188 843.18554688 C557.58128906 842.610625 557.46140625 842.03570313 557.33789062 841.44335938 C556.66495331 839.05711541 555.74026719 837.21205064 554.51367188 835.06054688 C554.07152344 834.28195312 553.629375 833.50335937 553.17382812 832.70117188 C551.13816 829.22379715 549.04853548 825.78049294 546.93554688 822.34960938 C545.70117188 820.18554687 545.70117188 820.18554687 544.70117188 817.18554688 C544.04117187 817.18554688 543.38117188 817.18554688 542.70117188 817.18554688 C542.59804688 816.64929688 542.49492188 816.11304688 542.38867188 815.56054688 C541.52024491 812.56052644 540.14496891 809.94759338 538.70117188 807.18554688 C538.04117187 807.18554688 537.38117188 807.18554688 536.70117188 807.18554688 C536.70117188 805.86554687 536.70117188 804.54554688 536.70117188 803.18554688 C536.04117187 803.18554688 535.38117188 803.18554688 534.70117188 803.18554688 C534.26804687 801.79335938 534.26804687 801.79335938 533.82617188 800.37304688 C532.81367188 797.08763021 532.81367188 797.08763021 530.70117188 794.18554688 C528.38631498 793.71693707 528.38631498 793.71693707 525.63883114 793.77450371 C524.5605467 793.75928008 523.48226227 793.74405645 522.37130255 793.7283715 C520.57995873 793.72613159 520.57995873 793.72613159 518.75242615 793.72384644 C517.49116616 793.71069967 516.22990617 793.69755291 514.93042618 793.68400776 C511.41784065 793.64805492 507.90537881 793.63115346 504.39264524 793.6174643 C500.60847735 793.59961623 496.82445792 793.56478135 493.04039001 793.53259277 C483.89472318 793.45896696 474.74900709 793.41512785 465.60313496 793.37641257 C463.02022448 793.36527946 460.43731889 793.35335951 457.85441327 793.34115458 C441.81841644 793.26543802 425.78241209 793.1992718 409.7462759 793.16197014 C406.0303132 793.15318086 402.31435076 793.14429591 398.59838867 793.13525391 C397.67478989 793.13301575 396.75119111 793.1307776 395.79960448 793.12847163 C380.8417458 793.09052034 365.8849578 792.99087101 350.92759954 792.86584841 C335.57400708 792.73856543 320.22096244 792.66788226 304.86684376 792.65220845 C296.24461477 792.64196714 287.62405772 792.60672682 279.00234795 792.50790024 C271.65804937 792.42385498 264.3157647 792.39091326 256.9710226 792.42448662 C253.22356625 792.44004378 249.4803247 792.43146197 245.73348236 792.35709 C227.48862263 791.02984442 227.48862263 791.02984442 214.51698303 801.51370239 Z " fill="#3DA2DB" transform="translate(201.298828125,89.814453125)"/>
<path d="M0 0 C1.77600586 0.06574219 1.77600586 0.06574219 3.58789062 0.1328125 C4.81572266 0.184375 6.04355469 0.2359375 7.30859375 0.2890625 C8.54029297 0.33289063 9.77199219 0.37671875 11.04101562 0.421875 C20.33193579 0.78642337 20.33193579 0.78642337 24.74609375 1.9140625 C26.37279708 2.02413376 28.00274279 2.09105643 29.6328125 2.125 C30.57189453 2.15335937 31.51097656 2.18171875 32.47851562 2.2109375 C34.42885733 2.26249974 36.37940261 2.30691998 38.33007812 2.34375 C44.64943243 2.55051824 49.87005924 3.60674731 55.74609375 5.9140625 C56.73609375 6.2440625 57.72609375 6.5740625 58.74609375 6.9140625 C58.74609375 7.5740625 58.74609375 8.2340625 58.74609375 8.9140625 C59.40609375 8.9140625 60.06609375 8.9140625 60.74609375 8.9140625 C64.85039168 13.31034319 64.72764628 18.14461537 64.74609375 23.9140625 C64.39644551 27.94369173 63.73716014 31.87712825 62.99609375 35.8515625 C62.71584351 37.43904297 62.71584351 37.43904297 62.42993164 39.05859375 C61.33670325 45.12116966 60.09218282 51.10385152 58.4609375 57.046875 C57.37056235 61.42029229 56.6335399 65.86055824 55.92358398 70.31054688 C54.52030405 78.46537918 51.34348226 83.21415299 44.74609375 87.9140625 C41.29324412 89.72269802 38.62216227 90.45490927 34.74609375 89.9140625 C28.63211352 87.61042433 23.66670663 84.38945723 20.43359375 78.5390625 C18.96390383 72.92751917 19.90349386 67.56285214 20.74609375 61.9140625 C19.81796875 62.53667969 18.88984375 63.15929687 17.93359375 63.80078125 C4.4809577 72.80557132 -9.06002063 81.67473461 -22.59844971 90.5496521 C-30.41940608 95.67705538 -38.23579212 100.81140982 -46.05130005 105.94711304 C-48.33607351 107.44841749 -50.62103542 108.94943481 -52.90600586 110.45043945 C-54.31625637 111.37709628 -55.72649462 112.30377177 -57.13671875 113.23046875 C-57.76974411 113.64625183 -58.40276947 114.06203491 -59.05497742 114.49041748 C-59.65316788 114.88360168 -60.25135834 115.27678589 -60.86767578 115.68188477 C-61.43488342 116.0534671 -62.00209106 116.42504944 -62.58648682 116.80789185 C-63.71784161 117.55843574 -64.84150835 118.32067373 -65.95794678 119.0932312 C-70.05100863 121.9140625 -70.05100863 121.9140625 -72.25390625 121.9140625 C-72.25390625 122.5740625 -72.25390625 123.2340625 -72.25390625 123.9140625 C-72.91390625 123.9140625 -73.57390625 123.9140625 -74.25390625 123.9140625 C-74.48078125 124.4503125 -74.70765625 124.9865625 -74.94140625 125.5390625 C-76.70960714 128.73866411 -78.79060828 131.20443473 -81.25390625 133.9140625 C-81.91390625 133.9140625 -82.57390625 133.9140625 -83.25390625 133.9140625 C-83.50140625 134.4709375 -83.74890625 135.0278125 -84.00390625 135.6015625 C-85.48315443 138.33817163 -87.18858064 140.59057119 -89.25390625 142.9140625 C-89.91390625 142.9140625 -90.57390625 142.9140625 -91.25390625 142.9140625 C-91.25390625 143.5740625 -91.25390625 144.2340625 -91.25390625 144.9140625 C-91.91390625 144.9140625 -92.57390625 144.9140625 -93.25390625 144.9140625 C-93.25390625 145.5740625 -93.25390625 146.2340625 -93.25390625 146.9140625 C-93.91390625 146.9140625 -94.57390625 146.9140625 -95.25390625 146.9140625 C-95.51743896 147.49978027 -95.78097168 148.08549805 -96.05249023 148.68896484 C-97.30493467 151.00857032 -98.65707199 152.61610881 -100.4765625 154.515625 C-101.09724609 155.17046875 -101.71792969 155.8253125 -102.35742188 156.5 C-103.00388672 157.17289063 -103.65035156 157.84578125 -104.31640625 158.5390625 C-105.6009876 159.88348064 -106.88363727 161.22974797 -108.1640625 162.578125 C-108.73261963 163.17061035 -109.30117676 163.7630957 -109.88696289 164.37353516 C-111.34774588 165.88580229 -111.34774588 165.88580229 -112.25390625 167.9140625 C-112.91390625 167.9140625 -113.57390625 167.9140625 -114.25390625 167.9140625 C-114.25390625 168.5740625 -114.25390625 169.2340625 -114.25390625 169.9140625 C-114.91390625 169.9140625 -115.57390625 169.9140625 -116.25390625 169.9140625 C-116.51743896 170.49978027 -116.78097168 171.08549805 -117.05249023 171.68896484 C-118.30493467 174.00857032 -119.65707199 175.61610881 -121.4765625 177.515625 C-122.09724609 178.17046875 -122.71792969 178.8253125 -123.35742188 179.5 C-124.00388672 180.17289063 -124.65035156 180.84578125 -125.31640625 181.5390625 C-126.6009876 182.88348064 -127.88363727 184.22974797 -129.1640625 185.578125 C-129.73261963 186.17061035 -130.30117676 186.7630957 -130.88696289 187.37353516 C-132.34774588 188.88580229 -132.34774588 188.88580229 -133.25390625 190.9140625 C-133.91390625 190.9140625 -134.57390625 190.9140625 -135.25390625 190.9140625 C-135.25390625 191.5740625 -135.25390625 192.2340625 -135.25390625 192.9140625 C-135.91390625 192.9140625 -136.57390625 192.9140625 -137.25390625 192.9140625 C-137.51743896 193.49978027 -137.78097168 194.08549805 -138.05249023 194.68896484 C-139.30493467 197.00857032 -140.65707199 198.61610881 -142.4765625 200.515625 C-143.09724609 201.17046875 -143.71792969 201.8253125 -144.35742188 202.5 C-145.00388672 203.17289063 -145.65035156 203.84578125 -146.31640625 204.5390625 C-147.6009876 205.88348064 -148.88363727 207.22974797 -150.1640625 208.578125 C-150.73261963 209.17061035 -151.30117676 209.7630957 -151.88696289 210.37353516 C-153.34774588 211.88580229 -153.34774588 211.88580229 -154.25390625 213.9140625 C-154.91390625 213.9140625 -155.57390625 213.9140625 -156.25390625 213.9140625 C-156.25390625 214.5740625 -156.25390625 215.2340625 -156.25390625 215.9140625 C-156.91390625 215.9140625 -157.57390625 215.9140625 -158.25390625 215.9140625 C-158.51743896 216.49978027 -158.78097168 217.08549805 -159.05249023 217.68896484 C-160.30493467 220.00857032 -161.65707199 221.61610881 -163.4765625 223.515625 C-164.09724609 224.17046875 -164.71792969 224.8253125 -165.35742188 225.5 C-166.00388672 226.17289063 -166.65035156 226.84578125 -167.31640625 227.5390625 C-168.6009876 228.88348064 -169.88363727 230.22974797 -171.1640625 231.578125 C-171.73261963 232.17061035 -172.30117676 232.7630957 -172.88696289 233.37353516 C-174.34774588 234.88580229 -174.34774588 234.88580229 -175.25390625 236.9140625 C-175.91390625 236.9140625 -176.57390625 236.9140625 -177.25390625 236.9140625 C-177.25390625 237.5740625 -177.25390625 238.2340625 -177.25390625 238.9140625 C-177.91390625 238.9140625 -178.57390625 238.9140625 -179.25390625 238.9140625 C-179.51816406 239.49833008 -179.78242187 240.08259766 -180.0546875 240.68457031 C-182.13024788 244.54328721 -185.26706911 247.49129775 -188.25390625 250.6640625 C-188.89585937 251.36144531 -189.5378125 252.05882812 -190.19921875 252.77734375 C-190.81539062 253.43605469 -191.4315625 254.09476563 -192.06640625 254.7734375 C-192.62972656 255.37639648 -193.19304687 255.97935547 -193.7734375 256.60058594 C-195.25390625 257.9140625 -195.25390625 257.9140625 -197.25390625 257.9140625 C-197.25390625 258.5740625 -197.25390625 259.2340625 -197.25390625 259.9140625 C-201.52057673 262.04739774 -205.55985144 262.55890881 -210.25390625 261.9140625 C-213.07421614 260.8232017 -215.48666383 259.26422762 -218.00390625 257.6015625 C-218.76936768 257.11502197 -219.5348291 256.62848145 -220.32348633 256.12719727 C-228.45990165 250.90102026 -236.44074819 245.42960325 -244.42382812 239.97290039 C-254.36653506 233.17676935 -264.36393419 226.46509733 -274.38491821 219.78494263 C-276.11751987 218.62994888 -277.84976447 217.47441932 -279.58163452 216.31832886 C-282.02881562 214.68487152 -284.47710297 213.05308687 -286.92578125 211.421875 C-287.64870865 210.93925705 -288.37163605 210.4566391 -289.11647034 209.95939636 C-293.27950814 207.19031884 -297.48246304 204.53822309 -301.79669189 202.00949097 C-302.27757263 201.64799957 -302.75845337 201.28650818 -303.25390625 200.9140625 C-303.25390625 200.2540625 -303.25390625 199.5940625 -303.25390625 198.9140625 C-304.24390625 198.9140625 -305.23390625 198.9140625 -306.25390625 198.9140625 C-306.25390625 198.2540625 -306.25390625 197.5940625 -306.25390625 196.9140625 C-307.24390625 196.9140625 -308.23390625 196.9140625 -309.25390625 196.9140625 C-309.25390625 196.2540625 -309.25390625 195.5940625 -309.25390625 194.9140625 C-310.24390625 194.9140625 -311.23390625 194.9140625 -312.25390625 194.9140625 C-312.25390625 194.2540625 -312.25390625 193.5940625 -312.25390625 192.9140625 C-312.93453125 192.6871875 -313.61515625 192.4603125 -314.31640625 192.2265625 C-317.49937404 190.8043854 -319.90139602 189.01166687 -322.60546875 186.83984375 C-323.14945313 186.53433594 -323.6934375 186.22882813 -324.25390625 185.9140625 C-327.37175738 186.56050911 -327.37175738 186.56050911 -328.25390625 188.9140625 C-328.91390625 188.9140625 -329.57390625 188.9140625 -330.25390625 188.9140625 C-330.54265625 189.6771875 -330.83140625 190.4403125 -331.12890625 191.2265625 C-332.25390625 193.9140625 -332.25390625 193.9140625 -334.25390625 196.9140625 C-334.91390625 196.9140625 -335.57390625 196.9140625 -336.25390625 196.9140625 C-336.46015625 197.5946875 -336.66640625 198.2753125 -336.87890625 198.9765625 C-338.32453266 202.06494619 -340.17574535 204.2585271 -342.43359375 206.7890625 C-344.55863725 209.26979998 -346.49492381 211.85334602 -348.44140625 214.4765625 C-351.8110641 219.0128582 -355.24832249 223.48216441 -358.75390625 227.9140625 C-364.76034232 235.51823361 -370.7005888 243.17596364 -376.19140625 251.1640625 C-376.87203125 252.0715625 -377.55265625 252.9790625 -378.25390625 253.9140625 C-378.91390625 253.9140625 -379.57390625 253.9140625 -380.25390625 253.9140625 C-380.54265625 254.6771875 -380.83140625 255.4403125 -381.12890625 256.2265625 C-382.25390625 258.9140625 -382.25390625 258.9140625 -384.25390625 261.9140625 C-384.91390625 261.9140625 -385.57390625 261.9140625 -386.25390625 261.9140625 C-386.50398438 262.46578125 -386.7540625 263.0175 -387.01171875 263.5859375 C-388.48106665 266.33980967 -390.23544151 268.68105746 -392.12890625 271.1640625 C-392.93897649 272.23163852 -393.74886247 273.29935437 -394.55859375 274.3671875 C-394.99268555 274.93759766 -395.42677734 275.50800781 -395.87402344 276.09570312 C-397.83344597 278.67775886 -399.77671924 281.27179075 -401.71972656 283.86621094 C-402.74126384 285.22977788 -403.7640481 286.59241153 -404.78808594 287.95410156 C-407.19512394 291.15575584 -409.589813 294.36460495 -411.94921875 297.6015625 C-412.36171875 298.16359375 -412.77421875 298.725625 -413.19921875 299.3046875 C-414.30781425 300.81707607 -415.40999058 302.334164 -416.51171875 303.8515625 C-417.08664062 304.5321875 -417.6615625 305.2128125 -418.25390625 305.9140625 C-418.91390625 305.9140625 -419.57390625 305.9140625 -420.25390625 305.9140625 C-420.54265625 306.6771875 -420.83140625 307.4403125 -421.12890625 308.2265625 C-422.25390625 310.9140625 -422.25390625 310.9140625 -424.25390625 313.9140625 C-424.91390625 313.9140625 -425.57390625 313.9140625 -426.25390625 313.9140625 C-426.46015625 314.5946875 -426.66640625 315.2753125 -426.87890625 315.9765625 C-428.37371122 319.17000948 -430.13804371 321.27737557 -432.4765625 323.87890625 C-435.21936915 327.01957057 -437.70561809 330.35967073 -440.2265625 333.6796875 C-443.21630037 336.97473579 -445.7212106 338.68508643 -450.15625 339.34765625 C-456.36739244 339.35565 -460.41929393 339.25281714 -465.25390625 334.9140625 C-465.87265625 334.3984375 -466.49140625 333.8828125 -467.12890625 333.3515625 C-468.25390625 331.9140625 -468.25390625 331.9140625 -468.25390625 328.9140625 C-468.91390625 328.9140625 -469.57390625 328.9140625 -470.25390625 328.9140625 C-470.70092038 321.35207353 -470.78964716 316.15070625 -466.25390625 309.9140625 C-465.59390625 309.9140625 -464.93390625 309.9140625 -464.25390625 309.9140625 C-463.84072144 309.03681519 -463.84072144 309.03681519 -463.41918945 308.1418457 C-462.29791847 305.99820486 -461.0725685 304.19152488 -459.609375 302.26953125 C-459.09697266 301.59212891 -458.58457031 300.91472656 -458.05664062 300.21679688 C-457.52361328 299.51876953 -456.99058594 298.82074219 -456.44140625 298.1015625 C-455.39243512 296.7206549 -454.34425098 295.33914911 -453.296875 293.95703125 C-452.78688965 293.28720215 -452.2769043 292.61737305 -451.75146484 291.92724609 C-450.28094015 289.95040445 -448.8856221 287.93394583 -447.4921875 285.90234375 C-446.38423828 284.42314453 -446.38423828 284.42314453 -445.25390625 282.9140625 C-444.59390625 282.9140625 -443.93390625 282.9140625 -443.25390625 282.9140625 C-442.96515625 282.1509375 -442.67640625 281.3878125 -442.37890625 280.6015625 C-441.25390625 277.9140625 -441.25390625 277.9140625 -439.25390625 274.9140625 C-438.59390625 274.9140625 -437.93390625 274.9140625 -437.25390625 274.9140625 C-437.00898438 274.36878906 -436.7640625 273.82351563 -436.51171875 273.26171875 C-434.97318033 270.39009891 -433.10746673 267.94023657 -431.12890625 265.3515625 C-427.26497193 260.27663745 -423.53821592 255.12677209 -419.8828125 249.8984375 C-419.34527344 249.24359375 -418.80773437 248.58875 -418.25390625 247.9140625 C-417.59390625 247.9140625 -416.93390625 247.9140625 -416.25390625 247.9140625 C-416.00640625 247.1921875 -415.75890625 246.4703125 -415.50390625 245.7265625 C-414.11033932 242.59103691 -412.46580769 240.54443178 -410.25390625 237.9140625 C-405.61434445 232.08214513 -401.21958488 226.11441559 -396.953125 220.00390625 C-396.39238281 219.31425781 -395.83164062 218.62460937 -395.25390625 217.9140625 C-394.59390625 217.9140625 -393.93390625 217.9140625 -393.25390625 217.9140625 C-392.96515625 217.1509375 -392.67640625 216.3878125 -392.37890625 215.6015625 C-391.25390625 212.9140625 -391.25390625 212.9140625 -389.25390625 209.9140625 C-388.59390625 209.9140625 -387.93390625 209.9140625 -387.25390625 209.9140625 C-387.01671875 209.39328125 -386.77953125 208.8725 -386.53515625 208.3359375 C-384.83467402 205.12161133 -382.81169316 202.15541407 -380.75390625 199.1640625 C-380.14869141 198.26107422 -380.14869141 198.26107422 -379.53125 197.33984375 C-378.49170354 195.82684048 -377.37801782 194.36534087 -376.25390625 192.9140625 C-375.59390625 192.9140625 -374.93390625 192.9140625 -374.25390625 192.9140625 C-374.00898438 192.36878906 -373.7640625 191.82351563 -373.51171875 191.26171875 C-371.97318033 188.39009891 -370.10746673 185.94023657 -368.12890625 183.3515625 C-364.26497193 178.27663745 -360.53821592 173.12677209 -356.8828125 167.8984375 C-356.07650391 166.91617188 -356.07650391 166.91617188 -355.25390625 165.9140625 C-354.59390625 165.9140625 -353.93390625 165.9140625 -353.25390625 165.9140625 C-352.96515625 165.1509375 -352.67640625 164.3878125 -352.37890625 163.6015625 C-351.25390625 160.9140625 -351.25390625 160.9140625 -349.25390625 157.9140625 C-348.59390625 157.9140625 -347.93390625 157.9140625 -347.25390625 157.9140625 C-347.04765625 157.2128125 -346.84140625 156.5115625 -346.62890625 155.7890625 C-344.24802855 150.81086368 -340.40133955 146.99957875 -335.25390625 144.9140625 C-328.75148887 143.72318217 -324.05868818 144.58601676 -318.50390625 148.1640625 C-316.74813803 149.40594734 -314.99769313 150.65540953 -313.25390625 151.9140625 C-310.94816395 153.30552785 -308.60835881 154.6060333 -306.25390625 155.9140625 C-306.25390625 156.5740625 -306.25390625 157.2340625 -306.25390625 157.9140625 C-303.28390625 158.9040625 -303.28390625 158.9040625 -300.25390625 159.9140625 C-300.25390625 160.5740625 -300.25390625 161.2340625 -300.25390625 161.9140625 C-299.27744141 162.23697266 -299.27744141 162.23697266 -298.28125 162.56640625 C-294.13207885 164.41345663 -290.55869554 166.91963522 -286.81640625 169.4765625 C-279.94090351 174.13619818 -279.94090351 174.13619818 -272.9609375 178.63671875 C-272.31116943 179.045271 -271.66140137 179.45382324 -270.99194336 179.87475586 C-269.77103162 180.6377657 -268.54668144 181.39530713 -267.31860352 182.14672852 C-265.92989565 183.01744441 -264.58595987 183.95892437 -263.25390625 184.9140625 C-263.25390625 185.5740625 -263.25390625 186.2340625 -263.25390625 186.9140625 C-262.26390625 186.9140625 -261.27390625 186.9140625 -260.25390625 186.9140625 C-260.25390625 187.5740625 -260.25390625 188.2340625 -260.25390625 188.9140625 C-259.26390625 188.9140625 -258.27390625 188.9140625 -257.25390625 188.9140625 C-257.25390625 189.5740625 -257.25390625 190.2340625 -257.25390625 190.9140625 C-256.58133789 191.14512695 -255.90876953 191.37619141 -255.21582031 191.61425781 C-251.46419667 193.2606182 -248.24839027 195.41931415 -244.86328125 197.7109375 C-244.15923157 198.18219055 -243.45518188 198.6534436 -242.72979736 199.13897705 C-240.48489409 200.6430107 -238.24434763 202.15339245 -236.00390625 203.6640625 C-234.51330782 204.66449023 -233.02242503 205.66449442 -231.53125 206.6640625 C-228.68920529 208.56997113 -225.84870631 210.47814289 -223.00976562 212.38867188 C-218.76652621 215.24356293 -214.51338194 218.08345551 -210.25390625 220.9140625 C-206.49001517 219.22897319 -204.80233209 217.14206856 -202.25390625 213.9140625 C-201.59390625 213.9140625 -200.93390625 213.9140625 -200.25390625 213.9140625 C-200.25390625 213.2540625 -200.25390625 212.5940625 -200.25390625 211.9140625 C-199.59390625 211.9140625 -198.93390625 211.9140625 -198.25390625 211.9140625 C-197.99037354 211.32834473 -197.72684082 210.74262695 -197.45532227 210.13916016 C-196.20287783 207.81955468 -194.85074051 206.21201619 -193.03125 204.3125 C-192.41056641 203.65765625 -191.78988281 203.0028125 -191.15039062 202.328125 C-190.50392578 201.65523437 -189.85746094 200.98234375 -189.19140625 200.2890625 C-187.9068249 198.94464436 -186.62417523 197.59837703 -185.34375 196.25 C-184.77519287 195.65751465 -184.20663574 195.0650293 -183.62084961 194.45458984 C-182.16006662 192.94232271 -182.16006662 192.94232271 -181.25390625 190.9140625 C-180.59390625 190.9140625 -179.93390625 190.9140625 -179.25390625 190.9140625 C-179.25390625 190.2540625 -179.25390625 189.5940625 -179.25390625 188.9140625 C-178.59390625 188.9140625 -177.93390625 188.9140625 -177.25390625 188.9140625 C-177.04378906 188.38554687 -176.83367187 187.85703125 -176.6171875 187.3125 C-174.69552969 183.93170373 -172.11382232 181.34396837 -169.44140625 178.5390625 C-168.39177721 177.42845377 -167.34358789 176.31648253 -166.296875 175.203125 C-165.78688965 174.66204102 -165.2769043 174.12095703 -164.75146484 173.56347656 C-163.26244359 171.92346554 -161.87574373 170.22931836 -160.4921875 168.5 C-159.75355469 167.64664063 -159.01492188 166.79328125 -158.25390625 165.9140625 C-157.59390625 165.9140625 -156.93390625 165.9140625 -156.25390625 165.9140625 C-156.04378906 165.38554687 -155.83367187 164.85703125 -155.6171875 164.3125 C-153.69552969 160.93170373 -151.11382232 158.34396837 -148.44140625 155.5390625 C-147.39177721 154.42845377 -146.34358789 153.31648253 -145.296875 152.203125 C-144.78688965 151.66204102 -144.2769043 151.12095703 -143.75146484 150.56347656 C-142.26244359 148.92346554 -140.87574373 147.22931836 -139.4921875 145.5 C-138.75355469 144.64664063 -138.01492188 143.79328125 -137.25390625 142.9140625 C-136.59390625 142.9140625 -135.93390625 142.9140625 -135.25390625 142.9140625 C-134.98578125 142.33140625 -134.71765625 141.74875 -134.44140625 141.1484375 C-133.23909634 138.88619649 -131.91564712 137.10829932 -130.25390625 135.1640625 C-129.73828125 134.55046875 -129.22265625 133.936875 -128.69140625 133.3046875 C-127.25390625 131.9140625 -127.25390625 131.9140625 -125.25390625 131.9140625 C-124.98892334 131.32689453 -124.72394043 130.73972656 -124.45092773 130.13476562 C-123.21599693 127.84373349 -121.89650737 126.25850782 -120.1015625 124.3828125 C-119.48990234 123.73699219 -118.87824219 123.09117187 -118.24804688 122.42578125 C-117.61060547 121.76191406 -116.97316406 121.09804688 -116.31640625 120.4140625 C-115.05549233 119.09286073 -113.79632015 117.76999406 -112.5390625 116.4453125 C-111.980979 115.86330078 -111.42289551 115.28128906 -110.84790039 114.68164062 C-109.1796871 112.89991663 -109.1796871 112.89991663 -107.67358398 110.69335938 C-106.97084351 109.81260742 -106.97084351 109.81260742 -106.25390625 108.9140625 C-105.59390625 108.9140625 -104.93390625 108.9140625 -104.25390625 108.9140625 C-103.99222656 108.33914063 -103.73054688 107.76421875 -103.4609375 107.171875 C-100.87573921 102.33613191 -97.21494664 97.91544482 -92.31640625 95.4140625 C-91.63578125 95.2490625 -90.95515625 95.0840625 -90.25390625 94.9140625 C-90.25390625 94.2540625 -90.25390625 93.5940625 -90.25390625 92.9140625 C-89.26390625 92.9140625 -88.27390625 92.9140625 -87.25390625 92.9140625 C-87.25390625 92.2540625 -87.25390625 91.5940625 -87.25390625 90.9140625 C-86.26390625 90.9140625 -85.27390625 90.9140625 -84.25390625 90.9140625 C-84.25390625 90.2540625 -84.25390625 89.5940625 -84.25390625 88.9140625 C-83.69703125 88.62273437 -83.14015625 88.33140625 -82.56640625 88.03125 C-77.67131589 85.40179268 -73.28588983 82.56776102 -68.98046875 79.05078125 C-67.25390625 77.9140625 -67.25390625 77.9140625 -64.25390625 77.9140625 C-64.25390625 77.2540625 -64.25390625 76.5940625 -64.25390625 75.9140625 C-63.26390625 75.9140625 -62.27390625 75.9140625 -61.25390625 75.9140625 C-61.25390625 75.2540625 -61.25390625 74.5940625 -61.25390625 73.9140625 C-60.26390625 73.9140625 -59.27390625 73.9140625 -58.25390625 73.9140625 C-58.25390625 73.2540625 -58.25390625 72.5940625 -58.25390625 71.9140625 C-57.26390625 71.9140625 -56.27390625 71.9140625 -55.25390625 71.9140625 C-55.25390625 71.2540625 -55.25390625 70.5940625 -55.25390625 69.9140625 C-54.26390625 69.9140625 -53.27390625 69.9140625 -52.25390625 69.9140625 C-52.25390625 69.2540625 -52.25390625 68.5940625 -52.25390625 67.9140625 C-51.26390625 67.9140625 -50.27390625 67.9140625 -49.25390625 67.9140625 C-49.25390625 67.2540625 -49.25390625 66.5940625 -49.25390625 65.9140625 C-47.64515625 65.016875 -47.64515625 65.016875 -46.00390625 64.1015625 C-43.85224097 62.88257471 -41.96291013 61.68773219 -40.00390625 60.1640625 C-38.25390625 58.9140625 -38.25390625 58.9140625 -35.25390625 58.9140625 C-35.25390625 58.2540625 -35.25390625 57.5940625 -35.25390625 56.9140625 C-32.25390625 54.9140625 -32.25390625 54.9140625 -29.25390625 54.9140625 C-29.25390625 54.2540625 -29.25390625 53.5940625 -29.25390625 52.9140625 C-28.26390625 52.9140625 -27.27390625 52.9140625 -26.25390625 52.9140625 C-26.25390625 52.2540625 -26.25390625 51.5940625 -26.25390625 50.9140625 C-25.26390625 50.9140625 -24.27390625 50.9140625 -23.25390625 50.9140625 C-23.25390625 50.2540625 -23.25390625 49.5940625 -23.25390625 48.9140625 C-22.26390625 48.9140625 -21.27390625 48.9140625 -20.25390625 48.9140625 C-20.25390625 48.2540625 -20.25390625 47.5940625 -20.25390625 46.9140625 C-19.26390625 46.9140625 -18.27390625 46.9140625 -17.25390625 46.9140625 C-17.25390625 46.2540625 -17.25390625 45.5940625 -17.25390625 44.9140625 C-16.36638672 44.44226563 -16.36638672 44.44226563 -15.4609375 43.9609375 C-11.04726712 41.57049938 -7.13951748 39.11397763 -3.25390625 35.9140625 C-1.76890625 35.4190625 -1.76890625 35.4190625 -0.25390625 34.9140625 C-1.10662109 34.87539063 -1.10662109 34.87539063 -1.9765625 34.8359375 C-7.77893028 34.40972017 -11.39959135 33.11584467 -16.25390625 29.9140625 C-16.25390625 29.2540625 -16.25390625 28.5940625 -16.25390625 27.9140625 C-16.91390625 27.9140625 -17.57390625 27.9140625 -18.25390625 27.9140625 C-18.25390625 26.9240625 -18.25390625 25.9340625 -18.25390625 24.9140625 C-18.91390625 24.9140625 -19.57390625 24.9140625 -20.25390625 24.9140625 C-21.28723363 10.04562969 -21.28723363 10.04562969 -17.44140625 5.6015625 C-12.00087917 0.48343703 -7.28638409 -0.2751631 0 0 Z " fill="#2F99D9" transform="translate(783.25390625,260.0859375)"/>
</svg>
