<?xml version="1.0" encoding="UTF-8"?>
<svg version="1.1" xmlns="http://www.w3.org/2000/svg" width="1080" height="1080">
<path d="M0 0 C49.18690048 -0.08561614 98.37380616 -0.16521606 147.5607605 -0.2117157 C148.28907175 -0.21240598 149.01738299 -0.21309627 149.76776428 -0.21380747 C165.59700906 -0.228773 181.42625464 -0.24262377 197.2555014 -0.25532665 C205.01847897 -0.26156318 212.78145633 -0.26804597 220.54443359 -0.2746582 C221.31693148 -0.275312 222.08942937 -0.27596579 222.88533629 -0.2766394 C247.91144692 -0.29793536 272.937501 -0.33548383 297.96357738 -0.3814861 C323.68721121 -0.42868458 349.41081375 -0.45943545 375.13449014 -0.46957495 C378.77013986 -0.47101566 382.40578947 -0.47264385 386.04143906 -0.47438622 C386.75696708 -0.47472333 387.47249511 -0.47506045 388.2097058 -0.47540778 C399.71460118 -0.48130985 411.21939966 -0.5044825 422.72425556 -0.53416017 C434.29850815 -0.5636466 445.87264129 -0.57442342 457.44693257 -0.56750689 C463.71495309 -0.56430509 469.98268989 -0.56920627 476.25065994 -0.59602737 C481.99402211 -0.62042378 487.73691072 -0.62154568 493.48029505 -0.60449447 C495.55321831 -0.60238819 497.62617156 -0.60867614 499.69903614 -0.62441591 C514.47367627 -0.73004022 526.2935915 0.83159454 539 9 C539 9.66 539 10.32 539 11 C539.5775 11.2475 540.155 11.495 540.75 11.75 C543.32939979 13.18299988 545.06121592 14.78424676 547 17 C547 17.66 547 18.32 547 19 C547.66 19 548.32 19 549 19 C551 22 551 22 551 25 C551.66 25 552.32 25 553 25 C553 26.32 553 27.64 553 29 C553.66 29 554.32 29 555 29 C556.65187922 32.30375844 556.13420973 35.98558191 556.12304783 39.6170063 C556.12420167 40.52428229 556.12535552 41.43155827 556.12654433 42.36632746 C556.12921479 45.44061686 556.1246853 48.51485505 556.12025452 51.58914185 C556.12069013 53.80176108 556.12156486 56.01438026 556.12284368 58.22699916 C556.12509057 64.33373055 556.12106472 70.44044456 556.11606562 76.54717374 C556.11220528 82.4480941 556.11302499 88.3490125 556.11374746 94.24993381 C556.11506306 106.32544981 556.11171354 118.40096035 556.10573006 130.47647476 C556.0998185 142.43742017 556.09596522 154.3983633 556.09487724 166.35931015 C556.0948085 167.10225454 556.09473976 167.84519894 556.09466894 168.6106568 C556.09433062 172.38350296 556.09402923 176.15634911 556.09374207 179.92919527 C556.09164014 206.67106011 556.08489857 233.41292199 556.07543945 260.15478516 C556.06625909 286.13850895 556.05917348 312.12223194 556.05493164 338.10595703 C556.05473435 339.30678341 556.05473435 339.30678341 556.05453308 340.5318689 C556.05321459 348.57113201 556.05193877 356.61039513 556.05069422 364.64965826 C556.04815782 381.02741504 556.04533657 397.40517176 556.04234314 413.78292847 C556.04220585 414.53599595 556.04206856 415.28906343 556.04192711 416.06495114 C556.03770296 439.15317457 556.03227114 462.2413975 556.02565002 485.32962036 C556.02527947 486.62346983 556.02490891 487.9173193 556.02452713 489.25037633 C556.01703154 515.16691776 556.00836408 541.08345883 556 567 C503.2 567 450.4 567 396 567 C395.67 565.68 395.34 564.36 395 563 C395.99 563 396.98 563 398 563 C398 562.34 398 561.68 398 561 C398.66 561 399.32 561 400 561 C400 427.02 400 293.04 400 155 C396.85391711 153.9513057 394.61026473 153.86077844 391.30688477 153.83886719 C390.13879776 153.82925964 388.97071075 153.8196521 387.76722717 153.80975342 C385.87344582 153.8033786 385.87344582 153.8033786 383.94140625 153.796875 C381.99765358 153.78832489 381.99765358 153.78832489 380.01463318 153.77960205 C377.27171436 153.76910448 374.52882475 153.7632534 371.78588867 153.75976562 C368.2740974 153.75427718 364.76269312 153.73023704 361.25102329 153.70179367 C357.89782482 153.67867605 354.54468031 153.67671868 351.19140625 153.671875 C349.30066124 153.6533548 349.30066124 153.6533548 347.37171936 153.63446045 C345.61486061 153.6389621 345.61486061 153.6389621 343.82250977 153.64355469 C342.27721336 153.63808624 342.27721336 153.63808624 340.70069885 153.63250732 C337.45894298 154.07362335 336.29098298 154.67275893 334 157 C333.39797353 160.05413734 333.39797353 160.05413734 333.50222206 163.63615322 C333.49700749 164.31714259 333.49179292 164.99813196 333.48642033 165.69975737 C333.47375293 167.99864889 333.48978534 170.29646153 333.50552368 172.59532166 C333.5023493 174.25323393 333.49742389 175.91114364 333.49089086 177.56904608 C333.47802187 182.13810344 333.49023207 186.70680825 333.50641942 191.27584255 C333.51954202 196.19821451 333.50968332 201.12054604 333.50265503 206.04292297 C333.4925559 215.69135067 333.50387336 225.33964159 333.52235563 234.9880523 C333.54309257 246.21586196 333.54298407 257.4436418 333.54201047 268.67146701 C333.54100846 288.70084744 333.55935257 308.73016408 333.58837891 328.75952148 C333.6165515 348.20972862 333.63072067 367.6598796 333.62939453 387.11010742 C333.62927466 388.90669108 333.62927466 388.90669108 333.62915237 390.73956936 C333.62903131 392.53299845 333.62903131 392.53299845 333.6289078 394.36265844 C333.62752896 416.48276333 333.63930394 438.60284427 333.65721423 460.72294141 C333.66325393 468.5552999 333.66537419 476.38765401 333.66627884 484.22001457 C333.66764154 493.76162558 333.67654888 503.30319626 333.69494446 512.84479015 C333.70419425 517.71608661 333.71026637 522.5873314 333.70775604 527.45863724 C333.70557136 531.91397446 333.71256952 536.36919729 333.72705309 540.82451064 C333.73068957 542.44022434 333.73093083 544.0559498 333.72751851 545.67166399 C333.72340597 547.86058157 333.73148562 550.04912106 333.74273109 552.23800564 C333.74484437 554.06505886 333.74484437 554.06505886 333.74700034 555.92902225 C333.98859008 558.8615033 334.46016556 560.53140988 336 563 C336.99 563 337.98 563 339 563 C339 564.32 339 565.64 339 567 C316.89 567 294.78 567 272 567 C272 565.68 272 564.36 272 563 C272.99 563 273.98 563 275 563 C275 562.34 275 561.68 275 561 C275.66 561 276.32 561 277 561 C276.67 461.67 276.34 362.34 276 260 C254.55 260 233.1 260 211 260 C210.67 359.33 210.34 458.66 210 561 C211.65 561.66 213.3 562.32 215 563 C215 564.32 215 565.64 215 567 C193.22 567 171.44 567 149 567 C148.67 565.68 148.34 564.36 148 563 C148.99 563 149.98 563 151 563 C151 562.34 151 561.68 151 561 C151.66 561 152.32 561 153 561 C153 496.65 153 432.3 153 366 C131.22 366 109.44 366 87 366 C87 430.35 87 494.7 87 561 C87.66 561 88.32 561 89 561 C89 561.66 89 562.32 89 563 C89.99 563 90.98 563 92 563 C92 564.32 92 565.64 92 567 C69.89 567 47.78 567 25 567 C25 565.68 25 564.36 25 563 C26.65 562.34 28.3 561.68 30 561 C29.505 435.765 29.505 435.765 29 308 C25.35820763 307.08955191 22.66076358 306.87880008 18.94628906 306.88647461 C17.11484344 306.88658791 17.11484344 306.88658791 15.24639893 306.88670349 C13.27591583 306.89444542 13.27591583 306.89444542 11.265625 306.90234375 C9.9037074 306.90420979 8.54178912 306.90563282 7.17987061 306.90663147 C3.60258111 306.91044197 0.02533248 306.92025968 -3.55194092 306.93133545 C-7.20519457 306.94158116 -10.85845486 306.94613585 -14.51171875 306.95117188 C-21.67449776 306.96188331 -28.83724314 306.97894206 -36 307 C-36.1140097 339.16258522 -36.20252073 371.32511306 -36.25532665 403.48785307 C-36.26158034 407.28308076 -36.26805194 411.07830806 -36.2746582 414.87353516 C-36.27596976 415.62911145 -36.27728131 416.38468775 -36.2786326 417.16316029 C-36.30040207 429.4048881 -36.33983201 441.64649877 -36.38576398 453.88815704 C-36.43248587 466.44486684 -36.46028634 479.0015152 -36.47044247 491.55830836 C-36.47731055 499.30951012 -36.49901907 507.0603808 -36.53958233 514.81148067 C-36.56908271 520.75035358 -36.57228493 526.68905564 -36.56553841 532.62800407 C-36.56691808 535.06775645 -36.57691827 537.50752094 -36.59602737 539.94719887 C-36.62078476 543.26997481 -36.61496739 546.59131668 -36.60127258 549.91412354 C-36.61583679 550.88688209 -36.630401 551.85964064 -36.64540654 552.86187673 C-36.65879195 558.33064481 -36.65879195 558.33064481 -33.46242046 562.63036728 C-32.64982171 563.08234608 -31.83722296 563.53432487 -31 564 C-31.33 564.99 -31.66 565.98 -32 567 C-53.78 567 -75.56 567 -98 567 C-98.33 565.68 -98.66 564.36 -99 563 C-98.01 563 -97.02 563 -96 563 C-96 562.34 -96 561.68 -96 561 C-95.34 561 -94.68 561 -94 561 C-94 522.39 -94 483.78 -94 444 C-97.17590345 442.94136552 -99.46372022 442.86056384 -102.80078125 442.83886719 C-103.9921167 442.82925964 -105.18345215 442.8196521 -106.41088867 442.80975342 C-107.69842041 442.80550354 -108.98595215 442.80125366 -110.3125 442.796875 C-111.64624025 442.79112179 -112.97998049 442.78536408 -114.3137207 442.77960205 C-117.10791407 442.76910519 -119.90207876 442.76325337 -122.69628906 442.75976562 C-126.27767738 442.75427176 -129.85868726 442.73021979 -133.43995667 442.70179367 C-136.19373693 442.6831806 -138.94742557 442.67796251 -141.70126343 442.67642975 C-143.66392409 442.67192906 -145.62653574 442.65328059 -147.58911133 442.63446045 C-148.78044678 442.63746155 -149.97178223 442.64046265 -151.19921875 442.64355469 C-152.24940186 442.63990906 -153.29958496 442.63626343 -154.3815918 442.63250732 C-157.46408375 443.06513399 -158.1361548 443.57219299 -160 446 C-160.44197 448.20311075 -160.44197 448.20311075 -160.36076355 450.68864441 C-160.36488754 451.65198196 -160.36901154 452.61531952 -160.3732605 453.60784912 C-160.36247467 454.66304749 -160.35168884 455.71824585 -160.34057617 456.80541992 C-160.34101425 457.91776505 -160.34145233 459.03011017 -160.34190369 460.17616272 C-160.33980991 463.86110856 -160.31645047 467.54560217 -160.29296875 471.23046875 C-160.28737491 473.7820867 -160.28310381 476.33370788 -160.28010559 478.8853302 C-160.26981274 484.92020209 -160.24615699 490.95487918 -160.21605712 496.98967296 C-160.18253223 503.86020548 -160.16603194 510.73074575 -160.15097082 517.6013397 C-160.11960783 531.73431669 -160.06683542 545.86714944 -160 560 C-159.34 560.33 -158.68 560.66 -158 561 C-158 561.66 -158 562.32 -158 563 C-157.01 563 -156.02 563 -155 563 C-155 564.32 -155 565.64 -155 567 C-176.10490368 567.02332704 -197.20980525 567.04097821 -218.3147192 567.05181217 C-228.11338163 567.05697554 -237.91203606 567.06401902 -247.71069336 567.07543945 C-256.24798655 567.08538503 -264.78527395 567.09185313 -273.32257277 567.09408849 C-277.84589928 567.09539582 -282.36920922 567.09848302 -286.89253044 567.10573006 C-291.14497932 567.11248829 -295.39740473 567.11461737 -299.64985847 567.11310768 C-301.21523287 567.1133841 -302.78060801 567.11539039 -304.34597778 567.11920547 C-306.47388093 567.12413967 -308.60169401 567.12299933 -310.729599 567.12025452 C-312.52018187 567.12163721 -312.52018187 567.12163721 -314.34693813 567.12304783 C-317 567 -317 567 -318 566 C-318.09695905 564.44136748 -318.12371663 562.87832522 -318.12304783 561.31667995 C-318.12503888 560.2975374 -318.12702993 559.27839484 -318.12908131 558.22836918 C-318.12471205 556.52850309 -318.12471205 556.52850309 -318.12025452 554.79429626 C-318.12110894 553.60104455 -318.12196337 552.40779284 -318.12284368 551.17838198 C-318.12421188 547.85136008 -318.12106437 544.52439628 -318.11606562 541.19738138 C-318.11176446 537.61522505 -318.11320731 534.03307066 -318.1139679 530.45091248 C-318.11449334 524.23962411 -318.11134437 518.02834621 -318.10573006 511.81706047 C-318.09761787 502.83648162 -318.09500013 493.85590786 -318.09374207 484.87532575 C-318.0915511 470.30644802 -318.08488982 455.73757587 -318.07543945 441.16870117 C-318.06626648 427.01277698 -318.05918509 412.8568543 -318.05493164 398.70092773 C-318.05466892 397.82898775 -318.05440619 396.95704776 -318.05413551 396.05868535 C-318.05283051 391.68460719 -318.05156679 387.31052902 -318.05032361 382.93645084 C-318.03994961 346.62429661 -318.02233009 310.31214874 -318 274 C-315.90313526 273.92481235 -313.80549883 273.87091705 -311.70776367 273.82617188 C-310.5397673 273.79390503 -309.37177094 273.76163818 -308.16838074 273.72839355 C-304.84658078 274.01315172 -303.83640227 274.33807758 -301.67578125 276.78125 C-300.84845463 277.99478367 -300.06119466 279.23643772 -299.3125 280.5 C-298.42440004 281.79659985 -297.527186 283.08700281 -296.62109375 284.37109375 C-296.18651855 284.99741699 -295.75194336 285.62374023 -295.30419922 286.26904297 C-288.60073906 295.16599776 -277.47919068 300.63206667 -266.96875 303.421875 C-265 304 -265 304 -264 305 C-250.20891083 309.28430661 -233.96598643 308.11603133 -221 302 C-216.29138969 299.8138595 -212.22996651 298.19370246 -207 298 C-204.6875 299.25 -204.6875 299.25 -202 301 C-199.38982019 301.87414472 -196.76312387 302.62138899 -194.109375 303.3515625 C-192 304 -192 304 -191 305 C-177.21164062 309.19778941 -160.97689667 308.23889263 -148 302 C-146.906875 301.566875 -145.81375 301.13375 -144.6875 300.6875 C-139.01294479 298.24821156 -133.19163015 295.20736896 -128.82421875 290.80859375 C-127 289 -127 289 -125 289 C-125 288.34 -125 287.68 -125 287 C-124.34 287 -123.68 287 -123 287 C-122.59394531 286.15501953 -122.59394531 286.15501953 -122.1796875 285.29296875 C-119.96448401 280.98725865 -117.71187574 277.1797537 -114 274 C-111.01074135 273.2570556 -108.3345224 273.18709421 -105.2578125 273.15625 C-96.24528449 272.72399446 -85.80855173 268.87355556 -78.75 263.1875 C-77 262 -77 262 -74.75 262.3125 C-74.1725 262.539375 -73.595 262.76625 -73 263 C-73 263.99 -73 264.98 -73 266 C-73.66 266 -74.32 266 -75 266 C-75 266.66 -75 267.32 -75 268 C-75.66 268 -76.32 268 -77 268 C-77.37125 268.804375 -77.37125 268.804375 -77.75 269.625 C-79.30652537 272.5823982 -81.03435673 275.29724051 -83 278 C-83.66 278 -84.32 278 -85 278 C-85.268125 278.7425 -85.53625 279.485 -85.8125 280.25 C-86.95276751 282.89061949 -88.09380306 284.85552844 -90 287 C-90.66 287 -91.32 287 -92 287 C-92.28875 287.763125 -92.5775 288.52625 -92.875 289.3125 C-94 292 -94 292 -96 295 C-96.66 295 -97.32 295 -98 295 C-98.23589844 295.7115625 -98.47179687 296.423125 -98.71484375 297.15625 C-100.22436634 300.49647019 -102.14541077 302.74625827 -104.5625 305.5 C-109.24413924 310.91378987 -113.25856315 316.60052822 -117.1875 322.578125 C-117.785625 323.37734375 -118.38375 324.1765625 -119 325 C-119.66 325 -120.32 325 -121 325 C-121.27400635 325.58338135 -121.5480127 326.1667627 -121.83032227 326.76782227 C-122.9700015 328.94275177 -124.22345721 330.76839766 -125.71484375 332.71484375 C-126.23626953 333.40126953 -126.75769531 334.08769531 -127.29492188 334.79492188 C-127.83697266 335.50197266 -128.37902344 336.20902344 -128.9375 336.9375 C-133.08017937 342.31039952 -133.08017937 342.31039952 -136.75390625 348.00390625 C-137.16511719 348.66261719 -137.57632813 349.32132813 -138 350 C-138.66 350 -139.32 350 -140 350 C-140.23717531 358.27700059 -140.23717531 358.27700059 -136.5 365.1875 C-135.675 365.785625 -134.85 366.38375 -134 367 C-133.67 367.33 -133.34 367.66 -133 368 C-127.89790856 368.47734291 -122.85520326 368.90698826 -118.1875 366.625 C-115.38556812 363.26268174 -112.93983912 359.71256911 -110.55078125 356.046875 C-110.03902344 355.37140625 -109.52726563 354.6959375 -109 354 C-108.34 354 -107.68 354 -107 354 C-106.75378906 353.28199219 -106.50757813 352.56398438 -106.25390625 351.82421875 C-104.85883684 348.68205308 -103.13528193 346.44904058 -100.9375 343.8125 C-98.19079836 340.58717013 -98.19079836 340.58717013 -96 337 C-95.34 337 -94.68 337 -94 337 C-93.71125 336.236875 -93.4225 335.47375 -93.125 334.6875 C-92 332 -92 332 -90 329 C-89.34 329 -88.68 329 -88 329 C-87.62875 328.17822266 -87.62875 328.17822266 -87.25 327.33984375 C-85.74360569 324.5200619 -83.93464489 322.10863087 -82 319.5625 C-81.41158325 318.78567871 -81.41158325 318.78567871 -80.8112793 317.99316406 C-77.40732803 313.50830544 -73.97006148 309.04869838 -70.5324707 304.58959961 C-66.32645298 299.13325578 -62.15224332 293.67804681 -58.25 288 C-57.5075 287.01 -56.765 286.02 -56 285 C-55.34 285 -54.68 285 -54 285 C-53.690625 284.01 -53.690625 284.01 -53.375 283 C-51.50875748 278.92819814 -49.02438473 275.31203002 -46 272 C-45.34 272 -44.68 272 -44 272 C-43.71125 271.236875 -43.4225 270.47375 -43.125 269.6875 C-42 267 -42 267 -40 264 C-39.34 264 -38.68 264 -38 264 C-37.7628125 263.47921875 -37.525625 262.9584375 -37.28125 262.421875 C-35.58076777 259.20754883 -33.55778691 256.24135157 -31.5 253.25 C-31.09652344 252.64800781 -30.69304687 252.04601562 -30.27734375 251.42578125 C-29.23779729 249.91277798 -28.12411157 248.45127837 -27 247 C-26.34 247 -25.68 247 -25 247 C-24.63261719 246.18208984 -24.63261719 246.18208984 -24.2578125 245.34765625 C-22.71927408 242.47603641 -20.85356048 240.02617407 -18.875 237.4375 C-15.01106568 232.36257495 -11.28430967 227.21270959 -7.62890625 221.984375 C-6.82259766 221.00210938 -6.82259766 221.00210938 -6 220 C-5.34 220 -4.68 220 -4 220 C-3.34 218.35 -2.68 216.7 -2 215 C1.73487777 215.4979837 3.81237635 215.87491756 7 218 C7 218.66 7 219.32 7 220 C7.99 220 8.98 220 10 220 C10 220.66 10 221.32 10 222 C10.99 222 11.98 222 13 222 C13 222.66 13 223.32 13 224 C13.64404785 224.21156738 14.2880957 224.42313477 14.95166016 224.64111328 C19.21816978 226.54303484 22.91406004 229.12626656 26.7734375 231.7421875 C27.6154068 232.30696808 28.4573761 232.87174866 29.32485962 233.4536438 C32.01120812 235.25639173 34.69336135 237.065255 37.375 238.875 C40.05000791 240.6768213 42.72592367 242.47725361 45.40371704 244.27493286 C47.06722419 245.39203067 48.72908084 246.51159154 50.38900757 247.63400269 C54.83281492 250.62186092 59.31442103 253.40660102 64 256 C64 256.66 64 257.32 64 258 C64.71679932 258.26031006 65.43359863 258.52062012 66.17211914 258.78881836 C69.1344381 260.05757985 71.57890918 261.57350546 74.24609375 263.37890625 C75.24253906 264.04905762 76.23898437 264.71920898 77.265625 265.40966797 C78.31234375 266.12010254 79.3590625 266.83053711 80.4375 267.5625 C82.59170778 269.0154209 84.74665306 270.46724894 86.90234375 271.91796875 C87.94503418 272.61970215 88.98772461 273.32143555 90.06201172 274.04443359 C94.90348069 277.26698358 99.83130862 280.34597365 104.78125 283.3984375 C105.87953125 284.19121094 105.87953125 284.19121094 107 285 C107 285.66 107 286.32 107 287 C107.99 287 108.98 287 110 287 C110 287.66 110 288.32 110 289 C116.19634515 290.80726734 122.12221516 292.06134627 128 289 C134.45405058 283.44713102 140.12307061 276.73223272 145.3125 270 C145.869375 269.34 146.42625 268.68 147 268 C147.66 268 148.32 268 149 268 C149 267.34 149 266.68 149 266 C149.66 266 150.32 266 151 266 C151.26353271 265.41428223 151.52706543 264.82856445 151.79858398 264.22509766 C153.05102842 261.90549218 154.40316574 260.29795369 156.22265625 258.3984375 C156.84333984 257.74359375 157.46402344 257.08875 158.10351562 256.4140625 C158.74998047 255.74117187 159.39644531 255.06828125 160.0625 254.375 C161.34708135 253.03058186 162.62973102 251.68431453 163.91015625 250.3359375 C164.47871338 249.74345215 165.04727051 249.1509668 165.63305664 248.54052734 C167.09383963 247.02826021 167.09383963 247.02826021 168 245 C168.66 245 169.32 245 170 245 C170 244.34 170 243.68 170 243 C170.66 243 171.32 243 172 243 C172.20753906 242.4740625 172.41507813 241.948125 172.62890625 241.40625 C174.58310548 237.97665819 177.22379692 235.34600014 179.9375 232.5 C181.01085507 231.36622854 182.08251789 230.23085221 183.15234375 229.09375 C183.65233887 228.56265625 184.15233398 228.0315625 184.66748047 227.484375 C186.13569065 225.89936452 186.13569065 225.89936452 187.75390625 223.59375 C188.16511719 223.0678125 188.57632812 222.541875 189 222 C189.66 222 190.32 222 191 222 C191 221.34 191 220.68 191 220 C191.66 220 192.32 220 193 220 C193.2475 219.443125 193.495 218.88625 193.75 218.3125 C195.22924818 215.57589087 196.93467439 213.32349131 199 211 C199.66 211 200.32 211 201 211 C201.25394531 210.41734375 201.50789062 209.8346875 201.76953125 209.234375 C203.13320333 206.75811967 204.64225203 205.19479374 206.6875 203.25 C211.54688401 198.51453471 216.22837434 193.65743848 220 188 C220.66 188 221.32 188 222 188 C222 187.34 222 186.68 222 186 C222.66 186 223.32 186 224 186 C224.26353271 185.41428223 224.52706543 184.82856445 224.79858398 184.22509766 C226.05102842 181.90549218 227.40316574 180.29795369 229.22265625 178.3984375 C229.84333984 177.74359375 230.46402344 177.08875 231.10351562 176.4140625 C231.74998047 175.74117187 232.39644531 175.06828125 233.0625 174.375 C234.34708135 173.03058186 235.62973102 171.68431453 236.91015625 170.3359375 C237.47871338 169.74345215 238.04727051 169.1509668 238.63305664 168.54052734 C240.09383963 167.02826021 240.09383963 167.02826021 241 165 C241.66 165 242.32 165 243 165 C243 164.34 243 163.68 243 163 C243.66 163 244.32 163 245 163 C245.25974609 162.41798828 245.51949219 161.83597656 245.78710938 161.23632812 C250.21427123 153.07352566 258.83996772 148.20545693 266.5 143.5 C268.74997285 142.08921245 270.99866567 140.67654072 273.24609375 139.26171875 C273.81448471 138.90530807 274.38287567 138.5488974 274.9684906 138.1816864 C280.57022811 134.66239443 286.07179856 131.00171148 291.5625 127.3125 C302.58904413 119.91932303 313.68035624 112.62822821 324.78735352 105.35668945 C325.43434708 104.93281448 326.08134064 104.50893951 326.74794006 104.07221985 C328.01887363 103.2400606 329.29045843 102.40889501 330.56272888 101.57878113 C333.54590888 99.62851526 336.51100667 97.65884765 339.44335938 95.6328125 C340.49845703 94.90835938 341.55355469 94.18390625 342.640625 93.4375 C343.55875977 92.79683594 344.47689453 92.15617187 345.42285156 91.49609375 C348.01833548 89.98935583 350.04394644 89.38934039 353 89 C352.85904936 90.6254308 352.71207913 92.25034051 352.5625 93.875 C352.48128906 94.77992188 352.40007813 95.68484375 352.31640625 96.6171875 C352 99 352 99 351 101 C350.42282643 105.73093088 350.56583375 109.14717343 352.75 113.4375 C355.44617554 116.50814437 357.34744281 117.7689107 361.40234375 118.3359375 C366.97329595 118.42405871 366.97329595 118.42405871 372 116.1875 C375.51176017 112.34651231 376.48166157 109.41880277 377.4375 104.375 C377.56382812 103.71910889 377.69015625 103.06321777 377.8203125 102.38745117 C378.63839829 98.09300703 379.38695432 93.78738039 380.12744141 89.47900391 C381.57536999 81.05900507 383.3913825 72.82300721 385.66796875 64.58203125 C387.44535932 57.65140091 387.61330562 51.95772697 384.125 45.5625 C377.61543673 38.89914061 362.96503799 40.42377751 354.18603516 39.99462891 C351.76803887 39.87588585 349.35088816 39.7454732 346.93359375 39.61328125 C342.29040395 39.36681259 337.64664506 39.16829049 333 39 C332.27417725 38.97200317 331.54835449 38.94400635 330.80053711 38.91516113 C328.74718262 38.84377782 326.6948323 38.79622055 324.640625 38.7578125 C323.47563477 38.73090332 322.31064453 38.70399414 321.11035156 38.67626953 C316.66017818 39.13945084 314.11572082 40.88427918 311 44 C309.67036568 49.86540301 309.37987918 55.53192176 312 61 C314.97187717 62.46358065 314.97187717 62.46358065 318 63 C318.33 63.33 318.66 63.66 319 64 C321.34987262 64.23527773 323.70556039 64.41386417 326.0625 64.5625 C327.35285156 64.64628906 328.64320313 64.73007812 329.97265625 64.81640625 C330.97167969 64.87699219 331.97070312 64.93757813 333 65 C333 66.32 333 67.64 333 69 C330 71 330 71 327 71 C327 71.66 327 72.32 327 73 C324 75 324 75 321 75 C321 75.66 321 76.32 321 77 C318 79 318 79 315 79 C315 79.66 315 80.32 315 81 C313.59472656 82.09741211 313.59472656 82.09741211 311.640625 83.27734375 C310.58488281 83.92413086 310.58488281 83.92413086 309.5078125 84.58398438 C308.76273438 85.03064453 308.01765625 85.47730469 307.25 85.9375 C305.7958864 86.81998767 304.34273215 87.70405839 302.890625 88.58984375 C301.86485352 89.21221924 301.86485352 89.21221924 300.81835938 89.84716797 C298.86726428 91.04279017 298.86726428 91.04279017 296.671875 92.81640625 C295 94 295 94 292 94 C292 94.66 292 95.32 292 96 C289 98 289 98 286 98 C286 98.66 286 99.32 286 100 C284.41455078 101.2175293 284.41455078 101.2175293 282.1953125 102.57421875 C281.38835938 103.07405273 280.58140625 103.57388672 279.75 104.08886719 C278.88375 104.61641602 278.0175 105.14396484 277.125 105.6875 C270.85188027 109.56166334 264.71335996 113.46498003 258.8125 117.890625 C257 119 257 119 254 119 C254 119.66 254 120.32 254 121 C251 123 251 123 248 123 C248 123.66 248 124.32 248 125 C245.1350192 126.96044922 242.21305212 128.75781718 239.24023438 130.546875 C235.72333906 132.71896786 233.37582787 134.54281525 231 138 C230.34 138 229.68 138 229 138 C229 138.66 229 139.32 229 140 C228.34 140 227.68 140 227 140 C226.73646729 140.58571777 226.47293457 141.17143555 226.20141602 141.77490234 C224.94897158 144.09450782 223.59683426 145.70204631 221.77734375 147.6015625 C221.15666016 148.25640625 220.53597656 148.91125 219.89648438 149.5859375 C219.25001953 150.25882813 218.60355469 150.93171875 217.9375 151.625 C216.65291865 152.96941814 215.37026898 154.31568547 214.08984375 155.6640625 C213.52128662 156.25654785 212.95272949 156.8490332 212.36694336 157.45947266 C210.90616037 158.97173979 210.90616037 158.97173979 210 161 C209.34 161 208.68 161 208 161 C208 161.66 208 162.32 208 163 C207.34 163 206.68 163 206 163 C205.73646729 163.58571777 205.47293457 164.17143555 205.20141602 164.77490234 C203.94897158 167.09450782 202.59683426 168.70204631 200.77734375 170.6015625 C200.15666016 171.25640625 199.53597656 171.91125 198.89648438 172.5859375 C198.25001953 173.25882813 197.60355469 173.93171875 196.9375 174.625 C195.65291865 175.96941814 194.37026898 177.31568547 193.08984375 178.6640625 C192.52128662 179.25654785 191.95272949 179.8490332 191.36694336 180.45947266 C189.90616037 181.97173979 189.90616037 181.97173979 189 184 C188.34 184 187.68 184 187 184 C187 184.66 187 185.32 187 186 C186.34 186 185.68 186 185 186 C184.73646729 186.58571777 184.47293457 187.17143555 184.20141602 187.77490234 C182.94897158 190.09450782 181.59683426 191.70204631 179.77734375 193.6015625 C179.15666016 194.25640625 178.53597656 194.91125 177.89648438 195.5859375 C177.25001953 196.25882813 176.60355469 196.93171875 175.9375 197.625 C174.65291865 198.96941814 173.37026898 200.31568547 172.08984375 201.6640625 C171.52128662 202.25654785 170.95272949 202.8490332 170.36694336 203.45947266 C168.90616037 204.97173979 168.90616037 204.97173979 168 207 C167.34 207 166.68 207 166 207 C166 207.66 166 208.32 166 209 C165.34 209 164.68 209 164 209 C164 209.66 164 210.32 164 211 C163.34 211 162.68 211 162 211 C161.72744385 211.59474121 161.4548877 212.18948242 161.17407227 212.80224609 C160.03199951 214.94009989 158.87707268 216.41611757 157.21484375 218.1640625 C156.68439453 218.72867188 156.15394531 219.29328125 155.60742188 219.875 C155.05634766 220.4525 154.50527344 221.03 153.9375 221.625 C150.03429271 225.49326309 150.03429271 225.49326309 147 230 C146.34 230 145.68 230 145 230 C145 230.66 145 231.32 145 232 C144.34 232 143.68 232 143 232 C143 232.66 143 233.32 143 234 C142.34 234 141.68 234 141 234 C140.72744385 234.59474121 140.4548877 235.18948242 140.17407227 235.80224609 C139.03199951 237.94009989 137.87707268 239.41611757 136.21484375 241.1640625 C135.68439453 241.72867188 135.15394531 242.29328125 134.60742188 242.875 C134.05634766 243.4525 133.50527344 244.03 132.9375 244.625 C129.03429271 248.49326309 129.03429271 248.49326309 126 253 C125.34 253 124.68 253 124 253 C124 253.66 124 254.32 124 255 C123.34 255 122.68 255 122 255 C122 255.66 122 256.32 122 257 C121.34 257 120.68 257 120 257 C119.67 257.99 119.34 258.98 119 260 C117.35 259.67 115.7 259.34 114 259 C114 258.34 114 257.68 114 257 C113.01 257 112.02 257 111 257 C111 256.34 111 255.68 111 255 C110.01 255 109.02 255 108 255 C108 254.34 108 253.68 108 253 C107.01 253 106.02 253 105 253 C105 252.34 105 251.68 105 251 C104.31808594 250.76410156 103.63617187 250.52820313 102.93359375 250.28515625 C99.36043929 248.71981961 96.26392085 246.63714691 93.0625 244.4375 C89.04353449 241.7063881 85.02319221 238.99215198 80.90625 236.41015625 C80.26034912 236.00418213 79.61444824 235.59820801 78.94897461 235.17993164 C77.70845724 234.40402631 76.46455024 233.63350956 75.21704102 232.86889648 C73.77734424 231.96461895 72.38302123 230.98878559 71 230 C71 229.34 71 228.68 71 228 C70.38125 227.855625 69.7625 227.71125 69.125 227.5625 C67 227 67 227 65 226 C65 225.34 65 224.68 65 224 C64.42507813 223.89316895 63.85015625 223.78633789 63.2578125 223.67626953 C60.65713281 222.89730297 59.05936844 221.79202935 56.875 220.1796875 C52.13537978 216.77460792 47.31357257 213.52488216 42.4375 210.3203125 C41.67421387 209.81844421 40.91092773 209.31657593 40.12451172 208.79949951 C38.55070145 207.76577594 36.9764778 206.73268148 35.40185547 205.70019531 C32.97622762 204.1094095 30.55247215 202.51580001 28.12890625 200.921875 C26.58604631 199.90868846 25.04308146 198.89566164 23.5 197.8828125 C22.77611084 197.40683624 22.05222168 196.93085999 21.30639648 196.44046021 C17.73771489 194.07654814 17.73771489 194.07654814 14 192 C14 191.34 14 190.68 14 190 C13.01 190 12.02 190 11 190 C11 189.34 11 188.68 11 188 C10.01 188 9.02 188 8 188 C8 187.34 8 186.68 8 186 C7.030625 185.690625 6.06125 185.38125 5.0625 185.0625 C2 184 2 184 1 183 C-0.4346959 182.90105545 -1.87440397 182.87029265 -3.3125 182.875 C-4.48232422 182.87113281 -4.48232422 182.87113281 -5.67578125 182.8671875 C-7.91251539 182.99500088 -9.85266979 183.38086131 -12 184 C-12 184.66 -12 185.32 -12 186 C-12.66 186 -13.32 186 -14 186 C-14.36738281 186.81791016 -14.36738281 186.81791016 -14.7421875 187.65234375 C-16.28072592 190.52396359 -18.14643952 192.97382593 -20.125 195.5625 C-23.98893432 200.63742505 -27.71569033 205.78729041 -31.37109375 211.015625 C-32.17740234 211.99789062 -32.17740234 211.99789062 -33 213 C-33.66 213 -34.32 213 -35 213 C-35.2475 213.721875 -35.495 214.44375 -35.75 215.1875 C-37.13986452 218.31469516 -38.77272736 220.40151525 -41 223 C-41.49113281 223.61746094 -41.98226563 224.23492187 -42.48828125 224.87109375 C-43.00777344 225.51175781 -43.52726562 226.15242187 -44.0625 226.8125 C-44.54847656 227.41707031 -45.03445313 228.02164063 -45.53515625 228.64453125 C-47 230 -47 230 -50 230 C-49.51441297 226.76275315 -48.92453053 223.76082837 -47.9375 220.6328125 C-46.13498717 213.55628064 -47.14864555 205.95063308 -47.60546875 198.734375 C-47.86465098 190.07576863 -47.86465098 190.07576863 -45.36816406 186.96972656 C-43.31648416 185.43458044 -41.25863929 184.20474877 -39 183 C-35.34853902 180.25618789 -32.56529744 177.47471237 -29.75 173.875 C-29.06421875 173.00617188 -28.3784375 172.13734375 -27.671875 171.2421875 C-25.98569444 169.1181693 -25.98569444 169.1181693 -25 167 C-24.34 167 -23.68 167 -23 167 C-22.7525 166.175 -22.505 165.35 -22.25 164.5 C-21.31021742 161.86860878 -20.35607854 159.68846989 -19.0625 157.25 C-17.01542298 153.30097456 -15.7833649 149.28549726 -14.61328125 145.00390625 C-14 143 -14 143 -13 142 C-11.13931203 135.21919046 -10.67582915 128.56035849 -10.75 121.5625 C-10.75604248 120.64452637 -10.76208496 119.72655273 -10.76831055 118.78076172 C-10.90472951 109.45631908 -11.98222678 101.49913567 -16 93 C-16.71984548 91.27559403 -17.42752646 89.54607553 -18.125 87.8125 C-18.62386719 86.58466797 -18.62386719 86.58466797 -19.1328125 85.33203125 C-19.91375914 83.23191799 -20.50810497 81.18341162 -21 79 C-21.66 79 -22.32 79 -23 79 C-23 77.02 -23 75.04 -23 73 C-22.34 73 -21.68 73 -21 73 C-20.72800781 72.2575 -20.45601563 71.515 -20.17578125 70.75 C-19.06851333 68.1602438 -17.85425517 66.2516587 -16.1875 64 C-12.95304563 59.28242997 -11.03555039 54.37034097 -9.09375 49.01171875 C-8.24615771 46.67781285 -7.34420729 44.44178042 -6.3125 42.1875 C-1.95142398 31.59631537 -1.00679725 19.89109138 -0.44140625 8.5546875 C-0.39794067 7.72831787 -0.3544751 6.90194824 -0.30969238 6.05053711 C-0.20397151 4.0338204 -0.10163431 2.01692678 0 0 Z " fill="#003060" transform="translate(457,227)"/>
<path d="M0 0 C4.09338652 -0.04939115 8.18665798 -0.08571501 12.28027344 -0.10986328 C13.67320781 -0.11992877 15.06612102 -0.13358234 16.45898438 -0.15087891 C18.4595436 -0.1751022 20.46025615 -0.18540814 22.4609375 -0.1953125 C24.26763916 -0.21102295 24.26763916 -0.21102295 26.11083984 -0.22705078 C29 0 29 0 31 2 C32.175625 2.4125 33.35125 2.825 34.5625 3.25 C45.21151221 7.10136065 56.52870817 15.96929831 62 26 C62.375 29.5 62.375 29.5 62 32 C61.05640625 32.23783203 61.05640625 32.23783203 60.09375 32.48046875 C54.65517408 33.96297213 50.30023778 35.7499361 45.69140625 39.01171875 C44 40 44 40 41 40 C41 40.66 41 41.32 41 42 C39.56640625 43.15625 39.56640625 43.15625 37.5625 44.5 C28.84247013 50.85448985 19.92437678 60.16267909 18.0625 71.1875 C17.98663151 75.81547781 18.52546559 79.14080443 21.4375 82.8125 C25.362826 85.79574776 30.31111895 85.47711421 35 85 C38.76398568 83.2880813 38.76398568 83.2880813 41 80 C41.66 80 42.32 80 43 80 C43.10441406 79.42765625 43.20882812 78.8553125 43.31640625 78.265625 C44.11159499 75.63014232 45.27901491 73.93968692 46.9375 71.75 C47.46214844 71.04359375 47.98679687 70.3371875 48.52734375 69.609375 C49.25630859 68.81273437 49.25630859 68.81273437 50 68 C50.66 68 51.32 68 52 68 C52 67.34 52 66.68 52 66 C54.23046875 64.34375 54.23046875 64.34375 57.1875 62.5 C58.15042969 61.8915625 59.11335938 61.283125 60.10546875 60.65625 C69.48407576 55.2898136 80.08408328 53.399438 90.62890625 55.83984375 C100.69870014 58.64235119 109.81514415 63.07779666 119 68 C119 68.66 119 69.32 119 70 C120.65 70.66 122.3 71.32 124 72 C124 72.66 124 73.32 124 74 C124.59167969 74.25910156 125.18335938 74.51820313 125.79296875 74.78515625 C135.67467027 80.22446452 143.70140559 95.34145451 146.87109375 105.90234375 C147.39642644 107.85537485 147.90319708 109.81354343 148.38671875 111.77734375 C148.79096192 113.95548077 148.79096192 113.95548077 150 115 C152.15590442 128.94683845 152.62250911 144.88081207 147 158 C146.56086432 159.29111149 146.12339492 160.58279079 145.6875 161.875 C143.8059717 166.82016862 141.5301956 172.03056347 138 176 C135.3046875 176.28125 135.3046875 176.28125 133 176 C133 175.34 133 174.68 133 174 C132.01 174 131.02 174 130 174 C130 173.34 130 172.68 130 172 C129.4121875 171.87238281 128.824375 171.74476563 128.21875 171.61328125 C126 171 126 171 122.5 169.1875 C111.02584639 163.32198118 99.81578602 161.82122819 87.125 161.8125 C86.19558594 161.80025391 85.26617187 161.78800781 84.30859375 161.77539062 C67.35249935 161.73991762 53.25245849 167.37302195 39.3203125 176.609375 C37 178 37 178 35 178 C35 178.66 35 179.32 35 180 C33.4609375 181.48046875 33.4609375 181.48046875 31.375 183.1875 C17.1591971 195.32599368 7.65317759 212.9267697 5.73242188 231.6015625 C5.58059889 234.17678775 5.51102679 236.73298398 5.5 239.3125 C5.49081543 240.5032312 5.49081543 240.5032312 5.48144531 241.71801758 C5.58118522 246.26449517 6.07292835 249.32045003 9 253 C13.65813763 256.10542508 18.54831164 255.74307763 24 255 C26.97361086 252.78436838 28.36959793 251.26080415 30 248 C30.15698923 246.37777795 30.27597802 244.75178968 30.375 243.125 C31.28301665 232.58650374 34.29919271 223.43877511 39 214 C39.66 214 40.32 214 41 214 C41.144375 213.38125 41.28875 212.7625 41.4375 212.125 C42 210 42 210 43 208 C43.66 208 44.32 208 45 208 C45 207.34 45 206.68 45 206 C45.66 206 46.32 206 47 206 C47 205.34 47 204.68 47 204 C47.66 204 48.32 204 49 204 C49 203.34 49 202.68 49 202 C49.66 202 50.32 202 51 202 C51 201.34 51 200.68 51 200 C54.80916387 197.34274823 58.90980676 195.19187389 63 193 C63.78890625 192.566875 64.5778125 192.13375 65.390625 191.6875 C76.15240642 186.57000953 92.71708635 186.26828411 103.94921875 189.97265625 C116.49782585 194.86928964 128.38586466 202.92201373 135 215 C135 215.99 135 216.98 135 218 C135.66 218 136.32 218 137 218 C139.85920462 224.37004192 141.7468384 230.01053853 142 237 C142.03996094 238.03511719 142.07992187 239.07023438 142.12109375 240.13671875 C142.25099789 246.71598157 141.92074386 252.69416166 140 259 C139.80535156 259.65226562 139.61070312 260.30453125 139.41015625 260.9765625 C137.48423462 266.69734745 134.57578613 272.13932136 131 277 C130.34 277 129.68 277 129 277 C128.75378906 277.57878906 128.50757813 278.15757812 128.25390625 278.75390625 C124.5800037 285.33488434 117.53250779 289.47886399 111.015625 292.83984375 C108.12888544 294.50139733 106.2047859 296.51961586 104 299 C103.67 299.33 103.34 299.66 103 300 C102.50535388 305.32695826 102.50207648 310.30826703 104.5 315.3125 C107.88783848 324.29833826 106.79662772 334.34642511 103 343 C102.71382813 343.69351562 102.42765625 344.38703125 102.1328125 345.1015625 C101.44553818 346.7444754 100.72648946 348.3740474 100 350 C99.34 350 98.68 350 98 350 C97.835 350.680625 97.67 351.36125 97.5 352.0625 C93.39047521 360.11031939 84.42134481 364.65430467 76.41796875 368.1171875 C70.70160017 369.59364384 64.84621708 369.32206186 58.96679688 369.30273438 C53.09116679 369.40365733 53.09116679 369.40365733 48.02734375 372.17578125 C45.99884746 375.00160556 44.25971612 377.80492339 42.625 380.875 C37.43294837 389.98621317 31.2860488 395.17782353 22 400 C21.29488281 400.37769531 20.58976562 400.75539063 19.86328125 401.14453125 C15.3819306 402.4834341 10.96422886 402.36876862 6.3125 402.375 C5.36955078 402.39949219 4.42660156 402.42398437 3.45507812 402.44921875 C-3.3701555 402.47736404 -8.94681697 401.2235005 -15 398 C-17 396 -17 396 -17.24839699 393.27014768 C-17.24763755 392.09529298 -17.24687811 390.92043828 -17.24609566 389.70998192 C-17.24840335 389.05427361 -17.25071103 388.39856531 -17.25308865 387.72298706 C-17.25842341 385.50438311 -17.24937608 383.28606383 -17.24050903 381.06747437 C-17.24138039 379.46944982 -17.24313008 377.87142555 -17.24568737 376.27340281 C-17.25017862 371.86547621 -17.24213293 367.45764603 -17.23213124 363.04973173 C-17.22352452 358.30261955 -17.22641493 353.55551317 -17.22793579 348.80839539 C-17.22898641 340.57815631 -17.22269139 332.34794886 -17.21146011 324.11771774 C-17.19523196 312.21807014 -17.18999986 300.31843788 -17.18748413 288.4187804 C-17.1831028 269.1141392 -17.16978184 249.80951486 -17.15087891 230.50488281 C-17.13253142 211.74804774 -17.11836939 192.99121723 -17.10986328 174.234375 C-17.10933783 173.07893316 -17.10881239 171.92349132 -17.10827102 170.73303609 C-17.10566101 164.93674181 -17.10313358 159.1404475 -17.10064721 153.34415317 C-17.07990108 105.22942378 -17.04466366 57.11471271 -17 9 C-15.29807615 8.0097347 -13.58811989 7.03326794 -11.875 6.0625 C-10.92367188 5.51722656 -9.97234375 4.97195312 -8.9921875 4.41015625 C-5.93743568 2.97051473 -3.33865613 2.39132616 0 2 C0 1.34 0 0.68 0 0 Z " fill="#003060" transform="translate(278,105)"/>
<path d="M0 0 C9.9 0 19.8 0 30 0 C30.33 0.66 30.66 1.32 31 2 C33.17311838 3.02631003 33.17311838 3.02631003 35.75 3.9375 C45.30784987 7.61569973 45.30784987 7.61569973 47 11 C47.09790896 13.07641664 47.12920193 15.15606352 47.13142776 17.23478603 C47.1334804 17.88453043 47.13553303 18.53427482 47.13764787 19.20370844 C47.14334577 21.40197317 47.14185721 23.6001758 47.14044189 25.79844666 C47.14302393 27.38195877 47.14603663 28.96547022 47.1494453 30.54898077 C47.15753744 34.91687784 47.15930609 39.28475849 47.16004276 43.65266216 C47.16188945 48.35689098 47.16943476 53.06111121 47.17617798 57.76533508 C47.18977688 68.05847707 47.19578826 78.35161518 47.20018864 88.64476466 C47.20294807 95.06678713 47.20718483 101.48880809 47.21169281 107.91082954 C47.22388682 125.67754363 47.23418632 143.44425651 47.2375679 161.21097469 C47.23789725 162.91758138 47.23789725 162.91758138 47.23823325 164.65866498 C47.23845153 165.79918242 47.23866981 166.93969987 47.2388947 168.11477846 C47.23933817 170.42604697 47.23978474 172.73731548 47.24023438 175.04858398 C47.24056652 176.76830119 47.24056652 176.76830119 47.24090537 178.52276016 C47.24485584 197.11188797 47.26231683 215.70097663 47.2855939 234.2900893 C47.30927723 253.35686791 47.32176835 272.42362684 47.32293582 291.4904204 C47.32385421 302.20320393 47.32964773 312.91593645 47.34775543 323.62870598 C47.36311566 332.74839678 47.36830106 341.86802082 47.36001733 350.98772209 C47.35609648 355.64424568 47.35710995 360.30063464 47.37107468 364.95714188 C47.38372798 369.21512137 47.38269233 373.47286389 47.37048396 377.73084266 C47.36851199 379.27591575 47.3716738 380.82100514 47.38032833 382.36605524 C47.39130681 384.45745394 47.38401596 386.54799927 47.3719368 388.63937283 C47.37253389 389.80365037 47.37313097 390.96792792 47.37374616 392.16748661 C47 395 47 395 45.59394145 396.82563978 C38.89385843 401.76202622 32.12693766 402.63470062 24 402.5 C23.06671875 402.51546875 22.1334375 402.5309375 21.171875 402.546875 C14.5840917 402.51007174 9.78355326 401.0864705 4 398 C2.66759163 397.33148661 1.3345254 396.66427718 0 396 C0 395.34 0 394.68 0 394 C-0.99 394 -1.98 394 -3 394 C-3.33 392.02 -3.66 390.04 -4 388 C-3.030625 387.649375 -2.06125 387.29875 -1.0625 386.9375 C7.48290469 383.25057137 18.470627 374.83204073 22 366 C22.46225901 361.22332358 22.49973779 358.98096677 20.3125 354.6875 C17.93322733 351.92239933 16.35634955 350.40498353 13 349 C8.8143299 348.70102356 5.07248091 349.0127319 1 350 C1 350.66 1 351.32 1 352 C0.34 352 -0.32 352 -1 352 C-1.26683594 352.59941406 -1.53367187 353.19882812 -1.80859375 353.81640625 C-5.73605909 361.01461322 -14.78975507 365.56640406 -22.26953125 368.11328125 C-33.62738081 370.81300046 -44.83750487 369.87064198 -55 364 C-59.39228816 361.17070071 -63.5865683 357.98233699 -67 354 C-67 353.34 -67 352.68 -67 352 C-67.66 352 -68.32 352 -69 352 C-71 349 -71 349 -71 346 C-71.66 346 -72.32 346 -73 346 C-76.15250328 337.44320538 -77.45638316 329.99231925 -76 321 C-75.938125 319.88625 -75.87625 318.7725 -75.8125 317.625 C-74.35606445 311.12705679 -70.66789887 305.50184831 -67 300 C-66.34 300 -65.68 300 -65 300 C-65 299.34 -65 298.68 -65 298 C-64.34 298 -63.68 298 -63 298 C-63 297.34 -63 296.68 -63 296 C-62.34 296 -61.68 296 -61 296 C-61 295.34 -61 294.68 -61 294 C-55.58823529 290 -55.58823529 290 -53 290 C-50.64659547 285.7974919 -48.36396382 281.53150823 -49.58984375 276.65234375 C-51.01552075 273.13109334 -52.41112903 270.5552212 -55.1875 267.9375 C-60.45497881 266.18167373 -64.56943459 265.87577594 -69.7109375 268.25390625 C-77.25934238 272.81043637 -84.08709332 278.63063998 -89 286 C-90.65 285.67 -92.3 285.34 -94 285 C-94 284.34 -94 283.68 -94 283 C-94.66 283 -95.32 283 -96 283 C-96 282.34 -96 281.68 -96 281 C-96.66 281 -97.32 281 -98 281 C-109.86363524 266.38803228 -112.76489986 252.70503045 -111.875 234.125 C-110.63006 223.9476155 -105.25184086 213.99983666 -99 206 C-98.34 206 -97.68 206 -97 206 C-97 205.34 -97 204.68 -97 204 C-96.34 204 -95.68 204 -95 204 C-95 203.34 -95 202.68 -95 202 C-82.39655274 191.51434511 -69.20427794 187.48205504 -53 188 C-51.77603516 188.02513672 -51.77603516 188.02513672 -50.52734375 188.05078125 C-43.56540396 188.43694273 -38.14057284 190.81564721 -32 194 C-30.824375 194.5775 -29.64875 195.155 -28.4375 195.75 C-21.7822882 199.68847075 -12.69693997 206.76776842 -10.25 214.3125 C-10.1675 214.869375 -10.085 215.42625 -10 216 C-9.34 216 -8.68 216 -8 216 C-8 217.32 -8 218.64 -8 220 C-7.34 220 -6.68 220 -6 220 C-6 221.65 -6 223.3 -6 225 C-5.34 225 -4.68 225 -4 225 C-2.46193564 230.12688121 -1.85773156 234.7664977 -1.625 240.125 C-1.2890808 245.72765232 -0.866308 248.90626212 3 253 C6.47792817 255.31861878 7.90299252 255.24272927 12 255.1875 C13.5778125 255.17783203 13.5778125 255.17783203 15.1875 255.16796875 C18.08062122 255.11707549 18.08062122 255.11707549 21 254 C21 253.34 21 252.68 21 252 C21.66 252 22.32 252 23 252 C24.24592212 247.58241378 24.18396671 243.37397401 24.1875 238.8125 C24.19974609 237.99974609 24.21199219 237.18699219 24.22460938 236.34960938 C24.23806536 230.71155071 23.66099017 225.40953426 22 220 C21.67 219.67 21.34 219.34 21 219 C20.95936168 217.33382885 20.957279 215.66611905 21 214 C20.34 214 19.68 214 19 214 C18.79246094 213.40574219 18.58492187 212.81148437 18.37109375 212.19921875 C16.10176977 206.09388267 13.20036121 200.85905631 9.5859375 195.4453125 C8.22114239 193.34097324 7.06484747 191.26675452 6 189 C5.34 189 4.68 189 4 189 C2.44921875 187.35546875 2.44921875 187.35546875 0.6875 185.1875 C-1.97567646 182.02846014 -4.34802816 179.99198464 -8 178 C-8 177.34 -8 176.68 -8 176 C-8.99 176 -9.98 176 -11 176 C-11 175.34 -11 174.68 -11 174 C-11.99 174 -12.98 174 -14 174 C-14 173.34 -14 172.68 -14 172 C-14.58910156 171.87238281 -15.17820312 171.74476563 -15.78515625 171.61328125 C-18 171 -18 171 -21.4375 169.1875 C-32.87425689 163.3301703 -44.73158187 161.8216619 -57.375 161.8125 C-58.69757813 161.79413086 -58.69757813 161.79413086 -60.046875 161.77539062 C-73.88753554 161.74494929 -87.07899974 165.56982593 -98.875 172.75 C-101 174 -101 174 -103 174 C-103 174.66 -103 175.32 -103 176 C-104.98 176 -106.96 176 -109 176 C-112.54962795 169.77631899 -115.72731536 163.61553612 -118.23828125 156.8984375 C-118.84669984 155.02231973 -118.84669984 155.02231973 -120 154 C-120.10312037 152.62940407 -120.13848953 151.25360341 -120.14526367 149.87915039 C-120.15164352 149.00476822 -120.15802338 148.13038605 -120.16459656 147.22950745 C-120.16570938 146.27849655 -120.1668222 145.32748566 -120.16796875 144.34765625 C-120.17129715 143.37718857 -120.17462555 142.40672089 -120.17805481 141.40684509 C-120.1831283 139.3497668 -120.18546301 137.29268025 -120.18530273 135.2355957 C-120.18748826 132.07945256 -120.20563691 128.92365929 -120.22460938 125.76757812 C-120.22754333 123.7734387 -120.22952811 121.77929761 -120.23046875 119.78515625 C-120.23765427 118.83616959 -120.24483978 117.88718292 -120.25224304 116.90943909 C-120.24916641 116.03190475 -120.24608978 115.15437042 -120.24291992 114.25024414 C-120.24434494 113.4760463 -120.24576996 112.70184845 -120.24723816 111.90419006 C-120 110 -120 110 -118 108 C-117.35232207 105.42938689 -117.35232207 105.42938689 -117 103 C-116.34 103 -115.68 103 -115 103 C-114.87367187 102.2575 -114.74734375 101.515 -114.6171875 100.75 C-112.97330835 93.4253739 -108.15425292 87.70573005 -103.4375 82.0625 C-102.96650879 81.49466797 -102.49551758 80.92683594 -102.01025391 80.34179688 C-99.58774012 77.51822721 -97.52548251 75.31894522 -94 74 C-94 73.34 -94 72.68 -94 72 C-91.525 71.01 -91.525 71.01 -89 70 C-89 69.34 -89 68.68 -89 68 C-86.29466468 66.53586529 -83.58599307 65.07859168 -80.875 63.625 C-79.73417969 63.00625 -79.73417969 63.00625 -78.5703125 62.375 C-72.08355519 58.90794006 -66.32012862 57.00472354 -59 56 C-58.67 55.67 -58.34 55.34 -58 55 C-44.77128252 53.88329008 -33.13831604 58.17480653 -22.375 65.87890625 C-19.9064852 68.08351733 -18.12527178 70.27836662 -16.25 73 C-15.36054688 74.2684375 -15.36054688 74.2684375 -14.453125 75.5625 C-13.12928966 77.78312702 -12.44403691 79.47600073 -12 82 C-11.34 82 -10.68 82 -10 82 C-10 82.66 -10 83.32 -10 84 C-4.19400088 85.65375795 0.65079394 86.76628658 6.3046875 84.1796875 C9.50876496 81.95012208 10.52826587 79.61801306 12 76 C12.85347463 70.02567757 10.36011455 66.21648298 7.3125 61.25 C6 59 6 59 6 57 C5.34 57 4.68 57 4 57 C2.84375 55.53125 2.84375 55.53125 1.5 53.5 C-5.61021142 43.7320882 -18.29674846 34.64212293 -30.3125 32.375 C-31.6428125 32.189375 -31.6428125 32.189375 -33 32 C-33 30.02 -33 28.04 -33 26 C-32.34 26 -31.68 26 -31 26 C-30.76410156 25.27683594 -30.52820313 24.55367187 -30.28515625 23.80859375 C-26.35985668 15.23020351 -16.2466243 7.36541415 -7.47265625 4.04296875 C-5.90894423 3.54149396 -4.33505107 3.06990967 -2.75 2.640625 C-0.78893663 2.14969241 -0.78893663 2.14969241 0 0 Z " fill="#003060" transform="translate(187,105)"/>
<path d="M0 0 C288.09 0 576.18 0 873 0 C873 21.44757033 873 21.44757033 867 28 C866.4225 29.010625 865.845 30.02125 865.25 31.0625 C864.63125 32.0215625 864.63125 32.0215625 864 33 C863.34 33 862.68 33 862 33 C862 33.66 862 34.32 862 35 C861.34 35 860.68 35 860 35 C860 35.66 860 36.32 860 37 C848.44928817 47.7519924 835.60357954 49.30888465 820.39726257 49.25168228 C819.03452244 49.25377179 817.67178343 49.25673669 816.30904686 49.26049101 C812.57186982 49.26825838 808.83479652 49.26363014 805.09762122 49.25693511 C801.02895824 49.2518534 796.96031094 49.25838483 792.8916502 49.26342177 C785.76324072 49.27064172 778.63486153 49.27042811 771.50645065 49.26532745 C760.90626003 49.25776321 750.30609497 49.26162961 739.70590451 49.26774407 C720.77409638 49.27827785 701.84230175 49.27736185 682.91049233 49.27158624 C666.34302656 49.26655671 649.77556574 49.265241 633.20809937 49.26763153 C631.56016832 49.26786069 631.56016832 49.26786069 629.87894573 49.26809447 C625.41937512 49.26871714 620.95980451 49.26935394 616.5002339 49.270014 C574.65927797 49.27613309 532.81833063 49.27058334 490.97737603 49.2598202 C453.79773827 49.25032888 416.6181142 49.25117813 379.43847656 49.26074219 C337.67443157 49.27144961 295.91039417 49.27569914 254.146348 49.26951766 C249.69486555 49.26887622 245.24338309 49.26825054 240.79190063 49.26763153 C239.69581839 49.26747338 238.59973614 49.26731522 237.47043928 49.26715227 C220.91269433 49.26487657 204.35495488 49.2675393 187.79721069 49.27259064 C168.9718238 49.27830511 150.14645252 49.27688811 131.32106757 49.26602915 C120.78295961 49.26015115 110.24488546 49.25978107 99.70677837 49.2673215 C92.66995968 49.27180167 85.63316812 49.26902343 78.59635345 49.26031196 C74.58560419 49.25554908 70.57492217 49.2539388 66.56417501 49.26112393 C62.91329464 49.26759771 59.26254096 49.26482073 55.61166976 49.2547626 C53.68472974 49.251808 51.75778223 49.25862254 49.83085358 49.26587117 C40.53807995 49.22569198 32.02749126 48.68287946 23.875 43.875 C22.94429687 43.33617187 22.01359375 42.79734375 21.0546875 42.2421875 C20.37664062 41.83226562 19.69859375 41.42234375 19 41 C19 40.34 19 39.68 19 39 C18.40832031 38.72671875 17.81664062 38.4534375 17.20703125 38.171875 C8.60735136 33.60567329 4.49976342 24.65035865 1 16 C-0.69346804 10.14132121 -1.20510823 6.02554113 0 0 Z " fill="#003060" transform="translate(140,820)"/>
<path d="M0 0 C1.28115488 -0.00583219 2.56230975 -0.01166439 3.8822875 -0.01767331 C5.31742748 -0.01403955 6.75256698 -0.01021514 8.18770599 -0.00622082 C9.70181038 -0.0092386 11.21591324 -0.0131262 12.73001337 -0.01781338 C16.90603706 -0.02815016 21.08197546 -0.02589722 25.25800633 -0.02163279 C29.75567519 -0.01917583 34.25332295 -0.02816681 38.75098419 -0.03567028 C47.56797606 -0.04844777 56.38493751 -0.05020721 65.20193708 -0.04787002 C72.36482481 -0.04609022 79.52770328 -0.0478292 86.6905899 -0.05209446 C88.21715363 -0.05298724 88.21715363 -0.05298724 89.77455702 -0.05389806 C91.8417215 -0.05510975 93.90888597 -0.05632389 95.97605044 -0.05754044 C115.38042477 -0.06842758 134.78478175 -0.06624784 154.18915707 -0.06015559 C171.96094862 -0.05498446 189.7326854 -0.06624497 207.50446612 -0.08525381 C225.73164431 -0.10460105 243.95879655 -0.11289376 262.18598509 -0.10913056 C272.42756928 -0.10721389 282.66910683 -0.10975128 292.91068268 -0.1238451 C301.62856424 -0.13572022 310.34637045 -0.13720746 319.06425297 -0.12505493 C323.51609944 -0.1191391 327.9678078 -0.11814085 332.41964531 -0.13005733 C336.48945601 -0.14082507 340.5590118 -0.13792285 344.62881011 -0.12379565 C346.10656871 -0.12112336 347.58434671 -0.12359353 349.0620864 -0.13153151 C351.05998012 -0.1415245 353.05794481 -0.1314927 355.05583191 -0.12025452 C356.72535486 -0.12033704 356.72535486 -0.12033704 358.42860556 -0.12042123 C359.28637799 0.00329472 360.14415042 0.12701067 361.02791595 0.25447559 C363.02791595 3.25447559 363.02791595 3.25447559 363.02791595 6.25447559 C363.68791595 6.25447559 364.34791595 6.25447559 365.02791595 6.25447559 C365.41270111 6.95056934 365.41270111 6.95056934 365.8052597 7.66072559 C367.20901496 10.19410209 368.61803401 12.72450268 370.02791595 15.25447559 C370.37096771 15.8708086 370.71401947 16.48714161 371.06746674 17.12215137 C372.21870309 19.18835727 373.3726101 21.25304247 374.52791595 23.31697559 C374.91769623 24.01395557 375.3074765 24.71093555 375.7090683 25.42903614 C377.74208808 29.04315075 379.82952445 32.58868097 382.09041595 36.06697559 C384.02791595 39.25447559 384.02791595 39.25447559 384.02791595 42.25447559 C384.68791595 42.25447559 385.34791595 42.25447559 386.02791595 42.25447559 C386.36822845 42.88611622 386.70854095 43.51775684 387.05916595 44.16853809 C387.54385345 45.06314747 388.02854095 45.95775684 388.52791595 46.87947559 C389.06674408 47.87463184 389.6055722 48.86978809 390.16072845 49.89510059 C391.47821614 52.26547592 392.81701431 54.60014079 394.20760345 56.92635059 C394.57176361 57.5417168 394.93592377 58.15708302 395.31111908 58.79109669 C396.02746267 59.99728345 396.75247389 61.19837325 397.48690033 62.39363575 C399.51366652 65.82590305 400.79839626 68.2757658 400.02791595 72.25447559 C398.45589453 75.36161751 398.45589453 75.36161751 396.02791595 78.25447559 C393.30000859 78.87299338 391.43309489 79.05998557 388.70369625 79.0011425 C387.58885986 79.01287528 387.58885986 79.01287528 386.45150152 79.02484509 C383.94653804 79.0438226 381.44380946 79.0198169 378.93891144 78.99619007 C377.1309262 79.00095247 375.32294629 79.00834141 373.51498133 79.0181393 C368.53566247 79.03743042 363.55707225 79.01913787 358.57780111 78.99484646 C353.21236812 78.97515297 347.84701829 78.9899526 342.48157501 79.00049305 C331.96661208 79.01563716 321.45193163 78.99867197 310.93700378 78.97094215 C298.70168649 78.9398318 286.46643073 78.9399996 274.23108131 78.94145989 C252.40638244 78.94296267 230.58181533 78.91545187 208.757164 78.87190723 C187.56085052 78.82963792 166.36465302 78.80839506 145.16829681 78.8103838 C143.86273985 78.81050367 142.55718289 78.81062353 141.2120636 78.81074703 C139.25717348 78.81092863 139.25717348 78.81092863 137.26279062 78.81111389 C113.15805167 78.81318159 89.05336217 78.79552438 64.94863923 78.76865425 C56.41197765 78.75959182 47.87532514 78.75641399 39.33865929 78.75505733 C28.94173287 78.75301429 18.54488978 78.73966727 8.14799874 78.71205891 C2.83934663 78.69817519 -2.46919867 78.68907931 -7.77787018 78.69284153 C-12.63162217 78.69611465 -17.48513747 78.68564577 -22.33884006 78.66389596 C-24.10053036 78.65843388 -25.86224496 78.65808643 -27.6239363 78.66319782 C-30.00747771 78.66935086 -32.39023283 78.65727763 -34.77370548 78.64037895 C-35.46738435 78.64654491 -36.16106323 78.65271086 -36.87576267 78.65906367 C-39.71627039 78.62194413 -41.55146883 78.55520136 -43.89927763 76.87659687 C-45.38880168 74.62438378 -45.33697962 72.99721057 -45.28458405 70.31697559 C-45.28071686 69.46232716 -45.27684967 68.60767872 -45.2728653 67.72713184 C-44.95988545 65.15419367 -44.26781782 63.47942085 -42.97208405 61.25447559 C-42.31208405 61.25447559 -41.65208405 61.25447559 -40.97208405 61.25447559 C-40.86895905 60.69888966 -40.76583405 60.14330372 -40.65958405 59.57088184 C-39.8301523 56.77626238 -38.52009986 54.6591258 -36.97208405 52.19197559 C-35.28412058 49.49366861 -33.98159043 47.28299475 -32.97208405 44.25447559 C-32.31208405 44.25447559 -31.65208405 44.25447559 -30.97208405 44.25447559 C-30.87927155 43.71951466 -30.78645905 43.18455372 -30.69083405 42.63338184 C-29.74294679 39.4960811 -28.16636637 36.99379084 -26.47208405 34.19197559 C-23.87065964 29.88582824 -23.87065964 29.88582824 -21.97208405 25.25447559 C-21.31208405 25.25447559 -20.65208405 25.25447559 -19.97208405 25.25447559 C-19.86895905 24.71822559 -19.76583405 24.18197559 -19.65958405 23.62947559 C-18.79115708 20.62945516 -17.41588108 18.0165221 -15.97208405 15.25447559 C-15.31208405 15.25447559 -14.65208405 15.25447559 -13.97208405 15.25447559 C-13.75552155 14.35728809 -13.75552155 14.35728809 -13.53458405 13.44197559 C-13.08484015 11.69297155 -12.54316064 9.96770537 -11.97208405 8.25447559 C-11.31208405 8.25447559 -10.65208405 8.25447559 -9.97208405 8.25447559 C-9.68333405 7.30572559 -9.39458405 6.35697559 -9.09708405 5.37947559 C-7.16276228 0.00635958 -5.37190257 0.00418345 0 0 Z " fill="#003060" transform="translate(399.97208404541016,896.7455244064331)"/>
</svg>
