<?xml version="1.0" encoding="UTF-8"?>
<svg version="1.1" xmlns="http://www.w3.org/2000/svg" width="1080" height="1080">
<path d="M0 0 C1.75754843 -0.00174603 3.51509584 -0.00525153 5.27263772 -0.01035666 C10.08444605 -0.01927416 14.89589628 -0.00333746 19.70765901 0.01675558 C24.90316874 0.03406277 30.098659 0.02818156 35.29418945 0.02514648 C44.28989046 0.02305119 53.28547523 0.03557916 62.281147 0.05809784 C75.28728773 0.09063461 88.29337237 0.10102658 101.29954939 0.10604981 C122.40223591 0.11479981 143.50486051 0.14140745 164.60751343 0.17926025 C185.10425507 0.21598793 205.60097989 0.244296 226.0977478 0.2612915 C227.36160669 0.2623424 228.62546558 0.26339329 229.92762323 0.26447603 C236.26816299 0.26969626 242.60870287 0.27475107 248.94924283 0.27972364 C301.53312973 0.32117653 354.11694941 0.39161699 406.70077515 0.48101807 C406.70224171 1.61261856 406.70370827 2.74421906 406.70521927 3.91011047 C406.74181344 31.44380996 406.80126204 58.9773878 406.88467789 86.51098633 C406.92448805 99.82604481 406.95687052 113.14100405 406.97177124 126.45611572 C406.98477746 138.06148739 407.01171597 149.66672874 407.05538821 161.27202702 C407.07802596 167.41701605 407.09368442 173.56184423 407.092659 179.70687866 C407.09191377 185.49188098 407.1098099 191.27652737 407.14194298 197.06143761 C407.150455 199.1834113 407.1521831 201.30542486 407.14657784 203.42740822 C407.13993623 206.32834317 407.15786296 209.22814626 407.18179321 212.12896729 C407.1740328 212.96556413 407.16627238 213.80216097 407.1582768 214.66410923 C407.24122036 220.35732847 408.33850363 224.80822248 411.70077515 229.48101807 C416.51453523 233.92412909 420.70167971 234.05655685 426.9262085 234 C427.84605077 234.00750125 428.76589305 234.0150025 429.71360934 234.02273107 C432.79077886 234.04300433 435.8672113 234.03490612 438.94442749 234.0269165 C441.1521884 234.03565169 443.35994298 234.04613727 445.56768799 234.0582428 C451.55892742 234.08612987 457.54996055 234.08950687 463.54125547 234.08852291 C469.80334831 234.09164966 476.06534791 234.11726294 482.32739258 234.14050293 C492.83710205 234.17647319 503.34677578 234.19856987 513.85653687 234.21002197 C524.68014033 234.2218541 535.50367495 234.24205782 546.32723999 234.27349854 C547.32850599 234.27640269 547.32850599 234.27640269 548.34999959 234.27936551 C551.69880816 234.28913024 555.04761622 234.29905932 558.39642406 234.30907011 C586.16450964 234.3914988 613.93259266 234.4455724 641.70077515 234.48101807 C641.79235261 275.07688607 641.86282502 315.67274059 641.90503646 356.26869126 C641.91003922 361.06261157 641.91521652 365.85653166 641.92050171 370.65045166 C641.92207557 372.08201209 641.92207557 372.08201209 641.92368123 373.54249294 C641.94108123 388.99076717 641.9726167 404.43898179 642.00938633 419.88722067 C642.046807 435.74133921 642.06901338 451.59542657 642.07712913 467.44958746 C642.08261456 477.23059659 642.09993298 487.01143722 642.13244101 496.79239447 C642.15360279 503.50172749 642.15997142 510.21097353 642.15478066 516.92033748 C642.15222146 520.78995104 642.15611404 524.65927038 642.17759705 528.52883148 C642.20074688 532.72942417 642.1927084 536.92939322 642.18179321 541.1300354 C642.19927026 542.95399796 642.19927026 542.95399796 642.21710038 544.81480825 C642.17144201 551.31940275 641.45590392 556.36833752 638.65652061 562.2746073 C637.62255247 564.66160105 637.13067689 566.92202696 636.70077515 569.48101807 C636.04077515 569.48101807 635.38077515 569.48101807 634.70077515 569.48101807 C634.70077515 570.80101807 634.70077515 572.12101807 634.70077515 573.48101807 C625.93333329 577.26008783 625.93333329 577.26008783 620.70077515 575.48101807 C618.17888565 574.07083629 615.72986244 572.5696287 613.27890015 571.03961182 C602.02138876 564.23393448 590.51062328 561.7716717 577.63827515 564.73101807 C561.31948888 569.22848381 550.79766478 582.15206064 539.12191772 593.76470947 C537.62830519 595.24673096 536.1302182 596.7242561 534.6277771 598.19732666 C532.42729759 600.35497853 530.24051975 602.5257279 528.0562439 604.69976807 C527.39158615 605.34691772 526.72692841 605.99406738 526.04212952 606.66082764 C521.56876859 611.15502692 518.50102946 615.79711524 515.70077515 621.48101807 C515.04077515 621.48101807 514.38077515 621.48101807 513.70077515 621.48101807 C513.55640015 622.38851807 513.41202515 623.29601807 513.26327515 624.23101807 C512.70077515 627.48101807 512.70077515 627.48101807 512.17831421 629.41973877 C511.31985167 633.12525986 511.47424842 636.88051786 511.45077515 640.66851807 C511.43015015 641.48127197 511.40952515 642.29402588 511.38827515 643.13140869 C511.32860791 652.50662336 514.76104064 660.0077131 518.82577515 668.29351807 C519.54009255 669.75671661 520.25115192 671.22151121 520.95858765 672.68804932 C521.26941284 673.32202637 521.58023804 673.95600342 521.90048218 674.60919189 C522.72798405 676.54465769 523.24551173 678.42892246 523.70077515 680.48101807 C523.04077515 680.48101807 522.38077515 680.48101807 521.70077515 680.48101807 C521.55640015 681.42976807 521.41202515 682.37851807 521.26327515 683.35601807 C520.70077515 686.48101807 520.70077515 686.48101807 519.70077515 688.48101807 C517.6265564 689.22711182 517.6265564 689.22711182 515.01327515 689.91851807 C512.02068985 690.76084405 509.49273575 691.58503777 506.70077515 692.98101807 C504.02421823 694.31929652 501.82254456 694.9996979 498.95077515 695.73101807 C490.97938486 698.01887933 484.56129682 702.79780077 479.70077515 709.48101807 C479.04077515 709.48101807 478.38077515 709.48101807 477.70077515 709.48101807 C477.57573608 710.06625244 477.45069702 710.65148682 477.3218689 711.25445557 C476.70678863 713.45946029 475.88343634 715.11931708 474.76327515 717.10601807 C470.46913701 725.56202559 470.40084531 734.61286152 470.43515015 743.91851807 C470.43323669 745.07923828 470.43132324 746.2399585 470.42935181 747.43585205 C470.42799806 749.87636534 470.43163749 752.31688603 470.44003296 754.75738525 C470.4507437 758.47011658 470.44010963 762.1823641 470.42733765 765.89508057 C470.42865938 768.27789412 470.43122207 770.66070738 470.43515015 773.04351807 C470.42907745 774.69081909 470.42907745 774.69081909 470.42288208 776.37139893 C470.51018261 790.88504205 473.84088895 801.64683482 483.70077515 812.48101807 C492.15365206 820.46254497 501.86153738 823.35680657 512.81796265 826.55133057 C519.13226926 828.58765167 519.13226926 828.58765167 521.45077515 832.23101807 C523.0179775 836.30574418 523.62450412 839.20722366 521.9390564 843.35601807 C520.59724485 846.07146278 519.13516469 848.70912883 517.6499939 851.34820557 C511.28331536 863.19661891 509.40794427 877.83717728 512.82577515 890.91851807 C514.33821385 895.20979151 516.63654149 898.80210041 519.2984314 902.47320557 C520.65205516 904.41126298 521.69917403 906.34363004 522.70077515 908.48101807 C523.36077515 908.48101807 524.02077515 908.48101807 524.70077515 908.48101807 C526.21640015 910.05523682 526.21640015 910.05523682 527.95077515 912.16851807 C530.20153243 914.8345094 532.4012706 917.19111898 535.13827515 919.35601807 C535.98390015 920.05726807 536.82952515 920.75851807 537.70077515 921.48101807 C537.70077515 922.14101807 537.70077515 922.80101807 537.70077515 923.48101807 C538.36077515 923.48101807 539.02077515 923.48101807 539.70077515 923.48101807 C539.70077515 924.14101807 539.70077515 924.80101807 539.70077515 925.48101807 C540.36077515 925.48101807 541.02077515 925.48101807 541.70077515 925.48101807 C541.70077515 926.14101807 541.70077515 926.80101807 541.70077515 927.48101807 C542.36077515 927.48101807 543.02077515 927.48101807 543.70077515 927.48101807 C545.07577515 928.87945557 545.07577515 928.87945557 546.70077515 930.85601807 C549.62858822 934.2922171 552.65928633 937.57504213 555.82577515 940.79351807 C556.63272827 941.61465088 557.4396814 942.43578369 558.27108765 943.28179932 C560.63454025 945.5668016 560.63454025 945.5668016 563.50546265 947.14898682 C564.22991577 947.58855713 564.9543689 948.02812744 565.70077515 948.48101807 C565.70077515 949.14101807 565.70077515 949.80101807 565.70077515 950.48101807 C566.23702515 950.60476807 566.77327515 950.72851807 567.32577515 950.85601807 C569.70077515 951.48101807 569.70077515 951.48101807 572.14608765 952.49664307 C577.10491197 953.86985596 581.82838064 953.84942554 586.95077515 953.85601807 C587.93690796 953.88051025 588.92304077 953.90500244 589.9390564 953.93023682 C597.02161153 953.95823111 602.34277993 952.54153485 608.70077515 949.48101807 C610.27085327 948.76365479 610.27085327 948.76365479 611.87265015 948.03179932 C612.7234314 947.6231665 613.57421265 947.21453369 614.45077515 946.79351807 C620.19974625 944.18914546 623.98333021 942.69631738 630.07577515 944.91851807 C631.27202515 945.43414307 632.46827515 945.94976807 633.70077515 946.48101807 C633.37077515 948.46101807 633.04077515 950.44101807 632.70077515 952.48101807 C632.04077515 952.48101807 631.38077515 952.48101807 630.70077515 952.48101807 C630.70077515 953.14101807 630.70077515 953.80101807 630.70077515 954.48101807 C630.04077515 954.48101807 629.38077515 954.48101807 628.70077515 954.48101807 C628.70077515 955.14101807 628.70077515 955.80101807 628.70077515 956.48101807 C628.04077515 956.48101807 627.38077515 956.48101807 626.70077515 956.48101807 C626.70077515 957.14101807 626.70077515 957.80101807 626.70077515 958.48101807 C626.04077515 958.48101807 625.38077515 958.48101807 624.70077515 958.48101807 C624.70077515 959.14101807 624.70077515 959.80101807 624.70077515 960.48101807 C622.65390015 961.91851807 622.65390015 961.91851807 619.95077515 963.48101807 C618.62819702 964.25445557 618.62819702 964.25445557 617.27890015 965.04351807 C616.4281189 965.51789307 615.57733765 965.99226807 614.70077515 966.48101807 C614.08123864 966.83544839 613.46170212 967.18987871 612.82339178 967.55504934 C610.42449337 968.60154303 608.76961743 968.73208324 606.16078401 968.73401773 C605.24792496 968.73953722 604.33506592 968.7450567 603.39454448 968.75074345 C602.393393 968.74663281 601.39224151 968.74252217 600.36075211 968.73828697 C598.75684594 968.74354608 598.75684594 968.74354608 597.12053764 968.74891144 C593.50711631 968.75827809 589.89385429 968.75328855 586.28042603 968.7484436 C583.67580017 968.75217721 581.07117544 968.75677757 578.4665525 968.76217425 C572.78781274 968.77249529 567.10910709 968.7753144 561.43035889 968.77326202 C552.98580484 968.77021747 544.54128867 968.77852391 536.09674198 968.78901128 C520.13823456 968.80837593 504.17973997 968.81398042 488.22122219 968.81512539 C475.89872791 968.81604371 463.57623867 968.82015641 451.25374603 968.82652664 C447.70948276 968.82832167 444.16521947 968.8301013 440.62095618 968.8318764 C439.29936089 968.83253954 439.29936089 968.83253954 437.95106671 968.83321608 C413.16039306 968.84552852 388.36972118 968.85341681 363.57904434 968.85252953 C362.64394247 968.85249837 361.7088406 968.85246721 360.7454023 968.85243511 C356.00569017 968.85226889 351.26597803 968.85207081 346.52626589 968.85186569 C345.58490696 968.8518258 344.64354803 968.85178591 343.67366307 968.85174481 C341.77000465 968.85166394 339.86634622 968.85158034 337.9626878 968.85149403 C308.34313739 968.85026845 278.72363277 968.86528136 249.10409546 968.89263916 C215.84260178 968.923348 182.58113819 968.94057236 149.31962943 968.93871272 C145.77410873 968.93856345 142.22858803 968.93846604 138.68306732 968.93840408 C137.37352874 968.93836912 137.37352874 968.93836912 136.03753484 968.93833345 C121.97652119 968.93827186 107.91554723 968.95105413 93.85454538 968.96826861 C79.72682081 968.98520724 65.59915442 968.98721286 51.47142532 968.97404997 C43.07467478 968.96664883 34.67810073 968.97035337 26.28136882 968.98993465 C20.01673545 969.00331138 13.75229124 968.99585538 7.48766682 968.98018821 C4.94930169 968.9771004 2.4109176 968.98081706 -0.12742516 968.99190836 C-3.57054591 969.00596036 -7.01274837 968.9954963 -10.45583725 968.97879601 C-11.44762407 968.98873236 -12.43941089 968.99866872 -13.46125185 969.00890619 C-24.93139925 968.890813 -32.95359078 962.82665214 -40.86953735 954.91070557 C-47.29922485 947.99727982 -47.29922485 947.99727982 -47.29922485 944.48101807 C-47.95922485 944.48101807 -48.61922485 944.48101807 -49.29922485 944.48101807 C-53.61532978 936.1631099 -53.86592168 928.46776306 -53.80258942 919.2540741 C-53.80676693 917.71396549 -53.81269562 916.17386082 -53.82020688 914.63376486 C-53.83576354 910.40403984 -53.82647395 906.17468071 -53.81309507 901.94496174 C-53.80294218 897.34244938 -53.81599033 892.73999281 -53.8260684 888.13748837 C-53.84051602 880.07176682 -53.84007639 872.00615236 -53.82987976 863.94042587 C-53.81475827 851.94648295 -53.82248039 839.95263047 -53.83471299 827.95868817 C-53.85578603 806.53833432 -53.85394638 785.11802817 -53.84239734 763.69766977 C-53.83234013 744.95250431 -53.82970597 726.20735633 -53.83448792 707.46218872 C-53.83479346 706.21938796 -53.835099 704.97658719 -53.83541379 703.6961258 C-53.83665912 698.65135266 -53.83793272 693.60657953 -53.83925285 688.56180641 C-53.84835764 653.34914974 -53.84995971 618.13649843 -53.83499908 582.92384338 C-53.83471809 582.26020088 -53.83443709 581.59655838 -53.83414758 580.9128055 C-53.82956781 570.13574216 -53.82468995 559.35867895 -53.81978689 548.58161576 C-53.8003616 505.83875652 -53.80126321 463.0959474 -53.82070923 420.35308838 C-53.82559401 409.58145655 -53.83043822 398.80982472 -53.83499908 388.03819275 C-53.83528088 387.37494039 -53.83556267 386.71168803 -53.835853 386.02833712 C-53.85096198 350.22115534 -53.84763029 314.41397646 -53.83826017 278.6067934 C-53.83697728 273.57114475 -53.83572592 268.53549608 -53.83448792 263.49984741 C-53.83417161 262.25991751 -53.8338553 261.01998762 -53.8335294 259.74248409 C-53.82897709 241.00785027 -53.83430513 222.27323586 -53.84440613 203.53860474 C-53.85583261 182.23919157 -53.85300638 160.93983362 -53.83128315 139.64042735 C-53.81952295 127.71589628 -53.81879295 115.79148471 -53.83386785 103.86695669 C-53.84282322 95.90598047 -53.83728084 87.94510025 -53.81984877 79.98413827 C-53.81031592 75.44550877 -53.80711674 70.90711705 -53.8214727 66.36849487 C-53.83440295 62.23856467 -53.82889215 58.10908296 -53.80875006 53.97918539 C-53.80472549 52.49546124 -53.80737532 51.01169987 -53.81757382 49.52800532 C-53.89032602 38.13426613 -52.22661586 29.71522477 -45.23672485 20.54351807 C-44.56512329 19.64761963 -43.89352173 18.75172119 -43.2015686 17.82867432 C-40.16827984 14.08533439 -40.16827984 14.08533439 -38.29922485 12.48101807 C-37.63922485 12.48101807 -36.97922485 12.48101807 -36.29922485 12.48101807 C-36.29922485 11.82101807 -36.29922485 11.16101807 -36.29922485 10.48101807 C-31.00510721 6.48101807 -31.00510721 6.48101807 -27.29922485 6.48101807 C-27.29922485 5.82101807 -27.29922485 5.16101807 -27.29922485 4.48101807 C-18.47559937 -0.3130946 -9.73256851 -0.07203351 0 0 Z M45.76327515 118.60601807 C44.26814077 122.65167578 44.01080588 126.22120779 44.70077515 130.48101807 C46.70578395 134.28362097 48.12763777 136.09892648 51.70077515 138.48101807 C53.93126665 138.77857475 53.93126665 138.77857475 56.4427824 138.72711372 C57.91476826 138.73308687 57.91476826 138.73308687 59.41649121 138.73918068 C60.49721821 138.733355 61.57794521 138.72752932 62.69142151 138.7215271 C64.41035841 138.72409037 64.41035841 138.72409037 66.16402131 138.72670543 C69.34974421 138.72943552 72.53530538 138.72316446 75.72100914 138.71314931 C79.15452633 138.70452854 82.5880357 138.70743399 86.02156067 138.70895386 C91.97199995 138.71000358 97.92239545 138.70371788 103.87282372 138.69247818 C112.4761834 138.67623795 121.07952187 138.67101669 129.68289522 138.6685022 C143.64060874 138.66412277 157.59829892 138.65080696 171.55599976 138.63189697 C185.11621992 138.61354458 198.67643375 138.59938494 212.23666382 138.59088135 C213.49001971 138.59009318 213.49001971 138.59009318 214.76869591 138.58928908 C218.96042392 138.58667905 223.15215197 138.58415162 227.34388006 138.58166528 C262.1295284 138.56092507 296.91514962 138.52569281 331.70077515 138.48101807 C331.70077515 137.82101807 331.70077515 137.16101807 331.70077515 136.48101807 C332.31952515 136.39851807 332.93827515 136.31601807 333.57577515 136.23101807 C335.80948061 135.68316675 335.80948061 135.68316675 336.8062439 133.80523682 C338.57712639 129.20403559 338.35418559 124.31229526 337.70077515 119.48101807 C335.06900419 115.75267588 333.09460536 114.29757183 328.70077515 113.48101807 C327.11879066 113.39109202 325.53351396 113.3519785 323.94897747 113.3495903 C322.99087978 113.34574916 322.03278209 113.34190801 321.04565114 113.33795047 C319.47111069 113.33925019 319.47111069 113.33925019 317.86476135 113.34057617 C316.74738927 113.33760505 315.63001718 113.33463393 314.47878534 113.33157277 C310.72098732 113.32287586 306.96322112 113.32137668 303.20541382 113.31988525 C300.51670684 113.31525782 297.82800277 113.31025392 295.13929749 113.30484009 C287.82524968 113.29126214 280.51120735 113.285233 273.19714904 113.28082943 C268.63008683 113.27806632 264.06302674 113.27382885 259.49596596 113.26932526 C246.85045982 113.25713371 234.20495537 113.2468339 221.55944347 113.24345016 C220.75021941 113.2432306 219.94099534 113.24301103 219.10724934 113.24278481 C218.2960942 113.24256654 217.48493907 113.24234826 216.64920348 113.24212337 C215.00550536 113.2416799 213.36180725 113.24123334 211.71810913 113.24078369 C210.49511373 113.24045155 210.49511373 113.24045155 209.24741135 113.24011269 C196.03478905 113.23616428 182.82222189 113.21870844 169.60962089 113.19542417 C156.04365939 113.17171017 142.47772555 113.15924831 128.91174299 113.15808225 C121.29523389 113.15716556 113.67879666 113.15141472 106.06230736 113.13326263 C99.57708155 113.11786104 93.09194982 113.11274154 86.6067092 113.12100074 C83.29847245 113.12490697 79.99046473 113.12234632 76.68224335 113.10994339 C73.09391177 113.09727825 69.50606777 113.10307162 65.91773987 113.11352539 C64.8747384 113.10546899 63.83173694 113.09741258 62.75712937 113.08911204 C56.19185605 113.13390259 50.4446005 113.47166123 45.76327515 118.60601807 Z M46.32577515 220.23101807 C44.3314455 224.21967735 43.84574877 227.10991386 44.70077515 231.48101807 C47.15515322 236.48417336 49.54707686 238.50865162 54.70077515 240.48101807 C58.39429092 240.91414309 62.06187725 240.89008957 65.77729797 240.86869812 C67.45591938 240.87677643 67.45591938 240.87677643 69.16845232 240.88501793 C72.92014233 240.899331 76.67148118 240.89218529 80.42318726 240.8850708 C83.11219908 240.8907726 85.80118564 240.89763541 88.4901886 240.90586853 C95.03700488 240.92305775 101.58372519 240.92389632 108.13055819 240.91865563 C113.45216163 240.91461298 118.77373673 240.9160586 124.09533882 240.92140388 C124.8529538 240.92215231 125.61056878 240.92290073 126.39114179 240.92367183 C127.93027048 240.92520332 129.46939915 240.92674167 131.00852782 240.9282868 C145.43956723 240.94201224 159.8705524 240.93657381 174.30159057 240.92510159 C187.50118111 240.91516874 200.70063149 240.92811065 213.90020042 240.95203578 C227.45719754 240.97642344 241.01412936 240.9860355 254.57114798 240.97938305 C262.18093127 240.97589014 269.79060676 240.97812764 277.40037346 240.99563408 C283.87826725 241.0103519 290.35597731 241.01099709 296.83386748 240.99356317 C300.13811988 240.9850472 303.44197626 240.98508366 306.74622345 240.99821472 C310.33021633 241.01137099 313.91331458 240.99992322 317.49726868 240.98222351 C318.5389059 240.99182852 319.58054313 241.00143352 320.65374511 241.01132959 C326.87466468 240.9480408 330.6221727 240.15165696 335.70077515 236.48101807 C337.96130631 233.45041584 337.97120837 230.69986527 337.95077515 226.98101807 C337.9559314 226.04258057 337.96108765 225.10414307 337.96640015 224.13726807 C337.67523642 221.22563079 337.45065147 219.8270061 335.70077515 217.48101807 C329.67517587 213.12679979 324.79891837 212.91053601 317.49726868 212.9730835 C316.37662775 212.96684353 315.25598683 212.96060357 314.10138708 212.95417452 C310.35036619 212.93823353 306.5999941 212.95085381 302.84896851 212.96343994 C300.15817877 212.95801935 297.46743358 212.95104169 294.7766571 212.94219971 C288.22961264 212.92442956 281.68275177 212.92824751 275.13570016 212.93985027 C269.81458337 212.9488895 264.49351798 212.95010648 259.17239571 212.945755 C258.41462749 212.94514207 257.65685928 212.94452914 256.87612839 212.94389763 C255.3366755 212.94261872 253.79722263 212.94132186 252.25776977 212.94000727 C237.82864284 212.92860608 223.39961764 212.94170831 208.97050739 212.96320873 C196.59172737 212.98108294 184.21309739 212.9779721 171.83432007 212.95953369 C157.45473608 212.93812504 143.07524118 212.92970087 128.69564348 212.94198275 C127.16220861 212.94325693 125.62877372 212.94451441 124.09533882 212.945755 C122.96365328 212.94668066 122.96365328 212.94668066 121.80910541 212.94762501 C116.49434234 212.95107766 111.17963582 212.94525149 105.86488152 212.93583679 C99.38807172 212.92461563 92.91145583 212.92765933 86.43466824 212.94895977 C83.13053928 212.9594683 79.82680016 212.96144051 76.52266312 212.95036316 C72.94055062 212.93945967 69.35935198 212.95311007 65.77729797 212.9730835 C64.73343003 212.96416061 63.68956208 212.95523772 62.61406177 212.94604445 C55.00009928 213.02859598 51.40095528 214.3544937 46.32577515 220.23101807 Z M46.70077515 320.48101807 C43.88505937 324.79426421 44.02547504 329.50469944 44.70077515 334.48101807 C46.36333938 337.60916993 46.36333938 337.60916993 48.70077515 339.48101807 C49.36077515 339.48101807 50.02077515 339.48101807 50.70077515 339.48101807 C50.70077515 340.14101807 50.70077515 340.80101807 50.70077515 341.48101807 C96.96392209 341.56658892 143.22707601 341.64619472 189.49028015 341.69273376 C190.17472231 341.69342405 190.85916447 341.69411434 191.5643473 341.69482554 C206.43824118 341.70978922 221.31213589 341.72364025 236.18603186 341.73634471 C243.47992759 341.74258153 250.7738231 341.74906428 258.06771851 341.75567627 C259.15647814 341.75665696 259.15647814 341.75665696 260.26723291 341.75765747 C283.80419548 341.77897354 307.34109812 341.81653702 330.87802437 341.86250417 C355.06032724 341.90964608 379.24259694 341.94044038 403.42494499 341.95059302 C406.83860795 341.95203384 410.25227079 341.95366203 413.66593361 341.95540428 C414.33780763 341.9557414 415.00968165 341.95607851 415.70191548 341.95642584 C426.52795307 341.96234008 437.35388823 341.98554552 448.17988401 342.01517824 C459.05720786 342.04458385 469.93442507 342.05546019 480.81178679 342.04852495 C486.70807516 342.04531188 492.60406229 342.05035184 498.50029755 342.07704544 C503.89346918 342.10128418 509.2861355 342.10266666 514.67932985 342.08551254 C516.63500146 342.08339081 518.59070395 342.0898125 520.54631432 342.10543398 C523.19666616 342.12538168 525.84517285 342.11476131 528.49549389 342.09625721 C529.2620707 342.10939228 530.02864752 342.12252735 530.81845394 342.13606045 C534.85897786 342.07192332 536.50928772 341.64171661 539.65110523 339.00506562 C540.3274963 338.17212993 541.00388737 337.33919423 541.70077515 336.48101807 C542.03077515 336.15101807 542.36077515 335.82101807 542.70077515 335.48101807 C543.57800082 328.31309732 543.57800082 328.31309732 541.6187439 321.60992432 C540.14510892 320.11091679 540.14510892 320.11091679 537.70077515 318.48101807 C537.37077515 318.15101807 537.04077515 317.82101807 536.70077515 317.48101807 C534.12478295 317.37939794 531.57547083 317.34371455 528.99885845 317.3495903 C528.17835338 317.34753767 527.35784831 317.34548503 526.51247945 317.3433702 C523.72730423 317.33765735 520.94217779 317.33916268 518.15699768 317.34057617 C516.15433183 317.33799498 514.1516665 317.33498252 512.1490019 317.33157277 C506.61781626 317.32347052 501.08664357 317.32171141 495.5554527 317.3209753 C489.60100603 317.31913033 483.64656617 317.31158583 477.69212341 317.30484009 C463.97919529 317.29052335 450.26626812 317.28472724 436.55333424 317.28014814 C429.78096233 317.2778144 423.00859127 317.27421201 416.23622003 317.27045277 C393.06624713 317.25761539 369.89627471 317.2468963 346.72629833 317.24345016 C345.27102793 317.24322853 343.81575753 317.24300675 342.36048712 317.24278481 C340.9016439 317.24256417 339.44280069 317.24234369 337.98395747 317.24212337 C335.05712521 317.2416808 332.13029295 317.24123369 329.20346069 317.24078369 C328.11492925 317.24061961 328.11492925 317.24061961 327.00440728 317.2404522 C303.46715587 317.23682053 279.92993524 317.2208973 256.39269563 317.19759333 C231.52395372 317.17301594 206.65522941 317.1592783 181.786475 317.15808225 C179.0582503 317.15791078 176.33002561 317.15769535 173.60180092 317.15744781 C172.59410851 317.15736416 172.59410851 317.15736416 171.56605867 317.15727882 C160.73898275 317.15612654 149.91193832 317.14508956 139.08487304 317.13056076 C128.20881976 317.11621824 117.33280895 317.11319924 106.45674893 317.12100074 C100.56065587 317.12492126 94.66466915 317.12390965 88.76858902 317.10994339 C83.37684153 317.09728808 77.98528118 317.09832772 72.59353427 317.1105341 C70.63724576 317.11250572 68.68094436 317.10934589 66.72467401 317.10068974 C64.07629001 317.08970798 61.42857947 317.09700555 58.78021526 317.10908127 C58.01129728 317.10148607 57.2423793 317.09389088 56.45016077 317.08606553 C52.256796 317.12766845 49.69990662 317.43897 46.70077515 320.48101807 Z M45.84921265 424.42242432 C43.72079184 428.23765482 44.21904813 432.24870209 44.70077515 436.48101807 C46.03663941 440.32162783 47.82657754 441.73581268 51.29970586 443.58254486 C55.67022159 445.69336483 59.31944489 446.04395268 64.11788368 445.98158932 C64.93067111 445.98710348 65.74345853 445.99261765 66.58087587 445.99829891 C69.29796307 446.01186864 72.01413143 445.99701073 74.73120117 445.98222351 C76.70136332 445.98611727 78.67152265 445.99175831 80.64167535 445.99899441 C86.05066763 446.01375592 91.459369 446.00356356 96.86835194 445.98925769 C102.7034327 445.97815599 108.53847238 445.9900878 114.37355042 445.99909973 C125.8019794 446.0130391 137.23029796 446.00547107 148.6587217 445.99042415 C157.94481516 445.97866263 167.23087885 445.97506895 176.51697922 445.97734261 C177.17684597 445.97750302 177.83671271 445.97766344 178.51657542 445.97782871 C181.19519134 445.9784923 183.87380724 445.97919471 186.55242313 445.97995405 C211.67583324 445.98697698 236.79918441 445.97148992 261.92257953 445.94533059 C284.24547313 445.92221042 306.56830196 445.91682946 328.89120483 445.92706299 C334.60855418 445.92966498 340.32590352 445.93224999 346.04325294 445.93466091 C347.09904948 445.93510708 347.09904948 445.93510708 348.17617524 445.93556227 C366.82841513 445.9431755 385.48064972 445.93676659 404.13288724 445.92596489 C406.13961461 445.92481708 408.14634197 445.9236739 410.15306934 445.92253807 C412.14800914 445.92140626 414.14294894 445.92025689 416.13788874 445.91910748 C425.41608467 445.91436061 434.69426599 445.9162189 443.9724617 445.92046928 C455.2746229 445.92539049 466.57671705 445.91943579 477.87886287 445.89957499 C483.64765309 445.8896882 489.41634109 445.88461289 495.1851368 445.8924675 C500.46261562 445.89950627 505.73988787 445.89276193 511.01733939 445.87486387 C512.92970726 445.8708077 514.84209384 445.87183872 516.75445481 445.87838273 C519.34833502 445.88650138 521.94151384 445.8762593 524.53534889 445.8613348 C525.28257281 445.86807245 526.02979672 445.8748101 526.79966378 445.88175192 C532.68927702 445.81595065 536.59991818 444.25016077 541.07577515 440.48101807 C543.51436531 435.97900546 543.3443087 431.50207635 542.70077515 426.48101807 C541.76450632 424.21394312 541.76450632 424.21394312 540.70077515 422.48101807 C540.04077515 422.48101807 539.38077515 422.48101807 538.70077515 422.48101807 C538.70077515 421.82101807 538.70077515 421.16101807 538.70077515 420.48101807 C534.3517115 418.33509275 530.35780235 418.19788557 525.60595798 418.22374916 C524.79156697 418.22024309 523.97717596 418.21673701 523.13810644 418.21312469 C520.39774379 418.20378976 517.65759268 418.2087394 514.91722107 418.21359253 C512.93727601 418.20985734 510.95733242 418.20525634 508.97739118 418.19986188 C503.52749934 418.18760051 498.07766875 418.18789604 492.62776625 418.19025064 C486.75378253 418.190658 480.87981865 418.17962739 475.00584412 418.1701355 C463.49482246 418.15350792 451.98382129 418.14802518 440.47278864 418.14691074 C431.11940893 418.14599201 421.76603446 418.14187716 412.41265678 418.13550949 C409.72128326 418.13371444 407.02990974 418.13193481 404.3385362 418.13015974 C403.6694758 418.12971764 403.0004154 418.12927554 402.31108044 418.12882005 C383.49015616 418.11651061 364.66923418 418.10861904 345.8483057 418.10950661 C344.7837684 418.10955334 344.7837684 418.10955334 343.6977253 418.10960102 C340.10062355 418.10976724 336.5035218 418.10996532 332.90642006 418.11017044 C331.83480182 418.11023027 331.83480182 418.11023027 330.74153474 418.11029132 C329.29681972 418.11037219 327.85210469 418.11045579 326.40738967 418.1105421 C303.92386015 418.11176794 281.44039093 418.09674875 258.95687866 418.06939697 C233.70383683 418.03868873 208.45083461 418.02146367 183.19777292 418.02332342 C180.50608504 418.02347268 177.81439716 418.02357009 175.12270927 418.02363205 C174.45993408 418.02365536 173.79715889 418.02367867 173.11429961 418.02370268 C163.10163577 418.02376046 153.08902018 418.01305307 143.07637215 417.99696732 C131.69179043 417.97879505 120.30730755 417.97437567 108.92271764 417.98798616 C103.1113807 417.99453548 97.3002336 417.99456226 91.48891449 417.97727966 C86.17241823 417.96163083 80.85626365 417.96432839 75.53977614 417.98184793 C73.61318137 417.98493593 71.68656162 417.9812183 69.7599963 417.97012778 C67.14672463 417.95607664 64.53466309 417.96653735 61.92143345 417.98324013 C61.16853896 417.97330377 60.41564446 417.96336741 59.63993499 417.95312995 C53.58912481 418.03523363 49.96829643 420.10346938 45.84921265 424.42242432 Z M285.91171265 527.90679932 C283.52164825 531.01388303 282.9237279 534.62888998 282.70077515 538.48101807 C283.38078224 541.42447733 284.39789266 543.72492049 285.70077515 546.48101807 C286.36077515 546.48101807 287.02077515 546.48101807 287.70077515 546.48101807 C287.70077515 547.14101807 287.70077515 547.80101807 287.70077515 548.48101807 C292.5600624 551.02039357 297.22871211 550.7604613 302.56954956 550.73498535 C303.57076418 550.73810533 304.57197881 550.74122531 305.60353327 550.74443984 C308.96217879 550.75242424 312.32064387 550.74609438 315.67929077 550.73980713 C318.08567918 550.74251679 320.49206676 550.74607758 322.89845276 550.75042725 C328.75824737 550.75860806 334.61799502 550.75739979 340.47778833 550.75160196 C345.24021664 550.747085 350.00263059 550.74647272 354.76506042 550.7486496 C355.78182408 550.7491093 355.78182408 550.7491093 356.81912842 550.74957828 C358.1961571 550.75021773 359.57318578 550.75086616 360.95021445 550.75152346 C373.86227714 550.7572264 386.77431144 550.75066945 399.68636948 550.73992273 C410.76524158 550.73098725 421.84407177 550.7325393 432.92294312 550.74176025 C445.78883921 550.75246353 458.65471041 550.75667708 471.52061033 550.75053573 C472.89257017 550.74989863 474.26453002 550.74926989 475.63648987 550.7486496 C476.31151838 550.74834105 476.9865469 550.7480325 477.68203083 550.74771459 C482.43867665 550.74598783 487.19530669 550.74890236 491.95195007 550.7536087 C498.35410592 550.75980392 504.75620119 550.7553924 511.15834999 550.74382019 C513.51058635 550.74117151 515.86282936 550.74194223 518.2150631 550.74634552 C521.42079963 550.75179408 524.62628057 550.744975 527.83200073 550.73498535 C529.23496202 550.74167752 529.23496202 550.74167752 530.66626596 550.74850488 C535.12043561 550.72150197 538.65617727 550.59465166 542.70077515 548.48101807 C542.70077515 547.82101807 542.70077515 547.16101807 542.70077515 546.48101807 C543.36077515 546.48101807 544.02077515 546.48101807 544.70077515 546.48101807 C547.49807481 541.69527648 547.46644346 536.879761 546.70077515 531.48101807 C545.11276167 528.15406421 542.88824876 526.13457056 539.63662624 524.34496784 C535.38564888 523.0940083 531.32407414 523.20234169 526.91465759 523.22032166 C525.42614466 523.21458333 525.42614466 523.21458333 523.90756077 523.20872909 C520.57889426 523.19840163 517.25040033 523.2023908 513.92172241 523.20635986 C511.53666016 523.20201327 509.1515993 523.1968303 506.76654053 523.19087219 C500.95854965 523.17885849 495.15061259 523.17633143 489.34261078 523.17867246 C484.62166609 523.18045576 479.90073542 523.17870571 475.1797924 523.17444801 C474.17178791 523.17355523 474.17178791 523.17355523 473.14341969 523.17264441 C471.77823075 523.17143266 470.41304181 523.17021852 469.04785287 523.16900203 C456.24640178 523.15812673 443.44497703 523.16028899 430.64352446 523.16638688 C418.93374984 523.17155648 407.2240584 523.16029948 395.51430023 523.14128866 C383.48851312 523.12191454 371.46276537 523.11365348 359.43696254 523.11741191 C352.68626 523.11932455 345.93562825 523.1168303 339.18493843 523.10269737 C332.8377375 523.09014594 326.49070338 523.0920378 320.1435051 523.10510826 C317.81265011 523.10747939 315.48178349 523.10472025 313.15094185 523.09648514 C309.97172508 523.08606166 306.79307257 523.09408332 303.61387634 523.10679626 C302.68926355 523.09942198 301.76465077 523.09204769 300.81201941 523.08444995 C294.85838454 523.13461214 290.69545811 524.09442575 285.91171265 527.90679932 Z M208.70077515 529.48101807 C208.70077515 530.14101807 208.70077515 530.80101807 208.70077515 531.48101807 C208.04077515 531.48101807 207.38077515 531.48101807 206.70077515 531.48101807 C206.70077515 532.14101807 206.70077515 532.80101807 206.70077515 533.48101807 C206.04077515 533.48101807 205.38077515 533.48101807 204.70077515 533.48101807 C204.70077515 534.14101807 204.70077515 534.80101807 204.70077515 535.48101807 C204.04077515 535.48101807 203.38077515 535.48101807 202.70077515 535.48101807 C202.70077515 536.14101807 202.70077515 536.80101807 202.70077515 537.48101807 C202.04077515 537.48101807 201.38077515 537.48101807 200.70077515 537.48101807 C200.70077515 538.14101807 200.70077515 538.80101807 200.70077515 539.48101807 C199.38077515 540.14101807 198.06077515 540.80101807 196.70077515 541.48101807 C196.70077515 542.14101807 196.70077515 542.80101807 196.70077515 543.48101807 C196.04077515 543.48101807 195.38077515 543.48101807 194.70077515 543.48101807 C194.70077515 544.14101807 194.70077515 544.80101807 194.70077515 545.48101807 C194.04077515 545.48101807 193.38077515 545.48101807 192.70077515 545.48101807 C192.70077515 546.14101807 192.70077515 546.80101807 192.70077515 547.48101807 C191.71077515 547.81101807 190.72077515 548.14101807 189.70077515 548.48101807 C189.70077515 549.14101807 189.70077515 549.80101807 189.70077515 550.48101807 C189.04077515 550.48101807 188.38077515 550.48101807 187.70077515 550.48101807 C187.70077515 551.14101807 187.70077515 551.80101807 187.70077515 552.48101807 C187.04077515 552.48101807 186.38077515 552.48101807 185.70077515 552.48101807 C185.70077515 553.14101807 185.70077515 553.80101807 185.70077515 554.48101807 C185.04077515 554.48101807 184.38077515 554.48101807 183.70077515 554.48101807 C183.70077515 555.14101807 183.70077515 555.80101807 183.70077515 556.48101807 C183.04077515 556.48101807 182.38077515 556.48101807 181.70077515 556.48101807 C181.70077515 557.14101807 181.70077515 557.80101807 181.70077515 558.48101807 C181.04077515 558.48101807 180.38077515 558.48101807 179.70077515 558.48101807 C179.70077515 559.14101807 179.70077515 559.80101807 179.70077515 560.48101807 C179.04077515 560.48101807 178.38077515 560.48101807 177.70077515 560.48101807 C177.70077515 561.14101807 177.70077515 561.80101807 177.70077515 562.48101807 C177.11554077 562.727229 176.5303064 562.97343994 175.92733765 563.22711182 C173.35675497 564.67475574 171.94621822 566.27344288 170.07577515 568.54351807 C166.89521959 572.38379584 166.89521959 572.38379584 164.70077515 573.48101807 C164.70077515 574.14101807 164.70077515 574.80101807 164.70077515 575.48101807 C164.04077515 575.48101807 163.38077515 575.48101807 162.70077515 575.48101807 C162.70077515 576.14101807 162.70077515 576.80101807 162.70077515 577.48101807 C162.04077515 577.48101807 161.38077515 577.48101807 160.70077515 577.48101807 C160.70077515 578.14101807 160.70077515 578.80101807 160.70077515 579.48101807 C160.04077515 579.48101807 159.38077515 579.48101807 158.70077515 579.48101807 C158.70077515 580.14101807 158.70077515 580.80101807 158.70077515 581.48101807 C158.04077515 581.48101807 157.38077515 581.48101807 156.70077515 581.48101807 C156.70077515 582.14101807 156.70077515 582.80101807 156.70077515 583.48101807 C156.04077515 583.48101807 155.38077515 583.48101807 154.70077515 583.48101807 C154.70077515 584.14101807 154.70077515 584.80101807 154.70077515 585.48101807 C153.83452515 585.82133057 153.83452515 585.82133057 152.95077515 586.16851807 C150.11105207 587.8250232 148.74852979 589.90669795 146.70077515 592.48101807 C144.86945303 594.09084118 142.99878924 595.63028836 141.09140015 597.14898682 C140.6324939 597.58855713 140.17358765 598.02812744 139.70077515 598.48101807 C139.70077515 599.14101807 139.70077515 599.80101807 139.70077515 600.48101807 C139.04077515 600.48101807 138.38077515 600.48101807 137.70077515 600.48101807 C137.70077515 601.14101807 137.70077515 601.80101807 137.70077515 602.48101807 C137.04077515 602.48101807 136.38077515 602.48101807 135.70077515 602.48101807 C135.70077515 603.14101807 135.70077515 603.80101807 135.70077515 604.48101807 C135.04077515 604.48101807 134.38077515 604.48101807 133.70077515 604.48101807 C133.70077515 605.14101807 133.70077515 605.80101807 133.70077515 606.48101807 C133.04077515 606.48101807 132.38077515 606.48101807 131.70077515 606.48101807 C131.70077515 607.14101807 131.70077515 607.80101807 131.70077515 608.48101807 C131.04077515 608.48101807 130.38077515 608.48101807 129.70077515 608.48101807 C129.70077515 609.14101807 129.70077515 609.80101807 129.70077515 610.48101807 C129.04077515 610.48101807 128.38077515 610.48101807 127.70077515 610.48101807 C127.70077515 611.14101807 127.70077515 611.80101807 127.70077515 612.48101807 C126.80358765 612.88320557 126.80358765 612.88320557 125.88827515 613.29351807 C123.70229661 614.48019213 122.28744921 615.57700919 120.70077515 617.48101807 C120.70077515 618.14101807 120.70077515 618.80101807 120.70077515 619.48101807 C120.04077515 619.48101807 119.38077515 619.48101807 118.70077515 619.48101807 C118.70077515 620.14101807 118.70077515 620.80101807 118.70077515 621.48101807 C118.04077515 621.48101807 117.38077515 621.48101807 116.70077515 621.48101807 C115.07563047 622.93935165 115.07563047 622.93935165 113.70077515 624.48101807 C107.26956529 619.05329049 101.32103542 613.21766931 95.3999939 607.24273682 C94.4324203 606.27074664 93.4645445 605.29905722 92.49638367 604.32765198 C89.4574889 601.27744442 86.42260063 598.22327024 83.38827515 595.16851807 C79.85132762 591.60791016 76.31272498 588.04897881 72.769907 584.4942112 C71.35919831 583.07704065 69.95155434 581.65682148 68.54396057 580.23655701 C67.68909561 579.37838882 66.83423065 578.52022064 65.95346069 577.63604736 C65.20259689 576.87994675 64.45173309 576.12384613 63.67811584 575.34483337 C60.11885909 571.98992482 57.99941195 571.20521894 53.20077515 571.23101807 C52.24171265 571.22586182 51.28265015 571.22070557 50.29452515 571.21539307 C47.46454618 571.30119197 47.46454618 571.30119197 44.70077515 573.48101807 C44.70077515 574.14101807 44.70077515 574.80101807 44.70077515 575.48101807 C44.04077515 575.48101807 43.38077515 575.48101807 42.70077515 575.48101807 C39.92988182 580.37082981 40.76796827 585.15742327 41.70077515 590.48101807 C42.03077515 591.14101807 42.36077515 591.80101807 42.70077515 592.48101807 C43.36077515 592.48101807 44.02077515 592.48101807 44.70077515 592.48101807 C44.70077515 593.14101807 44.70077515 593.80101807 44.70077515 594.48101807 C45.36077515 594.48101807 46.02077515 594.48101807 46.70077515 594.48101807 C46.70077515 595.14101807 46.70077515 595.80101807 46.70077515 596.48101807 C47.36077515 596.48101807 48.02077515 596.48101807 48.70077515 596.48101807 C48.70077515 597.14101807 48.70077515 597.80101807 48.70077515 598.48101807 C49.36077515 598.48101807 50.02077515 598.48101807 50.70077515 598.48101807 C50.70077515 599.14101807 50.70077515 599.80101807 50.70077515 600.48101807 C51.36077515 600.48101807 52.02077515 600.48101807 52.70077515 600.48101807 C52.92765015 601.03789307 53.15452515 601.59476807 53.38827515 602.16851807 C55.07627551 605.14261394 57.16754031 607.20110672 59.70077515 609.48101807 C60.36077515 609.48101807 61.02077515 609.48101807 61.70077515 609.48101807 C61.95077271 610.0577124 62.20077026 610.63440674 62.45834351 611.22857666 C63.87225009 613.79189011 65.48589588 615.47699615 67.5796814 617.52008057 C68.33571655 618.26515869 69.09175171 619.01023682 69.87069702 619.77789307 C71.05502319 620.93031494 71.05502319 620.93031494 72.26327515 622.10601807 C73.82925405 623.63764975 75.39316454 625.17140002 76.9546814 626.70758057 C77.64892212 627.38385498 78.34316284 628.06012939 79.05844116 628.75689697 C80.70077515 630.48101807 80.70077515 630.48101807 81.70077515 632.48101807 C82.36077515 632.48101807 83.02077515 632.48101807 83.70077515 632.48101807 C83.70077515 633.14101807 83.70077515 633.80101807 83.70077515 634.48101807 C84.36077515 634.48101807 85.02077515 634.48101807 85.70077515 634.48101807 C85.70077515 635.14101807 85.70077515 635.80101807 85.70077515 636.48101807 C86.36077515 636.48101807 87.02077515 636.48101807 87.70077515 636.48101807 C87.96124634 637.06673584 88.22171753 637.65245361 88.49008179 638.25592041 C89.77858167 640.62401638 91.16306465 642.18687319 93.0718689 644.08258057 C93.72864624 644.73742432 94.38542358 645.39226807 95.06210327 646.06695557 C95.74723999 646.73984619 96.43237671 647.41273682 97.13827515 648.10601807 C97.81954468 648.78664307 98.50081421 649.46726807 99.20272827 650.16851807 C104.98136388 656.07476779 104.98136388 656.07476779 112.76327515 658.16851807 C117.70520738 658.01501313 119.87998067 656.97853232 123.4291687 653.56968689 C124.29368149 652.74917532 125.15819427 651.92866375 126.04890442 651.08328819 C126.92402176 650.22453905 127.7991391 649.36578991 128.70077515 648.48101807 C129.52283951 647.68639475 130.34490387 646.89177143 131.19187927 646.07306862 C133.80736274 643.5247098 136.39796624 640.9530681 138.98397827 638.37481689 C139.96724228 637.39783906 140.95068692 636.421043 141.93429565 635.44441223 C145.12034721 632.27910765 148.30133086 629.10873563 151.48202515 625.93804932 C152.58460991 624.83951995 153.68722549 623.74102151 154.78987122 622.64255333 C159.96195711 617.48943621 165.13168563 612.33396859 170.29848528 607.17555124 C176.24473535 601.23911199 182.19921477 595.31108645 188.16064501 589.3898924 C192.78612592 584.79455778 197.40391682 580.19158622 202.01600599 575.58281153 C204.76426799 572.83689696 207.51571921 570.09437054 210.27537537 567.35990334 C212.86484218 564.79370327 215.44463684 562.21816144 218.01734924 559.63516808 C219.41050025 558.24128583 220.81355275 556.85732184 222.21688843 555.47369385 C223.04660156 554.6370369 223.8763147 553.80037994 224.73117065 552.93836975 C225.45377327 552.21815549 226.17637589 551.49794123 226.92087555 550.75590229 C229.5304044 547.42067145 230.86535035 544.16791393 230.45077515 539.91851807 C230.20327515 539.11414307 229.95577515 538.30976807 229.70077515 537.48101807 C229.45327515 536.65601807 229.20577515 535.83101807 228.95077515 534.98101807 C227.22321835 531.52590447 225.88078156 529.75245122 222.70077515 527.48101807 C217.47887834 526.73175615 213.15548806 526.51120945 208.70077515 529.48101807 Z M284.70077515 636.48101807 C282.50906844 640.70517252 282.26942632 645.22705938 283.51327515 649.79351807 C285.48211485 653.82205361 287.80175925 655.02125535 291.8573761 656.68571472 C297.66583587 658.31035038 303.63879639 658.03528194 309.62460327 657.99859619 C311.11870503 658.00402501 312.61280143 658.01115192 314.10688782 658.01983643 C318.14208944 658.0379826 322.17687935 658.03103861 326.21208763 658.01832008 C330.44795157 658.00814701 334.68378179 658.01759767 338.91964722 658.02386475 C346.03116136 658.03112867 353.14250898 658.02158653 360.2539978 658.00250244 C368.45944009 657.98073605 376.66448473 657.98778832 384.86991739 658.00980806 C391.93263591 658.02799797 398.99523518 658.03050289 406.05796957 658.02005339 C410.26848455 658.01383813 414.47881302 658.01292831 418.6893158 658.02619934 C422.64907376 658.03780973 426.60832228 658.02963842 430.56802559 658.00662231 C432.01554585 658.00136274 433.46310947 658.00280154 434.91061211 658.01167297 C446.39915009 658.09038598 446.39915009 658.09038598 456.70077515 653.48101807 C460.4997186 647.89433652 459.76179774 642.83437023 458.70077515 636.48101807 C458.04077515 636.48101807 457.38077515 636.48101807 456.70077515 636.48101807 C456.37077515 635.49101807 456.04077515 634.50101807 455.70077515 633.48101807 C452.10756487 631.08554455 450.50243617 631.2236425 446.23023987 631.2068634 C445.24044183 631.19900839 445.24044183 631.19900839 444.23064786 631.19099468 C442.01514428 631.17596914 439.79987114 631.17528898 437.58432007 631.17462158 C435.99756987 631.16700174 434.41082338 631.15857454 432.82408142 631.1493988 C428.50993711 631.12742813 424.1958637 631.11865133 419.88166976 631.11357236 C417.18653441 631.10993146 414.4914177 631.10369277 411.79628944 631.09657097 C402.39424446 631.07206642 392.99225472 631.05902265 383.59017944 631.05548096 C374.82583733 631.05184609 366.06184551 631.0219569 357.29761046 630.98007637 C349.77393937 630.94538427 342.2503844 630.9299327 334.72663385 630.92923492 C330.23267589 630.92844166 325.73907453 630.91968082 321.2451992 630.89123726 C317.01712154 630.86507531 312.78969654 630.86284059 308.56157494 630.8788929 C307.01118548 630.88070898 305.46075868 630.87400218 303.91044998 630.85807419 C293.06519077 630.44418867 293.06519077 630.44418867 284.70077515 636.48101807 Z M279.38827515 744.23101807 C277.88883649 749.13827184 278.1935174 753.17664101 280.01327515 757.85601807 C282.09735761 761.09792412 283.71724713 762.26300665 287.48267365 763.09766102 C290.75199947 763.48712017 293.89835983 763.60978268 297.19039917 763.61473083 C298.47734177 763.61899582 299.76428436 763.6232608 301.09022522 763.62765503 C302.50402835 763.62730557 303.91783146 763.62684407 305.33163452 763.62628174 C306.83015527 763.62927599 308.32867524 763.63267914 309.82719421 763.63645935 C313.8870338 763.64527448 317.94685229 763.64763636 322.00670052 763.64827514 C324.54455407 763.64898682 327.08240229 763.65112335 329.62025452 763.65377235 C338.47766459 763.66301614 347.33505963 763.66710828 356.19247437 763.6663208 C364.44381628 763.66571962 372.6950929 763.67628174 380.94641829 763.69206446 C388.03702333 763.70514292 395.12760703 763.7105046 402.21822405 763.70986539 C406.45044281 763.70961058 410.68260346 763.71245279 414.91481018 763.72304344 C418.89406615 763.73273005 422.8732085 763.73279977 426.85246849 763.72552681 C428.31093194 763.72448181 429.76940249 763.72683886 431.22785378 763.73288727 C433.22227183 763.74062146 435.21672867 763.73475658 437.21115112 763.72825623 C438.88357754 763.72907338 438.88357754 763.72907338 440.58979034 763.72990704 C445.21987851 763.35948482 448.69610758 762.13623604 452.57577515 759.60601807 C455.83276754 754.81632337 455.70309609 750.0986773 454.70077515 744.48101807 C453.25992761 742.04542169 452.06272406 741.15166486 449.70077515 739.48101807 C449.37077515 739.15101807 449.04077515 738.82101807 448.70077515 738.48101807 C446.61129577 738.37537493 444.51819083 738.34133129 442.42605591 738.33384705 C441.76311028 738.33017036 441.10016465 738.32649367 440.41712976 738.32270557 C438.17931378 738.31162774 435.94154418 738.30781798 433.70370483 738.30401611 C432.10577749 738.29775449 430.50785162 738.29110796 428.90992737 738.28410339 C424.556489 738.26666409 420.20306165 738.25613341 415.84959698 738.24789786 C413.13137049 738.24275332 410.41314746 738.23667731 407.6949234 738.23038673 C399.19519256 738.21132545 390.69547046 738.197097 382.19572234 738.18877476 C372.37525262 738.17900154 362.55500825 738.15268377 352.73461795 738.11227387 C345.15071632 738.08213516 337.56687935 738.06730798 329.98291898 738.06399375 C325.45044299 738.06164043 320.91820748 738.05264382 316.38579559 738.02753258 C312.12089805 738.00428637 307.85639989 738.00000458 303.59145546 738.01029396 C302.02613562 738.0107903 300.46079636 738.00444098 298.89553642 737.99073792 C296.75768708 737.97306972 294.62127884 737.98009826 292.48342896 737.99327087 C291.28731869 737.99088252 290.09120842 737.98849417 288.85885239 737.98603344 C284.47568287 738.67303422 282.01747038 740.72542442 279.38827515 744.23101807 Z M201.70077515 745.48101807 C201.70077515 746.14101807 201.70077515 746.80101807 201.70077515 747.48101807 C201.04077515 747.48101807 200.38077515 747.48101807 199.70077515 747.48101807 C199.70077515 748.14101807 199.70077515 748.80101807 199.70077515 749.48101807 C199.04077515 749.48101807 198.38077515 749.48101807 197.70077515 749.48101807 C197.70077515 750.14101807 197.70077515 750.80101807 197.70077515 751.48101807 C197.04077515 751.48101807 196.38077515 751.48101807 195.70077515 751.48101807 C195.70077515 752.14101807 195.70077515 752.80101807 195.70077515 753.48101807 C195.04077515 753.48101807 194.38077515 753.48101807 193.70077515 753.48101807 C192.10018222 755.10194399 192.10018222 755.10194399 190.45077515 757.16851807 C188.20001786 759.8345094 186.0002797 762.19111898 183.26327515 764.35601807 C182.41765015 765.05726807 181.57202515 765.75851807 180.70077515 766.48101807 C180.70077515 767.14101807 180.70077515 767.80101807 180.70077515 768.48101807 C180.04077515 768.48101807 179.38077515 768.48101807 178.70077515 768.48101807 C178.70077515 769.14101807 178.70077515 769.80101807 178.70077515 770.48101807 C178.04077515 770.48101807 177.38077515 770.48101807 176.70077515 770.48101807 C176.70077515 771.14101807 176.70077515 771.80101807 176.70077515 772.48101807 C176.04077515 772.48101807 175.38077515 772.48101807 174.70077515 772.48101807 C174.70077515 773.14101807 174.70077515 773.80101807 174.70077515 774.48101807 C174.04077515 774.48101807 173.38077515 774.48101807 172.70077515 774.48101807 C171.16839963 776.03484954 171.16839963 776.03484954 169.57577515 778.04351807 C166.40764653 781.7985842 163.00647279 784.93367464 159.2046814 788.03570557 C158.70839233 788.51265869 158.21210327 788.98961182 157.70077515 789.48101807 C157.70077515 790.14101807 157.70077515 790.80101807 157.70077515 791.48101807 C157.04077515 791.48101807 156.38077515 791.48101807 155.70077515 791.48101807 C155.70077515 792.14101807 155.70077515 792.80101807 155.70077515 793.48101807 C155.04077515 793.48101807 154.38077515 793.48101807 153.70077515 793.48101807 C153.70077515 794.14101807 153.70077515 794.80101807 153.70077515 795.48101807 C153.04077515 795.48101807 152.38077515 795.48101807 151.70077515 795.48101807 C151.70077515 796.14101807 151.70077515 796.80101807 151.70077515 797.48101807 C151.04077515 797.48101807 150.38077515 797.48101807 149.70077515 797.48101807 C148.16839963 799.03484954 148.16839963 799.03484954 146.57577515 801.04351807 C143.40764653 804.7985842 140.00647279 807.93367464 136.2046814 811.03570557 C135.70839233 811.51265869 135.21210327 811.98961182 134.70077515 812.48101807 C134.70077515 813.14101807 134.70077515 813.80101807 134.70077515 814.48101807 C134.04077515 814.48101807 133.38077515 814.48101807 132.70077515 814.48101807 C132.70077515 815.14101807 132.70077515 815.80101807 132.70077515 816.48101807 C132.04077515 816.48101807 131.38077515 816.48101807 130.70077515 816.48101807 C130.70077515 817.14101807 130.70077515 817.80101807 130.70077515 818.48101807 C130.04077515 818.48101807 129.38077515 818.48101807 128.70077515 818.48101807 C128.70077515 819.14101807 128.70077515 819.80101807 128.70077515 820.48101807 C128.04077515 820.48101807 127.38077515 820.48101807 126.70077515 820.48101807 C125.10018222 822.10194399 125.10018222 822.10194399 123.45077515 824.16851807 C121.20001786 826.8345094 119.0002797 829.19111898 116.26327515 831.35601807 C115.41765015 832.05726807 114.57202515 832.75851807 113.70077515 833.48101807 C113.70077515 834.14101807 113.70077515 834.80101807 113.70077515 835.48101807 C113.04077515 835.48101807 112.38077515 835.48101807 111.70077515 835.48101807 C111.70077515 836.14101807 111.70077515 836.80101807 111.70077515 837.48101807 C110.05077515 837.81101807 108.40077515 838.14101807 106.70077515 838.48101807 C106.46502777 837.92060822 106.2292804 837.36019836 105.98638916 836.7828064 C104.39268209 833.92940227 102.44109097 831.9669407 100.13095093 829.65240479 C99.66891266 829.18686188 99.20687439 828.72131897 98.73083496 828.2416687 C97.20756655 826.70962337 95.67712891 825.18498026 94.14608765 823.66070557 C93.08206406 822.59533417 92.01833747 821.52966608 90.95489502 820.4637146 C88.72710494 818.23297873 86.49574473 816.00589322 84.2618103 813.78131104 C81.40126812 810.932163 78.54979821 808.07413072 75.7009449 805.2133007 C73.50666312 803.01178565 71.30763224 800.81506414 69.1071434 798.61975479 C68.0539258 797.56786962 67.00218709 796.51450151 65.95196915 795.45962143 C64.48256624 793.98512925 63.00688607 792.51721722 61.52938843 791.05084229 C60.69158844 790.21463348 59.85378845 789.37842468 58.99060059 788.51687622 C55.76218857 785.64653125 53.68071819 784.59195501 49.38827515 784.10601807 C44.97898408 784.55442055 42.04099661 785.54541106 38.70077515 788.48101807 C36.5416931 792.12446902 35.63414992 794.37059768 35.88827515 798.60601807 C36.65855485 801.33162316 37.55790765 803.8905184 38.70077515 806.48101807 C39.36077515 806.48101807 40.02077515 806.48101807 40.70077515 806.48101807 C40.70077515 807.14101807 40.70077515 807.80101807 40.70077515 808.48101807 C41.36077515 808.48101807 42.02077515 808.48101807 42.70077515 808.48101807 C42.70077515 809.14101807 42.70077515 809.80101807 42.70077515 810.48101807 C43.36077515 810.48101807 44.02077515 810.48101807 44.70077515 810.48101807 C44.70077515 811.14101807 44.70077515 811.80101807 44.70077515 812.48101807 C45.36077515 812.48101807 46.02077515 812.48101807 46.70077515 812.48101807 C46.70077515 813.14101807 46.70077515 813.80101807 46.70077515 814.48101807 C47.36077515 814.48101807 48.02077515 814.48101807 48.70077515 814.48101807 C48.70077515 815.14101807 48.70077515 815.80101807 48.70077515 816.48101807 C49.36077515 816.48101807 50.02077515 816.48101807 50.70077515 816.48101807 C50.70077515 817.14101807 50.70077515 817.80101807 50.70077515 818.48101807 C51.36077515 818.48101807 52.02077515 818.48101807 52.70077515 818.48101807 C52.70077515 819.14101807 52.70077515 819.80101807 52.70077515 820.48101807 C53.36077515 820.48101807 54.02077515 820.48101807 54.70077515 820.48101807 C54.70077515 821.14101807 54.70077515 821.80101807 54.70077515 822.48101807 C55.36077515 822.48101807 56.02077515 822.48101807 56.70077515 822.48101807 C56.96890015 823.12039307 57.23702515 823.75976807 57.51327515 824.41851807 C58.58745267 826.81233493 58.58745267 826.81233493 61.70077515 827.48101807 C61.70077515 828.14101807 61.70077515 828.80101807 61.70077515 829.48101807 C62.36077515 829.48101807 63.02077515 829.48101807 63.70077515 829.48101807 C63.70077515 830.14101807 63.70077515 830.80101807 63.70077515 831.48101807 C64.36077515 831.48101807 65.02077515 831.48101807 65.70077515 831.48101807 C65.70077515 832.14101807 65.70077515 832.80101807 65.70077515 833.48101807 C66.36077515 833.48101807 67.02077515 833.48101807 67.70077515 833.48101807 C67.70077515 834.14101807 67.70077515 834.80101807 67.70077515 835.48101807 C68.36077515 835.48101807 69.02077515 835.48101807 69.70077515 835.48101807 C69.70077515 836.14101807 69.70077515 836.80101807 69.70077515 837.48101807 C70.36077515 837.48101807 71.02077515 837.48101807 71.70077515 837.48101807 C71.70077515 838.14101807 71.70077515 838.80101807 71.70077515 839.48101807 C72.36077515 839.48101807 73.02077515 839.48101807 73.70077515 839.48101807 C73.70077515 840.14101807 73.70077515 840.80101807 73.70077515 841.48101807 C74.36077515 841.48101807 75.02077515 841.48101807 75.70077515 841.48101807 C75.70077515 842.14101807 75.70077515 842.80101807 75.70077515 843.48101807 C76.36077515 843.48101807 77.02077515 843.48101807 77.70077515 843.48101807 C77.70077515 844.14101807 77.70077515 844.80101807 77.70077515 845.48101807 C78.36077515 845.48101807 79.02077515 845.48101807 79.70077515 845.48101807 C79.96890015 846.12039307 80.23702515 846.75976807 80.51327515 847.41851807 C81.58745267 849.81233493 81.58745267 849.81233493 84.70077515 850.48101807 C84.70077515 851.14101807 84.70077515 851.80101807 84.70077515 852.48101807 C85.36077515 852.48101807 86.02077515 852.48101807 86.70077515 852.48101807 C86.70077515 853.14101807 86.70077515 853.80101807 86.70077515 854.48101807 C87.36077515 854.48101807 88.02077515 854.48101807 88.70077515 854.48101807 C88.70077515 855.14101807 88.70077515 855.80101807 88.70077515 856.48101807 C89.36077515 856.48101807 90.02077515 856.48101807 90.70077515 856.48101807 C90.70077515 857.14101807 90.70077515 857.80101807 90.70077515 858.48101807 C91.36077515 858.48101807 92.02077515 858.48101807 92.70077515 858.48101807 C92.70077515 859.14101807 92.70077515 859.80101807 92.70077515 860.48101807 C93.36077515 860.48101807 94.02077515 860.48101807 94.70077515 860.48101807 C94.70077515 861.14101807 94.70077515 861.80101807 94.70077515 862.48101807 C95.36077515 862.48101807 96.02077515 862.48101807 96.70077515 862.48101807 C96.70077515 863.14101807 96.70077515 863.80101807 96.70077515 864.48101807 C97.36077515 864.48101807 98.02077515 864.48101807 98.70077515 864.48101807 C98.70077515 865.14101807 98.70077515 865.80101807 98.70077515 866.48101807 C99.36077515 866.48101807 100.02077515 866.48101807 100.70077515 866.48101807 C100.70077515 867.14101807 100.70077515 867.80101807 100.70077515 868.48101807 C104.61661533 870.6284143 107.94590684 870.86701288 112.26910973 870.19053268 C114.99677495 869.39465084 116.28258526 868.44479904 118.36523438 866.53503418 C119.05831318 865.90060646 119.75139198 865.26617874 120.46547318 864.61252594 C124.62080381 860.65014409 128.70154111 856.61873578 132.75692749 852.55426025 C133.73986581 851.57268002 134.72301606 850.59131197 135.70635986 849.61013794 C138.35289204 846.96812869 140.99629489 844.32300982 143.63897276 841.67714596 C146.4125148 838.90105717 149.18851281 836.12742594 151.96411133 833.35339355 C156.61755152 828.7017668 161.26889204 824.04804834 165.91903687 819.39312744 C171.29431081 814.01239644 176.67319925 808.63529885 182.05394781 803.26004291 C186.68269538 798.63583093 191.30949449 794.00967619 195.93466532 789.38188672 C198.69349154 786.62150226 201.45298727 783.86179622 204.21424484 781.10384369 C206.80534715 778.51562711 209.39399653 775.92498208 211.98076248 773.33243179 C213.38373346 771.92750619 214.78916971 770.52504378 216.19467163 769.12265015 C217.02727509 768.28722687 217.85987854 767.45180359 218.7177124 766.59106445 C219.44291265 765.86548717 220.16811291 765.1399099 220.91528893 764.39234543 C225.18411924 759.82264778 225.18201661 756.3920131 225.0874939 750.37164307 C224.89968144 747.23935399 224.89968144 747.23935399 222.45077515 744.35601807 C214.70735387 739.07641265 209.02537684 739.34619939 201.70077515 745.48101807 Z M282.38827515 847.29351807 C279.25264241 851.35822717 278.23013282 854.1460226 278.38827515 859.45367432 C278.92066988 862.90758513 280.41940092 864.89946302 282.70077515 867.48101807 C287.06474053 870.10710225 290.28418609 870.85598137 295.34898376 870.85523987 C296.31305843 870.86120148 296.31305843 870.86120148 297.29660934 870.86728352 C299.43619947 870.87685792 301.57512028 870.86511876 303.71469116 870.85333252 C305.25424444 870.85576208 306.79379614 870.85948299 308.33334351 870.86439514 C312.50476311 870.87378456 316.67594727 870.86439558 320.84734845 870.85106301 C325.21588495 870.83973057 329.58441017 870.84385736 333.95295715 870.84580994 C341.28747394 870.84669225 348.62189818 870.83562483 355.95639038 870.81719971 C364.43384186 870.79602516 372.91115788 870.79252426 381.38863045 870.79876167 C389.54825347 870.80445761 397.70782884 870.79880745 405.86744499 870.78758812 C409.33822448 870.782946 412.80897479 870.7820666 416.27975655 870.78417397 C420.36655088 870.78605857 424.45320747 870.77793975 428.5399704 870.76211357 C430.03916034 870.75787388 431.53836426 870.75701805 433.0375576 870.75980377 C435.08489479 870.7630307 437.13223996 870.75270942 439.17955017 870.74171448 C440.89760534 870.73863517 440.89760534 870.73863517 442.65036869 870.73549366 C445.72006965 870.47940845 447.92771398 869.78471127 450.70077515 868.48101807 C450.70077515 867.82101807 450.70077515 867.16101807 450.70077515 866.48101807 C451.36077515 866.48101807 452.02077515 866.48101807 452.70077515 866.48101807 C454.62353496 863.23300945 454.99779691 860.73707052 455.01327515 856.98101807 C455.03841187 855.57336182 455.03841187 855.57336182 455.0640564 854.13726807 C454.64460598 851.07031882 453.84044123 849.68836215 451.70077515 847.48101807 C451.04077515 847.48101807 450.38077515 847.48101807 449.70077515 847.48101807 C449.70077515 846.82101807 449.70077515 846.16101807 449.70077515 845.48101807 C445.14802708 844.75650125 440.7818959 844.35561684 436.17355347 844.35403442 C434.26848778 844.34980469 434.26848778 844.34980469 432.32493591 844.3454895 C430.93524155 844.3474334 429.54554734 844.34948154 428.15585327 844.35162354 C426.67851214 844.35026711 425.20117134 844.34848582 423.72383118 844.34631348 C419.72596082 844.34176789 415.72811638 844.34351687 411.73024559 844.34669256 C407.53882148 844.34923103 403.34739954 844.34687448 399.15597534 844.3453064 C392.11833296 844.34348904 385.08070109 844.34587963 378.0430603 844.35064697 C369.91613628 844.35608876 361.78923735 844.35432579 353.66231394 844.34882057 C346.67443328 844.34427708 339.68656015 844.34364494 332.69867849 844.34625924 C328.52961917 844.3478152 324.36057162 844.34803443 320.19151306 844.34472275 C316.27136121 844.34182609 312.3512416 844.34385266 308.43109322 844.349617 C306.99562699 844.35093498 305.56015804 844.35056688 304.12469292 844.34835434 C302.15912856 844.34560492 300.19355826 844.34967037 298.22799683 844.35403442 C297.13001518 844.35441145 296.03203354 844.35478848 294.90077972 844.35517693 C288.19669123 844.46331908 288.19669123 844.46331908 282.38827515 847.29351807 Z " fill="#003060" transform="translate(109.29922485351563,55.51898193359375)"/>
<path d="M0 0 C1.18803223 -0.00630432 2.37606445 -0.01260864 3.60009766 -0.019104 C4.87933105 -0.01505554 6.15856445 -0.01100708 7.4765625 -0.00683594 C9.45148682 -0.00970612 9.45148682 -0.00970612 11.46630859 -0.01263428 C14.25037336 -0.0155794 17.03430958 -0.01130767 19.81835938 -0.00195312 C23.38274366 0.00944118 26.94682672 0.00287842 30.51119995 -0.00909805 C33.9163448 -0.0180724 37.32140909 -0.01178468 40.7265625 -0.00683594 C42.6454126 -0.01290863 42.6454126 -0.01290863 44.60302734 -0.019104 C46.38507568 -0.00964752 46.38507568 -0.00964752 48.203125 0 C49.24807129 0.00159119 50.29301758 0.00318237 51.36962891 0.00482178 C54.11296307 0.25984889 55.76228469 0.8480281 58.1015625 2.25878906 C58.1015625 2.91878906 58.1015625 3.57878906 58.1015625 4.25878906 C58.7615625 4.25878906 59.4215625 4.25878906 60.1015625 4.25878906 C60.1015625 4.91878906 60.1015625 5.57878906 60.1015625 6.25878906 C60.7615625 6.25878906 61.4215625 6.25878906 62.1015625 6.25878906 C65.21876973 13.82482603 68.24472918 21.29275853 70.44921875 29.18457031 C71.12118232 31.51235606 71.12118232 31.51235606 72.7265625 34.50878906 C74.1015625 37.25878906 74.1015625 37.25878906 74.2890625 40.38378906 C74.85044734 43.57316708 74.85044734 43.57316708 78.1640625 45.25878906 C79.79421859 45.96292182 81.4440144 46.62180704 83.1015625 47.25878906 C83.7114502 47.49629883 84.32133789 47.73380859 84.94970703 47.97851562 C89.0343099 49.56364403 93.12771189 51.12399754 97.25830078 52.58569336 C98.93674636 53.19860388 100.58429288 53.89450971 102.2265625 54.59863281 C106.05068524 55.47672621 107.57756731 54.5670888 110.9765625 52.69628906 C112.01425781 52.13554688 113.05195312 51.57480469 114.12109375 50.99707031 C117.30775821 49.13853075 120.43523644 47.22414753 123.48046875 45.14160156 C125.1015625 44.25878906 125.1015625 44.25878906 128.1015625 44.25878906 C128.1015625 43.59878906 128.1015625 42.93878906 128.1015625 42.25878906 C130.74895166 40.79816056 131.99604584 40.25878906 135.1015625 40.25878906 C135.1015625 39.59878906 135.1015625 38.93878906 135.1015625 38.25878906 C137.18460788 38.2046058 139.26806018 38.16591355 141.3515625 38.13378906 C142.51171875 38.11058594 143.671875 38.08738281 144.8671875 38.06347656 C147.92942296 38.24839416 149.54359001 38.65055884 152.1015625 40.25878906 C152.1015625 40.91878906 152.1015625 41.57878906 152.1015625 42.25878906 C152.6891333 42.52202469 153.2767041 42.78526031 153.88208008 43.05647278 C156.20286907 44.31366787 157.74397403 45.64131385 159.61328125 47.49584961 C160.28077393 48.15381027 160.9482666 48.81177094 161.63598633 49.4896698 C162.34650146 50.20109634 163.0570166 50.91252289 163.7890625 51.64550781 C164.52858154 52.38074173 165.26810059 53.11597565 166.0300293 53.87348938 C167.59255588 55.43027623 169.15247252 56.9896864 170.70996094 58.55151367 C173.08403225 60.92873555 175.47107648 63.29235613 177.859375 65.65527344 C179.37841529 67.17203966 180.89667034 68.68959279 182.4140625 70.20800781 C183.12457764 70.9093132 183.83509277 71.61061859 184.56713867 72.33317566 C189.06675783 76.87478357 193.44693747 81.43089694 194.5625 87.95410156 C194.40392208 92.43753185 194.26377491 96.20464079 192.1015625 100.25878906 C191.4415625 100.25878906 190.7815625 100.25878906 190.1015625 100.25878906 C189.99457031 100.77957031 189.88757813 101.30035156 189.77734375 101.83691406 C187.42472399 110.26826811 183.12942875 118.51289243 179.1015625 126.25878906 C178.4415625 126.25878906 177.7815625 126.25878906 177.1015625 126.25878906 C177.4315625 127.02191406 177.7615625 127.78503906 178.1015625 128.57128906 C179.1015625 131.25878906 179.1015625 131.25878906 179.1015625 134.25878906 C179.7615625 134.25878906 180.4215625 134.25878906 181.1015625 134.25878906 C181.43929688 135.13921875 181.77703125 136.01964844 182.125 136.92675781 C182.57101562 138.08820313 183.01703125 139.24964844 183.4765625 140.44628906 C183.91742187 141.59484375 184.35828125 142.74339844 184.8125 143.92675781 C185.57341723 145.89361356 186.34503347 147.85648284 187.140625 149.80957031 C188.1015625 152.25878906 188.1015625 152.25878906 188.82958984 155.2746582 C189.81021666 158.40775527 189.81021666 158.40775527 192.46484375 159.61083984 C193.43808594 159.88911621 194.41132812 160.16739258 195.4140625 160.45410156 C197.02861328 160.93943359 197.02861328 160.93943359 198.67578125 161.43457031 C199.80628906 161.7478125 200.93679688 162.06105469 202.1015625 162.38378906 C204.31092102 163.0287249 206.51927118 163.67712584 208.7265625 164.32910156 C209.79922363 164.64411621 210.87188477 164.95913086 211.97705078 165.28369141 C225.2771645 169.43439106 225.2771645 169.43439106 230.1015625 174.25878906 C230.1015625 174.91878906 230.1015625 175.57878906 230.1015625 176.25878906 C231.0915625 176.58878906 232.0815625 176.91878906 233.1015625 177.25878906 C233.28735163 185.61261212 233.42927978 193.96556505 233.51605988 202.32094669 C233.55772229 206.20128167 233.6141759 210.08019821 233.70507812 213.9597168 C233.79234014 217.70755765 233.83990389 221.45403924 233.86058044 225.20281792 C233.87530383 226.62907748 233.90405855 228.05526686 233.94740295 229.48094368 C234.27210941 240.60902565 234.27210941 240.60902565 231.37939453 244.68600464 C226.85947236 248.75316952 222.38404612 251.11607238 216.2265625 251.38378906 C215.5253125 251.34253906 214.8240625 251.30128906 214.1015625 251.25878906 C214.1015625 251.91878906 214.1015625 252.57878906 214.1015625 253.25878906 C213.37710937 253.44054687 212.65265625 253.62230469 211.90625 253.80957031 C207.68254611 254.90773332 203.76654161 255.92629951 199.8515625 257.88378906 C196.60242229 259.50835917 193.69515989 259.89942932 190.1015625 260.25878906 C189.99585938 261.25652344 189.89015625 262.25425781 189.78125 263.28222656 C189.18752179 267.42165798 187.82830905 271.03959734 186.2265625 274.88378906 C185.97003906 275.52574219 185.71351563 276.16769531 185.44921875 276.82910156 C183.94271124 280.52345164 182.14893233 283.84650601 180.1015625 287.25878906 C179.38755018 290.45273932 179.38755018 290.45273932 179.1015625 293.25878906 C179.7615625 293.25878906 180.4215625 293.25878906 181.1015625 293.25878906 C181.1015625 294.57878906 181.1015625 295.89878906 181.1015625 297.25878906 C181.7615625 297.25878906 182.4215625 297.25878906 183.1015625 297.25878906 C183.62105469 298.45375 184.14054687 299.64871094 184.67578125 300.87988281 C185.37917385 302.48580506 186.08367222 304.09124327 186.7890625 305.69628906 C187.15193359 306.52290039 187.51480469 307.34951172 187.88867188 308.20117188 C189.77139473 312.43980637 191.71375641 316.52452473 194.1015625 320.50878906 C196.08032723 323.96324274 196.87630208 326.21292683 196.1015625 330.25878906 C193.2004234 337.20065073 189.1875029 341.74695235 183.86328125 346.99316406 C183.06428909 347.79361145 182.26529694 348.59405884 181.4420929 349.41876221 C179.75829155 351.10091068 178.06956663 352.77814361 176.3762207 354.45068359 C173.79536263 357.00255968 171.23370905 359.57260763 168.67382812 362.14550781 C167.02975639 363.7833421 165.38460951 365.42009801 163.73828125 367.05566406 C162.97762863 367.81925232 162.21697601 368.58284058 161.43327332 369.36956787 C156.79076871 373.93110996 152.31232935 378.29356397 145.77441406 379.79223633 C139.6932672 379.70383907 135.21774431 377.96092108 129.8515625 375.19628906 C129.02962402 374.79087891 128.20768555 374.38546875 127.36083984 373.96777344 C121.40401801 371.00505979 115.54574113 367.86549773 109.765625 364.57128906 C107.16654328 363.29080305 104.95595016 362.67397272 102.1015625 362.25878906 C102.1015625 362.91878906 102.1015625 363.57878906 102.1015625 364.25878906 C100.7815625 364.25878906 99.4615625 364.25878906 98.1015625 364.25878906 C98.1015625 364.91878906 98.1015625 365.57878906 98.1015625 366.25878906 C97.24433594 366.58492187 96.38710938 366.91105469 95.50390625 367.24707031 C88.18366682 370.02103931 88.18366682 370.02103931 80.9765625 373.07128906 C78.1015625 374.25878906 78.1015625 374.25878906 75.1015625 374.25878906 C74.91980469 375.04382813 74.73804688 375.82886719 74.55078125 376.63769531 C72.24427197 386.27772127 72.24427197 386.27772127 70.4765625 390.19628906 C69.24351949 392.94261213 68.55015056 395.29810787 68.1015625 398.25878906 C67.4415625 398.25878906 66.7815625 398.25878906 66.1015625 398.25878906 C66.1840625 398.89816406 66.2665625 399.53753906 66.3515625 400.19628906 C65.86803928 406.11944848 63.5079273 411.09234684 59.37695312 415.35546875 C54.02751549 419.823338 47.79528254 419.13714071 41.13671875 419.09082031 C39.77582443 419.0974139 38.41493714 419.10563627 37.05406189 419.11540222 C34.21019862 419.12871271 31.36746615 419.11999303 28.52368164 419.09594727 C24.89704534 419.06737987 21.27366207 419.09741541 17.64731693 419.14458179 C14.83908543 419.17391648 12.03161857 419.17000218 9.22329521 419.1565609 C7.24255319 419.15338969 5.26183239 419.17925354 3.28126526 419.20576477 C-3.92326172 419.09434857 -8.23857763 418.38546944 -13.42433167 413.20414734 C-17.59890552 407.69501657 -19.02406341 400.92247099 -20.8984375 394.38378906 C-21.41277344 392.61068359 -21.41277344 392.61068359 -21.9375 390.80175781 C-22.8984375 387.25878906 -22.8984375 387.25878906 -23.546875 383.87207031 C-24.31194958 380.527954 -24.99833309 378.1245936 -26.8984375 375.25878906 C-31.38109445 372.75135427 -35.94533076 371.51834198 -40.8984375 370.25878906 C-42.57652896 369.6214263 -44.24868364 368.96627364 -45.8984375 368.25878906 C-45.8984375 367.59878906 -45.8984375 366.93878906 -45.8984375 366.25878906 C-46.6615625 366.13503906 -47.4246875 366.01128906 -48.2109375 365.88378906 C-50.8984375 365.25878906 -50.8984375 365.25878906 -53.8984375 363.25878906 C-57.60081027 362.8791159 -59.8867681 363.45942231 -63.12109375 365.23535156 C-63.90121826 365.6563916 -64.68134277 366.07743164 -65.48510742 366.51123047 C-66.30213135 366.9641748 -67.11915527 367.41711914 -67.9609375 367.88378906 C-69.66644191 368.80087384 -71.3721709 369.71754107 -73.078125 370.63378906 C-75.33046697 371.85706648 -77.58074282 373.08359808 -79.82519531 374.32128906 C-90.81160641 380.35846975 -90.81160641 380.35846975 -97.8984375 379.25878906 C-102.91954818 377.41429943 -107.23427438 374.15060729 -110.8984375 370.25878906 C-110.8984375 369.59878906 -110.8984375 368.93878906 -110.8984375 368.25878906 C-111.5584375 368.25878906 -112.2184375 368.25878906 -112.8984375 368.25878906 C-112.8984375 367.59878906 -112.8984375 366.93878906 -112.8984375 366.25878906 C-113.5584375 366.25878906 -114.2184375 366.25878906 -114.8984375 366.25878906 C-114.8984375 365.59878906 -114.8984375 364.93878906 -114.8984375 364.25878906 C-115.5584375 364.25878906 -116.2184375 364.25878906 -116.8984375 364.25878906 C-116.8984375 363.59878906 -116.8984375 362.93878906 -116.8984375 362.25878906 C-117.5584375 362.25878906 -118.2184375 362.25878906 -118.8984375 362.25878906 C-118.8984375 361.59878906 -118.8984375 360.93878906 -118.8984375 360.25878906 C-119.5584375 360.25878906 -120.2184375 360.25878906 -120.8984375 360.25878906 C-120.8984375 359.59878906 -120.8984375 358.93878906 -120.8984375 358.25878906 C-121.5584375 358.25878906 -122.2184375 358.25878906 -122.8984375 358.25878906 C-122.8984375 357.59878906 -122.8984375 356.93878906 -122.8984375 356.25878906 C-123.5584375 356.25878906 -124.2184375 356.25878906 -124.8984375 356.25878906 C-126.5546875 354.54394531 -126.5546875 354.54394531 -128.3984375 352.32128906 C-130.78770749 349.33833728 -130.78770749 349.33833728 -133.8984375 347.25878906 C-133.8984375 346.59878906 -133.8984375 345.93878906 -133.8984375 345.25878906 C-134.5584375 345.25878906 -135.2184375 345.25878906 -135.8984375 345.25878906 C-135.8984375 344.59878906 -135.8984375 343.93878906 -135.8984375 343.25878906 C-136.5584375 343.25878906 -137.2184375 343.25878906 -137.8984375 343.25878906 C-137.8984375 342.59878906 -137.8984375 341.93878906 -137.8984375 341.25878906 C-138.5584375 341.25878906 -139.2184375 341.25878906 -139.8984375 341.25878906 C-139.8984375 340.59878906 -139.8984375 339.93878906 -139.8984375 339.25878906 C-140.5584375 339.25878906 -141.2184375 339.25878906 -141.8984375 339.25878906 C-142.2284375 337.93878906 -142.5584375 336.61878906 -142.8984375 335.25878906 C-143.5584375 335.25878906 -144.2184375 335.25878906 -144.8984375 335.25878906 C-146.23101153 324.7007025 -146.23101153 324.7007025 -144.8984375 320.25878906 C-144.2384375 320.25878906 -143.5784375 320.25878906 -142.8984375 320.25878906 C-142.8984375 318.93878906 -142.8984375 317.61878906 -142.8984375 316.25878906 C-142.2384375 316.25878906 -141.5784375 316.25878906 -140.8984375 316.25878906 C-140.8984375 314.93878906 -140.8984375 313.61878906 -140.8984375 312.25878906 C-140.2384375 312.25878906 -139.5784375 312.25878906 -138.8984375 312.25878906 C-138.8984375 310.93878906 -138.8984375 309.61878906 -138.8984375 308.25878906 C-138.2384375 308.25878906 -137.5784375 308.25878906 -136.8984375 308.25878906 C-136.8984375 306.93878906 -136.8984375 305.61878906 -136.8984375 304.25878906 C-136.2384375 304.25878906 -135.5784375 304.25878906 -134.8984375 304.25878906 C-134.77855469 303.69933594 -134.65867187 303.13988281 -134.53515625 302.56347656 C-133.83285804 300.02141554 -132.80531925 297.78171767 -131.7109375 295.38378906 C-130.13061953 291.44653181 -130.13061953 291.44653181 -130.3359375 287.25878906 C-131.109375 285.77378906 -131.109375 285.77378906 -131.8984375 284.25878906 C-132.73244927 282.57162426 -133.56572101 280.88409354 -134.3984375 279.19628906 C-134.82125 278.3803125 -135.2440625 277.56433594 -135.6796875 276.72363281 C-137.81735951 272.40032821 -139.17690659 269.13199822 -138.8984375 264.25878906 C-139.5584375 264.25878906 -140.2184375 264.25878906 -140.8984375 264.25878906 C-141.2284375 262.93878906 -141.5584375 261.61878906 -141.8984375 260.25878906 C-142.98511719 259.98615234 -142.98511719 259.98615234 -144.09375 259.70800781 C-149.40642451 258.32671244 -153.9857733 256.71512116 -158.8984375 254.25878906 C-160.66163619 253.75225004 -162.43368025 253.2760506 -164.2109375 252.82128906 C-169.3936864 251.48655373 -174.09315316 249.59617428 -178.8984375 247.25878906 C-178.8984375 246.59878906 -178.8984375 245.93878906 -178.8984375 245.25878906 C-179.5584375 245.25878906 -180.2184375 245.25878906 -180.8984375 245.25878906 C-180.8984375 244.59878906 -180.8984375 243.93878906 -180.8984375 243.25878906 C-181.5584375 243.25878906 -182.2184375 243.25878906 -182.8984375 243.25878906 C-184.9151737 239.90294203 -185.15120604 237.3386606 -185.15722656 233.45214844 C-185.16353088 232.28413696 -185.16983521 231.11612549 -185.17633057 229.91271973 C-185.1722821 228.65536011 -185.16823364 227.39800049 -185.1640625 226.10253906 C-185.16597595 224.8081189 -185.1678894 223.51369873 -185.16986084 222.18005371 C-185.17280578 219.44306657 -185.16853485 216.70621019 -185.15917969 213.96923828 C-185.14778538 210.46538636 -185.15434824 206.96184087 -185.16632462 203.45800018 C-185.17529957 200.11032207 -185.16901115 196.76272588 -185.1640625 193.41503906 C-185.16811096 192.15767944 -185.17215942 190.90031982 -185.17633057 189.6048584 C-185.17002625 188.43684692 -185.16372192 187.26883545 -185.15722656 186.06542969 C-185.15563538 185.03824829 -185.15404419 184.01106689 -185.15240479 182.95275879 C-184.89580125 180.23082494 -184.29513796 178.58289725 -182.8984375 176.25878906 C-182.2384375 176.25878906 -181.5784375 176.25878906 -180.8984375 176.25878906 C-180.8984375 175.59878906 -180.8984375 174.93878906 -180.8984375 174.25878906 C-176.15408867 171.26778654 -171.75352592 169.47620114 -166.359375 167.96972656 C-163.55708107 167.16017498 -160.88970029 166.13917066 -158.1796875 165.06738281 C-156.35125447 164.41929097 -154.48764416 163.8708209 -152.6171875 163.35644531 C-150.86921875 162.87498047 -150.86921875 162.87498047 -149.0859375 162.38378906 C-147.98636719 162.09761719 -146.88679687 161.81144531 -145.75390625 161.51660156 C-142.26249875 159.97866283 -141.44628683 158.69450708 -139.8984375 155.25878906 C-139.16698449 153.07880379 -139.16698449 153.07880379 -138.6484375 150.82128906 C-137.03923598 144.94726383 -134.13498472 139.90345737 -131.12890625 134.65332031 C-129.55149275 130.30166213 -130.16703975 128.49952767 -131.8984375 124.25878906 C-133.63631336 120.84987873 -135.52850268 117.56249218 -137.4375 114.24707031 C-138.8984375 111.25878906 -138.8984375 111.25878906 -138.8984375 107.25878906 C-139.5584375 107.25878906 -140.2184375 107.25878906 -140.8984375 107.25878906 C-142.359066 104.6113999 -142.8984375 103.36430572 -142.8984375 100.25878906 C-143.5584375 100.25878906 -144.2184375 100.25878906 -144.8984375 100.25878906 C-146.47811279 87.06636573 -146.47811279 87.06636573 -143.8984375 82.25878906 C-142.25693922 80.55888541 -140.59119776 78.90639144 -138.8984375 77.25878906 C-137.62598955 75.9895724 -136.35528745 74.71860405 -135.0859375 73.44628906 C-130.8984375 69.25878906 -130.8984375 69.25878906 -126.7109375 65.07128906 C-126.04811768 64.40830811 -125.38529785 63.74532715 -124.70239258 63.06225586 C-123.25200033 61.61225619 -121.80007474 60.16379035 -120.34765625 58.71582031 C-118.36085555 56.72268213 -116.38717369 54.71844711 -114.41796875 52.70800781 C-113.18236914 51.45402522 -111.94669077 50.20012023 -110.7109375 48.94628906 C-110.08251953 48.30111328 -109.45410156 47.6559375 -108.80664062 46.99121094 C-108.20400391 46.38212891 -107.60136719 45.77304687 -106.98046875 45.14550781 C-106.43624268 44.59080811 -105.8920166 44.0361084 -105.33129883 43.46459961 C-103.8984375 42.25878906 -103.8984375 42.25878906 -101.8984375 42.25878906 C-101.8984375 41.59878906 -101.8984375 40.93878906 -101.8984375 40.25878906 C-100.40251536 40.00435968 -98.9011744 39.78176275 -97.3984375 39.57128906 C-96.563125 39.44367187 -95.7278125 39.31605469 -94.8671875 39.18457031 C-87.80961365 39.36100966 -81.51728499 43.37866767 -75.4609375 46.69628906 C-64.72111686 53.48199134 -64.72111686 53.48199134 -52.8984375 54.25878906 C-49.58371432 52.90228043 -46.3318504 51.45674934 -43.07348633 49.97290039 C-39.11887841 48.18792535 -35.24025445 46.72076978 -31.0859375 45.44628906 C-28.25476621 44.33843943 -27.19390695 43.80411858 -25.734375 41.11035156 C-24.94121156 38.50653221 -24.40055492 35.93276359 -23.8984375 33.25878906 C-23.00208829 30.22368257 -21.94322731 27.24576075 -20.8984375 24.25878906 C-20.68815918 23.64632324 -20.47788086 23.03385742 -20.26123047 22.40283203 C-19.52948323 20.28705152 -18.77816703 18.17897134 -18.0234375 16.07128906 C-17.79100342 15.39372559 -17.55856934 14.71616211 -17.3190918 14.01806641 C-15.4062901 8.77089918 -12.95948433 4.22191066 -8.10742188 1.11016846 C-5.29897292 0.02774542 -3.00998064 0.00458343 0 0 Z M-9.8984375 114.25878906 C-11.25059188 114.66144268 -12.60495408 115.05672476 -13.9609375 115.44628906 C-24.86563846 119.01916037 -34.23323043 125.94042129 -42.8984375 133.25878906 C-43.64867187 133.78859375 -44.39890625 134.31839844 -45.171875 134.86425781 C-45.74164062 135.32445312 -46.31140625 135.78464844 -46.8984375 136.25878906 C-46.8984375 136.91878906 -46.8984375 137.57878906 -46.8984375 138.25878906 C-47.5584375 138.25878906 -48.2184375 138.25878906 -48.8984375 138.25878906 C-50.59074427 140.22366206 -52.16070963 142.18605388 -53.7109375 144.25878906 C-54.16307617 144.85747803 -54.61521484 145.45616699 -55.08105469 146.07299805 C-65.96483786 159.96742609 -65.96483786 159.96742609 -69.8984375 176.25878906 C-70.5584375 176.25878906 -71.2184375 176.25878906 -71.8984375 176.25878906 C-72.20587891 177.63164063 -72.20587891 177.63164063 -72.51953125 179.03222656 C-72.78894531 180.22074219 -73.05835938 181.40925781 -73.3359375 182.63378906 C-73.60277344 183.81714844 -73.86960937 185.00050781 -74.14453125 186.21972656 C-74.8984375 189.25878906 -74.8984375 189.25878906 -75.8984375 191.25878906 C-77.50423132 208.56567798 -78.0401131 226.11239206 -70.8984375 242.25878906 C-70.2109375 245.19628906 -70.2109375 245.19628906 -69.8984375 247.25878906 C-69.2384375 247.25878906 -68.5784375 247.25878906 -67.8984375 247.25878906 C-67.8984375 248.57878906 -67.8984375 249.89878906 -67.8984375 251.25878906 C-67.2384375 251.25878906 -66.5784375 251.25878906 -65.8984375 251.25878906 C-65.79402344 251.96777344 -65.68960938 252.67675781 -65.58203125 253.40722656 C-64.81415107 256.61038387 -63.5755816 259.01769709 -61.9609375 261.88378906 C-61.17396484 263.2953125 -61.17396484 263.2953125 -60.37109375 264.73535156 C-59.27491468 266.61368493 -58.10479818 268.44924804 -56.8984375 270.25878906 C-56.2384375 270.25878906 -55.5784375 270.25878906 -54.8984375 270.25878906 C-54.6303125 270.84144531 -54.3621875 271.42410156 -54.0859375 272.02441406 C-52.88362759 274.28665507 -51.56017837 276.06455224 -49.8984375 278.00878906 C-49.125 278.92917969 -49.125 278.92917969 -48.3359375 279.86816406 C-46.99220498 281.49055282 -46.99220498 281.49055282 -44.8984375 281.25878906 C-44.8984375 281.91878906 -44.8984375 282.57878906 -44.8984375 283.25878906 C-34.6313632 292.94680928 -21.91954724 300.74407481 -8.32421875 304.54003906 C-6.16261644 305.18051382 -4.16057444 305.94775772 -2.0859375 306.82128906 C9.32730772 311.12390135 22.08229076 310.7771729 34.1015625 310.25878906 C34.7615625 309.92878906 35.4215625 309.59878906 36.1015625 309.25878906 C37.53686489 309.12777769 38.97515214 309.02871437 40.4140625 308.94628906 C46.94144083 308.35891975 52.91736462 306.33850028 59.1015625 304.25878906 C60.22046875 303.88625 61.339375 303.51371094 62.4921875 303.12988281 C63.35328125 302.84242188 64.214375 302.55496094 65.1015625 302.25878906 C65.1015625 301.59878906 65.1015625 300.93878906 65.1015625 300.25878906 C65.7615625 300.17628906 66.4215625 300.09378906 67.1015625 300.00878906 C82.03783908 296.27471992 98.29875251 281.16135708 106.1015625 268.25878906 C106.1015625 267.59878906 106.1015625 266.93878906 106.1015625 266.25878906 C106.7615625 266.25878906 107.4215625 266.25878906 108.1015625 266.25878906 C110.3789126 263.44368913 110.3789126 263.44368913 110.1015625 260.25878906 C110.7615625 260.25878906 111.4215625 260.25878906 112.1015625 260.25878906 C115.03509797 254.15981809 117.60208921 248.17426936 119.41796875 241.64941406 C120.0752588 239.35077684 120.85153072 237.13138942 121.6640625 234.88378906 C128.34324051 214.67048718 125.15637829 194.12799039 119.1015625 174.25878906 C118.4415625 174.25878906 117.7815625 174.25878906 117.1015625 174.25878906 C117.0603125 173.33066406 117.0190625 172.40253906 116.9765625 171.44628906 C114.81227508 157.0465634 99.64404734 140.9814386 89.2265625 131.69628906 C87.25305919 130.07201927 87.25305919 130.07201927 85.1015625 130.25878906 C85.1015625 129.59878906 85.1015625 128.93878906 85.1015625 128.25878906 C70.88237359 117.39846368 51.85432286 108.89113882 33.76171875 108.99316406 C32.99532578 108.99125061 32.2289328 108.98933716 31.4393158 108.98736572 C29.83006458 108.98601423 28.22080208 108.98963767 26.61157227 108.99804688 C24.1737369 109.0087466 21.73664076 108.99812398 19.29882812 108.98535156 C8.65215843 108.97561222 -0.04570913 109.86024961 -9.8984375 114.25878906 Z " fill="#003060" transform="translate(790.8984375,605.7412109375)"/>
<path d="M0 0 C2.475 0.495 2.475 0.495 5 1 C5 1.66 5 2.32 5 3 C5.66 3 6.32 3 7 3 C8.4453125 4.50390625 8.4453125 4.50390625 10.125 6.5625 C13.29312862 10.31756613 16.69430236 13.45265657 20.49609375 16.5546875 C20.99238281 17.03164062 21.48867188 17.50859375 22 18 C22 18.66 22 19.32 22 20 C22.66 20 23.32 20 24 20 C24 20.66 24 21.32 24 22 C24.66 22 25.32 22 26 22 C26 22.66 26 23.32 26 24 C26.66 24 27.32 24 28 24 C28 24.66 28 25.32 28 26 C28.66 26 29.32 26 30 26 C31.4453125 27.50390625 31.4453125 27.50390625 33.125 29.5625 C36.29312862 33.31756613 39.69430236 36.45265657 43.49609375 39.5546875 C43.99238281 40.03164062 44.48867188 40.50859375 45 41 C45 41.66 45 42.32 45 43 C45.66 43 46.32 43 47 43 C47 43.66 47 44.32 47 45 C47.66 45 48.32 45 49 45 C49 45.66 49 46.32 49 47 C49.66 47 50.32 47 51 47 C51 47.66 51 48.32 51 49 C51.66 49 52.32 49 53 49 C54.4453125 50.50390625 54.4453125 50.50390625 56.125 52.5625 C59.29312862 56.31756613 62.69430236 59.45265657 66.49609375 62.5546875 C67.24052734 63.27011719 67.24052734 63.27011719 68 64 C68 64.66 68 65.32 68 66 C68.66 66 69.32 66 70 66 C70 66.66 70 67.32 70 68 C70.66 68 71.32 68 72 68 C72 68.66 72 69.32 72 70 C72.66 70 73.32 70 74 70 C75.4453125 71.46875 75.4453125 71.46875 77.125 73.5 C83.26911567 81.19374836 83.26911567 81.19374836 91 87 C91 87.66 91 88.32 91 89 C91.66 89 92.32 89 93 89 C93 89.66 93 90.32 93 91 C93.66 91 94.32 91 95 91 C95 91.66 95 92.32 95 93 C95.66 93 96.32 93 97 93 C98.4453125 94.50390625 98.4453125 94.50390625 100.125 96.5625 C103.29312862 100.31756613 106.69430236 103.45265657 110.49609375 106.5546875 C110.99238281 107.03164062 111.48867188 107.50859375 112 108 C112 108.66 112 109.32 112 110 C112.66 110 113.32 110 114 110 C114 110.66 114 111.32 114 112 C114.66 112 115.32 112 116 112 C116 112.66 116 113.32 116 114 C116.66 114 117.32 114 118 114 C118 114.66 118 115.32 118 116 C118.66 116 119.32 116 120 116 C121.4453125 117.50390625 121.4453125 117.50390625 123.125 119.5625 C126.29312862 123.31756613 129.69430236 126.45265657 133.49609375 129.5546875 C133.99238281 130.03164062 134.48867188 130.50859375 135 131 C135 131.66 135 132.32 135 133 C135.66 133 136.32 133 137 133 C137 133.66 137 134.32 137 135 C137.66 135 138.32 135 139 135 C139 135.66 139 136.32 139 137 C139.66 137 140.32 137 141 137 C142.4453125 138.50390625 142.4453125 138.50390625 144.125 140.5625 C147.29312862 144.31756613 150.69430236 147.45265657 154.49609375 150.5546875 C154.99238281 151.03164062 155.48867188 151.50859375 156 152 C156 152.66 156 153.32 156 154 C156.66 154 157.32 154 158 154 C158 154.66 158 155.32 158 156 C158.66 156 159.32 156 160 156 C160 156.66 160 157.32 160 158 C160.66 158 161.32 158 162 158 C162 158.66 162 159.32 162 160 C162.66 160 163.32 160 164 160 C165.4453125 161.50390625 165.4453125 161.50390625 167.125 163.5625 C170.29312862 167.31756613 173.69430236 170.45265657 177.49609375 173.5546875 C177.99238281 174.03164062 178.48867188 174.50859375 179 175 C179 175.66 179 176.32 179 177 C179.66 177 180.32 177 181 177 C181 177.66 181 178.32 181 179 C181.66 179 182.32 179 183 179 C183 179.66 183 180.32 183 181 C183.66 181 184.32 181 185 181 C185 181.66 185 182.32 185 183 C185.66 183 186.32 183 187 183 C188.55078125 184.609375 188.55078125 184.609375 190.3125 186.75 C192.98362313 189.90170177 195.64182828 192.55769329 199 195 C198.67 196.32 198.34 197.64 198 199 C132.66 199 67.32 199 0 199 C0 133.33 0 67.66 0 0 Z " fill="#003060" transform="translate(543,65)"/>
</svg>
