<?xml version="1.0" encoding="UTF-8"?>
<svg version="1.1" xmlns="http://www.w3.org/2000/svg" width="1080" height="1080">
<path d="M0 0 C1.35231148 -0.00390165 2.70462176 -0.00823924 4.05693054 -0.01298523 C6.8645733 -0.02037217 9.67209008 -0.0202089 12.47973633 -0.01489258 C16.05813566 -0.00906606 19.63602273 -0.02614131 23.21433735 -0.04923725 C25.99662735 -0.06402797 28.77879482 -0.0648398 31.56111717 -0.06172752 C33.51524007 -0.06248176 35.46934415 -0.07628347 37.42341614 -0.09040833 C44.19898185 -0.05520119 49.28451567 0.46291902 55.44921875 3.30078125 C56.70734375 3.69265625 57.96546875 4.08453125 59.26171875 4.48828125 C64.927731 6.59183071 69.90860004 10.36947351 74.44921875 14.30078125 C74.44921875 14.96078125 74.44921875 15.62078125 74.44921875 16.30078125 C75.10921875 16.30078125 75.76921875 16.30078125 76.44921875 16.30078125 C78.2890625 18.49609375 78.2890625 18.49609375 80.38671875 21.42578125 C81.07636719 22.37710938 81.76601563 23.3284375 82.4765625 24.30859375 C88.22571495 33.02909034 89.7718886 40.79210106 89.63671875 51.05078125 C89.63575195 52.46810547 89.63575195 52.46810547 89.63476562 53.9140625 C89.59018934 60.87786949 89.59018934 60.87786949 88.44921875 64.30078125 C88.14627493 67.13246443 87.94166817 69.9648096 87.73046875 72.8046875 C87.44921875 75.30078125 87.44921875 75.30078125 86.44921875 77.30078125 C86.2431823 79.61010648 86.08298513 81.92364508 85.94921875 84.23828125 C85.55935642 90.97036823 85.55935642 90.97036823 84.44921875 94.30078125 C84.24587392 96.78328267 84.07794043 99.25204589 83.94921875 101.73828125 C83.58251063 108.78043525 83.58251063 108.78043525 82.94921875 111.25268555 C82.41944692 113.42273237 82.25965499 115.40649975 82.16796875 117.63671875 C82.13058594 118.45398438 82.09320313 119.27125 82.0546875 120.11328125 C82.01988281 120.95890625 81.98507812 121.80453125 81.94921875 122.67578125 C81.87965753 124.35040316 81.80681382 126.02489239 81.73046875 127.69921875 C81.70017578 128.43833496 81.66988281 129.17745117 81.63867188 129.93896484 C81.44921875 132.30078125 81.44921875 132.30078125 80.94213867 134.84692383 C80.21398215 139.9490686 80.28645711 145.01644984 80.28125 150.1640625 C80.2779216 151.31061813 80.2745932 152.45717377 80.27116394 153.63847351 C80.26611044 156.06000366 80.26375513 158.48154075 80.26391602 160.90307617 C80.26173266 164.58979895 80.24356841 168.27622085 80.22460938 171.96289062 C80.22167443 174.32161357 80.21969031 176.68033792 80.21875 179.0390625 C80.20797173 180.68011711 80.20797173 180.68011711 80.19697571 182.35432434 C80.22923166 193.26892665 82.58506339 201.57247053 87.44921875 211.30078125 C88.03896484 212.48027344 88.03896484 212.48027344 88.640625 213.68359375 C95.81291266 227.27069974 105.71866327 236.52532958 119.44921875 243.30078125 C119.44921875 243.96078125 119.44921875 244.62078125 119.44921875 245.30078125 C120.10921875 244.97078125 120.76921875 244.64078125 121.44921875 244.30078125 C122.83706494 236.5854521 122.79961178 228.69845771 123.0546875 220.88085938 C123.09207031 219.85025391 123.12945312 218.81964844 123.16796875 217.7578125 C123.19826172 216.8294458 123.22855469 215.9010791 123.25976562 214.94458008 C123.44921875 212.30078125 123.44921875 212.30078125 123.94921875 209.80957031 C124.49434846 207.07433943 124.6419632 204.48987282 124.73046875 201.703125 C124.76785156 200.65447266 124.80523437 199.60582031 124.84375 198.52539062 C124.91418771 196.33008214 124.98449976 194.13476962 125.0546875 191.93945312 C125.09207031 190.89208984 125.12945312 189.84472656 125.16796875 188.765625 C125.19826172 187.81292725 125.22855469 186.86022949 125.25976562 185.87866211 C125.43152841 183.54149297 125.88377538 181.56255471 126.44921875 179.30078125 C126.58290913 177.48166178 126.67249944 175.65904153 126.73046875 173.8359375 C126.76785156 172.78857422 126.80523437 171.74121094 126.84375 170.66210938 C126.87855469 169.57349609 126.91335938 168.48488281 126.94921875 167.36328125 C127.01836545 165.20820907 127.09115306 163.05324995 127.16796875 160.8984375 C127.19826172 159.94461182 127.22855469 158.99078613 127.25976562 158.00805664 C127.44527728 155.3571047 127.92558225 152.90234442 128.44921875 150.30078125 C128.5788677 148.52178384 128.67083334 146.73974947 128.73046875 144.95703125 C128.76785156 143.95800781 128.80523437 142.95898438 128.84375 141.9296875 C128.89595703 140.38087891 128.89595703 140.38087891 128.94921875 138.80078125 C129.01839446 136.7485684 129.09118639 134.69647358 129.16796875 132.64453125 C129.19826172 131.73896484 129.22855469 130.83339844 129.25976562 129.90039062 C129.44921875 127.30078125 129.44921875 127.30078125 130.44921875 122.30078125 C130.77921875 117.02078125 131.10921875 111.74078125 131.44921875 106.30078125 C144.64921875 106.30078125 157.84921875 106.30078125 171.44921875 106.30078125 C173.73196984 126.84554108 173.73196984 126.84554108 174.01171875 137.17578125 C174.07169459 139.21495988 174.13533776 141.25403484 174.203125 143.29296875 C174.22705322 144.1629248 174.25098145 145.03288086 174.27563477 145.92919922 C174.3769281 148.25450273 174.3769281 148.25450273 174.94702148 150.2722168 C175.57155743 152.79495339 175.64788732 155.16848308 175.73046875 157.765625 C175.76785156 158.81298828 175.80523437 159.86035156 175.84375 160.93945312 C175.87855469 162.02806641 175.91335938 163.11667969 175.94921875 164.23828125 C176.01836545 166.39335343 176.09115306 168.54831255 176.16796875 170.703125 C176.19826172 171.65695068 176.22855469 172.61077637 176.25976562 173.59350586 C176.44527873 176.24447861 176.9260224 178.69910566 177.44921875 181.30078125 C177.57893066 183.09150759 177.67086057 184.88525922 177.73046875 186.6796875 C177.76785156 187.68322266 177.80523437 188.68675781 177.84375 189.72070312 C177.91419345 191.81965707 177.98450547 193.91861543 178.0546875 196.01757812 C178.09207031 197.01982422 178.12945312 198.02207031 178.16796875 199.0546875 C178.19826172 199.96549072 178.22855469 200.87629395 178.25976562 201.81469727 C178.37372084 204.2381985 178.37372084 204.2381985 178.94921875 206.28710938 C179.57414905 208.80391852 179.64806931 211.17420652 179.73046875 213.765625 C179.76785156 214.81298828 179.80523437 215.86035156 179.84375 216.93945312 C179.87855469 218.02806641 179.91335938 219.11667969 179.94921875 220.23828125 C180.01836545 222.39335343 180.09115306 224.54831255 180.16796875 226.703125 C180.19826172 227.65695068 180.22855469 228.61077637 180.25976562 229.59350586 C180.44505892 232.24133751 180.89619674 234.70840422 181.44921875 237.30078125 C181.56600674 239.97756198 181.49466935 242.61919582 181.44921875 245.30078125 C186.90860388 242.71419878 191.80539182 240.21901022 196.44921875 236.30078125 C197.10921875 236.30078125 197.76921875 236.30078125 198.44921875 236.30078125 C198.44921875 235.64078125 198.44921875 234.98078125 198.44921875 234.30078125 C200.09924703 232.94691189 201.76665745 231.61399983 203.44921875 230.30078125 C203.77921875 229.64078125 204.10921875 228.98078125 204.44921875 228.30078125 C205.10921875 228.30078125 205.76921875 228.30078125 206.44921875 228.30078125 C206.71734375 227.74390625 206.98546875 227.18703125 207.26171875 226.61328125 C208.55821371 224.08852791 209.87398198 221.66363641 211.44921875 219.30078125 C212.10921875 219.30078125 212.76921875 219.30078125 213.44921875 219.30078125 C213.58199219 218.7284375 213.71476562 218.15609375 213.8515625 217.56640625 C214.44302192 215.3242725 215.18210729 213.21498506 216.01171875 211.05078125 C216.28113281 210.344375 216.55054688 209.63796875 216.828125 208.91015625 C217.13556641 208.11351562 217.13556641 208.11351562 217.44921875 207.30078125 C218.10921875 207.30078125 218.76921875 207.30078125 219.44921875 207.30078125 C219.35640625 206.34171875 219.35640625 206.34171875 219.26171875 205.36328125 C219.4366997 202.50525908 219.90003535 201.02474715 220.94042969 198.43261719 C223.00572005 192.37237527 222.84346598 186.47329676 222.77734375 180.12890625 C222.77547058 178.88832458 222.77359741 177.64774292 222.77166748 176.36956787 C222.7649739 173.7608367 222.7511135 171.1521151 222.73046875 168.54345703 C222.69920946 164.54959414 222.68948239 160.55647218 222.68359375 156.5625 C222.67442679 154.0221306 222.664052 151.48176521 222.65234375 148.94140625 C222.64596893 147.152258 222.64596893 147.152258 222.63946533 145.32696533 C222.62985779 144.21520935 222.62025024 143.10345337 222.61035156 141.95800781 C222.60352356 140.98365784 222.59669556 140.00930786 222.58966064 139.00543213 C222.45131448 136.34114111 222.01844575 133.9028085 221.44921875 131.30078125 C221.32187481 129.71718713 221.22864345 128.13051572 221.16796875 126.54296875 C221.13058594 125.67027344 221.09320313 124.79757812 221.0546875 123.8984375 C220.98407282 122.07553251 220.91376289 120.2526157 220.84375 118.4296875 C220.80636719 117.55957031 220.76898438 116.68945312 220.73046875 115.79296875 C220.70017578 115.0026123 220.66988281 114.21225586 220.63867188 113.39794922 C220.5127803 111.10881414 220.5127803 111.10881414 219.44921875 108.30078125 C219.19023596 104.87285633 219.0068072 101.4508381 218.84375 98.01757812 C218.70890388 94.02935153 218.70890388 94.02935153 217.44921875 90.30078125 C217.13146153 86.6995328 216.93755302 83.0974643 216.73046875 79.48828125 C216.65496793 76.40655612 216.65496793 76.40655612 215.44921875 74.30078125 C215.1342127 71.22072213 214.93838227 68.13978213 214.73046875 65.05078125 C214.61734383 62.34212132 214.61734383 62.34212132 213.44921875 60.30078125 C213.21011058 57.26511214 213.26401788 54.21982959 213.26171875 51.17578125 C213.24947266 50.345625 213.23722656 49.51546875 213.22460938 48.66015625 C213.21177258 43.2002402 213.9175348 38.54362039 215.44921875 33.30078125 C216.10921875 33.30078125 216.76921875 33.30078125 217.44921875 33.30078125 C217.59359375 32.53765625 217.73796875 31.77453125 217.88671875 30.98828125 C218.44921875 28.30078125 218.44921875 28.30078125 219.44921875 25.30078125 C220.10921875 25.30078125 220.76921875 25.30078125 221.44921875 25.30078125 C221.52269531 24.73875 221.59617187 24.17671875 221.671875 23.59765625 C222.73328898 20.46141796 224.53239541 18.85613467 226.88671875 16.55078125 C227.68980469 15.7515625 228.49289062 14.95234375 229.3203125 14.12890625 C231.44921875 12.30078125 231.44921875 12.30078125 233.44921875 12.30078125 C233.44921875 11.64078125 233.44921875 10.98078125 233.44921875 10.30078125 C234.43921875 10.30078125 235.42921875 10.30078125 236.44921875 10.30078125 C236.44921875 9.64078125 236.44921875 8.98078125 236.44921875 8.30078125 C237.67704737 7.6731567 238.90655711 7.0488206 240.13671875 6.42578125 C240.82121094 6.07773437 241.50570313 5.7296875 242.2109375 5.37109375 C254.99441164 -0.74177172 269.03779063 -0.03062003 282.88671875 0.05078125 C283.81852966 0.05388306 284.75034058 0.05698486 285.71038818 0.06018066 C305.10935526 0.13606048 323.75418017 0.7047054 342.44921875 6.30078125 C343.97675781 6.73003906 343.97675781 6.73003906 345.53515625 7.16796875 C353.69339622 9.63949989 361.11272268 13.44621394 368.64746094 17.36767578 C371.23388356 18.70714831 373.84086035 20.00467747 376.44921875 21.30078125 C376.44921875 21.96078125 376.44921875 22.62078125 376.44921875 23.30078125 C377.43921875 23.30078125 378.42921875 23.30078125 379.44921875 23.30078125 C379.44921875 23.96078125 379.44921875 24.62078125 379.44921875 25.30078125 C380.43921875 25.30078125 381.42921875 25.30078125 382.44921875 25.30078125 C382.44921875 25.96078125 382.44921875 26.62078125 382.44921875 27.30078125 C383.13628906 27.50574219 383.82335937 27.71070313 384.53125 27.921875 C388.4212595 29.76012581 391.06798482 32.39185711 394.13671875 35.36328125 C397.97014713 39.26973703 397.97014713 39.26973703 402.44921875 42.30078125 C402.44921875 42.96078125 402.44921875 43.62078125 402.44921875 44.30078125 C403.10921875 44.30078125 403.76921875 44.30078125 404.44921875 44.30078125 C404.44921875 44.96078125 404.44921875 45.62078125 404.44921875 46.30078125 C405.10921875 46.30078125 405.76921875 46.30078125 406.44921875 46.30078125 C407.95703125 47.98046875 407.95703125 47.98046875 409.57421875 50.17578125 C410.11304688 50.89507813 410.651875 51.614375 411.20703125 52.35546875 C412.44921875 54.30078125 412.44921875 54.30078125 412.44921875 56.30078125 C413.10921875 56.30078125 413.76921875 56.30078125 414.44921875 56.30078125 C416.27951076 58.80794743 417.9749591 61.30934625 419.63671875 63.92578125 C420.12849609 64.69470703 420.62027344 65.46363281 421.12695312 66.25585938 C429.22351144 79.10636019 434.56975495 91.72582667 437.80078125 106.578125 C438.32695121 109.24609742 438.32695121 109.24609742 439.44921875 111.30078125 C439.76042159 113.85956018 439.95886541 116.41929737 440.16796875 118.98828125 C440.32057922 121.3234658 440.32057922 121.3234658 441.44921875 123.30078125 C441.55382694 126.0999083 441.5970133 128.87452531 441.59638977 131.67419434 C441.60006646 132.55089484 441.60374315 133.42759534 441.60753125 134.33086252 C441.61859729 137.28633605 441.62241692 140.24177445 441.6262207 143.19726562 C441.63248332 145.30938835 441.63912994 147.42150997 441.64613342 149.53363037 C441.66356586 155.2860622 441.67410203 161.0384857 441.68233895 166.79093742 C441.68748604 170.38478109 441.69356201 173.97862216 441.69985008 177.57246399 C441.71891134 188.8160994 441.73313856 200.05972821 441.74146205 211.30337667 C441.75122857 224.28253006 441.77752901 237.26151263 441.81796294 250.24060583 C441.84813624 260.27044491 441.86293222 270.30023508 441.86624306 280.33011866 C441.86859282 286.32092005 441.87754336 292.31153917 441.90270424 298.30229187 C441.92600994 303.9428098 441.93020795 309.58302578 441.91994286 315.22357941 C441.91944794 317.2899145 441.9257552 319.35626457 441.9394989 321.42255402 C442.06541384 341.48169684 442.06541384 341.48169684 437.44921875 349.30078125 C437.09388219 349.93073753 436.73854563 350.56069382 436.37244129 351.20973969 C435.32421875 352.92578125 435.32421875 352.92578125 433.44921875 355.30078125 C432.78921875 355.30078125 432.12921875 355.30078125 431.44921875 355.30078125 C431.44921875 355.96078125 431.44921875 356.62078125 431.44921875 357.30078125 C430.78921875 357.30078125 430.12921875 357.30078125 429.44921875 357.30078125 C429.44921875 357.96078125 429.44921875 358.62078125 429.44921875 359.30078125 C428.09375 360.484375 428.09375 360.484375 426.26171875 361.73828125 C425.67003906 362.14949219 425.07835937 362.56070312 424.46875 362.984375 C423.80230469 363.41878906 423.13585937 363.85320312 422.44921875 364.30078125 C421.78171097 364.81590775 421.11420319 365.33103424 420.4264679 365.86177063 C416.18867824 367.9100454 412.44128078 367.69651821 407.79370117 367.64135742 C406.81179212 367.64171903 405.82988306 367.64208063 404.81821918 367.64245319 C401.64683295 367.640218 398.47597883 367.61739018 395.3046875 367.59375 C393.34395604 367.58933794 391.38322105 367.58627815 389.42248535 367.58459473 C382.16050919 367.56888015 374.89860872 367.52699641 367.63671875 367.48828125 C343.28890625 367.39546875 343.28890625 367.39546875 318.44921875 367.30078125 C318.44921875 312.52078125 318.44921875 257.74078125 318.44921875 201.30078125 C316.13921875 200.97078125 313.82921875 200.64078125 311.44921875 200.30078125 C311.44921875 255.41078125 311.44921875 310.52078125 311.44921875 367.30078125 C205.18921875 367.30078125 98.92921875 367.30078125 -10.55078125 367.30078125 C-10.55078125 312.52078125 -10.55078125 257.74078125 -10.55078125 201.30078125 C-12.53078125 200.97078125 -14.51078125 200.64078125 -16.55078125 200.30078125 C-16.22078125 200.96078125 -15.89078125 201.62078125 -15.55078125 202.30078125 C-15.4563476 204.46727701 -15.4288814 206.63677611 -15.43052673 208.80532837 C-15.42967231 209.48082336 -15.42881788 210.15631835 -15.42793757 210.85228288 C-15.42628432 213.12632064 -15.43180159 215.40028539 -15.43725586 217.67431641 C-15.43753779 219.30020648 -15.43737988 220.92609669 -15.43681335 222.55198669 C-15.43652561 226.97529199 -15.44241862 231.39857035 -15.44938731 235.82186937 C-15.45562469 240.44100846 -15.45622495 245.06014812 -15.45741272 249.67929077 C-15.4605249 258.43051566 -15.46873677 267.18172811 -15.47876221 275.93294752 C-15.48992686 285.8941086 -15.49543469 295.85527027 -15.50045764 305.81643605 C-15.51091947 326.31122474 -15.52851673 346.80600221 -15.55078125 367.30078125 C-28.39893414 367.48659174 -41.24676454 367.62851679 -54.09599018 367.71527863 C-60.06325742 367.75693213 -66.02960174 367.81338142 -71.99633789 367.90429688 C-77.76062708 367.99157247 -83.5240317 368.0391293 -89.28893089 368.05979919 C-91.48214827 368.07451853 -93.6753202 368.10326268 -95.86815834 368.1466217 C-116.62324127 368.54048554 -116.62324127 368.54048554 -124.56071472 361.41394043 C-125.21743668 360.7165979 -125.87415863 360.01925537 -126.55078125 359.30078125 C-127.29979202 358.59538208 -128.0488028 357.88998291 -128.82051086 357.16320801 C-130.55078125 355.30078125 -130.55078125 355.30078125 -130.55078125 353.30078125 C-131.21078125 353.30078125 -131.87078125 353.30078125 -132.55078125 353.30078125 C-137.48219651 347.84622352 -138.2704029 342.4948222 -138.16551208 335.39945984 C-138.17119534 334.43102278 -138.1768786 333.46258572 -138.18273407 332.46480209 C-138.19560527 329.23479897 -138.17287468 326.00605688 -138.15014648 322.77612305 C-138.1520111 320.45471433 -138.15604893 318.1333065 -138.16209412 315.81190491 C-138.17206253 309.51881737 -138.15091059 303.22618074 -138.12361407 296.93315864 C-138.0997797 290.34955704 -138.10272901 283.76596432 -138.10231018 277.18232727 C-138.09855884 266.13213668 -138.07419388 255.08211041 -138.0378418 244.03198242 C-138.00045692 232.66054218 -137.97924307 221.2892269 -137.97631836 209.91772461 C-137.97613555 209.21659165 -137.97595274 208.51545869 -137.97576439 207.79307928 C-137.97558542 207.09315824 -137.97540645 206.39323721 -137.97522205 205.67210644 C-137.97485664 204.26287599 -137.97448426 202.85364554 -137.97410488 201.44441509 C-137.97391937 200.7494389 -137.97373385 200.05446271 -137.97354272 199.33842663 C-137.96975912 187.84470397 -137.94893595 176.35100615 -137.92810178 164.85730386 C-137.92186536 160.93143138 -137.91823404 157.00556316 -137.91506767 153.07968712 C-137.90918054 146.92123801 -137.89290501 140.76290046 -137.86846352 134.60449791 C-137.86100436 132.340117 -137.85695036 130.07572203 -137.85648346 127.81132889 C-137.85523173 124.72983123 -137.84173367 121.64863079 -137.82493591 118.56718445 C-137.827351 117.66311613 -137.82976608 116.75904782 -137.83225435 115.82758349 C-137.82518876 115.00446258 -137.81812317 114.18134167 -137.81084347 113.3332777 C-137.80889255 112.62184146 -137.80694162 111.91040522 -137.80493158 111.1774103 C-137.55078125 109.30078125 -137.55078125 109.30078125 -135.55078125 106.30078125 C-135.10684824 104.62529214 -134.7187965 102.93473319 -134.36328125 101.23828125 C-130.33334207 84.80245088 -122.98812858 71.24580079 -113.55078125 57.30078125 C-112.89078125 56.31078125 -112.23078125 55.32078125 -111.55078125 54.30078125 C-110.89078125 54.30078125 -110.23078125 54.30078125 -109.55078125 54.30078125 C-109.32648438 53.76066406 -109.1021875 53.22054687 -108.87109375 52.6640625 C-107.13315811 49.55326053 -104.84043842 47.07818591 -102.42578125 44.48828125 C-101.93730713 43.96073242 -101.44883301 43.43318359 -100.94555664 42.88964844 C-97.08929632 38.77411722 -93.15993907 34.58148506 -88.55078125 31.30078125 C-87.89078125 31.30078125 -87.23078125 31.30078125 -86.55078125 31.30078125 C-86.55078125 30.64078125 -86.55078125 29.98078125 -86.55078125 29.30078125 C-81.13901654 25.30078125 -81.13901654 25.30078125 -78.55078125 25.30078125 C-78.55078125 24.64078125 -78.55078125 23.98078125 -78.55078125 23.30078125 C-55.68358876 10.56048829 -55.68358876 10.56048829 -45.71484375 7.9140625 C-43.27030894 7.27458017 -43.27030894 7.27458017 -39.98828125 5.73828125 C-27.56494651 0.54306854 -13.27617756 -0.00957293 0 0 Z " fill="#003060" transform="translate(187.55078125,662.69921875)"/>
<path d="M0 0 C51.42431242 -0.18309922 102.84859191 -0.32407135 154.27316617 -0.40852264 C160.34389517 -0.41852832 166.41462352 -0.4288829 172.48535156 -0.43945312 C174.29821538 -0.44260085 174.29821538 -0.44260085 176.14770271 -0.44581217 C195.71845571 -0.48062547 215.28902078 -0.5437036 234.85966228 -0.61722237 C254.9400192 -0.69202696 275.02027767 -0.73646865 295.10076821 -0.75270796 C307.49224 -0.76368656 319.8831806 -0.79836445 332.27448888 -0.86333174 C340.77096887 -0.90561014 349.26717412 -0.91840293 357.76375167 -0.90801102 C362.66650003 -0.90288534 367.56832 -0.91075736 372.4709034 -0.9536438 C376.96227901 -0.99264586 381.45210425 -0.99449856 385.94355203 -0.96719116 C387.56555401 -0.96381761 389.18765367 -0.97391041 390.80946408 -0.99906546 C399.67868171 -1.12859725 406.03161569 -0.68631084 412.80828595 5.72144902 C413.53155159 6.47337084 414.25481722 7.22529267 415 8 C415.72522126 8.68291827 416.45044252 9.36583654 417.19764018 10.06944931 C419.47281006 12.21660482 421.68347273 14.41653577 423.88902283 16.63505554 C424.72441151 17.46732424 425.55980019 18.29959294 426.42050368 19.1570819 C428.71025536 21.44029301 430.99554402 23.72785874 433.27890599 26.01745665 C435.753053 28.49616333 438.23299099 30.96906534 440.7121582 33.44274902 C445.55546242 38.27719679 450.39338929 43.11699075 455.22935855 47.95877465 C459.15943612 51.89338092 463.09147595 55.82601624 467.02490425 59.75727272 C467.58608152 60.31814352 468.14725878 60.87901432 468.72544141 61.4568812 C469.86563542 62.59643573 471.00583391 63.73598578 472.14603681 64.87553141 C482.81571275 75.53951573 493.47926965 86.20960185 504.1407168 96.88181213 C513.2863829 106.03642493 522.43729702 115.18576436 531.59204102 124.33129883 C542.23550064 134.96405625 552.87570979 145.60004912 563.51074797 156.24123031 C564.64442983 157.37554925 565.77811586 158.50986402 566.91180611 159.64417458 C567.46954848 160.2022255 568.02729085 160.76027642 568.6019345 161.33523798 C572.53067611 165.26570575 576.46173222 169.19384946 580.39369011 173.12109947 C585.18206209 177.90386374 589.96685702 182.69017225 594.74709546 187.48106631 C597.1854808 189.92470791 599.62543804 192.3667229 602.06975746 194.80443001 C604.71777022 197.44699575 607.35957412 200.09561537 609.99986267 202.74589539 C610.77416545 203.51573672 611.54846824 204.28557806 612.34623474 205.07874793 C613.0531702 205.79089888 613.76010566 206.50304983 614.4884634 207.23678112 C615.09856933 207.84721175 615.70867526 208.45764239 616.33726925 209.08657092 C621.23744893 214.72557549 621.43170132 218.99233335 621.38590336 226.23490524 C621.39116247 227.28068464 621.39642158 228.32646403 621.40184006 229.4039337 C621.41586981 232.93157702 621.40841105 236.45885207 621.40113831 239.98651123 C621.4067398 242.53196525 621.41364077 245.07741669 621.42173427 247.62286401 C621.43629345 253.16948049 621.44144618 258.71598452 621.43836594 264.26261711 C621.43379642 272.51115615 621.446265 280.75960808 621.46198981 289.0081302 C621.49103077 304.59914255 621.49944342 320.19012537 621.50116099 335.78116158 C621.50253911 347.82514404 621.50871153 359.86911488 621.51826286 371.91309357 C621.5209555 375.37887771 621.52362494 378.84466186 621.5262875 382.31044602 C621.52695064 383.17204917 621.52761378 384.03365232 621.52829702 384.92136465 C621.5467659 409.16510336 621.55859815 433.40883803 621.55726719 457.65258408 C621.55722045 458.56701578 621.55717372 459.48144749 621.55712556 460.42358925 C621.55687624 465.05836376 621.55657912 469.69313827 621.55627144 474.32791278 C621.55618169 475.70864418 621.55618169 475.70864418 621.55609012 477.11726914 C621.55596881 478.97872332 621.55584342 480.8401775 621.55571395 482.70163168 C621.55387691 511.6434182 621.57637018 540.58509916 621.61743164 569.52685547 C621.66354393 602.04206452 621.68932831 634.55720421 621.68654197 667.07244802 C621.68631809 670.54200443 621.68617196 674.01156083 621.68607903 677.48111725 C621.68604406 678.3354087 621.6860091 679.18970016 621.68597308 680.06987923 C621.68588086 693.80271157 621.70501854 707.53545213 621.73087582 721.2682572 C621.75634527 735.08126035 621.75924425 748.89412966 621.73954786 762.70714334 C621.72848557 770.9065747 621.73388432 779.10559873 621.76337488 787.30498668 C621.78356547 793.43870375 621.77214797 799.5719898 621.74875521 805.70568696 C621.74415339 808.17890836 621.74958694 810.6521742 621.76633544 813.12534317 C621.87929647 830.99620573 619.9453827 845.91102849 609.75 861.0625 C609.1003125 862.09213867 609.1003125 862.09213867 608.4375 863.14257812 C607.35957816 864.80770121 606.1884314 866.41186235 605 868 C604.34 868 603.68 868 603 868 C602.72671875 868.58652344 602.4534375 869.17304687 602.171875 869.77734375 C593.69044329 885.86379256 572.57128523 896.97307516 555.9765625 902.2109375 C554.99429688 902.47132813 554.01203125 902.73171875 553 903 C552.37598944 903.16670122 551.75197888 903.33340244 551.10905892 903.50515521 C545.18253627 904.96586695 539.60567583 905.28754252 533.51853943 905.26742554 C532.49968959 905.27195665 531.48083976 905.27648776 530.43111569 905.28115618 C527.03663118 905.29375876 523.64230796 905.2921825 520.24780273 905.29052734 C517.8062825 905.29651498 515.36476416 905.30332107 512.92324829 905.31088257 C506.9921509 905.3266913 501.06109097 905.33298962 495.1299768 905.33410732 C490.30807657 905.33505984 485.48618939 905.33918026 480.66429329 905.34550858 C466.97894073 905.36310278 453.29361945 905.37234973 439.6082555 905.37084763 C438.87168402 905.37076772 438.13511253 905.3706878 437.3762207 905.37060547 C436.27000808 905.37048283 436.27000808 905.37048283 435.14144773 905.37035771 C423.18106317 905.36954423 411.22080437 905.38870216 399.2604562 905.4168822 C386.96558876 905.445621 374.67078265 905.45942211 362.37588078 905.45769465 C355.47871236 905.45703133 348.58167598 905.46249878 341.68453789 905.48405075 C335.20102201 905.50418158 328.71771298 905.50357883 322.23418045 905.48901749 C319.85578186 905.48692474 317.47736594 905.49165789 315.09899712 905.5037384 C311.85049514 905.51916951 308.60295806 905.50989608 305.35447693 905.49447632 C304.41507261 905.50476344 303.4756683 905.51505057 302.50779718 905.52564943 C294.03886423 905.43690622 288.23626724 902.56992459 282 896.875 C281.236875 896.19179688 280.47375 895.50859375 279.6875 894.8046875 C278 893 278 893 278 891 C277.34 891 276.68 891 276 891 C272.0692875 884.43849566 271.47863952 879.56678248 271.75 872 C271.76804687 871.03449219 271.78609375 870.06898438 271.8046875 869.07421875 C271.85140313 866.71507967 271.91687863 864.35808925 272 862 C272.66 862 273.32 862 274 862 C274.061875 861.01 274.061875 861.01 274.125 860 C276.38498297 852.25148697 282.68004725 846.74329992 289.53769112 842.9226408 C294.3812461 840.54420471 298.69897033 840.4381052 304.02194214 840.48774719 C305.00333542 840.48095151 305.9847287 840.47415582 306.99586117 840.4671542 C310.26944429 840.44926106 313.54231153 840.45964835 316.81591797 840.4699707 C319.16850863 840.46287065 321.52109452 840.45400626 323.87367249 840.44351196 C330.25128601 840.41992179 336.62869485 840.420631 343.00634146 840.42542672 C349.00098947 840.42595993 354.99556587 840.40757031 360.99017824 840.38903918 C372.86193757 840.35286824 384.73365907 840.33367642 396.60546875 840.32592773 C408.12924946 840.31835629 419.65299548 840.30524234 431.17675781 840.28295898 C431.88741716 840.28158829 432.59807651 840.28021759 433.33027099 840.27880535 C441.08472228 840.26368557 448.8391694 840.24695701 456.59361458 840.22898388 C457.61499029 840.22662592 457.61499029 840.22662592 458.65699986 840.22422033 C462.7391691 840.21479468 462.7391691 840.21479468 466.82133795 840.20520272 C475.44454517 840.18484101 484.06773006 840.17169107 492.69096065 840.16614306 C497.62404141 840.16232199 502.55711179 840.15471363 507.49018669 840.1463356 C509.78563338 840.1433657 512.08108307 840.14214166 514.3765316 840.14274788 C517.49769924 840.1434107 520.61880078 840.13809535 523.73995972 840.13130188 C524.65861372 840.13305225 525.57726772 840.13480262 526.52375972 840.13660604 C530.89899491 840.25948542 530.89899491 840.25948542 535 839 C536.99960012 838.960008 539.00047242 838.95653201 541 839 C541 838.34 541 837.68 541 837 C541.58007812 836.75507812 542.16015625 836.51015625 542.7578125 836.2578125 C549.56411706 833.00067005 553.04537988 828.92640454 556 822 C557.78017218 815.9882948 558.28804225 810.62798286 558.26171303 804.37921143 C558.26570909 803.43631002 558.26970515 802.49340862 558.27382231 801.52193445 C558.28479075 798.36255136 558.28159607 795.20334357 558.2784729 792.04394531 C558.28347608 789.75602426 558.28935194 787.46810497 558.29602563 785.18018818 C558.31183691 778.89318362 558.31525694 772.60622374 558.31667423 766.31920171 C558.31998713 760.23569994 558.33264081 754.15222414 558.3450741 748.0687354 C558.37018154 735.62610029 558.38605497 723.18346945 558.39665604 710.74081421 C558.40718182 698.42197758 558.42181771 686.10315712 558.44193649 673.78433228 C558.44380979 672.6351825 558.44380979 672.6351825 558.44572094 671.46281757 C558.45208474 667.57214431 558.45852191 663.68147117 558.46498732 659.79079807 C558.51064351 632.23700531 558.54709394 604.68320731 558.578125 577.12939453 C558.60829132 550.36213411 558.64263096 523.59488435 558.68261719 496.82763672 C558.68446369 495.58989565 558.68446369 495.58989565 558.6863475 494.32714972 C558.69871441 486.0405064 558.71116613 477.75386322 558.72367998 469.46722012 C558.74916995 452.58654591 558.77409389 435.70587087 558.79867554 418.82519531 C558.79980645 418.04905826 558.80093736 417.2729212 558.80210253 416.47326484 C558.87755098 364.64885557 558.93976374 312.82442892 559 261 C558.37807424 261.00276538 557.75614847 261.00553076 557.11537647 261.00837994 C541.93091623 261.07484619 526.74650111 261.12438046 511.56193256 261.15543652 C504.21856245 261.17085702 496.87528989 261.19185347 489.53198242 261.22631836 C483.12605553 261.25636925 476.72019935 261.27560994 470.31420392 261.28226548 C466.92724323 261.28615141 463.54048467 261.29518112 460.15358925 261.31719017 C456.35788867 261.33912812 452.56259998 261.34196004 448.7668457 261.34057617 C447.11174232 261.35675491 447.11174232 261.35675491 445.42320251 261.3732605 C434.56340597 261.33072133 424.65850179 259.3934327 415.12109375 254.0859375 C413.0735685 253.0376649 411.24543359 252.45825175 409 252 C409 251.34 409 250.68 409 250 C408.43539063 249.896875 407.87078125 249.79375 407.2890625 249.6875 C392.91929338 245.3716649 378.36295871 227.94031627 371.2734375 215.3671875 C370.64308594 214.19542969 370.64308594 214.19542969 370 213 C369.62101562 212.32195312 369.24203125 211.64390625 368.8515625 210.9453125 C366.45368963 206.4560618 364.95369868 201.90878566 363.61328125 197.00390625 C363.17799785 195.02159136 363.17799785 195.02159136 362 194 C360.01165619 186.80584898 359.72511634 180.1229573 359.77294922 172.68725586 C359.77265717 171.48625244 359.77236511 170.28524902 359.77206421 169.04785156 C359.77321199 165.78188976 359.78318502 162.51610335 359.79721212 159.25017619 C359.8097851 155.82691265 359.81089513 152.40364501 359.81326294 148.98036194 C359.81945853 142.51013171 359.83584311 136.03996973 359.85596192 129.56976944 C359.87838101 122.19848934 359.88932941 114.82720583 359.89935279 107.45590007 C359.92021122 92.30389547 359.9553495 77.15195459 360 62 C317.22135872 62.08177172 274.44275105 62.17394086 231.66416288 62.28005161 C226.61359249 62.29257046 221.5630219 62.30500324 216.51245117 62.31738281 C215.50697479 62.31984881 214.5014984 62.3223148 213.46555304 62.32485552 C197.18569529 62.36457764 180.9058306 62.39732741 164.62595267 62.42749982 C147.92091505 62.45861542 131.21590687 62.49722531 114.51090235 62.54279006 C104.20329845 62.57066904 93.89571609 62.59270467 83.58808463 62.60726251 C76.51946297 62.61780579 69.450883 62.63562953 62.38229275 62.65916704 C58.30430442 62.67253157 54.22637452 62.68269691 50.14836311 62.68421364 C46.41182701 62.68567432 42.67543154 62.69631688 38.93893867 62.71413441 C36.95332895 62.72125038 34.96769168 62.7186538 32.98207146 62.71566427 C20.65287875 62.74637018 20.65287875 62.74637018 9.5625 67.625 C6.16473988 70 6.16473988 70 4 70 C4 70.66 4 71.32 4 72 C3.34 72 2.68 72 2 72 C0.07767483 76.58400619 -1.45324795 81.28019659 -3 86 C-3.495 87.485 -3.495 87.485 -4 89 C-4.09783024 92.05836199 -4.13730095 95.09399313 -4.13130188 98.1525116 C-4.13341759 99.10089804 -4.13553331 100.04928449 -4.13771313 101.02640992 C-4.14372573 104.21838306 -4.14271208 107.4103168 -4.1418457 110.60229492 C-4.14487639 112.88529528 -4.14839759 115.16829504 -4.15237427 117.45129395 C-4.16027103 122.37530268 -4.16541113 127.29930415 -4.16866493 132.2233181 C-4.17456835 140.0095225 -4.19110265 147.79568102 -4.21000671 155.5818634 C-4.21634435 158.24616906 -4.22267204 160.91047474 -4.22898388 163.57478046 C-4.23056764 164.24065174 -4.2321514 164.90652302 -4.23378316 165.59257221 C-4.25172208 173.17344668 -4.26794667 180.75432426 -4.28295898 188.33520508 C-4.28502279 189.37473246 -4.28502279 189.37473246 -4.28712829 190.43526039 C-4.30904524 201.65878622 -4.31981129 212.88230078 -4.32732973 224.10584422 C-4.3354068 235.63215893 -4.35898085 247.15836266 -4.3952834 258.68462449 C-4.41505748 265.15486384 -4.42744412 271.62493381 -4.42244911 278.09520531 C-4.41780669 284.18309289 -4.43158643 290.27065949 -4.45946121 296.35848236 C-4.46638001 298.59173085 -4.46649219 300.82501247 -4.45926094 303.05825996 C-4.45037801 306.1100786 -4.46605831 309.16083752 -4.48774719 312.21257019 C-4.47508339 313.53443298 -4.47508339 313.53443298 -4.46216375 314.88300008 C-4.54143914 320.92668058 -5.96126146 324.76819268 -9 330 C-9.66 330 -10.32 330 -11 330 C-11.26554687 330.598125 -11.53109375 331.19625 -11.8046875 331.8125 C-13.03853341 334.07051866 -14.18153147 335.33675251 -16.125 337 C-16.93324219 337.7115625 -16.93324219 337.7115625 -17.7578125 338.4375 C-24.07821965 342.84196492 -29.28581163 344.65796973 -37 344.5 C-37.75539063 344.51546875 -38.51078125 344.5309375 -39.2890625 344.546875 C-47.33347822 344.49158692 -53.11786023 341.24653736 -59 335.875 C-59.763125 335.19179688 -60.52625 334.50859375 -61.3125 333.8046875 C-63 332 -63 332 -63 330 C-63.66 330 -64.32 330 -65 330 C-68.71176033 323.66644196 -69.57515071 319.03493261 -69.49447632 311.75941467 C-69.49930515 310.75437549 -69.50413398 309.7493363 -69.50910914 308.71384138 C-69.52034401 305.35982247 -69.50308759 302.00657209 -69.48583984 298.65258789 C-69.48798661 296.24239394 -69.49186565 293.83220101 -69.49734497 291.42201233 C-69.50602539 285.56322638 -69.49617799 279.70464616 -69.47764437 273.84589941 C-69.45682139 267.01655004 -69.45701823 260.18724899 -69.45798953 253.35787385 C-69.45898978 241.16797825 -69.44069546 228.97818775 -69.41162109 216.78833008 C-69.38345451 204.97288091 -69.36927939 193.15752422 -69.37060547 181.34204102 C-69.37068538 180.61443052 -69.37076529 179.88682002 -69.37084763 179.13716073 C-69.37092834 178.41078113 -69.37100905 177.68440152 -69.3710922 176.93601042 C-69.37247396 163.46719999 -69.36067911 149.99842868 -69.34278577 136.52963095 C-69.33676683 131.7748345 -69.33462827 127.02004527 -69.33372116 122.26524544 C-69.33220982 115.8589198 -69.31947224 109.4526718 -69.29938889 103.04637718 C-69.29355758 100.69743569 -69.29108436 98.34848305 -69.29224396 95.99953461 C-69.29322902 92.78877722 -69.28187829 89.57828879 -69.26742554 86.36756897 C-69.27052274 85.44206822 -69.27361995 84.51656747 -69.276811 83.56302124 C-69.21560656 75.30705799 -67.34374677 67.86829272 -65 60 C-64.34 60 -63.68 60 -63 60 C-63.061875 58.88625 -63.061875 58.88625 -63.125 57.75 C-62.99601866 54.91241048 -62.42948778 53.41226062 -61 51 C-60.34 51 -59.68 51 -59 51 C-59 49.68 -59 48.36 -59 47 C-58.34 47 -57.68 47 -57 47 C-56.88527344 46.42765625 -56.77054687 45.8553125 -56.65234375 45.265625 C-55.93817644 42.78528344 -54.92692128 40.93631303 -53.5625 38.75 C-52.91474609 37.69039062 -52.91474609 37.69039062 -52.25390625 36.609375 C-51.84011719 36.07828125 -51.42632812 35.5471875 -51 35 C-50.34 35 -49.68 35 -49 35 C-48.731875 34.41734375 -48.46375 33.8346875 -48.1875 33.234375 C-46.98519009 30.97213399 -45.66174087 29.19423682 -44 27.25 C-43.484375 26.63640625 -42.96875 26.0228125 -42.4375 25.390625 C-41 24 -41 24 -39 24 C-39 23.34 -39 22.68 -39 22 C-36.91796875 20.0546875 -36.91796875 20.0546875 -34.1875 17.875 C-33.29417969 17.15054688 -32.40085937 16.42609375 -31.48046875 15.6796875 C-29 14 -29 14 -26 14 C-26 13.34 -26 12.68 -26 12 C-6.98630137 2 -6.98630137 2 0 2 C0 1.34 0 0.68 0 0 Z M423 108 C423.08458467 116.22383163 423.17953735 124.44745182 423.28752708 132.6710062 C423.33735599 136.49002552 423.38368652 140.30901897 423.421875 144.12817383 C423.45889806 147.81765833 423.50530274 151.50691904 423.55806351 155.19621086 C423.57651745 156.59988393 423.59165822 158.00360481 423.60334396 159.40735054 C423.62036078 161.38177147 423.6505247 163.35606556 423.68115234 165.33032227 C423.69447601 166.45173111 423.70779968 167.57313995 423.7215271 168.72853088 C424.03043273 172.35752034 424.90777689 175.5324737 426 179 C426.34135927 180.33130115 426.67925956 181.66358148 427 183 C427.66 183 428.32 183 429 183 C429.226875 183.7425 429.45375 184.485 429.6875 185.25 C431.2589561 188.5425747 432.99995716 189.97497109 436 192 C436.66 192 437.32 192 438 192 C438 192.66 438 193.32 438 194 C446.3109398 198.84804822 455.49073805 198.26733791 464.78125 198.1953125 C466.20470988 198.19157606 467.62817236 198.18873207 469.05163574 198.18673706 C472.77359284 198.17915025 476.49539047 198.15954519 480.21728516 198.1373291 C484.02504317 198.11676314 487.83282729 198.1077125 491.640625 198.09765625 C499.0938222 198.07629389 506.54688864 198.04221885 514 198 C509.61343403 193.61124701 505.22131871 189.22806718 500.82910156 184.8449707 C492.60909094 176.64128781 484.39159766 168.43508715 476.1755867 160.22739887 C471.20581048 155.26279346 466.23508842 150.29914171 461.26220703 145.33764648 C456.44963449 140.53608698 451.63966061 135.73193699 446.8312912 130.92616844 C444.9964647 129.09319399 443.16075625 127.26110196 441.32416534 125.4298954 C438.76490441 122.87784804 436.20874383 120.32273471 433.65332031 117.7668457 C432.88865952 117.00578018 432.12399872 116.24471466 431.33616638 115.46058655 C430.29738091 114.41973907 430.29738091 114.41973907 429.23760986 113.35786438 C428.63295521 112.75413152 428.02830055 112.15039865 427.40532303 111.52837086 C426 110 426 110 425 108 C424.34 108 423.68 108 423 108 Z " fill="#003060" transform="translate(378,50)"/>
<path d="M0 0 C2.65237828 0.01609867 5.30323355 0.00004561 7.95556641 -0.01904297 C28.94429902 -0.04438609 47.58890749 4.45901789 66.15478516 14.39111328 C67.62818359 15.17035156 67.62818359 15.17035156 69.13134766 15.96533203 C71.82415374 17.41034487 74.49391569 18.88817807 77.15478516 20.39111328 C78.11255859 20.93123047 79.07033203 21.47134766 80.05712891 22.02783203 C80.97623047 22.56021484 81.89533203 23.09259766 82.84228516 23.64111328 C83.67115234 24.12064453 84.50001953 24.60017578 85.35400391 25.09423828 C85.94826172 25.52220703 86.54251953 25.95017578 87.15478516 26.39111328 C87.15478516 27.05111328 87.15478516 27.71111328 87.15478516 28.39111328 C88.80478516 29.05111328 90.45478516 29.71111328 92.15478516 30.39111328 C92.15478516 31.05111328 92.15478516 31.71111328 92.15478516 32.39111328 C92.75291016 32.67986328 93.35103516 32.96861328 93.96728516 33.26611328 C96.15478516 34.39111328 96.15478516 34.39111328 99.15478516 36.39111328 C99.15478516 37.05111328 99.15478516 37.71111328 99.15478516 38.39111328 C99.81478516 38.39111328 100.47478516 38.39111328 101.15478516 38.39111328 C101.15478516 39.05111328 101.15478516 39.71111328 101.15478516 40.39111328 C101.81478516 40.39111328 102.47478516 40.39111328 103.15478516 40.39111328 C103.15478516 41.05111328 103.15478516 41.71111328 103.15478516 42.39111328 C103.81478516 42.39111328 104.47478516 42.39111328 105.15478516 42.39111328 C106.66259766 43.85205078 106.66259766 43.85205078 108.27978516 45.76611328 C108.81861328 46.39259766 109.35744141 47.01908203 109.91259766 47.66455078 C111.15478516 49.39111328 111.15478516 49.39111328 111.15478516 51.39111328 C111.81478516 51.39111328 112.47478516 51.39111328 113.15478516 51.39111328 C122.24508256 62.27490179 136.90407697 82.32499569 136.15478516 97.39111328 C136.81478516 97.39111328 137.47478516 97.39111328 138.15478516 97.39111328 C140.39465272 105.69425024 142.52273928 113.7221313 142.97900391 122.35205078 C143.03424741 124.45732127 143.03424741 124.45732127 144.15478516 126.39111328 C144.40305914 130.63555531 144.34482249 134.89023749 144.34228516 139.14111328 C144.34220459 140.36491699 144.34212402 141.5887207 144.34204102 142.84960938 C144.2000381 165.34586033 144.2000381 165.34586033 141.15478516 168.39111328 C141.03103516 169.56673828 140.90728516 170.74236328 140.77978516 171.95361328 C140.3617682 175.54475896 139.46147848 178.64846765 138.09228516 182.01220703 C137.37255227 183.83852922 136.71787609 185.6905965 136.09228516 187.55126953 C133.23638164 196.0344303 129.66388869 203.66650149 125.15478516 211.39111328 C124.80416016 211.99503906 124.45353516 212.59896484 124.09228516 213.22119141 C119.46248756 221.14971979 119.46248756 221.14971979 117.15478516 224.39111328 C116.49478516 224.39111328 115.83478516 224.39111328 115.15478516 224.39111328 C114.78546875 225.4990625 114.78546875 225.4990625 114.40869141 226.62939453 C113.02729244 229.67191499 111.51651712 231.30397095 109.09228516 233.57861328 C106.23340709 236.19528409 106.23340709 236.19528409 104.15478516 239.39111328 C103.49478516 239.39111328 102.83478516 239.39111328 102.15478516 239.39111328 C102.15478516 240.05111328 102.15478516 240.71111328 102.15478516 241.39111328 C101.49478516 241.39111328 100.83478516 241.39111328 100.15478516 241.39111328 C100.15478516 242.05111328 100.15478516 242.71111328 100.15478516 243.39111328 C99.49478516 243.39111328 98.83478516 243.39111328 98.15478516 243.39111328 C98.15478516 244.05111328 98.15478516 244.71111328 98.15478516 245.39111328 C93.68419692 249.39111328 93.68419692 249.39111328 91.15478516 249.39111328 C91.15478516 250.05111328 91.15478516 250.71111328 91.15478516 251.39111328 C88.93681438 253.04853134 86.72553621 254.5769673 84.40478516 256.07861328 C83.72826904 256.52124512 83.05175293 256.96387695 82.35473633 257.41992188 C65.46148229 268.39111328 65.46148229 268.39111328 60.15478516 268.39111328 C60.15478516 269.05111328 60.15478516 269.71111328 60.15478516 270.39111328 C48.50107906 275.43926247 36.82719112 278.58593272 24.23681641 279.99658203 C21.12329317 280.29427167 21.12329317 280.29427167 18.15478516 281.39111328 C13.49360218 281.66002768 8.82298423 281.63635838 4.15478516 281.64111328 C3.47794678 281.64212036 2.8011084 281.64312744 2.10375977 281.64416504 C-9.10103139 281.63287926 -19.9015602 280.91801035 -30.84521484 278.39111328 C-31.82578857 278.16633301 -31.82578857 278.16633301 -32.82617188 277.93701172 C-39.92107818 276.24543952 -46.36932586 273.96400089 -52.75927734 270.44189453 C-54.7899163 269.41896966 -56.62561374 268.84808998 -58.84521484 268.39111328 C-58.84521484 267.73111328 -58.84521484 267.07111328 -58.84521484 266.39111328 C-59.40080078 266.27896484 -59.95638672 266.16681641 -60.52880859 266.05126953 C-69.55355019 263.47929427 -77.51715175 257.01839383 -84.84521484 251.39111328 C-85.80685547 250.65892578 -86.76849609 249.92673828 -87.75927734 249.17236328 C-92.98874552 245.10663591 -92.98874552 245.10663591 -94.84521484 243.39111328 C-94.84521484 242.73111328 -94.84521484 242.07111328 -94.84521484 241.39111328 C-95.50521484 241.39111328 -96.16521484 241.39111328 -96.84521484 241.39111328 C-96.84521484 240.73111328 -96.84521484 240.07111328 -96.84521484 239.39111328 C-97.50521484 239.39111328 -98.16521484 239.39111328 -98.84521484 239.39111328 C-98.84521484 238.73111328 -98.84521484 238.07111328 -98.84521484 237.39111328 C-99.50521484 237.39111328 -100.16521484 237.39111328 -100.84521484 237.39111328 C-104.84521484 232.92052505 -104.84521484 232.92052505 -104.84521484 230.39111328 C-105.50521484 230.39111328 -106.16521484 230.39111328 -106.84521484 230.39111328 C-108.50323084 228.34208437 -110.02870384 226.29966315 -111.53271484 224.14111328 C-112.20101318 223.1913562 -112.20101318 223.1913562 -112.8828125 222.22241211 C-127.84521484 200.69410489 -127.84521484 200.69410489 -127.84521484 191.39111328 C-128.50521484 191.39111328 -129.16521484 191.39111328 -129.84521484 191.39111328 C-130.05017578 190.60865234 -130.25513672 189.82619141 -130.46630859 189.02001953 C-130.73572266 188.00810547 -131.00513672 186.99619141 -131.28271484 185.95361328 C-131.54955078 184.94427734 -131.81638672 183.93494141 -132.09130859 182.89501953 C-132.60499561 180.47359327 -132.60499561 180.47359327 -133.84521484 179.39111328 C-134.17854818 177.05777995 -134.51188151 174.72444661 -134.84521484 172.39111328 C-135.17521484 172.06111328 -135.50521484 171.73111328 -135.84521484 171.39111328 C-138.61198917 162.06842565 -138.1174369 152.1971679 -138.05102539 142.58129883 C-138.03254859 139.80361934 -138.03051769 137.02627024 -138.03076172 134.24853516 C-138.02585336 132.48225622 -138.02002805 130.71597953 -138.01318359 128.94970703 C-138.01207077 128.11958603 -138.01095795 127.28946503 -138.0098114 126.43418884 C-137.96136242 120.62340843 -137.96136242 120.62340843 -136.84521484 118.39111328 C-136.53729615 116.06033985 -136.3362621 113.72869432 -136.12646484 111.38720703 C-135.84521484 109.39111328 -135.84521484 109.39111328 -134.84521484 108.39111328 C-134.72146484 107.35986328 -134.59771484 106.32861328 -134.47021484 105.26611328 C-133.94321103 101.99868966 -133.18521332 99.60254034 -131.81005859 96.63330078 C-130.44467374 93.46030116 -129.30831603 90.20890327 -128.15771484 86.95361328 C-127.72072266 85.71740234 -127.28373047 84.48119141 -126.83349609 83.20751953 C-126.50736328 82.27810547 -126.18123047 81.34869141 -125.84521484 80.39111328 C-125.18521484 80.39111328 -124.52521484 80.39111328 -123.84521484 80.39111328 C-123.74337891 79.68212891 -123.64154297 78.97314453 -123.53662109 78.24267578 C-120.03313785 63.79328161 -106.87598408 50.91193537 -96.84521484 40.39111328 C-96.19681641 39.70146484 -95.54841797 39.01181641 -94.88037109 38.30126953 C-93.58163527 36.95172742 -92.2214722 35.66150469 -90.84521484 34.39111328 C-90.18521484 34.39111328 -89.52521484 34.39111328 -88.84521484 34.39111328 C-88.84521484 33.73111328 -88.84521484 33.07111328 -88.84521484 32.39111328 C-86.56931295 30.52901173 -84.29311586 28.79038293 -81.90771484 27.07861328 C-80.87590088 26.3310376 -80.87590088 26.3310376 -79.82324219 25.56835938 C-75.00257093 22.11757071 -70.11764173 19.10236126 -64.84521484 16.39111328 C-62.52307829 15.03558967 -60.20197253 13.67881137 -57.88818359 12.30908203 C-55.84521484 11.39111328 -55.84521484 11.39111328 -51.84521484 11.39111328 C-51.84521484 10.73111328 -51.84521484 10.07111328 -51.84521484 9.39111328 C-50.19521484 9.39111328 -48.54521484 9.39111328 -46.84521484 9.39111328 C-46.84521484 8.73111328 -46.84521484 8.07111328 -46.84521484 7.39111328 C-31.19912276 2.11323633 -16.45829443 -0.1184487 0 0 Z " fill="#003060" transform="translate(335.84521484375,410.60888671875)"/>
<path d="M0 0 C1.25347003 -0.00794881 2.50694006 -0.01589762 3.79839402 -0.02408731 C7.24315428 -0.04507366 10.68686241 -0.02912918 14.13157547 -0.00658631 C17.85963124 0.01121439 21.58755788 -0.00582243 25.31561279 -0.01831055 C32.60435083 -0.03722176 39.89269097 -0.02414529 47.18139931 0.00021534 C55.67690321 0.02754528 64.17231384 0.02417185 72.66785053 0.01994868 C87.82823441 0.01357867 102.98842991 0.03685011 118.14875793 0.07608032 C132.84705844 0.11410472 147.54513833 0.12824897 162.2434845 0.11709595 C178.26826723 0.10497232 194.29295315 0.10534765 210.31772786 0.12806761 C212.02723109 0.13048209 213.73673433 0.13289406 215.44623756 0.1353035 C216.28724904 0.13651057 217.12826052 0.13771765 217.9947572 0.13896131 C223.91179091 0.14670887 229.82878849 0.14593664 235.74582481 0.14213181 C242.9576878 0.13788174 250.16935794 0.14838293 257.38116666 0.17735891 C261.05830946 0.19181593 264.73517184 0.20002769 268.41233826 0.19087219 C272.40252785 0.18117911 276.39195365 0.20260405 280.38208008 0.22705078 C281.53830925 0.21949213 282.69453842 0.21193349 283.88580483 0.20414579 C290.7972068 0.27903841 295.94872258 1.34911017 302.00056458 4.7484436 C302.00056458 5.4084436 302.00056458 6.0684436 302.00056458 6.7484436 C303.65056458 7.4084436 305.30056458 8.0684436 307.00056458 8.7484436 C307.00056458 9.4084436 307.00056458 10.0684436 307.00056458 10.7484436 C307.66056458 10.7484436 308.32056458 10.7484436 309.00056458 10.7484436 C310.43806458 12.7250061 310.43806458 12.7250061 312.00056458 15.3734436 C312.77400208 16.66121704 312.77400208 16.66121704 313.56306458 17.9750061 C317.61459027 25.79180839 318.59721095 34.29902011 316.10212708 42.81484985 C315.15294896 45.18106337 314.15065854 47.47392742 313.00056458 49.7484436 C312.34056458 49.7484436 311.68056458 49.7484436 311.00056458 49.7484436 C311.00056458 50.7384436 311.00056458 51.7284436 311.00056458 52.7484436 C310.34056458 52.7484436 309.68056458 52.7484436 309.00056458 52.7484436 C309.00056458 53.4084436 309.00056458 54.0684436 309.00056458 54.7484436 C308.34056458 54.7484436 307.68056458 54.7484436 307.00056458 54.7484436 C307.00056458 55.4084436 307.00056458 56.0684436 307.00056458 56.7484436 C299.03988304 64.21158255 291.86297553 65.33496309 281.37930298 65.24291992 C280.11826128 65.24774875 278.85721959 65.25257758 277.5579645 65.25755274 C274.0738414 65.27032797 270.59018616 65.25828466 267.106094 65.24202418 C263.34262634 65.22882929 259.57920925 65.23877589 255.81573486 65.24578857 C248.45032805 65.25585649 241.08510126 65.24461031 233.71971682 65.22608797 C225.14220447 65.20529436 216.56473078 65.20546101 207.98719796 65.20643313 C192.68473077 65.20743374 177.38234727 65.18912704 162.07991028 65.1600647 C147.22995988 65.13187632 132.38008311 65.11772384 117.53010559 65.11904907 C116.61503976 65.11912898 115.69997392 65.1192089 114.75717882 65.11929123 C113.84369591 65.11937194 112.93021299 65.11945265 111.98904878 65.1195358 C95.08100127 65.12091522 78.17298505 65.10913887 61.26494769 65.09122937 C55.28497645 65.08519589 49.30501095 65.08307017 43.325037 65.08216476 C36.04055635 65.08080094 28.75612845 65.07187745 21.47167019 65.05349915 C17.75461266 65.04426195 14.03762261 65.03817263 10.32055283 65.04068756 C6.29391839 65.04327987 2.26748429 65.03039125 -1.75912476 65.01586914 C-2.93751567 65.01896634 -4.11590658 65.02206355 -5.3300063 65.02525461 C-6.40791379 65.01880571 -7.48582128 65.01235682 -8.59639263 65.00571251 C-9.9904862 65.00359923 -9.9904862 65.00359923 -11.41274327 65.00144327 C-14.24816064 64.72411624 -16.4169036 63.92357886 -18.99943542 62.7484436 C-18.99943542 62.0884436 -18.99943542 61.4284436 -18.99943542 60.7484436 C-19.57693542 60.64789673 -20.15443542 60.54734985 -20.74943542 60.4437561 C-26.08554004 58.79475155 -30.57741333 53.90723278 -33.37443542 49.1859436 C-37.30880511 40.86323851 -38.78036974 32.0918746 -36.24162292 23.04922485 C-35.28867515 20.83943652 -34.23623197 18.81118305 -32.99943542 16.7484436 C-32.33943542 15.6140686 -31.67943542 14.4796936 -30.99943542 13.3109436 C-29.07591019 10.84642689 -27.90408497 9.78581844 -24.99943542 8.7484436 C-24.99943542 8.0884436 -24.99943542 7.4284436 -24.99943542 6.7484436 C-16.48868419 1.69932936 -9.84299826 -0.12628575 0 0 Z " fill="#003060" transform="translate(514.9994354248047,480.2515563964844)"/>
<path d="M0 0 C1.07790749 -0.00644889 2.15581498 -0.01289778 3.26638633 -0.0195421 C4.44477724 -0.01644489 5.62316815 -0.01334769 6.83726788 -0.01015663 C8.0936296 -0.01468774 9.34999133 -0.01921886 10.64442462 -0.02388728 C14.12939414 -0.03612061 17.61426768 -0.03585643 21.09925377 -0.03349853 C24.85874195 -0.03309044 28.61819932 -0.04412871 32.37767315 -0.05361366 C39.74243009 -0.07022652 47.10715501 -0.07572334 54.47192911 -0.07683842 C60.45858849 -0.07778877 66.44523731 -0.08189842 72.43189335 -0.08823967 C89.40579141 -0.10585297 106.37966418 -0.11507842 123.35357145 -0.11357872 C124.26863729 -0.11349881 125.18370312 -0.1134189 126.12649822 -0.11333656 C127.04268158 -0.1132548 127.95886494 -0.11317304 128.90281143 -0.1130888 C143.7507439 -0.11227591 158.59857492 -0.1314142 173.44647805 -0.1596133 C188.69280952 -0.18834056 203.93909151 -0.20215367 219.18545073 -0.20042574 C227.744877 -0.19976178 236.30419693 -0.20525681 244.86359882 -0.22678185 C252.15138239 -0.24499159 259.43901141 -0.24934274 266.72680787 -0.235763 C270.44430607 -0.2292322 274.16150776 -0.22911983 277.87897778 -0.2464695 C281.91144153 -0.2650955 285.94321856 -0.25264873 289.97569561 -0.23720741 C291.14739435 -0.24749454 292.3190931 -0.25778167 293.52629787 -0.26838052 C301.91028238 -0.19735696 306.61083738 1.59985569 313.59695721 6.25726891 C313.59695721 6.91726891 313.59695721 7.57726891 313.59695721 8.25726891 C315.57695721 9.24726891 315.57695721 9.24726891 317.59695721 10.25726891 C317.59695721 10.91726891 317.59695721 11.57726891 317.59695721 12.25726891 C318.25695721 12.25726891 318.91695721 12.25726891 319.59695721 12.25726891 C319.59695721 13.24726891 319.59695721 14.23726891 319.59695721 15.25726891 C320.25695721 15.25726891 320.91695721 15.25726891 321.59695721 15.25726891 C325.83631399 23.64135397 327.21890153 31.79682774 324.90164471 41.02680016 C321.49492299 50.34518602 315.73377395 58.00695711 306.59695721 62.25726891 C299.52496879 64.42058756 292.60467419 64.54029976 285.26199627 64.51123619 C284.04375793 64.51435617 282.8255196 64.51747615 281.57036495 64.52069068 C278.21032588 64.52726102 274.85051221 64.52493253 271.4904871 64.51871824 C267.85852969 64.51417762 264.22659143 64.52118547 260.59463787 64.52667809 C253.48809889 64.53555659 246.38160223 64.53365696 239.27506161 64.5278528 C233.49779444 64.52333024 227.72053911 64.52272598 221.94327068 64.52490044 C220.70841108 64.52536014 220.70841108 64.52536014 219.44860482 64.52582912 C217.77604421 64.52646859 216.10348359 64.52711702 214.43092299 64.5277743 C198.75894353 64.53347308 183.0869875 64.52692681 167.41501188 64.51617357 C153.97695068 64.50723847 140.53892404 64.50879064 127.10086346 64.51801109 C111.48375028 64.52872172 95.86665762 64.5329238 80.24954128 64.52678657 C78.5832421 64.52614949 76.91694292 64.52552075 75.25064373 64.52490044 C74.02096839 64.52443761 74.02096839 64.52443761 72.76645112 64.52396543 C66.99823751 64.52224087 61.23003696 64.52514844 55.46182537 64.52985954 C48.42928469 64.53547718 41.39678864 64.53393337 34.36425304 64.52329805 C30.77832871 64.51805322 27.19247871 64.51596428 23.60655499 64.52259636 C19.71496762 64.52968474 15.82350115 64.52120277 11.93191814 64.51123619 C10.8047702 64.51569763 9.67762226 64.52015908 8.51631832 64.52475572 C-0.57614291 64.47961031 -7.99003543 63.90527452 -15.40304279 58.25726891 C-16.39304279 57.59726891 -17.38304279 56.93726891 -18.40304279 56.25726891 C-18.40304279 55.59726891 -18.40304279 54.93726891 -18.40304279 54.25726891 C-19.06304279 54.25726891 -19.72304279 54.25726891 -20.40304279 54.25726891 C-26.89802726 46.42997994 -29.08659536 38.76813608 -28.81319904 28.60492516 C-27.68341349 19.38372308 -23.65709038 11.9993864 -16.40304279 6.25726891 C-11.09240533 2.32739718 -6.65960053 0.01009514 0 0 Z " fill="#003060" transform="translate(506.4030427932739,358.74273109436035)"/>
<path d="M0 0 C13.2 0 26.4 0 40 0 C42.23318386 8.93273543 42.23318386 8.93273543 42.5625 13.375 C42.79707936 16.81924956 42.79707936 16.81924956 44 20 C46.2252525 30.88262171 47.94036634 41.80581187 43.4609375 52.2578125 C41.31674246 54.81479375 39.2052756 55.14060614 36 56 C33.46192809 56.1808886 30.91559975 56.26127409 28.37109375 56.265625 C27.30291161 56.26849518 27.30291161 56.26849518 26.21315002 56.27142334 C24.71639652 56.27277715 23.21963096 56.26913718 21.72290039 56.26074219 C19.4406486 56.2500148 17.15918098 56.26067254 14.87695312 56.2734375 C13.41666494 56.27211607 11.95637724 56.26955402 10.49609375 56.265625 C9.17794678 56.26336914 7.8597998 56.26111328 6.50170898 56.25878906 C3.14336947 56.01059553 0.94306061 55.59948228 -2 54 C-7.09333042 46.97946348 -6.64353891 39.36600584 -6 31 C-5.67 30.67 -5.34 30.34 -5 30 C-4.79103683 28.19188816 -4.63219639 26.37783968 -4.5 24.5625 C-4.10992366 19.21984733 -4.10992366 19.21984733 -3 17 C-2.72509548 14.89676227 -2.55566379 12.79325643 -2.37890625 10.6796875 C-1.86828164 7.06846606 -0.8845623 3.53824919 0 0 Z " fill="#003060" transform="translate(319,698)"/>
</svg>
