<?xml version="1.0" encoding="UTF-8"?>
<svg version="1.1" xmlns="http://www.w3.org/2000/svg" width="1080" height="1080">
<path d="M0 0 C1.15338867 -0.03673828 1.15338867 -0.03673828 2.33007812 -0.07421875 C8.22749528 -0.10407909 12.15845567 1.39183678 17.1875 4.375 C18.25871094 4.96539062 19.32992188 5.55578125 20.43359375 6.1640625 C21.48675781 6.76992187 22.53992188 7.37578125 23.625 8 C24.21063721 8.33628418 24.79627441 8.67256836 25.3996582 9.01904297 C30.24590363 11.81024699 35.06006869 14.65525123 39.875 17.5 C48.16844121 22.39788428 56.52243887 27.15956486 65.1875 31.375 C65.1875 32.035 65.1875 32.695 65.1875 33.375 C65.7546875 33.48457031 66.321875 33.59414062 66.90625 33.70703125 C69.51170053 34.46992858 71.39659429 35.60777488 73.6875 37.0625 C77.41937752 39.36409847 81.17820498 41.40325715 85.125 43.3125 C90.15473694 45.77591336 94.79202098 48.59586184 99.4765625 51.65625 C103.01664323 53.90068158 106.67650308 55.86769582 110.37109375 57.84375 C113.34729555 59.46187913 116.26783544 61.15710705 119.1875 62.875 C126.71738633 67.29514106 134.33398844 71.55437276 142.1875 75.375 C142.1875 76.035 142.1875 76.695 142.1875 77.375 C142.7546875 77.48457031 143.321875 77.59414062 143.90625 77.70703125 C146.51170053 78.46992858 148.39659429 79.60777488 150.6875 81.0625 C156.34390233 84.54529965 162.2193575 87.46968723 168.1875 90.375 C169.52171868 91.03989303 170.85543168 91.70580928 172.1875 92.375 C172.1875 93.035 172.1875 93.695 172.1875 94.375 C173.03634766 94.53935547 173.03634766 94.53935547 173.90234375 94.70703125 C176.52004327 95.47220496 178.44086344 96.61310786 180.75 98.0625 C184.30672136 100.2496493 187.88593146 102.33321853 191.5625 104.3125 C195.51060674 106.43968868 199.3900987 108.65417811 203.25 110.9375 C208.45102676 113.99692751 213.74897145 116.76402501 219.1875 119.375 C219.1875 120.035 219.1875 120.695 219.1875 121.375 C220.0846875 121.5915625 220.0846875 121.5915625 221 121.8125 C222.74900404 122.2622439 224.47427023 122.80392341 226.1875 123.375 C226.1875 124.035 226.1875 124.695 226.1875 125.375 C226.75082031 125.48199219 227.31414063 125.58898437 227.89453125 125.69921875 C230.56718949 126.48690167 232.52528354 127.69291385 234.875 129.1875 C239.49030084 132.03348789 244.17680199 134.317467 249.1875 136.375 C249.1875 137.035 249.1875 137.695 249.1875 138.375 C249.75339844 138.48457031 250.31929687 138.59414062 250.90234375 138.70703125 C253.52004327 139.47220496 255.44086344 140.61310786 257.75 142.0625 C261.30672136 144.2496493 264.88593146 146.33321853 268.5625 148.3125 C272.51060674 150.43968868 276.3900987 152.65417811 280.25 154.9375 C285.45102676 157.99692751 290.74897145 160.76402501 296.1875 163.375 C296.1875 164.035 296.1875 164.695 296.1875 165.375 C297.0846875 165.5915625 297.0846875 165.5915625 298 165.8125 C299.74900404 166.2622439 301.47427023 166.80392341 303.1875 167.375 C303.1875 168.035 303.1875 168.695 303.1875 169.375 C303.74953125 169.48199219 304.3115625 169.58898437 304.890625 169.69921875 C307.57607036 170.48932427 309.56918675 171.69787622 311.9375 173.1875 C316.25733684 175.84147601 320.62459375 178.17535196 325.1875 180.375 C326.68853022 181.12293602 328.18855337 181.87289695 329.6875 182.625 C330.8425 183.2025 331.9975 183.78 333.1875 184.375 C333.1875 185.035 333.1875 185.695 333.1875 186.375 C333.75339844 186.48457031 334.31929687 186.59414063 334.90234375 186.70703125 C337.52004327 187.47220496 339.44086344 188.61310786 341.75 190.0625 C347.12833005 193.36678195 352.63205146 196.38123051 358.1875 199.375 C360.16707792 200.45758167 362.14625345 201.5408995 364.125 202.625 C367.12040165 204.26607425 370.1225897 205.86743391 373.1875 207.375 C373.1875 208.035 373.1875 208.695 373.1875 209.375 C374.0846875 209.5915625 374.0846875 209.5915625 375 209.8125 C376.74900404 210.2622439 378.47427023 210.80392341 380.1875 211.375 C380.1875 212.035 380.1875 212.695 380.1875 213.375 C380.74953125 213.48199219 381.3115625 213.58898437 381.890625 213.69921875 C384.57607036 214.48932427 386.56918675 215.69787622 388.9375 217.1875 C393.25733684 219.84147601 397.62459375 222.17535196 402.1875 224.375 C403.68853022 225.12293602 405.18855337 225.87289695 406.6875 226.625 C407.8425 227.2025 408.9975 227.78 410.1875 228.375 C410.1875 229.035 410.1875 229.695 410.1875 230.375 C410.75339844 230.48457031 411.31929687 230.59414063 411.90234375 230.70703125 C414.52004327 231.47220496 416.44086344 232.61310786 418.75 234.0625 C424.12812972 237.36665888 429.63042841 240.38450933 435.1875 243.375 C437.18844291 244.45659076 439.18846592 245.53988532 441.1875 246.625 C442.074375 247.10453125 442.96125 247.5840625 443.875 248.078125 C446.1875 249.375 446.1875 249.375 449.1875 251.375 C449.1875 252.035 449.1875 252.695 449.1875 253.375 C449.78046875 253.61347656 450.3734375 253.85195313 450.984375 254.09765625 C453.65336398 255.64510199 454.76276129 257.23695487 456.4375 259.8125 C456.95828125 260.59496094 457.4790625 261.37742187 458.015625 262.18359375 C459.1875 264.375 459.1875 264.375 459.1875 267.375 C459.8475 267.375 460.5075 267.375 461.1875 267.375 C462.37401115 288.27585032 462.37401115 288.27585032 457.09765625 295.3359375 C452.0504171 300.72378788 446.62145681 305.69845325 440.1875 309.375 C439.1975 309.375 438.2075 309.375 437.1875 309.375 C437.1875 310.035 437.1875 310.695 437.1875 311.375 C434.54011084 312.8356285 433.29301666 313.375 430.1875 313.375 C430.1875 314.035 430.1875 314.695 430.1875 315.375 C429.48367188 315.7153125 428.77984375 316.055625 428.0546875 316.40625 C421.51453756 319.61655859 415.16865792 323.01923568 408.90966797 326.74609375 C406.04612441 328.42634801 403.48265744 329.81773073 400.1875 330.375 C400.1875 331.035 400.1875 331.695 400.1875 332.375 C397.54011084 333.8356285 396.29301666 334.375 393.1875 334.375 C393.1875 335.035 393.1875 335.695 393.1875 336.375 C391.58333333 337.25 389.97916667 338.125 388.375 339 C387.364375 339.55171875 386.35375 340.1034375 385.3125 340.671875 C383.37661721 341.72693112 381.43937812 342.77950776 379.5 343.828125 C375.48037382 346.00542251 371.47546568 348.19809293 367.5234375 350.49609375 C366.89735596 350.85912598 366.27127441 351.2221582 365.6262207 351.59619141 C364.40084416 352.30893482 363.17790009 353.02588139 361.95776367 353.74755859 C359.08057559 355.42052452 356.48989787 356.81513402 353.1875 357.375 C353.1875 358.035 353.1875 358.695 353.1875 359.375 C350.54011084 360.8356285 349.29301666 361.375 346.1875 361.375 C346.1875 362.035 346.1875 362.695 346.1875 363.375 C345.02734375 363.93767578 345.02734375 363.93767578 343.84375 364.51171875 C338.28856205 367.2411861 332.92211456 369.99519907 327.80859375 373.4921875 C326.1875 374.375 326.1875 374.375 323.1875 374.375 C323.1875 375.035 323.1875 375.695 323.1875 376.375 C322.60226562 376.69210937 322.01703125 377.00921875 321.4140625 377.3359375 C315.38549937 380.61272407 309.37530171 383.92178697 303.375 387.25 C302.60671875 387.67579346 301.8384375 388.10158691 301.046875 388.5402832 C297.36699958 390.58547447 293.69916148 392.64724314 290.05859375 394.76171875 C289.10593628 395.31400146 289.10593628 395.31400146 288.1340332 395.87744141 C286.42264789 396.87339839 284.71509316 397.87592931 283.0078125 398.87890625 C280.65247286 400.12834542 278.78950283 400.91619274 276.1875 401.375 C276.1875 402.035 276.1875 402.695 276.1875 403.375 C275.27871094 403.81199219 275.27871094 403.81199219 274.3515625 404.2578125 C268.08686459 407.32269548 262.13209366 410.73443509 256.1875 414.375 C249.63980769 418.375 249.63980769 418.375 246.1875 418.375 C246.1875 419.035 246.1875 419.695 246.1875 420.375 C245.60226562 420.69210937 245.01703125 421.00921875 244.4140625 421.3359375 C238.38549937 424.61272407 232.37530171 427.92178697 226.375 431.25 C225.60671875 431.67579346 224.8384375 432.10158691 224.046875 432.5402832 C220.36699958 434.58547447 216.69916148 436.64724314 213.05859375 438.76171875 C212.10593628 439.31400146 212.10593628 439.31400146 211.1340332 439.87744141 C209.42264789 440.87339839 207.71509316 441.87592931 206.0078125 442.87890625 C203.65247286 444.12834542 201.78950283 444.91619274 199.1875 445.375 C199.1875 446.035 199.1875 446.695 199.1875 447.375 C196.54011084 448.8356285 195.29301666 449.375 192.1875 449.375 C192.1875 450.035 192.1875 450.695 192.1875 451.375 C191.02734375 451.93767578 191.02734375 451.93767578 189.84375 452.51171875 C184.28856205 455.2411861 178.92211456 457.99519907 173.80859375 461.4921875 C172.1875 462.375 172.1875 462.375 169.1875 462.375 C169.1875 463.035 169.1875 463.695 169.1875 464.375 C168.50945313 464.73851562 167.83140625 465.10203125 167.1328125 465.4765625 C162.358617 468.05542156 157.63361905 470.67514982 153 473.5 C150.19007636 475.20618212 147.39608384 476.81781929 144.4375 478.25 C140.59873407 480.11476638 136.89181401 482.19644535 133.1875 484.3125 C132.2756897 484.83336182 132.2756897 484.83336182 131.34545898 485.36474609 C128.00658706 487.28675689 124.73156392 489.27836611 121.5 491.375 C118.1875 493.375 118.1875 493.375 115.1875 493.375 C115.1875 494.035 115.1875 494.695 115.1875 495.375 C114.02734375 495.93767578 114.02734375 495.93767578 112.84375 496.51171875 C107.28856205 499.2411861 101.92211456 501.99519907 96.80859375 505.4921875 C95.1875 506.375 95.1875 506.375 92.1875 506.375 C92.1875 507.035 92.1875 507.695 92.1875 508.375 C91.50945313 508.73851562 90.83140625 509.10203125 90.1328125 509.4765625 C85.358617 512.05542156 80.63361905 514.67514982 76 517.5 C73.19007636 519.20618212 70.39608384 520.81781929 67.4375 522.25 C63.59873407 524.11476638 59.89181401 526.19644535 56.1875 528.3125 C55.57962646 528.65974121 54.97175293 529.00698242 54.34545898 529.36474609 C51.00658706 531.28675689 47.73156392 533.27836611 44.5 535.375 C41.1875 537.375 41.1875 537.375 38.1875 537.375 C38.1875 538.035 38.1875 538.695 38.1875 539.375 C37.09695313 539.90287109 37.09695313 539.90287109 35.984375 540.44140625 C29.41900799 543.66516979 23.0620341 547.11116514 16.78125 550.859375 C8.47116393 555.71526867 -0.33572237 555.53208241 -9.8125 554.375 C-14.02005371 552.97730175 -17.23766622 550.95879075 -20.8125 548.375 C-22.47085326 547.36127309 -24.13760355 546.36115398 -25.8125 545.375 C-27.03453125 544.6325 -27.03453125 544.6325 -28.28125 543.875 C-30.92569209 542.30792321 -33.60709913 540.8340926 -36.3125 539.375 C-39.8687298 537.45703337 -43.35948697 535.47303323 -46.8125 533.375 C-52.05238983 530.19629906 -57.41841452 527.28181273 -62.8125 524.375 C-64.79207792 523.29241833 -66.77125345 522.2091005 -68.75 521.125 C-71.74540165 519.48392575 -74.7475897 517.88256609 -77.8125 516.375 C-77.8125 515.715 -77.8125 515.055 -77.8125 514.375 C-78.410625 514.230625 -79.00875 514.08625 -79.625 513.9375 C-81.37400404 513.4877561 -83.09927023 512.94607659 -84.8125 512.375 C-84.8125 511.715 -84.8125 511.055 -84.8125 510.375 C-85.66328125 510.21064453 -85.66328125 510.21064453 -86.53125 510.04296875 C-89.13670053 509.28007142 -91.02159429 508.14222512 -93.3125 506.6875 C-97.04437752 504.38590153 -100.80320498 502.34674285 -104.75 500.4375 C-109.79394987 497.97042081 -114.42867564 495.12832382 -119.12109375 492.0546875 C-123.19704935 489.51091259 -127.46918288 487.41946815 -131.8125 485.375 C-131.8125 484.715 -131.8125 484.055 -131.8125 483.375 C-132.39443115 483.25189453 -132.9763623 483.12878906 -133.57592773 483.00195312 C-135.84637074 482.3655054 -137.5628839 481.52356943 -139.59765625 480.34375 C-140.29310547 479.94542969 -140.98855469 479.54710937 -141.70507812 479.13671875 C-142.42115234 478.72035156 -143.13722656 478.30398438 -143.875 477.875 C-145.30201428 477.04970794 -146.73035018 476.22669582 -148.16015625 475.40625 C-148.78929932 475.04080078 -149.41844238 474.67535156 -150.06665039 474.29882812 C-151.96603833 473.23259695 -151.96603833 473.23259695 -154.8125 472.375 C-154.8125 471.715 -154.8125 471.055 -154.8125 470.375 C-155.410625 470.230625 -156.00875 470.08625 -156.625 469.9375 C-158.37400404 469.4877561 -160.09927023 468.94607659 -161.8125 468.375 C-161.8125 467.715 -161.8125 467.055 -161.8125 466.375 C-162.66328125 466.21064453 -162.66328125 466.21064453 -163.53125 466.04296875 C-166.13670053 465.28007142 -168.02159429 464.14222512 -170.3125 462.6875 C-174.04437752 460.38590153 -177.80320498 458.34674285 -181.75 456.4375 C-186.78920201 453.96945094 -191.43388665 451.14154205 -196.12890625 448.078125 C-199.50862354 445.93320981 -202.99761758 444.05999479 -206.52734375 442.17578125 C-210.85770024 439.80206622 -215.11147872 437.30371781 -219.375 434.8125 C-225.7451525 431.09735676 -232.12056418 427.48872849 -238.8125 424.375 C-238.8125 423.715 -238.8125 423.055 -238.8125 422.375 C-239.3796875 422.26542969 -239.946875 422.15585937 -240.53125 422.04296875 C-243.13670053 421.28007142 -245.02159429 420.14222512 -247.3125 418.6875 C-251.04437752 416.38590153 -254.80320498 414.34674285 -258.75 412.4375 C-263.78920201 409.96945094 -268.43388665 407.14154205 -273.12890625 404.078125 C-276.50862354 401.93320981 -279.99761758 400.05999479 -283.52734375 398.17578125 C-287.85770024 395.80206622 -292.11147872 393.30371781 -296.375 390.8125 C-302.7451525 387.09735676 -309.12056418 383.48872849 -315.8125 380.375 C-315.8125 379.715 -315.8125 379.055 -315.8125 378.375 C-316.410625 378.230625 -317.00875 378.08625 -317.625 377.9375 C-319.37400404 377.4877561 -321.09927023 376.94607659 -322.8125 376.375 C-322.8125 375.715 -322.8125 375.055 -322.8125 374.375 C-323.35777344 374.27574219 -323.90304687 374.17648437 -324.46484375 374.07421875 C-327.42093376 373.19378595 -329.73382917 371.78064299 -332.375 370.1875 C-336.35838116 367.81586359 -340.35434504 365.50799442 -344.4375 363.3125 C-348.80267661 360.95480432 -353.04926781 358.44573248 -357.2890625 355.87109375 C-360.78245786 353.79993211 -364.3543586 351.8861146 -367.9296875 349.9609375 C-372.1024407 347.66535783 -376.19061143 345.23120463 -380.28125 342.79296875 C-382.81357021 341.27033344 -382.81357021 341.27033344 -385.8125 340.375 C-385.8125 339.715 -385.8125 339.055 -385.8125 338.375 C-386.410625 338.230625 -387.00875 338.08625 -387.625 337.9375 C-389.37400404 337.4877561 -391.09927023 336.94607659 -392.8125 336.375 C-392.8125 335.715 -392.8125 335.055 -392.8125 334.375 C-393.37839844 334.26542969 -393.94429688 334.15585937 -394.52734375 334.04296875 C-397.14504327 333.27779504 -399.06586344 332.13689214 -401.375 330.6875 C-406.75325066 327.38326682 -412.25633649 324.36737978 -417.8125 321.375 C-419.64642949 320.37609373 -421.47976478 319.37609577 -423.3125 318.375 C-424.20582031 317.88773437 -425.09914063 317.40046875 -426.01953125 316.8984375 C-430.6171875 314.390625 -435.21484375 311.8828125 -439.8125 309.375 C-439.8125 308.715 -439.8125 308.055 -439.8125 307.375 C-440.68068359 307.21064453 -440.68068359 307.21064453 -441.56640625 307.04296875 C-449.65294208 304.63810331 -456.01290584 296.52087976 -459.98339844 289.48168945 C-461.58130448 285.42152125 -461.22336485 281.23444752 -461.0625 276.9375 C-461.04445313 276.01517578 -461.02640625 275.09285156 -461.0078125 274.14257812 C-460.96103601 271.88561267 -460.89551871 269.63087388 -460.8125 267.375 C-460.1525 267.375 -459.4925 267.375 -458.8125 267.375 C-458.77125 266.715 -458.73 266.055 -458.6875 265.375 C-457.42216597 261.03671188 -454.89621228 257.65815636 -451.8125 254.375 C-450.8225 254.045 -449.8325 253.715 -448.8125 253.375 C-448.8125 252.715 -448.8125 252.055 -448.8125 251.375 C-446.70916522 250.16519868 -444.60505451 248.95680384 -442.5 247.75 C-441.86280029 247.38463135 -441.22560059 247.0192627 -440.5690918 246.64282227 C-436.78178747 244.47844535 -432.97193384 242.36977331 -429.125 240.3125 C-425.41532981 238.30830044 -421.85352486 236.16389443 -418.3125 233.875 C-412.95710553 230.41377204 -407.43908578 227.36888944 -401.8125 224.375 C-396.89266505 221.72250405 -391.98058887 219.06367564 -387.1484375 216.25390625 C-386.20931519 215.70935791 -386.20931519 215.70935791 -385.2512207 215.15380859 C-384.02584416 214.44106518 -382.80290009 213.72411861 -381.58276367 213.00244141 C-378.70557559 211.32947548 -376.11489787 209.93486598 -372.8125 209.375 C-372.8125 208.715 -372.8125 208.055 -372.8125 207.375 C-370.16511084 205.9143715 -368.91801666 205.375 -365.8125 205.375 C-365.8125 204.715 -365.8125 204.055 -365.8125 203.375 C-364.65234375 202.81232422 -364.65234375 202.81232422 -363.46875 202.23828125 C-357.91356205 199.5088139 -352.54711456 196.75480093 -347.43359375 193.2578125 C-345.8125 192.375 -345.8125 192.375 -342.8125 192.375 C-342.8125 191.715 -342.8125 191.055 -342.8125 190.375 C-342.13445312 190.01148438 -341.45640625 189.64796875 -340.7578125 189.2734375 C-335.983617 186.69457844 -331.25861905 184.07485018 -326.625 181.25 C-323.2021821 179.17166926 -319.76116598 177.31800513 -316.15625 175.58203125 C-312.264214 173.57763271 -308.50031563 171.33662156 -304.73535156 169.10400391 C-301.81018156 167.39670307 -299.17831234 165.93319165 -295.8125 165.375 C-295.8125 164.715 -295.8125 164.055 -295.8125 163.375 C-293.16511084 161.9143715 -291.91801666 161.375 -288.8125 161.375 C-288.8125 160.715 -288.8125 160.055 -288.8125 159.375 C-287.65234375 158.81232422 -287.65234375 158.81232422 -286.46875 158.23828125 C-280.91356205 155.5088139 -275.54711456 152.75480093 -270.43359375 149.2578125 C-268.8125 148.375 -268.8125 148.375 -265.8125 148.375 C-265.8125 147.715 -265.8125 147.055 -265.8125 146.375 C-265.13445312 146.01148438 -264.45640625 145.64796875 -263.7578125 145.2734375 C-258.983617 142.69457844 -254.25861905 140.07485018 -249.625 137.25 C-246.2021821 135.17166926 -242.76116598 133.31800513 -239.15625 131.58203125 C-235.264214 129.57763271 -231.50031563 127.33662156 -227.73535156 125.10400391 C-224.81018156 123.39670307 -222.17831234 121.93319165 -218.8125 121.375 C-218.8125 120.715 -218.8125 120.055 -218.8125 119.375 C-216.16511084 117.9143715 -214.91801666 117.375 -211.8125 117.375 C-211.8125 116.715 -211.8125 116.055 -211.8125 115.375 C-211.07386719 115.02308594 -210.33523438 114.67117187 -209.57421875 114.30859375 C-203.28587614 111.24832028 -197.38220339 107.92263296 -191.53125 104.09765625 C-187.94562816 101.82573207 -184.23495925 99.83846266 -180.4921875 97.83984375 C-177.90152576 96.42366569 -175.38956314 94.9214965 -172.875 93.375 C-169.28923538 91.1906339 -165.65143774 89.27218689 -161.875 87.4375 C-156.66249874 84.89859435 -151.8849146 81.94835616 -147.08984375 78.6953125 C-144.8125 77.375 -144.8125 77.375 -141.8125 77.375 C-141.8125 76.715 -141.8125 76.055 -141.8125 75.375 C-139.16511084 73.9143715 -137.91801666 73.375 -134.8125 73.375 C-134.8125 72.715 -134.8125 72.055 -134.8125 71.375 C-134.12027344 71.04628906 -133.42804688 70.71757812 -132.71484375 70.37890625 C-125.82328759 67.0284659 -119.28213383 63.35836346 -112.80249023 59.27172852 C-108.1286048 56.375 -108.1286048 56.375 -104.8125 56.375 C-104.8125 55.715 -104.8125 55.055 -104.8125 54.375 C-104.15765625 54.02308594 -103.5028125 53.67117187 -102.828125 53.30859375 C-96.74466241 50.01768108 -90.75136947 46.60262999 -84.7890625 43.09765625 C-81.06400173 40.94181399 -77.28259779 38.90131345 -73.4921875 36.86328125 C-69.88451296 34.85960195 -66.39242581 32.68371926 -62.90625 30.4765625 C-60.8125 29.375 -60.8125 29.375 -57.8125 29.375 C-57.8125 28.715 -57.8125 28.055 -57.8125 27.375 C-57.10867188 27.0346875 -56.40484375 26.694375 -55.6796875 26.34375 C-44.45720966 20.83506636 -33.72526359 14.68559577 -23.21484375 7.91015625 C-15.40932155 2.92223718 -9.32127332 0.01539434 0 0 Z M1.1875 152.375 C-0.39766884 156.70779483 -1.18640321 160.81343766 -1.8125 165.375 C-2.1425 165.705 -2.4725 166.035 -2.8125 166.375 C-2.956875 167.40625 -3.10125 168.4375 -3.25 169.5 C-3.69367845 172.55645155 -4.3387711 175.28639247 -5.20385742 178.23339844 C-6.49388813 182.77256788 -7.60602323 187.35980268 -8.75 191.9375 C-9.01578857 192.99783447 -9.28157715 194.05816895 -9.55541992 195.15063477 C-11.28229548 202.09361711 -12.87603575 209.0404437 -14.26953125 216.05859375 C-14.8125 218.375 -14.8125 218.375 -15.8125 219.375 C-15.9775 220.53 -16.1425 221.685 -16.3125 222.875 C-16.8125 226.375 -16.8125 226.375 -17.8125 227.375 C-17.9775 228.53 -18.1425 229.685 -18.3125 230.875 C-18.8125 234.375 -18.8125 234.375 -19.8125 235.375 C-19.93625 236.365 -20.06 237.355 -20.1875 238.375 C-20.55658135 241.23583235 -21.22376842 243.74809439 -22.19921875 246.4609375 C-23.94132201 251.5662389 -25.11228336 256.7322606 -26.25 262 C-27.97052339 269.79407569 -29.84414682 277.50332462 -32.015625 285.18359375 C-32.89226853 288.46065036 -32.89226853 288.46065036 -33.359375 292.22265625 C-33.8125 295.375 -33.8125 295.375 -34.8125 296.375 C-34.9775 297.53 -35.1425 298.685 -35.3125 299.875 C-35.8125 303.375 -35.8125 303.375 -36.8125 304.375 C-36.93625 305.365 -37.06 306.355 -37.1875 307.375 C-37.55482261 310.21888051 -38.21388606 312.71106349 -39.1875 315.40625 C-41.03246567 320.80722928 -42.23678951 326.30133157 -43.4375 331.875 C-43.86387988 333.84446899 -44.29339156 335.8132635 -44.7265625 337.78125 C-44.9117041 338.64041016 -45.0968457 339.49957031 -45.28759766 340.38476562 C-45.8125 342.375 -45.8125 342.375 -46.8125 343.375 C-46.9775 344.53 -47.1425 345.685 -47.3125 346.875 C-47.8125 350.375 -47.8125 350.375 -48.8125 351.375 C-48.9775 352.53 -49.1425 353.685 -49.3125 354.875 C-49.8125 358.375 -49.8125 358.375 -50.8125 359.375 C-51.14249624 360.73944332 -51.42261923 362.11605064 -51.6796875 363.49609375 C-51.84178711 364.34526367 -52.00388672 365.19443359 -52.17089844 366.06933594 C-52.34137695 366.97458008 -52.51185547 367.87982422 -52.6875 368.8125 C-54.04003939 375.8134424 -55.55420794 382.60012381 -57.8125 389.375 C-56.678125 389.519375 -55.54375 389.66375 -54.375 389.8125 C-50.8125 390.375 -50.8125 390.375 -49.8125 391.375 C-48.6575 391.54 -47.5025 391.705 -46.3125 391.875 C-42.8125 392.375 -42.8125 392.375 -41.8125 393.375 C-40.3275 393.560625 -40.3275 393.560625 -38.8125 393.75 C-35.96818443 394.11783036 -33.47042089 394.77564833 -30.7734375 395.74609375 C-25.41050122 397.57621498 -19.96462598 398.83466195 -14.4375 400.0625 C-13.45394531 400.28744141 -12.47039062 400.51238281 -11.45703125 400.74414062 C-6.18504375 401.96732176 -6.18504375 401.96732176 -0.8125 402.375 C0.46414354 399.56638422 1.21127882 397.19835734 1.625 394.125 C2.05828263 391.23644912 2.54823327 389.18916304 3.52734375 386.515625 C5.66188206 380.2621497 6.94154376 373.83020603 8.3125 367.375 C8.83261775 364.93678947 9.3558762 362.49924603 9.8828125 360.0625 C10.2233667 358.45955078 10.2233667 358.45955078 10.57080078 356.82421875 C11.1875 354.375 11.1875 354.375 12.1875 353.375 C12.3525 352.22 12.5175 351.065 12.6875 349.875 C13.1875 346.375 13.1875 346.375 14.1875 345.375 C14.373125 343.8590625 14.373125 343.8590625 14.5625 342.3125 C15.14642016 338.633803 16.12107176 335.7855713 17.4921875 332.37109375 C18.51387248 329.43805429 18.81137064 326.44672315 19.1875 323.375 C19.5175 323.045 19.8475 322.715 20.1875 322.375 C20.373125 320.8590625 20.373125 320.8590625 20.5625 319.3125 C21.12229086 315.78581755 22.11937744 312.9212632 23.39404297 309.61254883 C24.76842724 305.73678519 25.64772015 301.75463523 26.5625 297.75 C26.77165039 296.85571289 26.98080078 295.96142578 27.19628906 295.04003906 C28.35110135 290.08174665 29.47250771 285.11616677 30.5859375 280.1484375 C30.9255249 278.63757568 30.9255249 278.63757568 31.27197266 277.09619141 C31.71050168 275.13841508 32.14516801 273.17976893 32.57568359 271.22021484 C32.77242676 270.3380127 32.96916992 269.45581055 33.171875 268.546875 C33.43049316 267.3727002 33.43049316 267.3727002 33.69433594 266.17480469 C34.1875 264.375 34.1875 264.375 35.1875 263.375 C35.3525 262.22 35.5175 261.065 35.6875 259.875 C36.1875 256.375 36.1875 256.375 37.1875 255.375 C37.373125 253.8590625 37.373125 253.8590625 37.5625 252.3125 C38.04684241 249.26114283 38.56762387 247.16381773 39.6875 244.375 C40.74710273 241.72599316 41.27528326 239.76051717 41.6875 236.875 C42.09971674 233.98948283 42.62789727 232.02400684 43.6875 229.375 C45.14552264 225.72293368 45.63995762 222.27623944 46.1875 218.375 C46.61104408 217.07384361 47.06169483 215.78136239 47.53125 214.49609375 C49.6082645 208.40818578 50.85983495 202.16066422 52.1875 195.875 C55.13414731 181.92446663 55.13414731 181.92446663 57.56958008 175.31469727 C58.61028805 172.0478364 58.87786536 168.78098099 59.1875 165.375 C58.44886719 165.26542969 57.71023438 165.15585938 56.94921875 165.04296875 C50.92405458 164.1012976 45.11275422 162.90457824 39.25 161.234375 C35.4933532 160.18021391 31.72001173 159.20650722 27.9375 158.25 C27.27588867 158.07936035 26.61427734 157.9087207 25.93261719 157.73291016 C22.71087286 156.92141816 19.55784448 156.28594514 16.265625 155.8203125 C13.1875 155.375 13.1875 155.375 12.1875 154.375 C9.8568782 154.02320803 7.52314933 153.69169821 5.1875 153.375 C3.84832739 153.06596017 2.51096746 152.74557089 1.1875 152.375 Z M-159.8125 181.375 C-159.8125 182.035 -159.8125 182.695 -159.8125 183.375 C-160.4725 183.375 -161.1325 183.375 -161.8125 183.375 C-161.8125 184.035 -161.8125 184.695 -161.8125 185.375 C-162.369375 185.601875 -162.92625 185.82875 -163.5 186.0625 C-166.47409588 187.75050036 -168.53258865 189.84176517 -170.8125 192.375 C-170.8125 193.035 -170.8125 193.695 -170.8125 194.375 C-171.4725 194.375 -172.1325 194.375 -172.8125 194.375 C-172.8125 195.035 -172.8125 195.695 -172.8125 196.375 C-173.4725 196.375 -174.1325 196.375 -174.8125 196.375 C-174.8125 197.035 -174.8125 197.695 -174.8125 198.375 C-175.4725 198.375 -176.1325 198.375 -176.8125 198.375 C-176.8125 199.035 -176.8125 199.695 -176.8125 200.375 C-177.4725 200.375 -178.1325 200.375 -178.8125 200.375 C-178.8125 201.035 -178.8125 201.695 -178.8125 202.375 C-179.4725 202.375 -180.1325 202.375 -180.8125 202.375 C-180.8125 203.035 -180.8125 203.695 -180.8125 204.375 C-181.4725 204.375 -182.1325 204.375 -182.8125 204.375 C-182.8125 205.035 -182.8125 205.695 -182.8125 206.375 C-183.37453125 206.6121875 -183.9365625 206.849375 -184.515625 207.09375 C-187.33144042 208.66447697 -189.29205416 210.58971464 -191.5625 212.875 C-192.36171875 213.6690625 -193.1609375 214.463125 -193.984375 215.28125 C-196.03173609 217.16283462 -196.03173609 217.16283462 -195.8125 219.375 C-196.4725 219.375 -197.1325 219.375 -197.8125 219.375 C-197.8125 220.035 -197.8125 220.695 -197.8125 221.375 C-198.4725 221.375 -199.1325 221.375 -199.8125 221.375 C-199.8125 222.035 -199.8125 222.695 -199.8125 223.375 C-200.4725 223.375 -201.1325 223.375 -201.8125 223.375 C-201.8125 224.035 -201.8125 224.695 -201.8125 225.375 C-202.4725 225.375 -203.1325 225.375 -203.8125 225.375 C-203.8125 226.035 -203.8125 226.695 -203.8125 227.375 C-204.39676758 227.63474609 -204.98103516 227.89449219 -205.58300781 228.16210938 C-207.96811164 229.459656 -209.56440637 230.86841122 -211.484375 232.78125 C-212.14824219 233.44253906 -212.81210937 234.10382813 -213.49609375 234.78515625 C-214.17800781 235.47480469 -214.85992187 236.16445313 -215.5625 236.875 C-216.25988281 237.56464844 -216.95726562 238.25429688 -217.67578125 238.96484375 C-218.33449219 239.62613281 -218.99320313 240.28742188 -219.671875 240.96875 C-220.27483398 241.57396484 -220.87779297 242.17917969 -221.49902344 242.80273438 C-223.02620721 244.28936032 -223.02620721 244.28936032 -222.8125 246.375 C-223.4725 246.375 -224.1325 246.375 -224.8125 246.375 C-224.8125 247.035 -224.8125 247.695 -224.8125 248.375 C-225.3796875 248.61992187 -225.946875 248.86484375 -226.53125 249.1171875 C-235.19712018 253.89528715 -239.90745033 261.94560845 -243.0625 270.9375 C-244.963998 279.65269917 -242.92669604 286.99255371 -238.50390625 294.63671875 C-237.09211154 296.77195222 -237.09211154 296.77195222 -234.8125 299.375 C-234.1525 299.375 -233.4925 299.375 -232.8125 299.375 C-232.8125 300.035 -232.8125 300.695 -232.8125 301.375 C-232.1525 301.375 -231.4925 301.375 -230.8125 301.375 C-230.8125 302.035 -230.8125 302.695 -230.8125 303.375 C-229.16247172 304.72886936 -227.4950613 306.06178142 -225.8125 307.375 C-225.3175 308.365 -225.3175 308.365 -224.8125 309.375 C-224.1525 309.375 -223.4925 309.375 -222.8125 309.375 C-222.8125 310.035 -222.8125 310.695 -222.8125 311.375 C-221.46450939 312.74162775 -221.46450939 312.74162775 -219.62695312 314.19165039 C-213.33637846 319.54634096 -207.60549918 325.45842808 -201.78125 331.30859375 C-200.53736987 332.55434244 -199.29326619 333.79986795 -198.0489502 335.04518127 C-194.79830985 338.29961236 -191.55068572 341.55703681 -188.30371094 344.81512451 C-184.98035548 348.14876868 -181.6541142 351.47953077 -178.328125 354.81054688 C-171.82011191 361.32923646 -165.31528617 367.85109653 -158.8125 374.375 C-155.54053548 372.94241228 -153.38046044 371.18674684 -150.87011719 368.65966797 C-150.10963074 367.89903046 -149.34914429 367.13839294 -148.56561279 366.35470581 C-147.34977509 365.12338425 -147.34977509 365.12338425 -146.109375 363.8671875 C-145.27158508 363.02656769 -144.43379517 362.18594788 -143.57061768 361.31985474 C-140.89651569 358.63455999 -138.22945276 355.94239345 -135.5625 353.25 C-133.75045938 351.42792845 -131.93796482 349.60630823 -130.125 347.78515625 C-125.68221964 343.32032748 -121.24519835 338.84983717 -116.8125 334.375 C-122.05433889 328.02964505 -127.79737616 322.226394 -133.609375 316.41015625 C-134.64983183 315.36648098 -135.69021552 314.32273278 -136.73052979 313.27891541 C-138.89720174 311.10629267 -141.06589274 308.9357088 -143.23583984 306.76635742 C-146.02076336 303.98153633 -148.79869677 301.18985031 -151.57499313 298.39643192 C-153.71450119 296.24584181 -155.85850169 294.09977505 -158.00382233 291.95498466 C-159.03092255 290.92670246 -160.05639716 289.8967939 -161.08022308 288.86525154 C-162.50415626 287.43157788 -163.93501192 286.00478957 -165.36621094 284.57836914 C-166.17862244 283.76453262 -166.99103394 282.95069611 -167.82806396 282.11219788 C-169.62374223 280.15544003 -169.62374223 280.15544003 -171.8125 280.375 C-171.8125 278.395 -171.8125 276.415 -171.8125 274.375 C-171.27625 274.148125 -170.74 273.92125 -170.1875 273.6875 C-165.6307704 271.16930733 -162.15475108 267.86906487 -158.8125 263.9375 C-155.23583647 259.73915906 -151.39380385 255.83871591 -147.5 251.9375 C-146.87673828 251.30980713 -146.25347656 250.68211426 -145.61132812 250.03540039 C-145.02158203 249.44750732 -144.43183594 248.85961426 -143.82421875 248.25390625 C-143.29272217 247.7235376 -142.76122559 247.19316895 -142.21362305 246.64672852 C-140.8125 245.375 -140.8125 245.375 -138.8125 244.375 C-138.8125 243.715 -138.8125 243.055 -138.8125 242.375 C-138.1525 242.375 -137.4925 242.375 -136.8125 242.375 C-136.8125 241.715 -136.8125 241.055 -136.8125 240.375 C-136.1525 240.375 -135.4925 240.375 -134.8125 240.375 C-132.64583333 238.54166667 -132.64583333 238.54166667 -130.8125 236.375 C-130.8125 235.715 -130.8125 235.055 -130.8125 234.375 C-130.1525 234.375 -129.4925 234.375 -128.8125 234.375 C-127.14372279 232.68694368 -127.14372279 232.68694368 -125.4375 230.5625 C-123.57011107 228.30435788 -122.0172663 226.51402554 -119.5859375 224.86328125 C-118.70808594 224.12658203 -118.70808594 224.12658203 -117.8125 223.375 C-117.8125 222.055 -117.8125 220.735 -117.8125 219.375 C-118.4725 219.375 -119.1325 219.375 -119.8125 219.375 C-119.8125 218.715 -119.8125 218.055 -119.8125 217.375 C-120.4725 217.375 -121.1325 217.375 -121.8125 217.375 C-121.8125 216.715 -121.8125 216.055 -121.8125 215.375 C-122.4725 215.375 -123.1325 215.375 -123.8125 215.375 C-124.039375 214.818125 -124.26625 214.26125 -124.5 213.6875 C-126.18800036 210.71340412 -128.27926517 208.65491135 -130.8125 206.375 C-131.4725 206.375 -132.1325 206.375 -132.8125 206.375 C-132.8125 205.715 -132.8125 205.055 -132.8125 204.375 C-133.4725 204.375 -134.1325 204.375 -134.8125 204.375 C-134.8125 203.715 -134.8125 203.055 -134.8125 202.375 C-135.4725 202.375 -136.1325 202.375 -136.8125 202.375 C-136.8125 201.715 -136.8125 201.055 -136.8125 200.375 C-137.4725 200.375 -138.1325 200.375 -138.8125 200.375 C-138.8125 199.715 -138.8125 199.055 -138.8125 198.375 C-139.4725 198.375 -140.1325 198.375 -140.8125 198.375 C-140.8125 197.715 -140.8125 197.055 -140.8125 196.375 C-141.4725 196.375 -142.1325 196.375 -142.8125 196.375 C-142.8125 195.715 -142.8125 195.055 -142.8125 194.375 C-143.4725 194.375 -144.1325 194.375 -144.8125 194.375 C-144.8125 193.715 -144.8125 193.055 -144.8125 192.375 C-145.4725 192.375 -146.1325 192.375 -146.8125 192.375 C-147.2146875 191.4778125 -147.2146875 191.4778125 -147.625 190.5625 C-148.81167406 188.37652146 -149.90849113 186.96167406 -151.8125 185.375 C-152.4725 185.375 -153.1325 185.375 -153.8125 185.375 C-153.8125 184.715 -153.8125 184.055 -153.8125 183.375 C-154.4725 183.375 -155.1325 183.375 -155.8125 183.375 C-155.8125 182.715 -155.8125 182.055 -155.8125 181.375 C-157.1325 181.375 -158.4525 181.375 -159.8125 181.375 Z M156.1875 181.375 C156.1875 182.035 156.1875 182.695 156.1875 183.375 C155.5275 183.375 154.8675 183.375 154.1875 183.375 C154.1875 184.035 154.1875 184.695 154.1875 185.375 C153.1975 185.705 152.2075 186.035 151.1875 186.375 C151.1875 187.035 151.1875 187.695 151.1875 188.375 C150.5275 188.375 149.8675 188.375 149.1875 188.375 C149.1875 189.035 149.1875 189.695 149.1875 190.375 C148.5275 190.375 147.8675 190.375 147.1875 190.375 C147.1875 191.035 147.1875 191.695 147.1875 192.375 C146.5275 192.375 145.8675 192.375 145.1875 192.375 C145.1875 193.035 145.1875 193.695 145.1875 194.375 C144.5275 194.375 143.8675 194.375 143.1875 194.375 C143.1875 195.035 143.1875 195.695 143.1875 196.375 C142.5275 196.375 141.8675 196.375 141.1875 196.375 C141.1875 197.035 141.1875 197.695 141.1875 198.375 C140.5275 198.375 139.8675 198.375 139.1875 198.375 C139.1875 199.035 139.1875 199.695 139.1875 200.375 C138.5275 200.375 137.8675 200.375 137.1875 200.375 C137.1875 201.035 137.1875 201.695 137.1875 202.375 C136.5275 202.375 135.8675 202.375 135.1875 202.375 C135.1875 203.035 135.1875 203.695 135.1875 204.375 C134.5275 204.375 133.8675 204.375 133.1875 204.375 C133.1875 205.035 133.1875 205.695 133.1875 206.375 C132.548125 206.643125 131.90875 206.91125 131.25 207.1875 C128.85618314 208.26167752 128.85618314 208.26167752 128.1875 211.375 C127.5275 211.375 126.8675 211.375 126.1875 211.375 C126.1875 212.035 126.1875 212.695 126.1875 213.375 C125.5275 213.375 124.8675 213.375 124.1875 213.375 C124.1875 214.035 124.1875 214.695 124.1875 215.375 C123.5275 215.375 122.8675 215.375 122.1875 215.375 C122.1875 216.035 122.1875 216.695 122.1875 217.375 C121.5275 217.375 120.8675 217.375 120.1875 217.375 C120.1875 218.035 120.1875 218.695 120.1875 219.375 C119.5275 219.375 118.8675 219.375 118.1875 219.375 C118.69581404 223.59411772 121.02075512 225.58262394 123.95092773 228.51074219 C124.44529327 229.00875839 124.93965881 229.5067746 125.44900513 230.0198822 C127.08239163 231.66136441 128.72637269 233.29175587 130.37109375 234.921875 C131.50881694 236.05907959 132.6460222 237.19680254 133.7827301 238.33502197 C136.16467294 240.71687514 138.55169706 243.09347762 140.94262695 245.46630859 C144.01251188 248.51346798 147.07115977 251.57161769 150.12632656 254.63352585 C152.47217393 256.98270795 154.82296775 259.32688694 157.17540169 261.66947174 C158.30549726 262.79570936 159.43423692 263.92330921 160.56161308 265.05226898 C162.13442864 266.6254538 163.71355737 268.19200404 165.29467773 269.75683594 C166.19322983 270.65078064 167.09178192 271.54472534 168.01756287 272.46575928 C169.95603875 274.59518954 169.95603875 274.59518954 172.1875 274.375 C172.1875 276.355 172.1875 278.335 172.1875 280.375 C171.63342468 280.60375824 171.07934937 280.83251648 170.50848389 281.06820679 C167.52549813 282.74772967 165.46763762 284.8558518 163.05175781 287.28369141 C162.55374161 287.78141556 162.0557254 288.27913971 161.5426178 288.79194641 C159.90383267 290.4321207 158.27223866 292.07925661 156.640625 293.7265625 C155.50334653 294.86757256 154.3656246 296.00814077 153.22747803 297.14828491 C150.23760021 300.14578762 147.25377809 303.14924851 144.2711792 306.1539917 C141.22478679 309.22086712 138.17270297 312.28206694 135.12109375 315.34375 C129.13764566 321.34862783 123.16058337 327.35981232 117.1875 333.375 C121.62166672 338.68568805 126.30266686 343.62336617 131.2109375 348.49609375 C132.33020126 349.61323509 132.33020126 349.61323509 133.47207642 350.75294495 C135.83319389 353.10850827 138.19778162 355.46055216 140.5625 357.8125 C142.17340856 359.41838763 143.78408796 361.02450516 145.39453125 362.63085938 C149.32287513 366.54823513 153.25406674 370.46273487 157.1875 374.375 C161.31541653 372.74709742 164.06613036 369.7567424 167.11767578 366.65600586 C167.70026154 366.07210587 168.28284729 365.48820587 168.88308716 364.88661194 C170.80430324 362.9589138 172.71844749 361.02434361 174.6328125 359.08984375 C175.96700963 357.74937572 177.30172355 356.40942187 178.63693237 355.06996155 C182.14865372 351.54494213 185.65476333 348.01439789 189.15930176 344.48223877 C194.77481879 338.82358422 200.3970871 333.17165686 206.02257919 327.52292061 C207.98929743 325.54595529 209.95258135 323.56562542 211.91555786 321.58494568 C213.11562834 320.37804963 214.31580752 319.17126166 215.51611328 317.96459961 C216.06368286 317.41029266 216.61125244 316.85598572 217.17541504 316.28488159 C220.96023048 312.48863476 220.96023048 312.48863476 223.1875 311.375 C223.1875 310.715 223.1875 310.055 223.1875 309.375 C223.8475 309.375 224.5075 309.375 225.1875 309.375 C225.1875 308.715 225.1875 308.055 225.1875 307.375 C225.8475 307.375 226.5075 307.375 227.1875 307.375 C227.1875 306.715 227.1875 306.055 227.1875 305.375 C227.8475 305.375 228.5075 305.375 229.1875 305.375 C229.1875 304.715 229.1875 304.055 229.1875 303.375 C229.8475 303.375 230.5075 303.375 231.1875 303.375 C231.1875 302.715 231.1875 302.055 231.1875 301.375 C231.8475 301.375 232.5075 301.375 233.1875 301.375 C233.1875 300.715 233.1875 300.055 233.1875 299.375 C233.8475 299.375 234.5075 299.375 235.1875 299.375 C240.47546756 293.11293315 243.52696034 285.99877764 244.6875 277.875 C243.03223178 266.28812248 237.37883184 258.24876314 229.3046875 250.2265625 C228.64920929 249.56917084 227.99373108 248.91177917 227.31838989 248.23446655 C225.94079049 246.85551288 224.56068911 245.47905465 223.17822266 244.10498047 C221.05524846 241.99278527 218.94324031 239.8700416 216.83203125 237.74609375 C215.49022476 236.40560764 214.14779865 235.0657414 212.8046875 233.7265625 C212.17134491 233.08917145 211.53800232 232.4517804 210.88546753 231.79507446 C208.05988274 228.51946974 208.05988274 228.51946974 204.1875 227.375 C204.1875 226.715 204.1875 226.055 204.1875 225.375 C203.5275 225.375 202.8675 225.375 202.1875 225.375 C202.1875 224.715 202.1875 224.055 202.1875 223.375 C201.5275 223.375 200.8675 223.375 200.1875 223.375 C199.91873047 222.78170898 199.64996094 222.18841797 199.37304688 221.57714844 C198.18459268 219.36959967 196.98007611 217.90957118 195.21875 216.140625 C194.64769531 215.56699219 194.07664062 214.99335938 193.48828125 214.40234375 C192.89402344 213.81582031 192.29976562 213.22929687 191.6875 212.625 C191.09324219 212.02300781 190.49898437 211.42101562 189.88671875 210.80078125 C189.31566406 210.23230469 188.74460937 209.66382813 188.15625 209.078125 C187.37411133 208.29937012 187.37411133 208.29937012 186.57617188 207.50488281 C185.22731731 206.16462453 185.22731731 206.16462453 183.1875 206.375 C183.1875 205.715 183.1875 205.055 183.1875 204.375 C182.5275 204.375 181.8675 204.375 181.1875 204.375 C181.1875 203.715 181.1875 203.055 181.1875 202.375 C180.5275 202.375 179.8675 202.375 179.1875 202.375 C179.1875 201.715 179.1875 201.055 179.1875 200.375 C178.5275 200.375 177.8675 200.375 177.1875 200.375 C177.1875 199.715 177.1875 199.055 177.1875 198.375 C176.5275 198.375 175.8675 198.375 175.1875 198.375 C175.1875 197.715 175.1875 197.055 175.1875 196.375 C174.5275 196.375 173.8675 196.375 173.1875 196.375 C172.9503125 195.81296875 172.713125 195.2509375 172.46875 194.671875 C170.89802303 191.85605958 168.97278536 189.89544584 166.6875 187.625 C165.8934375 186.82578125 165.099375 186.0265625 164.28125 185.203125 C162.39966538 183.15576391 162.39966538 183.15576391 160.1875 183.375 C160.1875 182.715 160.1875 182.055 160.1875 181.375 C158.8675 181.375 157.5475 181.375 156.1875 181.375 Z " fill="#003060" transform="translate(539.8125,78.625)"/>
<path d="M0 0 C1.18335938 0.59167969 1.18335938 0.59167969 2.390625 1.1953125 C3.18984375 1.58460938 3.9890625 1.97390625 4.8125 2.375 C5.41578125 2.68695313 6.0190625 2.99890625 6.640625 3.3203125 C6.640625 3.9803125 6.640625 4.6403125 6.640625 5.3203125 C7.22763184 5.44704346 7.81463867 5.57377441 8.41943359 5.7043457 C11.99360875 6.69551342 15.0705349 8.66904057 18.265625 10.5078125 C18.97549561 10.91128906 19.68536621 11.31476563 20.41674805 11.73046875 C25.23592069 14.48021587 30.00593327 17.30398027 34.72265625 20.2265625 C36.74935649 21.46503152 36.74935649 21.46503152 39.640625 22.3203125 C39.640625 22.9803125 39.640625 23.6403125 39.640625 24.3203125 C40.23875 24.4646875 40.836875 24.6090625 41.453125 24.7578125 C43.20212904 25.2075564 44.92739523 25.74923591 46.640625 26.3203125 C46.640625 26.9803125 46.640625 27.6403125 46.640625 28.3203125 C47.20652344 28.42988281 47.77242188 28.53945313 48.35546875 28.65234375 C50.97316827 29.41751746 52.89398844 30.55842036 55.203125 32.0078125 C60.58137566 35.31204568 66.08446149 38.32793272 71.640625 41.3203125 C73.47455449 42.31921877 75.30788978 43.31921673 77.140625 44.3203125 C78.03394531 44.80757812 78.92726562 45.29484375 79.84765625 45.796875 C84.4453125 48.3046875 89.04296875 50.8125 93.640625 53.3203125 C93.640625 53.9803125 93.640625 54.6403125 93.640625 55.3203125 C94.2078125 55.42988281 94.775 55.53945313 95.359375 55.65234375 C97.96482553 56.41524108 99.84971929 57.55308738 102.140625 59.0078125 C107.79702733 62.49061215 113.6724825 65.41499973 119.640625 68.3203125 C120.97484368 68.98520553 122.30855668 69.65112178 123.640625 70.3203125 C123.640625 70.9803125 123.640625 71.6403125 123.640625 72.3203125 C124.176875 72.4234375 124.713125 72.5265625 125.265625 72.6328125 C128.26564544 73.50123947 130.8785785 74.87651546 133.640625 76.3203125 C133.640625 76.9803125 133.640625 77.6403125 133.640625 78.3203125 C134.46820313 78.48080078 134.46820313 78.48080078 135.3125 78.64453125 C138.10461158 79.45499317 140.3589201 80.70420759 142.890625 82.1328125 C147.42074577 84.65630259 151.98553171 87.03668183 156.640625 89.3203125 C156.640625 89.9803125 156.640625 90.6403125 156.640625 91.3203125 C157.23875 91.4646875 157.836875 91.6090625 158.453125 91.7578125 C160.20212904 92.2075564 161.92739523 92.74923591 163.640625 93.3203125 C163.640625 93.9803125 163.640625 94.6403125 163.640625 95.3203125 C164.20652344 95.42988281 164.77242187 95.53945313 165.35546875 95.65234375 C167.97316827 96.41751746 169.89398844 97.55842036 172.203125 99.0078125 C177.58137566 102.31204568 183.08446149 105.32793272 188.640625 108.3203125 C190.47455449 109.31921877 192.30788978 110.31921673 194.140625 111.3203125 C195.03394531 111.80757812 195.92726563 112.29484375 196.84765625 112.796875 C201.4453125 115.3046875 206.04296875 117.8125 210.640625 120.3203125 C210.640625 120.9803125 210.640625 121.6403125 210.640625 122.3203125 C211.23875 122.4646875 211.836875 122.6090625 212.453125 122.7578125 C214.20212904 123.2075564 215.92739523 123.74923591 217.640625 124.3203125 C217.640625 124.9803125 217.640625 125.6403125 217.640625 126.3203125 C218.22255615 126.44341797 218.8044873 126.56652344 219.40405273 126.69335938 C221.67449574 127.3298071 223.3910089 128.17174307 225.42578125 129.3515625 C226.12123047 129.74988281 226.81667969 130.14820313 227.53320312 130.55859375 C228.24927734 130.97496094 228.96535156 131.39132812 229.703125 131.8203125 C231.13013928 132.64560456 232.55847518 133.46861668 233.98828125 134.2890625 C234.93199585 134.83723633 234.93199585 134.83723633 235.89477539 135.39648438 C237.79416333 136.46271555 237.79416333 136.46271555 240.640625 137.3203125 C240.640625 137.9803125 240.640625 138.6403125 240.640625 139.3203125 C241.20652344 139.42988281 241.77242188 139.53945313 242.35546875 139.65234375 C244.97316827 140.41751746 246.89398844 141.55842036 249.203125 143.0078125 C254.58145505 146.31209445 260.08517646 149.32654301 265.640625 152.3203125 C267.62020292 153.40289417 269.59937845 154.486212 271.578125 155.5703125 C274.57352665 157.21138675 277.5757147 158.81274641 280.640625 160.3203125 C280.640625 160.9803125 280.640625 161.6403125 280.640625 162.3203125 C281.23875 162.4646875 281.836875 162.6090625 282.453125 162.7578125 C284.20212904 163.2075564 285.92739523 163.74923591 287.640625 164.3203125 C287.640625 164.9803125 287.640625 165.6403125 287.640625 166.3203125 C288.2078125 166.42988281 288.775 166.53945313 289.359375 166.65234375 C291.96482553 167.41524108 293.84971929 168.55308738 296.140625 170.0078125 C299.87250252 172.30941097 303.63132998 174.34856965 307.578125 176.2578125 C312.62207487 178.72489169 317.25680064 181.56698868 321.94921875 184.640625 C326.02517435 187.18439991 330.29730788 189.27584435 334.640625 191.3203125 C334.640625 191.9803125 334.640625 192.6403125 334.640625 193.3203125 C335.44113281 193.46339844 335.44113281 193.46339844 336.2578125 193.609375 C339.38128031 194.54129491 341.9362366 196.0794931 344.765625 197.6953125 C349.58795284 200.34138265 354.0836 202.32194038 359.39453125 203.70703125 C361.49997859 204.28190991 363.38852367 205.02355971 365.390625 205.8828125 C383.36720602 212.76900281 406.32828149 210.08358085 423.60839844 202.45117188 C431.07208389 198.96930056 438.28431764 195.0888782 445.28515625 190.75 C447.861547 189.18622054 450.48702276 187.74889055 453.140625 186.3203125 C456.68447204 184.41170484 460.14875873 182.42731514 463.578125 180.3203125 C467.24211913 178.08574283 470.96879436 176.13467603 474.828125 174.2578125 C479.4981793 171.9737423 483.49015939 169.43316171 487.640625 166.3203125 C490.44418866 164.68490037 491.33383612 164.3203125 494.640625 164.3203125 C494.640625 163.6603125 494.640625 163.0003125 494.640625 162.3203125 C496.24479167 161.4453125 497.84895833 160.5703125 499.453125 159.6953125 C500.46375 159.14359375 501.474375 158.591875 502.515625 158.0234375 C504.45150779 156.96838138 506.38874688 155.91580474 508.328125 154.8671875 C512.34775118 152.68988999 516.35265932 150.49721957 520.3046875 148.19921875 C520.93076904 147.83618652 521.55685059 147.4731543 522.2019043 147.09912109 C523.42728084 146.38637768 524.65022491 145.66943111 525.87036133 144.94775391 C528.74754941 143.27478798 531.33822713 141.88017848 534.640625 141.3203125 C534.640625 140.6603125 534.640625 140.0003125 534.640625 139.3203125 C536.24479167 138.4453125 537.84895833 137.5703125 539.453125 136.6953125 C540.46375 136.14359375 541.474375 135.591875 542.515625 135.0234375 C544.45150779 133.96838138 546.38874688 132.91580474 548.328125 131.8671875 C553.52606381 129.05163731 558.69100676 126.18256521 563.828125 123.2578125 C564.42447754 122.91830566 565.02083008 122.57879883 565.63525391 122.22900391 C568.9251389 120.34292519 572.14735235 118.38430652 575.328125 116.3203125 C578.640625 114.3203125 578.640625 114.3203125 581.640625 114.3203125 C581.640625 113.6603125 581.640625 113.0003125 581.640625 112.3203125 C582.37925781 111.96839844 583.11789062 111.61648438 583.87890625 111.25390625 C590.16724886 108.19363278 596.07092161 104.86794546 601.921875 101.04296875 C605.50749684 98.77104457 609.21816575 96.78377516 612.9609375 94.78515625 C615.55159924 93.36897819 618.06356186 91.866809 620.578125 90.3203125 C625.23819055 87.47953654 630.05628106 85.07112629 634.9765625 82.71484375 C637.64852767 81.41559764 637.64852767 81.41559764 639.8046875 79.64453125 C641.640625 78.3203125 641.640625 78.3203125 644.640625 78.3203125 C644.640625 77.6603125 644.640625 77.0003125 644.640625 76.3203125 C647.28801416 74.859684 648.53510834 74.3203125 651.640625 74.3203125 C651.640625 73.6603125 651.640625 73.0003125 651.640625 72.3203125 C653.24479167 71.4453125 654.84895833 70.5703125 656.453125 69.6953125 C657.45601562 69.14746094 658.45890625 68.59960938 659.4921875 68.03515625 C661.50500705 66.93884387 663.52039631 65.84722793 665.5390625 64.76171875 C670.4939526 62.08996428 675.31377071 59.34984569 679.984375 56.203125 C681.640625 55.3203125 681.640625 55.3203125 684.640625 55.3203125 C684.640625 54.6603125 684.640625 54.0003125 684.640625 53.3203125 C687.28801416 51.859684 688.53510834 51.3203125 691.640625 51.3203125 C691.640625 50.6603125 691.640625 50.0003125 691.640625 49.3203125 C693.24479167 48.4453125 694.84895833 47.5703125 696.453125 46.6953125 C697.9690625 45.86773438 697.9690625 45.86773438 699.515625 45.0234375 C701.45150779 43.96838138 703.38874688 42.91580474 705.328125 41.8671875 C712.11062856 38.19333141 718.81326465 34.38749911 725.50195312 30.54638672 C727.92646237 29.15644546 730.35367249 27.77129409 732.78125 26.38671875 C741.14063821 21.61827727 749.49439352 16.8435344 757.796875 11.9765625 C762.35015936 9.32464963 766.93163273 6.72246965 771.51171875 4.1171875 C774.60626224 2.39047457 774.60626224 2.39047457 777.30078125 0.5234375 C779.640625 -0.6796875 779.640625 -0.6796875 781.625 -0.52734375 C784.10387959 0.51513081 786.49765719 1.65484218 788.890625 2.8828125 C789.78265625 3.33785156 790.6746875 3.79289062 791.59375 4.26171875 C792.26921875 4.61105469 792.9446875 4.96039063 793.640625 5.3203125 C793.640625 5.9803125 793.640625 6.6403125 793.640625 7.3203125 C794.22980713 7.44849365 794.81898926 7.5766748 795.42602539 7.70874023 C798.9303672 8.67648097 801.94468653 10.58414516 805.078125 12.3828125 C805.78316162 12.78330811 806.48819824 13.18380371 807.21459961 13.59643555 C812.84330354 16.81419592 818.37035867 20.1773504 823.87109375 23.609375 C826.0632601 24.96363292 828.26294157 26.25909663 830.515625 27.5078125 C834.10224253 29.58805067 837.36284858 31.77836344 840.640625 34.3203125 C840.640625 34.9803125 840.640625 35.6403125 840.640625 36.3203125 C841.300625 36.3203125 841.960625 36.3203125 842.640625 36.3203125 C846.640625 40.67325368 846.640625 40.67325368 846.640625 44.3203125 C847.300625 44.3203125 847.960625 44.3203125 848.640625 44.3203125 C852.19511012 51.44367336 851.74671879 60.59387439 850.640625 68.3203125 C847.40242299 77.40260689 841.45698543 83.10940555 833.640625 88.3203125 C832.650625 88.3203125 831.660625 88.3203125 830.640625 88.3203125 C830.640625 88.9803125 830.640625 89.6403125 830.640625 90.3203125 C829.03645833 91.1953125 827.43229167 92.0703125 825.828125 92.9453125 C824.8175 93.49703125 823.806875 94.04875 822.765625 94.6171875 C820.82974221 95.67224362 818.89250312 96.72482026 816.953125 97.7734375 C805.74782343 103.84297585 794.74570097 110.2455718 783.77832031 116.73144531 C778.82314171 119.6517458 773.81956472 122.46031983 768.7421875 125.1640625 C766.44675777 126.38823031 766.44675777 126.38823031 763.640625 128.3203125 C762.650625 128.3203125 761.660625 128.3203125 760.640625 128.3203125 C760.640625 128.9803125 760.640625 129.6403125 760.640625 130.3203125 C757.99323584 131.780941 756.74614166 132.3203125 753.640625 132.3203125 C753.640625 132.9803125 753.640625 133.6403125 753.640625 134.3203125 C752.03645833 135.1953125 750.43229167 136.0703125 748.828125 136.9453125 C747.8175 137.49703125 746.806875 138.04875 745.765625 138.6171875 C743.82974221 139.67224362 741.89250312 140.72482026 739.953125 141.7734375 C735.93349882 143.95073501 731.92859068 146.14340543 727.9765625 148.44140625 C727.35048096 148.80443848 726.72439941 149.1674707 726.0793457 149.54150391 C724.85396916 150.25424732 723.63102509 150.97119389 722.41088867 151.69287109 C719.53370059 153.36583702 716.94302287 154.76044652 713.640625 155.3203125 C713.640625 155.9803125 713.640625 156.6403125 713.640625 157.3203125 C712.93679688 157.660625 712.23296875 158.0009375 711.5078125 158.3515625 C701.70070287 163.16549621 692.12785853 168.37777867 682.953125 174.3203125 C679.640625 176.3203125 679.640625 176.3203125 676.640625 176.3203125 C676.640625 176.9803125 676.640625 177.6403125 676.640625 178.3203125 C675.76277344 178.79597656 675.76277344 178.79597656 674.8671875 179.28125 C662.10007666 186.22073067 649.40341557 193.28278918 636.8046875 200.5234375 C633.91599352 202.16393038 631.00588255 203.75096695 628.078125 205.3203125 C622.68276033 208.22242544 617.54374304 211.47384011 612.390625 214.78125 C609.640625 216.3203125 609.640625 216.3203125 606.640625 216.3203125 C606.640625 216.9803125 606.640625 217.6403125 606.640625 218.3203125 C603.99323584 219.780941 602.74614166 220.3203125 599.640625 220.3203125 C599.640625 220.9803125 599.640625 221.6403125 599.640625 222.3203125 C598.76277344 222.79597656 598.76277344 222.79597656 597.8671875 223.28125 C591.83862437 226.55803657 585.82842671 229.86709947 579.828125 233.1953125 C579.05984375 233.62110596 578.2915625 234.04689941 577.5 234.4855957 C573.82012458 236.53078697 570.15228648 238.59255564 566.51171875 240.70703125 C565.87661377 241.07521973 565.24150879 241.4434082 564.5871582 241.82275391 C562.87577289 242.81871089 561.16821816 243.82124181 559.4609375 244.82421875 C557.10559786 246.07365792 555.24262783 246.86150524 552.640625 247.3203125 C552.640625 247.9803125 552.640625 248.6403125 552.640625 249.3203125 C551.48046875 249.88298828 551.48046875 249.88298828 550.296875 250.45703125 C544.74168705 253.1864986 539.37523956 255.94051157 534.26171875 259.4375 C532.640625 260.3203125 532.640625 260.3203125 529.640625 260.3203125 C529.640625 260.9803125 529.640625 261.6403125 529.640625 262.3203125 C526.99323584 263.780941 525.74614166 264.3203125 522.640625 264.3203125 C522.640625 264.9803125 522.640625 265.6403125 522.640625 266.3203125 C522.05539062 266.63742187 521.47015625 266.95453125 520.8671875 267.28125 C514.83862437 270.55803657 508.82842671 273.86709947 502.828125 277.1953125 C502.05984375 277.62110596 501.2915625 278.04689941 500.5 278.4855957 C496.82012458 280.53078697 493.15228648 282.59255564 489.51171875 284.70703125 C488.55906128 285.25931396 488.55906128 285.25931396 487.5871582 285.82275391 C485.87577289 286.81871089 484.16821816 287.82124181 482.4609375 288.82421875 C480.10559786 290.07365792 478.24262783 290.86150524 475.640625 291.3203125 C475.640625 291.9803125 475.640625 292.6403125 475.640625 293.3203125 C474.93679688 293.660625 474.23296875 294.0009375 473.5078125 294.3515625 C466.96766256 297.56187109 460.62178292 300.96454818 454.36279297 304.69140625 C451.49924941 306.37166051 448.93578244 307.76304323 445.640625 308.3203125 C445.640625 308.9803125 445.640625 309.6403125 445.640625 310.3203125 C442.99323584 311.780941 441.74614166 312.3203125 438.640625 312.3203125 C438.640625 312.9803125 438.640625 313.6403125 438.640625 314.3203125 C437.53267578 314.84818359 437.53267578 314.84818359 436.40234375 315.38671875 C431.16808689 317.93401275 426.1300239 320.55354377 421.265625 323.7578125 C410.38571567 330.85340554 396.61769623 339.23289234 383.203125 336.6328125 C378.63441676 335.49456045 374.76405253 333.56945479 370.640625 331.3203125 C370.640625 330.6603125 370.640625 330.0003125 370.640625 329.3203125 C369.78984375 329.15595703 369.78984375 329.15595703 368.921875 328.98828125 C366.31642447 328.22538392 364.43153071 327.08753762 362.140625 325.6328125 C356.48422267 322.15001285 350.6087675 319.22562527 344.640625 316.3203125 C343.30640632 315.65541947 341.97269332 314.98950322 340.640625 314.3203125 C340.640625 313.6603125 340.640625 313.0003125 340.640625 312.3203125 C340.07472656 312.21074219 339.50882812 312.10117187 338.92578125 311.98828125 C336.30808173 311.22310754 334.38726156 310.08220464 332.078125 308.6328125 C326.69987434 305.32857932 321.19678851 302.31269228 315.640625 299.3203125 C313.80669551 298.32140623 311.97336022 297.32140827 310.140625 296.3203125 C309.24730469 295.83304688 308.35398437 295.34578125 307.43359375 294.84375 C302.8359375 292.3359375 298.23828125 289.828125 293.640625 287.3203125 C293.640625 286.6603125 293.640625 286.0003125 293.640625 285.3203125 C293.0425 285.1759375 292.444375 285.0315625 291.828125 284.8828125 C290.07912096 284.4330686 288.35385477 283.89138909 286.640625 283.3203125 C286.640625 282.6603125 286.640625 282.0003125 286.640625 281.3203125 C286.05869385 281.19720703 285.4767627 281.07410156 284.87719727 280.94726562 C282.60675426 280.3108179 280.8902411 279.46888193 278.85546875 278.2890625 C278.16001953 277.89074219 277.46457031 277.49242187 276.74804688 277.08203125 C276.03197266 276.66566406 275.31589844 276.24929688 274.578125 275.8203125 C273.15111072 274.99502044 271.72277482 274.17200832 270.29296875 273.3515625 C269.66382568 272.98611328 269.03468262 272.62066406 268.38647461 272.24414062 C266.48708667 271.17790945 266.48708667 271.17790945 263.640625 270.3203125 C263.640625 269.6603125 263.640625 269.0003125 263.640625 268.3203125 C263.07472656 268.21074219 262.50882812 268.10117187 261.92578125 267.98828125 C259.30808173 267.22310754 257.38726156 266.08220464 255.078125 264.6328125 C249.69987434 261.32857932 244.19678851 258.31269228 238.640625 255.3203125 C236.80669551 254.32140623 234.97336022 253.32140827 233.140625 252.3203125 C232.24730469 251.83304688 231.35398437 251.34578125 230.43359375 250.84375 C223.53710938 247.08203125 223.53710938 247.08203125 216.640625 243.3203125 C216.640625 242.6603125 216.640625 242.0003125 216.640625 241.3203125 C216.0425 241.1759375 215.444375 241.0315625 214.828125 240.8828125 C213.07912096 240.4330686 211.35385477 239.89138909 209.640625 239.3203125 C209.640625 238.6603125 209.640625 238.0003125 209.640625 237.3203125 C209.05869385 237.19720703 208.4767627 237.07410156 207.87719727 236.94726562 C205.60675426 236.3108179 203.8902411 235.46888193 201.85546875 234.2890625 C201.16001953 233.89074219 200.46457031 233.49242187 199.74804688 233.08203125 C199.03197266 232.66566406 198.31589844 232.24929688 197.578125 231.8203125 C196.15111072 230.99502044 194.72277482 230.17200832 193.29296875 229.3515625 C192.34925415 228.80338867 192.34925415 228.80338867 191.38647461 228.24414062 C189.48708667 227.17790945 189.48708667 227.17790945 186.640625 226.3203125 C186.640625 225.6603125 186.640625 225.0003125 186.640625 224.3203125 C186.0425 224.1759375 185.444375 224.0315625 184.828125 223.8828125 C183.07912096 223.4330686 181.35385477 222.89138909 179.640625 222.3203125 C179.640625 221.6603125 179.640625 221.0003125 179.640625 220.3203125 C179.0734375 220.21074219 178.50625 220.10117187 177.921875 219.98828125 C175.31642447 219.22538392 173.43153071 218.08753762 171.140625 216.6328125 C167.40874748 214.33121403 163.64992002 212.29205535 159.703125 210.3828125 C154.65917513 207.91573331 150.02444936 205.07363632 145.33203125 202 C141.25607565 199.45622509 136.98394212 197.36478065 132.640625 195.3203125 C132.640625 194.6603125 132.640625 194.0003125 132.640625 193.3203125 C131.76772827 193.1356543 131.76772827 193.1356543 130.87719727 192.94726562 C128.60675426 192.3108179 126.8902411 191.46888193 124.85546875 190.2890625 C124.16001953 189.89074219 123.46457031 189.49242187 122.74804688 189.08203125 C122.03197266 188.66566406 121.31589844 188.24929688 120.578125 187.8203125 C119.15111072 186.99502044 117.72277482 186.17200832 116.29296875 185.3515625 C115.34925415 184.80338867 115.34925415 184.80338867 114.38647461 184.24414062 C112.48708667 183.17790945 112.48708667 183.17790945 109.640625 182.3203125 C109.640625 181.6603125 109.640625 181.0003125 109.640625 180.3203125 C109.0425 180.1759375 108.444375 180.0315625 107.828125 179.8828125 C106.07912096 179.4330686 104.35385477 178.89138909 102.640625 178.3203125 C102.640625 177.6603125 102.640625 177.0003125 102.640625 176.3203125 C102.07472656 176.21074219 101.50882813 176.10117187 100.92578125 175.98828125 C98.30808173 175.22310754 96.38726156 174.08220464 94.078125 172.6328125 C88.69979495 169.32853055 83.19607354 166.31408199 77.640625 163.3203125 C75.66104708 162.23773083 73.68187155 161.154413 71.703125 160.0703125 C68.70772335 158.42923825 65.7055353 156.82787859 62.640625 155.3203125 C62.640625 154.6603125 62.640625 154.0003125 62.640625 153.3203125 C62.0425 153.1759375 61.444375 153.0315625 60.828125 152.8828125 C59.07912096 152.4330686 57.35385477 151.89138909 55.640625 151.3203125 C55.640625 150.6603125 55.640625 150.0003125 55.640625 149.3203125 C55.07730469 149.21332031 54.51398438 149.10632813 53.93359375 148.99609375 C51.26093551 148.20841083 49.30284146 147.00239865 46.953125 145.5078125 C42.33782416 142.66182461 37.65132301 140.3778455 32.640625 138.3203125 C32.640625 137.6603125 32.640625 137.0003125 32.640625 136.3203125 C31.7434375 136.10375 31.7434375 136.10375 30.828125 135.8828125 C29.07912096 135.4330686 27.35385477 134.89138909 25.640625 134.3203125 C25.640625 133.6603125 25.640625 133.0003125 25.640625 132.3203125 C25.07472656 132.21074219 24.50882812 132.10117187 23.92578125 131.98828125 C21.30808173 131.22310754 19.38726156 130.08220464 17.078125 128.6328125 C11.69987434 125.32857932 6.19678851 122.31269228 0.640625 119.3203125 C-1.19330449 118.32140623 -3.02663978 117.32140827 -4.859375 116.3203125 C-5.75269531 115.83304688 -6.64601563 115.34578125 -7.56640625 114.84375 C-12.1640625 112.3359375 -16.76171875 109.828125 -21.359375 107.3203125 C-21.359375 106.6603125 -21.359375 106.0003125 -21.359375 105.3203125 C-21.9359082 105.19954346 -22.51244141 105.07877441 -23.10644531 104.9543457 C-25.46260779 104.2912601 -27.28195453 103.38468298 -29.40625 102.17578125 C-30.169375 101.74587891 -30.9325 101.31597656 -31.71875 100.87304688 C-32.90210937 100.19725586 -32.90210937 100.19725586 -34.109375 99.5078125 C-39.79089121 96.28355205 -45.49145809 93.19398414 -51.359375 90.3203125 C-51.359375 89.6603125 -51.359375 89.0003125 -51.359375 88.3203125 C-52.22949219 88.15015625 -52.22949219 88.15015625 -53.1171875 87.9765625 C-61.6468766 85.48006813 -66.3033682 77.74463604 -70.4128418 70.45043945 C-73.33981497 63.86342864 -72.51349345 53.03066025 -70.4140625 46.28125 C-69.21864926 44.09341822 -67.94279644 42.24147203 -66.359375 40.3203125 C-65.616875 39.2684375 -64.874375 38.2165625 -64.109375 37.1328125 C-60.6108889 33.55481535 -56.79243732 30.66136788 -52.359375 28.3203125 C-51.369375 28.3203125 -50.379375 28.3203125 -49.359375 28.3203125 C-49.359375 27.6603125 -49.359375 27.0003125 -49.359375 26.3203125 C-46.74803762 24.89594665 -44.136451 23.47207154 -41.5234375 22.05078125 C-39.45049906 20.91706307 -37.38255769 19.77414858 -35.3203125 18.62109375 C-34.36382812 18.08871094 -33.40734375 17.55632812 -32.421875 17.0078125 C-31.54660156 16.51667969 -30.67132813 16.02554687 -29.76953125 15.51953125 C-27.60448422 14.44227122 -25.72088826 13.78604017 -23.359375 13.3203125 C-23.359375 12.6603125 -23.359375 12.0003125 -23.359375 11.3203125 C-22.60011719 10.91039062 -21.84085938 10.50046875 -21.05859375 10.078125 C-20.06472656 9.53929687 -19.07085937 9.00046875 -18.046875 8.4453125 C-17.06074219 7.91164063 -16.07460937 7.37796875 -15.05859375 6.828125 C-12.26351042 5.31309124 -12.26351042 5.31309124 -9.359375 3.3203125 C-8.369375 3.3203125 -7.379375 3.3203125 -6.359375 3.3203125 C-6.359375 2.6603125 -6.359375 2.0003125 -6.359375 1.3203125 C-3.87913116 -0.30663644 -2.91622054 -0.84010327 0 0 Z " fill="#003060" transform="translate(150.359375,481.6796875)"/>
<path d="M0 0 C3.59948032 0.66750926 6.25154388 2.18414762 9.375 4.0625 C13.95882204 6.78816707 18.55468874 9.48387048 23.1875 12.125 C23.78046875 12.46313721 24.3734375 12.80127441 24.984375 13.1496582 C32.24418552 17.28382926 39.4993598 21.31786754 47 25 C47 25.66 47 26.32 47 27 C47.86020752 27.17547363 47.86020752 27.17547363 48.73779297 27.35449219 C51.18000233 28.05136263 53.01566434 29.02971625 55.1953125 30.328125 C55.9896167 30.79629639 56.7839209 31.26446777 57.60229492 31.74682617 C58.4347876 32.24287354 59.26728027 32.7389209 60.125 33.25 C66.63823891 37.08200812 73.14187507 40.80894444 80 44 C80 44.66 80 45.32 80 46 C80.598125 46.144375 81.19625 46.28875 81.8125 46.4375 C83.56150404 46.8872439 85.28677023 47.42892341 87 48 C87 48.66 87 49.32 87 50 C87.5671875 50.10957031 88.134375 50.21914063 88.71875 50.33203125 C91.32420053 51.09492858 93.20909429 52.23277488 95.5 53.6875 C99.23187752 55.98909847 102.99070498 58.02825715 106.9375 59.9375 C111.97153037 62.40301615 116.61235953 65.22587114 121.30078125 68.2890625 C124.76543543 70.48518193 128.35052787 72.39554 131.96875 74.32421875 C136.26253714 76.69797478 140.44125707 79.25559461 144.61035156 81.84130859 C148.62398001 84.29600481 152.63580158 86.23753525 157 88 C157 88.66 157 89.32 157 90 C157.56589844 90.10957031 158.13179687 90.21914063 158.71484375 90.33203125 C161.33254327 91.09720496 163.25336344 92.23810786 165.5625 93.6875 C170.94075066 96.99173318 176.44383649 100.00762022 182 103 C183.83392949 103.99890627 185.66726478 104.99890423 187.5 106 C188.39332031 106.48726562 189.28664063 106.97453125 190.20703125 107.4765625 C197.10351562 111.23828125 197.10351562 111.23828125 204 115 C204 115.66 204 116.32 204 117 C204.5671875 117.10957031 205.134375 117.21914063 205.71875 117.33203125 C208.32420053 118.09492858 210.20909429 119.23277488 212.5 120.6875 C218.15640233 124.17029965 224.0318575 127.09468723 230 130 C231.33421868 130.66489303 232.66793168 131.33080928 234 132 C234 132.66 234 133.32 234 134 C234.56589844 134.10957031 235.13179688 134.21914063 235.71484375 134.33203125 C238.33254327 135.09720496 240.25336344 136.23810786 242.5625 137.6875 C247.94083005 140.99178195 253.44455146 144.00623051 259 147 C260.97957792 148.08258167 262.95875345 149.1658995 264.9375 150.25 C267.93290165 151.89107425 270.9350897 153.49243391 274 155 C274 155.66 274 156.32 274 157 C274.598125 157.144375 275.19625 157.28875 275.8125 157.4375 C277.56150404 157.8872439 279.28677023 158.42892341 281 159 C281 159.66 281 160.32 281 161 C281.5671875 161.10957031 282.134375 161.21914063 282.71875 161.33203125 C285.32420053 162.09492858 287.20909429 163.23277488 289.5 164.6875 C293.23187752 166.98909847 296.99070498 169.02825715 300.9375 170.9375 C306.12487415 173.47086877 310.91871675 176.38645916 315.72265625 179.58203125 C318.02323435 181.13718356 318.02323435 181.13718356 321 182 C321 182.66 321 183.32 321 184 C321.57492187 184.11988281 322.14984375 184.23976563 322.7421875 184.36328125 C325.12843147 185.03621856 326.97349624 185.96090468 329.125 187.1875 C329.92035156 187.63867188 330.71570313 188.08984375 331.53515625 188.5546875 C333.89950823 189.94107456 336.23021834 191.37301418 338.5625 192.8125 C361.64614943 206.66268966 385.18739948 212.77848326 412 208 C414.14090069 207.37833553 416.10486351 206.65325795 418.14453125 205.76171875 C420.23345437 204.90416084 422.307945 204.41486148 424.5 203.875 C431.58576075 201.81150419 437.7596199 197.81810264 444.08740234 194.11474609 C446.78858484 192.54037805 449.51389505 191.01273272 452.25 189.5 C453.08015625 189.0359375 453.9103125 188.571875 454.765625 188.09375 C456.85435876 187.07129292 458.72805384 186.45855794 461 186 C461 185.34 461 184.68 461 184 C461.67804687 183.63648438 462.35609375 183.27296875 463.0546875 182.8984375 C467.828883 180.31957844 472.55388095 177.69985018 477.1875 174.875 C480.73310871 172.71850813 484.31300449 170.80858101 488.05078125 169.01171875 C490.91163373 167.52682738 493.56669002 165.75224932 496.23828125 163.953125 C498 163 498 163 501 163 C501 162.34 501 161.68 501 161 C503.64738916 159.5393715 504.89448334 159 508 159 C508 158.34 508 157.68 508 157 C509.60416667 156.125 511.20833333 155.25 512.8125 154.375 C513.823125 153.82328125 514.83375 153.2715625 515.875 152.703125 C517.81088279 151.64806888 519.74812188 150.59549224 521.6875 149.546875 C525.70712618 147.36957749 529.71203432 145.17690707 533.6640625 142.87890625 C534.29014404 142.51587402 534.91622559 142.1528418 535.5612793 141.77880859 C536.78665584 141.06606518 538.00959991 140.34911861 539.22973633 139.62744141 C542.10692441 137.95447548 544.69760213 136.55986598 548 136 C548 135.34 548 134.68 548 134 C550.64738916 132.5393715 551.89448334 132 555 132 C555 131.34 555 130.68 555 130 C555.73863281 129.64808594 556.47726562 129.29617188 557.23828125 128.93359375 C563.53897872 125.86730769 569.4508591 122.53029052 575.31640625 118.703125 C578.69257632 116.56046103 582.17839892 114.68929538 585.703125 112.8046875 C591.71622826 109.51315467 597.62134913 106.03186624 603.546875 102.5859375 C604.30033203 102.14991211 605.05378906 101.71388672 605.83007812 101.26464844 C607.23607856 100.44521974 608.63627818 99.61572227 610.02929688 98.77441406 C614.68016161 96 614.68016161 96 618 96 C618 95.34 618 94.68 618 94 C618.87785156 93.52433594 618.87785156 93.52433594 619.7734375 93.0390625 C625.80200063 89.76227593 631.81219829 86.45321303 637.8125 83.125 C638.58078125 82.69920654 639.3490625 82.27341309 640.140625 81.8347168 C643.82050042 79.78952553 647.48833852 77.72775686 651.12890625 75.61328125 C651.76401123 75.24509277 652.39911621 74.8769043 653.0534668 74.49755859 C654.76485211 73.50160161 656.47240684 72.49907069 658.1796875 71.49609375 C660.53502714 70.24665458 662.39799717 69.45880726 665 69 C665 68.34 665 67.68 665 67 C666.60416667 66.125 668.20833333 65.25 669.8125 64.375 C671.3284375 63.54742188 671.3284375 63.54742188 672.875 62.703125 C674.81088279 61.64806888 676.74812188 60.59549224 678.6875 59.546875 C682.70712618 57.36957749 686.71203432 55.17690707 690.6640625 52.87890625 C691.29014404 52.51587402 691.91622559 52.1528418 692.5612793 51.77880859 C693.78665584 51.06606518 695.00959991 50.34911861 696.22973633 49.62744141 C699.10692441 47.95447548 701.69760213 46.55986598 705 46 C705 45.34 705 44.68 705 44 C707.64738916 42.5393715 708.89448334 42 712 42 C712 41.34 712 40.68 712 40 C712.7734375 39.62488281 713.546875 39.24976563 714.34375 38.86328125 C719.89893795 36.1338139 725.26538544 33.37980093 730.37890625 29.8828125 C732 29 732 29 735 29 C735 28.34 735 27.68 735 27 C735.87785156 26.52433594 735.87785156 26.52433594 736.7734375 26.0390625 C742.92454707 22.69566661 749.06012835 19.32417808 755.1875 15.9375 C755.93499512 15.5264502 756.68249023 15.11540039 757.45263672 14.69189453 C761.84262991 12.26032016 766.09245215 9.70791351 770.2668457 6.92016602 C772 6 772 6 775 6 C775 5.34 775 4.68 775 4 C782.28571429 -0.57142857 782.28571429 -0.57142857 787 0 C787 0.66 787 1.32 787 2 C787.54914062 2.10183594 788.09828125 2.20367188 788.6640625 2.30859375 C791.55117333 3.16313993 793.79366769 4.51016454 796.375 6.0625 C797.42300781 6.68511719 798.47101562 7.30773437 799.55078125 7.94921875 C800.10717285 8.28099121 800.66356445 8.61276367 801.23681641 8.95458984 C804.32981427 10.78846091 807.44472143 12.58368411 810.5625 14.375 C811.15788574 14.72054932 811.75327148 15.06609863 812.36669922 15.42211914 C814.8972723 16.87569021 817.2214114 18.0738038 820 19 C820 19.66 820 20.32 820 21 C820.53625 21.103125 821.0725 21.20625 821.625 21.3125 C824.62502044 22.18092697 827.2379535 23.55620296 830 25 C830 25.66 830 26.32 830 27 C830.55171875 27.09410156 831.1034375 27.18820312 831.671875 27.28515625 C834.62405565 28.1916144 836.72721344 29.66343518 839.25 31.4375 C840.14203125 32.05496094 841.0340625 32.67242188 841.953125 33.30859375 C842.62859375 33.86675781 843.3040625 34.42492187 844 35 C844 35.66 844 36.32 844 37 C844.66 37 845.32 37 846 37 C847.4375 38.57421875 847.4375 38.57421875 849 40.6875 C849.515625 41.37199219 850.03125 42.05648437 850.5625 42.76171875 C855.48889822 50.43244207 855.33093236 60.17959817 854 69 C852.54758762 73.49937905 850.12400715 77.45898737 847 81 C846.34 81 845.68 81 845 81 C845 81.66 845 82.32 845 83 C844.34 83 843.68 83 843 83 C843 83.66 843 84.32 843 85 C841.57765174 85.81277043 840.1552962 86.62552811 838.73291016 87.43823242 C837.4798606 88.15433131 836.22693361 88.8706447 834.97412109 89.5871582 C831.73032777 91.44196747 828.48482691 93.29359972 825.234375 95.13671875 C824.03114774 95.82013249 822.82802069 96.5037227 821.625 97.1875 C821.04113525 97.51878906 820.45727051 97.85007812 819.85571289 98.19140625 C816.61357138 100.04167962 813.44346106 101.96802344 810.3125 104 C807 106 807 106 804 106 C804 106.66 804 107.32 804 108 C801.35261084 109.4606285 800.10551666 110 797 110 C797 110.66 797 111.32 797 112 C796.2265625 112.37511719 795.453125 112.75023437 794.65625 113.13671875 C789.10106205 115.8661861 783.73461456 118.62019907 778.62109375 122.1171875 C777 123 777 123 774 123 C774 123.66 774 124.32 774 125 C771.35261084 126.4606285 770.10551666 127 767 127 C767 127.66 767 128.32 767 129 C765.39583333 129.875 763.79166667 130.75 762.1875 131.625 C761.176875 132.17671875 760.16625 132.7284375 759.125 133.296875 C757.18911721 134.35193112 755.25187812 135.40450776 753.3125 136.453125 C749.29287382 138.63042251 745.28796568 140.82309293 741.3359375 143.12109375 C740.70985596 143.48412598 740.08377441 143.8471582 739.4387207 144.22119141 C738.21334416 144.93393482 736.99040009 145.65088139 735.77026367 146.37255859 C732.89307559 148.04552452 730.30239787 149.44013402 727 150 C727 150.66 727 151.32 727 152 C724.35261084 153.4606285 723.10551666 154 720 154 C720 154.66 720 155.32 720 156 C718.83984375 156.56267578 718.83984375 156.56267578 717.65625 157.13671875 C712.10106205 159.8661861 706.73461456 162.62019907 701.62109375 166.1171875 C700 167 700 167 697 167 C697 167.66 697 168.32 697 169 C694.35261084 170.4606285 693.10551666 171 690 171 C690 171.66 690 172.32 690 173 C688.39583333 173.875 686.79166667 174.75 685.1875 175.625 C684.176875 176.17671875 683.16625 176.7284375 682.125 177.296875 C680.18911721 178.35193112 678.25187812 179.40450776 676.3125 180.453125 C672.29287382 182.63042251 668.28796568 184.82309293 664.3359375 187.12109375 C663.70985596 187.48412598 663.08377441 187.8471582 662.4387207 188.22119141 C661.21334416 188.93393482 659.99040009 189.65088139 658.77026367 190.37255859 C655.89307559 192.04552452 653.30239787 193.44013402 650 194 C650 194.66 650 195.32 650 196 C647.35261084 197.4606285 646.10551666 198 643 198 C643 198.66 643 199.32 643 200 C642.29617188 200.3403125 641.59234375 200.680625 640.8671875 201.03125 C630.70840565 206.0178061 620.86086497 211.44212686 611.375 217.625 C606.73967706 220.62912425 601.95315746 223.05255397 596.98828125 225.4609375 C592.983224 227.52367287 589.25334969 229.93135179 585.48046875 232.38671875 C576.84987893 238 576.84987893 238 573 238 C573 238.66 573 239.32 573 240 C570.35261084 241.4606285 569.10551666 242 566 242 C566 242.66 566 243.32 566 244 C564.83984375 244.56267578 564.83984375 244.56267578 563.65625 245.13671875 C558.10106205 247.8661861 552.73461456 250.62019907 547.62109375 254.1171875 C546 255 546 255 543 255 C543 255.66 543 256.32 543 257 C540.35261084 258.4606285 539.10551666 259 536 259 C536 259.66 536 260.32 536 261 C535.41476562 261.31710937 534.82953125 261.63421875 534.2265625 261.9609375 C528.19799937 265.23772407 522.18780171 268.54678697 516.1875 271.875 C515.41921875 272.30079346 514.6509375 272.72658691 513.859375 273.1652832 C510.17949958 275.21047447 506.51166148 277.27224314 502.87109375 279.38671875 C501.91843628 279.93900146 501.91843628 279.93900146 500.9465332 280.50244141 C499.23514789 281.49839839 497.52759316 282.50092931 495.8203125 283.50390625 C493.46497286 284.75334542 491.60200283 285.54119274 489 286 C489 286.66 489 287.32 489 288 C487.83984375 288.56267578 487.83984375 288.56267578 486.65625 289.13671875 C481.10106205 291.8661861 475.73461456 294.62019907 470.62109375 298.1171875 C469 299 469 299 466 299 C466 299.66 466 300.32 466 301 C463.35261084 302.4606285 462.10551666 303 459 303 C459 303.66 459 304.32 459 305 C458.34515625 305.35191406 457.6903125 305.70382812 457.015625 306.06640625 C450.93216241 309.35731892 444.93886947 312.77237001 438.9765625 316.27734375 C435.25150173 318.43318601 431.47009779 320.47368655 427.6796875 322.51171875 C424.07201296 324.51539805 420.57992581 326.69128074 417.09375 328.8984375 C415 330 415 330 412 330 C412 330.66 412 331.32 412 332 C405.65719315 335.71358715 400.69316149 336.77542794 393.375 336.75 C392.40369141 336.74677734 391.43238281 336.74355469 390.43164062 336.74023438 C381.07873561 336.42329208 375.62686848 333.39775958 368 328 C365.614168 326.56876269 363.18323248 325.22362925 360.75 323.875 C356.71129639 321.58280787 352.71292737 319.23360094 348.75 316.8125 C343.97304801 313.91617529 339.0323079 311.41979061 334 309 C334 308.34 334 307.68 334 307 C333.43410156 306.89042969 332.86820312 306.78085937 332.28515625 306.66796875 C329.66745673 305.90279504 327.74663656 304.76189214 325.4375 303.3125 C320.05939259 300.00835483 314.55734748 296.99000949 309 294 C302.20208244 290.33032769 295.46035841 286.57756081 288.77026367 282.71533203 C285.88579923 281.05466745 282.99934877 279.44440383 280 278 C280 277.34 280 276.68 280 276 C279.41806885 275.87689453 278.8361377 275.75378906 278.23657227 275.62695312 C275.96612926 274.9905054 274.2496161 274.14856943 272.21484375 272.96875 C271.51939453 272.57042969 270.82394531 272.17210937 270.10742188 271.76171875 C269.39134766 271.34535156 268.67527344 270.92898438 267.9375 270.5 C266.51048572 269.67470794 265.08214982 268.85169582 263.65234375 268.03125 C263.02320068 267.66580078 262.39405762 267.30035156 261.74584961 266.92382812 C259.84646167 265.85759695 259.84646167 265.85759695 257 265 C257 264.34 257 263.68 257 263 C256.401875 262.855625 255.80375 262.71125 255.1875 262.5625 C253.43849596 262.1127561 251.71322977 261.57107659 250 261 C250 260.34 250 259.68 250 259 C249.14921875 258.83564453 249.14921875 258.83564453 248.28125 258.66796875 C245.67579947 257.90507142 243.79090571 256.76722512 241.5 255.3125 C237.76812248 253.01090153 234.00929502 250.97174285 230.0625 249.0625 C225.01855013 246.59542081 220.38382436 243.75332382 215.69140625 240.6796875 C211.61545065 238.13591259 207.34331712 236.04446815 203 234 C203 233.34 203 232.68 203 232 C202.41806885 231.87689453 201.8361377 231.75378906 201.23657227 231.62695312 C198.96612926 230.9905054 197.2496161 230.14856943 195.21484375 228.96875 C194.51939453 228.57042969 193.82394531 228.17210937 193.10742188 227.76171875 C192.39134766 227.34535156 191.67527344 226.92898438 190.9375 226.5 C189.51048572 225.67470794 188.08214982 224.85169582 186.65234375 224.03125 C185.70862915 223.48307617 185.70862915 223.48307617 184.74584961 222.92382812 C182.84646167 221.85759695 182.84646167 221.85759695 180 221 C180 220.34 180 219.68 180 219 C179.401875 218.855625 178.80375 218.71125 178.1875 218.5625 C176.43849596 218.1127561 174.71322977 217.57107659 173 217 C173 216.34 173 215.68 173 215 C172.4328125 214.89042969 171.865625 214.78085937 171.28125 214.66796875 C168.67579947 213.90507142 166.79090571 212.76722512 164.5 211.3125 C160.76812248 209.01090153 157.00929502 206.97174285 153.0625 205.0625 C148.03017626 202.5978197 143.39097075 199.77533733 138.703125 196.71484375 C135.20750697 194.49724792 131.59794063 192.54954028 127.94921875 190.59765625 C124.60199725 188.78439321 121.29935128 186.89832435 118 185 C110.75625523 180.83992184 103.49444973 176.69541991 96 173 C96 172.34 96 171.68 96 171 C95.4328125 170.89042969 94.865625 170.78085937 94.28125 170.66796875 C91.67579947 169.90507142 89.79090571 168.76722512 87.5 167.3125 C83.76812248 165.01090153 80.00929502 162.97174285 76.0625 161.0625 C71.02329799 158.59445094 66.37861335 155.76654205 61.68359375 152.703125 C58.31270402 150.56381216 54.83355982 148.69464601 51.3125 146.81640625 C45.96620741 143.88477175 40.71655388 140.78504265 35.4609375 137.69433594 C34.66945313 137.23188477 33.87796875 136.76943359 33.0625 136.29296875 C32.35222656 135.8755542 31.64195312 135.45813965 30.91015625 135.02807617 C28.87889162 133.86454531 28.87889162 133.86454531 26 133 C26 132.34 26 131.68 26 131 C25.1028125 130.7834375 25.1028125 130.7834375 24.1875 130.5625 C22.43849596 130.1127561 20.71322977 129.57107659 19 129 C19 128.34 19 127.68 19 127 C18.15115234 126.83564453 18.15115234 126.83564453 17.28515625 126.66796875 C14.66745673 125.90279504 12.74663656 124.76189214 10.4375 123.3125 C5.05924934 120.00826682 -0.44383649 116.99237978 -6 114 C-7.83392949 113.00109373 -9.66726478 112.00109577 -11.5 111 C-12.39332031 110.51273438 -13.28664062 110.02546875 -14.20703125 109.5234375 C-21.10351562 105.76171875 -21.10351562 105.76171875 -28 102 C-28 101.34 -28 100.68 -28 100 C-28.58628174 99.87399414 -29.17256348 99.74798828 -29.77661133 99.61816406 C-31.96325788 99.01021534 -33.61280001 98.23567614 -35.57421875 97.109375 C-36.23808594 96.73159912 -36.90195313 96.35382324 -37.5859375 95.96459961 C-38.27945313 95.56378174 -38.97296875 95.16296387 -39.6875 94.75 C-41.11839823 93.93343364 -42.54938732 93.11702649 -43.98046875 92.30078125 C-44.66931152 91.90584473 -45.3581543 91.5109082 -46.06787109 91.10400391 C-48.53407287 89.69483478 -51.01481726 88.31287226 -53.5 86.9375 C-54.1909375 86.55464844 -54.881875 86.17179688 -55.59375 85.77734375 C-56.0578125 85.52082031 -56.521875 85.26429688 -57 85 C-57 84.34 -57 83.68 -57 83 C-57.60585937 82.76152344 -58.21171875 82.52304687 -58.8359375 82.27734375 C-61.49276659 80.70914319 -62.23617532 79.29086848 -63.625 76.5625 C-64.99490047 73.91431661 -66.34037371 71.48943944 -68 69 C-68.4521044 65.95342418 -68.37030643 62.88913482 -68.375 59.8125 C-68.39949219 58.98685547 -68.42398438 58.16121094 -68.44921875 57.31054688 C-68.48781499 49.14744119 -65.59448733 42.96745315 -60 37 C-59.34 37 -58.68 37 -58 37 C-58 36.34 -58 35.68 -58 35 C-42.18181818 23 -42.18181818 23 -36 23 C-36 22.34 -36 21.68 -36 21 C-34.39583333 20.125 -32.79166667 19.25 -31.1875 18.375 C-30.18074219 17.82457031 -29.17398438 17.27414062 -28.13671875 16.70703125 C-26.16457289 15.6337713 -24.18853702 14.56759805 -22.20703125 13.51171875 C-16.37055434 10.3871402 -10.8098624 7.01185527 -5.3125 3.3203125 C-3 2 -3 2 0 2 C0 1.34 0 0.68 0 0 Z " fill="#003060" transform="translate(147,665)"/>
</svg>
