<?xml version="1.0" encoding="UTF-8"?>
<svg version="1.1" xmlns="http://www.w3.org/2000/svg" width="1080" height="1080">
<path d="M0 0 C2.7906091 0.97346829 5.60034597 1.6422962 8.4765625 2.3203125 C13.03001654 3.42574222 17.05484561 4.93578755 21.3515625 6.8203125 C23.51237485 7.50571667 25.6797794 8.17050709 27.8515625 8.8203125 C31.34886904 9.86791115 34.61991739 10.93598271 37.9765625 12.3828125 C41.82786375 14.02318155 45.68674197 15.01685858 49.73046875 16.0703125 C52.3515625 16.8203125 52.3515625 16.8203125 55.7890625 18.3203125 C59.88850142 20.04639205 63.95651691 21.00865338 68.2890625 21.9765625 C71.12853056 22.75886492 73.70929045 23.79169197 76.39648438 24.98632812 C80.22663191 26.62016728 84.17100667 27.95051138 88.1015625 29.3203125 C88.98610107 29.63000977 89.87063965 29.93970703 90.78198242 30.25878906 C96.20176166 32.13553626 101.62312458 33.79711278 107.18359375 35.2109375 C110.36679693 36.10567569 113.31504016 37.51894578 116.3515625 38.8203125 C118.17873913 39.34236296 120.01280678 39.84063709 121.8515625 40.3203125 C126.23870315 41.46762706 130.18311016 43.0235658 134.3515625 44.8203125 C136.24162497 45.42208127 138.13843871 46.00278189 140.0390625 46.5703125 C145.91982798 48.33114286 151.69370703 50.3244898 157.4765625 52.3828125 C163.66435425 54.58260878 169.81440998 56.59148612 176.18359375 58.2109375 C179.36679693 59.10567569 182.31504016 60.51894578 185.3515625 61.8203125 C188.18907614 62.62587781 191.03504968 63.36637009 193.8984375 64.07421875 C196.3515625 64.8203125 196.3515625 64.8203125 199.3515625 66.8203125 C201.08746605 67.34827043 202.84017011 67.82238449 204.6015625 68.2578125 C209.07525123 69.42307959 213.10001127 70.99821912 217.3515625 72.8203125 C220.1096078 73.61902245 222.88208185 74.34461143 225.66015625 75.0703125 C228.62476197 75.89644356 231.42433091 76.95242305 234.28125 78.0859375 C236.65072773 78.92643149 239.03158845 79.48579975 241.4765625 80.0703125 C254.3569468 83.49670999 266.55985294 90.26399173 273.6015625 101.8828125 C274.3515625 103.8203125 274.3515625 103.8203125 274.3515625 107.8203125 C275.0115625 107.8203125 275.6715625 107.8203125 276.3515625 107.8203125 C277.07682782 115.66433584 277.56230324 123.01776106 276.3515625 130.8203125 C275.6915625 130.8203125 275.0315625 130.8203125 274.3515625 130.8203125 C274.2484375 131.5421875 274.1453125 132.2640625 274.0390625 133.0078125 C272.50914243 139.26657643 268.20360593 143.76330269 263.3515625 147.8203125 C262.6915625 147.8203125 262.0315625 147.8203125 261.3515625 147.8203125 C261.3515625 148.4803125 261.3515625 149.1403125 261.3515625 149.8203125 C251.39239053 155.97251067 243.27656098 159.18687922 231.3515625 157.1328125 C224.33704696 155.46107611 217.43475577 153.19673807 210.8515625 150.2578125 C206.70829706 148.55611419 202.54904756 147.60521601 198.19921875 146.5703125 C194.74372599 145.66022387 191.62368992 144.24814992 188.3515625 142.8203125 C186.5869088 142.31886587 184.81524778 141.84174305 183.0390625 141.3828125 C178.45403886 140.18644704 174.19553595 138.61618951 169.828125 136.79296875 C166.49384695 135.48344945 163.08879954 134.52345901 159.6484375 133.53515625 C157.3515625 132.8203125 157.3515625 132.8203125 153.9140625 131.3203125 C150.01205606 129.67736242 146.1316568 128.63837795 142.04296875 127.5703125 C139.08886209 126.74710716 136.29834188 125.69358076 133.44921875 124.5703125 C130.92777547 123.66879088 128.37963577 122.99703368 125.7890625 122.3203125 C122.17080324 121.36137494 118.8248746 120.25899187 115.41015625 118.703125 C107.41809901 115.27579115 99.13705262 112.67812508 90.73046875 110.5 C87.47459069 109.56974913 84.46177761 108.15326183 81.3515625 106.8203125 C78.59209433 106.0211905 75.81788716 105.29509261 73.0390625 104.56640625 C70.12122439 103.75636689 67.35045202 102.75074934 64.53515625 101.64453125 C60.69819393 100.19623242 56.78855112 98.96049359 52.890625 97.6875 C50.3515625 96.8203125 50.3515625 96.8203125 48.3515625 95.8203125 C46.27591574 95.62273019 46.27591574 95.62273019 43.9765625 95.6328125 C42.82027344 95.61154297 42.82027344 95.61154297 41.640625 95.58984375 C39.13321362 95.84229643 37.51894348 96.56837783 35.3515625 97.8203125 C35.3515625 98.4803125 35.3515625 99.1403125 35.3515625 99.8203125 C34.6915625 99.8203125 34.0315625 99.8203125 33.3515625 99.8203125 C32.15170056 105.93362016 32.15170056 105.93362016 33.7890625 111.7578125 C34.3046875 112.4384375 34.8203125 113.1190625 35.3515625 113.8203125 C35.3515625 114.4803125 35.3515625 115.1403125 35.3515625 115.8203125 C36.3621875 116.0884375 37.3728125 116.3565625 38.4140625 116.6328125 C41.47754789 117.50374373 44.29479495 118.66592342 47.203125 119.96875 C51.13902244 121.52879662 55.22814862 122.63357235 59.28125 123.84765625 C62.3515625 124.8203125 62.3515625 124.8203125 65.9765625 126.3828125 C69.80692798 128.01426447 73.63887132 129.0198544 77.66015625 130.0703125 C80.61426291 130.89351784 83.40478312 131.94704424 86.25390625 133.0703125 C88.77534953 133.97183412 91.32348923 134.64359132 93.9140625 135.3203125 C98.27038228 136.469232 102.21807777 138.01661007 106.3515625 139.8203125 C107.95013393 140.31782708 109.55493913 140.79556433 111.1640625 141.2578125 C114.64138984 142.26108972 117.94954251 143.42619542 121.2890625 144.8203125 C125.72695599 146.65547915 130.19177793 147.90551132 134.8359375 149.10546875 C137.3515625 149.8203125 137.3515625 149.8203125 140.7890625 151.3203125 C144.01222707 152.67743442 146.96154687 153.51376603 150.3515625 154.3203125 C154.95231245 155.41627279 159.0227515 156.8963965 163.3515625 158.8203125 C164.9498933 159.31859961 166.55474907 159.79622648 168.1640625 160.2578125 C171.64138984 161.26108972 174.94954251 162.42619542 178.2890625 163.8203125 C182.72572818 165.65497142 187.18961188 166.90428332 191.83203125 168.10546875 C195.14105519 169.0443081 198.19208692 170.46625154 201.3515625 171.8203125 C204.10569071 172.61788809 206.87411024 173.34250392 209.6484375 174.06640625 C212.01463695 174.72634338 214.25420439 175.48775981 216.5390625 176.3828125 C229.8546519 181.55129256 246.01312106 181.99648458 259.4765625 177.10546875 C263.48412099 175.31404655 267.32262974 173.30907873 271.109375 171.08984375 C273.3515625 169.8203125 273.3515625 169.8203125 276.3515625 168.8203125 C276.3515625 168.1603125 276.3515625 167.5003125 276.3515625 166.8203125 C277.99609375 165.234375 277.99609375 165.234375 280.1640625 163.4453125 C282.41407107 161.58464968 284.25506535 159.95158547 285.98828125 157.59375 C286.43816406 157.00851562 286.88804687 156.42328125 287.3515625 155.8203125 C288.0115625 155.8203125 288.6715625 155.8203125 289.3515625 155.8203125 C289.5990625 155.1396875 289.8465625 154.4590625 290.1015625 153.7578125 C291.31539773 150.90529972 292.78713511 148.3110906 294.33984375 145.6328125 C298.07492752 138.9413883 300.59708126 131.89329344 300.1328125 124.19140625 C299.96431894 119.94958098 299.98293326 116.85510259 301.3515625 112.8203125 C305.33252358 109.18812148 310.54044633 107.31790453 315.55810547 105.54370117 C317.64068483 104.77431114 317.64068483 104.77431114 320.3515625 102.8203125 C321.3415625 102.8203125 322.3315625 102.8203125 323.3515625 102.8203125 C323.3515625 102.1603125 323.3515625 101.5003125 323.3515625 100.8203125 C323.85905029 100.5843335 324.36653809 100.34835449 324.8894043 100.10522461 C335.21937474 95.2897058 345.36091937 90.30746288 355.3515625 84.8203125 C364.35592019 79.97076776 373.41254038 75.24290014 382.58398438 70.71704102 C388.07447566 67.99584032 393.43605615 65.07269248 398.77734375 62.0703125 C401.3515625 60.8203125 401.3515625 60.8203125 404.3515625 60.8203125 C404.3515625 60.1603125 404.3515625 59.5003125 404.3515625 58.8203125 C405.6715625 58.8203125 406.9915625 58.8203125 408.3515625 58.8203125 C408.3515625 58.1603125 408.3515625 57.5003125 408.3515625 56.8203125 C409.6715625 56.8203125 410.9915625 56.8203125 412.3515625 56.8203125 C412.3515625 56.1603125 412.3515625 55.5003125 412.3515625 54.8203125 C413.6715625 54.8203125 414.9915625 54.8203125 416.3515625 54.8203125 C416.3515625 54.1603125 416.3515625 53.5003125 416.3515625 52.8203125 C417.7746875 52.2634375 417.7746875 52.2634375 419.2265625 51.6953125 C422.20417218 50.42423801 424.8659918 48.92304136 427.6015625 47.1953125 C432.38344748 44.25652127 437.33259702 41.87022147 442.4140625 39.5078125 C451.56619347 35.24687336 460.46983006 30.61462508 469.3515625 25.8203125 C472.41116934 24.16902373 475.47413095 22.52419293 478.5390625 20.8828125 C479.23402832 20.50511719 479.92899414 20.12742187 480.64501953 19.73828125 C487.6970034 15.96344642 493.60955056 14.42953516 501.6015625 14.4453125 C502.44549561 14.44692383 503.28942871 14.44853516 504.15893555 14.45019531 C510.58406571 14.57655476 515.73172975 15.56012555 521.3515625 18.8203125 C522.3828125 19.3565625 523.4140625 19.8928125 524.4765625 20.4453125 C529.26876599 24.40408929 533.69640513 29.46337361 536.4609375 35.0703125 C537.22788162 37.00609331 537.22788162 37.00609331 539.3515625 37.8203125 C539.43846503 42.25768962 539.49192176 46.69484884 539.5390625 51.1328125 C539.57676758 53.02676758 539.57676758 53.02676758 539.61523438 54.95898438 C539.62490234 56.16748047 539.63457031 57.37597656 539.64453125 58.62109375 C539.6602417 59.73653564 539.67595215 60.85197754 539.69213867 62.0012207 C539.30533005 65.20299785 538.76167864 65.82837987 536.3515625 67.8203125 C535.30533375 69.79652236 534.29716315 71.7940254 533.3515625 73.8203125 C532.6915625 73.8203125 532.0315625 73.8203125 531.3515625 73.8203125 C531.0834375 74.4184375 530.8153125 75.0165625 530.5390625 75.6328125 C529.35238844 77.81879104 528.25557137 79.23363844 526.3515625 80.8203125 C525.6915625 80.8203125 525.0315625 80.8203125 524.3515625 80.8203125 C524.3515625 81.4803125 524.3515625 82.1403125 524.3515625 82.8203125 C517.7265625 86.8203125 517.7265625 86.8203125 514.3515625 86.8203125 C514.3515625 87.4803125 514.3515625 88.1403125 514.3515625 88.8203125 C511.70417334 90.280941 510.45707916 90.8203125 507.3515625 90.8203125 C507.3515625 91.4803125 507.3515625 92.1403125 507.3515625 92.8203125 C506.61550781 93.21863281 505.87945313 93.61695313 505.12109375 94.02734375 C504.14527344 94.55714844 503.16945313 95.08695313 502.1640625 95.6328125 C501.20113281 96.15488281 500.23820313 96.67695312 499.24609375 97.21484375 C497.35811676 98.26202127 495.49829363 99.36216938 493.67578125 100.51953125 C491.3515625 101.8203125 491.3515625 101.8203125 488.3515625 101.8203125 C488.3515625 102.4803125 488.3515625 103.1403125 488.3515625 103.8203125 C487.85011719 104.05363281 487.34867188 104.28695312 486.83203125 104.52734375 C480.71645952 107.47573694 474.84327228 110.7866762 468.9765625 114.1953125 C468.15309326 114.67371582 467.32962402 115.15211914 466.48120117 115.64501953 C462.8294691 117.77335847 459.18575007 119.9133435 455.5625 122.08984375 C454.50289062 122.72277344 453.44328125 123.35570312 452.3515625 124.0078125 C450.9903125 124.83345703 450.9903125 124.83345703 449.6015625 125.67578125 C447.3515625 126.8203125 447.3515625 126.8203125 444.3515625 126.8203125 C444.3515625 127.4803125 444.3515625 128.1403125 444.3515625 128.8203125 C443.71992187 129.160625 443.08828125 129.5009375 442.4375 129.8515625 C435.28325831 133.72763581 428.20895061 137.73452004 421.15429688 141.78808594 C419.37433937 142.8072707 417.59030986 143.81890308 415.8046875 144.828125 C408.68279806 148.85812879 408.68279806 148.85812879 401.6875 153.1015625 C401.09590088 153.4728125 400.50430176 153.8440625 399.89477539 154.2265625 C398.25747043 155.26128195 396.62657545 156.30612417 394.99609375 157.3515625 C392.3515625 158.8203125 392.3515625 158.8203125 389.3515625 158.8203125 C389.3515625 159.4803125 389.3515625 160.1403125 389.3515625 160.8203125 C386.70417334 162.280941 385.45707916 162.8203125 382.3515625 162.8203125 C382.3515625 163.4803125 382.3515625 164.1403125 382.3515625 164.8203125 C381.42537109 165.25730469 381.42537109 165.25730469 380.48046875 165.703125 C376.10286434 167.82196549 371.92706941 170.00250522 367.9140625 172.7578125 C354.70870536 181.8203125 354.70870536 181.8203125 349.3515625 181.8203125 C349.3515625 182.4803125 349.3515625 183.1403125 349.3515625 183.8203125 C348.67351563 184.18382812 347.99546875 184.54734375 347.296875 184.921875 C339.97079539 188.87917562 332.75194591 192.98583129 325.75 197.49609375 C323.3515625 198.8203125 323.3515625 198.8203125 320.3515625 198.8203125 C320.3515625 199.4803125 320.3515625 200.1403125 320.3515625 200.8203125 C317.70417334 202.280941 316.45707916 202.8203125 313.3515625 202.8203125 C313.3515625 203.4803125 313.3515625 204.1403125 313.3515625 204.8203125 C312.42537109 205.25730469 312.42537109 205.25730469 311.48046875 205.703125 C306.25819356 208.23080158 301.47001463 210.99834545 296.6953125 214.28515625 C293.28278031 216.52036484 289.70165205 218.39968053 286.10546875 220.3203125 C283.4738378 221.75371149 280.91118073 223.26263674 278.3515625 224.8203125 C263.5228453 233.79808218 263.5228453 233.79808218 258.3515625 234.8203125 C258.3515625 235.4803125 258.3515625 236.1403125 258.3515625 236.8203125 C257.51238281 237.2225 257.51238281 237.2225 256.65625 237.6328125 C246.47374302 242.60947186 236.52549639 248.11161925 227.21875 254.59375 C224.11003872 256.63587415 222.12812883 257.8203125 218.3515625 257.8203125 C218.3515625 258.4803125 218.3515625 259.1403125 218.3515625 259.8203125 C209.31417422 264.80114581 200.25550831 268.06454115 190.3515625 270.8203125 C189.09214844 271.18898438 187.83273437 271.55765625 186.53515625 271.9375 C181.60198369 273.13878674 176.72175532 273.20262068 171.6640625 273.1953125 C170.66528076 273.19587646 169.66649902 273.19644043 168.63745117 273.19702148 C159.84049128 273.07017225 151.58141078 271.62801605 143.0078125 269.7734375 C138.16753602 268.7323066 133.37764762 268.2436501 128.43359375 267.99609375 C126.3515625 267.8203125 126.3515625 267.8203125 124.3515625 266.8203125 C122.35504441 266.61612315 120.35396429 266.45508954 118.3515625 266.3203125 C112.57378472 265.93142361 112.57378472 265.93142361 110.3515625 264.8203125 C108.35504441 264.61612315 106.35396429 264.45508954 104.3515625 264.3203125 C98.57378472 263.93142361 98.57378472 263.93142361 96.3515625 262.8203125 C94.18818159 262.61536062 92.02047245 262.45466975 89.8515625 262.3203125 C83.57378472 261.93142361 83.57378472 261.93142361 81.3515625 260.8203125 C79.35504441 260.61612315 77.35396429 260.45508954 75.3515625 260.3203125 C69.57378472 259.93142361 69.57378472 259.93142361 67.3515625 258.8203125 C65.37596382 258.61564616 63.39567439 258.45482191 61.4140625 258.3203125 C58.12111312 258.0962479 55.48993168 257.86643556 52.3515625 256.8203125 C49.51987932 256.51736868 46.68753415 256.31276192 43.84765625 256.1015625 C41.3515625 255.8203125 41.3515625 255.8203125 39.3515625 254.8203125 C37.1280479 254.46985126 34.89724744 254.16516922 32.6640625 253.8828125 C32.0050293 253.79781494 31.34599609 253.71281738 30.66699219 253.62524414 C28.56223727 253.35379955 26.45695119 253.08679304 24.3515625 252.8203125 C21.60101569 252.47025439 18.85115533 252.11527651 16.1015625 251.7578125 C14.87953125 251.60183594 13.6575 251.44585938 12.3984375 251.28515625 C9.3515625 250.8203125 9.3515625 250.8203125 6.3515625 249.8203125 C4.52139698 249.62186082 2.68726336 249.45848353 0.8515625 249.3203125 C-2.25437592 249.08653219 -4.68064472 248.80957676 -7.6484375 247.8203125 C-9.47860302 247.62186082 -11.31273664 247.45848353 -13.1484375 247.3203125 C-16.25437592 247.08653219 -18.68064472 246.80957676 -21.6484375 245.8203125 C-24.77329766 245.51544809 -27.89871861 245.31190034 -31.03125 245.1015625 C-33.6484375 244.8203125 -33.6484375 244.8203125 -34.6484375 243.8203125 C-36.79048061 243.61047971 -38.93767863 243.45207865 -41.0859375 243.3203125 C-47.42816216 242.93045017 -47.42816216 242.93045017 -49.6484375 241.8203125 C-53.02172502 241.50447804 -56.39578115 241.30897488 -59.77734375 241.1015625 C-62.6484375 240.8203125 -62.6484375 240.8203125 -63.6484375 239.8203125 C-71.91460425 238.88703561 -76.71716244 241.52103448 -83.6484375 245.8203125 C-90.20601326 249.8203125 -90.20601326 249.8203125 -94.6484375 249.8203125 C-96.00463867 248.41503906 -96.00463867 248.41503906 -97.19140625 246.4609375 C-97.62517578 245.75710938 -98.05894531 245.05328125 -98.50585938 244.328125 C-98.94478516 243.58304688 -99.38371094 242.83796875 -99.8359375 242.0703125 C-100.51172852 240.97589844 -100.51172852 240.97589844 -101.20117188 239.859375 C-103.22601847 236.52004777 -104.8457085 233.67384012 -105.6484375 229.8203125 C-106.3084375 229.8203125 -106.9684375 229.8203125 -107.6484375 229.8203125 C-108.3084375 227.8403125 -108.9684375 225.8603125 -109.6484375 223.8203125 C-110.3084375 223.8203125 -110.9684375 223.8203125 -111.6484375 223.8203125 C-111.97714844 223.17707031 -112.30585938 222.53382813 -112.64453125 221.87109375 C-115.84830606 215.78478984 -119.43052827 210.11808249 -123.40234375 204.5144043 C-125.94644289 200.90223324 -128.13390044 197.25485812 -130.1875 193.3515625 C-132.66174853 189.06462922 -135.51487195 185.01650412 -138.34741211 180.95947266 C-141.6484375 176.14263841 -141.6484375 176.14263841 -141.6484375 172.8203125 C-142.3084375 172.8203125 -142.9684375 172.8203125 -143.6484375 172.8203125 C-145.6484375 169.8203125 -145.6484375 169.8203125 -145.6484375 166.8203125 C-146.3084375 166.8203125 -146.9684375 166.8203125 -147.6484375 166.8203125 C-148.17630859 165.80324219 -148.17630859 165.80324219 -148.71484375 164.765625 C-151.81603996 158.91950578 -155.17658359 153.49010021 -159.03515625 148.1171875 C-164.6484375 140.12539725 -164.6484375 140.12539725 -164.6484375 136.8203125 C-165.3084375 136.8203125 -165.9684375 136.8203125 -166.6484375 136.8203125 C-167.13763672 135.93279297 -167.13763672 135.93279297 -167.63671875 135.02734375 C-169.5271497 131.60895386 -171.40930546 128.20787133 -173.4609375 124.8828125 C-174.6484375 122.8203125 -174.6484375 122.8203125 -174.6484375 120.8203125 C-175.3084375 120.8203125 -175.9684375 120.8203125 -176.6484375 120.8203125 C-177.9375 119.17578125 -177.9375 119.17578125 -179.2734375 117.0078125 C-179.71945312 116.30011719 -180.16546875 115.59242188 -180.625 114.86328125 C-181.6484375 112.8203125 -181.6484375 112.8203125 -181.6484375 109.8203125 C-182.3084375 109.8203125 -182.9684375 109.8203125 -183.6484375 109.8203125 C-184.6384375 106.8503125 -184.6384375 106.8503125 -185.6484375 103.8203125 C-186.3084375 103.8203125 -186.9684375 103.8203125 -187.6484375 103.8203125 C-188.01195312 103.13066406 -188.37546875 102.44101562 -188.75 101.73046875 C-191.66250858 96.28631809 -194.7142751 91.06195311 -198.19140625 85.9609375 C-199.66995737 83.78869618 -201.1093574 81.59754077 -202.5234375 79.3828125 C-202.93335938 78.74472656 -203.34328125 78.10664062 -203.765625 77.44921875 C-204.6484375 75.8203125 -204.6484375 75.8203125 -204.6484375 73.8203125 C-205.3084375 73.8203125 -205.9684375 73.8203125 -206.6484375 73.8203125 C-210.6484375 67.1953125 -210.6484375 67.1953125 -210.6484375 63.8203125 C-211.3084375 63.8203125 -211.9684375 63.8203125 -212.6484375 63.8203125 C-212.9784375 61.5103125 -213.3084375 59.2003125 -213.6484375 56.8203125 C-206.61367574 53.81551476 -199.43322059 51.36180881 -192.15869141 49.01513672 C-188.68288118 47.88279061 -185.28701933 46.70778796 -181.94140625 45.23046875 C-179.00339784 43.97231805 -176.24275067 43.08478987 -173.1484375 42.3203125 C-168.76551656 41.17538621 -164.80486085 39.63402451 -160.6484375 37.8203125 C-158.23959854 37.04694841 -155.8156232 36.3404751 -153.38671875 35.6328125 C-144.10549571 32.87889753 -135.10808324 29.54178487 -126.19140625 25.78515625 C-120.99387789 23.63247915 -115.85392535 21.96459709 -110.38671875 20.62890625 C-107.65606692 19.82256541 -105.13972499 18.73749205 -102.53833008 17.58959961 C-99.222433 16.23985259 -95.78165746 15.33876713 -92.3359375 14.3828125 C-85.92735371 12.55109865 -79.77596072 10.45855167 -73.6484375 7.8203125 C-67.44584813 5.19614007 -61.33961652 3.07518072 -54.80078125 1.43359375 C-52.68550986 1.01947537 -52.68550986 1.01947537 -51.6484375 -0.1796875 C-48.1484375 -0.6796875 -48.1484375 -0.6796875 -44.6484375 -1.1796875 C-44.3184375 -1.5096875 -43.9884375 -1.8396875 -43.6484375 -2.1796875 C-29.67210793 -3.93485447 -13.38609514 -5.01370109 0 0 Z " fill="#003060" transform="translate(454.6484375,680.1796875)"/>
<path d="M0 0 C1.09619156 -0.00307663 2.19238312 -0.00615326 3.3217926 -0.00932312 C4.54365768 -0.00737442 5.76552277 -0.00542572 7.02441406 -0.00341797 C8.34066269 -0.00505447 9.65691132 -0.00669098 11.01304626 -0.00837708 C15.52206495 -0.01263542 20.03103088 -0.00508566 24.54003906 0.00439453 C25.31912754 0.00595928 26.09821602 0.00752403 26.90091324 0.0091362 C34.75967002 0.02558739 42.61840592 0.04683692 50.47712708 0.07572937 C62.20634688 0.11738714 73.93526929 0.13121466 85.66455078 0.11914062 C98.58964932 0.10587987 111.51446528 0.12015541 124.43950844 0.16107178 C131.68542407 0.18322429 138.93094656 0.1931023 146.17687988 0.17352295 C153.10299317 0.15488839 160.02823999 0.17233339 166.95425606 0.21294594 C169.53900221 0.22227009 172.12382296 0.21953843 174.70853996 0.20412254 C178.27793738 0.18474707 181.84458993 0.20862058 185.41381836 0.24291992 C186.45492138 0.2271031 187.4960244 0.21128628 188.56867599 0.19499016 C195.22023931 0.31854315 198.64183054 1.79603537 203.43998432 6.43399715 C204.79003906 8.12939453 204.79003906 8.12939453 204.79003906 10.12939453 C205.45003906 10.12939453 206.11003906 10.12939453 206.79003906 10.12939453 C206.79003906 10.78939453 206.79003906 11.44939453 206.79003906 12.12939453 C207.45003906 12.12939453 208.11003906 12.12939453 208.79003906 12.12939453 C210.37597656 13.70361328 210.37597656 13.70361328 212.16503906 15.81689453 C212.7825 16.54521484 213.39996094 17.27353516 214.03613281 18.02392578 C214.90431641 19.06613281 214.90431641 19.06613281 215.79003906 20.12939453 C216.99660156 21.55251953 216.99660156 21.55251953 218.22753906 23.00439453 C219.79003906 25.12939453 219.79003906 25.12939453 219.79003906 27.12939453 C220.45003906 27.12939453 221.11003906 27.12939453 221.79003906 27.12939453 C223.3959808 29.01159468 224.88168661 30.89519449 226.35253906 32.87939453 C226.79146484 33.46269531 227.23039062 34.04599609 227.68261719 34.64697266 C228.59860039 35.86521718 229.51213413 37.08530687 230.42333984 38.30712891 C231.72759184 40.04613157 233.04969031 41.76956328 234.37988281 43.48876953 C235.17523437 44.52517578 235.97058594 45.56158203 236.79003906 46.62939453 C237.51191406 47.56783203 238.23378906 48.50626953 238.97753906 49.47314453 C240.68822853 51.98018944 241.7965312 54.27305943 242.79003906 57.12939453 C243.45003906 57.12939453 244.11003906 57.12939453 244.79003906 57.12939453 C246.57230971 59.51366341 248.22704208 61.89171739 249.85253906 64.37939453 C250.31208984 65.06130859 250.77164062 65.74322266 251.24511719 66.44580078 C253.38283973 69.67906689 255.00615678 72.29096489 255.79003906 76.12939453 C256.45003906 76.12939453 257.11003906 76.12939453 257.79003906 76.12939453 C258.45003906 78.10939453 259.11003906 80.08939453 259.79003906 82.12939453 C260.45003906 82.12939453 261.11003906 82.12939453 261.79003906 82.12939453 C262.15355469 82.80744141 262.51707031 83.48548828 262.89160156 84.18408203 C265.36867867 88.76985042 267.87016958 93.31525083 270.60253906 97.75439453 C277.17247845 108.6128061 282.86206537 119.97432346 288.13916016 131.50854492 C289.83524997 135.19953383 291.68559191 138.64918691 293.79003906 142.12939453 C294.55925079 143.79902132 295.28981786 145.48708374 295.97753906 147.19189453 C296.32171875 148.02849609 296.66589844 148.86509766 297.02050781 149.72705078 C297.79003906 152.12939453 297.79003906 152.12939453 297.79003906 156.12939453 C298.45003906 156.12939453 299.11003906 156.12939453 299.79003906 156.12939453 C300.04527344 157.03818359 300.04527344 157.03818359 300.30566406 157.96533203 C301.84740849 163.29583138 303.63820865 168.41660789 305.74707031 173.54736328 C307.22974461 177.21795395 308.57720862 180.93240525 309.90722656 184.66064453 C310.59227355 186.57635114 311.3096934 188.4804958 312.04003906 190.37939453 C312.9469531 193.704746 312.92724672 196.69920301 312.79003906 200.12939453 C313.45003906 200.12939453 314.11003906 200.12939453 314.79003906 200.12939453 C315.01790365 202.18017578 315.24576823 204.23095703 315.47363281 206.28173828 C315.6089052 208.14079682 315.6089052 208.14079682 316.79003906 209.12939453 C317.07332405 210.50391998 317.3035409 211.88950794 317.50878906 213.27783203 C317.63640625 214.11830078 317.76402344 214.95876953 317.89550781 215.82470703 C318.02570313 216.70900391 318.15589844 217.59330078 318.29003906 218.50439453 C318.54808412 220.24172761 318.80840805 221.97872412 319.07128906 223.71533203 C319.18537109 224.48925293 319.29945313 225.26317383 319.41699219 226.06054688 C319.77276949 228.31568719 319.77276949 228.31568719 320.79003906 231.12939453 C321.0258879 233.86349397 321.21349211 236.57772672 321.35253906 239.31689453 C321.41513916 240.52031494 321.41513916 240.52031494 321.47900391 241.74804688 C322.26740473 258.08564263 322.74633797 275.15055622 318.79003906 291.12939453 C318.13003906 291.12939453 317.47003906 291.12939453 316.79003906 291.12939453 C316.83644531 292.00595703 316.88285156 292.88251953 316.93066406 293.78564453 C316.61528533 301.28465001 312.0382562 308.12329444 307.79003906 314.12939453 C307.09574527 315.44855273 306.41473411 316.77588859 305.79003906 318.12939453 C305.13003906 318.12939453 304.47003906 318.12939453 303.79003906 318.12939453 C303.54382813 318.85642578 303.29761719 319.58345703 303.04394531 320.33251953 C300.76014379 325.42660642 296.60437768 329.12433898 292.79003906 333.12939453 C291.64535156 334.33595703 291.64535156 334.33595703 290.47753906 335.56689453 C285.97103152 340.19858284 281.33296468 344.7398357 275.79003906 348.12939453 C275.13003906 348.12939453 274.47003906 348.12939453 273.79003906 348.12939453 C273.79003906 348.78939453 273.79003906 349.44939453 273.79003906 350.12939453 C270.79003906 352.12939453 270.79003906 352.12939453 267.79003906 352.12939453 C267.79003906 352.78939453 267.79003906 353.44939453 267.79003906 354.12939453 C257.02168311 362.57069051 243.36664963 368.37346093 230.61035156 373.04345703 C228.17679401 373.98047781 225.95640299 375.02058319 223.66503906 376.25439453 C219.75740265 378.30714024 215.72676147 379.32874508 211.46191406 380.40673828 C209.0675624 381.05433339 206.83906779 381.83210975 204.54003906 382.75439453 C200.90283987 384.08803424 197.61883018 384.66056297 193.79003906 385.12939453 C193.46003906 385.45939453 193.13003906 385.78939453 192.79003906 386.12939453 C190.45670573 386.46272786 188.1233724 386.7960612 185.79003906 387.12939453 C185.46003906 387.45939453 185.13003906 387.78939453 184.79003906 388.12939453 C182.47186818 388.45037204 180.15224549 388.64160409 177.82128906 388.84814453 C175.79823313 388.92005291 175.79823313 388.92005291 174.79003906 390.12939453 C173.31607167 390.33707683 171.83512646 390.4965547 170.35253906 390.62939453 C166.94506402 390.92086397 166.94506402 390.92086397 163.79003906 392.12939453 C162.12692262 392.31129789 160.45903595 392.45072855 158.79003906 392.56689453 C155.2108831 392.86208265 151.79214151 393.27768835 148.29003906 394.06689453 C132.60605334 397.34606838 116.61325216 397.47523032 100.65869141 397.44506836 C97.19043211 397.4419176 93.723037 397.46543454 90.25488281 397.49072266 C75.79128528 397.53068354 61.73718463 396.51440005 47.41667175 394.4967041 C43.56698818 393.95836251 39.71000071 393.48301207 35.85253906 393.00439453 C30.04800568 392.25837784 30.04800568 392.25837784 27.79003906 391.12939453 C26.46094917 390.94893621 25.12621864 390.80881024 23.79003906 390.69189453 C9.93560868 389.27496415 9.93560868 389.27496415 7.79003906 387.12939453 C6.63503906 386.96439453 5.48003906 386.79939453 4.29003906 386.62939453 C0.79003906 386.12939453 0.79003906 386.12939453 -0.20996094 385.12939453 C-1.22058594 385.00564453 -2.23121094 384.88189453 -3.27246094 384.75439453 C-6.89567036 384.17928192 -9.71105566 383.27795938 -13.07714844 381.93408203 C-15.24658463 381.1155768 -17.41206911 380.49318009 -19.64746094 379.87939453 C-31.26271236 376.45369826 -42.3330734 371.26657112 -53.06152344 365.70751953 C-56.39902177 364.03462955 -59.76658431 362.56919433 -63.20996094 361.12939453 C-63.20996094 360.46939453 -63.20996094 359.80939453 -63.20996094 359.12939453 C-64.06605957 358.96395142 -64.06605957 358.96395142 -64.93945312 358.79516602 C-69.24042694 357.5340095 -72.77073133 354.67347789 -76.45996094 352.19189453 C-77.30042969 351.64082031 -78.14089844 351.08974609 -79.00683594 350.52197266 C-79.80089844 349.99152344 -80.59496094 349.46107422 -81.41308594 348.91455078 C-82.5060498 348.18570679 -82.5060498 348.18570679 -83.62109375 347.44213867 C-84.14541992 347.00893311 -84.66974609 346.57572754 -85.20996094 346.12939453 C-85.20996094 345.46939453 -85.20996094 344.80939453 -85.20996094 344.12939453 C-86.85996094 343.46939453 -88.50996094 342.80939453 -90.20996094 342.12939453 C-90.20996094 341.46939453 -90.20996094 340.80939453 -90.20996094 340.12939453 C-90.86996094 340.12939453 -91.52996094 340.12939453 -92.20996094 340.12939453 C-92.20996094 339.46939453 -92.20996094 338.80939453 -92.20996094 338.12939453 C-93.19996094 337.79939453 -94.18996094 337.46939453 -95.20996094 337.12939453 C-95.20996094 336.46939453 -95.20996094 335.80939453 -95.20996094 335.12939453 C-95.86996094 335.12939453 -96.52996094 335.12939453 -97.20996094 335.12939453 C-97.20996094 334.46939453 -97.20996094 333.80939453 -97.20996094 333.12939453 C-98.52996094 332.46939453 -99.84996094 331.80939453 -101.20996094 331.12939453 C-101.20996094 330.46939453 -101.20996094 329.80939453 -101.20996094 329.12939453 C-101.86996094 329.12939453 -102.52996094 329.12939453 -103.20996094 329.12939453 C-103.20996094 328.46939453 -103.20996094 327.80939453 -103.20996094 327.12939453 C-103.86996094 327.12939453 -104.52996094 327.12939453 -105.20996094 327.12939453 C-106.79589844 325.15283203 -106.79589844 325.15283203 -108.58496094 322.50439453 C-109.20242188 321.59302734 -109.81988281 320.68166016 -110.45605469 319.74267578 C-111.03484375 318.88029297 -111.61363281 318.01791016 -112.20996094 317.12939453 C-112.87705078 316.19160156 -112.87705078 316.19160156 -113.55761719 315.23486328 C-115.4178058 312.60126292 -116.20996094 311.44040975 -116.20996094 308.12939453 C-116.86996094 308.12939453 -117.52996094 308.12939453 -118.20996094 308.12939453 C-118.20996094 306.80939453 -118.20996094 305.48939453 -118.20996094 304.12939453 C-118.86996094 304.12939453 -119.52996094 304.12939453 -120.20996094 304.12939453 C-121.79512978 299.7965997 -122.58386415 295.69095687 -123.20996094 291.12939453 C-123.53996094 290.79939453 -123.86996094 290.46939453 -124.20996094 290.12939453 C-124.28240147 288.10975254 -124.29373282 286.0877233 -124.27246094 284.06689453 C-124.2634375 282.96216797 -124.25441406 281.85744141 -124.24511719 280.71923828 C-124.22771484 279.43726563 -124.22771484 279.43726563 -124.20996094 278.12939453 C-122.99759766 277.85675781 -122.99759766 277.85675781 -121.76074219 277.57861328 C-120.69210937 277.32724609 -119.62347656 277.07587891 -118.52246094 276.81689453 C-117.46671875 276.57326172 -116.41097656 276.32962891 -115.32324219 276.07861328 C-112.23084375 275.13576156 -109.93539491 273.8333874 -107.20996094 272.12939453 C-106.54996094 272.12939453 -105.88996094 272.12939453 -105.20996094 272.12939453 C-105.20996094 271.46939453 -105.20996094 270.80939453 -105.20996094 270.12939453 C-103.60058594 268.54345703 -103.60058594 268.54345703 -101.45996094 266.75439453 C-99.14092392 264.79181726 -96.95776809 262.87056503 -94.83496094 260.69189453 C-93.20996094 259.12939453 -93.20996094 259.12939453 -91.20996094 259.12939453 C-91.20996094 258.46939453 -91.20996094 257.80939453 -91.20996094 257.12939453 C-90.08470938 256.10290176 -88.90713449 255.13351758 -87.70996094 254.19189453 C-78.89872954 246.66400412 -73.05647855 237.74805304 -71.77246094 226.19189453 C-72.15486621 217.82885743 -76.67498431 210.18624039 -82.20996094 204.12939453 C-82.86996094 203.79939453 -83.52996094 203.46939453 -84.20996094 203.12939453 C-84.20996094 200.81939453 -84.20996094 198.50939453 -84.20996094 196.12939453 C-83.54996094 196.12939453 -82.88996094 196.12939453 -82.20996094 196.12939453 C-82.09265625 195.58798828 -81.97535156 195.04658203 -81.85449219 194.48876953 C-79.89486516 187.31534695 -76.46204427 180.47553151 -73.05761719 173.88720703 C-71.84910311 171.38107186 -71.00819175 168.79016392 -70.20996094 166.12939453 C-67.06724941 165.57846187 -63.94300586 165.09875537 -60.77246094 164.73486328 C-51.10518442 163.6006543 -45.81055265 161.44356372 -39.20996094 154.12939453 C-37.51113646 151.63179472 -37.51113646 151.63179472 -36.20996094 149.12939453 C-35.87609375 148.57509766 -35.54222656 148.02080078 -35.19824219 147.44970703 C-30.93619866 137.44317005 -31.96475313 123.82683346 -31.83496094 113.19189453 C-31.79604736 111.50567993 -31.79604736 111.50567993 -31.75634766 109.78540039 C-31.73247778 99.0033787 -34.17817765 90.60951438 -41.52636719 82.59033203 C-43.25558115 80.90145293 -43.25558115 80.90145293 -46.20996094 80.12939453 C-46.20996094 79.46939453 -46.20996094 78.80939453 -46.20996094 78.12939453 C-51.15257911 76.97611696 -56.16657432 76.58966477 -61.20996094 76.12939453 C-61.70898482 70.76488779 -60.54580194 69.19041836 -57.20996094 65.12939453 C-56.28339309 63.73869114 -55.37591965 62.3351583 -54.48339844 60.92236328 C-54.00902344 60.17148437 -53.53464844 59.42060547 -53.04589844 58.64697266 C-52.06094321 57.07604808 -51.07923882 55.50308117 -50.10058594 53.92822266 C-49.62878906 53.18378906 -49.15699219 52.43935547 -48.67089844 51.67236328 C-48.24599121 50.99197998 -47.82108398 50.31159668 -47.38330078 49.6105957 C-46.99609863 49.12179932 -46.60889648 48.63300293 -46.20996094 48.12939453 C-45.54996094 48.12939453 -44.88996094 48.12939453 -44.20996094 48.12939453 C-44.08427734 47.31728516 -44.08427734 47.31728516 -43.95605469 46.48876953 C-42.95145375 43.3119163 -41.23573161 41.0633595 -39.27246094 38.37939453 C-38.5621875 37.39455078 -37.85191406 36.40970703 -37.12011719 35.39501953 C-36.48976563 34.64736328 -35.85941406 33.89970703 -35.20996094 33.12939453 C-34.54996094 33.12939453 -33.88996094 33.12939453 -33.20996094 33.12939453 C-32.92121094 32.36626953 -32.63246094 31.60314453 -32.33496094 30.81689453 C-31.20996094 28.12939453 -31.20996094 28.12939453 -29.20996094 25.12939453 C-28.54996094 25.12939453 -27.88996094 25.12939453 -27.20996094 25.12939453 C-26.95214844 24.56736328 -26.69433594 24.00533203 -26.42871094 23.42626953 C-25.06826317 20.86234874 -23.48207132 18.67713088 -21.70996094 16.37939453 C-21.10152344 15.58017578 -20.49308594 14.78095703 -19.86621094 13.95751953 C-19.31964844 13.35423828 -18.77308594 12.75095703 -18.20996094 12.12939453 C-17.54996094 12.12939453 -16.88996094 12.12939453 -16.20996094 12.12939453 C-16.20996094 11.46939453 -16.20996094 10.80939453 -16.20996094 10.12939453 C-15.54996094 10.12939453 -14.88996094 10.12939453 -14.20996094 10.12939453 C-13.83871094 9.29408203 -13.83871094 9.29408203 -13.45996094 8.44189453 C-10.00565219 2.05142334 -7.19372268 0.0060715 0 0 Z M70.79003906 56.12939453 C68.79314936 56.60109462 66.79333186 57.06067454 64.79003906 57.50439453 C54.15918593 60.17595007 44.48861239 65.1253434 34.79003906 70.12939453 C34.79003906 70.78939453 34.79003906 71.44939453 34.79003906 72.12939453 C34.24863281 72.22349609 33.70722656 72.31759766 33.14941406 72.41455078 C30.09232818 73.34078707 27.73234901 74.85393013 25.04003906 76.56689453 C24.05519531 77.18435547 23.07035156 77.80181641 22.05566406 78.43798828 C21.30800781 78.99615234 20.56035156 79.55431641 19.79003906 80.12939453 C19.79003906 80.78939453 19.79003906 81.44939453 19.79003906 82.12939453 C19.21253906 82.39751953 18.63503906 82.66564453 18.04003906 82.94189453 C15.73453864 84.15868642 13.76947714 85.43273332 11.79003906 87.12939453 C11.79003906 87.78939453 11.79003906 88.44939453 11.79003906 89.12939453 C11.13003906 89.12939453 10.47003906 89.12939453 9.79003906 89.12939453 C9.79003906 89.78939453 9.79003906 90.44939453 9.79003906 91.12939453 C8.47003906 91.78939453 7.15003906 92.44939453 5.79003906 93.12939453 C5.79003906 93.78939453 5.79003906 94.44939453 5.79003906 95.12939453 C5.13003906 95.12939453 4.47003906 95.12939453 3.79003906 95.12939453 C3.79003906 95.78939453 3.79003906 96.44939453 3.79003906 97.12939453 C3.13003906 97.12939453 2.47003906 97.12939453 1.79003906 97.12939453 C-3.30576375 102.43752246 -7.4132484 108.73110833 -11.52246094 114.81689453 C-11.94269531 115.4337915 -12.36292969 116.05068848 -12.79589844 116.6862793 C-15.46140889 120.70115085 -17.39771464 124.6652101 -19.20996094 129.12939453 C-19.86227988 130.40765186 -20.52636357 131.68008772 -21.20996094 132.94189453 C-23.14415513 136.74409377 -24.33987228 140.58947294 -25.49121094 144.68798828 C-26.14731407 146.91659947 -26.91472041 149.03467711 -27.77246094 151.19189453 C-32.51585467 163.69271343 -33.38401046 177.73819064 -33.39746094 191.00439453 C-33.3982666 191.77130615 -33.39907227 192.53821777 -33.39990234 193.32836914 C-33.36759376 196.51650814 -33.22478991 199.08490762 -32.20996094 202.12939453 C-31.90509653 205.25425469 -31.70154878 208.37967564 -31.49121094 211.51220703 C-31.49499109 214.05353314 -31.49499109 214.05353314 -30.20996094 215.12939453 C-29.92739862 216.45620888 -29.6859101 217.79177547 -29.45996094 219.12939453 C-26.91024361 232.13853621 -23.06165936 243.70479916 -16.20996094 255.12939453 C-15.71496094 255.99951172 -15.21996094 256.86962891 -14.70996094 257.76611328 C-6.16745645 272.55300285 5.2222283 286.61500497 18.79003906 297.12939453 C19.45003906 297.12939453 20.11003906 297.12939453 20.79003906 297.12939453 C20.79003906 297.78939453 20.79003906 298.44939453 20.79003906 299.12939453 C22.27108475 300.38726748 22.27108475 300.38726748 24.22753906 301.59033203 C24.9584375 302.06212891 25.68933594 302.53392578 26.44238281 303.02001953 C27.60447266 303.75478516 27.60447266 303.75478516 28.79003906 304.50439453 C29.53382813 304.98650391 30.27761719 305.46861328 31.04394531 305.96533203 C37.41793009 310.04468229 43.97525819 313.50080598 50.97753906 316.37939453 C52.17443359 316.88212891 52.17443359 316.88212891 53.39550781 317.39501953 C55.98045971 318.18779434 58.10201767 318.26307943 60.79003906 318.12939453 C60.79003906 318.78939453 60.79003906 319.44939453 60.79003906 320.12939453 C89.07381 327.81477781 118.74270563 331.08582791 146.71972656 319.89501953 C148.90731454 319.08602473 151.09441798 318.52319303 153.35253906 317.94189453 C164.13933038 314.77223739 175.91467178 307.95660014 184.79003906 301.12939453 C184.79003906 300.46939453 184.79003906 299.80939453 184.79003906 299.12939453 C185.78003906 299.12939453 186.77003906 299.12939453 187.79003906 299.12939453 C187.79003906 298.46939453 187.79003906 297.80939453 187.79003906 297.12939453 C190.26503906 296.13939453 190.26503906 296.13939453 192.79003906 295.12939453 C192.79003906 294.46939453 192.79003906 293.80939453 192.79003906 293.12939453 C193.35207031 292.89220703 193.91410156 292.65501953 194.49316406 292.41064453 C202.78027928 287.78789999 209.1707059 278.60616418 214.79003906 271.12939453 C215.38558594 270.35080078 215.98113281 269.57220703 216.59472656 268.77001953 C221.57119809 262.00201825 225.2582838 254.72616514 228.79003906 247.12939453 C229.22026367 246.21746338 229.22026367 246.21746338 229.65917969 245.28710938 C231.19174004 241.91780954 231.79003906 239.90732072 231.79003906 236.12939453 C232.45003906 236.12939453 233.11003906 236.12939453 233.79003906 236.12939453 C236.40773507 228.43336825 238.86766509 221.09267302 239.54394531 212.94970703 C239.79003906 211.12939453 239.79003906 211.12939453 240.79003906 210.12939453 C240.9289126 207.28660536 241.00334881 204.47007822 241.02832031 201.62548828 C241.03639206 200.75481216 241.04446381 199.88413605 241.05278015 198.98707581 C241.06665603 197.12999475 241.07736239 195.27288782 241.08520508 193.41577148 C241.10215311 190.63032717 241.14596911 187.84615488 241.19042969 185.06103516 C241.28819123 173.74830212 240.14971046 163.95589352 236.79003906 153.12939453 C236.24803691 151.25449148 235.70629193 149.37951402 235.16503906 147.50439453 C234.09070701 144.02895971 232.96756454 140.57139207 231.79003906 137.12939453 C231.13003906 137.12939453 230.47003906 137.12939453 229.79003906 137.12939453 C229.68691406 136.46939453 229.58378906 135.80939453 229.47753906 135.12939453 C228.59790342 131.29098444 227.2203401 127.79842762 225.79003906 124.12939453 C225.13003906 124.12939453 224.47003906 124.12939453 223.79003906 124.12939453 C223.68691406 123.59314453 223.58378906 123.05689453 223.47753906 122.50439453 C222.60911209 119.50437409 221.2338361 116.89144103 219.79003906 114.12939453 C219.13003906 114.12939453 218.47003906 114.12939453 217.79003906 114.12939453 C217.70625 113.58798828 217.62246094 113.04658203 217.53613281 112.48876953 C216.53153187 109.3119163 214.81580974 107.0633595 212.85253906 104.37939453 C211.78712891 102.90212891 211.78712891 102.90212891 210.70019531 101.39501953 C210.06984375 100.64736328 209.43949219 99.89970703 208.79003906 99.12939453 C208.13003906 99.12939453 207.47003906 99.12939453 206.79003906 99.12939453 C206.79003906 98.46939453 206.79003906 97.80939453 206.79003906 97.12939453 C206.13003906 97.12939453 205.47003906 97.12939453 204.79003906 97.12939453 C204.79003906 96.46939453 204.79003906 95.80939453 204.79003906 95.12939453 C204.13003906 95.12939453 203.47003906 95.12939453 202.79003906 95.12939453 C202.54253906 94.51064453 202.29503906 93.89189453 202.04003906 93.25439453 C200.56233144 90.74229157 199.3504873 90.3683211 196.79003906 89.12939453 C196.46003906 88.13939453 196.13003906 87.14939453 195.79003906 86.12939453 C193.76076832 84.39043434 191.74345861 82.780471 189.60253906 81.19189453 C188.7546582 80.54704102 188.7546582 80.54704102 187.88964844 79.88916016 C181.44607117 74.3986012 181.44607117 74.3986012 173.79003906 72.12939453 C173.79003906 71.46939453 173.79003906 70.80939453 173.79003906 70.12939453 C164.96606631 65.63416313 156.27875298 61.30929799 146.68847656 58.70751953 C144.79003906 58.12939453 144.79003906 58.12939453 143.79003906 57.12939453 C142.63503906 56.96439453 141.48003906 56.79939453 140.29003906 56.62939453 C136.79003906 56.12939453 136.79003906 56.12939453 135.79003906 55.12939453 C134.31607167 54.92171224 132.83512646 54.76223436 131.35253906 54.62939453 C127.00921714 54.23898357 127.00921714 54.23898357 124.79003906 53.12939453 C121.79530282 53.00541223 118.82487202 52.94089133 115.82910156 52.92626953 C114.92815765 52.92056946 114.02721375 52.91486938 113.09896851 52.90899658 C111.18399227 52.89953358 109.26899966 52.89300746 107.35400391 52.88916016 C104.46128548 52.8795482 101.56930651 52.84857742 98.67675781 52.81689453 C88.90761073 52.76115846 80.17705829 53.13504948 70.79003906 56.12939453 Z " fill="#003060" transform="translate(606.2099609375,266.87060546875)"/>
<path d="M0 0 C0.8098938 -0.0004985 1.6197876 -0.00099701 2.45422363 -0.00151062 C4.1656337 0.00082867 5.87704728 0.0105487 7.58837891 0.02709961 C10.20897158 0.05069321 12.82854685 0.04765958 15.44921875 0.04101562 C17.11198524 0.04659249 18.77474744 0.05370242 20.4375 0.0625 C21.22193481 0.06158859 22.00636963 0.06067719 22.8145752 0.05973816 C26.63714646 0.10959298 28.46349967 0.19311437 31.71875 2.36328125 C32.07177734 4.79003906 32.07177734 4.79003906 32.0546875 7.81640625 C32.06757813 8.91082031 32.08046875 10.00523437 32.09375 11.1328125 C32.09375 13.43751324 32.08604388 15.74222795 32.0703125 18.046875 C32.01176063 24.98124799 32.01176063 24.98124799 34.9453125 31.03515625 C39.1592652 34.57250246 43.05720251 35.51445074 48.34375 36.67578125 C53.69329987 37.96363585 58.41301178 39.85599909 63.34375 42.27734375 C65.47949778 43.25388632 67.42731744 43.88589947 69.71875 44.36328125 C69.71875 45.02328125 69.71875 45.68328125 69.71875 46.36328125 C70.44578125 46.46898437 71.1728125 46.5746875 71.921875 46.68359375 C74.95409685 47.42047448 76.87058102 48.53164084 79.46875 50.23828125 C83.9737944 53.00700645 88.39795766 55.65995812 93.71875 56.36328125 C97.62579551 55.06093275 99.9235927 53.29819641 102.71875 50.36328125 C103.37875 50.36328125 104.03875 50.36328125 104.71875 50.36328125 C104.71875 49.70328125 104.71875 49.04328125 104.71875 48.36328125 C105.37875 48.36328125 106.03875 48.36328125 106.71875 48.36328125 C106.71875 47.70328125 106.71875 47.04328125 106.71875 46.36328125 C108.0390625 44.85546875 108.0390625 44.85546875 109.84375 43.23828125 C110.42382812 42.69945312 111.00390625 42.160625 111.6015625 41.60546875 C114.65100286 39.8163137 116.22587299 39.72976924 119.71875 40.36328125 C122.32356622 42.19990505 124.42564805 44.41321264 126.59375 46.73828125 C127.48320313 47.64320313 127.48320313 47.64320313 128.390625 48.56640625 C132.71875 53.05409346 132.71875 53.05409346 132.71875 55.36328125 C133.37875 55.36328125 134.03875 55.36328125 134.71875 55.36328125 C134.71875 56.02328125 134.71875 56.68328125 134.71875 57.36328125 C135.37875 57.36328125 136.03875 57.36328125 136.71875 57.36328125 C136.71875 58.02328125 136.71875 58.68328125 136.71875 59.36328125 C137.37875 59.36328125 138.03875 59.36328125 138.71875 59.36328125 C138.71875 60.02328125 138.71875 60.68328125 138.71875 61.36328125 C139.37875 61.36328125 140.03875 61.36328125 140.71875 61.36328125 C140.71875 62.02328125 140.71875 62.68328125 140.71875 63.36328125 C141.70875 63.69328125 142.69875 64.02328125 143.71875 64.36328125 C144.15189094 67.44941042 144.40922161 69.38335112 143.71875 72.36328125 C140.67666806 76.09319989 137.29123178 78.83912066 132.71875 80.36328125 C132.71875 81.02328125 132.71875 81.68328125 132.71875 82.36328125 C132.05875 82.36328125 131.39875 82.36328125 130.71875 82.36328125 C130.409375 83.14703125 130.1 83.93078125 129.78125 84.73828125 C128.71875 87.36328125 128.71875 87.36328125 127.71875 89.36328125 C126.55433735 96.05865401 129.6047455 100.05611954 133.1875 105.59375 C134.71875 108.36328125 134.71875 108.36328125 134.71875 112.36328125 C135.37875 112.36328125 136.03875 112.36328125 136.71875 112.36328125 C136.99589844 113.07355469 137.27304687 113.78382813 137.55859375 114.515625 C137.92082031 115.43472656 138.28304688 116.35382813 138.65625 117.30078125 C139.01589844 118.21730469 139.37554687 119.13382812 139.74609375 120.078125 C140.5183718 122.28746658 140.5183718 122.28746658 141.71875 123.36328125 C141.75955783 125.36286489 141.76129356 127.36373379 141.71875 129.36328125 C142.37875 129.36328125 143.03875 129.36328125 143.71875 129.36328125 C143.98429687 130.44867188 144.24984375 131.5340625 144.5234375 132.65234375 C144.88008082 134.09768772 145.2368588 135.54299847 145.59375 136.98828125 C145.76777344 137.70113281 145.94179688 138.41398438 146.12109375 139.1484375 C146.47074172 140.55997929 146.82970432 141.96924853 147.19824219 143.37597656 C147.66698821 145.16565414 148.10496682 146.96332235 148.5390625 148.76171875 C149.46683187 151.52411976 149.46683187 151.52411976 151.93603516 152.50219727 C154.88485114 153.41467963 157.34079828 153.6628388 160.421875 153.7421875 C161.4840625 153.77634766 162.54625 153.81050781 163.640625 153.84570312 C164.73890625 153.87212891 165.8371875 153.89855469 166.96875 153.92578125 C169.16157541 153.98542407 171.35429854 154.04900372 173.546875 154.1171875 C174.5152832 154.14111572 175.48369141 154.16504395 176.48144531 154.18969727 C178.71875 154.36328125 178.71875 154.36328125 179.71875 155.36328125 C179.83224161 158.22422342 179.88293492 161.06011581 179.88671875 163.921875 C179.89004715 164.78136246 179.89337555 165.64084991 179.89680481 166.52638245 C179.9018777 168.34806786 179.90421302 170.16976261 179.90405273 171.99145508 C179.90623803 174.78547415 179.92438644 177.57909782 179.94335938 180.37304688 C179.9462934 182.13932156 179.94827814 183.90559813 179.94921875 185.671875 C179.95640427 186.51149277 179.96358978 187.35111053 179.97099304 188.21617126 C179.94757181 194.13445944 179.94757181 194.13445944 177.71875 196.36328125 C175.27612305 196.6027832 175.27612305 196.6027832 172.23046875 196.6015625 C170.58208008 196.62573242 170.58208008 196.62573242 168.90039062 196.65039062 C166.58273763 196.66723215 164.26497057 196.67255912 161.94726562 196.66601562 C155.2785635 196.68489272 155.2785635 196.68489272 149.52734375 199.71484375 C146.18181345 204.61391404 144.76471618 209.07563632 143.53125 214.80078125 C141.75284336 222.30019972 138.26111701 228.76499165 134.67919922 235.53027344 C132.98443953 238.76470551 131.41558851 242.06150642 129.82421875 245.34765625 C128.71875 247.36328125 128.71875 247.36328125 127.09765625 249.25 C125.24715097 252.0860435 125.38557062 254.06949318 125.46875 257.42578125 C125.48421875 258.46863281 125.4996875 259.51148438 125.515625 260.5859375 C125.61042377 263.44861409 125.61042377 263.44861409 126.71875 266.36328125 C127.37875 266.36328125 128.03875 266.36328125 128.71875 266.36328125 C128.71875 267.02328125 128.71875 267.68328125 128.71875 268.36328125 C129.37875 268.36328125 130.03875 268.36328125 130.71875 268.36328125 C130.71875 269.02328125 130.71875 269.68328125 130.71875 270.36328125 C131.37875 270.36328125 132.03875 270.36328125 132.71875 270.36328125 C132.71875 271.02328125 132.71875 271.68328125 132.71875 272.36328125 C133.37875 272.36328125 134.03875 272.36328125 134.71875 272.36328125 C134.71875 273.02328125 134.71875 273.68328125 134.71875 274.36328125 C135.37875 274.36328125 136.03875 274.36328125 136.71875 274.36328125 C136.71875 275.02328125 136.71875 275.68328125 136.71875 276.36328125 C137.37875 276.36328125 138.03875 276.36328125 138.71875 276.36328125 C138.71875 277.02328125 138.71875 277.68328125 138.71875 278.36328125 C139.37875 278.36328125 140.03875 278.36328125 140.71875 278.36328125 C140.5025713 282.63940148 140.19164618 284.81715238 137.34765625 288.1015625 C136.33977634 288.97633563 135.31673832 289.8338704 134.28125 290.67578125 C133.18937747 291.61352835 132.09957098 292.55368579 131.01171875 293.49609375 C130.46177246 293.96692383 129.91182617 294.43775391 129.34521484 294.92285156 C125.93461505 297.94334673 122.83494255 301.27960519 119.6796875 304.5625 C117.71875 306.36328125 117.71875 306.36328125 115.71875 306.36328125 C115.71875 307.02328125 115.71875 307.68328125 115.71875 308.36328125 C112.32953235 308.84124784 109.77864237 309.1000357 106.87695312 307.08300781 C104.98718877 305.28455129 103.21827917 303.42336654 101.46875 301.48828125 C100.25712605 300.19741607 99.04365494 298.90828157 97.828125 297.62109375 C97.30186523 297.04504395 96.77560547 296.46899414 96.23339844 295.87548828 C93.59179327 293.23814102 91.87061798 292.38459605 88.15625 291.86328125 C83.23505836 291.93618779 79.89299004 294.35500543 75.91796875 297.05078125 C73.71875 298.36328125 73.71875 298.36328125 70.71875 298.36328125 C70.71875 299.02328125 70.71875 299.68328125 70.71875 300.36328125 C67.34777617 301.86149184 65.51432881 302.36328125 61.71875 302.36328125 C61.71875 303.02328125 61.71875 303.68328125 61.71875 304.36328125 C60.666875 304.63591797 60.666875 304.63591797 59.59375 304.9140625 C55.13555615 306.09524158 50.75524352 307.27537144 46.46875 308.98828125 C42.71875 310.36328125 42.71875 310.36328125 39.09375 310.80078125 C34.97186986 311.48776127 32.87812478 312.63473031 29.71875 315.36328125 C26.36922314 321.39564257 26.18626606 326.99336187 26.03125 333.80078125 C25.99708984 334.81849609 25.96292969 335.83621094 25.92773438 336.88476562 C25.84581373 339.37749391 25.77648351 341.86989527 25.71875 344.36328125 C20.07708009 344.41268624 14.43553587 344.44900318 8.79370117 344.47314453 C6.87408251 344.48320764 4.95447919 344.49685941 3.03491211 344.51416016 C0.27714248 344.53839489 -2.48042464 344.54976117 -5.23828125 344.55859375 C-6.09774857 344.56891632 -6.95721588 344.57923889 -7.84272766 344.58987427 C-8.64333115 344.59002533 -9.44393463 344.59017639 -10.26879883 344.59033203 C-10.9727327 344.59477325 -11.67666656 344.59921448 -12.40193176 344.60379028 C-14.28125 344.36328125 -14.28125 344.36328125 -17.28125 342.36328125 C-17.63427734 339.82885742 -17.63427734 339.82885742 -17.6171875 336.65625 C-17.63007813 335.51220703 -17.64296875 334.36816406 -17.65625 333.18945312 C-17.65625 330.77537798 -17.64851347 328.36128971 -17.6328125 325.94726562 C-17.63406413 319.20875816 -17.63406413 319.20875816 -20.30859375 313.19921875 C-23.9518141 310.94913522 -27.33718202 309.82545758 -31.46875 308.80078125 C-32.98928468 308.39041891 -34.50882795 307.9763649 -36.02734375 307.55859375 C-36.75808105 307.35911133 -37.48881836 307.15962891 -38.24169922 306.95410156 C-42.38791668 305.7530187 -46.32294833 304.06713667 -50.28125 302.36328125 C-51.94645282 301.69296656 -53.61277899 301.02541922 -55.28125 300.36328125 C-55.28125 299.70328125 -55.28125 299.04328125 -55.28125 298.36328125 C-56.00183594 298.27175781 -56.72242188 298.18023437 -57.46484375 298.0859375 C-60.75975497 297.24050258 -62.62723161 295.82895109 -65.34375 293.80078125 C-70.55436509 290.38109476 -74.47120851 289.43175039 -80.671875 289.78515625 C-84.59182774 290.65364877 -85.91005749 292.20169124 -88.28125 295.36328125 C-88.94125 295.36328125 -89.60125 295.36328125 -90.28125 295.36328125 C-90.61125 296.35328125 -90.94125 297.34328125 -91.28125 298.36328125 C-91.94125 298.36328125 -92.60125 298.36328125 -93.28125 298.36328125 C-93.28125 299.02328125 -93.28125 299.68328125 -93.28125 300.36328125 C-93.94125 300.36328125 -94.60125 300.36328125 -95.28125 300.36328125 C-95.28125 301.02328125 -95.28125 301.68328125 -95.28125 302.36328125 C-95.94125 302.36328125 -96.60125 302.36328125 -97.28125 302.36328125 C-97.28125 303.02328125 -97.28125 303.68328125 -97.28125 304.36328125 C-100.56821233 305.16281263 -101.99148192 305.45987061 -105.28125 304.36328125 C-105.28125 303.70328125 -105.28125 303.04328125 -105.28125 302.36328125 C-105.94125 302.36328125 -106.60125 302.36328125 -107.28125 302.36328125 C-107.28125 301.70328125 -107.28125 301.04328125 -107.28125 300.36328125 C-107.94125 300.36328125 -108.60125 300.36328125 -109.28125 300.36328125 C-109.28125 299.70328125 -109.28125 299.04328125 -109.28125 298.36328125 C-109.94125 298.36328125 -110.60125 298.36328125 -111.28125 298.36328125 C-112.7265625 296.89453125 -112.7265625 296.89453125 -114.40625 294.86328125 C-118.5869152 289.93919232 -123.00385119 285.04277622 -128.015625 280.9453125 C-129.28125 279.36328125 -129.28125 279.36328125 -129.8984375 277.08984375 C-128.90726141 272.7111038 -125.72588236 270.58368042 -122.40625 267.73828125 C-121.11487058 266.60289024 -119.82571571 265.46496283 -118.5390625 264.32421875 C-117.9630127 263.82712402 -117.38696289 263.3300293 -116.79345703 262.81787109 C-113.86746947 260.00336772 -112.86871601 257.68557107 -112.59375 253.73828125 C-112.63905417 246.96983884 -115.75286229 241.89963841 -119.0793457 236.20263672 C-119.68975708 235.15487061 -119.68975708 235.15487061 -120.3125 234.0859375 C-120.87807617 233.15406616 -120.87807617 233.15406616 -121.45507812 232.20336914 C-122.28125 230.36328125 -122.28125 230.36328125 -122.28125 226.36328125 C-122.94125 226.36328125 -123.60125 226.36328125 -124.28125 226.36328125 C-124.53519531 225.52925781 -124.78914063 224.69523438 -125.05078125 223.8359375 C-126.84043367 217.98437735 -128.65635347 212.15061249 -130.6328125 206.359375 C-131.25464275 204.4451867 -131.77061329 202.49758372 -132.28125 200.55078125 C-133.26450049 197.41667032 -133.92977743 195.63077266 -136.28125 193.36328125 C-142.56850572 190.58237968 -149.18718767 190.98010515 -155.93359375 190.88476562 C-156.84753906 190.85833984 -157.76148438 190.83191406 -158.703125 190.8046875 C-159.53424805 190.79123291 -160.36537109 190.77777832 -161.22167969 190.76391602 C-162.24116699 190.56560181 -162.24116699 190.56560181 -163.28125 190.36328125 C-165.76714486 186.63443896 -165.52586078 184.69667416 -165.51171875 180.24609375 C-165.51126053 179.55192352 -165.51080231 178.8577533 -165.5103302 178.14254761 C-165.50731177 176.67492971 -165.49943763 175.2073149 -165.48706055 173.73974609 C-165.46887348 171.50346399 -165.46655053 169.26759816 -165.46679688 167.03125 C-165.42581655 155.12992998 -165.42581655 155.12992998 -164.28125 150.36328125 C-163.62125 150.36328125 -162.96125 150.36328125 -162.28125 150.36328125 C-162.28125 149.70328125 -162.28125 149.04328125 -162.28125 148.36328125 C-159.91194652 147.17862951 -158.5578805 147.27593043 -155.921875 147.3359375 C-154.61863281 147.35430664 -154.61863281 147.35430664 -153.2890625 147.37304688 C-151.46606061 147.40790598 -149.64313253 147.44689643 -147.8203125 147.49023438 C-140.83330046 147.59158418 -140.83330046 147.59158418 -134.28125 145.36328125 C-131.28568863 141.63411301 -130.15750118 137.20824963 -128.84375 132.67578125 C-126.96842266 126.42612221 -124.86297979 120.36327896 -122.28125 114.36328125 C-121.62125 114.36328125 -120.96125 114.36328125 -120.28125 114.36328125 C-120.19875 113.70328125 -120.11625 113.04328125 -120.03125 112.36328125 C-118.40542827 105.85999433 -114.59845989 100.05083071 -111.33203125 94.24609375 C-109.33847892 90.67400371 -108.95572575 88.51371549 -109.28125 84.36328125 C-111.81237129 79.17011861 -115.89493941 75.68050929 -120.07421875 71.82421875 C-123.19410235 68.8346497 -125.14681894 66.78456949 -125.28125 62.36328125 C-124.20225995 59.1263111 -123.698189 58.66003733 -121.15625 56.61328125 C-115.92038983 52.19910716 -111.17952855 47.3131775 -106.38623047 42.43066406 C-105.44094482 41.47305176 -105.44094482 41.47305176 -104.4765625 40.49609375 C-103.90953613 39.91746582 -103.34250977 39.33883789 -102.75830078 38.74267578 C-99.75931928 35.94197404 -97.24475573 36.27711808 -93.28125 36.36328125 C-93.28125 37.02328125 -93.28125 37.68328125 -93.28125 38.36328125 C-92.62125 38.36328125 -91.96125 38.36328125 -91.28125 38.36328125 C-91.28125 39.02328125 -91.28125 39.68328125 -91.28125 40.36328125 C-90.62125 40.36328125 -89.96125 40.36328125 -89.28125 40.36328125 C-89.28125 41.02328125 -89.28125 41.68328125 -89.28125 42.36328125 C-88.62125 42.36328125 -87.96125 42.36328125 -87.28125 42.36328125 C-87.28125 43.02328125 -87.28125 43.68328125 -87.28125 44.36328125 C-86.62125 44.36328125 -85.96125 44.36328125 -85.28125 44.36328125 C-85.28125 45.02328125 -85.28125 45.68328125 -85.28125 46.36328125 C-84.62125 46.36328125 -83.96125 46.36328125 -83.28125 46.36328125 C-83.28125 47.02328125 -83.28125 47.68328125 -83.28125 48.36328125 C-82.62125 48.36328125 -81.96125 48.36328125 -81.28125 48.36328125 C-81.28125 49.02328125 -81.28125 49.68328125 -81.28125 50.36328125 C-77.11773793 52.38195377 -73.88881604 52.83184729 -69.28125 52.36328125 C-67.1186541 51.44726457 -65.11264976 50.41016751 -63.078125 49.23828125 C-61.28125 48.36328125 -61.28125 48.36328125 -58.28125 48.36328125 C-58.28125 47.70328125 -58.28125 47.04328125 -58.28125 46.36328125 C-57.49621094 46.03714844 -56.71117187 45.71101563 -55.90234375 45.375 C-54.85175781 44.93800781 -53.80117188 44.50101562 -52.71875 44.05078125 C-51.68621094 43.62152344 -50.65367187 43.19226563 -49.58984375 42.75 C-47.39469448 41.82995515 -45.2130655 40.87692188 -43.046875 39.890625 C-38.37217632 37.88293088 -33.48806064 36.59572769 -28.59375 35.23828125 C-27.65724609 34.97402344 -26.72074219 34.70976562 -25.75585938 34.4375 C-18.45827886 32.38521826 -18.45827886 32.38521826 -16.11010742 32.09423828 C-14.04678331 31.49326299 -14.04678331 31.49326299 -13.05053711 29.13916016 C-12.2614244 26.291743 -12.01224972 23.89880272 -11.97265625 20.94921875 C-11.94751953 19.94117188 -11.92238281 18.933125 -11.89648438 17.89453125 C-11.86119866 15.78261565 -11.82997807 13.6706284 -11.80273438 11.55859375 C-11.77630859 10.553125 -11.74988281 9.54765625 -11.72265625 8.51171875 C-11.70920166 7.59567871 -11.69574707 6.67963867 -11.68188477 5.73583984 C-11.28125 3.36328125 -11.28125 3.36328125 -10.27124023 1.56420898 C-7.05614237 -0.37605189 -3.64518089 -0.04279667 0 0 Z M-9.28125 69.36328125 C-10.65333615 69.51700045 -12.02926112 69.63752597 -13.40625 69.73828125 C-17.19935335 70.13565398 -20.46512613 70.96459089 -24.01171875 72.43359375 C-25.7023123 73.12612605 -27.41829506 73.75729141 -29.14453125 74.35546875 C-35.69221188 76.6739393 -41.64090296 79.50642452 -47.59375 83.05078125 C-48.25834229 83.44346191 -48.92293457 83.83614258 -49.60766602 84.24072266 C-51.20477758 85.22028442 -52.7492449 86.2847327 -54.28125 87.36328125 C-54.28125 88.02328125 -54.28125 88.68328125 -54.28125 89.36328125 C-55.27125 89.36328125 -56.26125 89.36328125 -57.28125 89.36328125 C-57.28125 90.02328125 -57.28125 90.68328125 -57.28125 91.36328125 C-57.87744141 91.63495117 -58.47363281 91.90662109 -59.08789062 92.18652344 C-61.23902365 93.34062642 -62.65433814 94.47853523 -64.375 96.19140625 C-64.93058594 96.74441406 -65.48617187 97.29742187 -66.05859375 97.8671875 C-66.62707031 98.44339844 -67.19554687 99.01960938 -67.78125 99.61328125 C-68.34972656 100.17402344 -68.91820312 100.73476563 -69.50390625 101.3125 C-75.57738265 106.9980481 -75.57738265 106.9980481 -78.28125 114.36328125 C-78.94125 114.36328125 -79.60125 114.36328125 -80.28125 114.36328125 C-81.38800619 116.54950375 -82.49169378 118.73719073 -83.59375 120.92578125 C-83.90248047 121.53486328 -84.21121094 122.14394531 -84.52929688 122.77148438 C-88.76580455 130.69290093 -88.76580455 130.69290093 -90.28125 139.36328125 C-90.94125 139.36328125 -91.60125 139.36328125 -92.28125 139.36328125 C-92.7353533 141.45914263 -93.18826672 143.5552659 -93.63671875 145.65234375 C-94.28125 148.36328125 -94.28125 148.36328125 -95.08203125 150.82421875 C-99.39829973 164.77538039 -100.06594611 186.04010783 -93.28125 199.36328125 C-92.89834538 201.35438526 -92.55520385 203.35428638 -92.28125 205.36328125 C-91.62125 205.36328125 -90.96125 205.36328125 -90.28125 205.36328125 C-90.38373047 206.38615234 -90.38373047 206.38615234 -90.48828125 207.4296875 C-90.22133976 211.21219809 -88.72430688 214.01926748 -86.96875 217.30078125 C-86.5056543 218.19313477 -86.5056543 218.19313477 -86.03320312 219.10351562 C-85.12151912 220.85970692 -84.20145592 222.61154021 -83.28125 224.36328125 C-82.27671744 226.36100854 -81.27512914 228.36023251 -80.28125 230.36328125 C-79.62125 230.36328125 -78.96125 230.36328125 -78.28125 230.36328125 C-78.0646875 231.29140625 -78.0646875 231.29140625 -77.84375 232.23828125 C-77.34972775 234.39586447 -77.34972775 234.39586447 -76.28125 236.36328125 C-75.62125 236.36328125 -74.96125 236.36328125 -74.28125 236.36328125 C-74.04277344 236.915 -73.80429687 237.46671875 -73.55859375 238.03515625 C-68.69171768 246.90567043 -59.81597826 254.19206569 -51.28125 259.36328125 C-50.62125 259.36328125 -49.96125 259.36328125 -49.28125 259.36328125 C-49.28125 260.02328125 -49.28125 260.68328125 -49.28125 261.36328125 C-48.06888672 261.96076172 -48.06888672 261.96076172 -46.83203125 262.5703125 C-45.76339844 263.10011719 -44.69476563 263.62992188 -43.59375 264.17578125 C-42.01013672 264.95888672 -42.01013672 264.95888672 -40.39453125 265.7578125 C-37.28125 267.36328125 -37.28125 267.36328125 -34.77734375 268.9609375 C-31.89532482 270.58009993 -29.25115634 271.2665781 -26.03125 271.98828125 C-20.37273265 273.2717986 -20.37273265 273.2717986 -19.28125 274.36328125 C-17.95343122 274.5693221 -16.61829105 274.72957715 -15.28125 274.86328125 C-11.39236111 275.25217014 -11.39236111 275.25217014 -10.28125 276.36328125 C-7.80185326 276.50197137 -5.35252592 276.57652477 -2.87109375 276.6015625 C-1.73154991 276.61367012 -1.73154991 276.61367012 -0.56898499 276.62602234 C1.05270085 276.63989918 2.67441633 276.65060511 4.29614258 276.65844727 C5.92611475 276.66981656 7.55605437 276.69002022 9.18579102 276.7199707 C28.7453267 277.07932171 44.21107135 272.23870129 61.30859375 262.6953125 C63.42178595 261.52740563 65.55059931 260.42471929 67.71875 259.36328125 C67.71875 258.70328125 67.71875 258.04328125 67.71875 257.36328125 C68.41355469 257.14671875 69.10835937 256.93015625 69.82421875 256.70703125 C73.52561172 254.98870577 76.07994496 252.63887068 79.03125 249.86328125 C79.58103516 249.36441406 80.13082031 248.86554688 80.69726562 248.3515625 C82.08201881 247.06830054 83.40594343 245.72005742 84.71875 244.36328125 C84.71875 243.70328125 84.71875 243.04328125 84.71875 242.36328125 C85.37875 242.36328125 86.03875 242.36328125 86.71875 242.36328125 C86.71875 241.70328125 86.71875 241.04328125 86.71875 240.36328125 C87.37875 240.36328125 88.03875 240.36328125 88.71875 240.36328125 C91.68110695 236.73004436 91.68110695 236.73004436 92.71875 232.36328125 C93.37875 232.36328125 94.03875 232.36328125 94.71875 232.36328125 C95.17765625 231.44546875 95.6365625 230.52765625 96.109375 229.58203125 C105.71875 210.36328125 105.71875 210.36328125 106.69287109 208.59594727 C111.68720439 197.72655698 112.31990157 186.01451128 112.13037109 174.26977539 C112.09338979 171.90272547 112.0893569 169.53723375 112.08984375 167.16992188 C112.04007733 156.48195321 110.81657887 147.34132797 106.71875 137.36328125 C106.31914062 136.33332031 105.91953125 135.30335938 105.5078125 134.2421875 C99.97727124 120.53805626 92.03469687 108.01074248 81.71875 97.36328125 C81.05875 97.36328125 80.39875 97.36328125 79.71875 97.36328125 C79.71875 96.70328125 79.71875 96.04328125 79.71875 95.36328125 C78.00377228 93.77501903 78.00377228 93.77501903 75.84375 92.23828125 C75.12445313 91.69945312 74.40515625 91.160625 73.6640625 90.60546875 C71.82248994 89.18388493 71.82248994 89.18388493 69.71875 89.36328125 C69.71875 88.70328125 69.71875 88.04328125 69.71875 87.36328125 C57.7928543 78.0902401 41.73539431 70.88275728 26.63671875 69.609375 C24.71875 69.36328125 24.71875 69.36328125 22.71875 68.36328125 C20.49128661 68.26555314 18.2608553 68.23250731 16.03125 68.23046875 C15.37294189 68.22951202 14.71463379 68.2285553 14.03637695 68.22756958 C12.64436752 68.226889 11.2523549 68.22873479 9.86035156 68.23291016 C7.72714117 68.23826021 5.59414133 68.23296113 3.4609375 68.2265625 C2.10937453 68.2272233 0.7578117 68.22850451 -0.59375 68.23046875 C-1.82738281 68.23159668 -3.06101562 68.23272461 -4.33203125 68.23388672 C-7.21350331 68.15958322 -7.21350331 68.15958322 -9.28125 69.36328125 Z " fill="#003060" transform="translate(370.28125,211.63671875)"/>
<path d="M0 0 C2.53430192 1.2698413 3.23168486 2.73706402 4.52734375 5.234375 C4.94371094 6.01425781 5.36007813 6.79414062 5.7890625 7.59765625 C6.7452799 9.71270961 7.36800389 11.65600665 7.83984375 13.921875 C8.49984375 13.921875 9.15984375 13.921875 9.83984375 13.921875 C10.08476562 14.39753906 10.3296875 14.87320313 10.58203125 15.36328125 C13.83535676 21.45485281 17.58744315 27.12323166 21.53662109 32.77954102 C24.83984375 37.59949861 24.83984375 37.59949861 24.83984375 40.921875 C25.49984375 40.921875 26.15984375 40.921875 26.83984375 40.921875 C28.21484375 43.01953125 28.21484375 43.01953125 29.83984375 45.984375 C33.14542933 51.85475954 36.77938305 57.4108039 40.63867188 62.93188477 C43.83984375 67.60150118 43.83984375 67.60150118 43.83984375 70.921875 C44.49984375 70.921875 45.15984375 70.921875 45.83984375 70.921875 C46.49984375 72.901875 47.15984375 74.881875 47.83984375 76.921875 C48.49984375 76.921875 49.15984375 76.921875 49.83984375 76.921875 C50.11957031 77.44394531 50.39929688 77.96601562 50.6875 78.50390625 C54.13261786 84.82918695 57.94796221 90.86452974 61.83984375 96.921875 C63.64051267 99.72873922 65.43037908 102.54218529 67.21484375 105.359375 C67.65594482 106.04588135 68.0970459 106.7323877 68.55151367 107.43969727 C69.16990112 108.41894165 69.16990112 108.41894165 69.80078125 109.41796875 C70.16993652 109.99732178 70.5390918 110.5766748 70.91943359 111.17358398 C71.9157651 113.06608528 72.40324626 114.83473298 72.83984375 116.921875 C73.49984375 116.921875 74.15984375 116.921875 74.83984375 116.921875 C76.2421875 118.96875 76.2421875 118.96875 77.77734375 121.671875 C79.26191556 124.26892644 80.67551417 126.71390131 82.53125 129.0625 C83.83984375 130.921875 83.83984375 130.921875 83.83984375 133.921875 C84.49984375 133.921875 85.15984375 133.921875 85.83984375 133.921875 C86.22462891 134.65277344 86.22462891 134.65277344 86.6171875 135.3984375 C91.18556657 143.85839873 96.45325957 151.89209612 101.8203125 159.86328125 C104.16590552 163.41569775 106.39153788 167.02712683 108.58984375 170.671875 C109.00105469 171.34347656 109.41226563 172.01507812 109.8359375 172.70703125 C112.83984375 177.68692899 112.83984375 177.68692899 112.83984375 179.921875 C113.49984375 179.921875 114.15984375 179.921875 114.83984375 179.921875 C116.12890625 181.56640625 116.12890625 181.56640625 117.46484375 183.734375 C117.91085937 184.44207031 118.356875 185.14976562 118.81640625 185.87890625 C119.83984375 187.921875 119.83984375 187.921875 119.83984375 190.921875 C120.49984375 190.921875 121.15984375 190.921875 121.83984375 190.921875 C122.49984375 192.901875 123.15984375 194.881875 123.83984375 196.921875 C124.49984375 196.921875 125.15984375 196.921875 125.83984375 196.921875 C126.20335937 197.61152344 126.566875 198.30117188 126.94140625 199.01171875 C129.85391483 204.45586941 132.90568135 209.68023439 136.3828125 214.78125 C137.86136362 216.95349132 139.30076365 219.14464673 140.71484375 221.359375 C141.12476563 221.99746094 141.5346875 222.63554688 141.95703125 223.29296875 C142.83984375 224.921875 142.83984375 224.921875 142.83984375 226.921875 C143.49984375 226.921875 144.15984375 226.921875 144.83984375 226.921875 C148.83984375 233.546875 148.83984375 233.546875 148.83984375 236.921875 C149.49984375 236.921875 150.15984375 236.921875 150.83984375 236.921875 C151.99870154 238.68704241 153.0661325 240.51254457 154.08984375 242.359375 C156.28858529 246.24488499 158.51692573 250.04220804 161.02734375 253.734375 C167.83984375 263.77961629 167.83984375 263.77961629 167.83984375 266.921875 C168.49984375 266.921875 169.15984375 266.921875 169.83984375 266.921875 C170.24203125 268.3759375 170.24203125 268.3759375 170.65234375 269.859375 C171.04421875 270.87 171.43609375 271.880625 171.83984375 272.921875 C172.82984375 273.251875 173.81984375 273.581875 174.83984375 273.921875 C173.47509706 278.5975456 171.51083025 280.22999877 167.40234375 282.734375 C166.43425781 283.33894531 165.46617187 283.94351562 164.46875 284.56640625 C161.83984375 285.921875 161.83984375 285.921875 158.83984375 285.921875 C158.83984375 286.581875 158.83984375 287.241875 158.83984375 287.921875 C158.25976562 288.23640625 157.6796875 288.5509375 157.08203125 288.875 C153.42987214 290.87585285 149.82862374 292.86233501 146.40234375 295.234375 C143.83984375 296.921875 143.83984375 296.921875 141.83984375 296.921875 C141.83984375 297.581875 141.83984375 298.241875 141.83984375 298.921875 C140.42656246 299.74024942 139.00906029 300.55133719 137.58984375 301.359375 C136.8009375 301.81183594 136.01203125 302.26429688 135.19921875 302.73046875 C133.05150907 303.81499102 131.18779314 304.45336216 128.83984375 304.921875 C128.83984375 305.581875 128.83984375 306.241875 128.83984375 306.921875 C128.12634766 307.28925781 128.12634766 307.28925781 127.3984375 307.6640625 C121.30686594 310.91738801 115.63848709 314.6694744 109.98217773 318.61865234 C105.16222014 321.921875 105.16222014 321.921875 101.83984375 321.921875 C101.83984375 322.581875 101.83984375 323.241875 101.83984375 323.921875 C101.29457031 324.21320313 100.74929688 324.50453125 100.1875 324.8046875 C95.1501706 327.5429281 90.38466741 330.49631064 85.6875 333.78515625 C83.83984375 334.921875 83.83984375 334.921875 81.83984375 334.921875 C81.83984375 335.581875 81.83984375 336.241875 81.83984375 336.921875 C79.15234375 337.421875 79.15234375 337.421875 75.83984375 336.921875 C72.87162353 333.63152235 70.83984375 330.3897423 70.83984375 325.921875 C70.17984375 325.921875 69.51984375 325.921875 68.83984375 325.921875 C68.17984375 323.941875 67.51984375 321.961875 66.83984375 319.921875 C66.17984375 319.921875 65.51984375 319.921875 64.83984375 319.921875 C64.44152344 319.16261719 64.04320312 318.40335938 63.6328125 317.62109375 C63.10300781 316.62722656 62.57320312 315.63335938 62.02734375 314.609375 C61.50527344 313.62324219 60.98320312 312.63710938 60.4453125 311.62109375 C59.04080659 309.25974683 57.77470609 307.80486435 55.83984375 305.921875 C54.96074691 304.49066247 54.12921045 303.02946758 53.33984375 301.546875 C51.95579999 298.97531333 50.56198458 296.47155152 49.02734375 293.984375 C47.83984375 291.921875 47.83984375 291.921875 47.83984375 289.921875 C47.17984375 289.921875 46.51984375 289.921875 45.83984375 289.921875 C41.83984375 283.296875 41.83984375 283.296875 41.83984375 279.921875 C41.17984375 279.921875 40.51984375 279.921875 39.83984375 279.921875 C38.4375 277.875 38.4375 277.875 36.90234375 275.171875 C35.41777194 272.57482356 34.00417333 270.12984869 32.1484375 267.78125 C30.83984375 265.921875 30.83984375 265.921875 30.83984375 262.921875 C30.17984375 262.921875 29.51984375 262.921875 28.83984375 262.921875 C28.56011719 262.39980469 28.28039062 261.87773438 27.9921875 261.33984375 C24.09127613 254.1777203 19.71297794 247.35759094 15.28125 240.515625 C14.82621094 239.8040625 14.37117188 239.0925 13.90234375 238.359375 C13.50144531 237.73933594 13.10054688 237.11929688 12.6875 236.48046875 C11.83984375 234.921875 11.83984375 234.921875 11.83984375 232.921875 C11.17984375 232.921875 10.51984375 232.921875 9.83984375 232.921875 C9.17984375 230.941875 8.51984375 228.961875 7.83984375 226.921875 C7.17984375 226.921875 6.51984375 226.921875 5.83984375 226.921875 C5.46472656 226.20902344 5.08960938 225.49617187 4.703125 224.76171875 C1.71831386 219.17553569 -1.3957516 214.00890831 -5.16015625 208.921875 C-6.17260743 207.26274258 -7.17017892 205.59451443 -8.16015625 203.921875 C-8.91274137 202.68799531 -9.66675314 201.45498511 -10.421875 200.22265625 C-11.23054772 198.8932772 -12.03913994 197.56384918 -12.84765625 196.234375 C-13.47124023 195.22020508 -13.47124023 195.22020508 -14.10742188 194.18554688 C-17.16015625 189.14778325 -17.16015625 189.14778325 -17.16015625 186.921875 C-17.82015625 186.921875 -18.48015625 186.921875 -19.16015625 186.921875 C-20.44921875 185.27734375 -20.44921875 185.27734375 -21.78515625 183.109375 C-22.23117188 182.40167969 -22.6771875 181.69398438 -23.13671875 180.96484375 C-24.16015625 178.921875 -24.16015625 178.921875 -24.16015625 175.921875 C-24.82015625 175.921875 -25.48015625 175.921875 -26.16015625 175.921875 C-26.82015625 173.941875 -27.48015625 171.961875 -28.16015625 169.921875 C-28.82015625 169.921875 -29.48015625 169.921875 -30.16015625 169.921875 C-30.50046875 169.26703125 -30.84078125 168.6121875 -31.19140625 167.9375 C-35.08455728 160.60677945 -39.51162961 153.78996841 -44.16015625 146.921875 C-45.84166058 144.4105805 -47.50519967 141.88822739 -49.16015625 139.359375 C-49.75727417 138.46545044 -49.75727417 138.46545044 -50.36645508 137.5534668 C-53.16015625 133.26518791 -53.16015625 133.26518791 -53.16015625 129.921875 C-53.82015625 129.921875 -54.48015625 129.921875 -55.16015625 129.921875 C-56.40020195 128.009163 -57.55352492 126.03974922 -58.66015625 124.046875 C-61.02786784 119.69570122 -61.02786784 119.69570122 -64.16015625 115.921875 C-64.16015625 114.931875 -64.16015625 113.941875 -64.16015625 112.921875 C-64.82015625 112.921875 -65.48015625 112.921875 -66.16015625 112.921875 C-67.16524426 111.13305764 -68.16408361 109.34072804 -69.16015625 107.546875 C-69.71703125 106.54914063 -70.27390625 105.55140625 -70.84765625 104.5234375 C-72.16015625 101.921875 -72.16015625 101.921875 -72.16015625 99.921875 C-72.82015625 99.921875 -73.48015625 99.921875 -74.16015625 99.921875 C-74.4746875 99.34179688 -74.78921875 98.76171875 -75.11328125 98.1640625 C-77.1141341 94.51190339 -79.10061626 90.91065499 -81.47265625 87.484375 C-83.16015625 84.921875 -83.16015625 84.921875 -83.16015625 82.921875 C-83.82015625 82.921875 -84.48015625 82.921875 -85.16015625 82.921875 C-89.16015625 76.296875 -89.16015625 76.296875 -89.16015625 72.921875 C-89.82015625 72.921875 -90.48015625 72.921875 -91.16015625 72.921875 C-92.13671875 71.13151042 -93.11328125 69.34114583 -94.08984375 67.55078125 C-95.07425649 65.75569185 -95.07425649 65.75569185 -97.16015625 64.921875 C-97.16015625 62.611875 -97.16015625 60.301875 -97.16015625 57.921875 C-95.66742188 57.33986328 -95.66742188 57.33986328 -94.14453125 56.74609375 C-89.12726641 54.59746145 -84.85884883 51.45708533 -80.4140625 48.33007812 C-75.46488977 44.921875 -75.46488977 44.921875 -72.16015625 44.921875 C-72.16015625 44.261875 -72.16015625 43.601875 -72.16015625 42.921875 C-71.34877197 42.49032104 -71.34877197 42.49032104 -70.52099609 42.05004883 C-63.83744527 38.42566781 -57.62511988 34.27237417 -51.3828125 29.94335938 C-50.62097656 29.42451172 -49.85914063 28.90566406 -49.07421875 28.37109375 C-48.39311035 27.90018311 -47.71200195 27.42927246 -47.01025391 26.9440918 C-45.16015625 25.921875 -45.16015625 25.921875 -42.16015625 25.921875 C-42.16015625 25.261875 -42.16015625 24.601875 -42.16015625 23.921875 C-41.63808594 23.64214844 -41.11601562 23.36242187 -40.578125 23.07421875 C-32.81277086 18.84475266 -25.25678113 14.26941421 -18.16015625 8.984375 C-15.16015625 6.921875 -15.16015625 6.921875 -12.16015625 6.921875 C-12.16015625 6.261875 -12.16015625 5.601875 -12.16015625 4.921875 C-10.58482539 4.05303794 -8.99951116 3.20228432 -7.41015625 2.359375 C-6.5284375 1.88371094 -5.64671875 1.40804687 -4.73828125 0.91796875 C-2.16015625 -0.078125 -2.16015625 -0.078125 0 0 Z " fill="#003060" transform="translate(183.16015625,694.078125)"/>
<path d="M0 0 C1.03769531 -0.00773437 2.07539062 -0.01546875 3.14453125 -0.0234375 C19.46540027 0.01721224 34.90261917 4.02860283 49.5 11.25 C50.34175781 11.64058594 51.18351563 12.03117187 52.05078125 12.43359375 C58.25675796 15.37733076 64.23557049 18.8032372 69.5 23.25 C69.5 23.91 69.5 24.57 69.5 25.25 C71.15 25.91 72.8 26.57 74.5 27.25 C74.5 27.91 74.5 28.57 74.5 29.25 C75.056875 29.476875 75.61375 29.70375 76.1875 29.9375 C79.16159588 31.62550036 81.22008865 33.71676517 83.5 36.25 C83.5 36.91 83.5 37.57 83.5 38.25 C84.16 38.25 84.82 38.25 85.5 38.25 C85.5 38.91 85.5 39.57 85.5 40.25 C86.16 40.25 86.82 40.25 87.5 40.25 C91.841986 45.03764439 98.5 52.62199354 98.5 59.25 C99.16 59.25 99.82 59.25 100.5 59.25 C100.5 60.57 100.5 61.89 100.5 63.25 C101.16 63.25 101.82 63.25 102.5 63.25 C102.5 64.57 102.5 65.89 102.5 67.25 C103.16 67.25 103.82 67.25 104.5 67.25 C105.47409668 70.17229003 106.44716802 73.09484688 107.4140625 76.01953125 C108.05306756 77.92045638 108.70778611 79.81644302 109.3984375 81.69921875 C111.15651655 86.54699118 111.95055983 91.03351739 112.2890625 96.18359375 C112.38302486 98.31110892 112.38302486 98.31110892 113.5 100.25 C113.59699846 102.18557678 113.63076201 104.12449537 113.6328125 106.0625 C113.63410156 107.22007812 113.63539063 108.37765625 113.63671875 109.5703125 C113.63285156 110.78460938 113.62898437 111.99890625 113.625 113.25 C113.62886719 114.46429688 113.63273438 115.67859375 113.63671875 116.9296875 C113.63478516 118.66605469 113.63478516 118.66605469 113.6328125 120.4375 C113.63168457 121.50355469 113.63055664 122.56960938 113.62939453 123.66796875 C113.5 126.25 113.5 126.25 112.5 128.25 C112.2724985 130.12056791 112.09037189 131.99685958 111.9375 133.875 C111.85371094 134.87789062 111.76992188 135.88078125 111.68359375 136.9140625 C111.62300781 137.68492187 111.56242188 138.45578125 111.5 139.25 C110.84 139.25 110.18 139.25 109.5 139.25 C109.603125 140.1575 109.70625 141.065 109.8125 142 C109.80068638 147.8831815 106.90914508 153.00839753 104.5 158.25 C103.94392911 159.47131715 103.38794115 160.69267206 102.83203125 161.9140625 C101.40180057 165.03271277 99.9577509 168.14413897 98.5 171.25 C97.84 171.25 97.18 171.25 96.5 171.25 C96.41621094 171.79140625 96.33242188 172.3328125 96.24609375 172.890625 C95.24149281 176.06747823 93.52577067 178.31603503 91.5625 181 C90.85222656 181.98484375 90.14195312 182.9696875 89.41015625 183.984375 C88.77980469 184.73203125 88.14945313 185.4796875 87.5 186.25 C86.84 186.25 86.18 186.25 85.5 186.25 C85.26023437 186.81332031 85.02046875 187.37664062 84.7734375 187.95703125 C75.57097281 204.52711337 53.76960554 214.7366798 36.6875 221.125 C35.9236499 221.41133301 35.1597998 221.69766602 34.37280273 221.99267578 C23.59538966 225.85244491 13.3411436 226.59700846 1.96899414 226.56567383 C-0.42933531 226.56251077 -2.82643127 226.58605315 -5.22460938 226.61132812 C-13.79580102 226.6465094 -21.32763452 226.12082647 -29.5 223.25 C-30.55832031 222.94578125 -31.61664062 222.6415625 -32.70703125 222.328125 C-39.71756728 220.09988866 -46.06076082 217.12527837 -52.56640625 213.73828125 C-55.44990053 212.184921 -55.44990053 212.184921 -58.5 211.25 C-58.5 210.59 -58.5 209.93 -58.5 209.25 C-59.08523438 209.13785156 -59.67046875 209.02570313 -60.2734375 208.91015625 C-62.71779421 208.18542593 -64.12240067 207.25123182 -66.125 205.6875 C-67.14980469 204.88892578 -67.14980469 204.88892578 -68.1953125 204.07421875 C-68.95585938 203.47222656 -69.71640625 202.87023437 -70.5 202.25 C-71.40492188 201.55519531 -72.30984375 200.86039063 -73.2421875 200.14453125 C-74.15226563 199.43683594 -75.06234375 198.72914063 -76 198 C-76.8559375 197.33484375 -77.711875 196.6696875 -78.59375 195.984375 C-79.2228125 195.41203125 -79.851875 194.8396875 -80.5 194.25 C-80.5 193.59 -80.5 192.93 -80.5 192.25 C-81.16 192.25 -81.82 192.25 -82.5 192.25 C-82.5 191.59 -82.5 190.93 -82.5 190.25 C-83.16 190.25 -83.82 190.25 -84.5 190.25 C-85.7890625 188.7890625 -85.7890625 188.7890625 -87.125 186.875 C-87.57101562 186.24851562 -88.01703125 185.62203125 -88.4765625 184.9765625 C-89.5 183.25 -89.5 183.25 -89.5 181.25 C-90.16 181.25 -90.82 181.25 -91.5 181.25 C-93.0078125 179.38671875 -93.0078125 179.38671875 -94.625 176.9375 C-95.16382813 176.13699219 -95.70265625 175.33648438 -96.2578125 174.51171875 C-97.5 172.25 -97.5 172.25 -97.5 169.25 C-98.16 169.25 -98.82 169.25 -99.5 169.25 C-102.5 163.625 -102.5 163.625 -102.5 160.25 C-103.16 160.25 -103.82 160.25 -104.5 160.25 C-104.68175781 159.63253906 -104.86351562 159.01507813 -105.05078125 158.37890625 C-106.51111855 153.4586929 -108.03186694 148.58142446 -109.75390625 143.74609375 C-111.79886682 136.90457644 -112.79825184 130.48492586 -112.73046875 123.34765625 C-112.73001053 122.54388046 -112.72955231 121.74010468 -112.7290802 120.91197205 C-112.72608547 119.2322337 -112.71828393 117.55249743 -112.70581055 115.87280273 C-112.68737241 113.29466011 -112.68530252 110.71687405 -112.68554688 108.13867188 C-112.68063728 106.49999688 -112.67481141 104.86132431 -112.66796875 103.22265625 C-112.66685593 102.45188248 -112.6657431 101.6811087 -112.66459656 100.88697815 C-112.61613848 95.48227696 -112.61613848 95.48227696 -111.5 93.25 C-111.27532169 91.71331135 -111.09203195 90.17031946 -110.9375 88.625 C-110.85371094 87.80773437 -110.76992188 86.99046875 -110.68359375 86.1484375 C-110.62300781 85.52195312 -110.56242188 84.89546875 -110.5 84.25 C-109.84 84.25 -109.18 84.25 -108.5 84.25 C-108.54640625 83.38117188 -108.5928125 82.51234375 -108.640625 81.6171875 C-108.48906005 77.98804906 -107.70680859 75.68353518 -106.25 72.375 C-105.55970703 70.80492187 -105.55970703 70.80492187 -104.85546875 69.203125 C-101.55589099 62.01441956 -98.12368172 54.69673337 -93.5 48.25 C-92.84 48.25 -92.18 48.25 -91.5 48.25 C-91.37431641 47.40695312 -91.37431641 47.40695312 -91.24609375 46.546875 C-90.27104948 43.54516805 -88.67188491 41.83443682 -86.5625 39.5 C-85.85222656 38.70078125 -85.14195312 37.9015625 -84.41015625 37.078125 C-82.5 35.25 -82.5 35.25 -80.5 35.25 C-80.2525 34.63125 -80.005 34.0125 -79.75 33.375 C-78.29371361 30.89931313 -77.12187494 30.29874998 -74.5 29.25 C-74.5 28.59 -74.5 27.93 -74.5 27.25 C-72.2462179 25.15309272 -69.67949968 23.42821005 -67.1875 21.625 C-66.15206055 20.8515625 -66.15206055 20.8515625 -65.09570312 20.0625 C-64.42861328 19.57523437 -63.76152344 19.08796875 -63.07421875 18.5859375 C-62.46151123 18.13782715 -61.84880371 17.6897168 -61.2175293 17.22802734 C-59.5 16.25 -59.5 16.25 -56.5 16.25 C-56.5 15.59 -56.5 14.93 -56.5 14.25 C-38.6945465 5.01754263 -20.11720588 -0.14994191 0 0 Z M-51.4375 49.875 C-53.70899038 53.59198425 -54.30056396 55.71885696 -54.0546875 60 C-53.07095911 63.99033487 -50.69601102 66.74726686 -47.5 69.25 C-43.97678402 70.90153097 -41.21005707 71.49006918 -37.33203125 71.48828125 C-36.35556641 71.50439453 -35.37910156 71.52050781 -34.37304688 71.53710938 C-32.35227637 71.5538739 -30.33137623 71.55930832 -28.31054688 71.55273438 C-21.79267395 71.68522884 -17.25107861 72.8575551 -11.56518555 76.08276367 C-9.41625011 77.38430278 -9.41625011 77.38430278 -6.5 78.25 C-5.4375 80.0625 -5.4375 80.0625 -4.5 82.25 C-3.83822178 83.58576637 -3.17223958 84.91946771 -2.5 86.25 C-3.77117676 86.22381592 -5.04235352 86.19763184 -6.35205078 86.1706543 C-11.08185122 86.07994804 -15.81157524 86.02267626 -20.54199219 85.9753418 C-22.58672019 85.95024417 -24.63135889 85.91615836 -26.67578125 85.87280273 C-29.62001611 85.81194185 -32.56306196 85.7837427 -35.5078125 85.76171875 C-36.4174173 85.73591232 -37.32702209 85.7101059 -38.26419067 85.68351746 C-42.5924422 85.68161774 -45.5523886 85.816801 -48.99951172 88.59301758 C-52.96091908 92.80235133 -54.06851118 95.26943443 -53.94921875 100.89453125 C-53.16747076 104.99360986 -50.73115536 107.71974602 -47.5 110.25 C-42.82534472 112.72135387 -38.41052327 112.50790359 -33.26171875 112.4453125 C-32.38095169 112.4424826 -31.50018463 112.43965271 -30.59272766 112.43673706 C-27.79084455 112.42557833 -24.98928584 112.40048171 -22.1875 112.375 C-20.28320775 112.36496463 -18.37891048 112.35583975 -16.47460938 112.34765625 C-11.81628203 112.32565309 -7.15819594 112.29115294 -2.5 112.25 C-6.25 118.125 -6.25 118.125 -8.5 119.25 C-8.5 119.91 -8.5 120.57 -8.5 121.25 C-18.05830988 125.39193428 -26.653668 126.6820972 -36.99609375 126.68945312 C-43.98829314 126.83746319 -47.16574643 128.24917178 -52.375 132.9375 C-54.17038045 136.62800427 -54.04388196 140.22813603 -53.5 144.25 C-52.3119182 147.2682965 -52.3119182 147.2682965 -50.5 149.25 C-49.84 149.25 -49.18 149.25 -48.5 149.25 C-48.273125 149.806875 -48.04625 150.36375 -47.8125 150.9375 C-46.12449964 153.91159588 -44.03323483 155.97008865 -41.5 158.25 C-40.84 158.25 -40.18 158.25 -39.5 158.25 C-39.17 159.24 -38.84 160.23 -38.5 161.25 C-37.84 161.25 -37.18 161.25 -36.5 161.25 C-36.231875 161.848125 -35.96375 162.44625 -35.6875 163.0625 C-34.50082594 165.24847854 -33.40400887 166.66332594 -31.5 168.25 C-30.84 168.25 -30.18 168.25 -29.5 168.25 C-29.231875 168.848125 -28.96375 169.44625 -28.6875 170.0625 C-27.50082594 172.24847854 -26.40400887 173.66332594 -24.5 175.25 C-23.84 175.25 -23.18 175.25 -22.5 175.25 C-22.231875 175.848125 -21.96375 176.44625 -21.6875 177.0625 C-20.50082594 179.24847854 -19.40400887 180.66332594 -17.5 182.25 C-16.84 182.25 -16.18 182.25 -15.5 182.25 C-15.231875 182.848125 -14.96375 183.44625 -14.6875 184.0625 C-13.50082594 186.24847854 -12.40400887 187.66332594 -10.5 189.25 C-9.84 189.25 -9.18 189.25 -8.5 189.25 C-8.5 189.91 -8.5 190.57 -8.5 191.25 C-3.96139393 193.90674502 -0.7582423 194.90728029 4.5 194.25 C8.41886234 192.13984335 11.15571128 190.02804211 13.5 186.25 C13.93438809 183.80065593 13.93438809 183.80065593 13.8125 181.25 C13.80863281 180.404375 13.80476562 179.55875 13.80078125 178.6875 C13.48576274 176.13462271 12.78396996 174.45986065 11.5 172.25 C10.84 172.25 10.18 172.25 9.5 172.25 C9.5 171.59 9.5 170.93 9.5 170.25 C7.16666667 167.58333333 7.16666667 167.58333333 4.5 165.25 C3.84 165.25 3.18 165.25 2.5 165.25 C2.5 164.59 2.5 163.93 2.5 163.25 C0.16666667 160.58333333 0.16666667 160.58333333 -2.5 158.25 C-3.16 158.25 -3.82 158.25 -4.5 158.25 C-4.5 157.59 -4.5 156.93 -4.5 156.25 C-5.16 156.25 -5.82 156.25 -6.5 156.25 C-6.5 155.59 -6.5 154.93 -6.5 154.25 C-7.79233607 152.87689293 -9.12437146 151.53965176 -10.5 150.25 C-9.241875 149.899375 -7.98375 149.54875 -6.6875 149.1875 C-0.75840023 147.22372173 4.57062812 144.07371837 9.5 140.25 C9.5 139.59 9.5 138.93 9.5 138.25 C10.098125 138.0025 10.69625 137.755 11.3125 137.5 C13.81626919 136.06927475 14.98072388 134.6808418 16.5 132.25 C16.5 131.59 16.5 130.93 16.5 130.25 C17.16 130.25 17.82 130.25 18.5 130.25 C19.29423861 128.68880578 20.08527123 127.12598036 20.875 125.5625 C21.53628906 124.25732422 21.53628906 124.25732422 22.2109375 122.92578125 C24.73920376 117.80914591 24.73920376 117.80914591 25.5 112.25 C27.45292969 112.30220703 27.45292969 112.30220703 29.4453125 112.35546875 C31.17186204 112.38361901 32.89842561 112.41091784 34.625 112.4375 C35.4809375 112.46263672 36.336875 112.48777344 37.21875 112.51367188 C43.28544143 112.58367216 47.49507643 111.7368333 52.3125 107.75 C55.3546196 103.90732262 54.94911056 98.88808728 54.5 94.25 C52.73285191 89.97164146 50.65813015 88.18438786 46.5 86.25 C43.06843181 85.74891243 39.65139204 85.64817931 36.1875 85.5625 C35.25615234 85.52833984 34.32480469 85.49417969 33.36523438 85.45898438 C31.07694328 85.37684059 28.78901896 85.30758338 26.5 85.25 C25.66235732 83.29350603 24.83000941 81.33474444 24 79.375 C23.30390625 77.73917969 23.30390625 77.73917969 22.59375 76.0703125 C21.5 73.25 21.5 73.25 21.5 71.25 C22.1297876 71.26571045 22.7595752 71.2814209 23.40844727 71.29760742 C26.29303825 71.36040232 29.17748486 71.39913058 32.0625 71.4375 C33.05314453 71.46263672 34.04378906 71.48777344 35.06445312 71.51367188 C41.81291281 71.58093227 46.93654909 71.10076073 52.375 66.75 C55.30891631 62.83811159 54.95816953 57.8971481 54.5 53.25 C52.8869787 49.540051 50.98787234 47.30168961 47.5 45.25 C43.14325787 44.08390038 38.81043676 44.09548418 34.33251953 44.08886719 C33.11934052 44.08141983 33.11934052 44.08141983 31.88165283 44.07382202 C29.21536396 44.0592587 26.54913455 44.05240872 23.8828125 44.046875 C22.02342732 44.04111946 20.16404215 44.03536178 18.30465698 44.02960205 C14.4093193 44.01910915 10.51400216 44.01325506 6.61865234 44.00976562 C1.63650825 44.00427958 -3.34536274 43.98024193 -8.32742119 43.95179367 C-12.16737657 43.93313799 -16.00726647 43.92796016 -19.84726334 43.92642975 C-21.68361023 43.92341014 -23.51995617 43.91540502 -25.35625839 43.90224457 C-27.92895876 43.88512 -30.50099566 43.88707963 -33.07373047 43.89355469 C-33.82617035 43.8843399 -34.57861023 43.87512512 -35.35385132 43.8656311 C-41.86859942 43.91679066 -46.47022799 45.43616118 -51.4375 49.875 Z " fill="#003060" transform="translate(710.5,342.75)"/>
<path d="M0 0 C4.96722294 2.45898643 9.15805134 6.05368527 13.34033203 9.64648438 C14.9756625 10.98015194 16.65029983 12.10918282 18.43359375 13.234375 C19.28050781 13.81703125 20.12742187 14.3996875 21 15 C21 15.66 21 16.32 21 17 C22.65 17.66 24.3 18.32 26 19 C26 19.66 26 20.32 26 21 C26.55816406 21.268125 27.11632812 21.53625 27.69140625 21.8125 C31.06173619 23.54613841 34.24252048 25.57033723 37.46484375 27.5625 C39.9560141 29.09046277 39.9560141 29.09046277 42.75390625 29.875 C45 31 45 31 45.89453125 33.109375 C46.03413432 36.93553322 45.41908104 40.51404852 44.6875 44.25 C44.47710083 45.3790979 44.47710083 45.3790979 44.26245117 46.53100586 C43.28532631 51.71306757 42.21308125 56.86773318 41 62 C40.34 62 39.68 62 39 62 C39.061875 62.845625 39.12375 63.69125 39.1875 64.5625 C39.0090884 67.83337938 38.3504457 69.92185588 36.96875 72.8515625 C35.77438863 75.50034779 34.80979826 78.2084068 33.8125 80.9375 C31.02608656 88.22055071 27.61994285 95.10026163 24.03076172 102.01220703 C23.053112 103.8975751 22.09026583 105.78988332 21.12890625 107.68359375 C15.72982014 118.18377822 9.4534867 128.12016621 3 138 C2.18034697 139.53034598 2.18034697 139.53034598 1.34413528 141.09160805 C-1 144 -1 144 -4.14714432 144.73828697 C-6.02207125 144.72999084 -6.02207125 144.72999084 -7.93487549 144.7215271 C-8.63249709 144.72665365 -9.33011869 144.7317802 -10.04888034 144.7370621 C-12.38671758 144.74694639 -14.72197125 144.7139514 -17.05957031 144.68115234 C-18.73501525 144.67945992 -20.41046464 144.68040987 -22.08590698 144.68380737 C-26.63550086 144.68553068 -31.18414788 144.65022688 -35.73352146 144.60836363 C-40.48739906 144.57088527 -45.24129776 144.56733356 -49.99530029 144.56021118 C-58.9981156 144.54155378 -68.00049435 144.49230473 -77.00311732 144.43211424 C-87.25204647 144.36507686 -97.50099635 144.33206709 -107.75009012 144.30194163 C-128.83363718 144.23920643 -149.91679111 144.13365406 -171 144 C-171.33 142.68 -171.66 141.36 -172 140 C-172.66 140 -173.32 140 -174 140 C-174.37511719 139.28714844 -174.75023437 138.57429687 -175.13671875 137.83984375 C-175.64847656 136.88207031 -176.16023437 135.92429688 -176.6875 134.9375 C-177.18636719 133.99777344 -177.68523438 133.05804688 -178.19921875 132.08984375 C-179.52865499 129.80875034 -180.84035618 127.8263871 -182.41015625 125.73046875 C-185.44893388 121.55551733 -187.58222164 117.04630689 -189.75 112.375 C-190.14832031 111.54226562 -190.54664063 110.70953125 -190.95703125 109.8515625 C-192.82401987 105.87709181 -194.25310816 102.35241193 -195 98 C-195.66 98 -196.32 98 -197 98 C-197.50615298 96.73160474 -198.00469099 95.46016898 -198.5 94.1875 C-198.7784375 93.47980469 -199.056875 92.77210938 -199.34375 92.04296875 C-200 90 -200 90 -200 87 C-200.66 87 -201.32 87 -202 87 C-202.20496094 86.28972656 -202.40992188 85.57945312 -202.62109375 84.84765625 C-202.89050781 83.92855469 -203.15992188 83.00945312 -203.4375 82.0625 C-203.70433594 81.14597656 -203.97117187 80.22945313 -204.24609375 79.28515625 C-204.79026051 77.0597507 -204.79026051 77.0597507 -206 76 C-206.04080783 74.00041636 -206.04254356 71.99954746 -206 70 C-206.66 70 -207.32 70 -208 70 C-208 68.02 -208 66.04 -208 64 C-208.66 64 -209.32 64 -210 64 C-210.20496094 62.94039062 -210.40992188 61.88078125 -210.62109375 60.7890625 C-210.89307666 59.40101178 -211.16522044 58.01299256 -211.4375 56.625 C-211.57220703 55.92632812 -211.70691406 55.22765625 -211.84570312 54.5078125 C-212.5772422 50.64371266 -212.5772422 50.64371266 -214 47 C-214.33162226 45.03010709 -214.59348573 43.04806897 -214.8125 41.0625 C-214.94269531 40.00160156 -215.07289063 38.94070312 -215.20703125 37.84765625 C-215 35 -215 35 -213.19921875 33.12109375 C-211 32 -211 32 -208 32 C-208 31.34 -208 30.68 -208 30 C-207.443125 29.70867187 -206.88625 29.41734375 -206.3125 29.1171875 C-201.41740964 26.48773018 -197.03198358 23.65369852 -192.7265625 20.13671875 C-191 19 -191 19 -188 19 C-188 18.34 -188 17.68 -188 17 C-187.01 17 -186.02 17 -185 17 C-185 16.34 -185 15.68 -185 15 C-184.01 15 -183.02 15 -182 15 C-182 14.34 -182 13.68 -182 13 C-161.46016381 2.47044914 -161.46016381 2.47044914 -154 3 C-145.66368811 6.04396451 -137.66837027 11.17173937 -131 17 C-131 17.66 -131 18.32 -131 19 C-130.44957031 19.25007813 -129.89914062 19.50015625 -129.33203125 19.7578125 C-126.57022074 21.22892765 -124.19108498 22.99819655 -121.6875 24.875 C-114.97643973 29.78401631 -109.12395243 33.20062313 -101.0390625 35.38671875 C-99 36 -99 36 -98 37 C-89.1514224 37.50842656 -81.14452362 37.832717 -73 34 C-71.68 34 -70.36 34 -69 34 C-69 33.34 -69 32.68 -69 32 C-67.99324219 31.60039063 -66.98648438 31.20078125 -65.94921875 30.7890625 C-61.93108241 29.06772647 -58.42443135 26.81709099 -54.8125 24.375 C-47.63439997 19.52306501 -47.63439997 19.52306501 -44 19 C-44 18.34 -44 17.68 -44 17 C-43.01 17 -42.02 17 -41 17 C-41 16.34 -41 15.68 -41 15 C-40.01 15 -39.02 15 -38 15 C-38 14.34 -38 13.68 -38 13 C-37.46632813 12.70867188 -36.93265625 12.41734375 -36.3828125 12.1171875 C-31.26862019 9.30349692 -26.24421226 6.37287673 -21.26171875 3.33203125 C-20.51535156 2.89246094 -19.76898437 2.45289063 -19 2 C-18.38382813 1.62875 -17.76765625 1.2575 -17.1328125 0.875 C-11.8379028 -1.29727065 -5.52609006 -1.41506088 0 0 Z " fill="#003060" transform="translate(789,49)"/>
<path d="M0 0 C0.86066499 -0.00453111 1.72132999 -0.00906223 2.60807574 -0.01373065 C5.50306355 -0.02642962 8.39786455 -0.02475074 11.2928772 -0.02310181 C13.36400089 -0.02908362 15.43512234 -0.03588836 17.50624084 -0.04345703 C23.14052862 -0.06115946 28.77475569 -0.06581419 34.40906858 -0.0670886 C39.1085101 -0.06898518 43.8079374 -0.07633993 48.50737345 -0.08343279 C59.59262028 -0.09973046 70.67783461 -0.10460049 81.76309204 -0.10317993 C93.20737999 -0.10197811 104.65147946 -0.12308488 116.0957197 -0.15466726 C125.91319588 -0.18079727 135.73061039 -0.1915486 145.54812109 -0.19026911 C151.41521868 -0.18975852 157.28214885 -0.19549548 163.14921188 -0.21662521 C168.6666279 -0.23595243 174.18371585 -0.23616983 179.70114326 -0.22159195 C181.72764755 -0.21949589 183.75417208 -0.2242519 185.78064156 -0.23631287 C188.54449802 -0.25169871 191.30721386 -0.24250147 194.07104492 -0.22705078 C194.87542445 -0.23733791 195.67980397 -0.24762503 196.50855863 -0.25822389 C201.53991157 -0.19594933 204.12618299 0.67420742 207.6625061 4.26742554 C210.57375105 7.88138478 211.13032899 10.8169013 210.9593811 15.32992554 C210.52531541 18.16277532 209.45457449 20.06180291 207.6625061 22.26742554 C207.0025061 22.26742554 206.3425061 22.26742554 205.6625061 22.26742554 C205.6625061 22.92742554 205.6625061 23.58742554 205.6625061 24.26742554 C201.79454953 26.84689313 197.74471596 26.54636194 193.2739563 26.52139282 C192.41989842 26.5245128 191.56584054 26.52763278 190.68590212 26.53084731 C187.81930963 26.53883527 184.95292836 26.53250054 182.08633423 26.5262146 C180.03314591 26.52892411 177.97995857 26.53248481 175.92677307 26.53683472 C170.34631665 26.54596578 164.76593404 26.54241149 159.1854763 26.53607655 C153.35103529 26.53102028 147.51660068 26.53570696 141.68215942 26.53884888 C131.8834418 26.54248961 122.08475431 26.53768661 112.28604126 26.52816772 C100.95026183 26.51728298 89.61455433 26.52080848 78.27877665 26.53182054 C68.55386695 26.54089035 58.82897893 26.54218018 49.10406637 26.5369432 C43.2924033 26.53382182 37.48077407 26.53341877 31.66911316 26.54001617 C26.20592944 26.54578455 20.74283865 26.54180202 15.27966499 26.53022766 C13.27209693 26.52757836 11.26452108 26.52835075 9.2569561 26.53275299 C6.52154968 26.53819918 3.78644311 26.53138554 1.05105591 26.52139282 C0.25222756 26.52585427 -0.54660079 26.53031571 -1.36963606 26.53491235 C-5.16808788 26.50790475 -8.11846981 26.41413224 -11.3374939 24.26742554 C-11.3374939 23.60742554 -11.3374939 22.94742554 -11.3374939 22.26742554 C-11.9974939 22.26742554 -12.6574939 22.26742554 -13.3374939 22.26742554 C-16.43652695 18.57242459 -16.91093466 15.14910756 -16.76327515 10.48617554 C-16.02914892 6.66063705 -14.13099982 4.93100095 -11.3374939 2.26742554 C-7.51624645 -0.28007276 -4.42864568 -0.01695812 0 0 Z " fill="#003060" transform="translate(607.3374938964844,217.73257446289063)"/>
</svg>
