<?xml version="1.0" encoding="UTF-8"?>
<svg version="1.1" xmlns="http://www.w3.org/2000/svg" width="1080" height="1080">
<path d="M0 0 C121.15125 -0.1546875 121.15125 -0.1546875 244.75 -0.3125 C270.2744043 -0.35802002 295.79880859 -0.40354004 322.09667969 -0.45043945 C353.20947266 -0.47302246 353.20947266 -0.47302246 367.76397705 -0.47721863 C378.6238452 -0.48219376 389.48359282 -0.50376069 400.34341395 -0.53336714 C411.42083193 -0.56315825 422.49817516 -0.57378542 433.57563742 -0.56722475 C439.58640446 -0.56421086 445.59687788 -0.56901039 451.60759115 -0.59607565 C457.04477259 -0.62040967 462.48145282 -0.62161578 467.9186573 -0.60450554 C469.88236369 -0.60238796 471.84610155 -0.60870656 473.80974627 -0.62441289 C484.58875476 -0.70554969 493.31989189 -0.35506825 503 5 C504.34465336 5.70943309 504.34465336 5.70943309 505.71647143 6.43319815 C508.92686525 8.14963202 511.96991934 9.97994623 515 12 C515 12.66 515 13.32 515 14 C515.53625 14.20625 516.0725 14.4125 516.625 14.625 C519.91978009 16.53250426 522.59363628 19.04819384 525 22 C525 22.66 525 23.32 525 24 C525.66 24 526.32 24 527 24 C531 29.29411765 531 29.29411765 531 33 C531.66 33 532.32 33 533 33 C534.76462683 36.08809695 535 37.23312136 535 41 C535.66 41 536.32 41 537 41 C540.29583369 49.94583431 541.29537366 58.59815361 541.25537109 68.07421875 C541.25899155 69.13250885 541.262612 70.19079895 541.26634216 71.28115845 C541.27319565 73.56183007 541.27574926 75.84251795 541.27439499 78.12319946 C541.27342356 81.73938956 541.28644404 85.35528745 541.30337524 88.97143555 C541.34946769 99.24688497 541.37425493 109.52230217 541.38085938 119.79785156 C541.3858842 126.09890274 541.41017785 132.39964548 541.44618607 138.70059204 C541.45595547 141.09264267 541.45833172 143.48473587 541.45301437 145.87680054 C541.44591419 149.22679479 541.4632861 152.57587343 541.48583984 155.92578125 C541.47766739 156.90269928 541.46949493 157.87961731 541.46107483 158.88613892 C541.54179628 165.65914443 543.07259155 170.91058714 546 177 C546.29066534 177.71275589 546.58133068 178.42551178 546.88080406 179.15986633 C548.29199714 181.48008909 549.51586929 181.97192486 552 183 C552.6491185 183.34723806 553.298237 183.69447613 553.96702576 184.05223656 C560.11550359 187.12027292 565.35676348 187.56971692 572.16015625 187.51416016 C573.23941376 187.52128525 574.31867126 187.52841034 575.43063354 187.53575134 C578.97477832 187.55494642 582.51832091 187.54676843 586.0625 187.5390625 C588.53915269 187.5489759 591.015798 187.56091958 593.49243164 187.57479858 C599.99909611 187.60711056 606.50559231 187.61754802 613.0123291 187.62164307 C623.42569222 187.63040933 633.83891742 187.66600651 644.25216675 187.7138176 C647.879834 187.72636307 651.5073253 187.72564813 655.13500977 187.72354126 C657.36995578 187.73012474 659.60490061 187.73713162 661.83984375 187.74462891 C662.84062958 187.74050491 663.84141541 187.73638092 664.87252808 187.73213196 C683.31750977 187.83755947 699.13515662 196.49450131 712.23046875 209.12890625 C720.93249045 218.15004299 728.2533472 229.81314036 728.24723816 242.63716125 C728.25143265 243.95657211 728.25562714 245.27598297 728.25994873 246.63537598 C728.25446622 248.08544996 728.24878327 249.53552321 728.24291992 250.9855957 C728.24399353 252.52178529 728.24593339 254.05797447 728.24867249 255.59416199 C728.2535093 259.75493838 728.24588117 263.91560711 728.23571944 268.07637048 C728.22692646 272.42942698 728.22869658 276.78248025 728.2290802 281.13554382 C728.22814455 288.43974609 728.21947134 295.74390673 728.20581055 303.0480957 C728.19005669 311.50287778 728.1848135 319.95761438 728.1855461 328.41241008 C728.18615539 336.54106677 728.18106091 344.6697086 728.17275429 352.79836082 C728.16921635 356.26127424 728.16739032 359.72418241 728.16686058 363.18709755 C728.16585955 367.25742457 728.15978276 371.32771309 728.14969444 375.39802742 C728.14676262 376.89567581 728.14554544 378.39332862 728.14612198 379.89097977 C728.14660927 381.92657631 728.14036385 383.96217122 728.13371277 385.99775696 C728.13203692 387.1394399 728.13036108 388.28112284 728.12863445 389.45740223 C728 392 728 392 727 393 C725.50456535 393.18692933 724.00278214 393.3238637 722.5 393.4375 C714.20306715 393.77848599 714.20306715 393.77848599 707 397 C705.96875 397.12375 704.9375 397.2475 703.875 397.375 C700.51413549 397.91707492 698.01411554 398.7594982 694.953125 400.1796875 C692.65446583 401.14512435 690.33510979 401.81804512 687.9375 402.5 C684.91319777 403.36736437 682.46448785 404.26775607 679.625 405.6875 C677 407 677 407 673 407 C673 407.66 673 408.32 673 409 C671.83726562 409.41121094 670.67453125 409.82242187 669.4765625 410.24609375 C665.22307324 411.84559268 661.31900051 413.81607419 657.375 416.0625 C656.68841309 416.45171631 656.00182617 416.84093262 655.29443359 417.24194336 C645.15624391 423.10166307 635.85851242 430.08872966 626.890625 437.6015625 C625 439 625 439 623 439 C623 439.66 623 440.32 623 441 C622.34 441 621.68 441 621 441 C621 441.66 621 442.32 621 443 C620.34 443 619.68 443 619 443 C619 443.66 619 444.32 619 445 C617.50390625 446.4375 617.50390625 446.4375 615.5625 448 C612.84811762 450.14525044 612.84811762 450.14525044 611 453 C610.34 453 609.68 453 609 453 C609 453.66 609 454.32 609 455 C608.34 455 607.68 455 607 455 C606.67 455.99 606.34 456.98 606 458 C605.34 458 604.68 458 604 458 C603.7525 458.721875 603.505 459.44375 603.25 460.1875 C601.87730408 463.27606582 600.27646704 465.51011418 598 468 C597.34 468 596.68 468 596 468 C595.73574219 468.73089844 595.47148438 469.46179688 595.19921875 470.21484375 C593.9974531 473.00591512 592.61490427 475.12492351 590.8125 477.5625 C586.80448047 483.15702726 583.39800365 489.02187447 580 495 C579.57332031 495.71800781 579.14664063 496.43601562 578.70703125 497.17578125 C576.99493827 500.06223403 575.53490227 502.65686079 575 506 C574.34 506 573.68 506 573 506 C572.80071899 507.09356812 572.80071899 507.09356812 572.59741211 508.20922852 C572.0440334 510.79430088 571.32673872 513.16475901 570.44140625 515.65234375 C570.13783203 516.51150391 569.83425781 517.37066406 569.52148438 518.25585938 C569.20501953 519.14080078 568.88855469 520.02574219 568.5625 520.9375 C564.47412114 532.2552503 564.47412114 532.2552503 562 544 C561.67 544.33 561.34 544.66 561 545 C560.41661309 547.29432836 559.99715223 549.60417394 559.56762695 551.93212891 C559.21477818 553.8391817 558.8495971 555.74404795 558.46533203 557.64501953 C556.70347781 567.34431652 556.72899459 576.93022335 556.79418945 586.76025391 C556.81268574 589.65405919 556.81469692 592.54754743 556.81445312 595.44140625 C556.81936109 597.28646111 556.82518623 599.13151381 556.83203125 600.9765625 C556.83370049 602.27021225 556.83370049 602.27021225 556.83540344 603.58999634 C556.86239382 606.96888546 556.92429749 609.77289248 558 613 C558.17658447 614.68455975 558.31837743 616.37290436 558.4375 618.0625 C558.68740227 627.1129449 558.68740227 627.1129449 562 635 C562.185625 636.5159375 562.185625 636.5159375 562.375 638.0625 C562.9322932 641.57344716 563.88521007 644.48343964 565.15771484 647.78149414 C566.58733084 651.54697836 567.85053167 655.36729718 569.125 659.1875 C569.52138672 660.35829102 569.52138672 660.35829102 569.92578125 661.55273438 C571.19359977 665.34653648 572.3494004 669.0408634 573 673 C573.66 673 574.32 673 575 673 C576.00732399 674.93370231 577.00563288 676.87210306 578 678.8125 C578.556875 679.89144531 579.11375 680.97039063 579.6875 682.08203125 C581 685 581 685 581 688 C581.66 688 582.32 688 583 688 C583.38800781 688.83015625 583.77601563 689.6603125 584.17578125 690.515625 C586.62645421 695.19656779 589.59484718 699.44187171 592.59179688 703.78515625 C596 708.79456232 596 708.79456232 596 711 C596.66 711 597.32 711 598 711 C599.91015625 713.08203125 599.91015625 713.08203125 602.0625 715.8125 C602.77535156 716.70582031 603.48820313 717.59914063 604.22265625 718.51953125 C606 721 606 721 607 724 C607.66 724 608.32 724 609 724 C609 724.66 609 725.32 609 726 C609.66 726 610.32 726 611 726 C611 726.66 611 727.32 611 728 C611.66 728 612.32 728 613 728 C613 728.66 613 729.32 613 730 C613.66 730 614.32 730 615 730 C615 730.66 615 731.32 615 732 C615.66 732 616.32 732 617 732 C617 732.66 617 733.32 617 734 C617.66 734 618.32 734 619 734 C619 734.66 619 735.32 619 736 C619.66 736 620.32 736 621 736 C621 736.66 621 737.32 621 738 C621.515625 738.226875 622.03125 738.45375 622.5625 738.6875 C625.89547005 740.48217618 629.14703671 742.49965015 632 745 C632 745.66 632 746.32 632 747 C632.763125 747.28875 633.52625 747.5775 634.3125 747.875 C637 749 637 749 640 751 C640 751.66 640 752.32 640 753 C640.680625 753.226875 641.36125 753.45375 642.0625 753.6875 C645 755 645 755 648.16015625 757.33203125 C652.00952917 760.12455523 656.04492791 762.06724515 660.375 764 C665.78585566 766.46918413 671.05394342 768.98949031 676.140625 772.08984375 C678.3868779 773.18937511 680.54143872 773.59730462 683 774 C683 774.66 683 775.32 683 776 C684.0209375 775.9071875 684.0209375 775.9071875 685.0625 775.8125 C688.16340255 776.01042995 690.2788561 776.96847315 693.08862305 778.21362305 C696.10997143 779.45666343 699.20726422 780.21623032 702.375 781 C703.59960938 781.309375 704.82421875 781.61875 706.0859375 781.9375 C713.34729113 783.50752241 720.68389807 784.70892319 728 786 C728 833.52 728 881.04 728 930 C487.76 930 247.52 930 0 930 C0 623.1 0 316.2 0 0 Z M233 100 C231.85700439 100.22478027 231.85700439 100.22478027 230.69091797 100.45410156 C220.92721673 102.38999013 212.09662418 104.85260296 203 109 C200.34666873 110.04149452 197.67746346 111.02169604 195 112 C195 112.66 195 113.32 195 114 C194.42894531 114.12503906 193.85789062 114.25007813 193.26953125 114.37890625 C180.85550475 117.77620438 166.24781326 128.17823776 157 137 C157 137.66 157 138.32 157 139 C156.45859375 139.2165625 155.9171875 139.433125 155.359375 139.65625 C152.18354656 141.46499997 149.79271919 143.91723799 147.25 146.5 C146.74339844 146.99886719 146.23679688 147.49773437 145.71484375 148.01171875 C142.87194401 150.53061637 142.87194401 150.53061637 142 154 C141.34 154 140.68 154 140 154 C138.38451739 155.8384131 136.90449655 157.67234058 135.4375 159.625 C134.7736731 160.50091797 134.7736731 160.50091797 134.09643555 161.39453125 C120.51176917 178.45917381 120.51176917 178.45917381 114 198 C113.34 198 112.68 198 112 198 C111.51080078 199.37671875 111.51080078 199.37671875 111.01171875 200.78125 C110.57472656 202.0084375 110.13773438 203.235625 109.6875 204.5 C109.34356201 205.47066406 109.34356201 205.47066406 108.99267578 206.4609375 C107.85111144 209.67052983 106.66736014 212.84857635 105.375 216 C103.19121297 221.78641874 102.10367559 227.93080304 101 234 C100.74077759 235.32741211 100.74077759 235.32741211 100.47631836 236.68164062 C98.88025738 245.67489893 98.66052573 254.49549995 98.68432617 263.59960938 C98.68746948 266.10071162 98.66399614 268.60060677 98.63867188 271.1015625 C98.57241034 287.94387971 101.24941946 303.86731785 106 320 C106.66 320 107.32 320 108 320 C107.95875 320.72574219 107.9175 321.45148438 107.875 322.19921875 C108.01223354 325.27410769 108.67675042 327.04847538 110 329.8125 C110.69029297 331.25496094 110.69029297 331.25496094 111.39453125 332.7265625 C112.18923828 334.34691406 112.18923828 334.34691406 113 336 C113.58770918 337.23675612 114.17492727 338.4737457 114.76171875 339.7109375 C121.01388034 352.72158063 127.97742552 365.49902101 138 376 C139.12913202 377.30894696 140.254019 378.62156579 141.375 379.9375 C145.35867109 384.48123369 149.46006462 389.00559657 154 393 C154.66 393 155.32 393 156 393 C156 393.66 156 394.32 156 395 C156.66 395 157.32 395 158 395 C158 395.66 158 396.32 158 397 C159.65 397.66 161.3 398.32 163 399 C163 399.66 163 400.32 163 401 C165.42264212 403.10841866 168.1557089 404.82486983 170.8125 406.625 C171.91948242 407.3984375 171.91948242 407.3984375 173.04882812 408.1875 C173.76103516 408.67476563 174.47324219 409.16203125 175.20703125 409.6640625 C175.8616333 410.11217285 176.51623535 410.5602832 177.19067383 411.02197266 C179.09706113 412.237761 179.09706113 412.237761 182 412 C182 412.66 182 413.32 182 414 C196.31016542 420.93336111 196.31016542 420.93336111 211 427 C211.78503906 427.33257812 212.57007813 427.66515625 213.37890625 428.0078125 C216.2499659 429.09462196 219.06436916 429.7799174 222.0625 430.4375 C226.39157023 431.3957324 230.66276033 432.45030612 234.9375 433.625 C240.59769597 435.07208073 246.14386707 435.51356128 251.96875 435.7890625 C255 436 255 436 256.9140625 436.50488281 C259.14795394 437.03511828 261.11252942 437.12936107 263.40625 437.1328125 C264.23253906 437.13410156 265.05882812 437.13539063 265.91015625 437.13671875 C266.76480469 437.13285156 267.61945313 437.12898438 268.5 437.125 C269.35464844 437.12886719 270.20929688 437.13273437 271.08984375 437.13671875 C272.32927734 437.13478516 272.32927734 437.13478516 273.59375 437.1328125 C274.34333984 437.13168457 275.09292969 437.13055664 275.86523438 437.12939453 C278.0302228 436.99816811 279.90822616 436.55289059 282 436 C284.20620949 435.82494811 286.41511501 435.68254918 288.625 435.5625 C298.38524093 435.50006689 298.38524093 435.50006689 307 432 C307.99 431.87625 308.98 431.7525 310 431.625 C314.55871805 431.02273034 318.68540157 429.5449046 323 428 C323.79921875 427.73445313 324.5984375 427.46890625 325.421875 427.1953125 C331.37489111 425.15685547 337.059478 422.66989349 342.75 420 C343.45898438 419.66782471 344.16796875 419.33564941 344.8984375 418.9934082 C349.39113035 416.8538053 353.70735578 414.51715263 358 412 C358 411.34 358 410.68 358 410 C358.99 410 359.98 410 361 410 C361 409.34 361 408.68 361 408 C361.53109375 407.92910156 362.0621875 407.85820312 362.609375 407.78515625 C365.97600918 406.67944797 368.49239885 404.59146358 371.25 402.4375 C371.80429687 402.01275391 372.35859375 401.58800781 372.9296875 401.15039062 C374.29089411 400.10601659 375.64605833 399.05377536 377 398 C375.43713702 394.24789698 373.11836033 391.87427576 370.25524902 389.02146912 C369.76900857 388.53422538 369.28276813 388.04698165 368.78179312 387.54497296 C367.15285667 385.91508464 365.51688371 384.29244904 363.88085938 382.66967773 C362.7109739 381.50199368 361.54153598 380.33386108 360.37251282 379.16531372 C357.85503058 376.65076453 355.33442424 374.13940444 352.81135559 371.63046074 C348.82341601 367.66477826 344.84256831 363.69202806 340.8626709 359.71827698 C334.5684023 353.43539021 328.26947869 347.15719421 321.96851683 340.88102061 C310.68081451 329.63764657 299.39868542 318.38868675 288.12175798 307.13450581 C284.16258747 303.1837523 280.20062574 299.23582531 276.23641205 295.2901324 C273.77322773 292.83757838 271.31206276 290.38300533 268.85140038 287.9279213 C267.70821169 286.78820799 266.56415197 285.64936762 265.41916847 284.51145744 C263.85872579 282.96044447 262.3013761 281.40639016 260.74475098 279.85154724 C259.87164528 278.98196097 258.99853958 278.11237471 258.09897614 277.21643734 C254.12677131 273.02194321 253.75136651 270.67049155 253.75949097 264.99555969 C253.75778212 264.27837475 253.75607327 263.56118982 253.75431263 262.822272 C253.75101178 260.41307073 253.76203109 258.00414643 253.77294922 255.5949707 C253.7735132 253.87041226 253.77319702 252.14585333 253.77206421 250.42129517 C253.7714892 245.73356392 253.78326743 241.04593454 253.79721212 236.35822701 C253.80969485 231.46149474 253.81088804 226.56476026 253.81326294 221.66801453 C253.81948495 212.39265002 253.8359055 203.11733253 253.85596192 193.84198874 C253.87829851 183.28348094 253.88930871 172.72497092 253.89935279 162.16644537 C253.92027111 140.44427065 253.95546108 118.72213828 254 97 C246.852027 96.89942091 239.97599241 98.59260209 233 100 Z M283 97 C283.33 144.19 283.66 191.38 284 240 C287.90767308 238.43693077 290.69078474 237.02580832 294.125 234.75 C302.11236541 229.57917529 310.46380265 225.18756851 319 221 C319 220.34 319 219.68 319 219 C319.55558594 218.896875 320.11117187 218.79375 320.68359375 218.6875 C323.47821321 217.85806825 325.5953498 216.54801581 328.0625 215 C330.76080698 213.31203653 332.97148084 212.00950639 336 211 C336 210.34 336 209.68 336 209 C336.5787085 208.87778076 337.15741699 208.75556152 337.75366211 208.62963867 C340.06800321 207.980939 341.85354094 207.10808476 343.94140625 205.92578125 C344.68535645 205.50796387 345.42930664 205.09014648 346.19580078 204.65966797 C346.97681152 204.21510254 347.75782227 203.77053711 348.5625 203.3125 C350.1755988 202.40462366 351.78887985 201.49707108 353.40234375 200.58984375 C354.57772705 199.92637939 354.57772705 199.92637939 355.77685547 199.24951172 C360.1591003 196.78648415 364.58021861 194.39485952 369 192 C369 191.34 369 190.68 369 190 C369.86806274 189.81667114 369.86806274 189.81667114 370.75366211 189.62963867 C373.06800321 188.980939 374.85354094 188.10808476 376.94140625 186.92578125 C377.68535645 186.50796387 378.42930664 186.09014648 379.19580078 185.65966797 C379.97681152 185.21510254 380.75782227 184.77053711 381.5625 184.3125 C383.1755988 183.40462366 384.78887985 182.49707108 386.40234375 181.58984375 C387.57772705 180.92637939 387.57772705 180.92637939 388.77685547 180.24951172 C393.1591003 177.78648415 397.58021861 175.39485952 402 173 C402 172.34 402 171.68 402 171 C402.61875 170.87625 403.2375 170.7525 403.875 170.625 C406.19120832 170.12802644 406.19120832 170.12802644 408 168 C406.63676257 165.9600281 406.63676257 165.9600281 405 164 C404.34 164 403.68 164 403 164 C402.7525 163.46375 402.505 162.9275 402.25 162.375 C400.69347463 159.4176018 398.96564327 156.70275949 397 154 C396.34 154 395.68 154 395 154 C394.7628125 153.43796875 394.525625 152.8759375 394.28125 152.296875 C392.71052303 149.48105958 390.78528536 147.52044584 388.5 145.25 C387.7059375 144.45078125 386.911875 143.6515625 386.09375 142.828125 C384.21216538 140.78076391 384.21216538 140.78076391 382 141 C382 140.34 382 139.68 382 139 C378.94441577 135.97482091 378.94441577 135.97482091 375 135 C375 134.34 375 133.68 375 133 C373.35 132.34 371.7 131.68 370 131 C370 130.34 370 129.68 370 129 C367.98812549 127.49873802 365.99595029 126.14468095 363.875 124.8125 C363.24988525 124.41466309 362.62477051 124.01682617 361.98071289 123.60693359 C356.5136338 120.19180282 350.86909803 117.28879374 345.05859375 114.5078125 C342 113 342 113 339.57421875 111.4921875 C336.31280281 109.60165505 332.90177397 108.29556672 329.375 107 C328.66786865 106.73799805 327.9607373 106.47599609 327.23217773 106.20605469 C321.56391432 104.13878296 315.86717489 102.41457776 310 101 C309.32710938 100.81824219 308.65421875 100.63648438 307.9609375 100.44921875 C299.71626976 98.36417729 291.57137799 97.95237533 283 97 Z M414.5625 198.9375 C408.38722826 202.87092391 408.38722826 202.87092391 405 204 C405 204.66 405 205.32 405 206 C404.13193726 206.18332886 404.13193726 206.18332886 403.24633789 206.37036133 C400.93199679 207.019061 399.14645906 207.89191524 397.05859375 209.07421875 C396.31464355 209.49203613 395.57069336 209.90985352 394.80419922 210.34033203 C394.02318848 210.78489746 393.24217773 211.22946289 392.4375 211.6875 C390.8244012 212.59537634 389.21112015 213.50292892 387.59765625 214.41015625 C386.81406738 214.85246582 386.03047852 215.29477539 385.22314453 215.75048828 C380.8408997 218.21351585 376.41978139 220.60514048 372 223 C372 223.66 372 224.32 372 225 C371.4328125 225.10957031 370.865625 225.21914063 370.28125 225.33203125 C367.67579947 226.09492858 365.79090571 227.23277488 363.5 228.6875 C358.72446398 231.62900446 353.8184545 234.14143521 348.78515625 236.609375 C345.43871476 238.28024901 342.21928776 240.0976936 339 242 C339 242.66 339 243.32 339 244 C338.16662109 244.1546875 338.16662109 244.1546875 337.31640625 244.3125 C334.52178679 245.14193175 332.4046502 246.45198419 329.9375 248 C327.23919302 249.68796347 325.02851916 250.99049361 322 252 C322 252.66 322 253.32 322 254 C321.42419189 254.12076904 320.84838379 254.24153809 320.25512695 254.3659668 C317.89222357 255.03030155 316.05325977 255.94060386 313.91796875 257.14453125 C312.76651367 257.78938477 312.76651367 257.78938477 311.59179688 258.44726562 C310.40166992 259.12305664 310.40166992 259.12305664 309.1875 259.8125 C308.40568359 260.25142578 307.62386719 260.69035156 306.81835938 261.14257812 C302.19954711 263.7394542 297.59797526 266.36644675 293 269 C293 269.66 293 270.32 293 271 C294.46012138 272.48114617 294.46012138 272.48114617 296.3944397 274.02653503 C301.41386492 278.29902531 306.03968733 282.90685485 310.68896484 287.57543945 C311.63248547 288.51924283 312.57622769 289.46282472 313.52017212 290.40620422 C316.05918473 292.94493222 318.59512165 295.48671184 321.13048124 298.02908731 C323.79160879 300.69650827 326.45560901 303.36105723 329.11929321 306.02592468 C334.15480704 311.06453562 339.18776886 316.10568761 344.21979773 321.14777869 C349.944837 326.88401665 355.67273364 332.61739777 361.40086818 338.35054457 C372.69583075 349.65550812 383.98756218 360.96369247 395.27698326 372.27418995 C396.51744857 373.51666627 397.75852878 374.75852878 399 376 C410.32116221 363.54868105 410.32116221 363.54868105 416 349 C416.66 349 417.32 349 418 349 C418 347.68 418 346.36 418 345 C418.66 345 419.32 345 420 345 C427.52479962 330.14334434 432.85955856 314.40263105 435.4921875 297.95703125 C436 295 436 295 437 293 C437.20692194 290.7324804 437.36671198 288.46053676 437.5 286.1875 C437.74625923 282.01428548 438.17916778 278.09081424 439 274 C439.99035912 258.70701264 438.17727584 242.69320406 434 228 C433.49015586 225.77306422 432.99042236 223.54379333 432.5 221.3125 C430.34678138 211.97818631 427.09414065 203.65757016 423 195 C419.71085025 195 417.26233319 197.21137714 414.5625 198.9375 Z M602 248 C602 287.6 602 327.2 602 368 C609.92 368 617.84 368 626 368 C626 328.4 626 288.8 626 248 C618.08 248 610.16 248 602 248 Z M551 286 C551 313.06 551 340.12 551 368 C558.92 368 566.84 368 575 368 C575 340.94 575 313.88 575 286 C567.08 286 559.16 286 551 286 Z M500 313 C500 331.15 500 349.3 500 368 C507.59 368 515.18 368 523 368 C523 349.85 523 331.7 523 313 C515.41 313 507.82 313 500 313 Z M89 560 C89 560.66 89 561.32 89 562 C88.071875 562.4021875 88.071875 562.4021875 87.125 562.8125 C84.7004767 563.95556848 84.7004767 563.95556848 83 567 C82.27482608 571.50282411 82.39999964 574.99285654 84.75 578.9375 C88.83259629 582.67987994 91.77025213 583.25036431 97.28509331 583.25726891 C99.23522404 583.26694224 99.23522404 583.26694224 101.22475135 583.276811 C102.67090193 583.27386861 104.11705212 583.27073316 105.5632019 583.26742554 C107.09680599 583.27116087 108.63040816 583.27576192 110.16400731 583.28115618 C114.38479344 583.293416 118.60550049 583.29312222 122.82630038 583.29076743 C127.37582042 583.29036002 131.92531484 583.30139115 136.474823 583.31088257 C145.39047025 583.32750967 154.30609106 583.33299288 163.22175251 583.33410732 C170.46703364 583.33505695 177.71230602 583.33916296 184.95758438 583.34550858 C205.48912281 583.36312532 226.02064031 583.37234672 246.55218635 583.37084763 C248.21317296 583.37072776 248.21317296 583.37072776 249.90771484 583.37060547 C251.01638767 583.37052371 252.1250605 583.37044195 253.26732947 583.37035771 C271.24000132 583.36954459 289.21258941 583.38868761 307.18523704 583.4168822 C325.62946103 583.44558881 344.07364414 583.45942374 362.51789105 583.45769465 C372.87696247 583.45703 383.23594607 583.46255517 393.59499741 583.48405075 C402.41410623 583.50223328 411.23308743 583.50663401 420.05220686 583.4930319 C424.55320959 583.48648753 429.05396726 583.48643783 433.5549469 583.5037384 C437.67429322 583.51940947 441.79319895 583.51666703 445.91253413 583.49917014 C447.40376507 583.49608703 448.89502841 583.49978177 450.38622116 583.51089029 C452.41184461 583.52498215 454.43760223 583.51205114 456.46322441 583.49777794 C457.5888255 583.49821267 458.71442659 583.49864741 459.87413681 583.49909532 C463.77703449 582.8759337 465.93397735 581.45593206 469 579 C471.39109253 575.039753 472.13490917 572.9780915 471.5 568.375 C469.80241579 564.55543552 468.21276089 562.6595016 465 560 C461.91969606 559.26259063 461.91969606 559.26259063 458.51262951 559.38476086 C457.19291753 559.37480561 455.87320555 559.36485037 454.5135023 559.35459346 C453.05043489 559.36885805 451.58737195 559.38358602 450.12431335 559.39872742 C448.56906868 559.39654718 447.01382579 559.39216955 445.45859271 559.38578159 C441.18266288 559.37458897 436.90735795 559.39461779 432.63150775 559.41967189 C428.02146404 559.44124024 423.4114563 559.43395903 418.80137634 559.43016052 C410.81339336 559.42753724 402.82561439 559.44324056 394.83768272 559.47134972 C383.28847323 559.51196441 371.7393625 559.52500486 360.19008932 559.53128967 C341.45276077 559.54223604 322.71554098 559.57551955 303.97827148 559.62280273 C285.77547755 559.66868945 267.57271314 559.70408571 249.36987305 559.7253418 C247.68717797 559.72731222 247.68717797 559.72731222 245.97048905 559.72932246 C240.34283161 559.73584759 234.71517397 559.74216614 229.08751619 559.74838197 C182.39160212 559.80022565 135.69580667 559.88830028 89 560 Z M85.01639843 648.89463711 C83.08632199 651.86705946 82.25481687 653.15565876 82.5 656.625 C82.5309375 657.35976563 82.561875 658.09453125 82.59375 658.8515625 C83.03491939 661.18466984 83.84255738 662.93713856 85 665 C85.66 665 86.32 665 87 665 C87 665.66 87 666.32 87 667 C90.61979879 669.26699184 93.64581884 669.25246854 97.86293602 669.25726891 C98.55629866 669.26077498 99.24966129 669.26428105 99.96403491 669.26789337 C102.2987241 669.27723333 104.63316526 669.27227745 106.96786499 669.26742554 C108.65408648 669.27116049 110.34030624 669.27576139 112.02652323 669.28115618 C116.66916561 669.2934207 121.31173611 669.29312167 125.954391 669.29076743 C130.95790188 669.29036014 135.96138945 669.30139001 140.96488953 669.31088257 C150.77088472 669.32751223 160.57685587 669.33299299 170.38286398 669.33410732 C178.35135236 669.33505683 186.31983278 669.33916221 194.28831863 669.34550858 C216.86734521 669.363126 239.44635276 669.37234661 262.02538626 669.37084763 C263.85215112 669.37072776 263.85215112 669.37072776 265.71582031 669.37060547 C266.93514589 669.37052371 268.15447146 669.37044195 269.41074629 669.37035771 C289.17787597 669.36954456 308.94492949 669.38868806 328.71203713 669.4168822 C348.99592077 669.44558577 369.27976724 669.4594239 389.56367171 669.45769465 C400.95672993 669.45702989 412.3497083 669.4625596 423.74274826 669.48405075 C433.44203069 669.50222928 443.14119708 669.5066373 452.84048913 669.4930319 C457.7910929 669.48648553 462.74147385 669.4864451 467.69205666 669.5037384 C472.22218327 669.51940053 476.7519091 669.5166761 481.28202553 669.49917014 C482.92264965 669.49608506 484.56330317 669.49978904 486.20389263 669.51089029 C488.43154328 669.52496809 490.65777967 669.51446112 492.8853817 669.49777794 C494.12338001 669.49821267 495.36137831 669.49864741 496.63689172 669.49909532 C500.68534684 668.89829248 502.83163692 667.54901699 506 665 C508.81454595 660.77818108 508.80684081 656.95969791 508 652 C505.74942433 648.91201326 505.74942433 648.91201326 503 647 C502.67 646.67 502.34 646.34 502 646 C499.81653472 645.89648829 497.62964972 645.86521203 495.44373798 645.8601923 C494.74708339 645.85724088 494.05042879 645.85428945 493.33266345 645.85124859 C490.96877877 645.8424997 488.60494268 645.84097173 486.24104309 645.83937073 C484.54091245 645.83464369 482.84078293 645.82949333 481.14065474 645.82395309 C476.44565037 645.80999887 471.75065378 645.80244984 467.0556339 645.7959801 C463.03431617 645.78962323 459.01301131 645.77955115 454.99170158 645.76941944 C441.73912259 645.73604325 428.48653576 645.71456406 415.23392847 645.69621959 C411.78478642 645.69142745 408.33564469 645.68644378 404.88650298 645.68141437 C383.48540885 645.65044535 362.08431206 645.62374886 340.68320179 645.60699558 C335.72263903 645.60304582 330.76207633 645.59904287 325.80151367 645.5949707 C324.56852914 645.59396234 323.3355446 645.59295398 322.06519689 645.59191506 C302.08445246 645.5749024 282.10383176 645.533789 262.12314776 645.48294771 C241.62692256 645.43122208 221.13076106 645.40205993 200.63447112 645.3947987 C189.1194688 645.39012995 177.60466906 645.37531093 166.08973122 645.3350544 C156.284217 645.30081653 146.47894187 645.28678968 136.67337129 645.29947854 C131.66799353 645.30532016 126.66312179 645.30133613 121.65781975 645.2713089 C117.07746576 645.24405461 112.49797989 645.24436281 107.91760751 645.26681935 C106.25871325 645.27005626 104.59976199 645.26309283 102.94096301 645.24502213 C93.26017349 644.71752537 93.26017349 644.71752537 85.01639843 648.89463711 Z M85.125 735.0625 C82.5666205 738.59908342 82.50392395 740.57436007 82.62890625 744.81640625 C83.03193886 747.18793496 83.82247459 748.91450318 85 751 C85.66 751 86.32 751 87 751 C87 751.66 87 752.32 87 753 C90.75981292 755.45045058 94.50726895 755.27893017 98.83679962 755.25168228 C99.63544062 755.25458916 100.43408162 755.25749604 101.25692385 755.26049101 C103.94971917 755.26782595 106.64228912 755.26083142 109.33508301 755.25396729 C111.27846662 755.25627033 113.22184936 755.25944581 115.16523027 755.26342177 C120.51863522 755.2717998 125.8719692 755.26763088 131.22537446 755.26144934 C136.99367402 755.25693812 142.76196108 755.26390198 148.53025818 755.26940918 C159.83554317 755.27831908 171.14080167 755.27637407 182.44608772 755.2705839 C191.63122073 755.26607368 200.8163463 755.26545172 210.0014801 755.26763153 C211.3069784 755.267938 212.61247669 755.26824446 213.95753554 755.26856022 C216.60933348 755.26919964 219.26113142 755.26984807 221.91292936 755.2705054 C246.08978338 755.27625162 270.26662399 755.27029251 294.44347573 755.2598202 C316.52401111 755.25032867 338.60452342 755.25117791 360.68505859 755.26074219 C385.48064454 755.27144654 410.27621754 755.275664 435.07180548 755.26951766 C437.71404362 755.26888054 440.35628176 755.2682518 442.9985199 755.26763153 C444.9487496 755.2671687 444.9487496 755.2671687 446.93837789 755.26669653 C456.11627545 755.26496709 465.29416486 755.26789004 474.47206116 755.27259064 C485.65139086 755.27819024 496.83069247 755.27670246 508.01001894 755.26602915 C513.71775906 755.26076001 519.42545226 755.25873676 525.13319206 755.26532745 C530.35270092 755.2712634 535.57211915 755.26805093 540.79161972 755.25737235 C542.68523218 755.25512828 544.57885221 755.25629698 546.47245985 755.26112393 C549.03615061 755.26716038 551.59952638 755.2610135 554.16320038 755.25168228 C555.27919327 755.25870578 555.27919327 755.25870578 556.41773146 755.26587117 C560.1059056 755.23883746 562.866327 755.04236513 566 753 C566 752.34 566 751.68 566 751 C566.66 751 567.32 751 568 751 C570.30716134 746.62099676 570.30716134 746.62099676 570.8125 741.875 C570.4103125 740.946875 570.4103125 740.946875 570 740 C569.566875 738.7315625 569.566875 738.7315625 569.125 737.4375 C567.96230487 734.91832721 567.249405 733.60671786 565 732 C560.33762438 730.98178352 555.7665956 730.8579646 551.01639557 730.87136555 C550.22617632 730.86961251 549.43595707 730.86785947 548.62179178 730.86605331 C545.96972679 730.86139558 543.31771669 730.86385823 540.66564941 730.86628723 C538.74671461 730.86441916 536.82778019 730.86211847 534.90884638 730.85942191 C529.63225 730.85329727 524.35566945 730.85343828 519.07907033 730.85461628 C513.38984383 730.85482012 507.70062244 730.84930325 502.01139832 730.84455872 C490.86481025 730.83624841 479.71822747 730.83350372 468.57163656 730.83294634 C459.5143351 730.83247144 450.4570354 730.83041802 441.3997345 730.82724571 C419.91071307 730.8198721 398.42169336 730.81372098 376.93267059 730.81424427 C375.90189667 730.81426764 375.90189667 730.81426764 374.85029903 730.81429148 C371.36733635 730.81437459 367.88437368 730.81447363 364.401411 730.81457619 C363.36380741 730.8146061 363.36380741 730.8146061 362.30524214 730.81463663 C360.90638513 730.81467706 359.50752812 730.81471886 358.10867111 730.81476202 C336.33660089 730.815375 314.56454623 730.80786383 292.79248047 730.79418945 C268.33526248 730.77883497 243.8780565 730.77023549 219.42083311 730.77115268 C206.46957918 730.77148509 193.51834281 730.76871858 180.5670929 730.75797462 C169.54304618 730.74888813 158.51902499 730.74667916 147.49497616 730.75348405 C141.86798287 730.75675838 136.2410386 730.75677308 130.61404991 730.7481308 C125.46606869 730.74030531 120.31817568 730.74165654 115.17019671 730.75041493 C113.30487076 730.75195865 111.43953835 730.7501012 109.57422 730.74455485 C107.04390712 730.73752769 104.51390649 730.74276244 101.98360443 730.75111103 C101.25506097 730.74614285 100.5265175 730.74117467 99.77589697 730.73605594 C94.04339106 730.77619543 89.79984594 731.70880617 85.125 735.0625 Z M84.4375 821.125 C82.41643067 825.16713866 82.08762529 828.57069372 83 833 C85.06241575 836.84766891 87.95433162 839.38803602 92 841 C94.44378544 841.29887708 94.44378544 841.29887708 97.11379051 841.25447559 C98.152623 841.26030779 99.19145549 841.26613998 100.26176775 841.27214891 C101.4016353 841.26836958 102.54150286 841.26459026 103.71591187 841.26069641 C105.5339109 841.26643473 105.5339109 841.26643473 107.38863719 841.27228898 C110.75435822 841.28083353 114.11986124 841.28038106 117.48557615 841.27610838 C121.11484146 841.27364552 124.7440809 841.28264987 128.37333679 841.29014587 C135.48422927 841.30290745 142.59508401 841.30468473 149.70598601 841.30234561 C155.48530624 841.30056382 161.26461501 841.30230911 167.04393387 841.30657005 C167.86594186 841.30716524 168.68794985 841.30776043 169.53486717 841.30837366 C171.20469565 841.30958539 172.87452413 841.31079952 174.54435261 841.31201603 C190.21097092 841.32289731 205.87756773 841.32072637 221.54418726 841.31463119 C235.87942912 841.30946223 250.21460302 841.32071586 264.54983144 841.33972941 C279.26501496 841.35909744 293.98016633 841.36736558 308.69536269 841.36360615 C316.95849507 841.36169244 325.22156962 841.36419813 333.48469162 841.37832069 C340.51964931 841.39022234 347.55451357 841.39165314 354.58947252 841.37953053 C358.17907671 841.37363308 361.7685099 841.37256613 365.3581028 841.38453293 C369.24886066 841.39735302 373.13935813 841.38694769 377.03012085 841.3742218 C378.16552697 841.38159609 379.30093308 841.38897037 380.47074544 841.39656812 C387.43778052 841.34847815 392.07458934 840.69445719 397.375 835.8125 C399.53568964 832.07284486 399.69348508 829.22084128 399 825 C397.55182734 821.37956836 396.42584637 820.25369571 393.0625 818.25 C388.8784397 816.54222029 385.52161027 815.87501129 381.00391102 815.86857224 C379.9913124 815.86473109 378.97871378 815.86088995 377.93543035 815.8569324 C376.82484579 815.85779888 375.71426122 815.85866537 374.57002258 815.85955811 C372.7980759 815.85510142 372.7980759 815.85510142 370.99033231 815.8505547 C367.71028043 815.84337486 364.43026046 815.84069542 361.15020192 815.83995724 C357.61291043 815.83810577 354.07563027 815.83055792 350.53834534 815.82382202 C342.80268899 815.81024142 335.06703783 815.80421429 327.33137155 815.79981136 C322.5002985 815.79704826 317.66922745 815.79281075 312.83815575 815.78830719 C299.46006172 815.77611445 286.08196929 815.76581542 272.70386982 815.7624321 C271.8476671 815.76221253 270.99146438 815.76199297 270.10931612 815.76176675 C269.25107274 815.76154847 268.39282936 815.76133019 267.5085786 815.7611053 C265.76947232 815.76066183 264.03036604 815.76021527 262.29125977 815.75976562 C261.42860428 815.7595442 260.5659488 815.75932277 259.67715224 815.75909463 C245.70283232 815.75514764 231.72856458 815.73769667 217.75426481 815.7144061 C203.40406516 815.69068229 189.05389168 815.67822976 174.70367211 815.67706418 C166.64779487 815.67614795 158.59198559 815.6704089 150.53612709 815.65224457 C143.67546646 815.63682963 136.81489481 815.63173129 129.95422015 815.63998267 C126.45537494 815.64388438 122.95670882 815.64298326 119.45788574 815.62892532 C115.66006827 815.61623569 111.86270987 815.6220671 108.06489563 815.63250732 C106.96546468 815.62445092 105.86603372 815.61639452 104.73328668 815.60809398 C97.30913189 815.65579507 90.32564168 816.2421508 84.4375 821.125 Z " fill="#003060" transform="translate(75,75)"/>
<path d="M0 0 C0.9024646 -0.00095673 1.8049292 -0.00191345 2.73474121 -0.00289917 C4.64461334 -0.00358029 6.55448778 -0.00173071 8.46435547 0.00244141 C11.39425843 0.00779061 14.32400808 0.00249413 17.25390625 -0.00390625 C19.10677117 -0.00324546 20.959636 -0.00196427 22.8125 0 C24.13284241 -0.00303635 24.13284241 -0.00303635 25.4798584 -0.00613403 C31.6763334 0.0178542 31.6763334 0.0178542 33.90625 1.1328125 C36.75832778 1.44536897 39.61121854 1.64318732 42.47265625 1.8515625 C44.90625 2.1328125 44.90625 2.1328125 45.90625 3.1328125 C47.081875 3.2565625 48.2575 3.3803125 49.46875 3.5078125 C53.2094645 3.9330447 56.31654662 4.91624298 59.79296875 6.3203125 C62.03489511 7.1822731 64.28372204 7.85100326 66.59375 8.5078125 C82.91806668 13.36031517 99.02985037 21.16426909 112.90625 31.1328125 C112.90625 31.7928125 112.90625 32.4528125 112.90625 33.1328125 C113.63199219 33.390625 114.35773438 33.6484375 115.10546875 33.9140625 C118.02672667 35.18523749 120.21497649 36.67297652 122.71875 38.6328125 C123.50894531 39.24125 124.29914063 39.8496875 125.11328125 40.4765625 C125.70496094 41.023125 126.29664063 41.5696875 126.90625 42.1328125 C126.90625 42.7928125 126.90625 43.4528125 126.90625 44.1328125 C127.44894531 44.35066406 127.99164062 44.56851563 128.55078125 44.79296875 C131.70327932 46.58618075 134.07365173 49.00346364 136.59375 51.5703125 C137.12266846 52.10599854 137.65158691 52.64168457 138.1965332 53.19360352 C162.90625 78.54542203 162.90625 78.54542203 162.90625 88.1328125 C163.56625 88.1328125 164.22625 88.1328125 164.90625 88.1328125 C167.94242893 94.44933512 170.93884503 100.78370059 173.90625 107.1328125 C174.66615234 108.74929688 174.66615234 108.74929688 175.44140625 110.3984375 C180.57864752 121.96135996 183.60049637 134.72293174 185.546875 147.19921875 C185.82775954 149.20603649 185.82775954 149.20603649 186.90625 151.1328125 C187.00609643 152.64298547 187.04456457 154.1574443 187.05151367 155.67089844 C187.06108345 157.08311676 187.06108345 157.08311676 187.07084656 158.52386475 C187.07251579 160.05505951 187.07251579 160.05505951 187.07421875 161.6171875 C187.07754715 162.66553772 187.08087555 163.71388794 187.08430481 164.79400635 C187.0893753 167.01663778 187.0917131 169.23927685 187.09155273 171.46191406 C187.0937321 174.8549466 187.111867 178.24765034 187.13085938 181.640625 C187.13379472 183.79947805 187.13577857 185.95833265 187.13671875 188.1171875 C187.14390427 189.12988708 187.15108978 190.14258667 187.15849304 191.18597412 C187.14209735 196.27040988 186.84719032 200.35607077 184.90625 205.1328125 C184.43524669 207.56406082 184.0004715 210.00248829 183.59375 212.4453125 C182.0592639 221.22211589 179.56556227 229.63983102 176.90625 238.1328125 C176.24625 238.1328125 175.58625 238.1328125 174.90625 238.1328125 C174.90625 239.7828125 174.90625 241.4328125 174.90625 243.1328125 C174.24625 243.1328125 173.58625 243.1328125 172.90625 243.1328125 C172.81472656 243.79667969 172.72320313 244.46054687 172.62890625 245.14453125 C171.69261721 249.01621295 170.07143257 252.37020699 168.34375 255.9453125 C167.8497168 256.98461914 167.8497168 256.98461914 167.34570312 258.04492188 C166.53752749 259.74326198 165.72256623 261.43837019 164.90625 263.1328125 C164.24625 263.1328125 163.58625 263.1328125 162.90625 263.1328125 C162.81472656 263.67679688 162.72320313 264.22078125 162.62890625 264.78125 C158.30169396 278.86223269 143.87188435 291.60614984 133.90625 302.1328125 C133.33519531 302.75285156 132.76414062 303.37289063 132.17578125 304.01171875 C130.90625 305.1328125 130.90625 305.1328125 128.90625 305.1328125 C128.90625 305.7928125 128.90625 306.4528125 128.90625 307.1328125 C127.53613281 308.42626953 127.53613281 308.42626953 125.609375 309.890625 C124.90312988 310.43050049 124.19688477 310.97037598 123.46923828 311.52661133 C122.70595215 312.09790771 121.94266602 312.6692041 121.15625 313.2578125 C120.38651855 313.83877686 119.61678711 314.41974121 118.82373047 315.01831055 C101.32437977 328.1328125 101.32437977 328.1328125 96.90625 328.1328125 C96.90625 328.7928125 96.90625 329.4528125 96.90625 330.1328125 C89.98187642 333.39379004 82.99023502 336.31331814 75.828125 339.01171875 C73.66207982 339.84280828 71.524742 340.74955714 69.40625 341.6953125 C61.44461304 344.96527054 53.4721118 347.30917194 44.90625 348.1328125 C44.57625 348.4628125 44.24625 348.7928125 43.90625 349.1328125 C42.09813816 349.34177567 40.28408968 349.50061611 38.46875 349.6328125 C34.54190085 349.84700433 34.54190085 349.84700433 30.90625 351.1328125 C28.01269422 351.23198377 25.14371701 351.27262761 22.25 351.265625 C21.39192749 351.26658173 20.53385498 351.26753845 19.64978027 351.26852417 C17.83406501 351.26920522 16.01834732 351.26735617 14.20263672 351.26318359 C11.41758779 351.25783428 8.63270014 351.26313111 5.84765625 351.26953125 C4.08593714 351.26887046 2.32421814 351.26758926 0.5625 351.265625 C-0.27398071 351.26764923 -1.11046143 351.26967346 -1.97229004 351.27175903 C-7.86383166 351.24777167 -7.86383166 351.24777167 -10.09375 350.1328125 C-12.94582778 349.82025603 -15.79871854 349.62243768 -18.66015625 349.4140625 C-21.09375 349.1328125 -21.09375 349.1328125 -22.09375 348.1328125 C-25.12038789 347.50635129 -28.15052246 346.9435912 -31.1953125 346.4140625 C-35.8620639 345.54367633 -39.76279236 344.07427627 -44.09375 342.1328125 C-45.56463246 341.70722722 -47.04368989 341.30833176 -48.53125 340.9453125 C-54.83078665 339.13854355 -60.46900992 336.07353948 -66.26171875 333.0703125 C-69.80556499 331.24192994 -73.41118846 329.66124271 -77.09375 328.1328125 C-77.09375 327.4728125 -77.09375 326.8128125 -77.09375 326.1328125 C-77.64160156 326.03742188 -78.18945312 325.94203125 -78.75390625 325.84375 C-88.0366895 323.02327162 -96.27170784 314.63972174 -103.4765625 308.35546875 C-105.86595604 306.14749956 -105.86595604 306.14749956 -108.09375 305.1328125 C-108.09375 304.4728125 -108.09375 303.8128125 -108.09375 303.1328125 C-108.75375 303.1328125 -109.41375 303.1328125 -110.09375 303.1328125 C-110.09375 302.4728125 -110.09375 301.8128125 -110.09375 301.1328125 C-110.75375 301.1328125 -111.41375 301.1328125 -112.09375 301.1328125 C-112.09375 300.4728125 -112.09375 299.8128125 -112.09375 299.1328125 C-112.75375 299.1328125 -113.41375 299.1328125 -114.09375 299.1328125 C-114.09375 298.4728125 -114.09375 297.8128125 -114.09375 297.1328125 C-114.75375 297.1328125 -115.41375 297.1328125 -116.09375 297.1328125 C-116.09375 296.4728125 -116.09375 295.8128125 -116.09375 295.1328125 C-116.75375 295.1328125 -117.41375 295.1328125 -118.09375 295.1328125 C-139.09375 272.60791623 -139.09375 272.60791623 -139.09375 264.1328125 C-139.75375 264.1328125 -140.41375 264.1328125 -141.09375 264.1328125 C-141.09375 263.1428125 -141.09375 262.1528125 -141.09375 261.1328125 C-141.75375 261.1328125 -142.41375 261.1328125 -143.09375 261.1328125 C-143.09375 259.8128125 -143.09375 258.4928125 -143.09375 257.1328125 C-143.75375 257.1328125 -144.41375 257.1328125 -145.09375 257.1328125 C-145.09375 255.8128125 -145.09375 254.4928125 -145.09375 253.1328125 C-145.75375 253.1328125 -146.41375 253.1328125 -147.09375 253.1328125 C-147.09375 251.8128125 -147.09375 250.4928125 -147.09375 249.1328125 C-147.75375 249.1328125 -148.41375 249.1328125 -149.09375 249.1328125 C-159.10873994 223.86094426 -159.10873994 223.86094426 -160.734375 210.64453125 C-160.95741592 208.14212965 -160.95741592 208.14212965 -162.09375 206.1328125 C-163.91936917 195.96489273 -164.40588836 185.95813743 -164.34375 175.6328125 C-164.35148438 174.34761719 -164.35921875 173.06242188 -164.3671875 171.73828125 C-164.32492174 150.71106343 -159.68896608 130.96114821 -153.09375 111.1328125 C-152.43375 111.1328125 -151.77375 111.1328125 -151.09375 111.1328125 C-151.09375 109.4828125 -151.09375 107.8328125 -151.09375 106.1328125 C-150.43375 106.1328125 -149.77375 106.1328125 -149.09375 106.1328125 C-149.09375 104.8128125 -149.09375 103.4928125 -149.09375 102.1328125 C-148.43375 102.1328125 -147.77375 102.1328125 -147.09375 102.1328125 C-147.09375 100.8128125 -147.09375 99.4928125 -147.09375 98.1328125 C-146.43375 98.1328125 -145.77375 98.1328125 -145.09375 98.1328125 C-145.09375 96.8128125 -145.09375 95.4928125 -145.09375 94.1328125 C-144.43375 94.1328125 -143.77375 94.1328125 -143.09375 94.1328125 C-143.09375 92.8128125 -143.09375 91.4928125 -143.09375 90.1328125 C-142.43375 90.1328125 -141.77375 90.1328125 -141.09375 90.1328125 C-140.99449219 89.58109375 -140.89523437 89.029375 -140.79296875 88.4609375 C-138.44543635 80.64457263 -132.05840864 73.52669105 -127.09375 67.1328125 C-126.48015625 66.31039062 -125.8665625 65.48796875 -125.234375 64.640625 C-124.61046875 63.81304688 -123.9865625 62.98546875 -123.34375 62.1328125 C-122.77140625 61.3696875 -122.1990625 60.6065625 -121.609375 59.8203125 C-121.10921875 59.2634375 -120.6090625 58.7065625 -120.09375 58.1328125 C-119.43375 58.1328125 -118.77375 58.1328125 -118.09375 58.1328125 C-118.09375 57.4728125 -118.09375 56.8128125 -118.09375 56.1328125 C-117.43375 56.1328125 -116.77375 56.1328125 -116.09375 56.1328125 C-116.09375 55.4728125 -116.09375 54.8128125 -116.09375 54.1328125 C-115.43375 54.1328125 -114.77375 54.1328125 -114.09375 54.1328125 C-113.43375 52.8128125 -112.77375 51.4928125 -112.09375 50.1328125 C-111.43375 50.1328125 -110.77375 50.1328125 -110.09375 50.1328125 C-110.09375 49.4728125 -110.09375 48.8128125 -110.09375 48.1328125 C-109.43375 48.1328125 -108.77375 48.1328125 -108.09375 48.1328125 C-108.09375 47.4728125 -108.09375 46.8128125 -108.09375 46.1328125 C-107.43375 46.1328125 -106.77375 46.1328125 -106.09375 46.1328125 C-106.09375 45.4728125 -106.09375 44.8128125 -106.09375 44.1328125 C-101.62316176 40.1328125 -101.62316176 40.1328125 -99.09375 40.1328125 C-99.09375 39.4728125 -99.09375 38.8128125 -99.09375 38.1328125 C-97.29638672 36.63989258 -97.29638672 36.63989258 -94.7734375 34.90234375 C-93.85224121 34.26731934 -92.93104492 33.63229492 -91.98193359 32.97802734 C-90.98758301 32.30723145 -89.99323242 31.63643555 -88.96875 30.9453125 C-87.96279785 30.2642041 -86.9568457 29.5830957 -85.92041016 28.88134766 C-75.6578447 22.02811932 -65.1371424 16.7974876 -53.6875 12.1875 C-51.64961835 11.35884331 -49.64513368 10.44801206 -47.65625 9.5078125 C-43.12462277 7.75876339 -38.53480002 6.78661125 -33.7890625 5.78125 C-31.19129507 5.40438913 -31.19129507 5.40438913 -30.09375 4.1328125 C-24.53983266 2.51344708 -18.91250716 1.82000984 -13.16015625 1.37890625 C-1.55175697 -0.00356852 -1.55175697 -0.00356852 0 0 Z M-13.77319336 51.95800781 C-15.36284079 54.57597403 -15.45461915 56.11579743 -15.421875 59.16015625 C-15.41671875 60.11728516 -15.4115625 61.07441406 -15.40625 62.06054688 C-15.385625 63.05376953 -15.365 64.04699219 -15.34375 65.0703125 C-15.33859375 66.05966797 -15.3334375 67.04902344 -15.328125 68.06835938 C-15.29925785 73.35529278 -15.29925785 73.35529278 -14.59863281 78.58032227 C-14.02860162 81.46217723 -13.89874483 84.19681836 -13.8125 87.1328125 C-13.77511719 88.2671875 -13.73773437 89.4015625 -13.69921875 90.5703125 C-13.62890625 92.9453125 -13.55859375 95.3203125 -13.48828125 97.6953125 C-13.45089844 98.8296875 -13.41351562 99.9640625 -13.375 101.1328125 C-13.34470703 102.1640625 -13.31441406 103.1953125 -13.28320312 104.2578125 C-13.15998599 107.08593058 -13.15998599 107.08593058 -12.59375 109.6328125 C-12.02124698 112.4953276 -11.89820237 115.21528486 -11.8125 118.1328125 C-11.77511719 119.2671875 -11.73773437 120.4015625 -11.69921875 121.5703125 C-11.62890625 123.9453125 -11.55859375 126.3203125 -11.48828125 128.6953125 C-11.45089844 129.8296875 -11.41351562 130.9640625 -11.375 132.1328125 C-11.34470703 133.1640625 -11.31441406 134.1953125 -11.28320312 135.2578125 C-11.10405811 137.9763842 -10.6274715 140.46655046 -10.09375 143.1328125 C-9.96214377 145.11894724 -9.87130808 147.10803493 -9.8125 149.09765625 C-9.77511719 150.22751953 -9.73773437 151.35738281 -9.69921875 152.52148438 C-9.66441406 153.69259766 -9.62960937 154.86371094 -9.59375 156.0703125 C-9.52452124 158.39203998 -9.45172167 160.71366429 -9.375 163.03515625 C-9.34470703 164.06116943 -9.31441406 165.08718262 -9.28320312 166.14428711 C-9.14409711 169.14803747 -9.14409711 169.14803747 -8.58935547 172.14160156 C-8.08819804 175.16632117 -7.93658731 178.02640626 -7.8828125 181.08984375 C-7.84027344 182.75950195 -7.84027344 182.75950195 -7.796875 184.46289062 C-7.74505809 186.7726295 -7.70070886 189.08254875 -7.6640625 191.39257812 C-7.45136285 199.07192188 -7.08692645 206.50471984 -2.03125 212.6328125 C2.16860142 215.88431037 6.08768057 215.35229313 11.21875 215.3828125 C12.07404297 215.4034375 12.92933594 215.4240625 13.81054688 215.4453125 C18.63295367 215.47519573 22.09360145 215.42327842 25.90625 212.1328125 C33.25345092 202.6934714 31.24553078 184.334289 31.56494141 172.95629883 C31.5963623 171.88532959 31.6277832 170.81436035 31.66015625 169.7109375 C31.68408447 168.75606445 31.7080127 167.80119141 31.73266602 166.81738281 C31.90625 164.1328125 31.90625 164.1328125 32.40405273 161.65917969 C32.97499568 158.78697862 33.10152768 156.0595299 33.1875 153.1328125 C33.22488281 151.9984375 33.26226563 150.8640625 33.30078125 149.6953125 C33.33558594 148.5196875 33.37039063 147.3440625 33.40625 146.1328125 C33.4753324 143.7993625 33.54811026 141.46601829 33.625 139.1328125 C33.65529297 138.1015625 33.68558594 137.0703125 33.71679688 136.0078125 C33.89594189 133.2892408 34.3725285 130.79907454 34.90625 128.1328125 C35.03785623 126.14667776 35.12869192 124.15759007 35.1875 122.16796875 C35.24357422 120.47317383 35.24357422 120.47317383 35.30078125 118.74414062 C35.33558594 117.57302734 35.37039063 116.40191406 35.40625 115.1953125 C35.47547876 112.87358502 35.54827833 110.55196071 35.625 108.23046875 C35.65529297 107.20445557 35.68558594 106.17844238 35.71679688 105.12133789 C35.91041052 102.06718246 36.40085916 99.14911733 36.90625 96.1328125 C37.03422213 94.18684448 37.12710837 92.23829857 37.1875 90.2890625 C37.22488281 89.20753906 37.26226563 88.12601563 37.30078125 87.01171875 C37.33558594 85.89667969 37.37039063 84.78164063 37.40625 83.6328125 C37.47550944 81.41394533 37.54831339 79.1951854 37.625 76.9765625 C37.65529297 75.99880859 37.68558594 75.02105469 37.71679688 74.01367188 C37.91498984 70.9999128 38.37492916 68.1042445 38.90625 65.1328125 C39.3879203 60.39507181 39.38130858 57.08292967 37.21875 52.7578125 C34.12092922 49.24136729 31.31584956 47.60267902 26.90625 46.1328125 C22.56525212 45.88165749 18.22204907 45.86196076 13.87475586 45.83764648 C12.4462694 45.82616165 11.01782467 45.80576514 9.58959961 45.77612305 C-3.26608161 45.30597916 -3.26608161 45.30597916 -13.77319336 51.95800781 Z M-7.09375 263.1328125 C-7.09375 263.7928125 -7.09375 264.4528125 -7.09375 265.1328125 C-8.08375 265.4628125 -9.07375 265.7928125 -10.09375 266.1328125 C-10.82698796 268.14789608 -10.82698796 268.14789608 -11.09375 270.1328125 C-11.75375 270.1328125 -12.41375 270.1328125 -13.09375 270.1328125 C-15.88805976 276.24676225 -16.30634392 282.99207984 -14.40625 289.48046875 C-11.58670509 295.57773463 -7.46078155 300.45992851 -1.15625 303.0078125 C8.14535247 305.65192285 19.14825378 305.43290974 27.90625 301.1328125 C28.89625 300.4728125 29.88625 299.8128125 30.90625 299.1328125 C30.90625 298.4728125 30.90625 297.8128125 30.90625 297.1328125 C31.56625 297.1328125 32.22625 297.1328125 32.90625 297.1328125 C35.1836001 294.31771257 35.1836001 294.31771257 34.90625 291.1328125 C35.56625 291.1328125 36.22625 291.1328125 36.90625 291.1328125 C40.02389742 283.14384099 39.07268439 277.74280374 35.78125 270.07421875 C35.348125 269.11322266 35.348125 269.11322266 34.90625 268.1328125 C34.24625 268.1328125 33.58625 268.1328125 32.90625 268.1328125 C32.51759766 267.22680298 32.51759766 267.22680298 32.12109375 266.30249023 C30.01113864 262.53416807 26.82152085 260.7851652 22.90625 259.1328125 C19.21106768 258.47345689 15.65054908 258.47593984 11.90625 258.5703125 C10.48699219 258.55387695 10.48699219 258.55387695 9.0390625 258.53710938 C2.60379646 258.60395771 -1.55903535 259.84983907 -7.09375 263.1328125 Z " fill="#003060" transform="translate(818.09375,488.8671875)"/>
<path d="M0 0 C3.93899191 1.59399939 6.58426435 4.3126553 9.51675415 7.28297424 C10.06187318 7.82708999 10.60699221 8.37120574 11.16863 8.93180984 C12.99432175 10.75654885 14.8127688 12.58834009 16.63134766 14.42016602 C17.93858369 15.72960318 19.24626796 17.038593 20.55436707 18.34716797 C23.37012341 21.1658583 26.18269308 23.98767731 28.99284744 26.81195259 C33.43293189 31.27428052 37.88007294 35.72953027 42.32821655 40.18382263 C49.35956986 47.22655916 56.3862339 54.273953 63.41087759 61.32338136 C75.99949216 73.95633065 88.5937086 86.58368941 101.19312131 99.20586914 C105.61748661 103.63866114 110.0390275 108.07424618 114.45834756 112.51206791 C117.20257888 115.26691357 119.94881617 118.01975294 122.69556618 120.7720871 C123.97276361 122.0527661 125.24908798 123.33431646 126.52449226 124.61678123 C128.25979089 126.36147736 129.99810343 128.10311339 131.73721313 129.8440094 C132.2461551 130.35722844 132.75509706 130.87044748 133.2794615 131.39921862 C135.88927611 134.03136294 135.88927611 134.03136294 139 136 C139 136.66 139 137.32 139 138 C139.99 138.33 140.98 138.66 142 139 C142 139.99 142 140.98 142 142 C137.4183362 142.21326063 133.960572 141.50940705 129.625 140.0625 C115.7029021 135.9314349 100.62954233 136.83447123 86.22024918 136.73963928 C83.00069773 136.71828834 79.7812341 136.69130902 76.56173706 136.66296387 C68.58580037 136.59379731 60.60980263 136.53347921 52.63378906 136.47393799 C45.84934086 136.42306174 39.06494675 136.36833848 32.2805748 136.30812073 C29.10634707 136.28155162 25.93211402 136.26075413 22.75784302 136.2401123 C20.82830553 136.2235223 18.89877044 136.20665163 16.96923828 136.18945312 C16.08519318 136.18526871 15.20114807 136.18108429 14.29031372 136.17677307 C8.22774883 136.11387442 8.22774883 136.11387442 6 135 C5.05824201 132.17472602 4.8733157 130.45076043 4.86869812 127.52618408 C4.86468994 126.60976639 4.86068176 125.69334869 4.85655212 124.74916077 C4.85708084 123.74558029 4.85760956 122.74199982 4.8581543 121.70800781 C4.85467987 120.64901779 4.85120544 119.59002777 4.84762573 118.49894714 C4.84026469 116.19415056 4.83492117 113.88934687 4.83133507 111.58454132 C4.82416478 107.92558578 4.8084902 104.26676398 4.78999329 100.60784912 C4.73757622 90.20229009 4.68962854 79.79680126 4.67407227 69.39111328 C4.66393401 63.0267694 4.6344538 56.66275785 4.59275246 50.29854584 C4.58051213 47.88272375 4.57530833 45.46685455 4.57755089 43.0510025 C4.60986727 25.74388695 4.60986727 25.74388695 0.85481262 8.96575928 C-0.04679273 5.83765335 -0.15240246 3.23778981 0 0 Z " fill="#003060" transform="translate(633,104)"/>
</svg>
