<?xml version="1.0" encoding="UTF-8"?>
<svg version="1.1" xmlns="http://www.w3.org/2000/svg" width="1080" height="1080">
<path d="M0 0 C1.36299069 -0.00480972 1.36299069 -0.00480972 2.75351655 -0.0097166 C5.80254197 -0.01802711 8.85137148 -0.01208856 11.90040016 -0.00622082 C14.10679683 -0.00924102 16.31319244 -0.01312983 18.51958621 -0.01781338 C24.5862552 -0.02811905 30.65286528 -0.02590502 36.71953917 -0.02163279 C42.58919392 -0.0194231 48.45883244 -0.02657233 54.32848255 -0.03339304 C67.81671536 -0.04863583 81.30492939 -0.05033783 94.79316901 -0.04787002 C105.20864144 -0.04603756 115.62410773 -0.04779597 126.03957939 -0.05209446 C127.53581306 -0.05269686 129.03204672 -0.05329806 130.52828038 -0.05389806 C132.78294522 -0.05480531 135.03761005 -0.05571398 137.29227487 -0.05663041 C158.25589553 -0.0650604 179.21951387 -0.06939532 200.18313599 -0.06522369 C201.36864773 -0.06498913 201.36864773 -0.06498913 202.5781092 -0.06474983 C206.58389562 -0.06394404 210.58968204 -0.06309827 214.59546845 -0.06223653 C215.7888168 -0.06197989 215.7888168 -0.06197989 217.00627319 -0.06171808 C218.6151 -0.06137142 220.22392681 -0.06102289 221.83275362 -0.06067249 C246.86765567 -0.05531496 271.9025225 -0.06324644 296.93741798 -0.08170605 C325.06287545 -0.1024202 353.18831109 -0.11314989 381.31377661 -0.10913056 C384.31245525 -0.10873521 387.3111339 -0.10837367 390.30981255 -0.10803318 C391.04816574 -0.10794245 391.78651894 -0.10785172 392.54724648 -0.10775824 C403.69519994 -0.10659208 414.84313137 -0.1132419 425.99107933 -0.1238451 C438.66887883 -0.13589107 451.3466298 -0.13746301 464.02443002 -0.12505493 C470.49432867 -0.11915335 476.9641324 -0.11810219 483.43402481 -0.13005733 C489.35563074 -0.14087232 495.27706201 -0.13786505 501.19865961 -0.12379565 C503.34193405 -0.12113662 505.48522198 -0.12355288 507.62848322 -0.13153151 C510.54098033 -0.14162198 513.45286851 -0.1332286 516.36534119 -0.12025452 C517.61436232 -0.13121854 517.61436232 -0.13121854 518.8886162 -0.14240405 C526.75802682 -0.0697101 533.42620458 2.32285074 540.37101173 5.94197559 C541.64138283 6.59746387 541.64138283 6.59746387 542.93741798 7.26619434 C543.55487892 7.59232716 544.17233986 7.91845997 544.80851173 8.25447559 C544.80851173 8.91447559 544.80851173 9.57447559 544.80851173 10.25447559 C545.46851173 10.25447559 546.12851173 10.25447559 546.80851173 10.25447559 C546.80851173 10.91447559 546.80851173 11.57447559 546.80851173 12.25447559 C547.46851173 12.25447559 548.12851173 12.25447559 548.80851173 12.25447559 C548.80851173 12.91447559 548.80851173 13.57447559 548.80851173 14.25447559 C549.46851173 14.25447559 550.12851173 14.25447559 550.80851173 14.25447559 C554.80851173 19.54859324 554.80851173 19.54859324 554.80851173 23.25447559 C555.46851173 23.25447559 556.12851173 23.25447559 556.80851173 23.25447559 C559.41407285 29.19544325 559.10405179 35.07359269 559.09903908 41.43513966 C559.10911491 43.2704147 559.10911491 43.2704147 559.1193943 45.142766 C559.13510812 48.48809297 559.14174769 51.83317161 559.14302588 55.1785183 C559.1444511 57.27284581 559.14872778 59.36714759 559.15402031 61.4614687 C559.17250654 68.78034577 559.18069294 76.09915017 559.1791172 83.41804981 C559.17791708 90.21978664 559.1989974 97.02120549 559.23060453 103.82286191 C559.25683819 109.6787321 559.2674815 115.53449892 559.26620638 121.39042735 C559.2656987 124.8806269 559.27127298 128.37054384 559.29256248 131.86068439 C559.31569569 135.75932458 559.3063807 139.65753598 559.29435158 143.55623341 C559.30559059 144.69839817 559.31682961 145.84056293 559.32840919 147.01733875 C559.26218747 155.49280567 557.53174377 162.16962753 552.80851173 169.25447559 C552.14851173 169.25447559 551.48851173 169.25447559 550.80851173 169.25447559 C550.5416758 169.85260059 550.27483986 170.45072559 549.99991798 171.06697559 C546.39922129 177.67809084 539.49884288 180.59741944 532.80851173 183.25447559 C532.14851173 183.58447559 531.48851173 183.91447559 530.80851173 184.25447559 C527.89513065 184.35518098 525.00548479 184.39369466 522.09170628 184.38869667 C520.71457637 184.39222502 520.71457637 184.39222502 519.30962566 184.39582464 C516.19847918 184.40254133 513.08737422 184.40205562 509.97622108 184.40164661 C507.73701716 184.40494359 505.49781383 184.4086688 503.25861126 184.41278809 C497.07804844 184.42283532 490.89749533 184.42652926 484.7169255 184.4291774 C478.74430175 184.43267292 472.77168479 184.44081948 466.79906564 184.44872134 C450.7902059 184.46958416 434.7813443 184.48003879 418.77247413 184.48885095 C411.20094585 184.49305522 403.62941836 184.49827753 396.05789075 184.50353548 C370.14665618 184.5214281 344.23542138 184.53642433 318.32418156 184.54385567 C316.69686214 184.54433043 315.06954273 184.54480632 313.44222331 184.54528333 C312.63520599 184.5455197 311.82818866 184.54575608 310.99671627 184.54599962 C306.90785837 184.54720084 302.81900048 184.54841628 298.73014259 184.54964161 C297.91869077 184.54988176 297.10723895 184.55012191 296.27119768 184.55036934 C269.96246587 184.55826212 243.65377915 184.58169227 217.34506703 184.61419755 C189.53934144 184.64848979 161.73364222 184.6682063 133.92789513 184.67149991 C130.87577727 184.67191746 127.82365943 184.67239702 124.7715416 184.67292309 C124.02000754 184.67304628 123.26847349 184.67316947 122.49416568 184.6732964 C110.39518102 184.67562931 98.29624867 184.6912945 86.19728266 184.71176493 C74.03638249 184.73201375 61.87554521 184.73750474 49.71463131 184.7279943 C43.12525834 184.72323503 36.53602174 184.72540822 29.94666862 184.74475574 C23.91565185 184.76231123 17.88493003 184.76145151 11.85391045 184.74585845 C9.67077927 184.74347079 7.48762806 184.74786556 5.30452757 184.7596871 C2.33806084 184.77475696 -0.62735418 184.76516699 -3.59379482 184.74946022 C-4.44234392 184.75968243 -5.29089303 184.76990463 -6.16515574 184.78043661 C-13.91125489 184.69086003 -20.48596023 182.00251993 -26.56648827 177.19197559 C-27.19297264 176.70599903 -27.81945702 176.22002247 -28.46492577 175.71931934 C-30.14469982 174.29417167 -31.73219277 172.90625485 -33.19148827 171.25447559 C-33.19148827 170.59447559 -33.19148827 169.93447559 -33.19148827 169.25447559 C-33.85148827 169.25447559 -34.51148827 169.25447559 -35.19148827 169.25447559 C-40.11791772 161.04375984 -41.48361751 154.72562597 -41.38680077 145.16853809 C-41.38397087 144.11161762 -41.38114098 143.05469715 -41.37822533 141.96574879 C-41.36706677 138.60354059 -41.34196985 135.24160273 -41.31648827 131.87947559 C-41.30645289 129.5943232 -41.29732801 127.30916662 -41.28914452 125.02400684 C-41.26714158 119.43407149 -41.233707 113.84429286 -41.19148827 108.25447559 C-59.37624461 108.31497919 -77.56084539 108.39245707 -95.74543953 108.49019051 C-104.18870611 108.53517243 -112.63193028 108.57458152 -121.07527733 108.60091114 C-128.43377178 108.62387187 -135.79213229 108.6572482 -143.15052056 108.70317715 C-147.04741361 108.7271355 -150.9441738 108.74584709 -154.84113884 108.7520895 C-158.50853298 108.75812865 -162.17558708 108.77808556 -165.84285545 108.80875111 C-167.83160512 108.82174821 -169.82043416 108.8199582 -171.80922508 108.81775379 C-172.99270531 108.83029194 -174.17618553 108.84283009 -175.39552879 108.85574818 C-176.42424976 108.86035714 -177.45297073 108.86496611 -178.51286507 108.86971474 C-181.69785989 109.32721146 -182.97415679 109.92729721 -185.19148827 112.25447559 C-187.73355536 117.49857134 -187.47457314 122.83399758 -187.45218468 128.53375721 C-187.45601022 129.56708355 -187.45983577 130.60040988 -187.46377724 131.66504914 C-187.47409346 135.12646899 -187.47011766 138.58772255 -187.46614647 142.04915333 C-187.47049368 144.53126142 -187.47567686 147.01336816 -187.48163414 149.49547291 C-187.49364219 155.53694974 -187.49617572 161.57836124 -187.49383388 167.61984401 C-187.49204987 172.53097341 -187.49380213 177.44208933 -187.49805832 182.35321712 C-187.49865351 183.05254952 -187.4992487 183.75188191 -187.49986192 184.4724062 C-187.50107369 185.89315788 -187.50228782 187.31390955 -187.5035043 188.73466123 C-187.51437705 202.05405252 -187.51221853 215.37341848 -187.50611945 228.6928112 C-187.50094988 240.87390182 -187.51220726 253.05491249 -187.53121767 265.2359873 C-187.55059593 277.74884594 -187.55885214 290.26166674 -187.55509442 302.77454048 C-187.55318244 309.79744986 -187.55566967 316.82029116 -187.56980896 323.84318829 C-187.58296911 330.44647277 -187.58046291 337.04962356 -187.56739807 343.65291691 C-187.56502824 346.076881 -187.56778145 348.5008563 -187.57602119 350.92480755 C-187.58645558 354.23279539 -187.57841408 357.54024209 -187.56571007 360.84821033 C-187.57308435 361.80813765 -187.58045864 362.76806496 -187.58805639 363.75708097 C-187.54290066 369.34338815 -186.93865673 373.34389585 -184.19148827 378.25447559 C-180.74463056 380.55238073 -179.49029875 380.4988202 -175.43489647 380.48152637 C-174.2538987 380.48137531 -173.07290092 380.48122425 -171.85611534 380.48106861 C-170.58104622 380.47074604 -169.3059771 380.46042347 -167.99226952 380.44978809 C-166.68694771 380.4469582 -165.3816259 380.4441283 -164.03674889 380.44121265 C-160.56953311 380.43358307 -157.10248538 380.41394053 -153.63533592 380.3918047 C-150.09613379 380.37133165 -146.55690445 380.36220783 -143.01766014 380.35213184 C-136.0755339 380.33069389 -129.13351915 380.29656615 -122.19148827 380.25447559 C-122.96234764 379.53002247 -123.73320702 378.80556934 -124.52742577 378.05916309 C-125.54097685 377.08315094 -126.55396828 376.10655738 -127.56648827 375.12947559 C-128.3283242 374.41791309 -128.3283242 374.41791309 -129.10555077 373.69197559 C-132.43963758 370.44562791 -134.1779669 367.79977695 -135.19148827 363.25447559 C-134.94064938 358.48853676 -134.09347727 355.08510108 -131.19148827 351.25447559 C-130.53148827 351.25447559 -129.87148827 351.25447559 -129.19148827 351.25447559 C-129.19148827 350.59447559 -129.19148827 349.93447559 -129.19148827 349.25447559 C-124.30205953 345.99485643 -118.90135299 346.56216306 -113.19148827 347.25447559 C-110.12939168 348.58949015 -108.62607843 349.87650381 -106.19148827 352.25447559 C-106.19148827 352.91447559 -106.19148827 353.57447559 -106.19148827 354.25447559 C-105.53148827 354.25447559 -104.87148827 354.25447559 -104.19148827 354.25447559 C-104.19148827 354.91447559 -104.19148827 355.57447559 -104.19148827 356.25447559 C-103.53148827 356.25447559 -102.87148827 356.25447559 -102.19148827 356.25447559 C-102.19148827 356.91447559 -102.19148827 357.57447559 -102.19148827 358.25447559 C-101.53148827 358.25447559 -100.87148827 358.25447559 -100.19148827 358.25447559 C-100.19148827 358.91447559 -100.19148827 359.57447559 -100.19148827 360.25447559 C-99.53148827 360.25447559 -98.87148827 360.25447559 -98.19148827 360.25447559 C-98.19148827 360.91447559 -98.19148827 361.57447559 -98.19148827 362.25447559 C-97.53148827 362.25447559 -96.87148827 362.25447559 -96.19148827 362.25447559 C-96.19148827 362.91447559 -96.19148827 363.57447559 -96.19148827 364.25447559 C-95.53148827 364.25447559 -94.87148827 364.25447559 -94.19148827 364.25447559 C-94.19148827 364.91447559 -94.19148827 365.57447559 -94.19148827 366.25447559 C-93.53148827 366.25447559 -92.87148827 366.25447559 -92.19148827 366.25447559 C-92.19148827 366.91447559 -92.19148827 367.57447559 -92.19148827 368.25447559 C-91.53148827 368.25447559 -90.87148827 368.25447559 -90.19148827 368.25447559 C-88.50416549 370.23707985 -86.83782769 372.2377098 -85.19148827 374.25447559 C-84.53148827 374.58447559 -83.87148827 374.91447559 -83.19148827 375.25447559 C-83.19148827 375.91447559 -83.19148827 376.57447559 -83.19148827 377.25447559 C-82.53148827 377.25447559 -81.87148827 377.25447559 -81.19148827 377.25447559 C-81.19148827 377.91447559 -81.19148827 378.57447559 -81.19148827 379.25447559 C-80.53148827 379.25447559 -79.87148827 379.25447559 -79.19148827 379.25447559 C-79.19148827 379.91447559 -79.19148827 380.57447559 -79.19148827 381.25447559 C-78.53148827 381.25447559 -77.87148827 381.25447559 -77.19148827 381.25447559 C-77.19148827 381.91447559 -77.19148827 382.57447559 -77.19148827 383.25447559 C-76.53148827 383.25447559 -75.87148827 383.25447559 -75.19148827 383.25447559 C-75.19148827 383.91447559 -75.19148827 384.57447559 -75.19148827 385.25447559 C-74.53148827 385.25447559 -73.87148827 385.25447559 -73.19148827 385.25447559 C-73.19148827 385.91447559 -73.19148827 386.57447559 -73.19148827 387.25447559 C-72.53148827 387.25447559 -71.87148827 387.25447559 -71.19148827 387.25447559 C-68.37186907 392.203195 -68.14520878 396.70759013 -69.19148827 402.25447559 C-70.63850975 404.41804981 -70.63850975 404.41804981 -72.68758202 406.55916309 C-73.50444481 407.42009571 -74.3213076 408.28102833 -75.16292381 409.16804981 C-76.17140439 410.19787877 -77.18102921 411.22658783 -78.19148827 412.25447559 C-79.4425694 413.54237624 -80.69362564 414.83030107 -81.94466209 416.11824512 C-85.50519275 419.7678866 -89.09430449 423.38804884 -92.69490623 426.99812794 C-94.95749291 429.2705498 -97.2091944 431.55342673 -99.46101952 433.83650684 C-100.90697694 435.28898426 -102.35356876 436.74083047 -103.80086327 438.19197559 C-104.46865807 438.8721172 -105.13645287 439.5522588 -105.82448387 440.25301075 C-109.9584421 444.36731549 -113.07746802 446.83927289 -119.00398827 447.62947559 C-124.29578629 447.00691112 -128.40827902 445.43301896 -131.84773827 441.23103809 C-134.11704751 437.53710694 -135.17854346 435.00527459 -135.25398827 430.62947559 C-133.29715705 424.4136588 -130.93970956 420.71488766 -126.03914452 416.53572559 C-125.31863914 415.91762012 -124.59813377 415.29951466 -123.85579491 414.66267872 C-123.03196312 413.96561817 -123.03196312 413.96561817 -122.19148827 413.25447559 C-122.89368996 413.24860935 -123.59589165 413.24274311 -124.31937218 413.2366991 C-130.98256918 413.1784569 -137.64545606 413.10620419 -144.30833721 413.01876068 C-147.7326605 412.97429941 -151.15687144 412.93499254 -154.58138084 412.90804005 C-158.53109318 412.87671643 -162.48032369 412.82193971 -166.42976952 412.76619434 C-167.64167458 412.75980442 -168.85357964 412.7534145 -170.10220909 412.74683094 C-183.81658741 412.51288493 -196.94857771 408.8766037 -207.19148827 399.25447559 C-211.19148827 394.82204316 -211.19148827 394.82204316 -211.19148827 391.25447559 C-211.85148827 391.25447559 -212.51148827 391.25447559 -213.19148827 391.25447559 C-213.19148827 389.93447559 -213.19148827 388.61447559 -213.19148827 387.25447559 C-214.18148827 387.25447559 -215.17148827 387.25447559 -216.19148827 387.25447559 C-216.19148827 293.20447559 -216.19148827 199.15447559 -216.19148827 102.25447559 C-215.20148827 102.25447559 -214.21148827 102.25447559 -213.19148827 102.25447559 C-213.19148827 100.93447559 -213.19148827 99.61447559 -213.19148827 98.25447559 C-212.53148827 98.25447559 -211.87148827 98.25447559 -211.19148827 98.25447559 C-211.04711327 97.63572559 -210.90273827 97.01697559 -210.75398827 96.37947559 C-210.19148827 94.25447559 -210.19148827 94.25447559 -209.19148827 92.25447559 C-208.53148827 92.25447559 -207.87148827 92.25447559 -207.19148827 92.25447559 C-207.19148827 91.59447559 -207.19148827 90.93447559 -207.19148827 90.25447559 C-206.53148827 90.25447559 -205.87148827 90.25447559 -205.19148827 90.25447559 C-205.19148827 89.59447559 -205.19148827 88.93447559 -205.19148827 88.25447559 C-202.96101952 86.59822559 -202.96101952 86.59822559 -200.00398827 84.75447559 C-199.04105858 84.14603809 -198.07812889 83.53760059 -197.08601952 82.91072559 C-187.30584097 77.31451007 -177.42004387 76.96495942 -166.40999413 77.02742481 C-165.03922598 77.02798997 -163.66845723 77.02767033 -162.29768944 77.0265398 C-158.60200528 77.02596937 -154.90645273 77.0376732 -151.21079898 77.05168772 C-147.339099 77.06424698 -143.46739553 77.06536965 -139.59567833 77.06773853 C-132.27546873 77.0739381 -124.95531935 77.09032817 -117.63513619 77.11043751 C-109.29652146 77.13284409 -100.95790376 77.14380188 -92.61926639 77.15382838 C-75.47663894 77.17469585 -58.33406998 77.20984201 -41.19148827 77.25447559 C-41.19592949 76.66645161 -41.20037071 76.07842762 -41.20494652 75.47258472 C-41.24926772 69.3404989 -41.27939121 63.20845875 -41.30135155 57.07625294 C-41.3113956 54.78912475 -41.32503334 52.50200937 -41.34236717 50.21492481 C-41.36668534 46.92338873 -41.37798751 43.63202277 -41.38680077 40.34041309 C-41.39712334 39.3214394 -41.40744591 38.30246571 -41.41808128 37.25261402 C-41.41887908 32.17977199 -41.22446679 28.00278183 -39.19148827 23.25447559 C-38.53148827 23.25447559 -37.87148827 23.25447559 -37.19148827 23.25447559 C-37.04711327 22.65635059 -36.90273827 22.05822559 -36.75398827 21.44197559 C-36.30424437 19.69297155 -35.76256486 17.96770537 -35.19148827 16.25447559 C-34.53148827 16.25447559 -33.87148827 16.25447559 -33.19148827 16.25447559 C-33.19148827 15.59447559 -33.19148827 14.93447559 -33.19148827 14.25447559 C-32.53148827 14.25447559 -31.87148827 14.25447559 -31.19148827 14.25447559 C-30.53148827 12.93447559 -29.87148827 11.61447559 -29.19148827 10.25447559 C-28.53148827 10.25447559 -27.87148827 10.25447559 -27.19148827 10.25447559 C-27.19148827 9.59447559 -27.19148827 8.93447559 -27.19148827 8.25447559 C-24.19148827 6.25447559 -24.19148827 6.25447559 -21.19148827 6.25447559 C-21.19148827 5.59447559 -21.19148827 4.93447559 -21.19148827 4.25447559 C-13.91319487 1.16671476 -7.84031378 -0.04116472 0 0 Z M16.80851173 62.25447559 C15.90232927 65.06356273 15.90232927 65.06356273 16.24601173 67.87947559 C16.28597267 68.79986622 16.32593361 69.72025684 16.36710548 70.66853809 C16.8142626 73.28816649 17.37345599 75.02649074 18.80851173 77.25447559 C23.45747181 80.35378231 28.21251163 79.70304434 33.68351173 79.75447559 C34.77276955 79.79572559 35.86202736 79.83697559 36.98429298 79.87947559 C42.58837765 80.05965226 42.58837765 80.05965226 47.66080666 78.06136036 C50.37157564 75.05116561 51.478676 72.18821965 51.37101173 68.19197559 C51.18937511 64.74087979 50.84222615 63.31227173 49.05851173 60.25447559 C44.14783122 55.88942625 39.81792639 55.83198566 33.49601173 55.75447559 C32.66650002 55.71322559 31.8369883 55.67197559 30.98233986 55.62947559 C24.68135094 55.54990509 20.67311762 57.11967407 16.80851173 62.25447559 Z M79.80851173 58.25447559 C79.80851173 58.91447559 79.80851173 59.57447559 79.80851173 60.25447559 C79.14851173 60.25447559 78.48851173 60.25447559 77.80851173 60.25447559 C75.32172697 63.98465273 74.96711501 67.93570495 75.80851173 72.25447559 C77.13934092 75.4928215 78.85030076 77.38101371 81.80851173 79.25447559 C87.25841601 80.32928829 92.68509538 80.19540928 98.21343422 80.13663197 C99.92273178 80.14398159 101.63201847 80.15438663 103.34128088 80.1675846 C108.03866604 80.19489837 112.73503989 80.1784743 117.43240798 80.15488923 C122.49794426 80.13701597 127.56332338 80.15940171 132.62883949 80.17667103 C142.55199341 80.20396765 152.47476617 80.19349186 162.39791567 80.16975752 C170.4607836 80.15122883 178.52354699 80.1467056 186.58643341 80.15224743 C187.73317641 80.15303134 188.87991941 80.15381525 190.0614122 80.15462291 C192.39085236 80.15628866 194.72029251 80.15799244 197.04973262 80.15973385 C218.9012332 80.17452822 240.75252426 80.14716253 262.60397898 80.1049154 C281.36307144 80.06954916 300.1219136 80.06796147 318.8810215 80.0916338 C340.65487438 80.1190824 362.42858558 80.12736161 384.20244783 80.10369891 C386.52310048 80.10121737 388.84375314 80.0987539 391.16440582 80.09630871 C392.30627399 80.09508807 393.44814215 80.09386743 394.62461238 80.0926098 C402.68048263 80.08526961 410.7362775 80.09150895 418.79214096 80.10281277 C428.60566991 80.11613749 438.41890048 80.10793947 448.2323776 80.07207624 C453.24167774 80.05429024 458.25050213 80.04616603 463.25981331 80.06391621 C467.84244775 80.07987089 472.42414249 80.06828003 477.00667172 80.03437992 C478.66739104 80.02696209 480.32819239 80.02973191 481.98887099 80.04352615 C484.24186311 80.06073104 486.49163767 80.04122334 488.74444103 80.01231575 C490.62316508 80.01004147 490.62316508 80.01004147 492.53984314 80.00772125 C497.15121177 78.94505818 498.19484351 77.13755891 500.80851173 73.25447559 C501.65581405 70.51452902 501.65581405 70.51452902 501.55851173 67.75447559 C501.59460548 66.85728809 501.63069923 65.96010059 501.66788673 65.03572559 C500.5687284 61.47844952 499.20316333 59.88209854 496.33874071 57.5415287 C490.62369974 54.63445534 483.7065235 55.45308767 477.42846107 55.51949024 C475.73409428 55.51544025 474.03973208 55.50875999 472.34538478 55.49967909 C467.69398784 55.48238813 463.04339009 55.50250748 458.39206278 55.52876377 C453.3743224 55.55056085 448.35665578 55.53773379 443.33889198 55.52919483 C433.51180293 55.51792651 423.68502593 55.53855957 413.85799006 55.56977075 C402.41933858 55.60483212 390.98074776 55.60768888 379.54205092 55.60900193 C359.13772103 55.61237828 338.73353339 55.64401264 318.32926369 55.69197559 C298.51837928 55.73851007 278.70758511 55.76682757 258.8966465 55.77400684 C257.06579524 55.77467515 257.06579524 55.77467515 255.19795708 55.77535695 C252.73918716 55.77624213 250.28041724 55.77712618 247.82164733 55.77800909 C246.60882813 55.77844822 245.39600894 55.77888735 244.14643764 55.77933979 C242.93672933 55.77977176 241.72702102 55.78020374 240.48065488 55.7806488 C221.61503944 55.78804612 202.7494386 55.81076417 183.88383916 55.83560058 C177.04027934 55.84447699 170.19672089 55.85135108 163.35315756 55.85684484 C152.5008459 55.86570128 141.64858811 55.88121871 130.79631046 55.91039366 C125.83587891 55.92362595 120.87549496 55.93374243 115.91504478 55.93531513 C111.37844198 55.93688496 106.84195971 55.94765846 102.30539437 55.96595412 C100.66019361 55.97098479 99.01497847 55.97263094 97.36977122 55.97063655 C95.14112904 55.96845581 92.91286833 55.97845135 90.68427181 55.99162006 C88.82401787 55.99535956 88.82401787 55.99535956 86.92618304 55.99917459 C83.96926676 56.24131163 82.29362642 56.69786696 79.80851173 58.25447559 Z M17.80851173 110.25447559 C15.82776114 114.21597679 16.25529471 118.94684194 16.80851173 123.25447559 C18.98309129 126.36101782 20.33057625 127.84256957 23.99415886 128.86362344 C27.55417064 129.35803133 31.06473763 129.39321619 34.65065765 129.38311005 C35.43773509 129.38486308 36.22481253 129.38661612 37.03574079 129.38842228 C39.68314962 129.39308826 42.33050367 129.39061524 44.97791481 129.38818836 C46.89114906 129.39005603 48.80438294 129.39235656 50.7176162 129.39505368 C55.98313975 129.4011835 61.24864744 129.4010367 66.51417375 129.39985931 C72.18980356 129.3996556 77.86542824 129.40517117 83.54105568 129.40991688 C94.6633845 129.41823032 105.78570801 129.42097203 116.90803967 129.42152926 C125.94628704 129.42200406 134.98453265 129.42405703 144.02277946 129.42722988 C165.46543517 129.43460436 186.90808914 129.44075451 208.35074615 129.44023132 C209.37950698 129.44020796 209.37950698 129.44020796 210.42905086 129.44018411 C213.90523985 129.44010101 217.38142885 129.44000197 220.85761784 129.43989941 C221.54801176 129.43987946 222.23840569 129.43985952 222.94972064 129.43983897 C224.3458653 129.43979853 225.74200995 129.43975673 227.13815461 129.43971358 C248.86307851 129.43910073 270.58798682 129.44660886 292.31290627 129.46028614 C316.71592418 129.4756431 341.11892923 129.48423993 365.52195275 129.48332292 C378.44474885 129.48299056 391.36752736 129.48575459 404.29031944 129.49650097 C415.29167118 129.50559072 426.29299734 129.50779378 437.29435121 129.50099155 C442.90930989 129.4977187 448.52421945 129.49769719 454.13917351 129.5063448 C459.27737808 129.51417692 464.41549432 129.51281215 469.55369665 129.50406066 C471.41435968 129.50251841 473.2750292 129.50436897 475.13568459 129.50992074 C477.66212499 129.51696089 480.18825382 129.51170286 482.71468353 129.50336456 C483.43928148 129.50833274 484.16387944 129.51330092 484.9104349 129.51841965 C490.18759227 129.48152674 495.71899651 129.21125522 499.71476173 125.46931934 C501.79764553 121.25147965 501.55957694 116.82176399 500.80851173 112.25447559 C498.57860645 109.10224985 498.57860645 109.10224985 495.80851173 107.25447559 C495.47851173 106.92447559 495.14851173 106.59447559 494.80851173 106.25447559 C492.30610006 106.15198865 489.83111431 106.11532401 487.32803154 106.12025452 C486.5314633 106.11790229 485.73489506 106.11555006 484.91418839 106.11312655 C482.21043144 106.10640114 479.50672217 106.10689583 476.80295753 106.10730457 C474.85875142 106.10400814 472.91454599 106.10028305 470.97034144 106.09616309 C465.60071 106.08610977 460.23108973 106.08242097 454.8614502 106.07977378 C449.08080885 106.07588056 443.30017645 106.06630157 437.51954079 106.05756092 C423.54576809 106.03776847 409.57199463 106.0277267 395.59821141 106.01883313 C389.02494708 106.01445471 382.45168356 106.00908674 375.87841988 106.00384426 C354.0396039 105.98682907 332.20078866 105.97230872 310.36196709 105.96509552 C308.94891701 105.96462076 307.53586693 105.96414487 306.12281685 105.96366786 C305.42205291 105.96343148 304.72128898 105.96319511 303.99928978 105.96295157 C300.44871793 105.96175034 296.89814608 105.9605349 293.34757423 105.95930958 C292.29063063 105.95894935 292.29063063 105.95894935 291.21233463 105.95858185 C268.36108768 105.95068705 245.50989261 105.92725263 222.65866831 105.89475363 C198.51305652 105.8604763 174.36747527 105.84074746 150.22183871 105.83745128 C137.05421697 105.83528232 123.88667146 105.82647737 110.71907234 105.8009901 C99.50747749 105.77933964 88.29597736 105.77120473 77.08436397 105.78095689 C71.36026035 105.78551805 65.6363524 105.7835103 59.91227531 105.76419544 C54.67647803 105.7466802 49.44102086 105.74746619 44.20522055 105.76309273 C42.30678502 105.76548661 40.40832666 105.76105405 38.50992623 105.74926408 C35.93698423 105.7342693 33.36526677 105.74373066 30.79235649 105.75949097 C29.67661129 105.74415766 29.67661129 105.74415766 28.53832579 105.72851458 C23.69026856 105.7937055 21.20944871 106.80318198 17.80851173 110.25447559 Z " fill="#003060" transform="translate(281.1914882659912,463.7455244064331)"/>
<path d="M0 0 C2.51834106 -0.36076355 2.51834106 -0.36076355 5.73486328 -0.34057617 C6.93595734 -0.34034958 8.13705139 -0.34012299 9.37454224 -0.33988953 C11.32769852 -0.31666374 11.32769852 -0.31666374 13.3203125 -0.29296875 C14.66266405 -0.28737416 16.00502173 -0.28310341 17.34738159 -0.28010559 C20.88210941 -0.26864585 24.41646798 -0.23916959 27.9510498 -0.20599365 C31.55715947 -0.17531671 35.16332874 -0.16160538 38.76953125 -0.14648438 C45.84650532 -0.11430052 52.92322857 -0.06309094 60 0 C61.17666004 2.24525946 62.3414074 4.49544142 63.5 6.75 C63.83386719 7.38421875 64.16773438 8.0184375 64.51171875 8.671875 C66.27175533 12.12010993 67 14.04840069 67 18 C67.66 18 68.32 18 69 18 C69 19.32 69 20.64 69 22 C69.66 22 70.32 22 71 22 C71.23074219 22.68707031 71.46148437 23.37414062 71.69921875 24.08203125 C72.02535156 24.98308594 72.35148438 25.88414063 72.6875 26.8125 C73.00074219 27.70582031 73.31398438 28.59914063 73.63671875 29.51953125 C75.33329602 32.60642686 76.87441511 33.43720755 80 35 C80.88558594 35.46921875 81.77117187 35.9384375 82.68359375 36.421875 C83.59238281 36.86015625 84.50117188 37.2984375 85.4375 37.75 C86.34371094 38.19859375 87.24992188 38.6471875 88.18359375 39.109375 C94.52022055 41.11319041 100.99712342 37.76131784 107 35.625 C107.8765625 35.32078125 108.753125 35.0165625 109.65625 34.703125 C113.33193493 33.4077782 116.75310142 32.13373673 120.1875 30.2734375 C123.95791661 28.56627665 125.86347338 28.376323 130 29 C133.28239351 31.31105442 135.9469781 34.15722803 138.70703125 37.05859375 C139.51363693 37.87747574 140.32024261 38.69635773 141.15129089 39.54005432 C143.72201004 42.15653093 146.26755206 44.79597233 148.8125 47.4375 C151.38033537 50.07011305 153.95302287 52.69788914 156.52726746 55.32423401 C158.12697061 56.95988193 159.72192798 58.60018704 161.3117218 60.24546814 C162.02974472 60.98616043 162.74776764 61.72685272 163.48754883 62.48999023 C164.1192952 63.14507065 164.75104156 63.80015106 165.40193176 64.4750824 C166.94033986 66.09263904 166.94033986 66.09263904 169 67 C169.7378467 74.67360567 167.12927596 80.09247892 164 87 C163.2379125 88.80745094 162.48689935 90.61963433 161.75 92.4375 C161.43546875 93.19933594 161.1209375 93.96117187 160.796875 94.74609375 C159.94883471 97.1447175 159.44139692 99.49727944 159 102 C158.34 102 157.68 102 157 102 C158.83531806 107.75622482 160.90087527 113.35827453 163.23046875 118.93359375 C164 121 164 121 164 123 C164.9075 123.20625 165.815 123.4125 166.75 123.625 C171.39757304 124.94352676 175.51451868 127.20756624 179.79296875 129.4140625 C183.91097706 131.45049535 188.12977657 133.15156584 192.40625 134.82421875 C195 136 195 136 199 139 C199 143.62 199 148.24 199 153 C219.13 152.67 239.26 152.34 260 152 C255.05 147.05 255.05 147.05 250 142 C246.24324324 134.48648649 246.24324324 134.48648649 247 129 C248.90694256 124.29444267 251.4252674 120.94804952 255.875 118.4375 C259.9127313 116.73301681 262.73663405 116.75974809 267 118 C273.2587093 121.0513787 277.63227037 125.22367297 282.48828125 130.16015625 C283.27269089 130.94643906 284.05710052 131.73272186 284.86528015 132.54283142 C286.51340745 134.19765354 288.15794694 135.85605588 289.79907227 137.51782227 C292.31463996 140.06466656 294.8408346 142.6005724 297.36914062 145.13476562 C298.9719814 146.74677241 300.57421635 148.35938185 302.17578125 149.97265625 C302.93095535 150.73208023 303.68612946 151.49150421 304.46418762 152.27394104 C305.51119087 153.33535561 305.51119087 153.33535561 306.5793457 154.41821289 C307.19332718 155.03902237 307.80730865 155.65983185 308.43989563 156.29945374 C312.13675341 160.32910574 312.22297709 162.84774857 312.125 168.1875 C312.10695313 169.45980469 312.08890625 170.73210937 312.0703125 172.04296875 C312.04710937 173.01878906 312.02390625 173.99460938 312 175 C311.34 175 310.68 175 310 175 C309.61082649 175.87518532 309.61082649 175.87518532 309.21379089 176.76805115 C307.91049586 179.16458244 306.49366342 180.7730945 304.5793457 182.71118164 C303.88134354 183.42194351 303.18334137 184.13270538 302.46418762 184.86500549 C301.70901352 185.62240524 300.95383942 186.37980499 300.17578125 187.16015625 C299.00634224 188.33958046 299.00634224 188.33958046 297.8132782 189.54283142 C296.16243024 191.20380014 294.50885994 192.86206688 292.8527832 194.51782227 C290.32891514 197.04605647 287.8214586 199.58982374 285.31445312 202.13476562 C283.70671237 203.74837606 282.0980189 205.36103791 280.48828125 206.97265625 C279.37070183 208.11179222 279.37070183 208.11179222 278.23054504 209.27394104 C273.52219384 213.94170215 269.40507346 217.47797019 262.59375 218.28515625 C257.31299044 217.72358294 254.19360239 216.17757671 250.21484375 212.66796875 C249 211 249 211 249 207 C248.34 207 247.68 207 247 207 C246.49389276 200.92671312 247.95842058 197.22771463 251 192 C251.66 192 252.32 192 253 192 C253 191.34 253 190.68 253 190 C253.66 190 254.32 190 255 190 C255 189.34 255 188.68 255 188 C255.66 188 256.32 188 257 188 C257 187.34 257 186.68 257 186 C258.485 185.01 258.485 185.01 260 184 C239.87 184 219.74 184 199 184 C199 187.96 199 191.92 199 196 C196.0461857 201.90762861 184.46112831 204.6872372 178.4609375 206.98828125 C174.87427802 208.46279681 171.46241768 210.24442615 168.03125 212.046875 C166 213 166 213 164 213 C163.67 214.98 163.34 216.96 163 219 C162.34 219 161.68 219 161 219 C160.87625 219.721875 160.7525 220.44375 160.625 221.1875 C160 224 160 224 158.875 226.5 C156.98752355 231.89278986 160.20606056 238.76135995 162 244 C162.8353125 245.6396875 162.8353125 245.6396875 163.6875 247.3125 C165.0753328 250.15425287 165.2749245 251.88418897 165 255 C165.66 255 166.32 255 167 255 C168.97094808 259.92737019 169.1799928 263.78020872 169 269 C168.01 269 167.02 269 166 269 C166 269.66 166 270.32 166 271 C165.34 271 164.68 271 164 271 C163.67 271.99 163.34 272.98 163 274 C162.34 274 161.68 274 161 274 C161 274.66 161 275.32 161 276 C160.34 276 159.68 276 159 276 C159 276.66 159 277.32 159 278 C158.34 278 157.68 278 157 278 C157 278.66 157 279.32 157 280 C156.34 280 155.68 280 155 280 C155 280.66 155 281.32 155 282 C154.34 282 153.68 282 153 282 C153 282.66 153 283.32 153 284 C152.34 284 151.68 284 151 284 C151 284.66 151 285.32 151 286 C150.34 286 149.68 286 149 286 C149 286.66 149 287.32 149 288 C148.34 288 147.68 288 147 288 C147 288.66 147 289.32 147 290 C146.34 290 145.68 290 145 290 C145 290.66 145 291.32 145 292 C144.34 292 143.68 292 143 292 C142.67 292.99 142.34 293.98 142 295 C141.34 295 140.68 295 140 295 C140 295.66 140 296.32 140 297 C139.34 297 138.68 297 138 297 C138 297.66 138 298.32 138 299 C137.34 299 136.68 299 136 299 C136 299.66 136 300.32 136 301 C135.34 301 134.68 301 134 301 C134 301.66 134 302.32 134 303 C133.34 303 132.68 303 132 303 C132 303.66 132 304.32 132 305 C131.34 305 130.68 305 130 305 C130 305.66 130 306.32 130 307 C125.52767517 307.23019319 122.56142408 306.66638037 118.5 304.8125 C113.91926826 302.80771591 109.32660515 300.95470461 104.625 299.25 C103.50351562 298.84265625 102.38203125 298.4353125 101.2265625 298.015625 C94.46159463 295.88621623 90.40923581 295.96259393 83.875 298.4375 C83.15795898 298.70900879 82.44091797 298.98051758 81.70214844 299.26025391 C77.90003272 300.83253746 75.12969331 302.01628 73.25 305.875 C72.80746189 307.24189287 72.39094134 308.61746574 72 310 C71.29577892 311.42923096 70.56648616 312.84638562 69.8125 314.25 C68.48423946 316.81126734 67.61795413 319.17863365 67 322 C66.34 322 65.68 322 65 322 C64.9175 322.66 64.835 323.32 64.75 324 C63.73979683 328.0408127 62.01230249 332.98769751 59 336 C57.15881971 336.09381302 55.31402359 336.11743954 53.47045898 336.11352539 C52.28931015 336.11344986 51.10816132 336.11337433 49.89122009 336.11329651 C48.6058284 336.10813522 47.32043671 336.10297394 45.99609375 336.09765625 C44.0338662 336.09553383 44.0338662 336.09553383 42.03199768 336.09336853 C38.54837141 336.0895441 35.06478661 336.07971446 31.58117676 336.06866455 C28.02873292 336.05844882 24.47628241 336.05387056 20.92382812 336.04882812 C13.94920168 336.03809212 6.97460283 336.0210166 0 336 C-1.33333333 333.33333333 -2.66666667 330.66666667 -4 328 C-4.37382812 327.33484375 -4.74765625 326.6696875 -5.1328125 325.984375 C-6 324 -6 324 -6 320 C-6.66 320 -7.32 320 -8 320 C-11 313.5 -11 313.5 -11 309 C-11.66 309 -12.32 309 -13 309 C-13.226875 307.948125 -13.45375 306.89625 -13.6875 305.8125 C-14.95268135 302.76989314 -15.94637575 302.02835553 -18.91796875 300.45703125 C-22.25590441 299.17088881 -25.56720406 298.0057344 -29 297 C-29.83015625 296.75507813 -30.6603125 296.51015625 -31.515625 296.2578125 C-34.83452266 295.91339859 -37.21367843 296.71374732 -40.375 297.75 C-41.52355469 298.12640625 -42.67210937 298.5028125 -43.85546875 298.890625 C-47.31671643 300.11173598 -50.65658473 301.48600063 -54 303 C-64.38429433 307.59112691 -64.38429433 307.59112691 -70 307 C-70.66 305.68 -71.32 304.36 -72 303 C-72.66 303 -73.32 303 -74 303 C-74 302.34 -74 301.68 -74 301 C-74.66 301 -75.32 301 -76 301 C-76 300.34 -76 299.68 -76 299 C-76.66 299 -77.32 299 -78 299 C-78 298.34 -78 297.68 -78 297 C-78.66 297 -79.32 297 -80 297 C-80 296.34 -80 295.68 -80 295 C-80.598125 294.731875 -81.19625 294.46375 -81.8125 294.1875 C-83.99847854 293.00082594 -85.41332594 291.90400887 -87 290 C-87 289.34 -87 288.68 -87 288 C-87.66 288 -88.32 288 -89 288 C-89 287.34 -89 286.68 -89 286 C-89.66 286 -90.32 286 -91 286 C-91 285.34 -91 284.68 -91 284 C-91.66 284 -92.32 284 -93 284 C-93 283.34 -93 282.68 -93 282 C-93.66 282 -94.32 282 -95 282 C-95 281.34 -95 280.68 -95 280 C-95.66 280 -96.32 280 -97 280 C-97 279.34 -97 278.68 -97 278 C-97.66 278 -98.32 278 -99 278 C-99 277.34 -99 276.68 -99 276 C-99.66 276 -100.32 276 -101 276 C-101 275.34 -101 274.68 -101 274 C-101.66 274 -102.32 274 -103 274 C-103 273.34 -103 272.68 -103 272 C-103.61875 271.690625 -104.2375 271.38125 -104.875 271.0625 C-106.25 270.375 -107.625 269.6875 -109 269 C-109 266.36 -109 263.72 -109 261 C-108.34 261 -107.68 261 -107 261 C-107.04769531 260.29359375 -107.09539062 259.5871875 -107.14453125 258.859375 C-106.97549527 255.51520372 -106.05477865 253.29915238 -104.6875 250.25 C-100.10121102 239.61814827 -97.29572649 231.90645401 -100.625 220.4375 C-103.16230593 214.22002229 -106.33498918 211.85771993 -112.41479492 209.18603516 C-114.26474425 208.42793426 -116.13243585 207.71360609 -118 207 C-120.14719334 206.10743134 -122.29313305 205.21183778 -124.4375 204.3125 C-125.34371094 203.95800781 -126.24992187 203.60351562 -127.18359375 203.23828125 C-130.57879431 201.74552317 -133.77979942 199.84011462 -137 198 C-137 177.87 -137 157.74 -137 137 C-130.07 134.03 -123.14 131.06 -116 128 C-109.75119811 125.42863669 -109.75119811 125.42863669 -104 122 C-103.13219587 119.41781416 -103.13219587 119.41781416 -103 117 C-102.34 117 -101.68 117 -101 117 C-100.855625 116.071875 -100.71125 115.14375 -100.5625 114.1875 C-100 111 -100 111 -99 108 C-98.48473222 102.12594733 -99.43436823 98.30180118 -101.78125 92.9375 C-103.54883993 88.67715503 -104.92846163 84.30367864 -106.33666992 79.91381836 C-107.2023353 76.69982719 -107.2023353 76.69982719 -109 74 C-109.3125 70.625 -109.3125 70.625 -109 67 C-107.125 65.0625 -107.125 65.0625 -105 64 C-104.34 64 -103.68 64 -103 64 C-102.73108444 63.40805847 -102.46216888 62.81611694 -102.18510437 62.20623779 C-100.99663009 59.99372643 -99.77979863 58.49695044 -98.03833008 56.70019531 C-97.44043167 56.07985413 -96.84253326 55.45951294 -96.22651672 54.82037354 C-95.58071152 54.16293152 -94.93490631 53.5054895 -94.26953125 52.828125 C-93.26656258 51.8044986 -93.26656258 51.8044986 -92.24333191 50.76019287 C-90.82815791 49.32177574 -89.40997541 47.88631319 -87.98901367 46.45361328 C-85.82178765 44.25940329 -83.67974986 42.04240657 -81.53710938 39.82421875 C-80.1577485 38.42820529 -78.77693579 37.03362454 -77.39453125 35.640625 C-76.7588472 34.97508606 -76.12316315 34.30954712 -75.46821594 33.62384033 C-72.25748657 30.4441199 -70.82029829 29.10175799 -66.20947266 28.52978516 C-62.96750819 29.00476032 -60.53091569 29.75496199 -57.5625 31.125 C-52.61312033 33.29698503 -47.65779567 35.40506476 -42.625 37.375 C-41.95927979 37.64973145 -41.29355957 37.92446289 -40.60766602 38.20751953 C-34.77499955 40.46849287 -31.33505255 39.93130584 -25.640625 37.66015625 C-23.96226562 36.86931641 -23.96226562 36.86931641 -22.25 36.0625 C-21.12078125 35.53785156 -19.9915625 35.01320312 -18.828125 34.47265625 C-15.01952387 32.4894482 -13.82397784 30.90005249 -12.375 27 C-10.35395219 21.7866153 -8.1398024 16.6733463 -5.875 11.5625 C-5.52614746 10.76908203 -5.17729492 9.97566406 -4.81787109 9.15820312 C-4.31634521 8.02995117 -4.31634521 8.02995117 -3.8046875 6.87890625 C-3.50546387 6.2041626 -3.20624023 5.52941895 -2.89794922 4.83422852 C-2 3 -2 3 0 0 Z M-16.1875 126.375 C-27.25736111 139.39073513 -33.27301273 155.81432809 -32 173 C-30.72565352 184.08681442 -26.70356166 193.4940639 -21 203 C-20.62488281 203.62519531 -20.24976563 204.25039063 -19.86328125 204.89453125 C-18.97396313 206.30619979 -17.99556326 207.66113907 -17 209 C-16.34 209 -15.68 209 -15 209 C-15 209.66 -15 210.32 -15 211 C-14.34 211 -13.68 211 -13 211 C-13 211.66 -13 212.32 -13 213 C-12.34 213 -11.68 213 -11 213 C-11 213.66 -11 214.32 -11 215 C2.97882213 225.43272387 19.31907877 231.75382817 36.91015625 229.65234375 C42.76644075 228.78877763 47.69353388 227.60120888 53 225 C54.0725 224.5875 55.145 224.175 56.25 223.75 C61.48281874 221.51078466 66.45563483 218.41032829 71 215 C71 214.34 71 213.68 71 213 C71.66 213 72.32 213 73 213 C73 212.34 73 211.68 73 211 C73.66 211 74.32 211 75 211 C75 210.34 75 209.68 75 209 C75.66 209 76.32 209 77 209 C82.58053319 201.52263534 87.42768462 193.00310382 90 184 C90.2784375 183.06994141 90.2784375 183.06994141 90.5625 182.12109375 C94.50155569 167.26757125 91.6715149 153.42316812 85 140 C84.62230469 139.21882813 84.24460937 138.43765625 83.85546875 137.6328125 C82.38252157 134.62071826 80.86197727 131.79296591 79 129 C78.34 129 77.68 129 77 129 C77 128.34 77 127.68 77 127 C76.34 127 75.68 127 75 127 C74.73832031 126.40316406 74.47664063 125.80632812 74.20703125 125.19140625 C71.48856116 120.25593142 65.96073151 116.48036575 61 114 C60.01 114 59.02 114 58 114 C58 113.34 58 112.68 58 112 C32.01877411 100.61248397 3.36141825 105.23615125 -16.1875 126.375 Z " fill="#003060" transform="translate(202,81)"/>
<path d="M0 0 C0.92437142 -0.00311998 1.84874285 -0.00623996 2.80112553 -0.00945449 C5.87000647 -0.01737295 8.93868627 -0.01113499 12.00756836 -0.00482178 C14.21939204 -0.00753437 16.43121481 -0.01109681 18.64303589 -0.01544189 C24.63055016 -0.02453618 30.61799528 -0.02103384 36.60551071 -0.01468372 C42.88154024 -0.00960841 49.15756398 -0.01431943 55.43359375 -0.01745605 C66.64595427 -0.02132385 77.85828638 -0.01512157 89.07064021 -0.00493738 C99.22118126 0.00399718 109.37167656 0.00244484 119.5222168 -0.0067749 C131.33124419 -0.01749614 143.14024945 -0.02145227 154.94928265 -0.01555037 C161.19252813 -0.01243771 167.43574215 -0.01200202 173.6789856 -0.01862335 C179.54936982 -0.02441473 185.41966792 -0.02036709 191.29004288 -0.00883484 C193.44022606 -0.00619784 195.59041652 -0.00693688 197.74059677 -0.01136017 C200.68376936 -0.01685503 203.62666885 -0.00993387 206.56982422 0 C207.41322892 -0.00446144 208.25663363 -0.00892289 209.12559605 -0.01351953 C220.99356406 0.06375641 230.78590801 3.12971421 240.28491211 10.25396729 C240.28491211 10.91396729 240.28491211 11.57396729 240.28491211 12.25396729 C240.86241211 12.46021729 241.43991211 12.66646729 242.03491211 12.87896729 C245.14803911 14.78143378 246.4923115 17.11691621 248.28491211 20.25396729 C248.28491211 21.24396729 248.28491211 22.23396729 248.28491211 23.25396729 C248.94491211 23.25396729 249.60491211 23.25396729 250.28491211 23.25396729 C252.75753292 28.99489657 252.54101601 34.42892448 252.48022461 40.55865479 C252.47597977 42.17732956 252.47597977 42.17732956 252.47164917 43.82870483 C252.46048871 47.26224027 252.43539141 50.69551119 252.40991211 54.12896729 C252.39987698 56.46229684 252.39075206 58.7956305 252.38256836 61.12896729 C252.3605629 66.83739028 252.32712638 72.54565988 252.28491211 78.25396729 C253.01690984 78.25028011 253.74890757 78.24659294 254.50308704 78.24279404 C272.34894302 78.15429415 290.19475495 78.08818544 308.04078388 78.0467186 C316.67114985 78.02613035 325.30136895 77.99808162 333.93164062 77.95220947 C341.45749251 77.91222682 348.98323797 77.88650733 356.50919312 77.87761331 C360.49081903 77.8724178 364.47214062 77.86028543 368.45366859 77.83104706 C372.20886453 77.80369676 375.96363366 77.79556137 379.71891975 77.80153656 C381.73862303 77.79992843 383.75828089 77.77850907 385.77786255 77.75628662 C398.0422079 77.81125863 407.24639283 80.84604237 416.28491211 89.25396729 C422.28491211 95.40272762 422.28491211 95.40272762 422.28491211 98.25396729 C422.94491211 98.25396729 423.60491211 98.25396729 424.28491211 98.25396729 C424.28491211 99.57396729 424.28491211 100.89396729 424.28491211 102.25396729 C424.94491211 102.25396729 425.60491211 102.25396729 426.28491211 102.25396729 C426.61491211 104.23396729 426.94491211 106.21396729 427.28491211 108.25396729 C427.94491211 108.25396729 428.60491211 108.25396729 429.28491211 108.25396729 C429.33065015 143.50808088 429.36591126 178.76218849 429.38704277 214.0163255 C429.3895443 218.17464104 429.39213293 222.33295652 429.39477539 226.49127197 C429.39556232 227.73308548 429.39556232 227.73308548 429.39636515 228.99998613 C429.4050772 242.41991972 429.42085156 255.83983625 429.4392177 269.25975971 C429.45789452 283.02105931 429.46902412 296.78234995 429.4730891 310.54366171 C429.47583878 319.04098599 429.48453572 327.53826204 429.50074504 336.03557147 C429.51128458 341.85571862 429.51451965 347.67584069 429.51191486 353.4959967 C429.51062881 356.85823888 429.51373433 360.22032811 429.52332306 363.58256721 C429.5331951 367.2209359 429.53090944 370.85909402 429.52542114 374.49746704 C429.53415967 376.10541753 429.53415967 376.10541753 429.54307473 377.74585187 C429.53909263 378.71473455 429.53511053 379.68361722 429.53100777 380.68185997 C429.53176721 381.52256078 429.53252665 382.36326159 429.5333091 383.22943819 C429.28491211 385.25396729 429.28491211 385.25396729 427.28491211 387.25396729 C426.91366211 388.40896729 426.54241211 389.56396729 426.15991211 390.75396729 C423.70150805 397.65010587 418.44860824 404.27780423 412.28491211 408.25396729 C411.62491211 408.25396729 410.96491211 408.25396729 410.28491211 408.25396729 C410.28491211 408.91396729 410.28491211 409.57396729 410.28491211 410.25396729 C409.07934607 410.88428861 407.87028022 411.50791698 406.65991211 412.12896729 C405.98702148 412.47701416 405.31413086 412.82506104 404.62084961 413.18365479 C399.63487522 415.46819824 395.30959109 416.506682 389.82055664 416.57281494 C387.92927536 416.60261948 387.92927536 416.60261948 385.99978638 416.63302612 C384.6391009 416.64489971 383.27841357 416.65656273 381.91772461 416.66802979 C380.51381309 416.68675763 379.10991264 416.70633223 377.70602417 416.72671509 C374.02692206 416.77787189 370.34778353 416.81758509 366.66851807 416.8548584 C362.90774649 416.89500175 359.14712428 416.94604675 355.38647461 416.99615479 C348.01938988 417.09271901 340.6522324 417.17718552 333.28491211 417.25396729 C334.05577148 417.97842041 334.82663086 418.70287354 335.62084961 419.44927979 C336.63440069 420.42529194 337.64739213 421.4018855 338.65991211 422.37896729 C339.16780273 422.85334229 339.67569336 423.32771729 340.19897461 423.81646729 C344.53910668 428.04238535 346.23569469 431.59622684 346.34741211 437.62896729 C344.88856114 442.60622354 342.01305656 445.72385361 338.28491211 449.25396729 C333.919989 451.43642884 328.9768381 451.13404719 324.28491211 450.25396729 C320.10935659 447.75568557 316.57410651 444.84100212 313.28491211 441.25396729 C313.28491211 440.59396729 313.28491211 439.93396729 313.28491211 439.25396729 C312.62491211 439.25396729 311.96491211 439.25396729 311.28491211 439.25396729 C311.28491211 438.59396729 311.28491211 437.93396729 311.28491211 437.25396729 C310.62491211 437.25396729 309.96491211 437.25396729 309.28491211 437.25396729 C309.28491211 436.59396729 309.28491211 435.93396729 309.28491211 435.25396729 C308.62491211 435.25396729 307.96491211 435.25396729 307.28491211 435.25396729 C307.28491211 434.59396729 307.28491211 433.93396729 307.28491211 433.25396729 C306.62491211 433.25396729 305.96491211 433.25396729 305.28491211 433.25396729 C305.28491211 432.59396729 305.28491211 431.93396729 305.28491211 431.25396729 C304.62491211 431.25396729 303.96491211 431.25396729 303.28491211 431.25396729 C303.28491211 430.59396729 303.28491211 429.93396729 303.28491211 429.25396729 C302.62491211 429.25396729 301.96491211 429.25396729 301.28491211 429.25396729 C299.62866211 427.53912354 299.62866211 427.53912354 297.78491211 425.31646729 C295.39564212 422.3335155 295.39564212 422.3335155 292.28491211 420.25396729 C292.28491211 419.59396729 292.28491211 418.93396729 292.28491211 418.25396729 C291.62491211 418.25396729 290.96491211 418.25396729 290.28491211 418.25396729 C290.28491211 417.59396729 290.28491211 416.93396729 290.28491211 416.25396729 C289.62491211 416.25396729 288.96491211 416.25396729 288.28491211 416.25396729 C288.28491211 415.59396729 288.28491211 414.93396729 288.28491211 414.25396729 C287.62491211 414.25396729 286.96491211 414.25396729 286.28491211 414.25396729 C286.28491211 413.59396729 286.28491211 412.93396729 286.28491211 412.25396729 C285.62491211 412.25396729 284.96491211 412.25396729 284.28491211 412.25396729 C284.28491211 411.59396729 284.28491211 410.93396729 284.28491211 410.25396729 C283.62491211 410.25396729 282.96491211 410.25396729 282.28491211 410.25396729 C279.46518599 405.30506021 279.23903939 400.80105873 280.28491211 395.25396729 C281.72973633 393.09039307 281.72973633 393.09039307 283.77709961 390.94927979 C284.59380127 390.08834717 285.41050293 389.22741455 286.25195312 388.34039307 C287.26156803 387.3102386 288.27269163 386.28156165 289.28491211 385.25396729 C289.88302704 384.64067566 290.48114197 384.02738403 291.09738159 383.39550781 C295.31704945 379.07127121 299.5707768 374.78233257 303.84326172 370.51031494 C306.11510872 368.23625342 308.37879848 365.95426721 310.64233398 363.67193604 C312.0917151 362.21962526 313.54156779 360.76778492 314.99194336 359.31646729 C315.66489944 358.63632568 316.33785553 357.95618408 317.03120422 357.25543213 C317.66253769 356.62717529 318.29387115 355.99891846 318.94433594 355.35162354 C319.4945491 354.79998535 320.04476227 354.24834717 320.61164856 353.67999268 C324.23331065 350.59346031 327.40135453 349.79863782 332.19506836 349.94146729 C337.25357125 350.69787893 340.42528206 353.23598433 343.65991211 357.06646729 C346.13020117 361.91203428 346.81535724 365.3443648 345.34741211 370.62896729 C342.88847421 375.68472746 338.35877416 381.71703626 333.28491211 384.25396729 C341.05607519 384.32345537 348.82716559 384.3767723 356.59856129 384.4094038 C360.20709514 384.42506479 363.81541655 384.44631044 367.42382812 384.48028564 C370.90569333 384.51286445 374.38735412 384.53081704 377.86935997 384.53859901 C379.84533308 384.54684584 381.82122386 384.57026767 383.79707336 384.59385681 C384.99809189 384.5940834 386.19911041 384.59431 387.43652344 384.59454346 C389.02537102 384.60453621 389.02537102 384.60453621 390.64631653 384.61473083 C393.27027756 384.45931009 393.27027756 384.45931009 395.0254364 383.04518127 C398.83975493 377.62049491 398.57011376 372.28650707 398.54560852 365.89839172 C398.54943407 364.84479649 398.55325961 363.79120125 398.55720109 362.70567888 C398.5675328 359.16972254 398.56353856 355.63392853 398.55957031 352.09796143 C398.56391667 349.56511789 398.56909956 347.03227568 398.57505798 344.49943542 C398.58707382 338.33048997 398.58959844 332.16160451 398.58725772 325.99264962 C398.58547469 320.97851296 398.58722387 315.96438952 398.59148216 310.95025444 C398.59237495 309.87980432 398.59237495 309.87980432 398.59328577 308.78772895 C398.59449752 307.337985 398.59571165 305.88824106 398.59692814 304.43849712 C398.60780439 290.84301966 398.60564074 277.24756701 398.5995433 263.65208816 C398.59437361 251.21483126 398.60563078 238.77765266 398.62464152 226.34041125 C398.64401363 213.56881642 398.65227705 200.79725864 398.64851826 188.02564901 C398.64660532 180.85576293 398.64910284 173.68594351 398.6632328 166.51606941 C398.6763835 159.77489453 398.67389513 153.03390198 398.66082191 146.29271889 C398.65845016 143.81673378 398.66121214 141.34073772 398.66944504 138.86476517 C398.67986317 135.48850184 398.67185106 132.1127704 398.65913391 128.73652649 C398.6665082 127.75354948 398.67388248 126.77057246 398.68148023 125.75780827 C398.63917003 120.42933979 398.08745027 116.94160699 395.28491211 112.25396729 C395.28491211 111.59396729 395.28491211 110.93396729 395.28491211 110.25396729 C391.98003083 109.26638429 388.96922147 109.11749632 385.5269165 109.0957489 C384.35185043 109.08596008 383.17678436 109.07617126 381.96611023 109.06608582 C380.68073868 109.06033035 379.39536713 109.05457489 378.07104492 109.04864502 C376.70101122 109.03906268 375.33098045 109.02905239 373.96095276 109.01864624 C370.2443848 108.99162966 366.52780418 108.97060254 362.81119251 108.95064425 C358.92608654 108.92876466 355.04101943 108.90138563 351.15594482 108.87458801 C343.8002029 108.82468781 336.44443938 108.77973907 329.08865523 108.73656565 C320.71384733 108.68717043 312.33907843 108.63226077 303.96430826 108.57688606 C286.73787894 108.46310704 269.51141339 108.35625912 252.28491211 108.25396729 C252.29379456 108.83310883 252.302677 109.41225037 252.31182861 110.00894165 C252.40082737 116.07668108 252.46086266 122.14423287 252.50463867 128.21246338 C252.524663 130.47230572 252.55189073 132.73209683 252.58666992 134.99176025 C252.63559289 138.2537709 252.65797343 141.51509216 252.67553711 144.77740479 C252.70650482 146.27489761 252.70650482 146.27489761 252.73809814 147.80264282 C252.7406594 155.94307853 250.8121651 162.4630878 246.28491211 169.25396729 C245.62491211 169.25396729 244.96491211 169.25396729 244.28491211 169.25396729 C244.02838867 169.84177979 243.77186523 170.42959229 243.50756836 171.03521729 C239.78303837 177.79410877 232.44593681 181.99994189 225.28491211 184.25396729 C214.73504999 186.11573175 203.59410571 185.39462147 192.92358398 185.38336182 C190.76249665 185.38471845 188.60140955 185.38649986 186.44032288 185.38867188 C180.59537497 185.39321494 174.7504448 185.39146953 168.9054966 185.38829279 C162.77541686 185.38575301 156.64533859 185.38811123 150.51525879 185.38967896 C140.22281625 185.39149593 129.9303809 185.38910672 119.63793945 185.38433838 C107.75515209 185.37889667 95.87238189 185.38065966 83.98959494 185.38616478 C73.76932679 185.39070935 63.54906379 185.39133988 53.32879496 185.38872612 C47.23253505 185.38717074 41.13628319 185.38694928 35.0400238 185.3902626 C29.30753721 185.39316084 23.57507265 185.39112981 17.84258842 185.38536835 C15.74442519 185.38405121 13.64626009 185.38441701 11.54809761 185.38663101 C-22.74850484 185.41947209 -22.74850484 185.41947209 -35.44555664 173.71099854 C-37.16316925 171.73970776 -38.04930024 169.76916506 -38.71508789 167.25396729 C-39.37508789 167.25396729 -40.03508789 167.25396729 -40.71508789 167.25396729 C-40.71508789 165.93396729 -40.71508789 164.61396729 -40.71508789 163.25396729 C-41.37508789 163.25396729 -42.03508789 163.25396729 -42.71508789 163.25396729 C-45.33654295 157.29207791 -45.01060644 151.36725609 -45.00561523 144.98150635 C-45.01233246 143.74823608 -45.01904968 142.51496582 -45.02597046 141.24432373 C-45.04168501 137.87213872 -45.04832389 134.50020006 -45.04960203 131.12799549 C-45.0510272 129.01691709 -45.05530375 126.90586422 -45.06059647 124.79479218 C-45.07908301 117.41756054 -45.08726905 110.04040101 -45.08569336 102.66314697 C-45.08449322 95.80687964 -45.10557384 88.95092773 -45.13718069 82.09474015 C-45.16341317 76.19216134 -45.17405771 70.28968508 -45.17278254 64.38704848 C-45.17227483 60.86890417 -45.17785096 57.35104021 -45.19913864 53.83295441 C-45.22226935 49.90318215 -45.21295756 45.97383538 -45.20092773 42.04400635 C-45.21216675 40.89249084 -45.22340576 39.74097534 -45.23498535 38.55456543 C-45.17892292 31.32311747 -43.92141324 25.74887952 -40.71508789 19.25396729 C-40.05508789 19.25396729 -39.39508789 19.25396729 -38.71508789 19.25396729 C-38.47016602 18.51275635 -38.22524414 17.77154541 -37.97290039 17.00787354 C-35.08565424 10.68641846 -28.21134959 5.80866381 -21.91688442 3.06913733 C-14.82639036 0.4440272 -7.48973946 -0.03961923 0 0 Z M16.28491211 58.25396729 C16.28491211 58.91396729 16.28491211 59.57396729 16.28491211 60.25396729 C15.62491211 60.25396729 14.96491211 60.25396729 14.28491211 60.25396729 C11.45330679 64.50137527 11.63968894 68.26742771 12.28491211 73.25396729 C14.62011218 77.40543408 16.81533425 78.86706575 21.28491211 80.25396729 C24.10230204 80.55868692 26.89062967 80.57876869 29.72241211 80.56646729 C30.82939453 80.59063721 30.82939453 80.59063721 31.95874023 80.61529541 C36.78916654 80.61958912 40.13168768 79.96365568 44.28491211 77.25396729 C46.46909595 75.05139032 47.19696095 73.85260259 47.64819336 70.78131104 C47.63143555 69.9266626 47.61467773 69.07201416 47.59741211 68.19146729 C47.59161133 66.90562744 47.59161133 66.90562744 47.58569336 65.59381104 C47.42639365 62.98509424 47.42639365 62.98509424 45.28491211 60.25396729 C44.62491211 60.25396729 43.96491211 60.25396729 43.28491211 60.25396729 C43.28491211 59.59396729 43.28491211 58.93396729 43.28491211 58.25396729 C38.74256942 55.98279594 34.74326502 55.95258539 29.78491211 56.00396729 C29.03854492 55.99623291 28.29217773 55.98849854 27.52319336 55.98052979 C23.32708731 55.99538326 20.11639423 56.33822623 16.28491211 58.25396729 Z M76.28491211 58.25396729 C76.28491211 58.91396729 76.28491211 59.57396729 76.28491211 60.25396729 C75.62491211 60.25396729 74.96491211 60.25396729 74.28491211 60.25396729 C71.45330679 64.50137527 71.63968894 68.26742771 72.28491211 73.25396729 C74.61924596 77.40389413 76.79743852 78.91079432 81.28491211 80.25396729 C84.61954491 80.54899444 87.94237771 80.53741117 91.28833008 80.52862549 C92.2921875 80.53373642 93.29604492 80.53884735 94.33032227 80.54411316 C97.64597551 80.5580034 100.96142074 80.55705269 104.27709961 80.55474854 C106.58489051 80.55863596 108.89268071 80.56297072 111.20046997 80.56773376 C116.03739745 80.5751949 120.87425194 80.57490557 125.71118164 80.56964111 C131.90400559 80.56384868 138.09653025 80.58077279 144.28930473 80.60398579 C149.05573264 80.61873141 153.82208863 80.61959364 158.58853531 80.61647606 C160.87144691 80.61698892 163.15436258 80.62221999 165.43725204 80.63228798 C168.63259972 80.6446499 171.82736642 80.6378616 175.02270508 80.62628174 C175.96215973 80.63392548 176.90161438 80.64156921 177.86953735 80.64944458 C183.42716838 80.60501798 187.39715355 79.98031238 192.28491211 77.25396729 C194.56438909 73.83475182 194.61004316 72.35086551 194.65991211 68.31646729 C194.68827148 67.27619385 194.71663086 66.23592041 194.74584961 65.16412354 C194.17210764 61.54176955 193.13637521 60.49011466 190.28491211 58.25396729 C187.35266629 56.53238026 185.24025451 56.00334424 181.85133362 56 C180.96957458 55.99436035 180.08781555 55.9887207 179.17933655 55.98291016 C177.73994972 55.98898285 177.73994972 55.98898285 176.27148438 55.99517822 C174.74646805 55.98992126 174.74646805 55.98992126 173.19064331 55.98455811 C169.82746568 55.97575053 166.46449816 55.98158704 163.10131836 55.98834229 C160.76488708 55.98699525 158.42845608 55.9850544 156.09202576 55.98254395 C151.1936476 55.97959391 146.29534235 55.98388612 141.39697266 55.9932251 C135.11766275 56.00461318 128.83852393 55.99806338 122.55922031 55.98608017 C117.73368542 55.97885299 112.90819107 55.98115358 108.08265495 55.98633575 C105.76739418 55.9876702 103.45212972 55.98603172 101.13687325 55.98137665 C97.90039445 55.97629812 94.66419255 55.98404087 91.42773438 55.99517822 C90.47016739 55.99112976 89.5126004 55.9870813 88.52601624 55.98291016 C84.01121223 56.01169437 80.37848593 56.09576567 76.28491211 58.25396729 Z M14.28491211 110.25396729 C11.59794355 114.28442013 11.48616383 117.51795475 12.28491211 122.25396729 C13.8396588 125.24577068 15.77315328 127.69544079 19.03969669 128.90228081 C22.03393915 129.37129352 24.92668669 129.37999779 27.95835876 129.38095093 C28.62795122 129.38251092 29.29754368 129.38407091 29.98742682 129.38567817 C32.22975879 129.38966485 34.47202299 129.38650754 36.71435547 129.38336182 C38.32257629 129.3847169 39.9307968 129.38649744 41.53901672 129.38867188 C45.90675261 129.39323378 50.27446489 129.39146164 54.64220119 129.38829279 C59.21227886 129.38576236 63.7823545 129.38810868 68.35243225 129.38967896 C76.02841556 129.39149883 83.70438925 129.38909929 91.38037109 129.38433838 C100.25424055 129.37889805 109.12808703 129.38065749 118.00195593 129.38616478 C125.61988806 129.39070339 133.23781328 129.39134273 140.85574633 129.38872612 C145.40596523 129.38716722 149.95617332 129.38695896 154.50639153 129.3902626 C158.78517545 129.39315208 163.06392977 129.39114576 167.34271049 129.38536835 C168.91285656 129.38404646 170.48300511 129.38442519 172.05315018 129.38663101 C174.19696099 129.38936497 176.34067703 129.38593387 178.48448181 129.38095093 C180.28386405 129.38038539 180.28386405 129.38038539 182.11959743 129.37980843 C184.96613934 129.26664051 187.51918905 128.90983672 190.28491211 128.25396729 C190.28491211 127.59396729 190.28491211 126.93396729 190.28491211 126.25396729 C190.94491211 126.25396729 191.60491211 126.25396729 192.28491211 126.25396729 C194.49968703 122.9318049 194.58158918 121.70363406 194.59741211 117.81646729 C194.62254883 116.39527588 194.62254883 116.39527588 194.64819336 114.94537354 C194.22282086 111.79395795 193.48926292 110.51802963 191.28491211 108.25396729 C187.7410604 105.95144866 184.67009153 105.99798603 180.50430298 105.98654175 C179.82316543 105.98201064 179.14202788 105.97747952 178.4402498 105.9728111 C176.15874658 105.96015472 173.8774817 105.96178824 171.59594727 105.96343994 C169.95978997 105.95745546 168.32363549 105.9506501 166.68748474 105.94308472 C162.24323052 105.92540946 157.7990533 105.9207287 153.35476732 105.91945314 C149.64452881 105.91755404 145.93430824 105.9101964 142.22407663 105.90310895 C133.47025734 105.88682166 124.71647919 105.88194032 115.96264648 105.88336182 C106.93306276 105.88456342 97.90371799 105.86345871 88.87419474 105.83187449 C81.1212068 105.80572198 73.36829696 105.79499409 65.61526525 105.79627264 C60.98500824 105.79678256 56.35496359 105.79108237 51.72475052 105.76991653 C47.36950871 105.75055133 43.01468219 105.75039778 38.65942574 105.7649498 C37.06227957 105.76704113 35.46510753 105.76231765 33.86800575 105.75022888 C31.68467925 105.7347751 29.50278453 105.74408337 27.31948853 105.75949097 C26.09869913 105.75840143 24.87790974 105.7573119 23.62012672 105.75618935 C19.58889817 106.35784677 17.44235375 107.71822649 14.28491211 110.25396729 Z " fill="#003060" transform="translate(587.715087890625,155.74603271484375)"/>
<path d="M0 0 C1.31645508 0.00273926 2.63291016 0.00547852 3.98925781 0.00830078 C13.44438209 0.1099311 22.02943619 1.01445169 31.1875 3.3125 C33.04020697 3.65385322 34.89425169 3.9880877 36.75 4.3125 C40.08861514 4.99238355 43.06369224 5.94571092 46.16015625 7.41015625 C48.86636464 8.61465362 51.64997693 9.56109301 54.4375 10.5625 C59.99756497 12.67940547 64.72648914 15.32150132 69.6484375 18.640625 C71.90728997 20.12799248 74.14952948 21.35162752 76.5625 22.5625 C85.7912793 27.6128302 93.56171675 35.53051885 101 42.875 C101.52182861 43.38748291 102.04365723 43.89996582 102.58129883 44.42797852 C106.1875 48.06601171 106.1875 48.06601171 106.1875 50.3125 C106.8475 50.3125 107.5075 50.3125 108.1875 50.3125 C110.02805078 52.73649334 111.74759544 55.1612235 113.4375 57.6875 C113.93113037 58.41614258 114.42476074 59.14478516 114.93334961 59.89550781 C118.53944814 65.25395319 122.04652833 70.66531749 125.1875 76.3125 C125.56777344 76.97765625 125.94804688 77.6428125 126.33984375 78.328125 C127.1875 80.3125 127.1875 80.3125 127.1875 84.3125 C127.8475 84.3125 128.5075 84.3125 129.1875 84.3125 C129.46013672 85.27349609 129.46013672 85.27349609 129.73828125 86.25390625 C129.98964844 87.11886719 130.24101563 87.98382812 130.5 88.875 C130.74363281 89.72191406 130.98726562 90.56882812 131.23828125 91.44140625 C132.17066935 94.43160625 132.17066935 94.43160625 133.6953125 97.640625 C135.30948678 101.61267688 136.08216121 105.29143013 136.75 109.5 C137.37931588 114.45834127 137.37931588 114.45834127 139.2175293 119.01660156 C140.68525963 122.49068564 140.47240048 125.98113982 140.453125 129.69140625 C140.45503845 130.4998851 140.4569519 131.30836395 140.45892334 132.14134216 C140.4602818 133.84675407 140.45660905 135.55217644 140.44824219 137.25756836 C140.43752375 139.86921347 140.44815591 142.48017291 140.4609375 145.09179688 C140.45961612 146.75000152 140.45705416 148.40820574 140.453125 150.06640625 C140.45717346 150.84770401 140.46122192 151.62900177 140.46539307 152.43397522 C140.43227745 156.25610502 140.35834499 158.05623252 138.1875 161.3125 C137.77006635 163.55895876 137.77006635 163.55895876 137.625 165.9375 C137.28591828 170.21408172 137.28591828 170.21408172 136.1875 171.3125 C135.81989269 173.64067964 135.48508419 175.9743385 135.1875 178.3125 C134.5275 178.3125 133.8675 178.3125 133.1875 178.3125 C133.23777344 179.18648437 133.28804687 180.06046875 133.33984375 180.9609375 C133.17444817 184.59964023 132.36031415 186.69862451 130.75 189.9375 C129.21596797 193.0580096 127.88500773 195.89711733 127.1875 199.3125 C126.5275 199.3125 125.8675 199.3125 125.1875 199.3125 C125.1875 200.6325 125.1875 201.9525 125.1875 203.3125 C124.5275 203.3125 123.8675 203.3125 123.1875 203.3125 C123.06632812 203.88742187 122.94515625 204.46234375 122.8203125 205.0546875 C120.68939054 212.65760659 115.16734679 220.30407024 110.1875 226.3125 C109.5275 226.3125 108.8675 226.3125 108.1875 226.3125 C107.94902344 226.86550781 107.71054687 227.41851563 107.46484375 227.98828125 C105.88707045 230.85915315 103.93988294 233.06559811 101.75 235.5 C100.96753906 236.38042969 100.18507813 237.26085937 99.37890625 238.16796875 C97.1875 240.3125 97.1875 240.3125 94.1875 241.3125 C94.1875 241.9725 94.1875 242.6325 94.1875 243.3125 C89.71691176 247.3125 89.71691176 247.3125 87.1875 247.3125 C87.1875 247.9725 87.1875 248.6325 87.1875 249.3125 C81.77573529 253.3125 81.77573529 253.3125 79.1875 253.3125 C79.1875 253.9725 79.1875 254.6325 79.1875 255.3125 C63.00509968 266.44507327 42.82990572 275.38677395 23.1875 277.3125 C22.8575 277.6425 22.5275 277.9725 22.1875 278.3125 C20.81140118 278.41045311 19.43036118 278.44048088 18.05078125 278.44189453 C17.17317139 278.44504669 16.29556152 278.44819885 15.39135742 278.45144653 C14.43720947 278.4494223 13.48306152 278.44739807 12.5 278.4453125 C11.04074097 278.44674759 11.04074097 278.44674759 9.55200195 278.44821167 C7.490722 278.44889358 5.42943992 278.44703853 3.36816406 278.44287109 C0.20112312 278.437523 -2.965776 278.44281572 -6.1328125 278.44921875 C-8.13020865 278.44855797 -10.12760471 278.44727681 -12.125 278.4453125 C-13.07914795 278.44733673 -14.0332959 278.44936096 -15.01635742 278.45144653 C-15.89396729 278.44829437 -16.77157715 278.44514221 -17.67578125 278.44189453 C-18.45219971 278.44109894 -19.22861816 278.44030334 -20.02856445 278.43948364 C-21.8125 278.3125 -21.8125 278.3125 -22.8125 277.3125 C-26.05438857 276.68528147 -29.29938795 276.12194542 -32.55859375 275.59375 C-37.33767699 274.76029207 -41.37279078 273.34326548 -45.8125 271.3125 C-47.78971046 270.59872442 -49.76889339 269.89038933 -51.75 269.1875 C-58.69098179 266.55443614 -64.97463432 263.03078594 -71.37890625 259.30078125 C-73.83380819 257.87922825 -76.25430418 256.52975857 -78.8125 255.3125 C-78.8125 254.6525 -78.8125 253.9925 -78.8125 253.3125 C-79.575625 253.02375 -80.33875 252.735 -81.125 252.4375 C-83.8125 251.3125 -83.8125 251.3125 -86.8125 249.3125 C-86.8125 248.6525 -86.8125 247.9925 -86.8125 247.3125 C-87.37324219 247.06757812 -87.93398438 246.82265625 -88.51171875 246.5703125 C-95.89833953 242.53212593 -102.88751893 235.11288777 -107.8125 228.3125 C-107.8125 227.6525 -107.8125 226.9925 -107.8125 226.3125 C-108.4725 226.3125 -109.1325 226.3125 -109.8125 226.3125 C-113.8125 220.90073529 -113.8125 220.90073529 -113.8125 218.3125 C-114.4725 218.3125 -115.1325 218.3125 -115.8125 218.3125 C-116.4725 216.3325 -117.1325 214.3525 -117.8125 212.3125 C-118.4725 212.3125 -119.1325 212.3125 -119.8125 212.3125 C-121.23103215 209.3342182 -122.64697122 206.35471028 -124.0625 203.375 C-124.45824219 202.54419922 -124.85398437 201.71339844 -125.26171875 200.85742188 C-126.45375417 198.34633086 -127.63447362 195.83018951 -128.8125 193.3125 C-129.37191284 192.1376001 -129.37191284 192.1376001 -129.94262695 190.93896484 C-132.12614195 186.23438664 -133.54124655 181.91107328 -134.5 176.8125 C-134.96183108 172.74278425 -134.96183108 172.74278425 -136.8125 169.3125 C-139.31243792 160.49894334 -139.12033715 151.40586113 -139.07324219 142.33374023 C-139.06253516 139.88304824 -139.07318254 137.4330915 -139.0859375 134.98242188 C-139.10155536 118.63176758 -136.61144274 103.32683188 -129.8125 88.3125 C-129.45478516 87.17554688 -129.45478516 87.17554688 -129.08984375 86.015625 C-126.3984167 77.55327762 -121.86625752 70.48869996 -117.0078125 63.13037109 C-116.21777049 61.92884887 -115.4413792 60.71822683 -114.6796875 59.49853516 C-113.77523635 58.06941859 -112.80015828 56.68543015 -111.8125 55.3125 C-111.1525 55.3125 -110.4925 55.3125 -109.8125 55.3125 C-109.1525 53.6625 -108.4925 52.0125 -107.8125 50.3125 C-107.1525 50.3125 -106.4925 50.3125 -105.8125 50.3125 C-105.60625 49.78140625 -105.4 49.2503125 -105.1875 48.703125 C-103.23288808 45.30476564 -100.59126283 42.80194072 -97.8125 40.0625 C-96.99265625 39.23105469 -96.99265625 39.23105469 -96.15625 38.3828125 C-92.0658867 34.3125 -92.0658867 34.3125 -89.8125 34.3125 C-89.8125 33.6525 -89.8125 32.9925 -89.8125 32.3125 C-88.42651367 31.07910156 -88.42651367 31.07910156 -86.48046875 29.703125 C-85.76963135 29.1985376 -85.05879395 28.6939502 -84.32641602 28.17407227 C-83.17484009 27.37634399 -83.17484009 27.37634399 -82 26.5625 C-81.22261475 26.01972412 -80.44522949 25.47694824 -79.64428711 24.91772461 C-73.89792918 20.95358944 -68.0637803 17.42828009 -61.8125 14.3125 C-60.97460938 13.86390625 -60.13671875 13.4153125 -59.2734375 12.953125 C-53.59680056 9.96542135 -47.98343776 8.0111205 -41.8125 6.3125 C-40.78125 5.961875 -39.75 5.61125 -38.6875 5.25 C-26.04198065 1.12646108 -13.24904407 -0.05598188 0 0 Z M35.1875 105.3125 C33.85786521 106.64952165 32.52497195 107.98331817 31.1875 109.3125 C30.65125 109.869375 30.115 110.42625 29.5625 111 C28.1875 112.3125 28.1875 112.3125 26.1875 113.3125 C26.1875 113.9725 26.1875 114.6325 26.1875 115.3125 C25.5275 115.3125 24.8675 115.3125 24.1875 115.3125 C24.1875 115.9725 24.1875 116.6325 24.1875 117.3125 C23.5275 117.3125 22.8675 117.3125 22.1875 117.3125 C22.1875 117.9725 22.1875 118.6325 22.1875 119.3125 C21.5275 119.3125 20.8675 119.3125 20.1875 119.3125 C20.1875 119.9725 20.1875 120.6325 20.1875 121.3125 C19.61531738 121.55798584 19.04313477 121.80347168 18.45361328 122.05639648 C15.8037938 123.52518783 14.04650717 125.24386048 11.9296875 127.41015625 C10.74439453 128.61188477 10.74439453 128.61188477 9.53515625 129.83789062 C8.71917969 130.67513672 7.90320313 131.51238281 7.0625 132.375 C5.43711294 134.03472622 3.80961373 135.69238747 2.1796875 137.34765625 C1.46151855 138.0837915 0.74334961 138.81992676 0.00341797 139.57836914 C-1.8125 141.3125 -1.8125 141.3125 -3.8125 142.3125 C-3.8125 142.9725 -3.8125 143.6325 -3.8125 144.3125 C-4.40160156 144.56773437 -4.99070312 144.82296875 -5.59765625 145.0859375 C-8.01886996 146.42678601 -9.41630326 147.87935539 -11.25 149.9375 C-14.43876266 153.25683699 -14.43876266 153.25683699 -17.75 153.75 C-18.430625 153.605625 -19.11125 153.46125 -19.8125 153.3125 C-20.039375 152.755625 -20.26625 152.19875 -20.5 151.625 C-22.18800036 148.65090412 -24.27926517 146.59241135 -26.8125 144.3125 C-27.4725 144.3125 -28.1325 144.3125 -28.8125 144.3125 C-28.8125 143.6525 -28.8125 142.9925 -28.8125 142.3125 C-29.4725 142.3125 -30.1325 142.3125 -30.8125 142.3125 C-30.8125 141.6525 -30.8125 140.9925 -30.8125 140.3125 C-31.4725 140.3125 -32.1325 140.3125 -32.8125 140.3125 C-32.8125 139.6525 -32.8125 138.9925 -32.8125 138.3125 C-33.4725 138.3125 -34.1325 138.3125 -34.8125 138.3125 C-34.8125 137.6525 -34.8125 136.9925 -34.8125 136.3125 C-35.4725 136.3125 -36.1325 136.3125 -36.8125 136.3125 C-36.8125 135.6525 -36.8125 134.9925 -36.8125 134.3125 C-37.4725 134.3125 -38.1325 134.3125 -38.8125 134.3125 C-38.8125 133.6525 -38.8125 132.9925 -38.8125 132.3125 C-39.4725 132.3125 -40.1325 132.3125 -40.8125 132.3125 C-41.06 131.69375 -41.3075 131.075 -41.5625 130.4375 C-43.10072496 127.82251756 -43.93600424 127.24541754 -46.8125 126.3125 C-51.09511351 125.83665405 -53.28690024 126.03482465 -57.125 128.0625 C-60.32551079 130.67277383 -60.32551079 130.67277383 -61.8125 134.3125 C-62.23448681 139.62953377 -62.31423915 143.0026672 -58.8125 147.3125 C-58.1525 147.3125 -57.4925 147.3125 -56.8125 147.3125 C-56.8125 147.9725 -56.8125 148.6325 -56.8125 149.3125 C-56.1525 149.3125 -55.4925 149.3125 -54.8125 149.3125 C-54.8125 149.9725 -54.8125 150.6325 -54.8125 151.3125 C-54.1525 151.3125 -53.4925 151.3125 -52.8125 151.3125 C-52.8125 151.9725 -52.8125 152.6325 -52.8125 153.3125 C-52.1525 153.3125 -51.4925 153.3125 -50.8125 153.3125 C-50.8125 153.9725 -50.8125 154.6325 -50.8125 155.3125 C-50.1525 155.3125 -49.4925 155.3125 -48.8125 155.3125 C-48.8125 155.9725 -48.8125 156.6325 -48.8125 157.3125 C-48.1525 157.3125 -47.4925 157.3125 -46.8125 157.3125 C-46.8125 157.9725 -46.8125 158.6325 -46.8125 159.3125 C-46.1525 159.3125 -45.4925 159.3125 -44.8125 159.3125 C-44.8125 159.9725 -44.8125 160.6325 -44.8125 161.3125 C-43.47916667 162.97916667 -43.47916667 162.97916667 -41.8125 164.3125 C-41.1525 164.3125 -40.4925 164.3125 -39.8125 164.3125 C-39.8125 164.9725 -39.8125 165.6325 -39.8125 166.3125 C-39.1525 166.3125 -38.4925 166.3125 -37.8125 166.3125 C-37.8125 166.9725 -37.8125 167.6325 -37.8125 168.3125 C-37.1525 168.3125 -36.4925 168.3125 -35.8125 168.3125 C-35.8125 168.9725 -35.8125 169.6325 -35.8125 170.3125 C-35.1525 170.3125 -34.4925 170.3125 -33.8125 170.3125 C-33.8125 170.9725 -33.8125 171.6325 -33.8125 172.3125 C-33.1525 172.3125 -32.4925 172.3125 -31.8125 172.3125 C-31.8125 172.9725 -31.8125 173.6325 -31.8125 174.3125 C-31.1525 174.3125 -30.4925 174.3125 -29.8125 174.3125 C-29.8125 174.9725 -29.8125 175.6325 -29.8125 176.3125 C-29.1525 176.3125 -28.4925 176.3125 -27.8125 176.3125 C-27.8125 176.9725 -27.8125 177.6325 -27.8125 178.3125 C-27.1525 178.3125 -26.4925 178.3125 -25.8125 178.3125 C-25.8125 178.9725 -25.8125 179.6325 -25.8125 180.3125 C-22.34023826 183.13371267 -19.25586349 183.8612553 -14.78515625 183.65234375 C-8.73582358 182.61018149 -4.59620792 177.24935769 -0.546875 173.01953125 C1.1875 171.3125 1.1875 171.3125 3.1875 170.3125 C3.1875 169.6525 3.1875 168.9925 3.1875 168.3125 C3.8475 168.3125 4.5075 168.3125 5.1875 168.3125 C5.1875 167.6525 5.1875 166.9925 5.1875 166.3125 C5.8475 166.3125 6.5075 166.3125 7.1875 166.3125 C7.1875 165.6525 7.1875 164.9925 7.1875 164.3125 C7.8475 164.3125 8.5075 164.3125 9.1875 164.3125 C9.1875 163.6525 9.1875 162.9925 9.1875 162.3125 C10.03223877 161.9578064 10.03223877 161.9578064 10.89404297 161.59594727 C13.71656271 160.01642988 15.61939874 158.08814816 17.8828125 155.77734375 C18.76324219 154.88595703 19.64367187 153.99457031 20.55078125 153.07617188 C21.46214844 152.14353516 22.37351562 151.21089844 23.3125 150.25 C25.12539615 148.40277833 26.94039358 146.55761579 28.7578125 144.71484375 C29.96074951 143.48495728 29.96074951 143.48495728 31.18798828 142.23022461 C33.1875 140.3125 33.1875 140.3125 35.1875 139.3125 C35.1875 138.6525 35.1875 137.9925 35.1875 137.3125 C35.77772949 137.04896729 36.36795898 136.78543457 36.97607422 136.51391602 C39.27910527 135.26273299 40.75111442 133.96445022 42.5703125 132.08984375 C43.18003906 131.46916016 43.78976562 130.84847656 44.41796875 130.20898438 C45.04316406 129.56251953 45.66835938 128.91605469 46.3125 128.25 C47.56286074 126.9652607 48.81536516 125.68260319 50.0703125 124.40234375 C50.62090332 123.83378662 51.17149414 123.26522949 51.73876953 122.67944336 C53.1875 121.3125 53.1875 121.3125 55.1875 120.3125 C55.1875 119.6525 55.1875 118.9925 55.1875 118.3125 C55.8475 118.3125 56.5075 118.3125 57.1875 118.3125 C57.1875 117.6525 57.1875 116.9925 57.1875 116.3125 C58.1775 115.9825 59.1675 115.6525 60.1875 115.3125 C62.86137686 111.79424098 62.74192539 107.53789349 62.1875 103.3125 C60.55062815 99.72697119 59.49777417 98.51934945 56.1875 96.3125 C46.35753577 94.16986221 41.62857667 98.40039221 35.1875 105.3125 Z " fill="#003060" transform="translate(876.8125,720.6875)"/>
<path d="M0 0 C0.9895594 -0.00538554 1.9791188 -0.01077108 2.99866486 -0.01631981 C6.29416056 -0.03055711 9.58925218 -0.02350603 12.88476562 -0.01637268 C15.25569988 -0.02207839 17.6266314 -0.02904342 19.99755859 -0.03717041 C26.42308456 -0.05509313 32.84847389 -0.05393522 39.27401733 -0.04822803 C43.2901887 -0.045162 47.30634063 -0.04812901 51.32250977 -0.05270576 C51.99032927 -0.05345419 52.65814878 -0.05420261 53.34620523 -0.05497371 C54.70309385 -0.05650527 56.05998247 -0.05804361 57.41687107 -0.05958868 C70.12449556 -0.07329806 82.83205837 -0.06788667 95.53968143 -0.05640347 C107.15343849 -0.04646912 118.76703628 -0.05941794 130.38076878 -0.08333766 C142.32195476 -0.10774553 154.26306661 -0.11733261 166.20427704 -0.11068493 C172.90194352 -0.10719691 179.5994695 -0.10973381 186.29711914 -0.12693596 C192.59436404 -0.14240444 198.89130472 -0.13845018 205.1885376 -0.11963081 C207.49717145 -0.11594495 209.80582784 -0.11905327 212.11444092 -0.1295166 C215.27065436 -0.14272759 218.42586075 -0.13117719 221.58203125 -0.11352539 C222.94591351 -0.1279329 222.94591351 -0.1279329 224.33734894 -0.14263147 C233.59514311 -0.0364076 240.67908557 3.63760895 247.79101562 9.38768005 C247.79101562 10.04768005 247.79101562 10.70768005 247.79101562 11.38768005 C248.45101563 11.38768005 249.11101562 11.38768005 249.79101562 11.38768005 C257.31685593 20.49790779 259.39155749 29.38361126 259.30859375 41.03831482 C259.31910767 42.87687546 259.31910767 42.87687546 259.32983398 44.75257874 C259.3443331 48.08548357 259.34106258 51.41738346 259.32831764 54.75023007 C259.31811531 58.25471316 259.32760301 61.7591564 259.3338623 65.26364136 C259.34111689 71.14515293 259.33160791 77.02646285 259.3125 82.90794373 C259.29072512 89.68822994 259.29779556 96.46803505 259.31980562 103.24830967 C259.33801032 109.09238194 259.34049362 114.93631016 259.33005095 120.78040165 C259.323845 124.26097454 259.32289982 127.74132194 259.3361969 131.22187996 C259.3499938 135.10358734 259.33082312 138.98476403 259.30859375 142.86643982 C259.31669067 144.00591568 259.3247876 145.14539154 259.33312988 146.31939697 C259.24064919 155.06394216 257.13934213 161.83456851 251.79101562 168.82518005 C251.07945312 169.78230896 251.07945312 169.78230896 250.35351562 170.7587738 C248.64043142 172.54466409 247.05207133 173.41796004 244.79101562 174.38768005 C244.79101562 175.04768005 244.79101562 175.70768005 244.79101562 176.38768005 C241.79101562 178.38768005 241.79101562 178.38768005 238.79101562 178.38768005 C238.79101562 179.04768005 238.79101562 179.70768005 238.79101562 180.38768005 C231.21361965 183.70279079 224.2851675 184.68387266 216.11988831 184.64837646 C215.1761024 184.65220201 214.2323165 184.65602756 213.25993103 184.65996903 C210.11341541 184.67024619 206.96708408 184.66631694 203.82055664 184.66233826 C201.55814445 184.66668762 199.29573373 184.67187152 197.0333252 184.67782593 C190.89907611 184.69120222 184.76488869 184.69179616 178.63062787 184.68926263 C173.50632289 184.6881921 168.38203035 184.69307833 163.25772804 184.69786805 C150.47696075 184.709592 137.69623771 184.70874083 124.91546982 184.70231124 C113.82869729 184.697142 102.74201262 184.70839972 91.65525747 184.72740946 C80.25651296 184.74680354 68.85782619 184.75474999 57.45906204 184.75128621 C51.06545089 184.74947399 44.67192023 184.75210368 38.27832222 184.76600075 C32.26594569 184.77858062 26.253745 184.77663329 20.24137115 184.76358986 C18.03755318 184.76122499 15.83372282 184.76395554 13.62991905 184.77221298 C10.61611824 184.78268937 7.60290651 184.77457233 4.58912659 184.76190186 C3.72199006 184.76927614 2.85485354 184.77665043 1.96144015 184.78424817 C-6.02741308 184.71383663 -12.71714814 182.37638344 -19.77148438 178.70018005 C-20.61839844 178.26318787 -21.4653125 177.82619568 -22.33789062 177.3759613 C-22.95535156 177.04982849 -23.5728125 176.72369568 -24.20898438 176.38768005 C-24.20898438 175.72768005 -24.20898438 175.06768005 -24.20898438 174.38768005 C-24.86898437 174.38768005 -25.52898437 174.38768005 -26.20898438 174.38768005 C-26.20898438 173.72768005 -26.20898438 173.06768005 -26.20898438 172.38768005 C-26.86898437 172.38768005 -27.52898437 172.38768005 -28.20898438 172.38768005 C-28.20898438 171.72768005 -28.20898438 171.06768005 -28.20898438 170.38768005 C-28.86898437 170.38768005 -29.52898437 170.38768005 -30.20898438 170.38768005 C-30.20898438 169.72768005 -30.20898438 169.06768005 -30.20898438 168.38768005 C-30.86898437 168.38768005 -31.52898437 168.38768005 -32.20898438 168.38768005 C-37.00645863 159.49687824 -39.08617709 152.43712235 -38.921875 142.36473083 C-38.92596375 141.13537308 -38.93005249 139.90601532 -38.93426514 138.6394043 C-38.93920414 135.31042398 -38.91773422 131.98374491 -38.88321114 128.65508509 C-38.85282305 125.15240036 -38.85548004 121.64972134 -38.85388184 118.14692688 C-38.84653329 112.27481338 -38.81677692 106.40317263 -38.77148438 100.53123474 C-38.71357959 93.00918772 -38.69301533 85.48751865 -38.68412018 77.9652729 C-38.67614582 71.46950124 -38.65116145 64.97381058 -38.62342644 58.47809744 C-38.61526066 56.40217493 -38.6093936 54.32625521 -38.60383606 52.25032425 C-38.59217385 48.37818633 -38.56279507 44.50629129 -38.53125 40.63426208 C-38.52901428 39.49230881 -38.52677856 38.35035553 -38.5244751 37.17379761 C-38.46361787 31.52821625 -38.11861239 26.71706953 -36.20898438 21.38768005 C-35.54898438 21.38768005 -34.88898438 21.38768005 -34.20898438 21.38768005 C-33.99242187 20.45955505 -33.99242187 20.45955505 -33.77148438 19.51268005 C-33.20898438 17.38768005 -33.20898438 17.38768005 -32.20898438 15.38768005 C-31.54898438 15.38768005 -30.88898438 15.38768005 -30.20898438 15.38768005 C-29.96148437 14.81018005 -29.71398437 14.23268005 -29.45898438 13.63768005 C-28.02598449 11.05828026 -26.42473761 9.32646413 -24.20898438 7.38768005 C-23.54898438 7.38768005 -22.88898438 7.38768005 -22.20898438 7.38768005 C-22.20898438 6.72768005 -22.20898438 6.06768005 -22.20898438 5.38768005 C-21.21898437 5.38768005 -20.22898437 5.38768005 -19.20898438 5.38768005 C-19.20898438 4.72768005 -19.20898438 4.06768005 -19.20898438 3.38768005 C-12.67766613 0.78049004 -7.00069047 -0.04627357 0 0 Z M20.79101562 60.38768005 C20.46101563 60.71768005 20.13101563 61.04768005 19.79101562 61.38768005 C19.14495255 66.88844562 18.73959315 71.03970252 22.22851562 75.51268005 C23.07414062 76.13143005 23.91976562 76.75018005 24.79101562 77.38768005 C25.12101562 77.71768005 25.45101562 78.04768005 25.79101562 78.38768005 C27.42574444 78.47468348 29.06415618 78.49469068 30.70117188 78.4853363 C32.18520508 78.48050232 32.18520508 78.48050232 33.69921875 78.47557068 C35.2605957 78.46300232 35.2605957 78.46300232 36.85351562 78.45018005 C37.89830078 78.44566833 38.94308594 78.44115662 40.01953125 78.43650818 C42.61008222 78.42467918 45.20052121 78.40819695 47.79101562 78.38768005 C47.79101562 77.72768005 47.79101562 77.06768005 47.79101562 76.38768005 C48.78101563 76.38768005 49.77101563 76.38768005 50.79101562 76.38768005 C50.79101562 75.72768005 50.79101562 75.06768005 50.79101562 74.38768005 C51.45101562 74.38768005 52.11101562 74.38768005 52.79101562 74.38768005 C54.76675148 70.43620834 54.36751437 65.68352557 53.79101562 61.38768005 C51.56111034 58.23545431 51.56111034 58.23545431 48.79101562 56.38768005 C48.46101563 56.05768005 48.13101563 55.72768005 47.79101562 55.38768005 C44.21713279 55.05204436 40.62862798 55.06263415 37.04101562 55.01268005 C35.53667969 54.95660583 35.53667969 54.95660583 34.00195312 54.8993988 C27.82755342 54.82569907 24.67564364 55.08304096 20.79101562 60.38768005 Z M80.79101562 59.38768005 C78.10938913 63.4101198 78.10143733 66.66033007 78.79101562 71.38768005 C80.84940087 74.72368373 82.53034203 76.21389765 85.79101562 78.38768005 C87.90109452 78.6932811 87.90109452 78.6932811 90.25619507 78.65510559 C91.17023605 78.66363556 92.08427704 78.67216553 93.02601624 78.68095398 C94.52690041 78.67959442 94.52690041 78.67959442 96.05810547 78.6782074 C97.64142418 78.68828323 97.64142418 78.68828323 99.25672913 78.69856262 C102.75518467 78.71760106 106.25344896 78.7214698 109.75195312 78.72361755 C112.17949503 78.73004144 114.60703616 78.73676949 117.03457642 78.74378967 C122.12723587 78.75577711 127.21982742 78.75946899 132.3125 78.75828552 C138.84194251 78.75808226 145.37095013 78.78538578 151.90028954 78.81982994 C156.91541549 78.84205475 161.93043606 78.84612441 166.94560623 78.84506607 C169.35298792 78.84742864 171.76037222 78.85628884 174.16770554 78.8717308 C177.53382671 78.89130058 180.89900068 78.88558748 184.26513672 78.8735199 C185.2616777 78.88475891 186.25821869 78.89599792 187.28495789 78.90757751 C191.58587812 78.86834616 194.08855039 78.81451987 197.82388306 76.54481506 C201.52374971 72.48758373 202.28090117 69.99448344 202.18554688 64.6806488 C201.51862978 60.80460587 199.60344992 59.06618891 196.79101562 56.38768005 C194.44852279 55.21643363 193.05704685 55.25453587 190.4460907 55.24050903 C189.53342438 55.23335373 188.62075806 55.22619843 187.68043518 55.21882629 C186.67625046 55.21613739 185.67206573 55.21344849 184.63745117 55.2106781 C183.58205139 55.2041069 182.52665161 55.19753571 181.43927002 55.19076538 C177.93542415 55.1710024 174.43162117 55.15936359 170.92773438 55.1493988 C169.73325998 55.14532328 168.53878559 55.14124775 167.30811501 55.13704872 C160.98706865 55.11617601 154.66604409 55.10187901 148.3449707 55.09251404 C141.80767847 55.08144215 135.27072592 55.04703626 128.73355389 55.00734234 C123.71415055 54.98123006 118.69482883 54.97282702 113.67536354 54.96923256 C111.26518266 54.96435332 108.85500574 54.95270158 106.44489098 54.93419456 C103.07390595 54.90991662 99.70380887 54.91074769 96.33276367 54.91770935 C95.33465164 54.90489929 94.33653961 54.89208923 93.30818176 54.87889099 C87.87093027 54.91987918 84.65410327 55.14737675 80.79101562 59.38768005 Z M21.39257812 108.1415863 C18.77069439 111.81861837 19.13148365 115.14533746 19.25976562 119.52830505 C19.82882902 122.59120509 20.31197104 123.61347623 22.66601562 125.57518005 C27.08679327 128.13923109 29.16973869 128.5143198 34.30661011 128.52139282 C34.98336639 128.52365838 35.66012266 128.52592394 36.35738671 128.52825814 C38.63589862 128.53461234 40.91435127 128.53376787 43.19287109 128.53294373 C44.822124 128.53593435 46.45137619 128.53933665 48.08062744 128.54312134 C52.51452425 128.55197579 56.94840178 128.55430007 61.38230658 128.55493712 C65.08020041 128.55588518 68.77808973 128.55956233 72.47598183 128.56310922 C81.19899672 128.57125942 89.92200128 128.57369295 98.64501953 128.57298279 C107.65066896 128.57238197 116.6562585 128.58293338 125.66189277 128.59872645 C133.38677531 128.61179198 141.11163825 128.61716709 148.83653176 128.61652738 C153.4532768 128.61627208 158.06996866 128.61914058 162.68670273 128.62970543 C167.02867937 128.63936972 171.37055178 128.63947709 175.71253204 128.6321888 C177.30728685 128.63114084 178.90204809 128.63351829 180.49679184 128.63954926 C182.67180263 128.64724262 184.84645113 128.64264221 187.02145386 128.63491821 C188.84823827 128.63573536 188.84823827 128.63573536 190.71192741 128.63656902 C193.65134236 128.39897013 195.31794672 127.93175412 197.79101562 126.38768005 C197.79101562 125.72768005 197.79101562 125.06768005 197.79101562 124.38768005 C198.45101562 124.38768005 199.11101562 124.38768005 199.79101562 124.38768005 C202.22468273 120.07745037 202.6250489 116.25287414 201.79101562 111.38768005 C198.49831323 106.69807362 195.22574012 105.67541247 189.79101562 104.38768005 C186.43914979 104.09225505 186.43914979 104.09225505 182.96008301 104.13371277 C182.30975617 104.13059279 181.65942933 104.12747281 180.98939562 104.12425828 C178.83007527 104.11633902 176.67104073 104.12257788 174.51171875 104.12889099 C172.95555966 104.12617842 171.39940185 104.122616 169.84324646 104.11827087 C165.63048321 104.10917622 161.41781824 104.11267904 157.20505333 104.11902905 C152.78940955 104.12410419 148.373774 104.11939338 143.95812988 104.11625671 C136.54384862 104.11262148 129.12960724 104.11740454 121.71533203 104.12693787 C113.15213146 104.13782156 104.58902615 104.13429567 96.02582788 104.12328506 C88.66427119 104.11419956 81.30274311 104.11293308 73.94118261 104.11816239 C69.54854618 104.12127515 65.15595446 104.12171054 60.76332092 104.11508942 C56.63301716 104.10929822 52.50283582 104.11334526 48.37254524 104.12487793 C46.85967779 104.12751503 45.34679998 104.12677569 43.83393669 104.1223526 C41.76313632 104.11685799 39.69272413 104.1237781 37.62194824 104.13371277 C35.88648365 104.13484385 35.88648365 104.13484385 34.11595917 104.13599777 C29.38688765 104.49396581 25.25433072 105.3176011 21.39257812 108.1415863 Z " fill="#003060" transform="translate(278.208984375,768.6123199462891)"/>
<path d="M0 0 C1.56814453 -0.10248047 1.56814453 -0.10248047 3.16796875 -0.20703125 C9.03883431 1.43530092 12.57845407 5.59964916 16.8125 9.8125 C18.06763248 11.0432138 19.32310777 12.27357804 20.57885742 13.50366211 C24.1152849 16.98241679 27.62636071 20.48569733 31.12890625 23.99853516 C33.33218679 26.20723522 35.54083985 28.41046365 37.75 30.61328125 C39.15657124 32.02051231 40.56283279 33.42805301 41.96875 34.8359375 C42.62701782 35.49218109 43.28528564 36.14842468 43.96350098 36.82455444 C44.57173706 37.43594269 45.17997314 38.04733093 45.80664062 38.67724609 C46.60745056 39.47924942 46.60745056 39.47924942 47.42443848 40.29745483 C50.2069271 43.33449308 51.16048001 45.46513612 51.3125 49.5 C51.3640625 50.30824219 51.415625 51.11648438 51.46875 51.94921875 C49.73783657 59.50135887 42.3473888 65.58540133 37.03515625 70.890625 C36.30558212 71.62448425 35.576008 72.35834351 34.82432556 73.11444092 C33.29142724 74.65304513 31.75595199 76.18908592 30.21801758 77.72265625 C27.87626716 80.06123456 25.54819674 82.4128672 23.22070312 84.765625 C21.72216517 86.26643521 20.22284253 87.76646243 18.72265625 89.265625 C18.03389908 89.96359192 17.34514191 90.66155884 16.63551331 91.38067627 C11.81463429 96.15611376 7.30135917 100.16641497 0.4375 101.4375 C-5.63068506 100.3912612 -10.18658442 97.05595081 -14.25 92.5 C-15.63630023 88.52593934 -15.83107644 84.96985588 -15.1875 80.8125 C-13.16330807 76.67977481 -10.262189 73.83686093 -7.03125 70.62890625 C-6.31130859 69.9129126 -5.59136719 69.19691895 -4.84960938 68.45922852 C-4.30111328 67.91580811 -3.75261719 67.3723877 -3.1875 66.8125 C-4.60451454 66.80703156 -4.60451454 66.80703156 -6.05015564 66.80145264 C-14.98025475 66.76441033 -23.91001196 66.70653733 -32.83985043 66.62859726 C-37.43011278 66.58919383 -42.02018534 66.55697052 -46.6105957 66.54150391 C-51.04584564 66.5262901 -55.48057356 66.49176149 -59.91559029 66.44419098 C-61.60229501 66.42942569 -63.28907429 66.42146179 -64.97584343 66.42061615 C-73.82270978 66.41172536 -81.30817991 66.36940653 -89.1875 61.8125 C-89.1875 61.1525 -89.1875 60.4925 -89.1875 59.8125 C-89.8475 59.8125 -90.5075 59.8125 -91.1875 59.8125 C-93.67868953 56.0757157 -93.3940226 54.06798181 -93.3125 49.625 C-93.29445313 48.35269531 -93.27640625 47.08039062 -93.2578125 45.76953125 C-93.23460937 44.79371094 -93.21140625 43.81789063 -93.1875 42.8125 C-92.5275 42.8125 -91.8675 42.8125 -91.1875 42.8125 C-90.98125 42.235 -90.775 41.6575 -90.5625 41.0625 C-88.60353386 37.85691905 -86.47054897 36.62944978 -83.1875 34.8125 C-80.35041717 34.42468074 -77.90079026 34.24725508 -75.07080078 34.26660156 C-74.27988541 34.25626389 -73.48897003 34.24592621 -72.67408752 34.23527527 C-70.07678598 34.2059307 -67.48026653 34.2043499 -64.8828125 34.203125 C-63.07533286 34.18813767 -61.26786688 34.17140936 -59.4604187 34.15301514 C-54.71593586 34.10939135 -49.97163774 34.08935357 -45.22698975 34.07427979 C-40.38038228 34.05469077 -35.53397379 34.01272276 -30.6875 33.97265625 C-21.18756145 33.89740801 -11.68766755 33.84708393 -2.1875 33.8125 C-3.6725 32.8225 -3.6725 32.8225 -5.1875 31.8125 C-5.1875 31.1525 -5.1875 30.4925 -5.1875 29.8125 C-5.8475 29.8125 -6.5075 29.8125 -7.1875 29.8125 C-7.1875 29.1525 -7.1875 28.4925 -7.1875 27.8125 C-7.8475 27.8125 -8.5075 27.8125 -9.1875 27.8125 C-9.1875 27.1525 -9.1875 26.4925 -9.1875 25.8125 C-9.8475 25.8125 -10.5075 25.8125 -11.1875 25.8125 C-11.1875 25.1525 -11.1875 24.4925 -11.1875 23.8125 C-11.8475 23.8125 -12.5075 23.8125 -13.1875 23.8125 C-13.1875 22.4925 -13.1875 21.1725 -13.1875 19.8125 C-13.8475 19.8125 -14.5075 19.8125 -15.1875 19.8125 C-15.56247746 15.12528181 -15.67209497 11.76374198 -13.5 7.5 C-9.40715011 2.74344472 -6.42237191 0.21121077 0 0 Z " fill="#003060" transform="translate(659.1875,810.1875)"/>
</svg>
